G04 #@! TF.GenerationSoftware,KiCad,Pcbnew,(5.1.10)-1*
G04 #@! TF.CreationDate,2024-12-13T18:52:17+01:00*
G04 #@! TF.ProjectId,plant_watner_V2.0,706c616e-745f-4776-9174-6e65725f5632,rev?*
G04 #@! TF.SameCoordinates,Original*
G04 #@! TF.FileFunction,Legend,Top*
G04 #@! TF.FilePolarity,Positive*
%FSLAX46Y46*%
G04 Gerber Fmt 4.6, Leading zero omitted, Abs format (unit mm)*
G04 Created by KiCad (PCBNEW (5.1.10)-1) date 2024-12-13 18:52:17*
%MOMM*%
%LPD*%
G01*
G04 APERTURE LIST*
%ADD10C,0.120000*%
%ADD11C,0.150000*%
%ADD12O,1.304000X2.404000*%
%ADD13C,2.204000*%
%ADD14C,1.702000*%
%ADD15O,1.702000X1.702000*%
%ADD16O,1.802000X1.802000*%
%ADD17C,2.102000*%
%ADD18C,5.702000*%
%ADD19O,2.007000X2.102000*%
%ADD20C,1.902000*%
%ADD21O,1.702000X2.102000*%
G04 APERTURE END LIST*
D10*
X171796005Y-110862729D02*
X171796005Y-109362729D01*
X170546005Y-106862729D02*
X166046005Y-106862729D01*
X164796005Y-109362729D02*
X164796005Y-110862729D01*
X166046005Y-113362729D02*
X170546005Y-113362729D01*
X179254004Y-113362729D02*
X183754004Y-113362729D01*
X178004004Y-109362729D02*
X178004004Y-110862729D01*
X183754004Y-106862729D02*
X179254004Y-106862729D01*
X185004004Y-110862729D02*
X185004004Y-109362729D01*
X178285635Y-118370348D02*
X178285635Y-116870348D01*
X177035635Y-114370348D02*
X172535635Y-114370348D01*
X171285635Y-116870348D02*
X171285635Y-118370348D01*
X172535635Y-120870348D02*
X177035635Y-120870348D01*
X177266636Y-99202347D02*
X172766636Y-99202347D01*
X178516636Y-103202347D02*
X178516636Y-101702347D01*
X172766636Y-105702347D02*
X177266636Y-105702347D01*
X171516636Y-101702347D02*
X171516636Y-103202347D01*
X157093634Y-97937348D02*
X157093634Y-97781348D01*
X157093634Y-95621348D02*
X157093634Y-95465348D01*
X154492504Y-95621511D02*
G75*
G02*
X156574595Y-95621348I1041130J-1079837D01*
G01*
X154492504Y-97781185D02*
G75*
G03*
X156574595Y-97781348I1041130J1079837D01*
G01*
X153861299Y-95622740D02*
G75*
G02*
X157093634Y-95465832I1672335J-1078608D01*
G01*
X153861299Y-97779956D02*
G75*
G03*
X157093634Y-97936864I1672335J1078608D01*
G01*
X152267636Y-95621348D02*
X152267636Y-95465348D01*
X152267636Y-97937348D02*
X152267636Y-97781348D01*
X149035301Y-97779956D02*
G75*
G03*
X152267636Y-97936864I1672335J1078608D01*
G01*
X149035301Y-95622740D02*
G75*
G02*
X152267636Y-95465832I1672335J-1078608D01*
G01*
X149666506Y-97781185D02*
G75*
G03*
X151748597Y-97781348I1041130J1079837D01*
G01*
X149666506Y-95621511D02*
G75*
G02*
X151748597Y-95621348I1041130J-1079837D01*
G01*
X106954635Y-95831349D02*
X134354635Y-95831349D01*
X134354635Y-95831349D02*
X134354635Y-123131349D01*
X134354635Y-123131349D02*
X106954635Y-123131349D01*
X106954635Y-123131349D02*
X106954635Y-95831349D01*
X130476635Y-115726349D02*
X107376635Y-115726349D01*
X107376635Y-115726349D02*
X107376635Y-99126349D01*
X107376635Y-99126349D02*
X130476635Y-99126349D01*
X115655635Y-96320349D02*
X125434635Y-96320349D01*
X125434635Y-96320349D02*
X125434635Y-98733349D01*
X125434635Y-98733349D02*
X115655635Y-98733349D01*
X115655635Y-96320349D02*
X115655635Y-98733349D01*
X130476635Y-99126349D02*
X133562635Y-99126349D01*
X130476635Y-115726349D02*
X133816635Y-115751349D01*
X133816635Y-115751349D02*
X133816635Y-99114349D01*
X133816635Y-99114349D02*
X133562635Y-99126349D01*
D11*
X165797112Y-110488728D02*
X166320921Y-109822062D01*
X165797112Y-109822062D02*
X166320921Y-110488728D01*
X166463778Y-110583967D02*
X167225683Y-110583967D01*
X167463778Y-109822062D02*
X167463778Y-110488728D01*
X167463778Y-109917300D02*
X167511397Y-109869681D01*
X167606636Y-109822062D01*
X167749493Y-109822062D01*
X167844731Y-109869681D01*
X167892350Y-109964919D01*
X167892350Y-110488728D01*
X168749493Y-110441109D02*
X168654255Y-110488728D01*
X168463778Y-110488728D01*
X168368540Y-110441109D01*
X168320921Y-110345871D01*
X168320921Y-109964919D01*
X168368540Y-109869681D01*
X168463778Y-109822062D01*
X168654255Y-109822062D01*
X168749493Y-109869681D01*
X168797112Y-109964919D01*
X168797112Y-110060157D01*
X168320921Y-110155395D01*
X169225683Y-110488728D02*
X169225683Y-109822062D01*
X169225683Y-110012538D02*
X169273302Y-109917300D01*
X169320921Y-109869681D01*
X169416159Y-109822062D01*
X169511397Y-109822062D01*
X170368540Y-110488728D02*
X169797112Y-110488728D01*
X170082826Y-110488728D02*
X170082826Y-109488728D01*
X169987588Y-109631586D01*
X169892350Y-109726824D01*
X169797112Y-109774443D01*
X178965444Y-110361728D02*
X179489254Y-109695062D01*
X178965444Y-109695062D02*
X179489254Y-110361728D01*
X179632111Y-110456967D02*
X180394015Y-110456967D01*
X181060682Y-109695062D02*
X181060682Y-110361728D01*
X180632111Y-109695062D02*
X180632111Y-110218871D01*
X180679730Y-110314109D01*
X180774968Y-110361728D01*
X180917825Y-110361728D01*
X181013063Y-110314109D01*
X181060682Y-110266490D01*
X181536873Y-109695062D02*
X181536873Y-110695062D01*
X181536873Y-109742681D02*
X181632111Y-109695062D01*
X181822587Y-109695062D01*
X181917825Y-109742681D01*
X181965444Y-109790300D01*
X182013063Y-109885538D01*
X182013063Y-110171252D01*
X181965444Y-110266490D01*
X181917825Y-110314109D01*
X181822587Y-110361728D01*
X181632111Y-110361728D01*
X181536873Y-110314109D01*
X182441635Y-109695062D02*
X182441635Y-110695062D01*
X182441635Y-109742681D02*
X182536873Y-109695062D01*
X182727349Y-109695062D01*
X182822587Y-109742681D01*
X182870206Y-109790300D01*
X182917825Y-109885538D01*
X182917825Y-110171252D01*
X182870206Y-110266490D01*
X182822587Y-110314109D01*
X182727349Y-110361728D01*
X182536873Y-110361728D01*
X182441635Y-110314109D01*
X183870206Y-110361728D02*
X183298777Y-110361728D01*
X183584492Y-110361728D02*
X183584492Y-109361728D01*
X183489254Y-109504586D01*
X183394015Y-109599824D01*
X183298777Y-109647443D01*
X172424920Y-117315062D02*
X172663015Y-117981728D01*
X172901111Y-117315062D02*
X172663015Y-117981728D01*
X172567777Y-118219824D01*
X172520158Y-118267443D01*
X172424920Y-118315062D01*
X173043968Y-118076967D02*
X173805873Y-118076967D01*
X174043968Y-117315062D02*
X174043968Y-117981728D01*
X174043968Y-117410300D02*
X174091587Y-117362681D01*
X174186825Y-117315062D01*
X174329682Y-117315062D01*
X174424920Y-117362681D01*
X174472539Y-117457919D01*
X174472539Y-117981728D01*
X175329682Y-117934109D02*
X175234444Y-117981728D01*
X175043968Y-117981728D01*
X174948730Y-117934109D01*
X174901111Y-117838871D01*
X174901111Y-117457919D01*
X174948730Y-117362681D01*
X175043968Y-117315062D01*
X175234444Y-117315062D01*
X175329682Y-117362681D01*
X175377301Y-117457919D01*
X175377301Y-117553157D01*
X174901111Y-117648395D01*
X175805873Y-117981728D02*
X175805873Y-117315062D01*
X175805873Y-117505538D02*
X175853492Y-117410300D01*
X175901111Y-117362681D01*
X175996349Y-117315062D01*
X176091587Y-117315062D01*
X176948730Y-117981728D02*
X176377301Y-117981728D01*
X176663015Y-117981728D02*
X176663015Y-116981728D01*
X176567777Y-117124586D01*
X176472539Y-117219824D01*
X176377301Y-117267443D01*
X172512255Y-102075061D02*
X172750350Y-102741727D01*
X172988445Y-102075061D02*
X172750350Y-102741727D01*
X172655112Y-102979823D01*
X172607493Y-103027442D01*
X172512255Y-103075061D01*
X173131302Y-102836966D02*
X173893207Y-102836966D01*
X174559874Y-102075061D02*
X174559874Y-102741727D01*
X174131302Y-102075061D02*
X174131302Y-102598870D01*
X174178921Y-102694108D01*
X174274159Y-102741727D01*
X174417016Y-102741727D01*
X174512255Y-102694108D01*
X174559874Y-102646489D01*
X175036064Y-102075061D02*
X175036064Y-103075061D01*
X175036064Y-102122680D02*
X175131302Y-102075061D01*
X175321778Y-102075061D01*
X175417016Y-102122680D01*
X175464636Y-102170299D01*
X175512255Y-102265537D01*
X175512255Y-102551251D01*
X175464636Y-102646489D01*
X175417016Y-102694108D01*
X175321778Y-102741727D01*
X175131302Y-102741727D01*
X175036064Y-102694108D01*
X175940826Y-102075061D02*
X175940826Y-103075061D01*
X175940826Y-102122680D02*
X176036064Y-102075061D01*
X176226540Y-102075061D01*
X176321778Y-102122680D01*
X176369397Y-102170299D01*
X176417016Y-102265537D01*
X176417016Y-102551251D01*
X176369397Y-102646489D01*
X176321778Y-102694108D01*
X176226540Y-102741727D01*
X176036064Y-102741727D01*
X175940826Y-102694108D01*
X177369397Y-102741727D02*
X176797969Y-102741727D01*
X177083683Y-102741727D02*
X177083683Y-101741727D01*
X176988445Y-101884585D01*
X176893207Y-101979823D01*
X176797969Y-102027442D01*
X155105086Y-99328728D02*
X155295562Y-99328728D01*
X155390800Y-99376348D01*
X155486038Y-99471586D01*
X155533657Y-99662062D01*
X155533657Y-99995395D01*
X155486038Y-100185871D01*
X155390800Y-100281109D01*
X155295562Y-100328728D01*
X155105086Y-100328728D01*
X155009848Y-100281109D01*
X154914610Y-100185871D01*
X154866991Y-99995395D01*
X154866991Y-99662062D01*
X154914610Y-99471586D01*
X155009848Y-99376348D01*
X155105086Y-99328728D01*
X155962229Y-100328728D02*
X155962229Y-99328728D01*
X156533657Y-100328728D01*
X156533657Y-99328728D01*
X148810802Y-100265228D02*
X148810802Y-99265228D01*
X149191755Y-99265228D01*
X149286993Y-99312848D01*
X149334612Y-99360467D01*
X149382231Y-99455705D01*
X149382231Y-99598562D01*
X149334612Y-99693800D01*
X149286993Y-99741419D01*
X149191755Y-99789038D01*
X148810802Y-99789038D01*
X150239374Y-99598562D02*
X150239374Y-100265228D01*
X149810802Y-99598562D02*
X149810802Y-100122371D01*
X149858421Y-100217609D01*
X149953659Y-100265228D01*
X150096516Y-100265228D01*
X150191755Y-100217609D01*
X150239374Y-100169990D01*
X150715564Y-100265228D02*
X150715564Y-99598562D01*
X150715564Y-99693800D02*
X150763183Y-99646181D01*
X150858421Y-99598562D01*
X151001278Y-99598562D01*
X151096516Y-99646181D01*
X151144136Y-99741419D01*
X151144136Y-100265228D01*
X151144136Y-99741419D02*
X151191755Y-99646181D01*
X151286993Y-99598562D01*
X151429850Y-99598562D01*
X151525088Y-99646181D01*
X151572707Y-99741419D01*
X151572707Y-100265228D01*
X152048897Y-99598562D02*
X152048897Y-100598562D01*
X152048897Y-99646181D02*
X152144136Y-99598562D01*
X152334612Y-99598562D01*
X152429850Y-99646181D01*
X152477469Y-99693800D01*
X152525088Y-99789038D01*
X152525088Y-100074752D01*
X152477469Y-100169990D01*
X152429850Y-100217609D01*
X152334612Y-100265228D01*
X152144136Y-100265228D01*
X152048897Y-100217609D01*
X117307015Y-107837729D02*
X117497492Y-107837729D01*
X117592730Y-107885349D01*
X117687968Y-107980587D01*
X117735587Y-108171063D01*
X117735587Y-108504396D01*
X117687968Y-108694872D01*
X117592730Y-108790110D01*
X117497492Y-108837729D01*
X117307015Y-108837729D01*
X117211777Y-108790110D01*
X117116539Y-108694872D01*
X117068920Y-108504396D01*
X117068920Y-108171063D01*
X117116539Y-107980587D01*
X117211777Y-107885349D01*
X117307015Y-107837729D01*
X118640349Y-108837729D02*
X118164158Y-108837729D01*
X118164158Y-107837729D01*
X118973682Y-108313920D02*
X119307015Y-108313920D01*
X119449873Y-108837729D02*
X118973682Y-108837729D01*
X118973682Y-107837729D01*
X119449873Y-107837729D01*
X119878444Y-108837729D02*
X119878444Y-107837729D01*
X120116539Y-107837729D01*
X120259396Y-107885349D01*
X120354635Y-107980587D01*
X120402254Y-108075825D01*
X120449873Y-108266301D01*
X120449873Y-108409158D01*
X120402254Y-108599634D01*
X120354635Y-108694872D01*
X120259396Y-108790110D01*
X120116539Y-108837729D01*
X119878444Y-108837729D01*
X120640349Y-108932968D02*
X121402254Y-108932968D01*
X121640349Y-108837729D02*
X121640349Y-107837729D01*
X122068920Y-107932968D02*
X122116539Y-107885349D01*
X122211777Y-107837729D01*
X122449873Y-107837729D01*
X122545111Y-107885349D01*
X122592730Y-107932968D01*
X122640349Y-108028206D01*
X122640349Y-108123444D01*
X122592730Y-108266301D01*
X122021301Y-108837729D01*
X122640349Y-108837729D01*
X123640349Y-108742491D02*
X123592730Y-108790110D01*
X123449873Y-108837729D01*
X123354635Y-108837729D01*
X123211777Y-108790110D01*
X123116539Y-108694872D01*
X123068920Y-108599634D01*
X123021301Y-108409158D01*
X123021301Y-108266301D01*
X123068920Y-108075825D01*
X123116539Y-107980587D01*
X123211777Y-107885349D01*
X123354635Y-107837729D01*
X123449873Y-107837729D01*
X123592730Y-107885349D01*
X123640349Y-107932968D01*
%LPC*%
D12*
X151114035Y-120972748D03*
X152485635Y-120958348D03*
X153857235Y-120958348D03*
D13*
X138494635Y-116513348D03*
X135954635Y-116513348D03*
X133414635Y-116513348D03*
X130874635Y-116513348D03*
X128334635Y-116513348D03*
X125794635Y-116513348D03*
X123254635Y-116513348D03*
X120714635Y-116513348D03*
X118174635Y-116513348D03*
X115634635Y-116513348D03*
X113094635Y-116513348D03*
X110554635Y-116513348D03*
X108014635Y-116513348D03*
X105474635Y-116513348D03*
X102934635Y-116513348D03*
X138494635Y-91113348D03*
X135954635Y-91113348D03*
X133414635Y-91113348D03*
X130874635Y-91113348D03*
X128334635Y-91113348D03*
X125794635Y-91113348D03*
X123254635Y-91113348D03*
X120714635Y-91113348D03*
X118174635Y-91113348D03*
X115634635Y-91113348D03*
X113094635Y-91113348D03*
X110554635Y-91113348D03*
X108014635Y-91113348D03*
X105474635Y-91113348D03*
G36*
G01*
X101934635Y-90011348D02*
X103934635Y-90011348D01*
G75*
G02*
X104036635Y-90113348I0J-102000D01*
G01*
X104036635Y-92113348D01*
G75*
G02*
X103934635Y-92215348I-102000J0D01*
G01*
X101934635Y-92215348D01*
G75*
G02*
X101832635Y-92113348I0J102000D01*
G01*
X101832635Y-90113348D01*
G75*
G02*
X101934635Y-90011348I102000J0D01*
G01*
G37*
D14*
X188218355Y-70064368D03*
D15*
X178058355Y-70064368D03*
X178086355Y-67016369D03*
D14*
X188246355Y-67016369D03*
D15*
X178058354Y-63968369D03*
D14*
X188218354Y-63968369D03*
X188218356Y-60920368D03*
D15*
X178058356Y-60920368D03*
G36*
G01*
X157780635Y-92141348D02*
X156080635Y-92141348D01*
G75*
G02*
X156029635Y-92090348I0J51000D01*
G01*
X156029635Y-90390348D01*
G75*
G02*
X156080635Y-90339348I51000J0D01*
G01*
X157780635Y-90339348D01*
G75*
G02*
X157831635Y-90390348I0J-51000D01*
G01*
X157831635Y-92090348D01*
G75*
G02*
X157780635Y-92141348I-51000J0D01*
G01*
G37*
D16*
X154390635Y-91240348D03*
X151850635Y-91240348D03*
X149310635Y-91240348D03*
D17*
X165046005Y-112362729D03*
X165046005Y-107862729D03*
X171546005Y-112362729D03*
X171546005Y-107862729D03*
X184754004Y-107862729D03*
X184754004Y-112362729D03*
X178254004Y-107862729D03*
X178254004Y-112362729D03*
X171535635Y-119870348D03*
X171535635Y-115370348D03*
X178035635Y-119870348D03*
X178035635Y-115370348D03*
X171766636Y-104702347D03*
X171766636Y-100202347D03*
X178266636Y-104702347D03*
X178266636Y-100202347D03*
D18*
X186140635Y-121720348D03*
X183346635Y-53648348D03*
X95843636Y-122355349D03*
G36*
G01*
X188438636Y-82008348D02*
X188438636Y-83708348D01*
G75*
G02*
X188387636Y-83759348I-51000J0D01*
G01*
X186687636Y-83759348D01*
G75*
G02*
X186636636Y-83708348I0J51000D01*
G01*
X186636636Y-82008348D01*
G75*
G02*
X186687636Y-81957348I51000J0D01*
G01*
X188387636Y-81957348D01*
G75*
G02*
X188438636Y-82008348I0J-51000D01*
G01*
G37*
D16*
X187537636Y-85398348D03*
X187537636Y-87938348D03*
G36*
G01*
X156283136Y-112338349D02*
X156283136Y-114338349D01*
G75*
G02*
X156232136Y-114389349I-51000J0D01*
G01*
X154327136Y-114389349D01*
G75*
G02*
X154276136Y-114338349I0J51000D01*
G01*
X154276136Y-112338349D01*
G75*
G02*
X154327136Y-112287349I51000J0D01*
G01*
X156232136Y-112287349D01*
G75*
G02*
X156283136Y-112338349I0J-51000D01*
G01*
G37*
D19*
X152739636Y-113338349D03*
X150199636Y-113338349D03*
D20*
X154263634Y-96701348D03*
G36*
G01*
X157754634Y-95801348D02*
X157754634Y-97601348D01*
G75*
G02*
X157703634Y-97652348I-51000J0D01*
G01*
X155903634Y-97652348D01*
G75*
G02*
X155852634Y-97601348I0J51000D01*
G01*
X155852634Y-95801348D01*
G75*
G02*
X155903634Y-95750348I51000J0D01*
G01*
X157703634Y-95750348D01*
G75*
G02*
X157754634Y-95801348I0J-51000D01*
G01*
G37*
G36*
G01*
X152928636Y-95801348D02*
X152928636Y-97601348D01*
G75*
G02*
X152877636Y-97652348I-51000J0D01*
G01*
X151077636Y-97652348D01*
G75*
G02*
X151026636Y-97601348I0J51000D01*
G01*
X151026636Y-95801348D01*
G75*
G02*
X151077636Y-95750348I51000J0D01*
G01*
X152877636Y-95750348D01*
G75*
G02*
X152928636Y-95801348I0J-51000D01*
G01*
G37*
X149437636Y-96701348D03*
G36*
G01*
X188438636Y-92930348D02*
X188438636Y-94630348D01*
G75*
G02*
X188387636Y-94681348I-51000J0D01*
G01*
X186687636Y-94681348D01*
G75*
G02*
X186636636Y-94630348I0J51000D01*
G01*
X186636636Y-92930348D01*
G75*
G02*
X186687636Y-92879348I51000J0D01*
G01*
X188387636Y-92879348D01*
G75*
G02*
X188438636Y-92930348I0J-51000D01*
G01*
G37*
D16*
X187537636Y-96320348D03*
D21*
X124354635Y-97531349D03*
X121814635Y-97531349D03*
X116734635Y-97531349D03*
X119274635Y-97531349D03*
D14*
X166963634Y-119751850D03*
D15*
X156803634Y-119751850D03*
X178076136Y-76190849D03*
D14*
X188236136Y-76190849D03*
X188236136Y-73079349D03*
D15*
X178076136Y-73079349D03*
M02*
