%FSLAX45Y45*%
G04 Gerber Fmt 4.5, Leading zero omitted, Abs format (unit mm)*
G04 Created by KiCad (PCBNEW (5.1.10)-1) date 2024-12-13 18:52:23*
%MOMM*%
%LPD*%
G01*
G04 APERTURE LIST*
%TA.AperFunction,Profile*%
%ADD10C,0.150000*%
%TD*%
%ADD11C,0.200000*%
%ADD12C,0.300000*%
G04 APERTURE END LIST*
D10*
X18677564Y-4869535D02*
X17890164Y-4869535D01*
X18753764Y-4869535D02*
X18677564Y-4869535D01*
X19134764Y-5161635D02*
X18753764Y-4869535D01*
X19134764Y-12362535D02*
X19134764Y-5161635D01*
X18817264Y-12680035D02*
X19134764Y-12362535D01*
X9470064Y-12680035D02*
X18817264Y-12680035D01*
X9063664Y-12273635D02*
X9470064Y-12680035D01*
X9063663Y-8933535D02*
X9063664Y-12273635D01*
X9279564Y-8717635D02*
X9063663Y-8933535D01*
X17305964Y-8717635D02*
X9279564Y-8717635D01*
X17483763Y-8539835D02*
X17305964Y-8717635D01*
X17483763Y-5275935D02*
X17483763Y-8539835D01*
X17890164Y-4869535D02*
X17483763Y-5275935D01*
D11*
D12*
X9342592Y-13153249D02*
X9342592Y-12853249D01*
X9414020Y-12853249D01*
X9456878Y-12867535D01*
X9485449Y-12896106D01*
X9499735Y-12924678D01*
X9514020Y-12981821D01*
X9514020Y-13024678D01*
X9499735Y-13081821D01*
X9485449Y-13110392D01*
X9456878Y-13138963D01*
X9414020Y-13153249D01*
X9342592Y-13153249D01*
X9642592Y-13153249D02*
X9642592Y-12953249D01*
X9642592Y-13010392D02*
X9656878Y-12981821D01*
X9671163Y-12967535D01*
X9699735Y-12953249D01*
X9728306Y-12953249D01*
X9828306Y-13153249D02*
X9828306Y-12953249D01*
X9828306Y-12853249D02*
X9814020Y-12867535D01*
X9828306Y-12881821D01*
X9842592Y-12867535D01*
X9828306Y-12853249D01*
X9828306Y-12881821D01*
X10014020Y-13153249D02*
X9985449Y-13138963D01*
X9971163Y-13110392D01*
X9971163Y-12853249D01*
X10171163Y-13153249D02*
X10142592Y-13138963D01*
X10128306Y-13110392D01*
X10128306Y-12853249D01*
X10514020Y-13153249D02*
X10514020Y-12853249D01*
X10614020Y-13067535D01*
X10714020Y-12853249D01*
X10714020Y-13153249D01*
X10985449Y-13153249D02*
X10985449Y-12996106D01*
X10971163Y-12967535D01*
X10942592Y-12953249D01*
X10885449Y-12953249D01*
X10856878Y-12967535D01*
X10985449Y-13138963D02*
X10956878Y-13153249D01*
X10885449Y-13153249D01*
X10856878Y-13138963D01*
X10842592Y-13110392D01*
X10842592Y-13081821D01*
X10856878Y-13053249D01*
X10885449Y-13038963D01*
X10956878Y-13038963D01*
X10985449Y-13024678D01*
X11128306Y-12953249D02*
X11128306Y-13253249D01*
X11128306Y-12967535D02*
X11156878Y-12953249D01*
X11214020Y-12953249D01*
X11242592Y-12967535D01*
X11256877Y-12981821D01*
X11271163Y-13010392D01*
X11271163Y-13096106D01*
X11256877Y-13124678D01*
X11242592Y-13138963D01*
X11214020Y-13153249D01*
X11156878Y-13153249D01*
X11128306Y-13138963D01*
X11399735Y-13124678D02*
X11414020Y-13138963D01*
X11399735Y-13153249D01*
X11385449Y-13138963D01*
X11399735Y-13124678D01*
X11399735Y-13153249D01*
X11399735Y-12967535D02*
X11414020Y-12981821D01*
X11399735Y-12996106D01*
X11385449Y-12981821D01*
X11399735Y-12967535D01*
X11399735Y-12996106D01*
M02*
