M48
; DRILL file {KiCad (5.1.10)-1} date 12/13/24 18:52:23
; FORMAT={-:-/ absolute / metric / decimal}
; #@! TF.CreationDate,2024-12-13T18:52:23+01:00
; #@! TF.GenerationSoftware,Kicad,Pcbnew,(5.1.10)-1
; #@! TF.FileFunction,Plated,1,2,PTH
FMAT,2
METRIC
T1C0.400
T2C0.800
T3C0.900
T4C1.000
T5C1.020
T6C1.100
T7C3.200
%
G90
G05
T1
X174.965Y-92.637
X180.807Y-92.637
T2
X156.804Y-119.752
X166.964Y-119.752
X178.058Y-63.968
X178.058Y-70.064
X178.058Y-60.92
X178.076Y-73.079
X178.076Y-76.191
X178.086Y-67.016
X188.218Y-63.968
X188.218Y-70.064
X188.218Y-60.92
X188.236Y-73.079
X188.236Y-76.191
X188.246Y-67.016
T3
X149.438Y-96.701
X151.114Y-120.973
X151.978Y-96.701
X152.486Y-120.958
X153.857Y-120.958
X154.264Y-96.701
X156.804Y-96.701
T4
X116.735Y-97.531
X119.275Y-97.531
X121.815Y-97.531
X124.355Y-97.531
X149.311Y-91.24
X151.851Y-91.24
X154.391Y-91.24
X156.931Y-91.24
X187.538Y-82.858
X187.538Y-85.398
X187.538Y-87.938
X187.538Y-93.78
X187.538Y-96.32
T5
X102.935Y-91.113
X102.935Y-116.513
X105.475Y-91.113
X105.475Y-116.513
X108.015Y-91.113
X108.015Y-116.513
X110.555Y-91.113
X110.555Y-116.513
X113.095Y-91.113
X113.095Y-116.513
X115.635Y-91.113
X115.635Y-116.513
X118.175Y-91.113
X118.175Y-116.513
X120.715Y-91.113
X120.715Y-116.513
X123.255Y-91.113
X123.255Y-116.513
X125.795Y-91.113
X125.795Y-116.513
X128.335Y-91.113
X128.335Y-116.513
X130.875Y-91.113
X130.875Y-116.513
X133.415Y-91.113
X133.415Y-116.513
X135.955Y-91.113
X135.955Y-116.513
X138.495Y-91.113
X138.495Y-116.513
T6
X150.2Y-113.338
X152.74Y-113.338
X155.28Y-113.338
X165.046Y-107.863
X165.046Y-112.363
X171.536Y-115.37
X171.536Y-119.87
X171.546Y-107.863
X171.546Y-112.363
X171.767Y-100.202
X171.767Y-104.702
X178.036Y-115.37
X178.036Y-119.87
X178.254Y-107.863
X178.254Y-112.363
X178.267Y-100.202
X178.267Y-104.702
X184.754Y-107.863
X184.754Y-112.363
T7
X95.844Y-122.355
X183.347Y-53.648
X186.141Y-121.72
T0
M30
