G04 #@! TF.GenerationSoftware,KiCad,Pcbnew,(5.1.10)-1*
G04 #@! TF.CreationDate,2024-12-13T18:52:17+01:00*
G04 #@! TF.ProjectId,plant_watner_V2.0,706c616e-745f-4776-9174-6e65725f5632,rev?*
G04 #@! TF.SameCoordinates,Original*
G04 #@! TF.FileFunction,Soldermask,Bot*
G04 #@! TF.FilePolarity,Negative*
%FSLAX46Y46*%
G04 Gerber Fmt 4.6, Leading zero omitted, Abs format (unit mm)*
G04 Created by KiCad (PCBNEW (5.1.10)-1) date 2024-12-13 18:52:17*
%MOMM*%
%LPD*%
G01*
G04 APERTURE LIST*
%ADD10O,1.304000X2.404000*%
%ADD11C,2.204000*%
%ADD12C,1.702000*%
%ADD13O,1.702000X1.702000*%
%ADD14O,1.802000X1.802000*%
%ADD15C,2.102000*%
%ADD16C,5.702000*%
%ADD17O,2.007000X2.102000*%
%ADD18C,1.902000*%
%ADD19O,1.702000X2.102000*%
%ADD20C,0.100000*%
G04 APERTURE END LIST*
D10*
X151114035Y-120972748D03*
X152485635Y-120958348D03*
X153857235Y-120958348D03*
D11*
X138494635Y-116513348D03*
X135954635Y-116513348D03*
X133414635Y-116513348D03*
X130874635Y-116513348D03*
X128334635Y-116513348D03*
X125794635Y-116513348D03*
X123254635Y-116513348D03*
X120714635Y-116513348D03*
X118174635Y-116513348D03*
X115634635Y-116513348D03*
X113094635Y-116513348D03*
X110554635Y-116513348D03*
X108014635Y-116513348D03*
X105474635Y-116513348D03*
X102934635Y-116513348D03*
X138494635Y-91113348D03*
X135954635Y-91113348D03*
X133414635Y-91113348D03*
X130874635Y-91113348D03*
X128334635Y-91113348D03*
X125794635Y-91113348D03*
X123254635Y-91113348D03*
X120714635Y-91113348D03*
X118174635Y-91113348D03*
X115634635Y-91113348D03*
X113094635Y-91113348D03*
X110554635Y-91113348D03*
X108014635Y-91113348D03*
X105474635Y-91113348D03*
G36*
G01*
X101934635Y-90011348D02*
X103934635Y-90011348D01*
G75*
G02*
X104036635Y-90113348I0J-102000D01*
G01*
X104036635Y-92113348D01*
G75*
G02*
X103934635Y-92215348I-102000J0D01*
G01*
X101934635Y-92215348D01*
G75*
G02*
X101832635Y-92113348I0J102000D01*
G01*
X101832635Y-90113348D01*
G75*
G02*
X101934635Y-90011348I102000J0D01*
G01*
G37*
D12*
X188218355Y-70064368D03*
D13*
X178058355Y-70064368D03*
X178086355Y-67016369D03*
D12*
X188246355Y-67016369D03*
D13*
X178058354Y-63968369D03*
D12*
X188218354Y-63968369D03*
X188218356Y-60920368D03*
D13*
X178058356Y-60920368D03*
G36*
G01*
X157780635Y-92141348D02*
X156080635Y-92141348D01*
G75*
G02*
X156029635Y-92090348I0J51000D01*
G01*
X156029635Y-90390348D01*
G75*
G02*
X156080635Y-90339348I51000J0D01*
G01*
X157780635Y-90339348D01*
G75*
G02*
X157831635Y-90390348I0J-51000D01*
G01*
X157831635Y-92090348D01*
G75*
G02*
X157780635Y-92141348I-51000J0D01*
G01*
G37*
D14*
X154390635Y-91240348D03*
X151850635Y-91240348D03*
X149310635Y-91240348D03*
D15*
X165046005Y-112362729D03*
X165046005Y-107862729D03*
X171546005Y-112362729D03*
X171546005Y-107862729D03*
X184754004Y-107862729D03*
X184754004Y-112362729D03*
X178254004Y-107862729D03*
X178254004Y-112362729D03*
X171535635Y-119870348D03*
X171535635Y-115370348D03*
X178035635Y-119870348D03*
X178035635Y-115370348D03*
X171766636Y-104702347D03*
X171766636Y-100202347D03*
X178266636Y-104702347D03*
X178266636Y-100202347D03*
D16*
X186140635Y-121720348D03*
X183346635Y-53648348D03*
X95843636Y-122355349D03*
G36*
G01*
X188438636Y-82008348D02*
X188438636Y-83708348D01*
G75*
G02*
X188387636Y-83759348I-51000J0D01*
G01*
X186687636Y-83759348D01*
G75*
G02*
X186636636Y-83708348I0J51000D01*
G01*
X186636636Y-82008348D01*
G75*
G02*
X186687636Y-81957348I51000J0D01*
G01*
X188387636Y-81957348D01*
G75*
G02*
X188438636Y-82008348I0J-51000D01*
G01*
G37*
D14*
X187537636Y-85398348D03*
X187537636Y-87938348D03*
G36*
G01*
X156283136Y-112338349D02*
X156283136Y-114338349D01*
G75*
G02*
X156232136Y-114389349I-51000J0D01*
G01*
X154327136Y-114389349D01*
G75*
G02*
X154276136Y-114338349I0J51000D01*
G01*
X154276136Y-112338349D01*
G75*
G02*
X154327136Y-112287349I51000J0D01*
G01*
X156232136Y-112287349D01*
G75*
G02*
X156283136Y-112338349I0J-51000D01*
G01*
G37*
D17*
X152739636Y-113338349D03*
X150199636Y-113338349D03*
D18*
X154263634Y-96701348D03*
G36*
G01*
X157754634Y-95801348D02*
X157754634Y-97601348D01*
G75*
G02*
X157703634Y-97652348I-51000J0D01*
G01*
X155903634Y-97652348D01*
G75*
G02*
X155852634Y-97601348I0J51000D01*
G01*
X155852634Y-95801348D01*
G75*
G02*
X155903634Y-95750348I51000J0D01*
G01*
X157703634Y-95750348D01*
G75*
G02*
X157754634Y-95801348I0J-51000D01*
G01*
G37*
G36*
G01*
X152928636Y-95801348D02*
X152928636Y-97601348D01*
G75*
G02*
X152877636Y-97652348I-51000J0D01*
G01*
X151077636Y-97652348D01*
G75*
G02*
X151026636Y-97601348I0J51000D01*
G01*
X151026636Y-95801348D01*
G75*
G02*
X151077636Y-95750348I51000J0D01*
G01*
X152877636Y-95750348D01*
G75*
G02*
X152928636Y-95801348I0J-51000D01*
G01*
G37*
X149437636Y-96701348D03*
G36*
G01*
X188438636Y-92930348D02*
X188438636Y-94630348D01*
G75*
G02*
X188387636Y-94681348I-51000J0D01*
G01*
X186687636Y-94681348D01*
G75*
G02*
X186636636Y-94630348I0J51000D01*
G01*
X186636636Y-92930348D01*
G75*
G02*
X186687636Y-92879348I51000J0D01*
G01*
X188387636Y-92879348D01*
G75*
G02*
X188438636Y-92930348I0J-51000D01*
G01*
G37*
D14*
X187537636Y-96320348D03*
D19*
X124354635Y-97531349D03*
X121814635Y-97531349D03*
X116734635Y-97531349D03*
X119274635Y-97531349D03*
D12*
X166963634Y-119751850D03*
D13*
X156803634Y-119751850D03*
X178076136Y-76190849D03*
D12*
X188236136Y-76190849D03*
X188236136Y-73079349D03*
D13*
X178076136Y-73079349D03*
D20*
G36*
X151690825Y-120121160D02*
G01*
X151700915Y-120136261D01*
X151717962Y-120153308D01*
X151738009Y-120166703D01*
X151760283Y-120175929D01*
X151783933Y-120180634D01*
X151808039Y-120180634D01*
X151831690Y-120175930D01*
X151853963Y-120166704D01*
X151874011Y-120153309D01*
X151891058Y-120136262D01*
X151901150Y-120121160D01*
X151902944Y-120120275D01*
X151904607Y-120121387D01*
X151904577Y-120123214D01*
X151885124Y-120159607D01*
X151848134Y-120281544D01*
X151835636Y-120408442D01*
X151835635Y-121508254D01*
X151848133Y-121635151D01*
X151885123Y-121757088D01*
X151912273Y-121807883D01*
X151912207Y-121809882D01*
X151910444Y-121810825D01*
X151908846Y-121809937D01*
X151898756Y-121794836D01*
X151881709Y-121777789D01*
X151861662Y-121764394D01*
X151839388Y-121755168D01*
X151815738Y-121750463D01*
X151791632Y-121750463D01*
X151767981Y-121755167D01*
X151745707Y-121764393D01*
X151725660Y-121777788D01*
X151708613Y-121794835D01*
X151698516Y-121809947D01*
X151696722Y-121810832D01*
X151695059Y-121809721D01*
X151695089Y-121807893D01*
X151714547Y-121771489D01*
X151751537Y-121649552D01*
X151764035Y-121522654D01*
X151764035Y-120422842D01*
X151751537Y-120295944D01*
X151714547Y-120174007D01*
X151687398Y-120123214D01*
X151687464Y-120121215D01*
X151689227Y-120120272D01*
X151690825Y-120121160D01*
G37*
G36*
X153066269Y-120113953D02*
G01*
X153076364Y-120129062D01*
X153093411Y-120146109D01*
X153113459Y-120159503D01*
X153135733Y-120168730D01*
X153159383Y-120173434D01*
X153183489Y-120173434D01*
X153207139Y-120168730D01*
X153229413Y-120159503D01*
X153249461Y-120146109D01*
X153266508Y-120129062D01*
X153276597Y-120113962D01*
X153278391Y-120113077D01*
X153280054Y-120114188D01*
X153280024Y-120116016D01*
X153256724Y-120159607D01*
X153219734Y-120281544D01*
X153207236Y-120408442D01*
X153207235Y-121508254D01*
X153219733Y-121635151D01*
X153256723Y-121757088D01*
X153280030Y-121800693D01*
X153279964Y-121802692D01*
X153278201Y-121803635D01*
X153276603Y-121802747D01*
X153266506Y-121787635D01*
X153249459Y-121770588D01*
X153229412Y-121757194D01*
X153207138Y-121747967D01*
X153183488Y-121743263D01*
X153159382Y-121743263D01*
X153135732Y-121747967D01*
X153113458Y-121757194D01*
X153093410Y-121770589D01*
X153076363Y-121787636D01*
X153066273Y-121802737D01*
X153064479Y-121803622D01*
X153062816Y-121802511D01*
X153062846Y-121800683D01*
X153086147Y-121757089D01*
X153123137Y-121635152D01*
X153135635Y-121508254D01*
X153135635Y-120408442D01*
X153123137Y-120281544D01*
X153086147Y-120159607D01*
X153062842Y-120116007D01*
X153062908Y-120114008D01*
X153064671Y-120113065D01*
X153066269Y-120113953D01*
G37*
M02*
