G04 #@! TF.GenerationSoftware,KiCad,Pcbnew,(5.1.10)-1*
G04 #@! TF.CreationDate,2024-12-13T18:52:17+01:00*
G04 #@! TF.ProjectId,plant_watner_V2.0,706c616e-745f-4776-9174-6e65725f5632,rev?*
G04 #@! TF.SameCoordinates,Original*
G04 #@! TF.FileFunction,Legend,Bot*
G04 #@! TF.FilePolarity,Positive*
%FSLAX46Y46*%
G04 Gerber Fmt 4.6, Leading zero omitted, Abs format (unit mm)*
G04 Created by KiCad (PCBNEW (5.1.10)-1) date 2024-12-13 18:52:17*
%MOMM*%
%LPD*%
G01*
G04 APERTURE LIST*
%ADD10C,0.300000*%
%ADD11C,0.127000*%
%ADD12C,0.200000*%
%ADD13C,0.120000*%
%ADD14C,0.150000*%
%ADD15O,1.304000X2.404000*%
%ADD16C,2.204000*%
%ADD17C,1.702000*%
%ADD18O,1.702000X1.702000*%
%ADD19O,1.802000X1.802000*%
%ADD20C,2.102000*%
%ADD21C,5.702000*%
%ADD22O,2.007000X2.102000*%
%ADD23C,1.902000*%
%ADD24O,1.702000X2.102000*%
G04 APERTURE END LIST*
D10*
X136765777Y-125129490D02*
X137265777Y-125129490D01*
X137381849Y-124343776D02*
X136667563Y-124343776D01*
X136855063Y-125843776D01*
X137569349Y-125843776D01*
X138024706Y-124343776D02*
X138149706Y-125343776D01*
X138131849Y-125200919D02*
X138212206Y-125272348D01*
X138363992Y-125343776D01*
X138578277Y-125343776D01*
X138712206Y-125272348D01*
X138765777Y-125129490D01*
X138667563Y-124343776D01*
X138765777Y-125129490D02*
X138855063Y-125272348D01*
X139006849Y-125343776D01*
X139221135Y-125343776D01*
X139355063Y-125272348D01*
X139408635Y-125129490D01*
X139310420Y-124343776D01*
X140024706Y-124343776D02*
X140149706Y-125343776D01*
X140212206Y-125843776D02*
X140131849Y-125772348D01*
X140194349Y-125700919D01*
X140274706Y-125772348D01*
X140212206Y-125843776D01*
X140194349Y-125700919D01*
X140953277Y-124343776D02*
X140819349Y-124415205D01*
X140765777Y-124558062D01*
X140926492Y-125843776D01*
X142649706Y-124772348D02*
X143363992Y-124772348D01*
X142453277Y-124343776D02*
X143140777Y-125843776D01*
X143453277Y-124343776D01*
X144078277Y-125343776D02*
X143953277Y-124343776D01*
X144060420Y-125200919D02*
X144140777Y-125272348D01*
X144292563Y-125343776D01*
X144506849Y-125343776D01*
X144640777Y-125272348D01*
X144694349Y-125129490D01*
X144596135Y-124343776D01*
X145953277Y-124343776D02*
X146140777Y-125843776D01*
X145962206Y-124415205D02*
X145810420Y-124343776D01*
X145524706Y-124343776D01*
X145390777Y-124415205D01*
X145328277Y-124486633D01*
X145274706Y-124629490D01*
X145328277Y-125058062D01*
X145417563Y-125200919D01*
X145497920Y-125272348D01*
X145649706Y-125343776D01*
X145935420Y-125343776D01*
X146069349Y-125272348D01*
X146667563Y-124343776D02*
X146792563Y-125343776D01*
X146756849Y-125058062D02*
X146846135Y-125200919D01*
X146926492Y-125272348D01*
X147078277Y-125343776D01*
X147221135Y-125343776D01*
X148176492Y-124415205D02*
X148024706Y-124343776D01*
X147738992Y-124343776D01*
X147605063Y-124415205D01*
X147551492Y-124558062D01*
X147622920Y-125129490D01*
X147712206Y-125272348D01*
X147863992Y-125343776D01*
X148149706Y-125343776D01*
X148283635Y-125272348D01*
X148337206Y-125129490D01*
X148319349Y-124986633D01*
X147587206Y-124843776D01*
X149524706Y-124343776D02*
X149622920Y-125129490D01*
X149569349Y-125272348D01*
X149435420Y-125343776D01*
X149149706Y-125343776D01*
X148997920Y-125272348D01*
X149533635Y-124415205D02*
X149381849Y-124343776D01*
X149024706Y-124343776D01*
X148890777Y-124415205D01*
X148837206Y-124558062D01*
X148855063Y-124700919D01*
X148944349Y-124843776D01*
X149096135Y-124915205D01*
X149453277Y-124915205D01*
X149605063Y-124986633D01*
X150176492Y-124415205D02*
X150310420Y-124343776D01*
X150596135Y-124343776D01*
X150747920Y-124415205D01*
X150837206Y-124558062D01*
X150846135Y-124629490D01*
X150792563Y-124772348D01*
X150658635Y-124843776D01*
X150444349Y-124843776D01*
X150310420Y-124915205D01*
X150256849Y-125058062D01*
X150265777Y-125129490D01*
X150355063Y-125272348D01*
X150506849Y-125343776D01*
X150721135Y-125343776D01*
X150855063Y-125272348D01*
X151390777Y-124415205D02*
X151524706Y-124343776D01*
X151810420Y-124343776D01*
X151962206Y-124415205D01*
X152051492Y-124558062D01*
X152060420Y-124629490D01*
X152006849Y-124772348D01*
X151872920Y-124843776D01*
X151658635Y-124843776D01*
X151524706Y-124915205D01*
X151471135Y-125058062D01*
X151480063Y-125129490D01*
X151569349Y-125272348D01*
X151721135Y-125343776D01*
X151935420Y-125343776D01*
X152069349Y-125272348D01*
X152881849Y-124343776D02*
X152747920Y-124415205D01*
X152685420Y-124486633D01*
X152631849Y-124629490D01*
X152685420Y-125058062D01*
X152774706Y-125200919D01*
X152855063Y-125272348D01*
X153006849Y-125343776D01*
X153221135Y-125343776D01*
X153355063Y-125272348D01*
X153417563Y-125200919D01*
X153471135Y-125058062D01*
X153417563Y-124629490D01*
X153328277Y-124486633D01*
X153247920Y-124415205D01*
X153096135Y-124343776D01*
X152881849Y-124343776D01*
X154149706Y-125343776D02*
X154024706Y-124343776D01*
X154131849Y-125200919D02*
X154212206Y-125272348D01*
X154363992Y-125343776D01*
X154578277Y-125343776D01*
X154712206Y-125272348D01*
X154765777Y-125129490D01*
X154667563Y-124343776D01*
X156596135Y-124915205D02*
X157738992Y-124915205D01*
X159524706Y-124343776D02*
X159712206Y-125843776D01*
X160283635Y-125843776D01*
X160417563Y-125772348D01*
X160480063Y-125700919D01*
X160533635Y-125558062D01*
X160506849Y-125343776D01*
X160417563Y-125200919D01*
X160337206Y-125129490D01*
X160185420Y-125058062D01*
X159613992Y-125058062D01*
X161238992Y-124343776D02*
X161105063Y-124415205D01*
X161051492Y-124558062D01*
X161212206Y-125843776D01*
X162453277Y-124343776D02*
X162551492Y-125129490D01*
X162497920Y-125272348D01*
X162363992Y-125343776D01*
X162078277Y-125343776D01*
X161926492Y-125272348D01*
X162462206Y-124415205D02*
X162310420Y-124343776D01*
X161953277Y-124343776D01*
X161819349Y-124415205D01*
X161765777Y-124558062D01*
X161783635Y-124700919D01*
X161872920Y-124843776D01*
X162024706Y-124915205D01*
X162381849Y-124915205D01*
X162533635Y-124986633D01*
X163292563Y-125343776D02*
X163167563Y-124343776D01*
X163274706Y-125200919D02*
X163355063Y-125272348D01*
X163506849Y-125343776D01*
X163721135Y-125343776D01*
X163855063Y-125272348D01*
X163908635Y-125129490D01*
X163810420Y-124343776D01*
X164435420Y-125343776D02*
X165006849Y-125343776D01*
X164712206Y-125843776D02*
X164551492Y-124558062D01*
X164605063Y-124415205D01*
X164738992Y-124343776D01*
X164881849Y-124343776D01*
X166506849Y-125343776D02*
X166667563Y-124343776D01*
X167042563Y-125058062D01*
X167238992Y-124343776D01*
X167649706Y-125343776D01*
X168738992Y-124343776D02*
X168837206Y-125129490D01*
X168783635Y-125272348D01*
X168649706Y-125343776D01*
X168363992Y-125343776D01*
X168212206Y-125272348D01*
X168747920Y-124415205D02*
X168596135Y-124343776D01*
X168238992Y-124343776D01*
X168105063Y-124415205D01*
X168051492Y-124558062D01*
X168069349Y-124700919D01*
X168158635Y-124843776D01*
X168310420Y-124915205D01*
X168667563Y-124915205D01*
X168819349Y-124986633D01*
X169363992Y-125343776D02*
X169935420Y-125343776D01*
X169640777Y-125843776D02*
X169480063Y-124558062D01*
X169533635Y-124415205D01*
X169667563Y-124343776D01*
X169810420Y-124343776D01*
X170435420Y-125343776D02*
X170310420Y-124343776D01*
X170417563Y-125200919D02*
X170497920Y-125272348D01*
X170649706Y-125343776D01*
X170863992Y-125343776D01*
X170997920Y-125272348D01*
X171051492Y-125129490D01*
X170953277Y-124343776D01*
X172247920Y-124415205D02*
X172096135Y-124343776D01*
X171810420Y-124343776D01*
X171676492Y-124415205D01*
X171622920Y-124558062D01*
X171694349Y-125129490D01*
X171783635Y-125272348D01*
X171935420Y-125343776D01*
X172221135Y-125343776D01*
X172355063Y-125272348D01*
X172408635Y-125129490D01*
X172390777Y-124986633D01*
X171658635Y-124843776D01*
X172953277Y-124343776D02*
X173078277Y-125343776D01*
X173042563Y-125058062D02*
X173131849Y-125200919D01*
X173212206Y-125272348D01*
X173363992Y-125343776D01*
X173506849Y-125343776D01*
X174997920Y-125843776D02*
X175310420Y-124343776D01*
X175997920Y-125843776D01*
X176408635Y-125700919D02*
X176488992Y-125772348D01*
X176640777Y-125843776D01*
X176997920Y-125843776D01*
X177131849Y-125772348D01*
X177194349Y-125700919D01*
X177247920Y-125558062D01*
X177230063Y-125415205D01*
X177131849Y-125200919D01*
X176167563Y-124343776D01*
X177096135Y-124343776D01*
X177756849Y-124486633D02*
X177819349Y-124415205D01*
X177738992Y-124343776D01*
X177676492Y-124415205D01*
X177756849Y-124486633D01*
X177738992Y-124343776D01*
X178926492Y-125843776D02*
X179069349Y-125843776D01*
X179203277Y-125772348D01*
X179265777Y-125700919D01*
X179319349Y-125558062D01*
X179355063Y-125272348D01*
X179310420Y-124915205D01*
X179203277Y-124629490D01*
X179113992Y-124486633D01*
X179033635Y-124415205D01*
X178881849Y-124343776D01*
X178738992Y-124343776D01*
X178605063Y-124415205D01*
X178542563Y-124486633D01*
X178488992Y-124629490D01*
X178453277Y-124915205D01*
X178497920Y-125272348D01*
X178605063Y-125558062D01*
X178694349Y-125700919D01*
X178774706Y-125772348D01*
X178926492Y-125843776D01*
D11*
X155085635Y-120658348D02*
X154585635Y-122258348D01*
X154585635Y-122258348D02*
X150385635Y-122258348D01*
X150385635Y-122258348D02*
X149885635Y-120658348D01*
D12*
X155885635Y-121158348D02*
G75*
G03*
X155885635Y-121158348I-200000J0D01*
G01*
D11*
X155085635Y-120596348D02*
G75*
G03*
X149885635Y-120596348I-2600000J45383D01*
G01*
X92974635Y-118043348D02*
X143924635Y-118043348D01*
X143924635Y-118043348D02*
X143924635Y-89533348D01*
X92974635Y-89533348D02*
X92974635Y-118043348D01*
X143924635Y-89533348D02*
X92974635Y-89533348D01*
D12*
X103034635Y-88963348D02*
G75*
G03*
X103034635Y-88963348I-100000J0D01*
G01*
D11*
X92974635Y-89533348D02*
X92974635Y-100602348D01*
X92974635Y-100602348D02*
X92974635Y-107313348D01*
X92974635Y-107313348D02*
X92974635Y-118043348D01*
X143924635Y-89533348D02*
X92974635Y-89533348D01*
X92974635Y-118043348D02*
X143924635Y-118043348D01*
X143924635Y-89533348D02*
X143924635Y-94903348D01*
X143924635Y-94903348D02*
X143924635Y-112593348D01*
X143924635Y-112593348D02*
X143924635Y-118043348D01*
D13*
X179098355Y-70064368D02*
X179868355Y-70064368D01*
X187178355Y-70064368D02*
X186408355Y-70064368D01*
X179868355Y-68694368D02*
X186408355Y-68694368D01*
X179868355Y-71434368D02*
X179868355Y-68694368D01*
X186408355Y-71434368D02*
X179868355Y-71434368D01*
X186408355Y-68694368D02*
X186408355Y-71434368D01*
X186436355Y-65646369D02*
X186436355Y-68386369D01*
X186436355Y-68386369D02*
X179896355Y-68386369D01*
X179896355Y-68386369D02*
X179896355Y-65646369D01*
X179896355Y-65646369D02*
X186436355Y-65646369D01*
X187206355Y-67016369D02*
X186436355Y-67016369D01*
X179126355Y-67016369D02*
X179896355Y-67016369D01*
X186408354Y-62598369D02*
X186408354Y-65338369D01*
X186408354Y-65338369D02*
X179868354Y-65338369D01*
X179868354Y-65338369D02*
X179868354Y-62598369D01*
X179868354Y-62598369D02*
X186408354Y-62598369D01*
X187178354Y-63968369D02*
X186408354Y-63968369D01*
X179098354Y-63968369D02*
X179868354Y-63968369D01*
X179098356Y-60920368D02*
X179868356Y-60920368D01*
X187178356Y-60920368D02*
X186408356Y-60920368D01*
X179868356Y-59550368D02*
X186408356Y-59550368D01*
X179868356Y-62290368D02*
X179868356Y-59550368D01*
X186408356Y-62290368D02*
X179868356Y-62290368D01*
X186408356Y-59550368D02*
X186408356Y-62290368D01*
X158260635Y-92570348D02*
X158260635Y-91240348D01*
X156930635Y-92570348D02*
X158260635Y-92570348D01*
X155660635Y-92570348D02*
X155660635Y-89910348D01*
X155660635Y-89910348D02*
X147980635Y-89910348D01*
X155660635Y-92570348D02*
X147980635Y-92570348D01*
X147980635Y-92570348D02*
X147980635Y-89910348D01*
X188867636Y-81528348D02*
X187537636Y-81528348D01*
X188867636Y-82858348D02*
X188867636Y-81528348D01*
X188867636Y-84128348D02*
X186207636Y-84128348D01*
X186207636Y-84128348D02*
X186207636Y-89268348D01*
X188867636Y-84128348D02*
X188867636Y-89268348D01*
X188867636Y-89268348D02*
X186207636Y-89268348D01*
X150888636Y-110068349D02*
X150888636Y-111578349D01*
X154589636Y-110068349D02*
X154589636Y-111578349D01*
X157859636Y-111578349D02*
X147619636Y-111578349D01*
X147619636Y-110068349D02*
X147619636Y-114709349D01*
X157859636Y-110068349D02*
X157859636Y-114709349D01*
X157859636Y-114709349D02*
X147619636Y-114709349D01*
X157859636Y-110068349D02*
X147619636Y-110068349D01*
X188867636Y-92450348D02*
X187537636Y-92450348D01*
X188867636Y-93780348D02*
X188867636Y-92450348D01*
X188867636Y-95050348D02*
X186207636Y-95050348D01*
X186207636Y-95050348D02*
X186207636Y-97650348D01*
X188867636Y-95050348D02*
X188867636Y-97650348D01*
X188867636Y-97650348D02*
X186207636Y-97650348D01*
X157843634Y-119751850D02*
X158613634Y-119751850D01*
X165923634Y-119751850D02*
X165153634Y-119751850D01*
X158613634Y-118381850D02*
X165153634Y-118381850D01*
X158613634Y-121121850D02*
X158613634Y-118381850D01*
X165153634Y-121121850D02*
X158613634Y-121121850D01*
X165153634Y-118381850D02*
X165153634Y-121121850D01*
X186426136Y-74820849D02*
X186426136Y-77560849D01*
X186426136Y-77560849D02*
X179886136Y-77560849D01*
X179886136Y-77560849D02*
X179886136Y-74820849D01*
X179886136Y-74820849D02*
X186426136Y-74820849D01*
X187196136Y-76190849D02*
X186426136Y-76190849D01*
X179116136Y-76190849D02*
X179886136Y-76190849D01*
X179116136Y-73079349D02*
X179886136Y-73079349D01*
X187196136Y-73079349D02*
X186426136Y-73079349D01*
X179886136Y-71709349D02*
X186426136Y-71709349D01*
X179886136Y-74449349D02*
X179886136Y-71709349D01*
X186426136Y-74449349D02*
X179886136Y-74449349D01*
X186426136Y-71709349D02*
X186426136Y-74449349D01*
D14*
X157097729Y-116282181D02*
X156525207Y-116282181D01*
X156811468Y-117284094D02*
X156811468Y-116282181D01*
X155809555Y-117236384D02*
X155904975Y-117284094D01*
X156095816Y-117284094D01*
X156191236Y-117236384D01*
X156238946Y-117140963D01*
X156238946Y-116759282D01*
X156191236Y-116663862D01*
X156095816Y-116616152D01*
X155904975Y-116616152D01*
X155809555Y-116663862D01*
X155761845Y-116759282D01*
X155761845Y-116854703D01*
X156238946Y-116950123D01*
X155332453Y-117284094D02*
X155332453Y-116616152D01*
X155332453Y-116711572D02*
X155284743Y-116663862D01*
X155189323Y-116616152D01*
X155046192Y-116616152D01*
X154950772Y-116663862D01*
X154903062Y-116759282D01*
X154903062Y-117284094D01*
X154903062Y-116759282D02*
X154855352Y-116663862D01*
X154759932Y-116616152D01*
X154616801Y-116616152D01*
X154521381Y-116663862D01*
X154473671Y-116759282D01*
X154473671Y-117284094D01*
X153996569Y-116616152D02*
X153996569Y-117618065D01*
X153996569Y-116663862D02*
X153901149Y-116616152D01*
X153710308Y-116616152D01*
X153614888Y-116663862D01*
X153567178Y-116711572D01*
X153519468Y-116806992D01*
X153519468Y-117093253D01*
X153567178Y-117188674D01*
X153614888Y-117236384D01*
X153710308Y-117284094D01*
X153901149Y-117284094D01*
X153996569Y-117236384D01*
X153328627Y-117379514D02*
X152565265Y-117379514D01*
X152374424Y-117236384D02*
X152279004Y-117284094D01*
X152088164Y-117284094D01*
X151992743Y-117236384D01*
X151945033Y-117140963D01*
X151945033Y-117093253D01*
X151992743Y-116997833D01*
X152088164Y-116950123D01*
X152231294Y-116950123D01*
X152326714Y-116902413D01*
X152374424Y-116806992D01*
X152374424Y-116759282D01*
X152326714Y-116663862D01*
X152231294Y-116616152D01*
X152088164Y-116616152D01*
X151992743Y-116663862D01*
X151133961Y-117236384D02*
X151229381Y-117284094D01*
X151420222Y-117284094D01*
X151515642Y-117236384D01*
X151563352Y-117140963D01*
X151563352Y-116759282D01*
X151515642Y-116663862D01*
X151420222Y-116616152D01*
X151229381Y-116616152D01*
X151133961Y-116663862D01*
X151086251Y-116759282D01*
X151086251Y-116854703D01*
X151563352Y-116950123D01*
X150656859Y-116616152D02*
X150656859Y-117284094D01*
X150656859Y-116711572D02*
X150609149Y-116663862D01*
X150513729Y-116616152D01*
X150370598Y-116616152D01*
X150275178Y-116663862D01*
X150227468Y-116759282D01*
X150227468Y-117284094D01*
X149798077Y-117236384D02*
X149702656Y-117284094D01*
X149511816Y-117284094D01*
X149416396Y-117236384D01*
X149368685Y-117140963D01*
X149368685Y-117093253D01*
X149416396Y-116997833D01*
X149511816Y-116950123D01*
X149654946Y-116950123D01*
X149750367Y-116902413D01*
X149798077Y-116806992D01*
X149798077Y-116759282D01*
X149750367Y-116663862D01*
X149654946Y-116616152D01*
X149511816Y-116616152D01*
X149416396Y-116663862D01*
X148796164Y-117284094D02*
X148891584Y-117236384D01*
X148939294Y-117188674D01*
X148987004Y-117093253D01*
X148987004Y-116806992D01*
X148939294Y-116711572D01*
X148891584Y-116663862D01*
X148796164Y-116616152D01*
X148653033Y-116616152D01*
X148557613Y-116663862D01*
X148509903Y-116711572D01*
X148462193Y-116806992D01*
X148462193Y-117093253D01*
X148509903Y-117188674D01*
X148557613Y-117236384D01*
X148653033Y-117284094D01*
X148796164Y-117284094D01*
X148032801Y-117284094D02*
X148032801Y-116616152D01*
X148032801Y-116806992D02*
X147985091Y-116711572D01*
X147937381Y-116663862D01*
X147841961Y-116616152D01*
X147746541Y-116616152D01*
X120719492Y-119299419D02*
X120386158Y-119299419D01*
X120243301Y-119823228D02*
X120719492Y-119823228D01*
X120719492Y-118823228D01*
X120243301Y-118823228D01*
X119862349Y-119775609D02*
X119719492Y-119823228D01*
X119481396Y-119823228D01*
X119386158Y-119775609D01*
X119338539Y-119727990D01*
X119290920Y-119632752D01*
X119290920Y-119537514D01*
X119338539Y-119442276D01*
X119386158Y-119394657D01*
X119481396Y-119347038D01*
X119671873Y-119299419D01*
X119767111Y-119251800D01*
X119814730Y-119204181D01*
X119862349Y-119108943D01*
X119862349Y-119013705D01*
X119814730Y-118918467D01*
X119767111Y-118870848D01*
X119671873Y-118823228D01*
X119433777Y-118823228D01*
X119290920Y-118870848D01*
X118862349Y-119823228D02*
X118862349Y-118823228D01*
X118481396Y-118823228D01*
X118386158Y-118870848D01*
X118338539Y-118918467D01*
X118290920Y-119013705D01*
X118290920Y-119156562D01*
X118338539Y-119251800D01*
X118386158Y-119299419D01*
X118481396Y-119347038D01*
X118862349Y-119347038D01*
X117957587Y-118823228D02*
X117338539Y-118823228D01*
X117671873Y-119204181D01*
X117529015Y-119204181D01*
X117433777Y-119251800D01*
X117386158Y-119299419D01*
X117338539Y-119394657D01*
X117338539Y-119632752D01*
X117386158Y-119727990D01*
X117433777Y-119775609D01*
X117529015Y-119823228D01*
X117814730Y-119823228D01*
X117909968Y-119775609D01*
X117957587Y-119727990D01*
X116957587Y-118918467D02*
X116909968Y-118870848D01*
X116814730Y-118823228D01*
X116576635Y-118823228D01*
X116481396Y-118870848D01*
X116433777Y-118918467D01*
X116386158Y-119013705D01*
X116386158Y-119108943D01*
X116433777Y-119251800D01*
X117005206Y-119823228D01*
X116386158Y-119823228D01*
X183846611Y-70547228D02*
X184418039Y-70547228D01*
X184132325Y-70547228D02*
X184132325Y-69547228D01*
X184227563Y-69690086D01*
X184322801Y-69785324D01*
X184418039Y-69832943D01*
X183227563Y-69547228D02*
X183132325Y-69547228D01*
X183037087Y-69594848D01*
X182989468Y-69642467D01*
X182941849Y-69737705D01*
X182894230Y-69928181D01*
X182894230Y-70166276D01*
X182941849Y-70356752D01*
X182989468Y-70451990D01*
X183037087Y-70499609D01*
X183132325Y-70547228D01*
X183227563Y-70547228D01*
X183322801Y-70499609D01*
X183370420Y-70451990D01*
X183418039Y-70356752D01*
X183465658Y-70166276D01*
X183465658Y-69928181D01*
X183418039Y-69737705D01*
X183370420Y-69642467D01*
X183322801Y-69594848D01*
X183227563Y-69547228D01*
X182465658Y-70547228D02*
X182465658Y-69547228D01*
X181894230Y-70547228D02*
X182322801Y-69975800D01*
X181894230Y-69547228D02*
X182465658Y-70118657D01*
X183846612Y-67499229D02*
X184418040Y-67499229D01*
X184132326Y-67499229D02*
X184132326Y-66499229D01*
X184227564Y-66642087D01*
X184322802Y-66737325D01*
X184418040Y-66784944D01*
X183227564Y-66499229D02*
X183132326Y-66499229D01*
X183037088Y-66546849D01*
X182989469Y-66594468D01*
X182941850Y-66689706D01*
X182894231Y-66880182D01*
X182894231Y-67118277D01*
X182941850Y-67308753D01*
X182989469Y-67403991D01*
X183037088Y-67451610D01*
X183132326Y-67499229D01*
X183227564Y-67499229D01*
X183322802Y-67451610D01*
X183370421Y-67403991D01*
X183418040Y-67308753D01*
X183465659Y-67118277D01*
X183465659Y-66880182D01*
X183418040Y-66689706D01*
X183370421Y-66594468D01*
X183322802Y-66546849D01*
X183227564Y-66499229D01*
X182465659Y-67499229D02*
X182465659Y-66499229D01*
X181894231Y-67499229D02*
X182322802Y-66927801D01*
X181894231Y-66499229D02*
X182465659Y-67070658D01*
X184376449Y-63515988D02*
X184328830Y-63468369D01*
X184233592Y-63420749D01*
X183995496Y-63420749D01*
X183900258Y-63468369D01*
X183852639Y-63515988D01*
X183805020Y-63611226D01*
X183805020Y-63706464D01*
X183852639Y-63849321D01*
X184424068Y-64420749D01*
X183805020Y-64420749D01*
X183424068Y-63515988D02*
X183376449Y-63468369D01*
X183281211Y-63420749D01*
X183043115Y-63420749D01*
X182947877Y-63468369D01*
X182900258Y-63515988D01*
X182852639Y-63611226D01*
X182852639Y-63706464D01*
X182900258Y-63849321D01*
X183471687Y-64420749D01*
X182852639Y-64420749D01*
X182233592Y-63420749D02*
X182138354Y-63420749D01*
X182043115Y-63468369D01*
X181995496Y-63515988D01*
X181947877Y-63611226D01*
X181900258Y-63801702D01*
X181900258Y-64039797D01*
X181947877Y-64230273D01*
X181995496Y-64325511D01*
X182043115Y-64373130D01*
X182138354Y-64420749D01*
X182233592Y-64420749D01*
X182328830Y-64373130D01*
X182376449Y-64325511D01*
X182424068Y-64230273D01*
X182471687Y-64039797D01*
X182471687Y-63801702D01*
X182424068Y-63611226D01*
X182376449Y-63515988D01*
X182328830Y-63468369D01*
X182233592Y-63420749D01*
X184394231Y-60498467D02*
X184346612Y-60450848D01*
X184251374Y-60403228D01*
X184013278Y-60403228D01*
X183918040Y-60450848D01*
X183870421Y-60498467D01*
X183822802Y-60593705D01*
X183822802Y-60688943D01*
X183870421Y-60831800D01*
X184441850Y-61403228D01*
X183822802Y-61403228D01*
X183441850Y-60498467D02*
X183394231Y-60450848D01*
X183298993Y-60403228D01*
X183060897Y-60403228D01*
X182965659Y-60450848D01*
X182918040Y-60498467D01*
X182870421Y-60593705D01*
X182870421Y-60688943D01*
X182918040Y-60831800D01*
X183489469Y-61403228D01*
X182870421Y-61403228D01*
X182251374Y-60403228D02*
X182156136Y-60403228D01*
X182060897Y-60450848D01*
X182013278Y-60498467D01*
X181965659Y-60593705D01*
X181918040Y-60784181D01*
X181918040Y-61022276D01*
X181965659Y-61212752D01*
X182013278Y-61307990D01*
X182060897Y-61355609D01*
X182156136Y-61403228D01*
X182251374Y-61403228D01*
X182346612Y-61355609D01*
X182394231Y-61307990D01*
X182441850Y-61212752D01*
X182489469Y-61022276D01*
X182489469Y-60784181D01*
X182441850Y-60593705D01*
X182394231Y-60498467D01*
X182346612Y-60450848D01*
X182251374Y-60403228D01*
X157108373Y-88997898D02*
X157584563Y-88997898D01*
X157584563Y-87997898D01*
X156203611Y-88902660D02*
X156251230Y-88950279D01*
X156394087Y-88997898D01*
X156489325Y-88997898D01*
X156632182Y-88950279D01*
X156727420Y-88855041D01*
X156775039Y-88759803D01*
X156822659Y-88569327D01*
X156822659Y-88426470D01*
X156775039Y-88235994D01*
X156727420Y-88140756D01*
X156632182Y-88045518D01*
X156489325Y-87997898D01*
X156394087Y-87997898D01*
X156251230Y-88045518D01*
X156203611Y-88093137D01*
X155775039Y-88997898D02*
X155775039Y-87997898D01*
X155536944Y-87997898D01*
X155394087Y-88045518D01*
X155298849Y-88140756D01*
X155251230Y-88235994D01*
X155203611Y-88426470D01*
X155203611Y-88569327D01*
X155251230Y-88759803D01*
X155298849Y-88855041D01*
X155394087Y-88950279D01*
X155536944Y-88997898D01*
X155775039Y-88997898D01*
X155013135Y-89093137D02*
X154251230Y-89093137D01*
X154013135Y-88997898D02*
X154013135Y-87997898D01*
X153584563Y-88093137D02*
X153536944Y-88045518D01*
X153441706Y-87997898D01*
X153203611Y-87997898D01*
X153108373Y-88045518D01*
X153060754Y-88093137D01*
X153013135Y-88188375D01*
X153013135Y-88283613D01*
X153060754Y-88426470D01*
X153632182Y-88997898D01*
X153013135Y-88997898D01*
X152013135Y-88902660D02*
X152060754Y-88950279D01*
X152203611Y-88997898D01*
X152298849Y-88997898D01*
X152441706Y-88950279D01*
X152536944Y-88855041D01*
X152584563Y-88759803D01*
X152632182Y-88569327D01*
X152632182Y-88426470D01*
X152584563Y-88235994D01*
X152536944Y-88140756D01*
X152441706Y-88045518D01*
X152298849Y-87997898D01*
X152203611Y-87997898D01*
X152060754Y-88045518D01*
X152013135Y-88093137D01*
X189243469Y-80453228D02*
X189243469Y-79453228D01*
X189243469Y-79929419D02*
X188672040Y-79929419D01*
X188672040Y-80453228D02*
X188672040Y-79453228D01*
X187767278Y-79786562D02*
X187767278Y-80453228D01*
X188195850Y-79786562D02*
X188195850Y-80310371D01*
X188148231Y-80405609D01*
X188052993Y-80453228D01*
X187910136Y-80453228D01*
X187814897Y-80405609D01*
X187767278Y-80357990D01*
X187291088Y-80453228D02*
X187291088Y-79786562D01*
X187291088Y-79881800D02*
X187243469Y-79834181D01*
X187148231Y-79786562D01*
X187005374Y-79786562D01*
X186910136Y-79834181D01*
X186862516Y-79929419D01*
X186862516Y-80453228D01*
X186862516Y-79929419D02*
X186814897Y-79834181D01*
X186719659Y-79786562D01*
X186576802Y-79786562D01*
X186481564Y-79834181D01*
X186433945Y-79929419D01*
X186433945Y-80453228D01*
X185957755Y-80453228D02*
X185957755Y-79786562D01*
X185957755Y-79453228D02*
X186005374Y-79500848D01*
X185957755Y-79548467D01*
X185910136Y-79500848D01*
X185957755Y-79453228D01*
X185957755Y-79548467D01*
X185052993Y-80453228D02*
X185052993Y-79453228D01*
X185052993Y-80405609D02*
X185148231Y-80453228D01*
X185338707Y-80453228D01*
X185433945Y-80405609D01*
X185481564Y-80357990D01*
X185529183Y-80262752D01*
X185529183Y-79977038D01*
X185481564Y-79881800D01*
X185433945Y-79834181D01*
X185338707Y-79786562D01*
X185148231Y-79786562D01*
X185052993Y-79834181D01*
X184576802Y-80453228D02*
X184576802Y-79786562D01*
X184576802Y-79453228D02*
X184624421Y-79500848D01*
X184576802Y-79548467D01*
X184529183Y-79500848D01*
X184576802Y-79453228D01*
X184576802Y-79548467D01*
X184243469Y-79786562D02*
X183862516Y-79786562D01*
X184100612Y-79453228D02*
X184100612Y-80310371D01*
X184052993Y-80405609D01*
X183957755Y-80453228D01*
X183862516Y-80453228D01*
X183624421Y-79786562D02*
X183386326Y-80453228D01*
X183148231Y-79786562D02*
X183386326Y-80453228D01*
X183481564Y-80691324D01*
X183529183Y-80738943D01*
X183624421Y-80786562D01*
X182052993Y-80405609D02*
X181957755Y-80453228D01*
X181767278Y-80453228D01*
X181672040Y-80405609D01*
X181624421Y-80310371D01*
X181624421Y-80262752D01*
X181672040Y-80167514D01*
X181767278Y-80119895D01*
X181910136Y-80119895D01*
X182005374Y-80072276D01*
X182052993Y-79977038D01*
X182052993Y-79929419D01*
X182005374Y-79834181D01*
X181910136Y-79786562D01*
X181767278Y-79786562D01*
X181672040Y-79834181D01*
X180814897Y-80405609D02*
X180910136Y-80453228D01*
X181100612Y-80453228D01*
X181195850Y-80405609D01*
X181243469Y-80310371D01*
X181243469Y-79929419D01*
X181195850Y-79834181D01*
X181100612Y-79786562D01*
X180910136Y-79786562D01*
X180814897Y-79834181D01*
X180767278Y-79929419D01*
X180767278Y-80024657D01*
X181243469Y-80119895D01*
X180338707Y-79786562D02*
X180338707Y-80453228D01*
X180338707Y-79881800D02*
X180291088Y-79834181D01*
X180195850Y-79786562D01*
X180052993Y-79786562D01*
X179957755Y-79834181D01*
X179910136Y-79929419D01*
X179910136Y-80453228D01*
X179481564Y-80405609D02*
X179386326Y-80453228D01*
X179195850Y-80453228D01*
X179100612Y-80405609D01*
X179052993Y-80310371D01*
X179052993Y-80262752D01*
X179100612Y-80167514D01*
X179195850Y-80119895D01*
X179338707Y-80119895D01*
X179433945Y-80072276D01*
X179481564Y-79977038D01*
X179481564Y-79929419D01*
X179433945Y-79834181D01*
X179338707Y-79786562D01*
X179195850Y-79786562D01*
X179100612Y-79834181D01*
X178481564Y-80453228D02*
X178576802Y-80405609D01*
X178624421Y-80357990D01*
X178672040Y-80262752D01*
X178672040Y-79977038D01*
X178624421Y-79881800D01*
X178576802Y-79834181D01*
X178481564Y-79786562D01*
X178338707Y-79786562D01*
X178243469Y-79834181D01*
X178195850Y-79881800D01*
X178148231Y-79977038D01*
X178148231Y-80262752D01*
X178195850Y-80357990D01*
X178243469Y-80405609D01*
X178338707Y-80453228D01*
X178481564Y-80453228D01*
X177719659Y-80453228D02*
X177719659Y-79786562D01*
X177719659Y-79977038D02*
X177672040Y-79881800D01*
X177624421Y-79834181D01*
X177529183Y-79786562D01*
X177433945Y-79786562D01*
X155334874Y-109472729D02*
X155334874Y-108472729D01*
X155001540Y-109187015D01*
X154668207Y-108472729D01*
X154668207Y-109472729D01*
X154001540Y-108472729D02*
X153811064Y-108472729D01*
X153715826Y-108520349D01*
X153620588Y-108615587D01*
X153572969Y-108806063D01*
X153572969Y-109139396D01*
X153620588Y-109329872D01*
X153715826Y-109425110D01*
X153811064Y-109472729D01*
X154001540Y-109472729D01*
X154096778Y-109425110D01*
X154192016Y-109329872D01*
X154239636Y-109139396D01*
X154239636Y-108806063D01*
X154192016Y-108615587D01*
X154096778Y-108520349D01*
X154001540Y-108472729D01*
X153192016Y-109425110D02*
X153049159Y-109472729D01*
X152811064Y-109472729D01*
X152715826Y-109425110D01*
X152668207Y-109377491D01*
X152620588Y-109282253D01*
X152620588Y-109187015D01*
X152668207Y-109091777D01*
X152715826Y-109044158D01*
X152811064Y-108996539D01*
X153001540Y-108948920D01*
X153096778Y-108901301D01*
X153144397Y-108853682D01*
X153192016Y-108758444D01*
X153192016Y-108663206D01*
X153144397Y-108567968D01*
X153096778Y-108520349D01*
X153001540Y-108472729D01*
X152763445Y-108472729D01*
X152620588Y-108520349D01*
X151858683Y-108948920D02*
X152192016Y-108948920D01*
X152192016Y-109472729D02*
X152192016Y-108472729D01*
X151715826Y-108472729D01*
X151334874Y-108948920D02*
X151001540Y-108948920D01*
X150858683Y-109472729D02*
X151334874Y-109472729D01*
X151334874Y-108472729D01*
X150858683Y-108472729D01*
X150572969Y-108472729D02*
X150001540Y-108472729D01*
X150287255Y-109472729D02*
X150287255Y-108472729D01*
X189370659Y-90629228D02*
X189132564Y-91629228D01*
X188942088Y-90914943D01*
X188751612Y-91629228D01*
X188513516Y-90629228D01*
X187703993Y-91629228D02*
X187703993Y-91105419D01*
X187751612Y-91010181D01*
X187846850Y-90962562D01*
X188037326Y-90962562D01*
X188132564Y-91010181D01*
X187703993Y-91581609D02*
X187799231Y-91629228D01*
X188037326Y-91629228D01*
X188132564Y-91581609D01*
X188180183Y-91486371D01*
X188180183Y-91391133D01*
X188132564Y-91295895D01*
X188037326Y-91248276D01*
X187799231Y-91248276D01*
X187703993Y-91200657D01*
X187370659Y-90962562D02*
X186989707Y-90962562D01*
X187227802Y-90629228D02*
X187227802Y-91486371D01*
X187180183Y-91581609D01*
X187084945Y-91629228D01*
X186989707Y-91629228D01*
X186275421Y-91581609D02*
X186370659Y-91629228D01*
X186561136Y-91629228D01*
X186656374Y-91581609D01*
X186703993Y-91486371D01*
X186703993Y-91105419D01*
X186656374Y-91010181D01*
X186561136Y-90962562D01*
X186370659Y-90962562D01*
X186275421Y-91010181D01*
X186227802Y-91105419D01*
X186227802Y-91200657D01*
X186703993Y-91295895D01*
X185799231Y-91629228D02*
X185799231Y-90962562D01*
X185799231Y-91153038D02*
X185751612Y-91057800D01*
X185703993Y-91010181D01*
X185608755Y-90962562D01*
X185513516Y-90962562D01*
X185418278Y-91724467D02*
X184656374Y-91724467D01*
X184418278Y-90962562D02*
X184418278Y-91962562D01*
X184418278Y-91010181D02*
X184323040Y-90962562D01*
X184132564Y-90962562D01*
X184037326Y-91010181D01*
X183989707Y-91057800D01*
X183942088Y-91153038D01*
X183942088Y-91438752D01*
X183989707Y-91533990D01*
X184037326Y-91581609D01*
X184132564Y-91629228D01*
X184323040Y-91629228D01*
X184418278Y-91581609D01*
X183084945Y-90962562D02*
X183084945Y-91629228D01*
X183513516Y-90962562D02*
X183513516Y-91486371D01*
X183465897Y-91581609D01*
X183370659Y-91629228D01*
X183227802Y-91629228D01*
X183132564Y-91581609D01*
X183084945Y-91533990D01*
X182608755Y-91629228D02*
X182608755Y-90962562D01*
X182608755Y-91057800D02*
X182561136Y-91010181D01*
X182465897Y-90962562D01*
X182323040Y-90962562D01*
X182227802Y-91010181D01*
X182180183Y-91105419D01*
X182180183Y-91629228D01*
X182180183Y-91105419D02*
X182132564Y-91010181D01*
X182037326Y-90962562D01*
X181894469Y-90962562D01*
X181799231Y-91010181D01*
X181751612Y-91105419D01*
X181751612Y-91629228D01*
X181275421Y-90962562D02*
X181275421Y-91962562D01*
X181275421Y-91010181D02*
X181180183Y-90962562D01*
X180989707Y-90962562D01*
X180894469Y-91010181D01*
X180846850Y-91057800D01*
X180799231Y-91153038D01*
X180799231Y-91438752D01*
X180846850Y-91533990D01*
X180894469Y-91581609D01*
X180989707Y-91629228D01*
X181180183Y-91629228D01*
X181275421Y-91581609D01*
X162970943Y-119537564D02*
X162970943Y-120204230D01*
X163209038Y-119156611D02*
X163447134Y-119870897D01*
X162828086Y-119870897D01*
X162447134Y-120108992D02*
X162399514Y-120156611D01*
X162447134Y-120204230D01*
X162494753Y-120156611D01*
X162447134Y-120108992D01*
X162447134Y-120204230D01*
X162066181Y-119204230D02*
X161399514Y-119204230D01*
X161828086Y-120204230D01*
X161018562Y-120204230D02*
X161018562Y-119204230D01*
X160447134Y-120204230D02*
X160875705Y-119632802D01*
X160447134Y-119204230D02*
X161018562Y-119775659D01*
X184775183Y-76643229D02*
X185346612Y-76643229D01*
X185060897Y-76643229D02*
X185060897Y-75643229D01*
X185156136Y-75786087D01*
X185251374Y-75881325D01*
X185346612Y-75928944D01*
X184156136Y-75643229D02*
X184060897Y-75643229D01*
X183965659Y-75690849D01*
X183918040Y-75738468D01*
X183870421Y-75833706D01*
X183822802Y-76024182D01*
X183822802Y-76262277D01*
X183870421Y-76452753D01*
X183918040Y-76547991D01*
X183965659Y-76595610D01*
X184060897Y-76643229D01*
X184156136Y-76643229D01*
X184251374Y-76595610D01*
X184298993Y-76547991D01*
X184346612Y-76452753D01*
X184394231Y-76262277D01*
X184394231Y-76024182D01*
X184346612Y-75833706D01*
X184298993Y-75738468D01*
X184251374Y-75690849D01*
X184156136Y-75643229D01*
X183203755Y-75643229D02*
X183108516Y-75643229D01*
X183013278Y-75690849D01*
X182965659Y-75738468D01*
X182918040Y-75833706D01*
X182870421Y-76024182D01*
X182870421Y-76262277D01*
X182918040Y-76452753D01*
X182965659Y-76547991D01*
X183013278Y-76595610D01*
X183108516Y-76643229D01*
X183203755Y-76643229D01*
X183298993Y-76595610D01*
X183346612Y-76547991D01*
X183394231Y-76452753D01*
X183441850Y-76262277D01*
X183441850Y-76024182D01*
X183394231Y-75833706D01*
X183346612Y-75738468D01*
X183298993Y-75690849D01*
X183203755Y-75643229D01*
X182251374Y-75643229D02*
X182156136Y-75643229D01*
X182060897Y-75690849D01*
X182013278Y-75738468D01*
X181965659Y-75833706D01*
X181918040Y-76024182D01*
X181918040Y-76262277D01*
X181965659Y-76452753D01*
X182013278Y-76547991D01*
X182060897Y-76595610D01*
X182156136Y-76643229D01*
X182251374Y-76643229D01*
X182346612Y-76595610D01*
X182394231Y-76547991D01*
X182441850Y-76452753D01*
X182489469Y-76262277D01*
X182489469Y-76024182D01*
X182441850Y-75833706D01*
X182394231Y-75738468D01*
X182346612Y-75690849D01*
X182251374Y-75643229D01*
X181298993Y-75643229D02*
X181203755Y-75643229D01*
X181108516Y-75690849D01*
X181060897Y-75738468D01*
X181013278Y-75833706D01*
X180965659Y-76024182D01*
X180965659Y-76262277D01*
X181013278Y-76452753D01*
X181060897Y-76547991D01*
X181108516Y-76595610D01*
X181203755Y-76643229D01*
X181298993Y-76643229D01*
X181394231Y-76595610D01*
X181441850Y-76547991D01*
X181489469Y-76452753D01*
X181537088Y-76262277D01*
X181537088Y-76024182D01*
X181489469Y-75833706D01*
X181441850Y-75738468D01*
X181394231Y-75690849D01*
X181298993Y-75643229D01*
X184775183Y-73531729D02*
X185346612Y-73531729D01*
X185060897Y-73531729D02*
X185060897Y-72531729D01*
X185156136Y-72674587D01*
X185251374Y-72769825D01*
X185346612Y-72817444D01*
X184156136Y-72531729D02*
X184060897Y-72531729D01*
X183965659Y-72579349D01*
X183918040Y-72626968D01*
X183870421Y-72722206D01*
X183822802Y-72912682D01*
X183822802Y-73150777D01*
X183870421Y-73341253D01*
X183918040Y-73436491D01*
X183965659Y-73484110D01*
X184060897Y-73531729D01*
X184156136Y-73531729D01*
X184251374Y-73484110D01*
X184298993Y-73436491D01*
X184346612Y-73341253D01*
X184394231Y-73150777D01*
X184394231Y-72912682D01*
X184346612Y-72722206D01*
X184298993Y-72626968D01*
X184251374Y-72579349D01*
X184156136Y-72531729D01*
X183203755Y-72531729D02*
X183108516Y-72531729D01*
X183013278Y-72579349D01*
X182965659Y-72626968D01*
X182918040Y-72722206D01*
X182870421Y-72912682D01*
X182870421Y-73150777D01*
X182918040Y-73341253D01*
X182965659Y-73436491D01*
X183013278Y-73484110D01*
X183108516Y-73531729D01*
X183203755Y-73531729D01*
X183298993Y-73484110D01*
X183346612Y-73436491D01*
X183394231Y-73341253D01*
X183441850Y-73150777D01*
X183441850Y-72912682D01*
X183394231Y-72722206D01*
X183346612Y-72626968D01*
X183298993Y-72579349D01*
X183203755Y-72531729D01*
X182251374Y-72531729D02*
X182156136Y-72531729D01*
X182060897Y-72579349D01*
X182013278Y-72626968D01*
X181965659Y-72722206D01*
X181918040Y-72912682D01*
X181918040Y-73150777D01*
X181965659Y-73341253D01*
X182013278Y-73436491D01*
X182060897Y-73484110D01*
X182156136Y-73531729D01*
X182251374Y-73531729D01*
X182346612Y-73484110D01*
X182394231Y-73436491D01*
X182441850Y-73341253D01*
X182489469Y-73150777D01*
X182489469Y-72912682D01*
X182441850Y-72722206D01*
X182394231Y-72626968D01*
X182346612Y-72579349D01*
X182251374Y-72531729D01*
X181298993Y-72531729D02*
X181203755Y-72531729D01*
X181108516Y-72579349D01*
X181060897Y-72626968D01*
X181013278Y-72722206D01*
X180965659Y-72912682D01*
X180965659Y-73150777D01*
X181013278Y-73341253D01*
X181060897Y-73436491D01*
X181108516Y-73484110D01*
X181203755Y-73531729D01*
X181298993Y-73531729D01*
X181394231Y-73484110D01*
X181441850Y-73436491D01*
X181489469Y-73341253D01*
X181537088Y-73150777D01*
X181537088Y-72912682D01*
X181489469Y-72722206D01*
X181441850Y-72626968D01*
X181394231Y-72579349D01*
X181298993Y-72531729D01*
%LPC*%
D15*
X151114035Y-120972748D03*
X152485635Y-120958348D03*
X153857235Y-120958348D03*
D16*
X138494635Y-116513348D03*
X135954635Y-116513348D03*
X133414635Y-116513348D03*
X130874635Y-116513348D03*
X128334635Y-116513348D03*
X125794635Y-116513348D03*
X123254635Y-116513348D03*
X120714635Y-116513348D03*
X118174635Y-116513348D03*
X115634635Y-116513348D03*
X113094635Y-116513348D03*
X110554635Y-116513348D03*
X108014635Y-116513348D03*
X105474635Y-116513348D03*
X102934635Y-116513348D03*
X138494635Y-91113348D03*
X135954635Y-91113348D03*
X133414635Y-91113348D03*
X130874635Y-91113348D03*
X128334635Y-91113348D03*
X125794635Y-91113348D03*
X123254635Y-91113348D03*
X120714635Y-91113348D03*
X118174635Y-91113348D03*
X115634635Y-91113348D03*
X113094635Y-91113348D03*
X110554635Y-91113348D03*
X108014635Y-91113348D03*
X105474635Y-91113348D03*
G36*
G01*
X101934635Y-90011348D02*
X103934635Y-90011348D01*
G75*
G02*
X104036635Y-90113348I0J-102000D01*
G01*
X104036635Y-92113348D01*
G75*
G02*
X103934635Y-92215348I-102000J0D01*
G01*
X101934635Y-92215348D01*
G75*
G02*
X101832635Y-92113348I0J102000D01*
G01*
X101832635Y-90113348D01*
G75*
G02*
X101934635Y-90011348I102000J0D01*
G01*
G37*
D17*
X188218355Y-70064368D03*
D18*
X178058355Y-70064368D03*
X178086355Y-67016369D03*
D17*
X188246355Y-67016369D03*
D18*
X178058354Y-63968369D03*
D17*
X188218354Y-63968369D03*
X188218356Y-60920368D03*
D18*
X178058356Y-60920368D03*
G36*
G01*
X157780635Y-92141348D02*
X156080635Y-92141348D01*
G75*
G02*
X156029635Y-92090348I0J51000D01*
G01*
X156029635Y-90390348D01*
G75*
G02*
X156080635Y-90339348I51000J0D01*
G01*
X157780635Y-90339348D01*
G75*
G02*
X157831635Y-90390348I0J-51000D01*
G01*
X157831635Y-92090348D01*
G75*
G02*
X157780635Y-92141348I-51000J0D01*
G01*
G37*
D19*
X154390635Y-91240348D03*
X151850635Y-91240348D03*
X149310635Y-91240348D03*
D20*
X165046005Y-112362729D03*
X165046005Y-107862729D03*
X171546005Y-112362729D03*
X171546005Y-107862729D03*
X184754004Y-107862729D03*
X184754004Y-112362729D03*
X178254004Y-107862729D03*
X178254004Y-112362729D03*
X171535635Y-119870348D03*
X171535635Y-115370348D03*
X178035635Y-119870348D03*
X178035635Y-115370348D03*
X171766636Y-104702347D03*
X171766636Y-100202347D03*
X178266636Y-104702347D03*
X178266636Y-100202347D03*
D21*
X186140635Y-121720348D03*
X183346635Y-53648348D03*
X95843636Y-122355349D03*
G36*
G01*
X188438636Y-82008348D02*
X188438636Y-83708348D01*
G75*
G02*
X188387636Y-83759348I-51000J0D01*
G01*
X186687636Y-83759348D01*
G75*
G02*
X186636636Y-83708348I0J51000D01*
G01*
X186636636Y-82008348D01*
G75*
G02*
X186687636Y-81957348I51000J0D01*
G01*
X188387636Y-81957348D01*
G75*
G02*
X188438636Y-82008348I0J-51000D01*
G01*
G37*
D19*
X187537636Y-85398348D03*
X187537636Y-87938348D03*
G36*
G01*
X156283136Y-112338349D02*
X156283136Y-114338349D01*
G75*
G02*
X156232136Y-114389349I-51000J0D01*
G01*
X154327136Y-114389349D01*
G75*
G02*
X154276136Y-114338349I0J51000D01*
G01*
X154276136Y-112338349D01*
G75*
G02*
X154327136Y-112287349I51000J0D01*
G01*
X156232136Y-112287349D01*
G75*
G02*
X156283136Y-112338349I0J-51000D01*
G01*
G37*
D22*
X152739636Y-113338349D03*
X150199636Y-113338349D03*
D23*
X154263634Y-96701348D03*
G36*
G01*
X157754634Y-95801348D02*
X157754634Y-97601348D01*
G75*
G02*
X157703634Y-97652348I-51000J0D01*
G01*
X155903634Y-97652348D01*
G75*
G02*
X155852634Y-97601348I0J51000D01*
G01*
X155852634Y-95801348D01*
G75*
G02*
X155903634Y-95750348I51000J0D01*
G01*
X157703634Y-95750348D01*
G75*
G02*
X157754634Y-95801348I0J-51000D01*
G01*
G37*
G36*
G01*
X152928636Y-95801348D02*
X152928636Y-97601348D01*
G75*
G02*
X152877636Y-97652348I-51000J0D01*
G01*
X151077636Y-97652348D01*
G75*
G02*
X151026636Y-97601348I0J51000D01*
G01*
X151026636Y-95801348D01*
G75*
G02*
X151077636Y-95750348I51000J0D01*
G01*
X152877636Y-95750348D01*
G75*
G02*
X152928636Y-95801348I0J-51000D01*
G01*
G37*
X149437636Y-96701348D03*
G36*
G01*
X188438636Y-92930348D02*
X188438636Y-94630348D01*
G75*
G02*
X188387636Y-94681348I-51000J0D01*
G01*
X186687636Y-94681348D01*
G75*
G02*
X186636636Y-94630348I0J51000D01*
G01*
X186636636Y-92930348D01*
G75*
G02*
X186687636Y-92879348I51000J0D01*
G01*
X188387636Y-92879348D01*
G75*
G02*
X188438636Y-92930348I0J-51000D01*
G01*
G37*
D19*
X187537636Y-96320348D03*
D24*
X124354635Y-97531349D03*
X121814635Y-97531349D03*
X116734635Y-97531349D03*
X119274635Y-97531349D03*
D17*
X166963634Y-119751850D03*
D18*
X156803634Y-119751850D03*
X178076136Y-76190849D03*
D17*
X188236136Y-76190849D03*
X188236136Y-73079349D03*
D18*
X178076136Y-73079349D03*
M02*
