M48
; DRILL file {KiCad 9.0.0} date 2025-06-15T15:42:35+0200
; FORMAT={-:-/ absolute / metric / decimal}
; #@! TF.CreationDate,2025-06-15T15:42:35+02:00
; #@! TF.GenerationSoftware,Kicad,Pcbnew,9.0.0
; #@! TF.FileFunction,Plated,1,2,PTH
FMAT,2
METRIC
; #@! TA.AperFunction,Plated,PTH,ComponentDrill
T1C0.750
; #@! TA.AperFunction,Plated,PTH,ComponentDrill
T2C0.762
; #@! TA.AperFunction,Plated,PTH,ComponentDrill
T3C0.800
; #@! TA.AperFunction,Plated,PTH,ComponentDrill
T4C0.900
; #@! TA.AperFunction,Plated,PTH,ComponentDrill
T5C0.950
; #@! TA.AperFunction,Plated,PTH,ComponentDrill
T6C1.000
; #@! TA.AperFunction,Plated,PTH,ComponentDrill
T7C1.020
; #@! TA.AperFunction,Plated,PTH,ComponentDrill
T8C1.100
; #@! TA.AperFunction,Plated,PTH,ComponentDrill
T9C1.500
; #@! TA.AperFunction,Plated,PTH,ComponentDrill
T10C3.200
%
G90
G05
T1
X111.309Y-120.719
X112.579Y-120.719
X113.849Y-120.719
T2
X113.301Y-68.15
X115.841Y-68.15
X118.381Y-68.15
X120.921Y-68.15
X149.669Y-68.15
X152.209Y-68.15
X154.749Y-68.15
X157.29Y-68.15
T3
X94.579Y-132.517
X103.378Y-127.437
X104.739Y-132.517
X113.538Y-127.437
X117.185Y-132.517
X125.984Y-127.437
X128.869Y-132.517
X137.668Y-127.437
X140.299Y-132.517
X149.098Y-127.437
X151.729Y-132.517
X160.528Y-127.437
T4
X103.378Y-121.087
X103.378Y-123.627
X125.984Y-121.087
X125.984Y-123.627
X137.668Y-121.087
X137.668Y-123.627
X149.098Y-121.087
X149.098Y-123.627
X160.528Y-121.087
X160.528Y-123.627
T5
X179.578Y-56.027
X179.578Y-58.527
X179.578Y-61.027
X179.578Y-67.457
X179.578Y-69.957
X179.578Y-72.457
X179.578Y-78.887
X179.578Y-81.387
X179.578Y-83.887
X179.578Y-90.317
X179.578Y-92.817
X179.578Y-95.317
T6
X130.088Y-55.892
X132.588Y-55.892
X138.978Y-55.947
X141.478Y-55.947
X147.868Y-55.947
X150.368Y-55.947
X156.758Y-55.947
X159.258Y-55.947
X172.748Y-118.547
X172.748Y-133.047
X175.248Y-118.547
X177.748Y-118.547
X177.748Y-133.047
T7
X100.076Y-64.075
X100.076Y-89.475
X102.616Y-64.075
X102.616Y-89.475
X105.156Y-64.075
X105.156Y-89.475
X107.696Y-64.075
X107.696Y-89.475
X110.236Y-64.075
X110.236Y-89.475
X112.776Y-64.075
X112.776Y-89.475
X115.316Y-64.075
X115.316Y-89.475
X117.856Y-64.075
X117.856Y-89.475
X120.396Y-64.075
X120.396Y-89.475
X122.936Y-64.075
X122.936Y-89.475
X125.476Y-64.075
X125.476Y-89.475
X128.016Y-64.075
X128.016Y-89.475
X130.556Y-64.075
X130.556Y-89.475
X133.096Y-64.075
X133.096Y-89.475
X135.636Y-64.075
X135.636Y-89.475
T8
X120.874Y-116.007
X123.414Y-116.007
X125.954Y-116.007
X132.588Y-116.007
X135.128Y-116.007
X137.668Y-116.007
X144.018Y-116.007
X146.558Y-116.007
X149.098Y-116.007
X155.448Y-116.007
X157.988Y-116.007
X160.528Y-116.007
T10
X95.885Y-123.511
X97.536Y-57.15
X170.688Y-57.404
X180.594Y-109.795
T9
X169.648Y-125.397G85X169.648Y-126.697
G05
X180.848Y-125.397G85X180.848Y-126.697
G05
M30
