G04 #@! TF.GenerationSoftware,KiCad,Pcbnew,9.0.0*
G04 #@! TF.CreationDate,2025-06-15T15:42:29+02:00*
G04 #@! TF.ProjectId,plant_watner_V3.0,706c616e-745f-4776-9174-6e65725f5633,rev?*
G04 #@! TF.SameCoordinates,Original*
G04 #@! TF.FileFunction,Soldermask,Top*
G04 #@! TF.FilePolarity,Negative*
%FSLAX46Y46*%
G04 Gerber Fmt 4.6, Leading zero omitted, Abs format (unit mm)*
G04 Created by KiCad (PCBNEW 9.0.0) date 2025-06-15 15:42:29*
%MOMM*%
%LPD*%
G01*
G04 APERTURE LIST*
G04 APERTURE END LIST*
G36*
X172839498Y-132001061D02*
G01*
X172851016Y-132001061D01*
X172896023Y-132010013D01*
X172993260Y-132025414D01*
X173024536Y-132035576D01*
X173053089Y-132041256D01*
X173093387Y-132057948D01*
X173150052Y-132076360D01*
X173203135Y-132103407D01*
X173243438Y-132120101D01*
X173267647Y-132136277D01*
X173296943Y-132151204D01*
X173376583Y-132209066D01*
X173414747Y-132234566D01*
X173422891Y-132242710D01*
X173430315Y-132248104D01*
X173546895Y-132364684D01*
X173552288Y-132372107D01*
X173560434Y-132380253D01*
X173585936Y-132418420D01*
X173643795Y-132498056D01*
X173658720Y-132527348D01*
X173674899Y-132551562D01*
X173691594Y-132591869D01*
X173718639Y-132644947D01*
X173737048Y-132701604D01*
X173753744Y-132741911D01*
X173759424Y-132770469D01*
X173769585Y-132801739D01*
X173784984Y-132898967D01*
X173793939Y-132943984D01*
X173793939Y-132955502D01*
X173795375Y-132964569D01*
X173795375Y-133129430D01*
X173793939Y-133138496D01*
X173793939Y-133150016D01*
X173784983Y-133195035D01*
X173769585Y-133292260D01*
X173759425Y-133323528D01*
X173753744Y-133352089D01*
X173737047Y-133392398D01*
X173718639Y-133449052D01*
X173691596Y-133502125D01*
X173674899Y-133542438D01*
X173658718Y-133566654D01*
X173643795Y-133595943D01*
X173585945Y-133675566D01*
X173560434Y-133713747D01*
X173552285Y-133721895D01*
X173546895Y-133729315D01*
X173430315Y-133845895D01*
X173422895Y-133851285D01*
X173414747Y-133859434D01*
X173376566Y-133884945D01*
X173296943Y-133942795D01*
X173267654Y-133957718D01*
X173243438Y-133973899D01*
X173203125Y-133990596D01*
X173150052Y-134017639D01*
X173093398Y-134036047D01*
X173053089Y-134052744D01*
X173024528Y-134058425D01*
X172993260Y-134068585D01*
X172896033Y-134083984D01*
X172851016Y-134092939D01*
X172839497Y-134092939D01*
X172830431Y-134094375D01*
X172665569Y-134094375D01*
X172656503Y-134092939D01*
X172644984Y-134092939D01*
X172599967Y-134083984D01*
X172502739Y-134068585D01*
X172471469Y-134058424D01*
X172442911Y-134052744D01*
X172402604Y-134036048D01*
X172345947Y-134017639D01*
X172292869Y-133990594D01*
X172252562Y-133973899D01*
X172228348Y-133957720D01*
X172199056Y-133942795D01*
X172119420Y-133884936D01*
X172081253Y-133859434D01*
X172073107Y-133851288D01*
X172065684Y-133845895D01*
X171949104Y-133729315D01*
X171943710Y-133721891D01*
X171935566Y-133713747D01*
X171910066Y-133675583D01*
X171852204Y-133595943D01*
X171837277Y-133566647D01*
X171821101Y-133542438D01*
X171804407Y-133502135D01*
X171777360Y-133449052D01*
X171758948Y-133392387D01*
X171742256Y-133352089D01*
X171736576Y-133323536D01*
X171726414Y-133292260D01*
X171711014Y-133195026D01*
X171702061Y-133150016D01*
X171702061Y-133138496D01*
X171700625Y-133129430D01*
X171700625Y-132964569D01*
X171702061Y-132955502D01*
X171702061Y-132943984D01*
X171711013Y-132898977D01*
X171726414Y-132801739D01*
X171736576Y-132770461D01*
X171742256Y-132741911D01*
X171758946Y-132701616D01*
X171777360Y-132644947D01*
X171804409Y-132591858D01*
X171821101Y-132551562D01*
X171837275Y-132527355D01*
X171852204Y-132498056D01*
X171910074Y-132418403D01*
X171935566Y-132380253D01*
X171943707Y-132372111D01*
X171949104Y-132364684D01*
X172065684Y-132248104D01*
X172073111Y-132242707D01*
X172081253Y-132234566D01*
X172119403Y-132209074D01*
X172199056Y-132151204D01*
X172228355Y-132136275D01*
X172252562Y-132120101D01*
X172292858Y-132103409D01*
X172345947Y-132076360D01*
X172402616Y-132057946D01*
X172442911Y-132041256D01*
X172471461Y-132035576D01*
X172502739Y-132025414D01*
X172599977Y-132010013D01*
X172644984Y-132001061D01*
X172656502Y-132001061D01*
X172665569Y-131999625D01*
X172830431Y-131999625D01*
X172839498Y-132001061D01*
G37*
G36*
X177839498Y-132001061D02*
G01*
X177851016Y-132001061D01*
X177896023Y-132010013D01*
X177993260Y-132025414D01*
X178024536Y-132035576D01*
X178053089Y-132041256D01*
X178093387Y-132057948D01*
X178150052Y-132076360D01*
X178203135Y-132103407D01*
X178243438Y-132120101D01*
X178267647Y-132136277D01*
X178296943Y-132151204D01*
X178376583Y-132209066D01*
X178414747Y-132234566D01*
X178422891Y-132242710D01*
X178430315Y-132248104D01*
X178546895Y-132364684D01*
X178552288Y-132372107D01*
X178560434Y-132380253D01*
X178585936Y-132418420D01*
X178643795Y-132498056D01*
X178658720Y-132527348D01*
X178674899Y-132551562D01*
X178691594Y-132591869D01*
X178718639Y-132644947D01*
X178737048Y-132701604D01*
X178753744Y-132741911D01*
X178759424Y-132770469D01*
X178769585Y-132801739D01*
X178784984Y-132898967D01*
X178793939Y-132943984D01*
X178793939Y-132955502D01*
X178795375Y-132964569D01*
X178795375Y-133129430D01*
X178793939Y-133138496D01*
X178793939Y-133150016D01*
X178784983Y-133195035D01*
X178769585Y-133292260D01*
X178759425Y-133323528D01*
X178753744Y-133352089D01*
X178737047Y-133392398D01*
X178718639Y-133449052D01*
X178691596Y-133502125D01*
X178674899Y-133542438D01*
X178658718Y-133566654D01*
X178643795Y-133595943D01*
X178585945Y-133675566D01*
X178560434Y-133713747D01*
X178552285Y-133721895D01*
X178546895Y-133729315D01*
X178430315Y-133845895D01*
X178422895Y-133851285D01*
X178414747Y-133859434D01*
X178376566Y-133884945D01*
X178296943Y-133942795D01*
X178267654Y-133957718D01*
X178243438Y-133973899D01*
X178203125Y-133990596D01*
X178150052Y-134017639D01*
X178093398Y-134036047D01*
X178053089Y-134052744D01*
X178024528Y-134058425D01*
X177993260Y-134068585D01*
X177896033Y-134083984D01*
X177851016Y-134092939D01*
X177839497Y-134092939D01*
X177830431Y-134094375D01*
X177665569Y-134094375D01*
X177656503Y-134092939D01*
X177644984Y-134092939D01*
X177599967Y-134083984D01*
X177502739Y-134068585D01*
X177471469Y-134058424D01*
X177442911Y-134052744D01*
X177402604Y-134036048D01*
X177345947Y-134017639D01*
X177292869Y-133990594D01*
X177252562Y-133973899D01*
X177228348Y-133957720D01*
X177199056Y-133942795D01*
X177119420Y-133884936D01*
X177081253Y-133859434D01*
X177073107Y-133851288D01*
X177065684Y-133845895D01*
X176949104Y-133729315D01*
X176943710Y-133721891D01*
X176935566Y-133713747D01*
X176910066Y-133675583D01*
X176852204Y-133595943D01*
X176837277Y-133566647D01*
X176821101Y-133542438D01*
X176804407Y-133502135D01*
X176777360Y-133449052D01*
X176758948Y-133392387D01*
X176742256Y-133352089D01*
X176736576Y-133323536D01*
X176726414Y-133292260D01*
X176711014Y-133195026D01*
X176702061Y-133150016D01*
X176702061Y-133138496D01*
X176700625Y-133129430D01*
X176700625Y-132964569D01*
X176702061Y-132955502D01*
X176702061Y-132943984D01*
X176711013Y-132898977D01*
X176726414Y-132801739D01*
X176736576Y-132770461D01*
X176742256Y-132741911D01*
X176758946Y-132701616D01*
X176777360Y-132644947D01*
X176804409Y-132591858D01*
X176821101Y-132551562D01*
X176837275Y-132527355D01*
X176852204Y-132498056D01*
X176910074Y-132418403D01*
X176935566Y-132380253D01*
X176943707Y-132372111D01*
X176949104Y-132364684D01*
X177065684Y-132248104D01*
X177073111Y-132242707D01*
X177081253Y-132234566D01*
X177119403Y-132209074D01*
X177199056Y-132151204D01*
X177228355Y-132136275D01*
X177252562Y-132120101D01*
X177292858Y-132103409D01*
X177345947Y-132076360D01*
X177402616Y-132057946D01*
X177442911Y-132041256D01*
X177471461Y-132035576D01*
X177502739Y-132025414D01*
X177599977Y-132010013D01*
X177644984Y-132001061D01*
X177656502Y-132001061D01*
X177665569Y-131999625D01*
X177830431Y-131999625D01*
X177839498Y-132001061D01*
G37*
G36*
X94826214Y-131702644D02*
G01*
X94980341Y-131766485D01*
X95119051Y-131859168D01*
X95237014Y-131977131D01*
X95329697Y-132115841D01*
X95393538Y-132269968D01*
X95426084Y-132433587D01*
X95426084Y-132600413D01*
X95393538Y-132764032D01*
X95329697Y-132918159D01*
X95237014Y-133056869D01*
X95119051Y-133174832D01*
X94980341Y-133267515D01*
X94826214Y-133331356D01*
X94662595Y-133363902D01*
X94495769Y-133363902D01*
X94332150Y-133331356D01*
X94178023Y-133267515D01*
X94039313Y-133174832D01*
X93921350Y-133056869D01*
X93828667Y-132918159D01*
X93764826Y-132764032D01*
X93732280Y-132600413D01*
X93732280Y-132433587D01*
X93764826Y-132269968D01*
X93828667Y-132115841D01*
X93921350Y-131977131D01*
X94039313Y-131859168D01*
X94178023Y-131766485D01*
X94332150Y-131702644D01*
X94495769Y-131670098D01*
X94662595Y-131670098D01*
X94826214Y-131702644D01*
G37*
G36*
X104986214Y-131702644D02*
G01*
X105140341Y-131766485D01*
X105279051Y-131859168D01*
X105397014Y-131977131D01*
X105489697Y-132115841D01*
X105553538Y-132269968D01*
X105586084Y-132433587D01*
X105586084Y-132600413D01*
X105553538Y-132764032D01*
X105489697Y-132918159D01*
X105397014Y-133056869D01*
X105279051Y-133174832D01*
X105140341Y-133267515D01*
X104986214Y-133331356D01*
X104822595Y-133363902D01*
X104655769Y-133363902D01*
X104492150Y-133331356D01*
X104338023Y-133267515D01*
X104199313Y-133174832D01*
X104081350Y-133056869D01*
X103988667Y-132918159D01*
X103924826Y-132764032D01*
X103892280Y-132600413D01*
X103892280Y-132433587D01*
X103924826Y-132269968D01*
X103988667Y-132115841D01*
X104081350Y-131977131D01*
X104199313Y-131859168D01*
X104338023Y-131766485D01*
X104492150Y-131702644D01*
X104655769Y-131670098D01*
X104822595Y-131670098D01*
X104986214Y-131702644D01*
G37*
G36*
X117432214Y-131702644D02*
G01*
X117586341Y-131766485D01*
X117725051Y-131859168D01*
X117843014Y-131977131D01*
X117935697Y-132115841D01*
X117999538Y-132269968D01*
X118032084Y-132433587D01*
X118032084Y-132600413D01*
X117999538Y-132764032D01*
X117935697Y-132918159D01*
X117843014Y-133056869D01*
X117725051Y-133174832D01*
X117586341Y-133267515D01*
X117432214Y-133331356D01*
X117268595Y-133363902D01*
X117101769Y-133363902D01*
X116938150Y-133331356D01*
X116784023Y-133267515D01*
X116645313Y-133174832D01*
X116527350Y-133056869D01*
X116434667Y-132918159D01*
X116370826Y-132764032D01*
X116338280Y-132600413D01*
X116338280Y-132433587D01*
X116370826Y-132269968D01*
X116434667Y-132115841D01*
X116527350Y-131977131D01*
X116645313Y-131859168D01*
X116784023Y-131766485D01*
X116938150Y-131702644D01*
X117101769Y-131670098D01*
X117268595Y-131670098D01*
X117432214Y-131702644D01*
G37*
G36*
X129116214Y-131702644D02*
G01*
X129270341Y-131766485D01*
X129409051Y-131859168D01*
X129527014Y-131977131D01*
X129619697Y-132115841D01*
X129683538Y-132269968D01*
X129716084Y-132433587D01*
X129716084Y-132600413D01*
X129683538Y-132764032D01*
X129619697Y-132918159D01*
X129527014Y-133056869D01*
X129409051Y-133174832D01*
X129270341Y-133267515D01*
X129116214Y-133331356D01*
X128952595Y-133363902D01*
X128785769Y-133363902D01*
X128622150Y-133331356D01*
X128468023Y-133267515D01*
X128329313Y-133174832D01*
X128211350Y-133056869D01*
X128118667Y-132918159D01*
X128054826Y-132764032D01*
X128022280Y-132600413D01*
X128022280Y-132433587D01*
X128054826Y-132269968D01*
X128118667Y-132115841D01*
X128211350Y-131977131D01*
X128329313Y-131859168D01*
X128468023Y-131766485D01*
X128622150Y-131702644D01*
X128785769Y-131670098D01*
X128952595Y-131670098D01*
X129116214Y-131702644D01*
G37*
G36*
X140546214Y-131702644D02*
G01*
X140700341Y-131766485D01*
X140839051Y-131859168D01*
X140957014Y-131977131D01*
X141049697Y-132115841D01*
X141113538Y-132269968D01*
X141146084Y-132433587D01*
X141146084Y-132600413D01*
X141113538Y-132764032D01*
X141049697Y-132918159D01*
X140957014Y-133056869D01*
X140839051Y-133174832D01*
X140700341Y-133267515D01*
X140546214Y-133331356D01*
X140382595Y-133363902D01*
X140215769Y-133363902D01*
X140052150Y-133331356D01*
X139898023Y-133267515D01*
X139759313Y-133174832D01*
X139641350Y-133056869D01*
X139548667Y-132918159D01*
X139484826Y-132764032D01*
X139452280Y-132600413D01*
X139452280Y-132433587D01*
X139484826Y-132269968D01*
X139548667Y-132115841D01*
X139641350Y-131977131D01*
X139759313Y-131859168D01*
X139898023Y-131766485D01*
X140052150Y-131702644D01*
X140215769Y-131670098D01*
X140382595Y-131670098D01*
X140546214Y-131702644D01*
G37*
G36*
X151976214Y-131702644D02*
G01*
X152130341Y-131766485D01*
X152269051Y-131859168D01*
X152387014Y-131977131D01*
X152479697Y-132115841D01*
X152543538Y-132269968D01*
X152576084Y-132433587D01*
X152576084Y-132600413D01*
X152543538Y-132764032D01*
X152479697Y-132918159D01*
X152387014Y-133056869D01*
X152269051Y-133174832D01*
X152130341Y-133267515D01*
X151976214Y-133331356D01*
X151812595Y-133363902D01*
X151645769Y-133363902D01*
X151482150Y-133331356D01*
X151328023Y-133267515D01*
X151189313Y-133174832D01*
X151071350Y-133056869D01*
X150978667Y-132918159D01*
X150914826Y-132764032D01*
X150882280Y-132600413D01*
X150882280Y-132433587D01*
X150914826Y-132269968D01*
X150978667Y-132115841D01*
X151071350Y-131977131D01*
X151189313Y-131859168D01*
X151328023Y-131766485D01*
X151482150Y-131702644D01*
X151645769Y-131670098D01*
X151812595Y-131670098D01*
X151976214Y-131702644D01*
G37*
G36*
X103625032Y-126622644D02*
G01*
X103779159Y-126686485D01*
X103917869Y-126779168D01*
X104035832Y-126897131D01*
X104128515Y-127035841D01*
X104192356Y-127189968D01*
X104224902Y-127353587D01*
X104224902Y-127520413D01*
X104192356Y-127684032D01*
X104128515Y-127838159D01*
X104035832Y-127976869D01*
X103917869Y-128094832D01*
X103779159Y-128187515D01*
X103625032Y-128251356D01*
X103461413Y-128283902D01*
X103294587Y-128283902D01*
X103130968Y-128251356D01*
X102976841Y-128187515D01*
X102838131Y-128094832D01*
X102720168Y-127976869D01*
X102627485Y-127838159D01*
X102563644Y-127684032D01*
X102531098Y-127520413D01*
X102531098Y-127353587D01*
X102563644Y-127189968D01*
X102627485Y-127035841D01*
X102720168Y-126897131D01*
X102838131Y-126779168D01*
X102976841Y-126686485D01*
X103130968Y-126622644D01*
X103294587Y-126590098D01*
X103461413Y-126590098D01*
X103625032Y-126622644D01*
G37*
G36*
X113785032Y-126622644D02*
G01*
X113939159Y-126686485D01*
X114077869Y-126779168D01*
X114195832Y-126897131D01*
X114288515Y-127035841D01*
X114352356Y-127189968D01*
X114384902Y-127353587D01*
X114384902Y-127520413D01*
X114352356Y-127684032D01*
X114288515Y-127838159D01*
X114195832Y-127976869D01*
X114077869Y-128094832D01*
X113939159Y-128187515D01*
X113785032Y-128251356D01*
X113621413Y-128283902D01*
X113454587Y-128283902D01*
X113290968Y-128251356D01*
X113136841Y-128187515D01*
X112998131Y-128094832D01*
X112880168Y-127976869D01*
X112787485Y-127838159D01*
X112723644Y-127684032D01*
X112691098Y-127520413D01*
X112691098Y-127353587D01*
X112723644Y-127189968D01*
X112787485Y-127035841D01*
X112880168Y-126897131D01*
X112998131Y-126779168D01*
X113136841Y-126686485D01*
X113290968Y-126622644D01*
X113454587Y-126590098D01*
X113621413Y-126590098D01*
X113785032Y-126622644D01*
G37*
G36*
X126231032Y-126622644D02*
G01*
X126385159Y-126686485D01*
X126523869Y-126779168D01*
X126641832Y-126897131D01*
X126734515Y-127035841D01*
X126798356Y-127189968D01*
X126830902Y-127353587D01*
X126830902Y-127520413D01*
X126798356Y-127684032D01*
X126734515Y-127838159D01*
X126641832Y-127976869D01*
X126523869Y-128094832D01*
X126385159Y-128187515D01*
X126231032Y-128251356D01*
X126067413Y-128283902D01*
X125900587Y-128283902D01*
X125736968Y-128251356D01*
X125582841Y-128187515D01*
X125444131Y-128094832D01*
X125326168Y-127976869D01*
X125233485Y-127838159D01*
X125169644Y-127684032D01*
X125137098Y-127520413D01*
X125137098Y-127353587D01*
X125169644Y-127189968D01*
X125233485Y-127035841D01*
X125326168Y-126897131D01*
X125444131Y-126779168D01*
X125582841Y-126686485D01*
X125736968Y-126622644D01*
X125900587Y-126590098D01*
X126067413Y-126590098D01*
X126231032Y-126622644D01*
G37*
G36*
X137915032Y-126622644D02*
G01*
X138069159Y-126686485D01*
X138207869Y-126779168D01*
X138325832Y-126897131D01*
X138418515Y-127035841D01*
X138482356Y-127189968D01*
X138514902Y-127353587D01*
X138514902Y-127520413D01*
X138482356Y-127684032D01*
X138418515Y-127838159D01*
X138325832Y-127976869D01*
X138207869Y-128094832D01*
X138069159Y-128187515D01*
X137915032Y-128251356D01*
X137751413Y-128283902D01*
X137584587Y-128283902D01*
X137420968Y-128251356D01*
X137266841Y-128187515D01*
X137128131Y-128094832D01*
X137010168Y-127976869D01*
X136917485Y-127838159D01*
X136853644Y-127684032D01*
X136821098Y-127520413D01*
X136821098Y-127353587D01*
X136853644Y-127189968D01*
X136917485Y-127035841D01*
X137010168Y-126897131D01*
X137128131Y-126779168D01*
X137266841Y-126686485D01*
X137420968Y-126622644D01*
X137584587Y-126590098D01*
X137751413Y-126590098D01*
X137915032Y-126622644D01*
G37*
G36*
X149345032Y-126622644D02*
G01*
X149499159Y-126686485D01*
X149637869Y-126779168D01*
X149755832Y-126897131D01*
X149848515Y-127035841D01*
X149912356Y-127189968D01*
X149944902Y-127353587D01*
X149944902Y-127520413D01*
X149912356Y-127684032D01*
X149848515Y-127838159D01*
X149755832Y-127976869D01*
X149637869Y-128094832D01*
X149499159Y-128187515D01*
X149345032Y-128251356D01*
X149181413Y-128283902D01*
X149014587Y-128283902D01*
X148850968Y-128251356D01*
X148696841Y-128187515D01*
X148558131Y-128094832D01*
X148440168Y-127976869D01*
X148347485Y-127838159D01*
X148283644Y-127684032D01*
X148251098Y-127520413D01*
X148251098Y-127353587D01*
X148283644Y-127189968D01*
X148347485Y-127035841D01*
X148440168Y-126897131D01*
X148558131Y-126779168D01*
X148696841Y-126686485D01*
X148850968Y-126622644D01*
X149014587Y-126590098D01*
X149181413Y-126590098D01*
X149345032Y-126622644D01*
G37*
G36*
X160775032Y-126622644D02*
G01*
X160929159Y-126686485D01*
X161067869Y-126779168D01*
X161185832Y-126897131D01*
X161278515Y-127035841D01*
X161342356Y-127189968D01*
X161374902Y-127353587D01*
X161374902Y-127520413D01*
X161342356Y-127684032D01*
X161278515Y-127838159D01*
X161185832Y-127976869D01*
X161067869Y-128094832D01*
X160929159Y-128187515D01*
X160775032Y-128251356D01*
X160611413Y-128283902D01*
X160444587Y-128283902D01*
X160280968Y-128251356D01*
X160126841Y-128187515D01*
X159988131Y-128094832D01*
X159870168Y-127976869D01*
X159777485Y-127838159D01*
X159713644Y-127684032D01*
X159681098Y-127520413D01*
X159681098Y-127353587D01*
X159713644Y-127189968D01*
X159777485Y-127035841D01*
X159870168Y-126897131D01*
X159988131Y-126779168D01*
X160126841Y-126686485D01*
X160280968Y-126622644D01*
X160444587Y-126590098D01*
X160611413Y-126590098D01*
X160775032Y-126622644D01*
G37*
G36*
X170667517Y-124399883D02*
G01*
X170684062Y-124410939D01*
X170695118Y-124427484D01*
X170699000Y-124447001D01*
X170699000Y-127647001D01*
X170695118Y-127666518D01*
X170684062Y-127683063D01*
X170667517Y-127694119D01*
X170648000Y-127698001D01*
X168648000Y-127698001D01*
X168628483Y-127694119D01*
X168611938Y-127683063D01*
X168600882Y-127666518D01*
X168597000Y-127647001D01*
X168597000Y-124447001D01*
X168600882Y-124427484D01*
X168611938Y-124410939D01*
X168628483Y-124399883D01*
X168648000Y-124396001D01*
X170648000Y-124396001D01*
X170667517Y-124399883D01*
G37*
G36*
X181867517Y-124399883D02*
G01*
X181884062Y-124410939D01*
X181895118Y-124427484D01*
X181899000Y-124447001D01*
X181899000Y-127647001D01*
X181895118Y-127666518D01*
X181884062Y-127683063D01*
X181867517Y-127694119D01*
X181848000Y-127698001D01*
X179848000Y-127698001D01*
X179828483Y-127694119D01*
X179811938Y-127683063D01*
X179800882Y-127666518D01*
X179797000Y-127647001D01*
X179797000Y-124447001D01*
X179800882Y-124427484D01*
X179811938Y-124410939D01*
X179828483Y-124399883D01*
X179848000Y-124396001D01*
X181848000Y-124396001D01*
X181867517Y-124399883D01*
G37*
G36*
X96362021Y-120295187D02*
G01*
X96674929Y-120357428D01*
X96980229Y-120450040D01*
X97274982Y-120572131D01*
X97556348Y-120722524D01*
X97821618Y-120899772D01*
X98068238Y-121102168D01*
X98293832Y-121327762D01*
X98496228Y-121574382D01*
X98673476Y-121839652D01*
X98823869Y-122121018D01*
X98945960Y-122415771D01*
X99038572Y-122721071D01*
X99100813Y-123033979D01*
X99132084Y-123351481D01*
X99132084Y-123670519D01*
X99100813Y-123988021D01*
X99038572Y-124300929D01*
X98945960Y-124606229D01*
X98823869Y-124900982D01*
X98673476Y-125182348D01*
X98496228Y-125447618D01*
X98293832Y-125694238D01*
X98068238Y-125919832D01*
X97821618Y-126122228D01*
X97556348Y-126299476D01*
X97274982Y-126449869D01*
X96980229Y-126571960D01*
X96674929Y-126664572D01*
X96362021Y-126726813D01*
X96044519Y-126758084D01*
X95725481Y-126758084D01*
X95407979Y-126726813D01*
X95095071Y-126664572D01*
X94789771Y-126571960D01*
X94495018Y-126449869D01*
X94213652Y-126299476D01*
X93948382Y-126122228D01*
X93701762Y-125919832D01*
X93476168Y-125694238D01*
X93273772Y-125447618D01*
X93096524Y-125182348D01*
X92946131Y-124900982D01*
X92824040Y-124606229D01*
X92731428Y-124300929D01*
X92669187Y-123988021D01*
X92637916Y-123670519D01*
X92637916Y-123351481D01*
X92669187Y-123033979D01*
X92731428Y-122721071D01*
X92824040Y-122415771D01*
X92946131Y-122121018D01*
X93096524Y-121839652D01*
X93273772Y-121574382D01*
X93476168Y-121327762D01*
X93701762Y-121102168D01*
X93948382Y-120899772D01*
X94213652Y-120722524D01*
X94495018Y-120572131D01*
X94789771Y-120450040D01*
X95095071Y-120357428D01*
X95407979Y-120295187D01*
X95725481Y-120263916D01*
X96044519Y-120263916D01*
X96362021Y-120295187D01*
G37*
G36*
X104297515Y-122679883D02*
G01*
X104314060Y-122690939D01*
X104325116Y-122707484D01*
X104328998Y-122727001D01*
X104328998Y-124527001D01*
X104325116Y-124546518D01*
X104314060Y-124563063D01*
X104297515Y-124574119D01*
X104277998Y-124578001D01*
X102477998Y-124578001D01*
X102458481Y-124574119D01*
X102441936Y-124563063D01*
X102430880Y-124546518D01*
X102426998Y-124527001D01*
X102426998Y-122727001D01*
X102430880Y-122707484D01*
X102441936Y-122690939D01*
X102458481Y-122679883D01*
X102477998Y-122676001D01*
X104277998Y-122676001D01*
X104297515Y-122679883D01*
G37*
G36*
X126903517Y-122679883D02*
G01*
X126920062Y-122690939D01*
X126931118Y-122707484D01*
X126935000Y-122727001D01*
X126935000Y-124527001D01*
X126931118Y-124546518D01*
X126920062Y-124563063D01*
X126903517Y-124574119D01*
X126884000Y-124578001D01*
X125084000Y-124578001D01*
X125064483Y-124574119D01*
X125047938Y-124563063D01*
X125036882Y-124546518D01*
X125033000Y-124527001D01*
X125033000Y-122727001D01*
X125036882Y-122707484D01*
X125047938Y-122690939D01*
X125064483Y-122679883D01*
X125084000Y-122676001D01*
X126884000Y-122676001D01*
X126903517Y-122679883D01*
G37*
G36*
X150017518Y-122679881D02*
G01*
X150034063Y-122690937D01*
X150045119Y-122707482D01*
X150049001Y-122726999D01*
X150049001Y-124526999D01*
X150045119Y-124546516D01*
X150034063Y-124563061D01*
X150017518Y-124574117D01*
X149998001Y-124577999D01*
X148198001Y-124577999D01*
X148178484Y-124574117D01*
X148161939Y-124563061D01*
X148150883Y-124546516D01*
X148147001Y-124526999D01*
X148147001Y-122726999D01*
X148150883Y-122707482D01*
X148161939Y-122690937D01*
X148178484Y-122679881D01*
X148198001Y-122675999D01*
X149998001Y-122675999D01*
X150017518Y-122679881D01*
G37*
G36*
X161447518Y-122679881D02*
G01*
X161464063Y-122690937D01*
X161475119Y-122707482D01*
X161479001Y-122726999D01*
X161479001Y-124526999D01*
X161475119Y-124546516D01*
X161464063Y-124563061D01*
X161447518Y-124574117D01*
X161428001Y-124577999D01*
X159628001Y-124577999D01*
X159608484Y-124574117D01*
X159591939Y-124563061D01*
X159580883Y-124546516D01*
X159577001Y-124526999D01*
X159577001Y-122726999D01*
X159580883Y-122707482D01*
X159591939Y-122690937D01*
X159608484Y-122679881D01*
X159628001Y-122675999D01*
X161428001Y-122675999D01*
X161447518Y-122679881D01*
G37*
G36*
X138587518Y-122679880D02*
G01*
X138604063Y-122690936D01*
X138615119Y-122707481D01*
X138619001Y-122726998D01*
X138619001Y-124526998D01*
X138615119Y-124546515D01*
X138604063Y-124563060D01*
X138587518Y-124574116D01*
X138568001Y-124577998D01*
X136768001Y-124577998D01*
X136748484Y-124574116D01*
X136731939Y-124563060D01*
X136720883Y-124546515D01*
X136717001Y-124526998D01*
X136717001Y-122726998D01*
X136720883Y-122707481D01*
X136731939Y-122690936D01*
X136748484Y-122679880D01*
X136768001Y-122675998D01*
X138568001Y-122675998D01*
X138587518Y-122679880D01*
G37*
G36*
X103460551Y-120140580D02*
G01*
X103471212Y-120140580D01*
X103512863Y-120148865D01*
X103599914Y-120162652D01*
X103627916Y-120171750D01*
X103654059Y-120176951D01*
X103690954Y-120192233D01*
X103741782Y-120208749D01*
X103789397Y-120233010D01*
X103826296Y-120248294D01*
X103848461Y-120263104D01*
X103874691Y-120276469D01*
X103945988Y-120328269D01*
X103981306Y-120351868D01*
X103988844Y-120359406D01*
X103995368Y-120364146D01*
X104100852Y-120469630D01*
X104105591Y-120476153D01*
X104113131Y-120483693D01*
X104136732Y-120519015D01*
X104188529Y-120590307D01*
X104201892Y-120616534D01*
X104216705Y-120638703D01*
X104231991Y-120675606D01*
X104256249Y-120723216D01*
X104272762Y-120774036D01*
X104288048Y-120810940D01*
X104293249Y-120837087D01*
X104302346Y-120865084D01*
X104316132Y-120952126D01*
X104324419Y-120993787D01*
X104324419Y-121004448D01*
X104325681Y-121012416D01*
X104325681Y-121161585D01*
X104324419Y-121169552D01*
X104324419Y-121180215D01*
X104316131Y-121221878D01*
X104302346Y-121308917D01*
X104293249Y-121336911D01*
X104288048Y-121363062D01*
X104272760Y-121399969D01*
X104256249Y-121450785D01*
X104231993Y-121498389D01*
X104216705Y-121535299D01*
X104201890Y-121557471D01*
X104188529Y-121583694D01*
X104136740Y-121654974D01*
X104113131Y-121690309D01*
X104105589Y-121697850D01*
X104100852Y-121704371D01*
X103995368Y-121809855D01*
X103988847Y-121814592D01*
X103981306Y-121822134D01*
X103945971Y-121845743D01*
X103874691Y-121897532D01*
X103848468Y-121910893D01*
X103826296Y-121925708D01*
X103789386Y-121940996D01*
X103741782Y-121965252D01*
X103690966Y-121981763D01*
X103654059Y-121997051D01*
X103627908Y-122002252D01*
X103599914Y-122011349D01*
X103512873Y-122025134D01*
X103471212Y-122033422D01*
X103460551Y-122033422D01*
X103452583Y-122034684D01*
X103303413Y-122034684D01*
X103295445Y-122033422D01*
X103284784Y-122033422D01*
X103243123Y-122025135D01*
X103156081Y-122011349D01*
X103128084Y-122002252D01*
X103101937Y-121997051D01*
X103065033Y-121981765D01*
X103014213Y-121965252D01*
X102966603Y-121940994D01*
X102929700Y-121925708D01*
X102907531Y-121910895D01*
X102881304Y-121897532D01*
X102810012Y-121845735D01*
X102774690Y-121822134D01*
X102767150Y-121814594D01*
X102760627Y-121809855D01*
X102655143Y-121704371D01*
X102650403Y-121697847D01*
X102642865Y-121690309D01*
X102619266Y-121654991D01*
X102567466Y-121583694D01*
X102554101Y-121557464D01*
X102539291Y-121535299D01*
X102524007Y-121498400D01*
X102499746Y-121450785D01*
X102483230Y-121399957D01*
X102467948Y-121363062D01*
X102462747Y-121336919D01*
X102453649Y-121308917D01*
X102439862Y-121221868D01*
X102431577Y-121180215D01*
X102431577Y-121169553D01*
X102430315Y-121161585D01*
X102430315Y-121012416D01*
X102431577Y-121004447D01*
X102431577Y-120993787D01*
X102439861Y-120952137D01*
X102453649Y-120865084D01*
X102462748Y-120837079D01*
X102467948Y-120810940D01*
X102483229Y-120774047D01*
X102499746Y-120723216D01*
X102524009Y-120675596D01*
X102539291Y-120638703D01*
X102554099Y-120616540D01*
X102567466Y-120590307D01*
X102619275Y-120518997D01*
X102642865Y-120483693D01*
X102650400Y-120476157D01*
X102655143Y-120469630D01*
X102760627Y-120364146D01*
X102767154Y-120359403D01*
X102774690Y-120351868D01*
X102809994Y-120328278D01*
X102881304Y-120276469D01*
X102907537Y-120263102D01*
X102929700Y-120248294D01*
X102966593Y-120233012D01*
X103014213Y-120208749D01*
X103065044Y-120192232D01*
X103101937Y-120176951D01*
X103128076Y-120171751D01*
X103156081Y-120162652D01*
X103243134Y-120148864D01*
X103284784Y-120140580D01*
X103295445Y-120140580D01*
X103303413Y-120139318D01*
X103452583Y-120139318D01*
X103460551Y-120140580D01*
G37*
G36*
X126066553Y-120140580D02*
G01*
X126077214Y-120140580D01*
X126118865Y-120148865D01*
X126205916Y-120162652D01*
X126233918Y-120171750D01*
X126260061Y-120176951D01*
X126296956Y-120192233D01*
X126347784Y-120208749D01*
X126395399Y-120233010D01*
X126432298Y-120248294D01*
X126454463Y-120263104D01*
X126480693Y-120276469D01*
X126551990Y-120328269D01*
X126587308Y-120351868D01*
X126594846Y-120359406D01*
X126601370Y-120364146D01*
X126706854Y-120469630D01*
X126711593Y-120476153D01*
X126719133Y-120483693D01*
X126742734Y-120519015D01*
X126794531Y-120590307D01*
X126807894Y-120616534D01*
X126822707Y-120638703D01*
X126837993Y-120675606D01*
X126862251Y-120723216D01*
X126878764Y-120774036D01*
X126894050Y-120810940D01*
X126899251Y-120837087D01*
X126908348Y-120865084D01*
X126922134Y-120952126D01*
X126930421Y-120993787D01*
X126930421Y-121004448D01*
X126931683Y-121012416D01*
X126931683Y-121161585D01*
X126930421Y-121169552D01*
X126930421Y-121180215D01*
X126922133Y-121221878D01*
X126908348Y-121308917D01*
X126899251Y-121336911D01*
X126894050Y-121363062D01*
X126878762Y-121399969D01*
X126862251Y-121450785D01*
X126837995Y-121498389D01*
X126822707Y-121535299D01*
X126807892Y-121557471D01*
X126794531Y-121583694D01*
X126742742Y-121654974D01*
X126719133Y-121690309D01*
X126711591Y-121697850D01*
X126706854Y-121704371D01*
X126601370Y-121809855D01*
X126594849Y-121814592D01*
X126587308Y-121822134D01*
X126551973Y-121845743D01*
X126480693Y-121897532D01*
X126454470Y-121910893D01*
X126432298Y-121925708D01*
X126395388Y-121940996D01*
X126347784Y-121965252D01*
X126296968Y-121981763D01*
X126260061Y-121997051D01*
X126233910Y-122002252D01*
X126205916Y-122011349D01*
X126118875Y-122025134D01*
X126077214Y-122033422D01*
X126066553Y-122033422D01*
X126058585Y-122034684D01*
X125909415Y-122034684D01*
X125901447Y-122033422D01*
X125890786Y-122033422D01*
X125849125Y-122025135D01*
X125762083Y-122011349D01*
X125734086Y-122002252D01*
X125707939Y-121997051D01*
X125671035Y-121981765D01*
X125620215Y-121965252D01*
X125572605Y-121940994D01*
X125535702Y-121925708D01*
X125513533Y-121910895D01*
X125487306Y-121897532D01*
X125416014Y-121845735D01*
X125380692Y-121822134D01*
X125373152Y-121814594D01*
X125366629Y-121809855D01*
X125261145Y-121704371D01*
X125256405Y-121697847D01*
X125248867Y-121690309D01*
X125225268Y-121654991D01*
X125173468Y-121583694D01*
X125160103Y-121557464D01*
X125145293Y-121535299D01*
X125130009Y-121498400D01*
X125105748Y-121450785D01*
X125089232Y-121399957D01*
X125073950Y-121363062D01*
X125068749Y-121336919D01*
X125059651Y-121308917D01*
X125045864Y-121221868D01*
X125037579Y-121180215D01*
X125037579Y-121169553D01*
X125036317Y-121161585D01*
X125036317Y-121012416D01*
X125037579Y-121004447D01*
X125037579Y-120993787D01*
X125045863Y-120952137D01*
X125059651Y-120865084D01*
X125068750Y-120837079D01*
X125073950Y-120810940D01*
X125089231Y-120774047D01*
X125105748Y-120723216D01*
X125130011Y-120675596D01*
X125145293Y-120638703D01*
X125160101Y-120616540D01*
X125173468Y-120590307D01*
X125225277Y-120518997D01*
X125248867Y-120483693D01*
X125256402Y-120476157D01*
X125261145Y-120469630D01*
X125366629Y-120364146D01*
X125373156Y-120359403D01*
X125380692Y-120351868D01*
X125415996Y-120328278D01*
X125487306Y-120276469D01*
X125513539Y-120263102D01*
X125535702Y-120248294D01*
X125572595Y-120233012D01*
X125620215Y-120208749D01*
X125671046Y-120192232D01*
X125707939Y-120176951D01*
X125734078Y-120171751D01*
X125762083Y-120162652D01*
X125849136Y-120148864D01*
X125890786Y-120140580D01*
X125901447Y-120140580D01*
X125909415Y-120139318D01*
X126058585Y-120139318D01*
X126066553Y-120140580D01*
G37*
G36*
X149180554Y-120140578D02*
G01*
X149191215Y-120140578D01*
X149232866Y-120148863D01*
X149319917Y-120162650D01*
X149347919Y-120171748D01*
X149374062Y-120176949D01*
X149410957Y-120192231D01*
X149461785Y-120208747D01*
X149509400Y-120233008D01*
X149546299Y-120248292D01*
X149568464Y-120263102D01*
X149594694Y-120276467D01*
X149665991Y-120328267D01*
X149701309Y-120351866D01*
X149708847Y-120359404D01*
X149715371Y-120364144D01*
X149820855Y-120469628D01*
X149825594Y-120476151D01*
X149833134Y-120483691D01*
X149856735Y-120519013D01*
X149908532Y-120590305D01*
X149921895Y-120616532D01*
X149936708Y-120638701D01*
X149951994Y-120675604D01*
X149976252Y-120723214D01*
X149992765Y-120774034D01*
X150008051Y-120810938D01*
X150013252Y-120837085D01*
X150022349Y-120865082D01*
X150036135Y-120952124D01*
X150044422Y-120993785D01*
X150044422Y-121004446D01*
X150045684Y-121012414D01*
X150045684Y-121161583D01*
X150044422Y-121169550D01*
X150044422Y-121180213D01*
X150036134Y-121221876D01*
X150022349Y-121308915D01*
X150013252Y-121336909D01*
X150008051Y-121363060D01*
X149992763Y-121399967D01*
X149976252Y-121450783D01*
X149951996Y-121498387D01*
X149936708Y-121535297D01*
X149921893Y-121557469D01*
X149908532Y-121583692D01*
X149856743Y-121654972D01*
X149833134Y-121690307D01*
X149825592Y-121697848D01*
X149820855Y-121704369D01*
X149715371Y-121809853D01*
X149708850Y-121814590D01*
X149701309Y-121822132D01*
X149665974Y-121845741D01*
X149594694Y-121897530D01*
X149568471Y-121910891D01*
X149546299Y-121925706D01*
X149509389Y-121940994D01*
X149461785Y-121965250D01*
X149410969Y-121981761D01*
X149374062Y-121997049D01*
X149347911Y-122002250D01*
X149319917Y-122011347D01*
X149232876Y-122025132D01*
X149191215Y-122033420D01*
X149180554Y-122033420D01*
X149172586Y-122034682D01*
X149023416Y-122034682D01*
X149015448Y-122033420D01*
X149004787Y-122033420D01*
X148963126Y-122025133D01*
X148876084Y-122011347D01*
X148848087Y-122002250D01*
X148821940Y-121997049D01*
X148785036Y-121981763D01*
X148734216Y-121965250D01*
X148686606Y-121940992D01*
X148649703Y-121925706D01*
X148627534Y-121910893D01*
X148601307Y-121897530D01*
X148530015Y-121845733D01*
X148494693Y-121822132D01*
X148487153Y-121814592D01*
X148480630Y-121809853D01*
X148375146Y-121704369D01*
X148370406Y-121697845D01*
X148362868Y-121690307D01*
X148339269Y-121654989D01*
X148287469Y-121583692D01*
X148274104Y-121557462D01*
X148259294Y-121535297D01*
X148244010Y-121498398D01*
X148219749Y-121450783D01*
X148203233Y-121399955D01*
X148187951Y-121363060D01*
X148182750Y-121336917D01*
X148173652Y-121308915D01*
X148159865Y-121221866D01*
X148151580Y-121180213D01*
X148151580Y-121169551D01*
X148150318Y-121161583D01*
X148150318Y-121012414D01*
X148151580Y-121004445D01*
X148151580Y-120993785D01*
X148159864Y-120952135D01*
X148173652Y-120865082D01*
X148182751Y-120837077D01*
X148187951Y-120810938D01*
X148203232Y-120774045D01*
X148219749Y-120723214D01*
X148244012Y-120675594D01*
X148259294Y-120638701D01*
X148274102Y-120616538D01*
X148287469Y-120590305D01*
X148339278Y-120518995D01*
X148362868Y-120483691D01*
X148370403Y-120476155D01*
X148375146Y-120469628D01*
X148480630Y-120364144D01*
X148487157Y-120359401D01*
X148494693Y-120351866D01*
X148529997Y-120328276D01*
X148601307Y-120276467D01*
X148627540Y-120263100D01*
X148649703Y-120248292D01*
X148686596Y-120233010D01*
X148734216Y-120208747D01*
X148785047Y-120192230D01*
X148821940Y-120176949D01*
X148848079Y-120171749D01*
X148876084Y-120162650D01*
X148963137Y-120148862D01*
X149004787Y-120140578D01*
X149015448Y-120140578D01*
X149023416Y-120139316D01*
X149172586Y-120139316D01*
X149180554Y-120140578D01*
G37*
G36*
X160610554Y-120140578D02*
G01*
X160621215Y-120140578D01*
X160662866Y-120148863D01*
X160749917Y-120162650D01*
X160777919Y-120171748D01*
X160804062Y-120176949D01*
X160840957Y-120192231D01*
X160891785Y-120208747D01*
X160939400Y-120233008D01*
X160976299Y-120248292D01*
X160998464Y-120263102D01*
X161024694Y-120276467D01*
X161095991Y-120328267D01*
X161131309Y-120351866D01*
X161138847Y-120359404D01*
X161145371Y-120364144D01*
X161250855Y-120469628D01*
X161255594Y-120476151D01*
X161263134Y-120483691D01*
X161286735Y-120519013D01*
X161338532Y-120590305D01*
X161351895Y-120616532D01*
X161366708Y-120638701D01*
X161381994Y-120675604D01*
X161406252Y-120723214D01*
X161422765Y-120774034D01*
X161438051Y-120810938D01*
X161443252Y-120837085D01*
X161452349Y-120865082D01*
X161466135Y-120952124D01*
X161474422Y-120993785D01*
X161474422Y-121004446D01*
X161475684Y-121012414D01*
X161475684Y-121161583D01*
X161474422Y-121169550D01*
X161474422Y-121180213D01*
X161466134Y-121221876D01*
X161452349Y-121308915D01*
X161443252Y-121336909D01*
X161438051Y-121363060D01*
X161422763Y-121399967D01*
X161406252Y-121450783D01*
X161381996Y-121498387D01*
X161366708Y-121535297D01*
X161351893Y-121557469D01*
X161338532Y-121583692D01*
X161286743Y-121654972D01*
X161263134Y-121690307D01*
X161255592Y-121697848D01*
X161250855Y-121704369D01*
X161145371Y-121809853D01*
X161138850Y-121814590D01*
X161131309Y-121822132D01*
X161095974Y-121845741D01*
X161024694Y-121897530D01*
X160998471Y-121910891D01*
X160976299Y-121925706D01*
X160939389Y-121940994D01*
X160891785Y-121965250D01*
X160840969Y-121981761D01*
X160804062Y-121997049D01*
X160777911Y-122002250D01*
X160749917Y-122011347D01*
X160662876Y-122025132D01*
X160621215Y-122033420D01*
X160610554Y-122033420D01*
X160602586Y-122034682D01*
X160453416Y-122034682D01*
X160445448Y-122033420D01*
X160434787Y-122033420D01*
X160393126Y-122025133D01*
X160306084Y-122011347D01*
X160278087Y-122002250D01*
X160251940Y-121997049D01*
X160215036Y-121981763D01*
X160164216Y-121965250D01*
X160116606Y-121940992D01*
X160079703Y-121925706D01*
X160057534Y-121910893D01*
X160031307Y-121897530D01*
X159960015Y-121845733D01*
X159924693Y-121822132D01*
X159917153Y-121814592D01*
X159910630Y-121809853D01*
X159805146Y-121704369D01*
X159800406Y-121697845D01*
X159792868Y-121690307D01*
X159769269Y-121654989D01*
X159717469Y-121583692D01*
X159704104Y-121557462D01*
X159689294Y-121535297D01*
X159674010Y-121498398D01*
X159649749Y-121450783D01*
X159633233Y-121399955D01*
X159617951Y-121363060D01*
X159612750Y-121336917D01*
X159603652Y-121308915D01*
X159589865Y-121221866D01*
X159581580Y-121180213D01*
X159581580Y-121169551D01*
X159580318Y-121161583D01*
X159580318Y-121012414D01*
X159581580Y-121004445D01*
X159581580Y-120993785D01*
X159589864Y-120952135D01*
X159603652Y-120865082D01*
X159612751Y-120837077D01*
X159617951Y-120810938D01*
X159633232Y-120774045D01*
X159649749Y-120723214D01*
X159674012Y-120675594D01*
X159689294Y-120638701D01*
X159704102Y-120616538D01*
X159717469Y-120590305D01*
X159769278Y-120518995D01*
X159792868Y-120483691D01*
X159800403Y-120476155D01*
X159805146Y-120469628D01*
X159910630Y-120364144D01*
X159917157Y-120359401D01*
X159924693Y-120351866D01*
X159959997Y-120328276D01*
X160031307Y-120276467D01*
X160057540Y-120263100D01*
X160079703Y-120248292D01*
X160116596Y-120233010D01*
X160164216Y-120208747D01*
X160215047Y-120192230D01*
X160251940Y-120176949D01*
X160278079Y-120171749D01*
X160306084Y-120162650D01*
X160393137Y-120148862D01*
X160434787Y-120140578D01*
X160445448Y-120140578D01*
X160453416Y-120139316D01*
X160602586Y-120139316D01*
X160610554Y-120140578D01*
G37*
G36*
X137750554Y-120140577D02*
G01*
X137761215Y-120140577D01*
X137802866Y-120148862D01*
X137889917Y-120162649D01*
X137917919Y-120171747D01*
X137944062Y-120176948D01*
X137980957Y-120192230D01*
X138031785Y-120208746D01*
X138079400Y-120233007D01*
X138116299Y-120248291D01*
X138138464Y-120263101D01*
X138164694Y-120276466D01*
X138235991Y-120328266D01*
X138271309Y-120351865D01*
X138278847Y-120359403D01*
X138285371Y-120364143D01*
X138390855Y-120469627D01*
X138395594Y-120476150D01*
X138403134Y-120483690D01*
X138426735Y-120519012D01*
X138478532Y-120590304D01*
X138491895Y-120616531D01*
X138506708Y-120638700D01*
X138521994Y-120675603D01*
X138546252Y-120723213D01*
X138562765Y-120774033D01*
X138578051Y-120810937D01*
X138583252Y-120837084D01*
X138592349Y-120865081D01*
X138606135Y-120952123D01*
X138614422Y-120993784D01*
X138614422Y-121004445D01*
X138615684Y-121012413D01*
X138615684Y-121161582D01*
X138614422Y-121169549D01*
X138614422Y-121180212D01*
X138606134Y-121221875D01*
X138592349Y-121308914D01*
X138583252Y-121336908D01*
X138578051Y-121363059D01*
X138562763Y-121399966D01*
X138546252Y-121450782D01*
X138521996Y-121498386D01*
X138506708Y-121535296D01*
X138491893Y-121557468D01*
X138478532Y-121583691D01*
X138426743Y-121654971D01*
X138403134Y-121690306D01*
X138395592Y-121697847D01*
X138390855Y-121704368D01*
X138285371Y-121809852D01*
X138278850Y-121814589D01*
X138271309Y-121822131D01*
X138235974Y-121845740D01*
X138164694Y-121897529D01*
X138138471Y-121910890D01*
X138116299Y-121925705D01*
X138079389Y-121940993D01*
X138031785Y-121965249D01*
X137980969Y-121981760D01*
X137944062Y-121997048D01*
X137917911Y-122002249D01*
X137889917Y-122011346D01*
X137802876Y-122025131D01*
X137761215Y-122033419D01*
X137750554Y-122033419D01*
X137742586Y-122034681D01*
X137593416Y-122034681D01*
X137585448Y-122033419D01*
X137574787Y-122033419D01*
X137533126Y-122025132D01*
X137446084Y-122011346D01*
X137418087Y-122002249D01*
X137391940Y-121997048D01*
X137355036Y-121981762D01*
X137304216Y-121965249D01*
X137256606Y-121940991D01*
X137219703Y-121925705D01*
X137197534Y-121910892D01*
X137171307Y-121897529D01*
X137100015Y-121845732D01*
X137064693Y-121822131D01*
X137057153Y-121814591D01*
X137050630Y-121809852D01*
X136945146Y-121704368D01*
X136940406Y-121697844D01*
X136932868Y-121690306D01*
X136909269Y-121654988D01*
X136857469Y-121583691D01*
X136844104Y-121557461D01*
X136829294Y-121535296D01*
X136814010Y-121498397D01*
X136789749Y-121450782D01*
X136773233Y-121399954D01*
X136757951Y-121363059D01*
X136752750Y-121336916D01*
X136743652Y-121308914D01*
X136729865Y-121221865D01*
X136721580Y-121180212D01*
X136721580Y-121169550D01*
X136720318Y-121161582D01*
X136720318Y-121012413D01*
X136721580Y-121004444D01*
X136721580Y-120993784D01*
X136729864Y-120952134D01*
X136743652Y-120865081D01*
X136752751Y-120837076D01*
X136757951Y-120810937D01*
X136773232Y-120774044D01*
X136789749Y-120723213D01*
X136814012Y-120675593D01*
X136829294Y-120638700D01*
X136844102Y-120616537D01*
X136857469Y-120590304D01*
X136909278Y-120518994D01*
X136932868Y-120483690D01*
X136940403Y-120476154D01*
X136945146Y-120469627D01*
X137050630Y-120364143D01*
X137057157Y-120359400D01*
X137064693Y-120351865D01*
X137099997Y-120328275D01*
X137171307Y-120276466D01*
X137197540Y-120263099D01*
X137219703Y-120248291D01*
X137256596Y-120233009D01*
X137304216Y-120208746D01*
X137355047Y-120192229D01*
X137391940Y-120176948D01*
X137418079Y-120171748D01*
X137446084Y-120162649D01*
X137533137Y-120148861D01*
X137574787Y-120140577D01*
X137585448Y-120140577D01*
X137593416Y-120139315D01*
X137742586Y-120139315D01*
X137750554Y-120140577D01*
G37*
G36*
X114393517Y-119921882D02*
G01*
X114410062Y-119932938D01*
X114421118Y-119949483D01*
X114425000Y-119969000D01*
X114425000Y-121469000D01*
X114421118Y-121488517D01*
X114410062Y-121505062D01*
X114393517Y-121516118D01*
X114374000Y-121520000D01*
X113324000Y-121520000D01*
X113304483Y-121516118D01*
X113287938Y-121505062D01*
X113276882Y-121488517D01*
X113273000Y-121469000D01*
X113273000Y-121363059D01*
X113272999Y-121255411D01*
X113095570Y-121201591D01*
X113052363Y-121266255D01*
X113035972Y-121294647D01*
X113028202Y-121302416D01*
X113023787Y-121309025D01*
X112944025Y-121388787D01*
X112937416Y-121393202D01*
X112929647Y-121400972D01*
X112901262Y-121417359D01*
X112850238Y-121451453D01*
X112821831Y-121463219D01*
X112799426Y-121476155D01*
X112774434Y-121482851D01*
X112746027Y-121494618D01*
X112685829Y-121506592D01*
X112654183Y-121515072D01*
X112643202Y-121515072D01*
X112635400Y-121516624D01*
X112522600Y-121516624D01*
X112514798Y-121515072D01*
X112503817Y-121515072D01*
X112472172Y-121506592D01*
X112411972Y-121494618D01*
X112383562Y-121482850D01*
X112358574Y-121476155D01*
X112336170Y-121463220D01*
X112307761Y-121451453D01*
X112256730Y-121417355D01*
X112228353Y-121400972D01*
X112220585Y-121393204D01*
X112213974Y-121388787D01*
X112134212Y-121309025D01*
X112129794Y-121302413D01*
X112122028Y-121294647D01*
X112105647Y-121266275D01*
X112071545Y-121215237D01*
X112059775Y-121186822D01*
X112046845Y-121164426D01*
X112040150Y-121139442D01*
X112027522Y-121108953D01*
X111860478Y-121108953D01*
X111847849Y-121139440D01*
X111841155Y-121164426D01*
X111828221Y-121186827D01*
X111816454Y-121215237D01*
X111782358Y-121266264D01*
X111765972Y-121294647D01*
X111758202Y-121302416D01*
X111753787Y-121309025D01*
X111674025Y-121388787D01*
X111667416Y-121393202D01*
X111659647Y-121400972D01*
X111631262Y-121417359D01*
X111580238Y-121451453D01*
X111551831Y-121463219D01*
X111529426Y-121476155D01*
X111504434Y-121482851D01*
X111476027Y-121494618D01*
X111415829Y-121506592D01*
X111384183Y-121515072D01*
X111373202Y-121515072D01*
X111365400Y-121516624D01*
X111252600Y-121516624D01*
X111244798Y-121515072D01*
X111233817Y-121515072D01*
X111202172Y-121506592D01*
X111141972Y-121494618D01*
X111113562Y-121482850D01*
X111088574Y-121476155D01*
X111066170Y-121463220D01*
X111037761Y-121451453D01*
X110986730Y-121417355D01*
X110958353Y-121400972D01*
X110950585Y-121393204D01*
X110943974Y-121388787D01*
X110864212Y-121309025D01*
X110859794Y-121302413D01*
X110852028Y-121294647D01*
X110835646Y-121266273D01*
X110801546Y-121215238D01*
X110789777Y-121186825D01*
X110776845Y-121164426D01*
X110770150Y-121139441D01*
X110758381Y-121111027D01*
X110746405Y-121050820D01*
X110737928Y-121019183D01*
X110736854Y-121002807D01*
X110735772Y-120997365D01*
X110733600Y-120953157D01*
X110733000Y-120944000D01*
X110733000Y-120494000D01*
X110733600Y-120484845D01*
X110735772Y-120440634D01*
X110736854Y-120435190D01*
X110737928Y-120418817D01*
X110746404Y-120387182D01*
X110758381Y-120326972D01*
X110770151Y-120298555D01*
X110776845Y-120273574D01*
X110789775Y-120251177D01*
X110801546Y-120222761D01*
X110835650Y-120171719D01*
X110852028Y-120143353D01*
X110859792Y-120135588D01*
X110864212Y-120128974D01*
X110943974Y-120049212D01*
X110950588Y-120044792D01*
X110958353Y-120037028D01*
X110986719Y-120020650D01*
X111037761Y-119986546D01*
X111066177Y-119974775D01*
X111088574Y-119961845D01*
X111113555Y-119955151D01*
X111141972Y-119943381D01*
X111202178Y-119931405D01*
X111233817Y-119922928D01*
X111244797Y-119922928D01*
X111252600Y-119921376D01*
X111365400Y-119921376D01*
X111373202Y-119922928D01*
X111384183Y-119922928D01*
X111415822Y-119931405D01*
X111476027Y-119943381D01*
X111504441Y-119955150D01*
X111529426Y-119961845D01*
X111551825Y-119974777D01*
X111580238Y-119986546D01*
X111631273Y-120020646D01*
X111659647Y-120037028D01*
X111667413Y-120044794D01*
X111674025Y-120049212D01*
X111753787Y-120128974D01*
X111758204Y-120135585D01*
X111765972Y-120143353D01*
X111782355Y-120171730D01*
X111816453Y-120222761D01*
X111828221Y-120251172D01*
X111841155Y-120273574D01*
X111847849Y-120298557D01*
X111860478Y-120329046D01*
X112027522Y-120329046D01*
X112040151Y-120298555D01*
X112046845Y-120273574D01*
X112059775Y-120251177D01*
X112071546Y-120222761D01*
X112105650Y-120171719D01*
X112122028Y-120143353D01*
X112129792Y-120135588D01*
X112134212Y-120128974D01*
X112213974Y-120049212D01*
X112220588Y-120044792D01*
X112228353Y-120037028D01*
X112256719Y-120020650D01*
X112307761Y-119986546D01*
X112336177Y-119974775D01*
X112358574Y-119961845D01*
X112383555Y-119955151D01*
X112411972Y-119943381D01*
X112472178Y-119931405D01*
X112503817Y-119922928D01*
X112514797Y-119922928D01*
X112522600Y-119921376D01*
X112635400Y-119921376D01*
X112643202Y-119922928D01*
X112654183Y-119922928D01*
X112685822Y-119931405D01*
X112746027Y-119943381D01*
X112774441Y-119955150D01*
X112799426Y-119961845D01*
X112821825Y-119974777D01*
X112850238Y-119986546D01*
X112901273Y-120020646D01*
X112929647Y-120037028D01*
X112937413Y-120044794D01*
X112944025Y-120049212D01*
X113023787Y-120128974D01*
X113028205Y-120135586D01*
X113035972Y-120143353D01*
X113052351Y-120171723D01*
X113095573Y-120236408D01*
X113273000Y-120182585D01*
X113273000Y-119981310D01*
X113273000Y-119969000D01*
X113276882Y-119949483D01*
X113287938Y-119932938D01*
X113304483Y-119921882D01*
X113324000Y-119918000D01*
X114374000Y-119918000D01*
X114393517Y-119921882D01*
G37*
G36*
X178767517Y-117499882D02*
G01*
X178784062Y-117510938D01*
X178795118Y-117527483D01*
X178799000Y-117547000D01*
X178799000Y-119547000D01*
X178795118Y-119566517D01*
X178784062Y-119583062D01*
X178767517Y-119594118D01*
X178748000Y-119598000D01*
X176748000Y-119598000D01*
X176728483Y-119594118D01*
X176711938Y-119583062D01*
X176700882Y-119566517D01*
X176697000Y-119547000D01*
X176697000Y-117547000D01*
X176700882Y-117527483D01*
X176711938Y-117510938D01*
X176728483Y-117499882D01*
X176748000Y-117496000D01*
X178748000Y-117496000D01*
X178767517Y-117499882D01*
G37*
G36*
X172839498Y-117501061D02*
G01*
X172851016Y-117501061D01*
X172896023Y-117510013D01*
X172993260Y-117525414D01*
X173024536Y-117535576D01*
X173053089Y-117541256D01*
X173093387Y-117557948D01*
X173150052Y-117576360D01*
X173203135Y-117603407D01*
X173243438Y-117620101D01*
X173267647Y-117636277D01*
X173296943Y-117651204D01*
X173376583Y-117709066D01*
X173414747Y-117734566D01*
X173422891Y-117742710D01*
X173430315Y-117748104D01*
X173546895Y-117864684D01*
X173552288Y-117872107D01*
X173560434Y-117880253D01*
X173585936Y-117918420D01*
X173643795Y-117998056D01*
X173658720Y-118027348D01*
X173674899Y-118051562D01*
X173691594Y-118091869D01*
X173718639Y-118144947D01*
X173737048Y-118201604D01*
X173753744Y-118241911D01*
X173759424Y-118270469D01*
X173769585Y-118301739D01*
X173784984Y-118398967D01*
X173793939Y-118443984D01*
X173793939Y-118455502D01*
X173795375Y-118464569D01*
X173795375Y-118629430D01*
X173793939Y-118638496D01*
X173793939Y-118650016D01*
X173784983Y-118695035D01*
X173769585Y-118792260D01*
X173759425Y-118823528D01*
X173753744Y-118852089D01*
X173737047Y-118892398D01*
X173718639Y-118949052D01*
X173691596Y-119002125D01*
X173674899Y-119042438D01*
X173658718Y-119066654D01*
X173643795Y-119095943D01*
X173585945Y-119175566D01*
X173560434Y-119213747D01*
X173552285Y-119221895D01*
X173546895Y-119229315D01*
X173430315Y-119345895D01*
X173422895Y-119351285D01*
X173414747Y-119359434D01*
X173376566Y-119384945D01*
X173296943Y-119442795D01*
X173267654Y-119457718D01*
X173243438Y-119473899D01*
X173203125Y-119490596D01*
X173150052Y-119517639D01*
X173093398Y-119536047D01*
X173053089Y-119552744D01*
X173024528Y-119558425D01*
X172993260Y-119568585D01*
X172896033Y-119583984D01*
X172851016Y-119592939D01*
X172839497Y-119592939D01*
X172830431Y-119594375D01*
X172665569Y-119594375D01*
X172656503Y-119592939D01*
X172644984Y-119592939D01*
X172599967Y-119583984D01*
X172502739Y-119568585D01*
X172471469Y-119558424D01*
X172442911Y-119552744D01*
X172402604Y-119536048D01*
X172345947Y-119517639D01*
X172292869Y-119490594D01*
X172252562Y-119473899D01*
X172228348Y-119457720D01*
X172199056Y-119442795D01*
X172119420Y-119384936D01*
X172081253Y-119359434D01*
X172073107Y-119351288D01*
X172065684Y-119345895D01*
X171949104Y-119229315D01*
X171943710Y-119221891D01*
X171935566Y-119213747D01*
X171910066Y-119175583D01*
X171852204Y-119095943D01*
X171837277Y-119066647D01*
X171821101Y-119042438D01*
X171804407Y-119002135D01*
X171777360Y-118949052D01*
X171758948Y-118892387D01*
X171742256Y-118852089D01*
X171736576Y-118823536D01*
X171726414Y-118792260D01*
X171711014Y-118695026D01*
X171702061Y-118650016D01*
X171702061Y-118638496D01*
X171700625Y-118629430D01*
X171700625Y-118464569D01*
X171702061Y-118455502D01*
X171702061Y-118443984D01*
X171711013Y-118398977D01*
X171726414Y-118301739D01*
X171736576Y-118270461D01*
X171742256Y-118241911D01*
X171758946Y-118201616D01*
X171777360Y-118144947D01*
X171804409Y-118091858D01*
X171821101Y-118051562D01*
X171837275Y-118027355D01*
X171852204Y-117998056D01*
X171910074Y-117918403D01*
X171935566Y-117880253D01*
X171943707Y-117872111D01*
X171949104Y-117864684D01*
X172065684Y-117748104D01*
X172073111Y-117742707D01*
X172081253Y-117734566D01*
X172119403Y-117709074D01*
X172199056Y-117651204D01*
X172228355Y-117636275D01*
X172252562Y-117620101D01*
X172292858Y-117603409D01*
X172345947Y-117576360D01*
X172402616Y-117557946D01*
X172442911Y-117541256D01*
X172471461Y-117535576D01*
X172502739Y-117525414D01*
X172599977Y-117510013D01*
X172644984Y-117501061D01*
X172656502Y-117501061D01*
X172665569Y-117499625D01*
X172830431Y-117499625D01*
X172839498Y-117501061D01*
G37*
G36*
X175339498Y-117501061D02*
G01*
X175351016Y-117501061D01*
X175396023Y-117510013D01*
X175493260Y-117525414D01*
X175524536Y-117535576D01*
X175553089Y-117541256D01*
X175593387Y-117557948D01*
X175650052Y-117576360D01*
X175703135Y-117603407D01*
X175743438Y-117620101D01*
X175767647Y-117636277D01*
X175796943Y-117651204D01*
X175876583Y-117709066D01*
X175914747Y-117734566D01*
X175922891Y-117742710D01*
X175930315Y-117748104D01*
X176046895Y-117864684D01*
X176052288Y-117872107D01*
X176060434Y-117880253D01*
X176085936Y-117918420D01*
X176143795Y-117998056D01*
X176158720Y-118027348D01*
X176174899Y-118051562D01*
X176191594Y-118091869D01*
X176218639Y-118144947D01*
X176237048Y-118201604D01*
X176253744Y-118241911D01*
X176259424Y-118270469D01*
X176269585Y-118301739D01*
X176284984Y-118398967D01*
X176293939Y-118443984D01*
X176293939Y-118455502D01*
X176295375Y-118464569D01*
X176295375Y-118629430D01*
X176293939Y-118638496D01*
X176293939Y-118650016D01*
X176284983Y-118695035D01*
X176269585Y-118792260D01*
X176259425Y-118823528D01*
X176253744Y-118852089D01*
X176237047Y-118892398D01*
X176218639Y-118949052D01*
X176191596Y-119002125D01*
X176174899Y-119042438D01*
X176158718Y-119066654D01*
X176143795Y-119095943D01*
X176085945Y-119175566D01*
X176060434Y-119213747D01*
X176052285Y-119221895D01*
X176046895Y-119229315D01*
X175930315Y-119345895D01*
X175922895Y-119351285D01*
X175914747Y-119359434D01*
X175876566Y-119384945D01*
X175796943Y-119442795D01*
X175767654Y-119457718D01*
X175743438Y-119473899D01*
X175703125Y-119490596D01*
X175650052Y-119517639D01*
X175593398Y-119536047D01*
X175553089Y-119552744D01*
X175524528Y-119558425D01*
X175493260Y-119568585D01*
X175396033Y-119583984D01*
X175351016Y-119592939D01*
X175339497Y-119592939D01*
X175330431Y-119594375D01*
X175165569Y-119594375D01*
X175156503Y-119592939D01*
X175144984Y-119592939D01*
X175099967Y-119583984D01*
X175002739Y-119568585D01*
X174971469Y-119558424D01*
X174942911Y-119552744D01*
X174902604Y-119536048D01*
X174845947Y-119517639D01*
X174792869Y-119490594D01*
X174752562Y-119473899D01*
X174728348Y-119457720D01*
X174699056Y-119442795D01*
X174619420Y-119384936D01*
X174581253Y-119359434D01*
X174573107Y-119351288D01*
X174565684Y-119345895D01*
X174449104Y-119229315D01*
X174443710Y-119221891D01*
X174435566Y-119213747D01*
X174410066Y-119175583D01*
X174352204Y-119095943D01*
X174337277Y-119066647D01*
X174321101Y-119042438D01*
X174304407Y-119002135D01*
X174277360Y-118949052D01*
X174258948Y-118892387D01*
X174242256Y-118852089D01*
X174236576Y-118823536D01*
X174226414Y-118792260D01*
X174211014Y-118695026D01*
X174202061Y-118650016D01*
X174202061Y-118638496D01*
X174200625Y-118629430D01*
X174200625Y-118464569D01*
X174202061Y-118455502D01*
X174202061Y-118443984D01*
X174211013Y-118398977D01*
X174226414Y-118301739D01*
X174236576Y-118270461D01*
X174242256Y-118241911D01*
X174258946Y-118201616D01*
X174277360Y-118144947D01*
X174304409Y-118091858D01*
X174321101Y-118051562D01*
X174337275Y-118027355D01*
X174352204Y-117998056D01*
X174410074Y-117918403D01*
X174435566Y-117880253D01*
X174443707Y-117872111D01*
X174449104Y-117864684D01*
X174565684Y-117748104D01*
X174573111Y-117742707D01*
X174581253Y-117734566D01*
X174619403Y-117709074D01*
X174699056Y-117651204D01*
X174728355Y-117636275D01*
X174752562Y-117620101D01*
X174792858Y-117603409D01*
X174845947Y-117576360D01*
X174902616Y-117557946D01*
X174942911Y-117541256D01*
X174971461Y-117535576D01*
X175002739Y-117525414D01*
X175099977Y-117510013D01*
X175144984Y-117501061D01*
X175156502Y-117501061D01*
X175165569Y-117499625D01*
X175330431Y-117499625D01*
X175339498Y-117501061D01*
G37*
G36*
X126926517Y-114959882D02*
G01*
X126943062Y-114970938D01*
X126954118Y-114987483D01*
X126958000Y-115007000D01*
X126958000Y-117007000D01*
X126954118Y-117026517D01*
X126943062Y-117043062D01*
X126926517Y-117054118D01*
X126907000Y-117058000D01*
X125002000Y-117058000D01*
X124982483Y-117054118D01*
X124965938Y-117043062D01*
X124954882Y-117026517D01*
X124951000Y-117007000D01*
X124951000Y-115007000D01*
X124954882Y-114987483D01*
X124965938Y-114970938D01*
X124982483Y-114959882D01*
X125002000Y-114956000D01*
X126907000Y-114956000D01*
X126926517Y-114959882D01*
G37*
G36*
X138640017Y-114959882D02*
G01*
X138656562Y-114970938D01*
X138667618Y-114987483D01*
X138671500Y-115007000D01*
X138671500Y-117007000D01*
X138667618Y-117026517D01*
X138656562Y-117043062D01*
X138640017Y-117054118D01*
X138620500Y-117058000D01*
X136715500Y-117058000D01*
X136695983Y-117054118D01*
X136679438Y-117043062D01*
X136668382Y-117026517D01*
X136664500Y-117007000D01*
X136664500Y-115007000D01*
X136668382Y-114987483D01*
X136679438Y-114970938D01*
X136695983Y-114959882D01*
X136715500Y-114956000D01*
X138620500Y-114956000D01*
X138640017Y-114959882D01*
G37*
G36*
X150070017Y-114959882D02*
G01*
X150086562Y-114970938D01*
X150097618Y-114987483D01*
X150101500Y-115007000D01*
X150101500Y-117007000D01*
X150097618Y-117026517D01*
X150086562Y-117043062D01*
X150070017Y-117054118D01*
X150050500Y-117058000D01*
X148145500Y-117058000D01*
X148125983Y-117054118D01*
X148109438Y-117043062D01*
X148098382Y-117026517D01*
X148094500Y-117007000D01*
X148094500Y-115007000D01*
X148098382Y-114987483D01*
X148109438Y-114970938D01*
X148125983Y-114959882D01*
X148145500Y-114956000D01*
X150050500Y-114956000D01*
X150070017Y-114959882D01*
G37*
G36*
X161500017Y-114959882D02*
G01*
X161516562Y-114970938D01*
X161527618Y-114987483D01*
X161531500Y-115007000D01*
X161531500Y-117007000D01*
X161527618Y-117026517D01*
X161516562Y-117043062D01*
X161500017Y-117054118D01*
X161480500Y-117058000D01*
X159575500Y-117058000D01*
X159555983Y-117054118D01*
X159539438Y-117043062D01*
X159528382Y-117026517D01*
X159524500Y-117007000D01*
X159524500Y-115007000D01*
X159528382Y-114987483D01*
X159539438Y-114970938D01*
X159555983Y-114959882D01*
X159575500Y-114956000D01*
X161480500Y-114956000D01*
X161500017Y-114959882D01*
G37*
G36*
X120961747Y-114960832D02*
G01*
X120972860Y-114960832D01*
X121016286Y-114969470D01*
X121108672Y-114984102D01*
X121138386Y-114993757D01*
X121165801Y-114999210D01*
X121204489Y-115015235D01*
X121258375Y-115032744D01*
X121308860Y-115058467D01*
X121347547Y-115074492D01*
X121370786Y-115090020D01*
X121398624Y-115104204D01*
X121474290Y-115159179D01*
X121511114Y-115183784D01*
X121518973Y-115191643D01*
X121525966Y-115196724D01*
X121637275Y-115308033D01*
X121642355Y-115315025D01*
X121650216Y-115322886D01*
X121674823Y-115359713D01*
X121729795Y-115435375D01*
X121743977Y-115463210D01*
X121759508Y-115486453D01*
X121775534Y-115525145D01*
X121801255Y-115575624D01*
X121818761Y-115629503D01*
X121834790Y-115668199D01*
X121840244Y-115695618D01*
X121849897Y-115725327D01*
X121864527Y-115817702D01*
X121873168Y-115861140D01*
X121873959Y-115877252D01*
X121874906Y-115883228D01*
X121877516Y-115949649D01*
X121878000Y-115959500D01*
X121878000Y-116054500D01*
X121877515Y-116064354D01*
X121874906Y-116130771D01*
X121873959Y-116136746D01*
X121873168Y-116152860D01*
X121864526Y-116196301D01*
X121849897Y-116288672D01*
X121840244Y-116318378D01*
X121834790Y-116345801D01*
X121818760Y-116384500D01*
X121801255Y-116438375D01*
X121775537Y-116488849D01*
X121759508Y-116527547D01*
X121743975Y-116550792D01*
X121729795Y-116578624D01*
X121674831Y-116654273D01*
X121650216Y-116691114D01*
X121642352Y-116698977D01*
X121637275Y-116705966D01*
X121525966Y-116817275D01*
X121518977Y-116822352D01*
X121511114Y-116830216D01*
X121474273Y-116854831D01*
X121398624Y-116909795D01*
X121370792Y-116923975D01*
X121347547Y-116939508D01*
X121308849Y-116955537D01*
X121258375Y-116981255D01*
X121204500Y-116998760D01*
X121165801Y-117014790D01*
X121138378Y-117020244D01*
X121108672Y-117029897D01*
X121016296Y-117044527D01*
X120972860Y-117053168D01*
X120961746Y-117053168D01*
X120953204Y-117054521D01*
X120795796Y-117054521D01*
X120787254Y-117053168D01*
X120776140Y-117053168D01*
X120732704Y-117044528D01*
X120640327Y-117029897D01*
X120610618Y-117020244D01*
X120583199Y-117014790D01*
X120544503Y-116998761D01*
X120490624Y-116981255D01*
X120440145Y-116955534D01*
X120401453Y-116939508D01*
X120378210Y-116923977D01*
X120350375Y-116909795D01*
X120274713Y-116854823D01*
X120237886Y-116830216D01*
X120230025Y-116822355D01*
X120223033Y-116817275D01*
X120111724Y-116705966D01*
X120106643Y-116698973D01*
X120098784Y-116691114D01*
X120074179Y-116654290D01*
X120019204Y-116578624D01*
X120005020Y-116550786D01*
X119989492Y-116527547D01*
X119973467Y-116488860D01*
X119947744Y-116438375D01*
X119930235Y-116384489D01*
X119914210Y-116345801D01*
X119908757Y-116318386D01*
X119899102Y-116288672D01*
X119884468Y-116196277D01*
X119875832Y-116152860D01*
X119875040Y-116136755D01*
X119874093Y-116130771D01*
X119871483Y-116064338D01*
X119871000Y-116054500D01*
X119871000Y-115959500D01*
X119871483Y-115949665D01*
X119874093Y-115883228D01*
X119875040Y-115877242D01*
X119875832Y-115861140D01*
X119884467Y-115817726D01*
X119899102Y-115725327D01*
X119908757Y-115695610D01*
X119914210Y-115668199D01*
X119930233Y-115629514D01*
X119947744Y-115575624D01*
X119973469Y-115525134D01*
X119989492Y-115486453D01*
X120005018Y-115463216D01*
X120019204Y-115435375D01*
X120074187Y-115359696D01*
X120098784Y-115322886D01*
X120106641Y-115315028D01*
X120111724Y-115308033D01*
X120223033Y-115196724D01*
X120230028Y-115191641D01*
X120237886Y-115183784D01*
X120274696Y-115159187D01*
X120350375Y-115104204D01*
X120378216Y-115090018D01*
X120401453Y-115074492D01*
X120440134Y-115058469D01*
X120490624Y-115032744D01*
X120544514Y-115015233D01*
X120583199Y-114999210D01*
X120610610Y-114993757D01*
X120640327Y-114984102D01*
X120732714Y-114969469D01*
X120776140Y-114960832D01*
X120787253Y-114960832D01*
X120795796Y-114959479D01*
X120953204Y-114959479D01*
X120961747Y-114960832D01*
G37*
G36*
X123501747Y-114960832D02*
G01*
X123512860Y-114960832D01*
X123556286Y-114969470D01*
X123648672Y-114984102D01*
X123678386Y-114993757D01*
X123705801Y-114999210D01*
X123744489Y-115015235D01*
X123798375Y-115032744D01*
X123848860Y-115058467D01*
X123887547Y-115074492D01*
X123910786Y-115090020D01*
X123938624Y-115104204D01*
X124014290Y-115159179D01*
X124051114Y-115183784D01*
X124058973Y-115191643D01*
X124065966Y-115196724D01*
X124177275Y-115308033D01*
X124182355Y-115315025D01*
X124190216Y-115322886D01*
X124214823Y-115359713D01*
X124269795Y-115435375D01*
X124283977Y-115463210D01*
X124299508Y-115486453D01*
X124315534Y-115525145D01*
X124341255Y-115575624D01*
X124358761Y-115629503D01*
X124374790Y-115668199D01*
X124380244Y-115695618D01*
X124389897Y-115725327D01*
X124404527Y-115817702D01*
X124413168Y-115861140D01*
X124413959Y-115877252D01*
X124414906Y-115883228D01*
X124417516Y-115949649D01*
X124418000Y-115959500D01*
X124418000Y-116054500D01*
X124417515Y-116064354D01*
X124414906Y-116130771D01*
X124413959Y-116136746D01*
X124413168Y-116152860D01*
X124404526Y-116196301D01*
X124389897Y-116288672D01*
X124380244Y-116318378D01*
X124374790Y-116345801D01*
X124358760Y-116384500D01*
X124341255Y-116438375D01*
X124315537Y-116488849D01*
X124299508Y-116527547D01*
X124283975Y-116550792D01*
X124269795Y-116578624D01*
X124214831Y-116654273D01*
X124190216Y-116691114D01*
X124182352Y-116698977D01*
X124177275Y-116705966D01*
X124065966Y-116817275D01*
X124058977Y-116822352D01*
X124051114Y-116830216D01*
X124014273Y-116854831D01*
X123938624Y-116909795D01*
X123910792Y-116923975D01*
X123887547Y-116939508D01*
X123848849Y-116955537D01*
X123798375Y-116981255D01*
X123744500Y-116998760D01*
X123705801Y-117014790D01*
X123678378Y-117020244D01*
X123648672Y-117029897D01*
X123556296Y-117044527D01*
X123512860Y-117053168D01*
X123501746Y-117053168D01*
X123493204Y-117054521D01*
X123335796Y-117054521D01*
X123327254Y-117053168D01*
X123316140Y-117053168D01*
X123272704Y-117044528D01*
X123180327Y-117029897D01*
X123150618Y-117020244D01*
X123123199Y-117014790D01*
X123084503Y-116998761D01*
X123030624Y-116981255D01*
X122980145Y-116955534D01*
X122941453Y-116939508D01*
X122918210Y-116923977D01*
X122890375Y-116909795D01*
X122814713Y-116854823D01*
X122777886Y-116830216D01*
X122770025Y-116822355D01*
X122763033Y-116817275D01*
X122651724Y-116705966D01*
X122646643Y-116698973D01*
X122638784Y-116691114D01*
X122614179Y-116654290D01*
X122559204Y-116578624D01*
X122545020Y-116550786D01*
X122529492Y-116527547D01*
X122513467Y-116488860D01*
X122487744Y-116438375D01*
X122470235Y-116384489D01*
X122454210Y-116345801D01*
X122448757Y-116318386D01*
X122439102Y-116288672D01*
X122424468Y-116196277D01*
X122415832Y-116152860D01*
X122415040Y-116136755D01*
X122414093Y-116130771D01*
X122411483Y-116064338D01*
X122411000Y-116054500D01*
X122411000Y-115959500D01*
X122411483Y-115949665D01*
X122414093Y-115883228D01*
X122415040Y-115877242D01*
X122415832Y-115861140D01*
X122424467Y-115817726D01*
X122439102Y-115725327D01*
X122448757Y-115695610D01*
X122454210Y-115668199D01*
X122470233Y-115629514D01*
X122487744Y-115575624D01*
X122513469Y-115525134D01*
X122529492Y-115486453D01*
X122545018Y-115463216D01*
X122559204Y-115435375D01*
X122614187Y-115359696D01*
X122638784Y-115322886D01*
X122646641Y-115315028D01*
X122651724Y-115308033D01*
X122763033Y-115196724D01*
X122770028Y-115191641D01*
X122777886Y-115183784D01*
X122814696Y-115159187D01*
X122890375Y-115104204D01*
X122918216Y-115090018D01*
X122941453Y-115074492D01*
X122980134Y-115058469D01*
X123030624Y-115032744D01*
X123084514Y-115015233D01*
X123123199Y-114999210D01*
X123150610Y-114993757D01*
X123180327Y-114984102D01*
X123272714Y-114969469D01*
X123316140Y-114960832D01*
X123327253Y-114960832D01*
X123335796Y-114959479D01*
X123493204Y-114959479D01*
X123501747Y-114960832D01*
G37*
G36*
X132675247Y-114960832D02*
G01*
X132686360Y-114960832D01*
X132729786Y-114969470D01*
X132822172Y-114984102D01*
X132851886Y-114993757D01*
X132879301Y-114999210D01*
X132917989Y-115015235D01*
X132971875Y-115032744D01*
X133022360Y-115058467D01*
X133061047Y-115074492D01*
X133084286Y-115090020D01*
X133112124Y-115104204D01*
X133187790Y-115159179D01*
X133224614Y-115183784D01*
X133232473Y-115191643D01*
X133239466Y-115196724D01*
X133350775Y-115308033D01*
X133355855Y-115315025D01*
X133363716Y-115322886D01*
X133388323Y-115359713D01*
X133443295Y-115435375D01*
X133457477Y-115463210D01*
X133473008Y-115486453D01*
X133489034Y-115525145D01*
X133514755Y-115575624D01*
X133532261Y-115629503D01*
X133548290Y-115668199D01*
X133553744Y-115695618D01*
X133563397Y-115725327D01*
X133578027Y-115817702D01*
X133586668Y-115861140D01*
X133587459Y-115877252D01*
X133588406Y-115883228D01*
X133591016Y-115949649D01*
X133591500Y-115959500D01*
X133591500Y-116054500D01*
X133591015Y-116064354D01*
X133588406Y-116130771D01*
X133587459Y-116136746D01*
X133586668Y-116152860D01*
X133578026Y-116196301D01*
X133563397Y-116288672D01*
X133553744Y-116318378D01*
X133548290Y-116345801D01*
X133532260Y-116384500D01*
X133514755Y-116438375D01*
X133489037Y-116488849D01*
X133473008Y-116527547D01*
X133457475Y-116550792D01*
X133443295Y-116578624D01*
X133388331Y-116654273D01*
X133363716Y-116691114D01*
X133355852Y-116698977D01*
X133350775Y-116705966D01*
X133239466Y-116817275D01*
X133232477Y-116822352D01*
X133224614Y-116830216D01*
X133187773Y-116854831D01*
X133112124Y-116909795D01*
X133084292Y-116923975D01*
X133061047Y-116939508D01*
X133022349Y-116955537D01*
X132971875Y-116981255D01*
X132918000Y-116998760D01*
X132879301Y-117014790D01*
X132851878Y-117020244D01*
X132822172Y-117029897D01*
X132729796Y-117044527D01*
X132686360Y-117053168D01*
X132675246Y-117053168D01*
X132666704Y-117054521D01*
X132509296Y-117054521D01*
X132500754Y-117053168D01*
X132489640Y-117053168D01*
X132446204Y-117044528D01*
X132353827Y-117029897D01*
X132324118Y-117020244D01*
X132296699Y-117014790D01*
X132258003Y-116998761D01*
X132204124Y-116981255D01*
X132153645Y-116955534D01*
X132114953Y-116939508D01*
X132091710Y-116923977D01*
X132063875Y-116909795D01*
X131988213Y-116854823D01*
X131951386Y-116830216D01*
X131943525Y-116822355D01*
X131936533Y-116817275D01*
X131825224Y-116705966D01*
X131820143Y-116698973D01*
X131812284Y-116691114D01*
X131787679Y-116654290D01*
X131732704Y-116578624D01*
X131718520Y-116550786D01*
X131702992Y-116527547D01*
X131686967Y-116488860D01*
X131661244Y-116438375D01*
X131643735Y-116384489D01*
X131627710Y-116345801D01*
X131622257Y-116318386D01*
X131612602Y-116288672D01*
X131597968Y-116196277D01*
X131589332Y-116152860D01*
X131588540Y-116136755D01*
X131587593Y-116130771D01*
X131584983Y-116064338D01*
X131584500Y-116054500D01*
X131584500Y-115959500D01*
X131584983Y-115949665D01*
X131587593Y-115883228D01*
X131588540Y-115877242D01*
X131589332Y-115861140D01*
X131597967Y-115817726D01*
X131612602Y-115725327D01*
X131622257Y-115695610D01*
X131627710Y-115668199D01*
X131643733Y-115629514D01*
X131661244Y-115575624D01*
X131686969Y-115525134D01*
X131702992Y-115486453D01*
X131718518Y-115463216D01*
X131732704Y-115435375D01*
X131787687Y-115359696D01*
X131812284Y-115322886D01*
X131820141Y-115315028D01*
X131825224Y-115308033D01*
X131936533Y-115196724D01*
X131943528Y-115191641D01*
X131951386Y-115183784D01*
X131988196Y-115159187D01*
X132063875Y-115104204D01*
X132091716Y-115090018D01*
X132114953Y-115074492D01*
X132153634Y-115058469D01*
X132204124Y-115032744D01*
X132258014Y-115015233D01*
X132296699Y-114999210D01*
X132324110Y-114993757D01*
X132353827Y-114984102D01*
X132446214Y-114969469D01*
X132489640Y-114960832D01*
X132500753Y-114960832D01*
X132509296Y-114959479D01*
X132666704Y-114959479D01*
X132675247Y-114960832D01*
G37*
G36*
X135215247Y-114960832D02*
G01*
X135226360Y-114960832D01*
X135269786Y-114969470D01*
X135362172Y-114984102D01*
X135391886Y-114993757D01*
X135419301Y-114999210D01*
X135457989Y-115015235D01*
X135511875Y-115032744D01*
X135562360Y-115058467D01*
X135601047Y-115074492D01*
X135624286Y-115090020D01*
X135652124Y-115104204D01*
X135727790Y-115159179D01*
X135764614Y-115183784D01*
X135772473Y-115191643D01*
X135779466Y-115196724D01*
X135890775Y-115308033D01*
X135895855Y-115315025D01*
X135903716Y-115322886D01*
X135928323Y-115359713D01*
X135983295Y-115435375D01*
X135997477Y-115463210D01*
X136013008Y-115486453D01*
X136029034Y-115525145D01*
X136054755Y-115575624D01*
X136072261Y-115629503D01*
X136088290Y-115668199D01*
X136093744Y-115695618D01*
X136103397Y-115725327D01*
X136118027Y-115817702D01*
X136126668Y-115861140D01*
X136127459Y-115877252D01*
X136128406Y-115883228D01*
X136131016Y-115949649D01*
X136131500Y-115959500D01*
X136131500Y-116054500D01*
X136131015Y-116064354D01*
X136128406Y-116130771D01*
X136127459Y-116136746D01*
X136126668Y-116152860D01*
X136118026Y-116196301D01*
X136103397Y-116288672D01*
X136093744Y-116318378D01*
X136088290Y-116345801D01*
X136072260Y-116384500D01*
X136054755Y-116438375D01*
X136029037Y-116488849D01*
X136013008Y-116527547D01*
X135997475Y-116550792D01*
X135983295Y-116578624D01*
X135928331Y-116654273D01*
X135903716Y-116691114D01*
X135895852Y-116698977D01*
X135890775Y-116705966D01*
X135779466Y-116817275D01*
X135772477Y-116822352D01*
X135764614Y-116830216D01*
X135727773Y-116854831D01*
X135652124Y-116909795D01*
X135624292Y-116923975D01*
X135601047Y-116939508D01*
X135562349Y-116955537D01*
X135511875Y-116981255D01*
X135458000Y-116998760D01*
X135419301Y-117014790D01*
X135391878Y-117020244D01*
X135362172Y-117029897D01*
X135269796Y-117044527D01*
X135226360Y-117053168D01*
X135215246Y-117053168D01*
X135206704Y-117054521D01*
X135049296Y-117054521D01*
X135040754Y-117053168D01*
X135029640Y-117053168D01*
X134986204Y-117044528D01*
X134893827Y-117029897D01*
X134864118Y-117020244D01*
X134836699Y-117014790D01*
X134798003Y-116998761D01*
X134744124Y-116981255D01*
X134693645Y-116955534D01*
X134654953Y-116939508D01*
X134631710Y-116923977D01*
X134603875Y-116909795D01*
X134528213Y-116854823D01*
X134491386Y-116830216D01*
X134483525Y-116822355D01*
X134476533Y-116817275D01*
X134365224Y-116705966D01*
X134360143Y-116698973D01*
X134352284Y-116691114D01*
X134327679Y-116654290D01*
X134272704Y-116578624D01*
X134258520Y-116550786D01*
X134242992Y-116527547D01*
X134226967Y-116488860D01*
X134201244Y-116438375D01*
X134183735Y-116384489D01*
X134167710Y-116345801D01*
X134162257Y-116318386D01*
X134152602Y-116288672D01*
X134137968Y-116196277D01*
X134129332Y-116152860D01*
X134128540Y-116136755D01*
X134127593Y-116130771D01*
X134124983Y-116064338D01*
X134124500Y-116054500D01*
X134124500Y-115959500D01*
X134124983Y-115949665D01*
X134127593Y-115883228D01*
X134128540Y-115877242D01*
X134129332Y-115861140D01*
X134137967Y-115817726D01*
X134152602Y-115725327D01*
X134162257Y-115695610D01*
X134167710Y-115668199D01*
X134183733Y-115629514D01*
X134201244Y-115575624D01*
X134226969Y-115525134D01*
X134242992Y-115486453D01*
X134258518Y-115463216D01*
X134272704Y-115435375D01*
X134327687Y-115359696D01*
X134352284Y-115322886D01*
X134360141Y-115315028D01*
X134365224Y-115308033D01*
X134476533Y-115196724D01*
X134483528Y-115191641D01*
X134491386Y-115183784D01*
X134528196Y-115159187D01*
X134603875Y-115104204D01*
X134631716Y-115090018D01*
X134654953Y-115074492D01*
X134693634Y-115058469D01*
X134744124Y-115032744D01*
X134798014Y-115015233D01*
X134836699Y-114999210D01*
X134864110Y-114993757D01*
X134893827Y-114984102D01*
X134986214Y-114969469D01*
X135029640Y-114960832D01*
X135040753Y-114960832D01*
X135049296Y-114959479D01*
X135206704Y-114959479D01*
X135215247Y-114960832D01*
G37*
G36*
X144105247Y-114960832D02*
G01*
X144116360Y-114960832D01*
X144159786Y-114969470D01*
X144252172Y-114984102D01*
X144281886Y-114993757D01*
X144309301Y-114999210D01*
X144347989Y-115015235D01*
X144401875Y-115032744D01*
X144452360Y-115058467D01*
X144491047Y-115074492D01*
X144514286Y-115090020D01*
X144542124Y-115104204D01*
X144617790Y-115159179D01*
X144654614Y-115183784D01*
X144662473Y-115191643D01*
X144669466Y-115196724D01*
X144780775Y-115308033D01*
X144785855Y-115315025D01*
X144793716Y-115322886D01*
X144818323Y-115359713D01*
X144873295Y-115435375D01*
X144887477Y-115463210D01*
X144903008Y-115486453D01*
X144919034Y-115525145D01*
X144944755Y-115575624D01*
X144962261Y-115629503D01*
X144978290Y-115668199D01*
X144983744Y-115695618D01*
X144993397Y-115725327D01*
X145008027Y-115817702D01*
X145016668Y-115861140D01*
X145017459Y-115877252D01*
X145018406Y-115883228D01*
X145021016Y-115949649D01*
X145021500Y-115959500D01*
X145021500Y-116054500D01*
X145021015Y-116064354D01*
X145018406Y-116130771D01*
X145017459Y-116136746D01*
X145016668Y-116152860D01*
X145008026Y-116196301D01*
X144993397Y-116288672D01*
X144983744Y-116318378D01*
X144978290Y-116345801D01*
X144962260Y-116384500D01*
X144944755Y-116438375D01*
X144919037Y-116488849D01*
X144903008Y-116527547D01*
X144887475Y-116550792D01*
X144873295Y-116578624D01*
X144818331Y-116654273D01*
X144793716Y-116691114D01*
X144785852Y-116698977D01*
X144780775Y-116705966D01*
X144669466Y-116817275D01*
X144662477Y-116822352D01*
X144654614Y-116830216D01*
X144617773Y-116854831D01*
X144542124Y-116909795D01*
X144514292Y-116923975D01*
X144491047Y-116939508D01*
X144452349Y-116955537D01*
X144401875Y-116981255D01*
X144348000Y-116998760D01*
X144309301Y-117014790D01*
X144281878Y-117020244D01*
X144252172Y-117029897D01*
X144159796Y-117044527D01*
X144116360Y-117053168D01*
X144105246Y-117053168D01*
X144096704Y-117054521D01*
X143939296Y-117054521D01*
X143930754Y-117053168D01*
X143919640Y-117053168D01*
X143876204Y-117044528D01*
X143783827Y-117029897D01*
X143754118Y-117020244D01*
X143726699Y-117014790D01*
X143688003Y-116998761D01*
X143634124Y-116981255D01*
X143583645Y-116955534D01*
X143544953Y-116939508D01*
X143521710Y-116923977D01*
X143493875Y-116909795D01*
X143418213Y-116854823D01*
X143381386Y-116830216D01*
X143373525Y-116822355D01*
X143366533Y-116817275D01*
X143255224Y-116705966D01*
X143250143Y-116698973D01*
X143242284Y-116691114D01*
X143217679Y-116654290D01*
X143162704Y-116578624D01*
X143148520Y-116550786D01*
X143132992Y-116527547D01*
X143116967Y-116488860D01*
X143091244Y-116438375D01*
X143073735Y-116384489D01*
X143057710Y-116345801D01*
X143052257Y-116318386D01*
X143042602Y-116288672D01*
X143027968Y-116196277D01*
X143019332Y-116152860D01*
X143018540Y-116136755D01*
X143017593Y-116130771D01*
X143014983Y-116064338D01*
X143014500Y-116054500D01*
X143014500Y-115959500D01*
X143014983Y-115949665D01*
X143017593Y-115883228D01*
X143018540Y-115877242D01*
X143019332Y-115861140D01*
X143027967Y-115817726D01*
X143042602Y-115725327D01*
X143052257Y-115695610D01*
X143057710Y-115668199D01*
X143073733Y-115629514D01*
X143091244Y-115575624D01*
X143116969Y-115525134D01*
X143132992Y-115486453D01*
X143148518Y-115463216D01*
X143162704Y-115435375D01*
X143217687Y-115359696D01*
X143242284Y-115322886D01*
X143250141Y-115315028D01*
X143255224Y-115308033D01*
X143366533Y-115196724D01*
X143373528Y-115191641D01*
X143381386Y-115183784D01*
X143418196Y-115159187D01*
X143493875Y-115104204D01*
X143521716Y-115090018D01*
X143544953Y-115074492D01*
X143583634Y-115058469D01*
X143634124Y-115032744D01*
X143688014Y-115015233D01*
X143726699Y-114999210D01*
X143754110Y-114993757D01*
X143783827Y-114984102D01*
X143876214Y-114969469D01*
X143919640Y-114960832D01*
X143930753Y-114960832D01*
X143939296Y-114959479D01*
X144096704Y-114959479D01*
X144105247Y-114960832D01*
G37*
G36*
X146645247Y-114960832D02*
G01*
X146656360Y-114960832D01*
X146699786Y-114969470D01*
X146792172Y-114984102D01*
X146821886Y-114993757D01*
X146849301Y-114999210D01*
X146887989Y-115015235D01*
X146941875Y-115032744D01*
X146992360Y-115058467D01*
X147031047Y-115074492D01*
X147054286Y-115090020D01*
X147082124Y-115104204D01*
X147157790Y-115159179D01*
X147194614Y-115183784D01*
X147202473Y-115191643D01*
X147209466Y-115196724D01*
X147320775Y-115308033D01*
X147325855Y-115315025D01*
X147333716Y-115322886D01*
X147358323Y-115359713D01*
X147413295Y-115435375D01*
X147427477Y-115463210D01*
X147443008Y-115486453D01*
X147459034Y-115525145D01*
X147484755Y-115575624D01*
X147502261Y-115629503D01*
X147518290Y-115668199D01*
X147523744Y-115695618D01*
X147533397Y-115725327D01*
X147548027Y-115817702D01*
X147556668Y-115861140D01*
X147557459Y-115877252D01*
X147558406Y-115883228D01*
X147561016Y-115949649D01*
X147561500Y-115959500D01*
X147561500Y-116054500D01*
X147561015Y-116064354D01*
X147558406Y-116130771D01*
X147557459Y-116136746D01*
X147556668Y-116152860D01*
X147548026Y-116196301D01*
X147533397Y-116288672D01*
X147523744Y-116318378D01*
X147518290Y-116345801D01*
X147502260Y-116384500D01*
X147484755Y-116438375D01*
X147459037Y-116488849D01*
X147443008Y-116527547D01*
X147427475Y-116550792D01*
X147413295Y-116578624D01*
X147358331Y-116654273D01*
X147333716Y-116691114D01*
X147325852Y-116698977D01*
X147320775Y-116705966D01*
X147209466Y-116817275D01*
X147202477Y-116822352D01*
X147194614Y-116830216D01*
X147157773Y-116854831D01*
X147082124Y-116909795D01*
X147054292Y-116923975D01*
X147031047Y-116939508D01*
X146992349Y-116955537D01*
X146941875Y-116981255D01*
X146888000Y-116998760D01*
X146849301Y-117014790D01*
X146821878Y-117020244D01*
X146792172Y-117029897D01*
X146699796Y-117044527D01*
X146656360Y-117053168D01*
X146645246Y-117053168D01*
X146636704Y-117054521D01*
X146479296Y-117054521D01*
X146470754Y-117053168D01*
X146459640Y-117053168D01*
X146416204Y-117044528D01*
X146323827Y-117029897D01*
X146294118Y-117020244D01*
X146266699Y-117014790D01*
X146228003Y-116998761D01*
X146174124Y-116981255D01*
X146123645Y-116955534D01*
X146084953Y-116939508D01*
X146061710Y-116923977D01*
X146033875Y-116909795D01*
X145958213Y-116854823D01*
X145921386Y-116830216D01*
X145913525Y-116822355D01*
X145906533Y-116817275D01*
X145795224Y-116705966D01*
X145790143Y-116698973D01*
X145782284Y-116691114D01*
X145757679Y-116654290D01*
X145702704Y-116578624D01*
X145688520Y-116550786D01*
X145672992Y-116527547D01*
X145656967Y-116488860D01*
X145631244Y-116438375D01*
X145613735Y-116384489D01*
X145597710Y-116345801D01*
X145592257Y-116318386D01*
X145582602Y-116288672D01*
X145567968Y-116196277D01*
X145559332Y-116152860D01*
X145558540Y-116136755D01*
X145557593Y-116130771D01*
X145554983Y-116064338D01*
X145554500Y-116054500D01*
X145554500Y-115959500D01*
X145554983Y-115949665D01*
X145557593Y-115883228D01*
X145558540Y-115877242D01*
X145559332Y-115861140D01*
X145567967Y-115817726D01*
X145582602Y-115725327D01*
X145592257Y-115695610D01*
X145597710Y-115668199D01*
X145613733Y-115629514D01*
X145631244Y-115575624D01*
X145656969Y-115525134D01*
X145672992Y-115486453D01*
X145688518Y-115463216D01*
X145702704Y-115435375D01*
X145757687Y-115359696D01*
X145782284Y-115322886D01*
X145790141Y-115315028D01*
X145795224Y-115308033D01*
X145906533Y-115196724D01*
X145913528Y-115191641D01*
X145921386Y-115183784D01*
X145958196Y-115159187D01*
X146033875Y-115104204D01*
X146061716Y-115090018D01*
X146084953Y-115074492D01*
X146123634Y-115058469D01*
X146174124Y-115032744D01*
X146228014Y-115015233D01*
X146266699Y-114999210D01*
X146294110Y-114993757D01*
X146323827Y-114984102D01*
X146416214Y-114969469D01*
X146459640Y-114960832D01*
X146470753Y-114960832D01*
X146479296Y-114959479D01*
X146636704Y-114959479D01*
X146645247Y-114960832D01*
G37*
G36*
X155535247Y-114960832D02*
G01*
X155546360Y-114960832D01*
X155589786Y-114969470D01*
X155682172Y-114984102D01*
X155711886Y-114993757D01*
X155739301Y-114999210D01*
X155777989Y-115015235D01*
X155831875Y-115032744D01*
X155882360Y-115058467D01*
X155921047Y-115074492D01*
X155944286Y-115090020D01*
X155972124Y-115104204D01*
X156047790Y-115159179D01*
X156084614Y-115183784D01*
X156092473Y-115191643D01*
X156099466Y-115196724D01*
X156210775Y-115308033D01*
X156215855Y-115315025D01*
X156223716Y-115322886D01*
X156248323Y-115359713D01*
X156303295Y-115435375D01*
X156317477Y-115463210D01*
X156333008Y-115486453D01*
X156349034Y-115525145D01*
X156374755Y-115575624D01*
X156392261Y-115629503D01*
X156408290Y-115668199D01*
X156413744Y-115695618D01*
X156423397Y-115725327D01*
X156438027Y-115817702D01*
X156446668Y-115861140D01*
X156447459Y-115877252D01*
X156448406Y-115883228D01*
X156451016Y-115949649D01*
X156451500Y-115959500D01*
X156451500Y-116054500D01*
X156451015Y-116064354D01*
X156448406Y-116130771D01*
X156447459Y-116136746D01*
X156446668Y-116152860D01*
X156438026Y-116196301D01*
X156423397Y-116288672D01*
X156413744Y-116318378D01*
X156408290Y-116345801D01*
X156392260Y-116384500D01*
X156374755Y-116438375D01*
X156349037Y-116488849D01*
X156333008Y-116527547D01*
X156317475Y-116550792D01*
X156303295Y-116578624D01*
X156248331Y-116654273D01*
X156223716Y-116691114D01*
X156215852Y-116698977D01*
X156210775Y-116705966D01*
X156099466Y-116817275D01*
X156092477Y-116822352D01*
X156084614Y-116830216D01*
X156047773Y-116854831D01*
X155972124Y-116909795D01*
X155944292Y-116923975D01*
X155921047Y-116939508D01*
X155882349Y-116955537D01*
X155831875Y-116981255D01*
X155778000Y-116998760D01*
X155739301Y-117014790D01*
X155711878Y-117020244D01*
X155682172Y-117029897D01*
X155589796Y-117044527D01*
X155546360Y-117053168D01*
X155535246Y-117053168D01*
X155526704Y-117054521D01*
X155369296Y-117054521D01*
X155360754Y-117053168D01*
X155349640Y-117053168D01*
X155306204Y-117044528D01*
X155213827Y-117029897D01*
X155184118Y-117020244D01*
X155156699Y-117014790D01*
X155118003Y-116998761D01*
X155064124Y-116981255D01*
X155013645Y-116955534D01*
X154974953Y-116939508D01*
X154951710Y-116923977D01*
X154923875Y-116909795D01*
X154848213Y-116854823D01*
X154811386Y-116830216D01*
X154803525Y-116822355D01*
X154796533Y-116817275D01*
X154685224Y-116705966D01*
X154680143Y-116698973D01*
X154672284Y-116691114D01*
X154647679Y-116654290D01*
X154592704Y-116578624D01*
X154578520Y-116550786D01*
X154562992Y-116527547D01*
X154546967Y-116488860D01*
X154521244Y-116438375D01*
X154503735Y-116384489D01*
X154487710Y-116345801D01*
X154482257Y-116318386D01*
X154472602Y-116288672D01*
X154457968Y-116196277D01*
X154449332Y-116152860D01*
X154448540Y-116136755D01*
X154447593Y-116130771D01*
X154444983Y-116064338D01*
X154444500Y-116054500D01*
X154444500Y-115959500D01*
X154444983Y-115949665D01*
X154447593Y-115883228D01*
X154448540Y-115877242D01*
X154449332Y-115861140D01*
X154457967Y-115817726D01*
X154472602Y-115725327D01*
X154482257Y-115695610D01*
X154487710Y-115668199D01*
X154503733Y-115629514D01*
X154521244Y-115575624D01*
X154546969Y-115525134D01*
X154562992Y-115486453D01*
X154578518Y-115463216D01*
X154592704Y-115435375D01*
X154647687Y-115359696D01*
X154672284Y-115322886D01*
X154680141Y-115315028D01*
X154685224Y-115308033D01*
X154796533Y-115196724D01*
X154803528Y-115191641D01*
X154811386Y-115183784D01*
X154848196Y-115159187D01*
X154923875Y-115104204D01*
X154951716Y-115090018D01*
X154974953Y-115074492D01*
X155013634Y-115058469D01*
X155064124Y-115032744D01*
X155118014Y-115015233D01*
X155156699Y-114999210D01*
X155184110Y-114993757D01*
X155213827Y-114984102D01*
X155306214Y-114969469D01*
X155349640Y-114960832D01*
X155360753Y-114960832D01*
X155369296Y-114959479D01*
X155526704Y-114959479D01*
X155535247Y-114960832D01*
G37*
G36*
X158075247Y-114960832D02*
G01*
X158086360Y-114960832D01*
X158129786Y-114969470D01*
X158222172Y-114984102D01*
X158251886Y-114993757D01*
X158279301Y-114999210D01*
X158317989Y-115015235D01*
X158371875Y-115032744D01*
X158422360Y-115058467D01*
X158461047Y-115074492D01*
X158484286Y-115090020D01*
X158512124Y-115104204D01*
X158587790Y-115159179D01*
X158624614Y-115183784D01*
X158632473Y-115191643D01*
X158639466Y-115196724D01*
X158750775Y-115308033D01*
X158755855Y-115315025D01*
X158763716Y-115322886D01*
X158788323Y-115359713D01*
X158843295Y-115435375D01*
X158857477Y-115463210D01*
X158873008Y-115486453D01*
X158889034Y-115525145D01*
X158914755Y-115575624D01*
X158932261Y-115629503D01*
X158948290Y-115668199D01*
X158953744Y-115695618D01*
X158963397Y-115725327D01*
X158978027Y-115817702D01*
X158986668Y-115861140D01*
X158987459Y-115877252D01*
X158988406Y-115883228D01*
X158991016Y-115949649D01*
X158991500Y-115959500D01*
X158991500Y-116054500D01*
X158991015Y-116064354D01*
X158988406Y-116130771D01*
X158987459Y-116136746D01*
X158986668Y-116152860D01*
X158978026Y-116196301D01*
X158963397Y-116288672D01*
X158953744Y-116318378D01*
X158948290Y-116345801D01*
X158932260Y-116384500D01*
X158914755Y-116438375D01*
X158889037Y-116488849D01*
X158873008Y-116527547D01*
X158857475Y-116550792D01*
X158843295Y-116578624D01*
X158788331Y-116654273D01*
X158763716Y-116691114D01*
X158755852Y-116698977D01*
X158750775Y-116705966D01*
X158639466Y-116817275D01*
X158632477Y-116822352D01*
X158624614Y-116830216D01*
X158587773Y-116854831D01*
X158512124Y-116909795D01*
X158484292Y-116923975D01*
X158461047Y-116939508D01*
X158422349Y-116955537D01*
X158371875Y-116981255D01*
X158318000Y-116998760D01*
X158279301Y-117014790D01*
X158251878Y-117020244D01*
X158222172Y-117029897D01*
X158129796Y-117044527D01*
X158086360Y-117053168D01*
X158075246Y-117053168D01*
X158066704Y-117054521D01*
X157909296Y-117054521D01*
X157900754Y-117053168D01*
X157889640Y-117053168D01*
X157846204Y-117044528D01*
X157753827Y-117029897D01*
X157724118Y-117020244D01*
X157696699Y-117014790D01*
X157658003Y-116998761D01*
X157604124Y-116981255D01*
X157553645Y-116955534D01*
X157514953Y-116939508D01*
X157491710Y-116923977D01*
X157463875Y-116909795D01*
X157388213Y-116854823D01*
X157351386Y-116830216D01*
X157343525Y-116822355D01*
X157336533Y-116817275D01*
X157225224Y-116705966D01*
X157220143Y-116698973D01*
X157212284Y-116691114D01*
X157187679Y-116654290D01*
X157132704Y-116578624D01*
X157118520Y-116550786D01*
X157102992Y-116527547D01*
X157086967Y-116488860D01*
X157061244Y-116438375D01*
X157043735Y-116384489D01*
X157027710Y-116345801D01*
X157022257Y-116318386D01*
X157012602Y-116288672D01*
X156997968Y-116196277D01*
X156989332Y-116152860D01*
X156988540Y-116136755D01*
X156987593Y-116130771D01*
X156984983Y-116064338D01*
X156984500Y-116054500D01*
X156984500Y-115959500D01*
X156984983Y-115949665D01*
X156987593Y-115883228D01*
X156988540Y-115877242D01*
X156989332Y-115861140D01*
X156997967Y-115817726D01*
X157012602Y-115725327D01*
X157022257Y-115695610D01*
X157027710Y-115668199D01*
X157043733Y-115629514D01*
X157061244Y-115575624D01*
X157086969Y-115525134D01*
X157102992Y-115486453D01*
X157118518Y-115463216D01*
X157132704Y-115435375D01*
X157187687Y-115359696D01*
X157212284Y-115322886D01*
X157220141Y-115315028D01*
X157225224Y-115308033D01*
X157336533Y-115196724D01*
X157343528Y-115191641D01*
X157351386Y-115183784D01*
X157388196Y-115159187D01*
X157463875Y-115104204D01*
X157491716Y-115090018D01*
X157514953Y-115074492D01*
X157553634Y-115058469D01*
X157604124Y-115032744D01*
X157658014Y-115015233D01*
X157696699Y-114999210D01*
X157724110Y-114993757D01*
X157753827Y-114984102D01*
X157846214Y-114969469D01*
X157889640Y-114960832D01*
X157900753Y-114960832D01*
X157909296Y-114959479D01*
X158066704Y-114959479D01*
X158075247Y-114960832D01*
G37*
G36*
X181071021Y-106579187D02*
G01*
X181383929Y-106641428D01*
X181689229Y-106734040D01*
X181983982Y-106856131D01*
X182265348Y-107006524D01*
X182530618Y-107183772D01*
X182777238Y-107386168D01*
X183002832Y-107611762D01*
X183205228Y-107858382D01*
X183382476Y-108123652D01*
X183532869Y-108405018D01*
X183654960Y-108699771D01*
X183747572Y-109005071D01*
X183809813Y-109317979D01*
X183841084Y-109635481D01*
X183841084Y-109954519D01*
X183809813Y-110272021D01*
X183747572Y-110584929D01*
X183654960Y-110890229D01*
X183532869Y-111184982D01*
X183382476Y-111466348D01*
X183205228Y-111731618D01*
X183002832Y-111978238D01*
X182777238Y-112203832D01*
X182530618Y-112406228D01*
X182265348Y-112583476D01*
X181983982Y-112733869D01*
X181689229Y-112855960D01*
X181383929Y-112948572D01*
X181071021Y-113010813D01*
X180753519Y-113042084D01*
X180434481Y-113042084D01*
X180116979Y-113010813D01*
X179804071Y-112948572D01*
X179498771Y-112855960D01*
X179204018Y-112733869D01*
X178922652Y-112583476D01*
X178657382Y-112406228D01*
X178410762Y-112203832D01*
X178185168Y-111978238D01*
X177982772Y-111731618D01*
X177805524Y-111466348D01*
X177655131Y-111184982D01*
X177533040Y-110890229D01*
X177440428Y-110584929D01*
X177378187Y-110272021D01*
X177346916Y-109954519D01*
X177346916Y-109635481D01*
X177378187Y-109317979D01*
X177440428Y-109005071D01*
X177533040Y-108699771D01*
X177655131Y-108405018D01*
X177805524Y-108123652D01*
X177982772Y-107858382D01*
X178185168Y-107611762D01*
X178410762Y-107386168D01*
X178657382Y-107183772D01*
X178922652Y-107006524D01*
X179204018Y-106856131D01*
X179498771Y-106734040D01*
X179804071Y-106641428D01*
X180116979Y-106579187D01*
X180434481Y-106547916D01*
X180753519Y-106547916D01*
X181071021Y-106579187D01*
G37*
G36*
X179791313Y-94420339D02*
G01*
X179964546Y-94454797D01*
X180127728Y-94522389D01*
X180274588Y-94620518D01*
X180399482Y-94745412D01*
X180497611Y-94892272D01*
X180565203Y-95055454D01*
X180599661Y-95228687D01*
X180599661Y-95405313D01*
X180565203Y-95578546D01*
X180497611Y-95741728D01*
X180399482Y-95888588D01*
X180274588Y-96013482D01*
X180127728Y-96111611D01*
X179964546Y-96179203D01*
X179791313Y-96213661D01*
X179703000Y-96218000D01*
X179699941Y-96218000D01*
X179456059Y-96218000D01*
X179453000Y-96218000D01*
X179364687Y-96213661D01*
X179191454Y-96179203D01*
X179028272Y-96111611D01*
X178881412Y-96013482D01*
X178756518Y-95888588D01*
X178658389Y-95741728D01*
X178590797Y-95578546D01*
X178556339Y-95405313D01*
X178556339Y-95228687D01*
X178590797Y-95055454D01*
X178658389Y-94892272D01*
X178756518Y-94745412D01*
X178881412Y-94620518D01*
X179028272Y-94522389D01*
X179191454Y-94454797D01*
X179364687Y-94420339D01*
X179453000Y-94416000D01*
X179703000Y-94416000D01*
X179791313Y-94420339D01*
G37*
G36*
X179791313Y-91920339D02*
G01*
X179964546Y-91954797D01*
X180127728Y-92022389D01*
X180274588Y-92120518D01*
X180399482Y-92245412D01*
X180497611Y-92392272D01*
X180565203Y-92555454D01*
X180599661Y-92728687D01*
X180599661Y-92905313D01*
X180565203Y-93078546D01*
X180497611Y-93241728D01*
X180399482Y-93388588D01*
X180274588Y-93513482D01*
X180127728Y-93611611D01*
X179964546Y-93679203D01*
X179791313Y-93713661D01*
X179703000Y-93718000D01*
X179699941Y-93718000D01*
X179456059Y-93718000D01*
X179453000Y-93718000D01*
X179364687Y-93713661D01*
X179191454Y-93679203D01*
X179028272Y-93611611D01*
X178881412Y-93513482D01*
X178756518Y-93388588D01*
X178658389Y-93241728D01*
X178590797Y-93078546D01*
X178556339Y-92905313D01*
X178556339Y-92728687D01*
X178590797Y-92555454D01*
X178658389Y-92392272D01*
X178756518Y-92245412D01*
X178881412Y-92120518D01*
X179028272Y-92022389D01*
X179191454Y-91954797D01*
X179364687Y-91920339D01*
X179453000Y-91916000D01*
X179703000Y-91916000D01*
X179791313Y-91920339D01*
G37*
G36*
X180371914Y-89423995D02*
G01*
X180387726Y-89430976D01*
X180395531Y-89432213D01*
X180428039Y-89448776D01*
X180473106Y-89468676D01*
X180551324Y-89546894D01*
X180571226Y-89591967D01*
X180587786Y-89624468D01*
X180589021Y-89632270D01*
X180596005Y-89648086D01*
X180604000Y-89717000D01*
X180604000Y-90917000D01*
X180596005Y-90985914D01*
X180589021Y-91001729D01*
X180587786Y-91009531D01*
X180571229Y-91042024D01*
X180551324Y-91087106D01*
X180473106Y-91165324D01*
X180428024Y-91185229D01*
X180395531Y-91201786D01*
X180387729Y-91203021D01*
X180371914Y-91210005D01*
X180303000Y-91218000D01*
X178853000Y-91218000D01*
X178784086Y-91210005D01*
X178768270Y-91203021D01*
X178760468Y-91201786D01*
X178727967Y-91185226D01*
X178682894Y-91165324D01*
X178604676Y-91087106D01*
X178584776Y-91042039D01*
X178568213Y-91009531D01*
X178566976Y-91001726D01*
X178559995Y-90985914D01*
X178552000Y-90917000D01*
X178552000Y-89717000D01*
X178559995Y-89648086D01*
X178566976Y-89632274D01*
X178568213Y-89624468D01*
X178584780Y-89591953D01*
X178604676Y-89546894D01*
X178682894Y-89468676D01*
X178727953Y-89448780D01*
X178760468Y-89432213D01*
X178768274Y-89430976D01*
X178784086Y-89423995D01*
X178853000Y-89416000D01*
X180303000Y-89416000D01*
X180371914Y-89423995D01*
G37*
G36*
X102873257Y-88403449D02*
G01*
X103037717Y-88456886D01*
X103191793Y-88535392D01*
X103331692Y-88637034D01*
X103453967Y-88759309D01*
X103555609Y-88899208D01*
X103634115Y-89053284D01*
X103687552Y-89217744D01*
X103714603Y-89388539D01*
X103714603Y-89561463D01*
X103687552Y-89732258D01*
X103634115Y-89896718D01*
X103555609Y-90050794D01*
X103453967Y-90190693D01*
X103331692Y-90312968D01*
X103191793Y-90414610D01*
X103037717Y-90493116D01*
X102873257Y-90546553D01*
X102702462Y-90573604D01*
X102529538Y-90573604D01*
X102358743Y-90546553D01*
X102194283Y-90493116D01*
X102040207Y-90414610D01*
X101900308Y-90312968D01*
X101778033Y-90190693D01*
X101676391Y-90050794D01*
X101597885Y-89896718D01*
X101544448Y-89732258D01*
X101517397Y-89561463D01*
X101517397Y-89388539D01*
X101544448Y-89217744D01*
X101597885Y-89053284D01*
X101676391Y-88899208D01*
X101778033Y-88759309D01*
X101900308Y-88637034D01*
X102040207Y-88535392D01*
X102194283Y-88456886D01*
X102358743Y-88403449D01*
X102529538Y-88376398D01*
X102702462Y-88376398D01*
X102873257Y-88403449D01*
G37*
G36*
X107953257Y-88403449D02*
G01*
X108117717Y-88456886D01*
X108271793Y-88535392D01*
X108411692Y-88637034D01*
X108533967Y-88759309D01*
X108635609Y-88899208D01*
X108714115Y-89053284D01*
X108767552Y-89217744D01*
X108794603Y-89388539D01*
X108794603Y-89561463D01*
X108767552Y-89732258D01*
X108714115Y-89896718D01*
X108635609Y-90050794D01*
X108533967Y-90190693D01*
X108411692Y-90312968D01*
X108271793Y-90414610D01*
X108117717Y-90493116D01*
X107953257Y-90546553D01*
X107782462Y-90573604D01*
X107609538Y-90573604D01*
X107438743Y-90546553D01*
X107274283Y-90493116D01*
X107120207Y-90414610D01*
X106980308Y-90312968D01*
X106858033Y-90190693D01*
X106756391Y-90050794D01*
X106677885Y-89896718D01*
X106624448Y-89732258D01*
X106597397Y-89561463D01*
X106597397Y-89388539D01*
X106624448Y-89217744D01*
X106677885Y-89053284D01*
X106756391Y-88899208D01*
X106858033Y-88759309D01*
X106980308Y-88637034D01*
X107120207Y-88535392D01*
X107274283Y-88456886D01*
X107438743Y-88403449D01*
X107609538Y-88376398D01*
X107782462Y-88376398D01*
X107953257Y-88403449D01*
G37*
G36*
X113033257Y-88403449D02*
G01*
X113197717Y-88456886D01*
X113351793Y-88535392D01*
X113491692Y-88637034D01*
X113613967Y-88759309D01*
X113715609Y-88899208D01*
X113794115Y-89053284D01*
X113847552Y-89217744D01*
X113874603Y-89388539D01*
X113874603Y-89561463D01*
X113847552Y-89732258D01*
X113794115Y-89896718D01*
X113715609Y-90050794D01*
X113613967Y-90190693D01*
X113491692Y-90312968D01*
X113351793Y-90414610D01*
X113197717Y-90493116D01*
X113033257Y-90546553D01*
X112862462Y-90573604D01*
X112689538Y-90573604D01*
X112518743Y-90546553D01*
X112354283Y-90493116D01*
X112200207Y-90414610D01*
X112060308Y-90312968D01*
X111938033Y-90190693D01*
X111836391Y-90050794D01*
X111757885Y-89896718D01*
X111704448Y-89732258D01*
X111677397Y-89561463D01*
X111677397Y-89388539D01*
X111704448Y-89217744D01*
X111757885Y-89053284D01*
X111836391Y-88899208D01*
X111938033Y-88759309D01*
X112060308Y-88637034D01*
X112200207Y-88535392D01*
X112354283Y-88456886D01*
X112518743Y-88403449D01*
X112689538Y-88376398D01*
X112862462Y-88376398D01*
X113033257Y-88403449D01*
G37*
G36*
X128273257Y-88403449D02*
G01*
X128437717Y-88456886D01*
X128591793Y-88535392D01*
X128731692Y-88637034D01*
X128853967Y-88759309D01*
X128955609Y-88899208D01*
X129034115Y-89053284D01*
X129087552Y-89217744D01*
X129114603Y-89388539D01*
X129114603Y-89561463D01*
X129087552Y-89732258D01*
X129034115Y-89896718D01*
X128955609Y-90050794D01*
X128853967Y-90190693D01*
X128731692Y-90312968D01*
X128591793Y-90414610D01*
X128437717Y-90493116D01*
X128273257Y-90546553D01*
X128102462Y-90573604D01*
X127929538Y-90573604D01*
X127758743Y-90546553D01*
X127594283Y-90493116D01*
X127440207Y-90414610D01*
X127300308Y-90312968D01*
X127178033Y-90190693D01*
X127076391Y-90050794D01*
X126997885Y-89896718D01*
X126944448Y-89732258D01*
X126917397Y-89561463D01*
X126917397Y-89388539D01*
X126944448Y-89217744D01*
X126997885Y-89053284D01*
X127076391Y-88899208D01*
X127178033Y-88759309D01*
X127300308Y-88637034D01*
X127440207Y-88535392D01*
X127594283Y-88456886D01*
X127758743Y-88403449D01*
X127929538Y-88376398D01*
X128102462Y-88376398D01*
X128273257Y-88403449D01*
G37*
G36*
X100333257Y-88403448D02*
G01*
X100497717Y-88456885D01*
X100651793Y-88535391D01*
X100791692Y-88637033D01*
X100913967Y-88759308D01*
X101015609Y-88899207D01*
X101094115Y-89053283D01*
X101147552Y-89217743D01*
X101174603Y-89388538D01*
X101174603Y-89561462D01*
X101147552Y-89732257D01*
X101094115Y-89896717D01*
X101015609Y-90050793D01*
X100913967Y-90190692D01*
X100791692Y-90312967D01*
X100651793Y-90414609D01*
X100497717Y-90493115D01*
X100333257Y-90546552D01*
X100162462Y-90573603D01*
X99989538Y-90573603D01*
X99818743Y-90546552D01*
X99654283Y-90493115D01*
X99500207Y-90414609D01*
X99360308Y-90312967D01*
X99238033Y-90190692D01*
X99136391Y-90050793D01*
X99057885Y-89896717D01*
X99004448Y-89732257D01*
X98977397Y-89561462D01*
X98977397Y-89388538D01*
X99004448Y-89217743D01*
X99057885Y-89053283D01*
X99136391Y-88899207D01*
X99238033Y-88759308D01*
X99360308Y-88637033D01*
X99500207Y-88535391D01*
X99654283Y-88456885D01*
X99818743Y-88403448D01*
X99989538Y-88376397D01*
X100162462Y-88376397D01*
X100333257Y-88403448D01*
G37*
G36*
X105413257Y-88403448D02*
G01*
X105577717Y-88456885D01*
X105731793Y-88535391D01*
X105871692Y-88637033D01*
X105993967Y-88759308D01*
X106095609Y-88899207D01*
X106174115Y-89053283D01*
X106227552Y-89217743D01*
X106254603Y-89388538D01*
X106254603Y-89561462D01*
X106227552Y-89732257D01*
X106174115Y-89896717D01*
X106095609Y-90050793D01*
X105993967Y-90190692D01*
X105871692Y-90312967D01*
X105731793Y-90414609D01*
X105577717Y-90493115D01*
X105413257Y-90546552D01*
X105242462Y-90573603D01*
X105069538Y-90573603D01*
X104898743Y-90546552D01*
X104734283Y-90493115D01*
X104580207Y-90414609D01*
X104440308Y-90312967D01*
X104318033Y-90190692D01*
X104216391Y-90050793D01*
X104137885Y-89896717D01*
X104084448Y-89732257D01*
X104057397Y-89561462D01*
X104057397Y-89388538D01*
X104084448Y-89217743D01*
X104137885Y-89053283D01*
X104216391Y-88899207D01*
X104318033Y-88759308D01*
X104440308Y-88637033D01*
X104580207Y-88535391D01*
X104734283Y-88456885D01*
X104898743Y-88403448D01*
X105069538Y-88376397D01*
X105242462Y-88376397D01*
X105413257Y-88403448D01*
G37*
G36*
X110493257Y-88403448D02*
G01*
X110657717Y-88456885D01*
X110811793Y-88535391D01*
X110951692Y-88637033D01*
X111073967Y-88759308D01*
X111175609Y-88899207D01*
X111254115Y-89053283D01*
X111307552Y-89217743D01*
X111334603Y-89388538D01*
X111334603Y-89561462D01*
X111307552Y-89732257D01*
X111254115Y-89896717D01*
X111175609Y-90050793D01*
X111073967Y-90190692D01*
X110951692Y-90312967D01*
X110811793Y-90414609D01*
X110657717Y-90493115D01*
X110493257Y-90546552D01*
X110322462Y-90573603D01*
X110149538Y-90573603D01*
X109978743Y-90546552D01*
X109814283Y-90493115D01*
X109660207Y-90414609D01*
X109520308Y-90312967D01*
X109398033Y-90190692D01*
X109296391Y-90050793D01*
X109217885Y-89896717D01*
X109164448Y-89732257D01*
X109137397Y-89561462D01*
X109137397Y-89388538D01*
X109164448Y-89217743D01*
X109217885Y-89053283D01*
X109296391Y-88899207D01*
X109398033Y-88759308D01*
X109520308Y-88637033D01*
X109660207Y-88535391D01*
X109814283Y-88456885D01*
X109978743Y-88403448D01*
X110149538Y-88376397D01*
X110322462Y-88376397D01*
X110493257Y-88403448D01*
G37*
G36*
X115573257Y-88403448D02*
G01*
X115737717Y-88456885D01*
X115891793Y-88535391D01*
X116031692Y-88637033D01*
X116153967Y-88759308D01*
X116255609Y-88899207D01*
X116334115Y-89053283D01*
X116387552Y-89217743D01*
X116414603Y-89388538D01*
X116414603Y-89561462D01*
X116387552Y-89732257D01*
X116334115Y-89896717D01*
X116255609Y-90050793D01*
X116153967Y-90190692D01*
X116031692Y-90312967D01*
X115891793Y-90414609D01*
X115737717Y-90493115D01*
X115573257Y-90546552D01*
X115402462Y-90573603D01*
X115229538Y-90573603D01*
X115058743Y-90546552D01*
X114894283Y-90493115D01*
X114740207Y-90414609D01*
X114600308Y-90312967D01*
X114478033Y-90190692D01*
X114376391Y-90050793D01*
X114297885Y-89896717D01*
X114244448Y-89732257D01*
X114217397Y-89561462D01*
X114217397Y-89388538D01*
X114244448Y-89217743D01*
X114297885Y-89053283D01*
X114376391Y-88899207D01*
X114478033Y-88759308D01*
X114600308Y-88637033D01*
X114740207Y-88535391D01*
X114894283Y-88456885D01*
X115058743Y-88403448D01*
X115229538Y-88376397D01*
X115402462Y-88376397D01*
X115573257Y-88403448D01*
G37*
G36*
X118113258Y-88403448D02*
G01*
X118277718Y-88456885D01*
X118431794Y-88535391D01*
X118571693Y-88637033D01*
X118693968Y-88759308D01*
X118795610Y-88899207D01*
X118874116Y-89053283D01*
X118927553Y-89217743D01*
X118954604Y-89388538D01*
X118954604Y-89561462D01*
X118927553Y-89732257D01*
X118874116Y-89896717D01*
X118795610Y-90050793D01*
X118693968Y-90190692D01*
X118571693Y-90312967D01*
X118431794Y-90414609D01*
X118277718Y-90493115D01*
X118113258Y-90546552D01*
X117942463Y-90573603D01*
X117769539Y-90573603D01*
X117598744Y-90546552D01*
X117434284Y-90493115D01*
X117280208Y-90414609D01*
X117140309Y-90312967D01*
X117018034Y-90190692D01*
X116916392Y-90050793D01*
X116837886Y-89896717D01*
X116784449Y-89732257D01*
X116757398Y-89561462D01*
X116757398Y-89388538D01*
X116784449Y-89217743D01*
X116837886Y-89053283D01*
X116916392Y-88899207D01*
X117018034Y-88759308D01*
X117140309Y-88637033D01*
X117280208Y-88535391D01*
X117434284Y-88456885D01*
X117598744Y-88403448D01*
X117769539Y-88376397D01*
X117942463Y-88376397D01*
X118113258Y-88403448D01*
G37*
G36*
X120653257Y-88403448D02*
G01*
X120817717Y-88456885D01*
X120971793Y-88535391D01*
X121111692Y-88637033D01*
X121233967Y-88759308D01*
X121335609Y-88899207D01*
X121414115Y-89053283D01*
X121467552Y-89217743D01*
X121494603Y-89388538D01*
X121494603Y-89561462D01*
X121467552Y-89732257D01*
X121414115Y-89896717D01*
X121335609Y-90050793D01*
X121233967Y-90190692D01*
X121111692Y-90312967D01*
X120971793Y-90414609D01*
X120817717Y-90493115D01*
X120653257Y-90546552D01*
X120482462Y-90573603D01*
X120309538Y-90573603D01*
X120138743Y-90546552D01*
X119974283Y-90493115D01*
X119820207Y-90414609D01*
X119680308Y-90312967D01*
X119558033Y-90190692D01*
X119456391Y-90050793D01*
X119377885Y-89896717D01*
X119324448Y-89732257D01*
X119297397Y-89561462D01*
X119297397Y-89388538D01*
X119324448Y-89217743D01*
X119377885Y-89053283D01*
X119456391Y-88899207D01*
X119558033Y-88759308D01*
X119680308Y-88637033D01*
X119820207Y-88535391D01*
X119974283Y-88456885D01*
X120138743Y-88403448D01*
X120309538Y-88376397D01*
X120482462Y-88376397D01*
X120653257Y-88403448D01*
G37*
G36*
X123193258Y-88403448D02*
G01*
X123357718Y-88456885D01*
X123511794Y-88535391D01*
X123651693Y-88637033D01*
X123773968Y-88759308D01*
X123875610Y-88899207D01*
X123954116Y-89053283D01*
X124007553Y-89217743D01*
X124034604Y-89388538D01*
X124034604Y-89561462D01*
X124007553Y-89732257D01*
X123954116Y-89896717D01*
X123875610Y-90050793D01*
X123773968Y-90190692D01*
X123651693Y-90312967D01*
X123511794Y-90414609D01*
X123357718Y-90493115D01*
X123193258Y-90546552D01*
X123022463Y-90573603D01*
X122849539Y-90573603D01*
X122678744Y-90546552D01*
X122514284Y-90493115D01*
X122360208Y-90414609D01*
X122220309Y-90312967D01*
X122098034Y-90190692D01*
X121996392Y-90050793D01*
X121917886Y-89896717D01*
X121864449Y-89732257D01*
X121837398Y-89561462D01*
X121837398Y-89388538D01*
X121864449Y-89217743D01*
X121917886Y-89053283D01*
X121996392Y-88899207D01*
X122098034Y-88759308D01*
X122220309Y-88637033D01*
X122360208Y-88535391D01*
X122514284Y-88456885D01*
X122678744Y-88403448D01*
X122849539Y-88376397D01*
X123022463Y-88376397D01*
X123193258Y-88403448D01*
G37*
G36*
X125733257Y-88403448D02*
G01*
X125897717Y-88456885D01*
X126051793Y-88535391D01*
X126191692Y-88637033D01*
X126313967Y-88759308D01*
X126415609Y-88899207D01*
X126494115Y-89053283D01*
X126547552Y-89217743D01*
X126574603Y-89388538D01*
X126574603Y-89561462D01*
X126547552Y-89732257D01*
X126494115Y-89896717D01*
X126415609Y-90050793D01*
X126313967Y-90190692D01*
X126191692Y-90312967D01*
X126051793Y-90414609D01*
X125897717Y-90493115D01*
X125733257Y-90546552D01*
X125562462Y-90573603D01*
X125389538Y-90573603D01*
X125218743Y-90546552D01*
X125054283Y-90493115D01*
X124900207Y-90414609D01*
X124760308Y-90312967D01*
X124638033Y-90190692D01*
X124536391Y-90050793D01*
X124457885Y-89896717D01*
X124404448Y-89732257D01*
X124377397Y-89561462D01*
X124377397Y-89388538D01*
X124404448Y-89217743D01*
X124457885Y-89053283D01*
X124536391Y-88899207D01*
X124638033Y-88759308D01*
X124760308Y-88637033D01*
X124900207Y-88535391D01*
X125054283Y-88456885D01*
X125218743Y-88403448D01*
X125389538Y-88376397D01*
X125562462Y-88376397D01*
X125733257Y-88403448D01*
G37*
G36*
X130813257Y-88403448D02*
G01*
X130977717Y-88456885D01*
X131131793Y-88535391D01*
X131271692Y-88637033D01*
X131393967Y-88759308D01*
X131495609Y-88899207D01*
X131574115Y-89053283D01*
X131627552Y-89217743D01*
X131654603Y-89388538D01*
X131654603Y-89561462D01*
X131627552Y-89732257D01*
X131574115Y-89896717D01*
X131495609Y-90050793D01*
X131393967Y-90190692D01*
X131271692Y-90312967D01*
X131131793Y-90414609D01*
X130977717Y-90493115D01*
X130813257Y-90546552D01*
X130642462Y-90573603D01*
X130469538Y-90573603D01*
X130298743Y-90546552D01*
X130134283Y-90493115D01*
X129980207Y-90414609D01*
X129840308Y-90312967D01*
X129718033Y-90190692D01*
X129616391Y-90050793D01*
X129537885Y-89896717D01*
X129484448Y-89732257D01*
X129457397Y-89561462D01*
X129457397Y-89388538D01*
X129484448Y-89217743D01*
X129537885Y-89053283D01*
X129616391Y-88899207D01*
X129718033Y-88759308D01*
X129840308Y-88637033D01*
X129980207Y-88535391D01*
X130134283Y-88456885D01*
X130298743Y-88403448D01*
X130469538Y-88376397D01*
X130642462Y-88376397D01*
X130813257Y-88403448D01*
G37*
G36*
X133353257Y-88403448D02*
G01*
X133517717Y-88456885D01*
X133671793Y-88535391D01*
X133811692Y-88637033D01*
X133933967Y-88759308D01*
X134035609Y-88899207D01*
X134114115Y-89053283D01*
X134167552Y-89217743D01*
X134194603Y-89388538D01*
X134194603Y-89561462D01*
X134167552Y-89732257D01*
X134114115Y-89896717D01*
X134035609Y-90050793D01*
X133933967Y-90190692D01*
X133811692Y-90312967D01*
X133671793Y-90414609D01*
X133517717Y-90493115D01*
X133353257Y-90546552D01*
X133182462Y-90573603D01*
X133009538Y-90573603D01*
X132838743Y-90546552D01*
X132674283Y-90493115D01*
X132520207Y-90414609D01*
X132380308Y-90312967D01*
X132258033Y-90190692D01*
X132156391Y-90050793D01*
X132077885Y-89896717D01*
X132024448Y-89732257D01*
X131997397Y-89561462D01*
X131997397Y-89388538D01*
X132024448Y-89217743D01*
X132077885Y-89053283D01*
X132156391Y-88899207D01*
X132258033Y-88759308D01*
X132380308Y-88637033D01*
X132520207Y-88535391D01*
X132674283Y-88456885D01*
X132838743Y-88403448D01*
X133009538Y-88376397D01*
X133182462Y-88376397D01*
X133353257Y-88403448D01*
G37*
G36*
X135893257Y-88403448D02*
G01*
X136057717Y-88456885D01*
X136211793Y-88535391D01*
X136351692Y-88637033D01*
X136473967Y-88759308D01*
X136575609Y-88899207D01*
X136654115Y-89053283D01*
X136707552Y-89217743D01*
X136734603Y-89388538D01*
X136734603Y-89561462D01*
X136707552Y-89732257D01*
X136654115Y-89896717D01*
X136575609Y-90050793D01*
X136473967Y-90190692D01*
X136351692Y-90312967D01*
X136211793Y-90414609D01*
X136057717Y-90493115D01*
X135893257Y-90546552D01*
X135722462Y-90573603D01*
X135549538Y-90573603D01*
X135378743Y-90546552D01*
X135214283Y-90493115D01*
X135060207Y-90414609D01*
X134920308Y-90312967D01*
X134798033Y-90190692D01*
X134696391Y-90050793D01*
X134617885Y-89896717D01*
X134564448Y-89732257D01*
X134537397Y-89561462D01*
X134537397Y-89388538D01*
X134564448Y-89217743D01*
X134617885Y-89053283D01*
X134696391Y-88899207D01*
X134798033Y-88759308D01*
X134920308Y-88637033D01*
X135060207Y-88535391D01*
X135214283Y-88456885D01*
X135378743Y-88403448D01*
X135549538Y-88376397D01*
X135722462Y-88376397D01*
X135893257Y-88403448D01*
G37*
G36*
X179791313Y-82990339D02*
G01*
X179964546Y-83024797D01*
X180127728Y-83092389D01*
X180274588Y-83190518D01*
X180399482Y-83315412D01*
X180497611Y-83462272D01*
X180565203Y-83625454D01*
X180599661Y-83798687D01*
X180599661Y-83975313D01*
X180565203Y-84148546D01*
X180497611Y-84311728D01*
X180399482Y-84458588D01*
X180274588Y-84583482D01*
X180127728Y-84681611D01*
X179964546Y-84749203D01*
X179791313Y-84783661D01*
X179703000Y-84788000D01*
X179699941Y-84788000D01*
X179456059Y-84788000D01*
X179453000Y-84788000D01*
X179364687Y-84783661D01*
X179191454Y-84749203D01*
X179028272Y-84681611D01*
X178881412Y-84583482D01*
X178756518Y-84458588D01*
X178658389Y-84311728D01*
X178590797Y-84148546D01*
X178556339Y-83975313D01*
X178556339Y-83798687D01*
X178590797Y-83625454D01*
X178658389Y-83462272D01*
X178756518Y-83315412D01*
X178881412Y-83190518D01*
X179028272Y-83092389D01*
X179191454Y-83024797D01*
X179364687Y-82990339D01*
X179453000Y-82986000D01*
X179703000Y-82986000D01*
X179791313Y-82990339D01*
G37*
G36*
X179791313Y-80490339D02*
G01*
X179964546Y-80524797D01*
X180127728Y-80592389D01*
X180274588Y-80690518D01*
X180399482Y-80815412D01*
X180497611Y-80962272D01*
X180565203Y-81125454D01*
X180599661Y-81298687D01*
X180599661Y-81475313D01*
X180565203Y-81648546D01*
X180497611Y-81811728D01*
X180399482Y-81958588D01*
X180274588Y-82083482D01*
X180127728Y-82181611D01*
X179964546Y-82249203D01*
X179791313Y-82283661D01*
X179703000Y-82288000D01*
X179699941Y-82288000D01*
X179456059Y-82288000D01*
X179453000Y-82288000D01*
X179364687Y-82283661D01*
X179191454Y-82249203D01*
X179028272Y-82181611D01*
X178881412Y-82083482D01*
X178756518Y-81958588D01*
X178658389Y-81811728D01*
X178590797Y-81648546D01*
X178556339Y-81475313D01*
X178556339Y-81298687D01*
X178590797Y-81125454D01*
X178658389Y-80962272D01*
X178756518Y-80815412D01*
X178881412Y-80690518D01*
X179028272Y-80592389D01*
X179191454Y-80524797D01*
X179364687Y-80490339D01*
X179453000Y-80486000D01*
X179703000Y-80486000D01*
X179791313Y-80490339D01*
G37*
G36*
X180371914Y-77993995D02*
G01*
X180387726Y-78000976D01*
X180395531Y-78002213D01*
X180428039Y-78018776D01*
X180473106Y-78038676D01*
X180551324Y-78116894D01*
X180571226Y-78161967D01*
X180587786Y-78194468D01*
X180589021Y-78202270D01*
X180596005Y-78218086D01*
X180604000Y-78287000D01*
X180604000Y-79487000D01*
X180596005Y-79555914D01*
X180589021Y-79571729D01*
X180587786Y-79579531D01*
X180571229Y-79612024D01*
X180551324Y-79657106D01*
X180473106Y-79735324D01*
X180428024Y-79755229D01*
X180395531Y-79771786D01*
X180387729Y-79773021D01*
X180371914Y-79780005D01*
X180303000Y-79788000D01*
X178853000Y-79788000D01*
X178784086Y-79780005D01*
X178768270Y-79773021D01*
X178760468Y-79771786D01*
X178727967Y-79755226D01*
X178682894Y-79735324D01*
X178604676Y-79657106D01*
X178584776Y-79612039D01*
X178568213Y-79579531D01*
X178566976Y-79571726D01*
X178559995Y-79555914D01*
X178552000Y-79487000D01*
X178552000Y-78287000D01*
X178559995Y-78218086D01*
X178566976Y-78202274D01*
X178568213Y-78194468D01*
X178584780Y-78161953D01*
X178604676Y-78116894D01*
X178682894Y-78038676D01*
X178727953Y-78018780D01*
X178760468Y-78002213D01*
X178768274Y-78000976D01*
X178784086Y-77993995D01*
X178853000Y-77986000D01*
X180303000Y-77986000D01*
X180371914Y-77993995D01*
G37*
G36*
X179791313Y-71560339D02*
G01*
X179964546Y-71594797D01*
X180127728Y-71662389D01*
X180274588Y-71760518D01*
X180399482Y-71885412D01*
X180497611Y-72032272D01*
X180565203Y-72195454D01*
X180599661Y-72368687D01*
X180599661Y-72545313D01*
X180565203Y-72718546D01*
X180497611Y-72881728D01*
X180399482Y-73028588D01*
X180274588Y-73153482D01*
X180127728Y-73251611D01*
X179964546Y-73319203D01*
X179791313Y-73353661D01*
X179703000Y-73358000D01*
X179699941Y-73358000D01*
X179456059Y-73358000D01*
X179453000Y-73358000D01*
X179364687Y-73353661D01*
X179191454Y-73319203D01*
X179028272Y-73251611D01*
X178881412Y-73153482D01*
X178756518Y-73028588D01*
X178658389Y-72881728D01*
X178590797Y-72718546D01*
X178556339Y-72545313D01*
X178556339Y-72368687D01*
X178590797Y-72195454D01*
X178658389Y-72032272D01*
X178756518Y-71885412D01*
X178881412Y-71760518D01*
X179028272Y-71662389D01*
X179191454Y-71594797D01*
X179364687Y-71560339D01*
X179453000Y-71556000D01*
X179703000Y-71556000D01*
X179791313Y-71560339D01*
G37*
G36*
X179791313Y-69060339D02*
G01*
X179964546Y-69094797D01*
X180127728Y-69162389D01*
X180274588Y-69260518D01*
X180399482Y-69385412D01*
X180497611Y-69532272D01*
X180565203Y-69695454D01*
X180599661Y-69868687D01*
X180599661Y-70045313D01*
X180565203Y-70218546D01*
X180497611Y-70381728D01*
X180399482Y-70528588D01*
X180274588Y-70653482D01*
X180127728Y-70751611D01*
X179964546Y-70819203D01*
X179791313Y-70853661D01*
X179703000Y-70858000D01*
X179699941Y-70858000D01*
X179456059Y-70858000D01*
X179453000Y-70858000D01*
X179364687Y-70853661D01*
X179191454Y-70819203D01*
X179028272Y-70751611D01*
X178881412Y-70653482D01*
X178756518Y-70528588D01*
X178658389Y-70381728D01*
X178590797Y-70218546D01*
X178556339Y-70045313D01*
X178556339Y-69868687D01*
X178590797Y-69695454D01*
X178658389Y-69532272D01*
X178756518Y-69385412D01*
X178881412Y-69260518D01*
X179028272Y-69162389D01*
X179191454Y-69094797D01*
X179364687Y-69060339D01*
X179453000Y-69056000D01*
X179703000Y-69056000D01*
X179791313Y-69060339D01*
G37*
G36*
X114083017Y-67341382D02*
G01*
X114099562Y-67352438D01*
X114110618Y-67368983D01*
X114114500Y-67388500D01*
X114114500Y-68912500D01*
X114110618Y-68932017D01*
X114099562Y-68948562D01*
X114083017Y-68959618D01*
X114063500Y-68963500D01*
X112539500Y-68963500D01*
X112519983Y-68959618D01*
X112503438Y-68948562D01*
X112492382Y-68932017D01*
X112488500Y-68912500D01*
X112488500Y-67388500D01*
X112492382Y-67368983D01*
X112503438Y-67352438D01*
X112519983Y-67341382D01*
X112539500Y-67337500D01*
X114063500Y-67337500D01*
X114083017Y-67341382D01*
G37*
G36*
X150451017Y-67341382D02*
G01*
X150467562Y-67352438D01*
X150478618Y-67368983D01*
X150482500Y-67388500D01*
X150482500Y-68912500D01*
X150478618Y-68932017D01*
X150467562Y-68948562D01*
X150451017Y-68959618D01*
X150431500Y-68963500D01*
X148907500Y-68963500D01*
X148887983Y-68959618D01*
X148871438Y-68948562D01*
X148860382Y-68932017D01*
X148856500Y-68912500D01*
X148856500Y-67388500D01*
X148860382Y-67368983D01*
X148871438Y-67352438D01*
X148887983Y-67341382D01*
X148907500Y-67337500D01*
X150431500Y-67337500D01*
X150451017Y-67341382D01*
G37*
G36*
X116077501Y-67372508D02*
G01*
X116224746Y-67433498D01*
X116357262Y-67522043D01*
X116469957Y-67634738D01*
X116558502Y-67767254D01*
X116619492Y-67914499D01*
X116650585Y-68070812D01*
X116650585Y-68230188D01*
X116619492Y-68386501D01*
X116558502Y-68533746D01*
X116469957Y-68666262D01*
X116357262Y-68778957D01*
X116224746Y-68867502D01*
X116077501Y-68928492D01*
X115921188Y-68959585D01*
X115761812Y-68959585D01*
X115605499Y-68928492D01*
X115458254Y-68867502D01*
X115325738Y-68778957D01*
X115213043Y-68666262D01*
X115124498Y-68533746D01*
X115063508Y-68386501D01*
X115032415Y-68230188D01*
X115032415Y-68070812D01*
X115063508Y-67914499D01*
X115124498Y-67767254D01*
X115213043Y-67634738D01*
X115325738Y-67522043D01*
X115458254Y-67433498D01*
X115605499Y-67372508D01*
X115761812Y-67341415D01*
X115921188Y-67341415D01*
X116077501Y-67372508D01*
G37*
G36*
X118617501Y-67372508D02*
G01*
X118764746Y-67433498D01*
X118897262Y-67522043D01*
X119009957Y-67634738D01*
X119098502Y-67767254D01*
X119159492Y-67914499D01*
X119190585Y-68070812D01*
X119190585Y-68230188D01*
X119159492Y-68386501D01*
X119098502Y-68533746D01*
X119009957Y-68666262D01*
X118897262Y-68778957D01*
X118764746Y-68867502D01*
X118617501Y-68928492D01*
X118461188Y-68959585D01*
X118301812Y-68959585D01*
X118145499Y-68928492D01*
X117998254Y-68867502D01*
X117865738Y-68778957D01*
X117753043Y-68666262D01*
X117664498Y-68533746D01*
X117603508Y-68386501D01*
X117572415Y-68230188D01*
X117572415Y-68070812D01*
X117603508Y-67914499D01*
X117664498Y-67767254D01*
X117753043Y-67634738D01*
X117865738Y-67522043D01*
X117998254Y-67433498D01*
X118145499Y-67372508D01*
X118301812Y-67341415D01*
X118461188Y-67341415D01*
X118617501Y-67372508D01*
G37*
G36*
X121157501Y-67372508D02*
G01*
X121304746Y-67433498D01*
X121437262Y-67522043D01*
X121549957Y-67634738D01*
X121638502Y-67767254D01*
X121699492Y-67914499D01*
X121730585Y-68070812D01*
X121730585Y-68230188D01*
X121699492Y-68386501D01*
X121638502Y-68533746D01*
X121549957Y-68666262D01*
X121437262Y-68778957D01*
X121304746Y-68867502D01*
X121157501Y-68928492D01*
X121001188Y-68959585D01*
X120841812Y-68959585D01*
X120685499Y-68928492D01*
X120538254Y-68867502D01*
X120405738Y-68778957D01*
X120293043Y-68666262D01*
X120204498Y-68533746D01*
X120143508Y-68386501D01*
X120112415Y-68230188D01*
X120112415Y-68070812D01*
X120143508Y-67914499D01*
X120204498Y-67767254D01*
X120293043Y-67634738D01*
X120405738Y-67522043D01*
X120538254Y-67433498D01*
X120685499Y-67372508D01*
X120841812Y-67341415D01*
X121001188Y-67341415D01*
X121157501Y-67372508D01*
G37*
G36*
X152445501Y-67372508D02*
G01*
X152592746Y-67433498D01*
X152725262Y-67522043D01*
X152837957Y-67634738D01*
X152926502Y-67767254D01*
X152987492Y-67914499D01*
X153018585Y-68070812D01*
X153018585Y-68230188D01*
X152987492Y-68386501D01*
X152926502Y-68533746D01*
X152837957Y-68666262D01*
X152725262Y-68778957D01*
X152592746Y-68867502D01*
X152445501Y-68928492D01*
X152289188Y-68959585D01*
X152129812Y-68959585D01*
X151973499Y-68928492D01*
X151826254Y-68867502D01*
X151693738Y-68778957D01*
X151581043Y-68666262D01*
X151492498Y-68533746D01*
X151431508Y-68386501D01*
X151400415Y-68230188D01*
X151400415Y-68070812D01*
X151431508Y-67914499D01*
X151492498Y-67767254D01*
X151581043Y-67634738D01*
X151693738Y-67522043D01*
X151826254Y-67433498D01*
X151973499Y-67372508D01*
X152129812Y-67341415D01*
X152289188Y-67341415D01*
X152445501Y-67372508D01*
G37*
G36*
X154985501Y-67372508D02*
G01*
X155132746Y-67433498D01*
X155265262Y-67522043D01*
X155377957Y-67634738D01*
X155466502Y-67767254D01*
X155527492Y-67914499D01*
X155558585Y-68070812D01*
X155558585Y-68230188D01*
X155527492Y-68386501D01*
X155466502Y-68533746D01*
X155377957Y-68666262D01*
X155265262Y-68778957D01*
X155132746Y-68867502D01*
X154985501Y-68928492D01*
X154829188Y-68959585D01*
X154669812Y-68959585D01*
X154513499Y-68928492D01*
X154366254Y-68867502D01*
X154233738Y-68778957D01*
X154121043Y-68666262D01*
X154032498Y-68533746D01*
X153971508Y-68386501D01*
X153940415Y-68230188D01*
X153940415Y-68070812D01*
X153971508Y-67914499D01*
X154032498Y-67767254D01*
X154121043Y-67634738D01*
X154233738Y-67522043D01*
X154366254Y-67433498D01*
X154513499Y-67372508D01*
X154669812Y-67341415D01*
X154829188Y-67341415D01*
X154985501Y-67372508D01*
G37*
G36*
X157525501Y-67372508D02*
G01*
X157672746Y-67433498D01*
X157805262Y-67522043D01*
X157917957Y-67634738D01*
X158006502Y-67767254D01*
X158067492Y-67914499D01*
X158098585Y-68070812D01*
X158098585Y-68230188D01*
X158067492Y-68386501D01*
X158006502Y-68533746D01*
X157917957Y-68666262D01*
X157805262Y-68778957D01*
X157672746Y-68867502D01*
X157525501Y-68928492D01*
X157369188Y-68959585D01*
X157209812Y-68959585D01*
X157053499Y-68928492D01*
X156906254Y-68867502D01*
X156773738Y-68778957D01*
X156661043Y-68666262D01*
X156572498Y-68533746D01*
X156511508Y-68386501D01*
X156480415Y-68230188D01*
X156480415Y-68070812D01*
X156511508Y-67914499D01*
X156572498Y-67767254D01*
X156661043Y-67634738D01*
X156773738Y-67522043D01*
X156906254Y-67433498D01*
X157053499Y-67372508D01*
X157209812Y-67341415D01*
X157369188Y-67341415D01*
X157525501Y-67372508D01*
G37*
G36*
X180371914Y-66563995D02*
G01*
X180387726Y-66570976D01*
X180395531Y-66572213D01*
X180428039Y-66588776D01*
X180473106Y-66608676D01*
X180551324Y-66686894D01*
X180571226Y-66731967D01*
X180587786Y-66764468D01*
X180589021Y-66772270D01*
X180596005Y-66788086D01*
X180604000Y-66857000D01*
X180604000Y-68057000D01*
X180596005Y-68125914D01*
X180589021Y-68141729D01*
X180587786Y-68149531D01*
X180571229Y-68182024D01*
X180551324Y-68227106D01*
X180473106Y-68305324D01*
X180428024Y-68325229D01*
X180395531Y-68341786D01*
X180387729Y-68343021D01*
X180371914Y-68350005D01*
X180303000Y-68358000D01*
X178853000Y-68358000D01*
X178784086Y-68350005D01*
X178768270Y-68343021D01*
X178760468Y-68341786D01*
X178727967Y-68325226D01*
X178682894Y-68305324D01*
X178604676Y-68227106D01*
X178584776Y-68182039D01*
X178568213Y-68149531D01*
X178566976Y-68141726D01*
X178559995Y-68125914D01*
X178552000Y-68057000D01*
X178552000Y-66857000D01*
X178559995Y-66788086D01*
X178566976Y-66772274D01*
X178568213Y-66764468D01*
X178584780Y-66731953D01*
X178604676Y-66686894D01*
X178682894Y-66608676D01*
X178727953Y-66588780D01*
X178760468Y-66572213D01*
X178768274Y-66570976D01*
X178784086Y-66563995D01*
X178853000Y-66556000D01*
X180303000Y-66556000D01*
X180371914Y-66563995D01*
G37*
G36*
X101115034Y-62980764D02*
G01*
X101148125Y-63002875D01*
X101170236Y-63035966D01*
X101178000Y-63075000D01*
X101178000Y-65075000D01*
X101170236Y-65114034D01*
X101148125Y-65147125D01*
X101115034Y-65169236D01*
X101076000Y-65177000D01*
X99076000Y-65177000D01*
X99036966Y-65169236D01*
X99003875Y-65147125D01*
X98981764Y-65114034D01*
X98974000Y-65075000D01*
X98974000Y-63075000D01*
X98981764Y-63035966D01*
X99003875Y-63002875D01*
X99036966Y-62980764D01*
X99076000Y-62973000D01*
X101076000Y-62973000D01*
X101115034Y-62980764D01*
G37*
G36*
X102873256Y-63003448D02*
G01*
X103037716Y-63056885D01*
X103191792Y-63135391D01*
X103331691Y-63237033D01*
X103453966Y-63359308D01*
X103555608Y-63499207D01*
X103634114Y-63653283D01*
X103687551Y-63817743D01*
X103714602Y-63988538D01*
X103714602Y-64161462D01*
X103687551Y-64332257D01*
X103634114Y-64496717D01*
X103555608Y-64650793D01*
X103453966Y-64790692D01*
X103331691Y-64912967D01*
X103191792Y-65014609D01*
X103037716Y-65093115D01*
X102873256Y-65146552D01*
X102702461Y-65173603D01*
X102529537Y-65173603D01*
X102358742Y-65146552D01*
X102194282Y-65093115D01*
X102040206Y-65014609D01*
X101900307Y-64912967D01*
X101778032Y-64790692D01*
X101676390Y-64650793D01*
X101597884Y-64496717D01*
X101544447Y-64332257D01*
X101517396Y-64161462D01*
X101517396Y-63988538D01*
X101544447Y-63817743D01*
X101597884Y-63653283D01*
X101676390Y-63499207D01*
X101778032Y-63359308D01*
X101900307Y-63237033D01*
X102040206Y-63135391D01*
X102194282Y-63056885D01*
X102358742Y-63003448D01*
X102529537Y-62976397D01*
X102702461Y-62976397D01*
X102873256Y-63003448D01*
G37*
G36*
X105413257Y-63003448D02*
G01*
X105577717Y-63056885D01*
X105731793Y-63135391D01*
X105871692Y-63237033D01*
X105993967Y-63359308D01*
X106095609Y-63499207D01*
X106174115Y-63653283D01*
X106227552Y-63817743D01*
X106254603Y-63988538D01*
X106254603Y-64161462D01*
X106227552Y-64332257D01*
X106174115Y-64496717D01*
X106095609Y-64650793D01*
X105993967Y-64790692D01*
X105871692Y-64912967D01*
X105731793Y-65014609D01*
X105577717Y-65093115D01*
X105413257Y-65146552D01*
X105242462Y-65173603D01*
X105069538Y-65173603D01*
X104898743Y-65146552D01*
X104734283Y-65093115D01*
X104580207Y-65014609D01*
X104440308Y-64912967D01*
X104318033Y-64790692D01*
X104216391Y-64650793D01*
X104137885Y-64496717D01*
X104084448Y-64332257D01*
X104057397Y-64161462D01*
X104057397Y-63988538D01*
X104084448Y-63817743D01*
X104137885Y-63653283D01*
X104216391Y-63499207D01*
X104318033Y-63359308D01*
X104440308Y-63237033D01*
X104580207Y-63135391D01*
X104734283Y-63056885D01*
X104898743Y-63003448D01*
X105069538Y-62976397D01*
X105242462Y-62976397D01*
X105413257Y-63003448D01*
G37*
G36*
X107953256Y-63003448D02*
G01*
X108117716Y-63056885D01*
X108271792Y-63135391D01*
X108411691Y-63237033D01*
X108533966Y-63359308D01*
X108635608Y-63499207D01*
X108714114Y-63653283D01*
X108767551Y-63817743D01*
X108794602Y-63988538D01*
X108794602Y-64161462D01*
X108767551Y-64332257D01*
X108714114Y-64496717D01*
X108635608Y-64650793D01*
X108533966Y-64790692D01*
X108411691Y-64912967D01*
X108271792Y-65014609D01*
X108117716Y-65093115D01*
X107953256Y-65146552D01*
X107782461Y-65173603D01*
X107609537Y-65173603D01*
X107438742Y-65146552D01*
X107274282Y-65093115D01*
X107120206Y-65014609D01*
X106980307Y-64912967D01*
X106858032Y-64790692D01*
X106756390Y-64650793D01*
X106677884Y-64496717D01*
X106624447Y-64332257D01*
X106597396Y-64161462D01*
X106597396Y-63988538D01*
X106624447Y-63817743D01*
X106677884Y-63653283D01*
X106756390Y-63499207D01*
X106858032Y-63359308D01*
X106980307Y-63237033D01*
X107120206Y-63135391D01*
X107274282Y-63056885D01*
X107438742Y-63003448D01*
X107609537Y-62976397D01*
X107782461Y-62976397D01*
X107953256Y-63003448D01*
G37*
G36*
X110493257Y-63003448D02*
G01*
X110657717Y-63056885D01*
X110811793Y-63135391D01*
X110951692Y-63237033D01*
X111073967Y-63359308D01*
X111175609Y-63499207D01*
X111254115Y-63653283D01*
X111307552Y-63817743D01*
X111334603Y-63988538D01*
X111334603Y-64161462D01*
X111307552Y-64332257D01*
X111254115Y-64496717D01*
X111175609Y-64650793D01*
X111073967Y-64790692D01*
X110951692Y-64912967D01*
X110811793Y-65014609D01*
X110657717Y-65093115D01*
X110493257Y-65146552D01*
X110322462Y-65173603D01*
X110149538Y-65173603D01*
X109978743Y-65146552D01*
X109814283Y-65093115D01*
X109660207Y-65014609D01*
X109520308Y-64912967D01*
X109398033Y-64790692D01*
X109296391Y-64650793D01*
X109217885Y-64496717D01*
X109164448Y-64332257D01*
X109137397Y-64161462D01*
X109137397Y-63988538D01*
X109164448Y-63817743D01*
X109217885Y-63653283D01*
X109296391Y-63499207D01*
X109398033Y-63359308D01*
X109520308Y-63237033D01*
X109660207Y-63135391D01*
X109814283Y-63056885D01*
X109978743Y-63003448D01*
X110149538Y-62976397D01*
X110322462Y-62976397D01*
X110493257Y-63003448D01*
G37*
G36*
X113033256Y-63003448D02*
G01*
X113197716Y-63056885D01*
X113351792Y-63135391D01*
X113491691Y-63237033D01*
X113613966Y-63359308D01*
X113715608Y-63499207D01*
X113794114Y-63653283D01*
X113847551Y-63817743D01*
X113874602Y-63988538D01*
X113874602Y-64161462D01*
X113847551Y-64332257D01*
X113794114Y-64496717D01*
X113715608Y-64650793D01*
X113613966Y-64790692D01*
X113491691Y-64912967D01*
X113351792Y-65014609D01*
X113197716Y-65093115D01*
X113033256Y-65146552D01*
X112862461Y-65173603D01*
X112689537Y-65173603D01*
X112518742Y-65146552D01*
X112354282Y-65093115D01*
X112200206Y-65014609D01*
X112060307Y-64912967D01*
X111938032Y-64790692D01*
X111836390Y-64650793D01*
X111757884Y-64496717D01*
X111704447Y-64332257D01*
X111677396Y-64161462D01*
X111677396Y-63988538D01*
X111704447Y-63817743D01*
X111757884Y-63653283D01*
X111836390Y-63499207D01*
X111938032Y-63359308D01*
X112060307Y-63237033D01*
X112200206Y-63135391D01*
X112354282Y-63056885D01*
X112518742Y-63003448D01*
X112689537Y-62976397D01*
X112862461Y-62976397D01*
X113033256Y-63003448D01*
G37*
G36*
X115573257Y-63003448D02*
G01*
X115737717Y-63056885D01*
X115891793Y-63135391D01*
X116031692Y-63237033D01*
X116153967Y-63359308D01*
X116255609Y-63499207D01*
X116334115Y-63653283D01*
X116387552Y-63817743D01*
X116414603Y-63988538D01*
X116414603Y-64161462D01*
X116387552Y-64332257D01*
X116334115Y-64496717D01*
X116255609Y-64650793D01*
X116153967Y-64790692D01*
X116031692Y-64912967D01*
X115891793Y-65014609D01*
X115737717Y-65093115D01*
X115573257Y-65146552D01*
X115402462Y-65173603D01*
X115229538Y-65173603D01*
X115058743Y-65146552D01*
X114894283Y-65093115D01*
X114740207Y-65014609D01*
X114600308Y-64912967D01*
X114478033Y-64790692D01*
X114376391Y-64650793D01*
X114297885Y-64496717D01*
X114244448Y-64332257D01*
X114217397Y-64161462D01*
X114217397Y-63988538D01*
X114244448Y-63817743D01*
X114297885Y-63653283D01*
X114376391Y-63499207D01*
X114478033Y-63359308D01*
X114600308Y-63237033D01*
X114740207Y-63135391D01*
X114894283Y-63056885D01*
X115058743Y-63003448D01*
X115229538Y-62976397D01*
X115402462Y-62976397D01*
X115573257Y-63003448D01*
G37*
G36*
X120653257Y-63003448D02*
G01*
X120817717Y-63056885D01*
X120971793Y-63135391D01*
X121111692Y-63237033D01*
X121233967Y-63359308D01*
X121335609Y-63499207D01*
X121414115Y-63653283D01*
X121467552Y-63817743D01*
X121494603Y-63988538D01*
X121494603Y-64161462D01*
X121467552Y-64332257D01*
X121414115Y-64496717D01*
X121335609Y-64650793D01*
X121233967Y-64790692D01*
X121111692Y-64912967D01*
X120971793Y-65014609D01*
X120817717Y-65093115D01*
X120653257Y-65146552D01*
X120482462Y-65173603D01*
X120309538Y-65173603D01*
X120138743Y-65146552D01*
X119974283Y-65093115D01*
X119820207Y-65014609D01*
X119680308Y-64912967D01*
X119558033Y-64790692D01*
X119456391Y-64650793D01*
X119377885Y-64496717D01*
X119324448Y-64332257D01*
X119297397Y-64161462D01*
X119297397Y-63988538D01*
X119324448Y-63817743D01*
X119377885Y-63653283D01*
X119456391Y-63499207D01*
X119558033Y-63359308D01*
X119680308Y-63237033D01*
X119820207Y-63135391D01*
X119974283Y-63056885D01*
X120138743Y-63003448D01*
X120309538Y-62976397D01*
X120482462Y-62976397D01*
X120653257Y-63003448D01*
G37*
G36*
X125733257Y-63003448D02*
G01*
X125897717Y-63056885D01*
X126051793Y-63135391D01*
X126191692Y-63237033D01*
X126313967Y-63359308D01*
X126415609Y-63499207D01*
X126494115Y-63653283D01*
X126547552Y-63817743D01*
X126574603Y-63988538D01*
X126574603Y-64161462D01*
X126547552Y-64332257D01*
X126494115Y-64496717D01*
X126415609Y-64650793D01*
X126313967Y-64790692D01*
X126191692Y-64912967D01*
X126051793Y-65014609D01*
X125897717Y-65093115D01*
X125733257Y-65146552D01*
X125562462Y-65173603D01*
X125389538Y-65173603D01*
X125218743Y-65146552D01*
X125054283Y-65093115D01*
X124900207Y-65014609D01*
X124760308Y-64912967D01*
X124638033Y-64790692D01*
X124536391Y-64650793D01*
X124457885Y-64496717D01*
X124404448Y-64332257D01*
X124377397Y-64161462D01*
X124377397Y-63988538D01*
X124404448Y-63817743D01*
X124457885Y-63653283D01*
X124536391Y-63499207D01*
X124638033Y-63359308D01*
X124760308Y-63237033D01*
X124900207Y-63135391D01*
X125054283Y-63056885D01*
X125218743Y-63003448D01*
X125389538Y-62976397D01*
X125562462Y-62976397D01*
X125733257Y-63003448D01*
G37*
G36*
X130813257Y-63003448D02*
G01*
X130977717Y-63056885D01*
X131131793Y-63135391D01*
X131271692Y-63237033D01*
X131393967Y-63359308D01*
X131495609Y-63499207D01*
X131574115Y-63653283D01*
X131627552Y-63817743D01*
X131654603Y-63988538D01*
X131654603Y-64161462D01*
X131627552Y-64332257D01*
X131574115Y-64496717D01*
X131495609Y-64650793D01*
X131393967Y-64790692D01*
X131271692Y-64912967D01*
X131131793Y-65014609D01*
X130977717Y-65093115D01*
X130813257Y-65146552D01*
X130642462Y-65173603D01*
X130469538Y-65173603D01*
X130298743Y-65146552D01*
X130134283Y-65093115D01*
X129980207Y-65014609D01*
X129840308Y-64912967D01*
X129718033Y-64790692D01*
X129616391Y-64650793D01*
X129537885Y-64496717D01*
X129484448Y-64332257D01*
X129457397Y-64161462D01*
X129457397Y-63988538D01*
X129484448Y-63817743D01*
X129537885Y-63653283D01*
X129616391Y-63499207D01*
X129718033Y-63359308D01*
X129840308Y-63237033D01*
X129980207Y-63135391D01*
X130134283Y-63056885D01*
X130298743Y-63003448D01*
X130469538Y-62976397D01*
X130642462Y-62976397D01*
X130813257Y-63003448D01*
G37*
G36*
X133353257Y-63003448D02*
G01*
X133517717Y-63056885D01*
X133671793Y-63135391D01*
X133811692Y-63237033D01*
X133933967Y-63359308D01*
X134035609Y-63499207D01*
X134114115Y-63653283D01*
X134167552Y-63817743D01*
X134194603Y-63988538D01*
X134194603Y-64161462D01*
X134167552Y-64332257D01*
X134114115Y-64496717D01*
X134035609Y-64650793D01*
X133933967Y-64790692D01*
X133811692Y-64912967D01*
X133671793Y-65014609D01*
X133517717Y-65093115D01*
X133353257Y-65146552D01*
X133182462Y-65173603D01*
X133009538Y-65173603D01*
X132838743Y-65146552D01*
X132674283Y-65093115D01*
X132520207Y-65014609D01*
X132380308Y-64912967D01*
X132258033Y-64790692D01*
X132156391Y-64650793D01*
X132077885Y-64496717D01*
X132024448Y-64332257D01*
X131997397Y-64161462D01*
X131997397Y-63988538D01*
X132024448Y-63817743D01*
X132077885Y-63653283D01*
X132156391Y-63499207D01*
X132258033Y-63359308D01*
X132380308Y-63237033D01*
X132520207Y-63135391D01*
X132674283Y-63056885D01*
X132838743Y-63003448D01*
X133009538Y-62976397D01*
X133182462Y-62976397D01*
X133353257Y-63003448D01*
G37*
G36*
X135893257Y-63003448D02*
G01*
X136057717Y-63056885D01*
X136211793Y-63135391D01*
X136351692Y-63237033D01*
X136473967Y-63359308D01*
X136575609Y-63499207D01*
X136654115Y-63653283D01*
X136707552Y-63817743D01*
X136734603Y-63988538D01*
X136734603Y-64161462D01*
X136707552Y-64332257D01*
X136654115Y-64496717D01*
X136575609Y-64650793D01*
X136473967Y-64790692D01*
X136351692Y-64912967D01*
X136211793Y-65014609D01*
X136057717Y-65093115D01*
X135893257Y-65146552D01*
X135722462Y-65173603D01*
X135549538Y-65173603D01*
X135378743Y-65146552D01*
X135214283Y-65093115D01*
X135060207Y-65014609D01*
X134920308Y-64912967D01*
X134798033Y-64790692D01*
X134696391Y-64650793D01*
X134617885Y-64496717D01*
X134564448Y-64332257D01*
X134537397Y-64161462D01*
X134537397Y-63988538D01*
X134564448Y-63817743D01*
X134617885Y-63653283D01*
X134696391Y-63499207D01*
X134798033Y-63359308D01*
X134920308Y-63237033D01*
X135060207Y-63135391D01*
X135214283Y-63056885D01*
X135378743Y-63003448D01*
X135549538Y-62976397D01*
X135722462Y-62976397D01*
X135893257Y-63003448D01*
G37*
G36*
X118113257Y-63003447D02*
G01*
X118277717Y-63056884D01*
X118431793Y-63135390D01*
X118571692Y-63237032D01*
X118693967Y-63359307D01*
X118795609Y-63499206D01*
X118874115Y-63653282D01*
X118927552Y-63817742D01*
X118954603Y-63988537D01*
X118954603Y-64161461D01*
X118927552Y-64332256D01*
X118874115Y-64496716D01*
X118795609Y-64650792D01*
X118693967Y-64790691D01*
X118571692Y-64912966D01*
X118431793Y-65014608D01*
X118277717Y-65093114D01*
X118113257Y-65146551D01*
X117942462Y-65173602D01*
X117769538Y-65173602D01*
X117598743Y-65146551D01*
X117434283Y-65093114D01*
X117280207Y-65014608D01*
X117140308Y-64912966D01*
X117018033Y-64790691D01*
X116916391Y-64650792D01*
X116837885Y-64496716D01*
X116784448Y-64332256D01*
X116757397Y-64161461D01*
X116757397Y-63988537D01*
X116784448Y-63817742D01*
X116837885Y-63653282D01*
X116916391Y-63499206D01*
X117018033Y-63359307D01*
X117140308Y-63237032D01*
X117280207Y-63135390D01*
X117434283Y-63056884D01*
X117598743Y-63003447D01*
X117769538Y-62976396D01*
X117942462Y-62976396D01*
X118113257Y-63003447D01*
G37*
G36*
X123193257Y-63003447D02*
G01*
X123357717Y-63056884D01*
X123511793Y-63135390D01*
X123651692Y-63237032D01*
X123773967Y-63359307D01*
X123875609Y-63499206D01*
X123954115Y-63653282D01*
X124007552Y-63817742D01*
X124034603Y-63988537D01*
X124034603Y-64161461D01*
X124007552Y-64332256D01*
X123954115Y-64496716D01*
X123875609Y-64650792D01*
X123773967Y-64790691D01*
X123651692Y-64912966D01*
X123511793Y-65014608D01*
X123357717Y-65093114D01*
X123193257Y-65146551D01*
X123022462Y-65173602D01*
X122849538Y-65173602D01*
X122678743Y-65146551D01*
X122514283Y-65093114D01*
X122360207Y-65014608D01*
X122220308Y-64912966D01*
X122098033Y-64790691D01*
X121996391Y-64650792D01*
X121917885Y-64496716D01*
X121864448Y-64332256D01*
X121837397Y-64161461D01*
X121837397Y-63988537D01*
X121864448Y-63817742D01*
X121917885Y-63653282D01*
X121996391Y-63499206D01*
X122098033Y-63359307D01*
X122220308Y-63237032D01*
X122360207Y-63135390D01*
X122514283Y-63056884D01*
X122678743Y-63003447D01*
X122849538Y-62976396D01*
X123022462Y-62976396D01*
X123193257Y-63003447D01*
G37*
G36*
X128273257Y-63003447D02*
G01*
X128437717Y-63056884D01*
X128591793Y-63135390D01*
X128731692Y-63237032D01*
X128853967Y-63359307D01*
X128955609Y-63499206D01*
X129034115Y-63653282D01*
X129087552Y-63817742D01*
X129114603Y-63988537D01*
X129114603Y-64161461D01*
X129087552Y-64332256D01*
X129034115Y-64496716D01*
X128955609Y-64650792D01*
X128853967Y-64790691D01*
X128731692Y-64912966D01*
X128591793Y-65014608D01*
X128437717Y-65093114D01*
X128273257Y-65146551D01*
X128102462Y-65173602D01*
X127929538Y-65173602D01*
X127758743Y-65146551D01*
X127594283Y-65093114D01*
X127440207Y-65014608D01*
X127300308Y-64912966D01*
X127178033Y-64790691D01*
X127076391Y-64650792D01*
X126997885Y-64496716D01*
X126944448Y-64332256D01*
X126917397Y-64161461D01*
X126917397Y-63988537D01*
X126944448Y-63817742D01*
X126997885Y-63653282D01*
X127076391Y-63499206D01*
X127178033Y-63359307D01*
X127300308Y-63237032D01*
X127440207Y-63135390D01*
X127594283Y-63056884D01*
X127758743Y-63003447D01*
X127929538Y-62976396D01*
X128102462Y-62976396D01*
X128273257Y-63003447D01*
G37*
G36*
X179791313Y-60130339D02*
G01*
X179964546Y-60164797D01*
X180127728Y-60232389D01*
X180274588Y-60330518D01*
X180399482Y-60455412D01*
X180497611Y-60602272D01*
X180565203Y-60765454D01*
X180599661Y-60938687D01*
X180599661Y-61115313D01*
X180565203Y-61288546D01*
X180497611Y-61451728D01*
X180399482Y-61598588D01*
X180274588Y-61723482D01*
X180127728Y-61821611D01*
X179964546Y-61889203D01*
X179791313Y-61923661D01*
X179703000Y-61928000D01*
X179699941Y-61928000D01*
X179456059Y-61928000D01*
X179453000Y-61928000D01*
X179364687Y-61923661D01*
X179191454Y-61889203D01*
X179028272Y-61821611D01*
X178881412Y-61723482D01*
X178756518Y-61598588D01*
X178658389Y-61451728D01*
X178590797Y-61288546D01*
X178556339Y-61115313D01*
X178556339Y-60938687D01*
X178590797Y-60765454D01*
X178658389Y-60602272D01*
X178756518Y-60455412D01*
X178881412Y-60330518D01*
X179028272Y-60232389D01*
X179191454Y-60164797D01*
X179364687Y-60130339D01*
X179453000Y-60126000D01*
X179703000Y-60126000D01*
X179791313Y-60130339D01*
G37*
G36*
X171165021Y-54188187D02*
G01*
X171477929Y-54250428D01*
X171783229Y-54343040D01*
X172077982Y-54465131D01*
X172359348Y-54615524D01*
X172624618Y-54792772D01*
X172871238Y-54995168D01*
X173096832Y-55220762D01*
X173299228Y-55467382D01*
X173476476Y-55732652D01*
X173626869Y-56014018D01*
X173748960Y-56308771D01*
X173841572Y-56614071D01*
X173903813Y-56926979D01*
X173935084Y-57244481D01*
X173935084Y-57563519D01*
X173903813Y-57881021D01*
X173841572Y-58193929D01*
X173748960Y-58499229D01*
X173626869Y-58793982D01*
X173476476Y-59075348D01*
X173299228Y-59340618D01*
X173096832Y-59587238D01*
X172871238Y-59812832D01*
X172624618Y-60015228D01*
X172359348Y-60192476D01*
X172077982Y-60342869D01*
X171783229Y-60464960D01*
X171477929Y-60557572D01*
X171165021Y-60619813D01*
X170847519Y-60651084D01*
X170528481Y-60651084D01*
X170210979Y-60619813D01*
X169898071Y-60557572D01*
X169592771Y-60464960D01*
X169298018Y-60342869D01*
X169016652Y-60192476D01*
X168751382Y-60015228D01*
X168504762Y-59812832D01*
X168279168Y-59587238D01*
X168076772Y-59340618D01*
X167899524Y-59075348D01*
X167749131Y-58793982D01*
X167627040Y-58499229D01*
X167534428Y-58193929D01*
X167472187Y-57881021D01*
X167440916Y-57563519D01*
X167440916Y-57244481D01*
X167472187Y-56926979D01*
X167534428Y-56614071D01*
X167627040Y-56308771D01*
X167749131Y-56014018D01*
X167899524Y-55732652D01*
X168076772Y-55467382D01*
X168279168Y-55220762D01*
X168504762Y-54995168D01*
X168751382Y-54792772D01*
X169016652Y-54615524D01*
X169298018Y-54465131D01*
X169592771Y-54343040D01*
X169898071Y-54250428D01*
X170210979Y-54188187D01*
X170528481Y-54156916D01*
X170847519Y-54156916D01*
X171165021Y-54188187D01*
G37*
G36*
X98013021Y-53934187D02*
G01*
X98325929Y-53996428D01*
X98631229Y-54089040D01*
X98925982Y-54211131D01*
X99207348Y-54361524D01*
X99472618Y-54538772D01*
X99719238Y-54741168D01*
X99944832Y-54966762D01*
X100147228Y-55213382D01*
X100324476Y-55478652D01*
X100474869Y-55760018D01*
X100596960Y-56054771D01*
X100689572Y-56360071D01*
X100751813Y-56672979D01*
X100783084Y-56990481D01*
X100783084Y-57309519D01*
X100751813Y-57627021D01*
X100689572Y-57939929D01*
X100596960Y-58245229D01*
X100474869Y-58539982D01*
X100324476Y-58821348D01*
X100147228Y-59086618D01*
X99944832Y-59333238D01*
X99719238Y-59558832D01*
X99472618Y-59761228D01*
X99207348Y-59938476D01*
X98925982Y-60088869D01*
X98631229Y-60210960D01*
X98325929Y-60303572D01*
X98013021Y-60365813D01*
X97695519Y-60397084D01*
X97376481Y-60397084D01*
X97058979Y-60365813D01*
X96746071Y-60303572D01*
X96440771Y-60210960D01*
X96146018Y-60088869D01*
X95864652Y-59938476D01*
X95599382Y-59761228D01*
X95352762Y-59558832D01*
X95127168Y-59333238D01*
X94924772Y-59086618D01*
X94747524Y-58821348D01*
X94597131Y-58539982D01*
X94475040Y-58245229D01*
X94382428Y-57939929D01*
X94320187Y-57627021D01*
X94288916Y-57309519D01*
X94288916Y-56990481D01*
X94320187Y-56672979D01*
X94382428Y-56360071D01*
X94475040Y-56054771D01*
X94597131Y-55760018D01*
X94747524Y-55478652D01*
X94924772Y-55213382D01*
X95127168Y-54966762D01*
X95352762Y-54741168D01*
X95599382Y-54538772D01*
X95864652Y-54361524D01*
X96146018Y-54211131D01*
X96440771Y-54089040D01*
X96746071Y-53996428D01*
X97058979Y-53934187D01*
X97376481Y-53902916D01*
X97695519Y-53902916D01*
X98013021Y-53934187D01*
G37*
G36*
X179791313Y-57630339D02*
G01*
X179964546Y-57664797D01*
X180127728Y-57732389D01*
X180274588Y-57830518D01*
X180399482Y-57955412D01*
X180497611Y-58102272D01*
X180565203Y-58265454D01*
X180599661Y-58438687D01*
X180599661Y-58615313D01*
X180565203Y-58788546D01*
X180497611Y-58951728D01*
X180399482Y-59098588D01*
X180274588Y-59223482D01*
X180127728Y-59321611D01*
X179964546Y-59389203D01*
X179791313Y-59423661D01*
X179703000Y-59428000D01*
X179699941Y-59428000D01*
X179456059Y-59428000D01*
X179453000Y-59428000D01*
X179364687Y-59423661D01*
X179191454Y-59389203D01*
X179028272Y-59321611D01*
X178881412Y-59223482D01*
X178756518Y-59098588D01*
X178658389Y-58951728D01*
X178590797Y-58788546D01*
X178556339Y-58615313D01*
X178556339Y-58438687D01*
X178590797Y-58265454D01*
X178658389Y-58102272D01*
X178756518Y-57955412D01*
X178881412Y-57830518D01*
X179028272Y-57732389D01*
X179191454Y-57664797D01*
X179364687Y-57630339D01*
X179453000Y-57626000D01*
X179703000Y-57626000D01*
X179791313Y-57630339D01*
G37*
G36*
X139646914Y-54903995D02*
G01*
X139662726Y-54910976D01*
X139670531Y-54912213D01*
X139703039Y-54928776D01*
X139748106Y-54948676D01*
X139826324Y-55026894D01*
X139846226Y-55071967D01*
X139862786Y-55104468D01*
X139864021Y-55112270D01*
X139871005Y-55128086D01*
X139879000Y-55197000D01*
X139879000Y-56697000D01*
X139871005Y-56765914D01*
X139864021Y-56781729D01*
X139862786Y-56789531D01*
X139846229Y-56822024D01*
X139826324Y-56867106D01*
X139748106Y-56945324D01*
X139703024Y-56965229D01*
X139670531Y-56981786D01*
X139662729Y-56983021D01*
X139646914Y-56990005D01*
X139578000Y-56998000D01*
X138378000Y-56998000D01*
X138309086Y-56990005D01*
X138293270Y-56983021D01*
X138285468Y-56981786D01*
X138252967Y-56965226D01*
X138207894Y-56945324D01*
X138129676Y-56867106D01*
X138109776Y-56822039D01*
X138093213Y-56789531D01*
X138091976Y-56781726D01*
X138084995Y-56765914D01*
X138077000Y-56697000D01*
X138077000Y-55197000D01*
X138084995Y-55128086D01*
X138091976Y-55112274D01*
X138093213Y-55104468D01*
X138109780Y-55071953D01*
X138129676Y-55026894D01*
X138207894Y-54948676D01*
X138252953Y-54928780D01*
X138285468Y-54912213D01*
X138293274Y-54910976D01*
X138309086Y-54903995D01*
X138378000Y-54896000D01*
X139578000Y-54896000D01*
X139646914Y-54903995D01*
G37*
G36*
X148536914Y-54903995D02*
G01*
X148552726Y-54910976D01*
X148560531Y-54912213D01*
X148593039Y-54928776D01*
X148638106Y-54948676D01*
X148716324Y-55026894D01*
X148736226Y-55071967D01*
X148752786Y-55104468D01*
X148754021Y-55112270D01*
X148761005Y-55128086D01*
X148769000Y-55197000D01*
X148769000Y-56697000D01*
X148761005Y-56765914D01*
X148754021Y-56781729D01*
X148752786Y-56789531D01*
X148736229Y-56822024D01*
X148716324Y-56867106D01*
X148638106Y-56945324D01*
X148593024Y-56965229D01*
X148560531Y-56981786D01*
X148552729Y-56983021D01*
X148536914Y-56990005D01*
X148468000Y-56998000D01*
X147268000Y-56998000D01*
X147199086Y-56990005D01*
X147183270Y-56983021D01*
X147175468Y-56981786D01*
X147142967Y-56965226D01*
X147097894Y-56945324D01*
X147019676Y-56867106D01*
X146999776Y-56822039D01*
X146983213Y-56789531D01*
X146981976Y-56781726D01*
X146974995Y-56765914D01*
X146967000Y-56697000D01*
X146967000Y-55197000D01*
X146974995Y-55128086D01*
X146981976Y-55112274D01*
X146983213Y-55104468D01*
X146999780Y-55071953D01*
X147019676Y-55026894D01*
X147097894Y-54948676D01*
X147142953Y-54928780D01*
X147175468Y-54912213D01*
X147183274Y-54910976D01*
X147199086Y-54903995D01*
X147268000Y-54896000D01*
X148468000Y-54896000D01*
X148536914Y-54903995D01*
G37*
G36*
X157426914Y-54903995D02*
G01*
X157442726Y-54910976D01*
X157450531Y-54912213D01*
X157483039Y-54928776D01*
X157528106Y-54948676D01*
X157606324Y-55026894D01*
X157626226Y-55071967D01*
X157642786Y-55104468D01*
X157644021Y-55112270D01*
X157651005Y-55128086D01*
X157659000Y-55197000D01*
X157659000Y-56697000D01*
X157651005Y-56765914D01*
X157644021Y-56781729D01*
X157642786Y-56789531D01*
X157626229Y-56822024D01*
X157606324Y-56867106D01*
X157528106Y-56945324D01*
X157483024Y-56965229D01*
X157450531Y-56981786D01*
X157442729Y-56983021D01*
X157426914Y-56990005D01*
X157358000Y-56998000D01*
X156158000Y-56998000D01*
X156089086Y-56990005D01*
X156073270Y-56983021D01*
X156065468Y-56981786D01*
X156032967Y-56965226D01*
X155987894Y-56945324D01*
X155909676Y-56867106D01*
X155889776Y-56822039D01*
X155873213Y-56789531D01*
X155871976Y-56781726D01*
X155864995Y-56765914D01*
X155857000Y-56697000D01*
X155857000Y-55197000D01*
X155864995Y-55128086D01*
X155871976Y-55112274D01*
X155873213Y-55104468D01*
X155889780Y-55071953D01*
X155909676Y-55026894D01*
X155987894Y-54948676D01*
X156032953Y-54928780D01*
X156065468Y-54912213D01*
X156073274Y-54910976D01*
X156089086Y-54903995D01*
X156158000Y-54896000D01*
X157358000Y-54896000D01*
X157426914Y-54903995D01*
G37*
G36*
X141739546Y-54934797D02*
G01*
X141902728Y-55002389D01*
X142049588Y-55100518D01*
X142174482Y-55225412D01*
X142272611Y-55372272D01*
X142340203Y-55535454D01*
X142374661Y-55708687D01*
X142379000Y-55797000D01*
X142379000Y-56097000D01*
X142374661Y-56185313D01*
X142340203Y-56358546D01*
X142272611Y-56521728D01*
X142174482Y-56668588D01*
X142049588Y-56793482D01*
X141902728Y-56891611D01*
X141739546Y-56959203D01*
X141566313Y-56993661D01*
X141389687Y-56993661D01*
X141216454Y-56959203D01*
X141053272Y-56891611D01*
X140906412Y-56793482D01*
X140781518Y-56668588D01*
X140683389Y-56521728D01*
X140615797Y-56358546D01*
X140581339Y-56185313D01*
X140577000Y-56097000D01*
X140577000Y-55797000D01*
X140581339Y-55708687D01*
X140615797Y-55535454D01*
X140683389Y-55372272D01*
X140781518Y-55225412D01*
X140906412Y-55100518D01*
X141053272Y-55002389D01*
X141216454Y-54934797D01*
X141389687Y-54900339D01*
X141566313Y-54900339D01*
X141739546Y-54934797D01*
G37*
G36*
X150629546Y-54934797D02*
G01*
X150792728Y-55002389D01*
X150939588Y-55100518D01*
X151064482Y-55225412D01*
X151162611Y-55372272D01*
X151230203Y-55535454D01*
X151264661Y-55708687D01*
X151269000Y-55797000D01*
X151269000Y-56097000D01*
X151264661Y-56185313D01*
X151230203Y-56358546D01*
X151162611Y-56521728D01*
X151064482Y-56668588D01*
X150939588Y-56793482D01*
X150792728Y-56891611D01*
X150629546Y-56959203D01*
X150456313Y-56993661D01*
X150279687Y-56993661D01*
X150106454Y-56959203D01*
X149943272Y-56891611D01*
X149796412Y-56793482D01*
X149671518Y-56668588D01*
X149573389Y-56521728D01*
X149505797Y-56358546D01*
X149471339Y-56185313D01*
X149467000Y-56097000D01*
X149467000Y-55797000D01*
X149471339Y-55708687D01*
X149505797Y-55535454D01*
X149573389Y-55372272D01*
X149671518Y-55225412D01*
X149796412Y-55100518D01*
X149943272Y-55002389D01*
X150106454Y-54934797D01*
X150279687Y-54900339D01*
X150456313Y-54900339D01*
X150629546Y-54934797D01*
G37*
G36*
X159519546Y-54934797D02*
G01*
X159682728Y-55002389D01*
X159829588Y-55100518D01*
X159954482Y-55225412D01*
X160052611Y-55372272D01*
X160120203Y-55535454D01*
X160154661Y-55708687D01*
X160159000Y-55797000D01*
X160159000Y-56097000D01*
X160154661Y-56185313D01*
X160120203Y-56358546D01*
X160052611Y-56521728D01*
X159954482Y-56668588D01*
X159829588Y-56793482D01*
X159682728Y-56891611D01*
X159519546Y-56959203D01*
X159346313Y-56993661D01*
X159169687Y-56993661D01*
X158996454Y-56959203D01*
X158833272Y-56891611D01*
X158686412Y-56793482D01*
X158561518Y-56668588D01*
X158463389Y-56521728D01*
X158395797Y-56358546D01*
X158361339Y-56185313D01*
X158357000Y-56097000D01*
X158357000Y-55797000D01*
X158361339Y-55708687D01*
X158395797Y-55535454D01*
X158463389Y-55372272D01*
X158561518Y-55225412D01*
X158686412Y-55100518D01*
X158833272Y-55002389D01*
X158996454Y-54934797D01*
X159169687Y-54900339D01*
X159346313Y-54900339D01*
X159519546Y-54934797D01*
G37*
G36*
X130756914Y-54848495D02*
G01*
X130772726Y-54855476D01*
X130780531Y-54856713D01*
X130813039Y-54873276D01*
X130858106Y-54893176D01*
X130936324Y-54971394D01*
X130956226Y-55016467D01*
X130972786Y-55048968D01*
X130974021Y-55056770D01*
X130981005Y-55072586D01*
X130989000Y-55141500D01*
X130989000Y-56641500D01*
X130981005Y-56710414D01*
X130974021Y-56726229D01*
X130972786Y-56734031D01*
X130956229Y-56766524D01*
X130936324Y-56811606D01*
X130858106Y-56889824D01*
X130813024Y-56909729D01*
X130780531Y-56926286D01*
X130772729Y-56927521D01*
X130756914Y-56934505D01*
X130688000Y-56942500D01*
X129488000Y-56942500D01*
X129419086Y-56934505D01*
X129403270Y-56927521D01*
X129395468Y-56926286D01*
X129362967Y-56909726D01*
X129317894Y-56889824D01*
X129239676Y-56811606D01*
X129219776Y-56766539D01*
X129203213Y-56734031D01*
X129201976Y-56726226D01*
X129194995Y-56710414D01*
X129187000Y-56641500D01*
X129187000Y-55141500D01*
X129194995Y-55072586D01*
X129201976Y-55056774D01*
X129203213Y-55048968D01*
X129219780Y-55016453D01*
X129239676Y-54971394D01*
X129317894Y-54893176D01*
X129362953Y-54873280D01*
X129395468Y-54856713D01*
X129403274Y-54855476D01*
X129419086Y-54848495D01*
X129488000Y-54840500D01*
X130688000Y-54840500D01*
X130756914Y-54848495D01*
G37*
G36*
X132849546Y-54879297D02*
G01*
X133012728Y-54946889D01*
X133159588Y-55045018D01*
X133284482Y-55169912D01*
X133382611Y-55316772D01*
X133450203Y-55479954D01*
X133484661Y-55653187D01*
X133489000Y-55741500D01*
X133489000Y-56041500D01*
X133484661Y-56129813D01*
X133450203Y-56303046D01*
X133382611Y-56466228D01*
X133284482Y-56613088D01*
X133159588Y-56737982D01*
X133012728Y-56836111D01*
X132849546Y-56903703D01*
X132676313Y-56938161D01*
X132499687Y-56938161D01*
X132326454Y-56903703D01*
X132163272Y-56836111D01*
X132016412Y-56737982D01*
X131891518Y-56613088D01*
X131793389Y-56466228D01*
X131725797Y-56303046D01*
X131691339Y-56129813D01*
X131687000Y-56041500D01*
X131687000Y-55741500D01*
X131691339Y-55653187D01*
X131725797Y-55479954D01*
X131793389Y-55316772D01*
X131891518Y-55169912D01*
X132016412Y-55045018D01*
X132163272Y-54946889D01*
X132326454Y-54879297D01*
X132499687Y-54844839D01*
X132676313Y-54844839D01*
X132849546Y-54879297D01*
G37*
G36*
X180371914Y-55133995D02*
G01*
X180387726Y-55140976D01*
X180395531Y-55142213D01*
X180428039Y-55158776D01*
X180473106Y-55178676D01*
X180551324Y-55256894D01*
X180571226Y-55301967D01*
X180587786Y-55334468D01*
X180589021Y-55342270D01*
X180596005Y-55358086D01*
X180604000Y-55427000D01*
X180604000Y-56627000D01*
X180596005Y-56695914D01*
X180589021Y-56711729D01*
X180587786Y-56719531D01*
X180571229Y-56752024D01*
X180551324Y-56797106D01*
X180473106Y-56875324D01*
X180428024Y-56895229D01*
X180395531Y-56911786D01*
X180387729Y-56913021D01*
X180371914Y-56920005D01*
X180303000Y-56928000D01*
X178853000Y-56928000D01*
X178784086Y-56920005D01*
X178768270Y-56913021D01*
X178760468Y-56911786D01*
X178727967Y-56895226D01*
X178682894Y-56875324D01*
X178604676Y-56797106D01*
X178584776Y-56752039D01*
X178568213Y-56719531D01*
X178566976Y-56711726D01*
X178559995Y-56695914D01*
X178552000Y-56627000D01*
X178552000Y-55427000D01*
X178559995Y-55358086D01*
X178566976Y-55342274D01*
X178568213Y-55334468D01*
X178584780Y-55301953D01*
X178604676Y-55256894D01*
X178682894Y-55178676D01*
X178727953Y-55158780D01*
X178760468Y-55142213D01*
X178768274Y-55140976D01*
X178784086Y-55133995D01*
X178853000Y-55126000D01*
X180303000Y-55126000D01*
X180371914Y-55133995D01*
G37*
M02*
