%TF.GenerationSoftware,KiCad,Pcbnew,9.0.0*%
%TF.CreationDate,2025-06-15T15:42:35+02:00*%
%TF.ProjectId,plant_watner_V3.0,706c616e-745f-4776-9174-6e65725f5633,rev?*%
%TF.SameCoordinates,Original*%
%TF.FileFunction,Drillmap*%
%TF.FilePolarity,Positive*%
%FSLAX45Y45*%
G04 Gerber Fmt 4.5, Leading zero omitted, Abs format (unit mm)*
G04 Created by KiCad (PCBNEW 9.0.0) date 2025-06-15 15:42:35*
%MOMM*%
%LPD*%
G01*
G04 APERTURE LIST*
%ADD10C,0.150000*%
%ADD11C,0.200000*%
%ADD12C,0.100000*%
%ADD13C,0.102000*%
%ADD14C,0.110000*%
%ADD15C,0.320000*%
G04 APERTURE END LIST*
D10*
X8940800Y-13214700D02*
X8940800Y-5848700D01*
X18719800Y-13214700D02*
X18211800Y-13722700D01*
X8940800Y-5848700D02*
X8940800Y-5594700D01*
X9448800Y-13722700D02*
X8940800Y-13214700D01*
X9575800Y-4959700D02*
X18211800Y-4959700D01*
X8940800Y-5594700D02*
X9575800Y-4959700D01*
X18211800Y-13722700D02*
X9448800Y-13722700D01*
X18211800Y-4959700D02*
X18719800Y-5467700D01*
X18719800Y-5467700D02*
X18719800Y-13214700D01*
D11*
D12*
X11093400Y-12034400D02*
X11168400Y-12109400D01*
X11168400Y-12034400D02*
X11093400Y-12109400D01*
X11220400Y-12034400D02*
X11295400Y-12109400D01*
X11295400Y-12034400D02*
X11220400Y-12109400D01*
X11347400Y-12034400D02*
X11422400Y-12109400D01*
X11422400Y-12034400D02*
X11347400Y-12109400D01*
X11368250Y-6815050D02*
G75*
G02*
X11292050Y-6815050I-38100J0D01*
G01*
X11292050Y-6815050D02*
G75*
G02*
X11368250Y-6815050I38100J0D01*
G01*
X11622250Y-6815050D02*
G75*
G02*
X11546050Y-6815050I-38100J0D01*
G01*
X11546050Y-6815050D02*
G75*
G02*
X11622250Y-6815050I38100J0D01*
G01*
X11876250Y-6815050D02*
G75*
G02*
X11800050Y-6815050I-38100J0D01*
G01*
X11800050Y-6815050D02*
G75*
G02*
X11876250Y-6815050I38100J0D01*
G01*
X12130250Y-6815050D02*
G75*
G02*
X12054050Y-6815050I-38100J0D01*
G01*
X12054050Y-6815050D02*
G75*
G02*
X12130250Y-6815050I38100J0D01*
G01*
X15005050Y-6815050D02*
G75*
G02*
X14928850Y-6815050I-38100J0D01*
G01*
X14928850Y-6815050D02*
G75*
G02*
X15005050Y-6815050I38100J0D01*
G01*
X15259050Y-6815050D02*
G75*
G02*
X15182850Y-6815050I-38100J0D01*
G01*
X15182850Y-6815050D02*
G75*
G02*
X15259050Y-6815050I38100J0D01*
G01*
X15513050Y-6815050D02*
G75*
G02*
X15436850Y-6815050I-38100J0D01*
G01*
X15436850Y-6815050D02*
G75*
G02*
X15513050Y-6815050I38100J0D01*
G01*
X15767050Y-6815050D02*
G75*
G02*
X15690850Y-6815050I-38100J0D01*
G01*
X15690850Y-6815050D02*
G75*
G02*
X15767050Y-6815050I38100J0D01*
G01*
X9457918Y-13211700D02*
X9457918Y-13291700D01*
X9417918Y-13251700D02*
X9497918Y-13251700D01*
X10337800Y-12703700D02*
X10337800Y-12783700D01*
X10297800Y-12743700D02*
X10377800Y-12743700D01*
X10473918Y-13211700D02*
X10473918Y-13291700D01*
X10433918Y-13251700D02*
X10513918Y-13251700D01*
X11353800Y-12703700D02*
X11353800Y-12783700D01*
X11313800Y-12743700D02*
X11393800Y-12743700D01*
X11718518Y-13211700D02*
X11718518Y-13291700D01*
X11678518Y-13251700D02*
X11758518Y-13251700D01*
X12598400Y-12703700D02*
X12598400Y-12783700D01*
X12558400Y-12743700D02*
X12638400Y-12743700D01*
X12886918Y-13211700D02*
X12886918Y-13291700D01*
X12846918Y-13251700D02*
X12926918Y-13251700D01*
X13766800Y-12703700D02*
X13766800Y-12783700D01*
X13726800Y-12743700D02*
X13806800Y-12743700D01*
X14029918Y-13211700D02*
X14029918Y-13291700D01*
X13989918Y-13251700D02*
X14069918Y-13251700D01*
X14909800Y-12703700D02*
X14909800Y-12783700D01*
X14869800Y-12743700D02*
X14949800Y-12743700D01*
X15172918Y-13211700D02*
X15172918Y-13291700D01*
X15132918Y-13251700D02*
X15212918Y-13251700D01*
X16052800Y-12703700D02*
X16052800Y-12783700D01*
X16012800Y-12743700D02*
X16092800Y-12743700D01*
X10369620Y-12140520D02*
X10369620Y-12076880D01*
X10305980Y-12076880D01*
X10305980Y-12140520D01*
X10369620Y-12140520D01*
X10369620Y-12394520D02*
X10369620Y-12330880D01*
X10305980Y-12330880D01*
X10305980Y-12394520D01*
X10369620Y-12394520D01*
X12630220Y-12140520D02*
X12630220Y-12076880D01*
X12566580Y-12076880D01*
X12566580Y-12140520D01*
X12630220Y-12140520D01*
X12630220Y-12394520D02*
X12630220Y-12330880D01*
X12566580Y-12330880D01*
X12566580Y-12394520D01*
X12630220Y-12394520D01*
X13798620Y-12140520D02*
X13798620Y-12076880D01*
X13734980Y-12076880D01*
X13734980Y-12140520D01*
X13798620Y-12140520D01*
X13798620Y-12394520D02*
X13798620Y-12330880D01*
X13734980Y-12330880D01*
X13734980Y-12394520D01*
X13798620Y-12394520D01*
X14941620Y-12140520D02*
X14941620Y-12076880D01*
X14877980Y-12076880D01*
X14877980Y-12140520D01*
X14941620Y-12140520D01*
X14941620Y-12394520D02*
X14941620Y-12330880D01*
X14877980Y-12330880D01*
X14877980Y-12394520D01*
X14941620Y-12394520D01*
X16084620Y-12140520D02*
X16084620Y-12076880D01*
X16020980Y-12076880D01*
X16020980Y-12140520D01*
X16084620Y-12140520D01*
X16084620Y-12394520D02*
X16084620Y-12330880D01*
X16020980Y-12330880D01*
X16020980Y-12394520D01*
X16084620Y-12394520D01*
X17957800Y-5650200D02*
X18005300Y-5602700D01*
X17957800Y-5555200D01*
X17910300Y-5602700D01*
X17957800Y-5650200D01*
X17957800Y-5900200D02*
X18005300Y-5852700D01*
X17957800Y-5805200D01*
X17910300Y-5852700D01*
X17957800Y-5900200D01*
X17957800Y-6150200D02*
X18005300Y-6102700D01*
X17957800Y-6055200D01*
X17910300Y-6102700D01*
X17957800Y-6150200D01*
X17957800Y-6793200D02*
X18005300Y-6745700D01*
X17957800Y-6698200D01*
X17910300Y-6745700D01*
X17957800Y-6793200D01*
X17957800Y-7043200D02*
X18005300Y-6995700D01*
X17957800Y-6948200D01*
X17910300Y-6995700D01*
X17957800Y-7043200D01*
X17957800Y-7293200D02*
X18005300Y-7245700D01*
X17957800Y-7198200D01*
X17910300Y-7245700D01*
X17957800Y-7293200D01*
X17957800Y-7936200D02*
X18005300Y-7888700D01*
X17957800Y-7841200D01*
X17910300Y-7888700D01*
X17957800Y-7936200D01*
X17957800Y-8186200D02*
X18005300Y-8138700D01*
X17957800Y-8091200D01*
X17910300Y-8138700D01*
X17957800Y-8186200D01*
X17957800Y-8436200D02*
X18005300Y-8388700D01*
X17957800Y-8341200D01*
X17910300Y-8388700D01*
X17957800Y-8436200D01*
X17957800Y-9079200D02*
X18005300Y-9031700D01*
X17957800Y-8984200D01*
X17910300Y-9031700D01*
X17957800Y-9079200D01*
X17957800Y-9329200D02*
X18005300Y-9281700D01*
X17957800Y-9234200D01*
X17910300Y-9281700D01*
X17957800Y-9329200D01*
X17957800Y-9579200D02*
X18005300Y-9531700D01*
X17957800Y-9484200D01*
X17910300Y-9531700D01*
X17957800Y-9579200D01*
X12958800Y-5539150D02*
X13058800Y-5639150D01*
X13058800Y-5539150D02*
X12958800Y-5639150D01*
X13058800Y-5589150D02*
G75*
G02*
X12958800Y-5589150I-50000J0D01*
G01*
X12958800Y-5589150D02*
G75*
G02*
X13058800Y-5589150I50000J0D01*
G01*
X13208800Y-5539150D02*
X13308800Y-5639150D01*
X13308800Y-5539150D02*
X13208800Y-5639150D01*
X13308800Y-5589150D02*
G75*
G02*
X13208800Y-5589150I-50000J0D01*
G01*
X13208800Y-5589150D02*
G75*
G02*
X13308800Y-5589150I50000J0D01*
G01*
X13847800Y-5544700D02*
X13947800Y-5644700D01*
X13947800Y-5544700D02*
X13847800Y-5644700D01*
X13947800Y-5594700D02*
G75*
G02*
X13847800Y-5594700I-50000J0D01*
G01*
X13847800Y-5594700D02*
G75*
G02*
X13947800Y-5594700I50000J0D01*
G01*
X14097800Y-5544700D02*
X14197800Y-5644700D01*
X14197800Y-5544700D02*
X14097800Y-5644700D01*
X14197800Y-5594700D02*
G75*
G02*
X14097800Y-5594700I-50000J0D01*
G01*
X14097800Y-5594700D02*
G75*
G02*
X14197800Y-5594700I50000J0D01*
G01*
X14736800Y-5544700D02*
X14836800Y-5644700D01*
X14836800Y-5544700D02*
X14736800Y-5644700D01*
X14836800Y-5594700D02*
G75*
G02*
X14736800Y-5594700I-50000J0D01*
G01*
X14736800Y-5594700D02*
G75*
G02*
X14836800Y-5594700I50000J0D01*
G01*
X14986800Y-5544700D02*
X15086800Y-5644700D01*
X15086800Y-5544700D02*
X14986800Y-5644700D01*
X15086800Y-5594700D02*
G75*
G02*
X14986800Y-5594700I-50000J0D01*
G01*
X14986800Y-5594700D02*
G75*
G02*
X15086800Y-5594700I50000J0D01*
G01*
X15625800Y-5544700D02*
X15725800Y-5644700D01*
X15725800Y-5544700D02*
X15625800Y-5644700D01*
X15725800Y-5594700D02*
G75*
G02*
X15625800Y-5594700I-50000J0D01*
G01*
X15625800Y-5594700D02*
G75*
G02*
X15725800Y-5594700I50000J0D01*
G01*
X15875800Y-5544700D02*
X15975800Y-5644700D01*
X15975800Y-5544700D02*
X15875800Y-5644700D01*
X15975800Y-5594700D02*
G75*
G02*
X15875800Y-5594700I-50000J0D01*
G01*
X15875800Y-5594700D02*
G75*
G02*
X15975800Y-5594700I50000J0D01*
G01*
X17224800Y-11804700D02*
X17324800Y-11904700D01*
X17324800Y-11804700D02*
X17224800Y-11904700D01*
X17324800Y-11854700D02*
G75*
G02*
X17224800Y-11854700I-50000J0D01*
G01*
X17224800Y-11854700D02*
G75*
G02*
X17324800Y-11854700I50000J0D01*
G01*
X17224800Y-13254700D02*
X17324800Y-13354700D01*
X17324800Y-13254700D02*
X17224800Y-13354700D01*
X17324800Y-13304700D02*
G75*
G02*
X17224800Y-13304700I-50000J0D01*
G01*
X17224800Y-13304700D02*
G75*
G02*
X17324800Y-13304700I50000J0D01*
G01*
X17474800Y-11804700D02*
X17574800Y-11904700D01*
X17574800Y-11804700D02*
X17474800Y-11904700D01*
X17574800Y-11854700D02*
G75*
G02*
X17474800Y-11854700I-50000J0D01*
G01*
X17474800Y-11854700D02*
G75*
G02*
X17574800Y-11854700I50000J0D01*
G01*
X17724800Y-11804700D02*
X17824800Y-11904700D01*
X17824800Y-11804700D02*
X17724800Y-11904700D01*
X17824800Y-11854700D02*
G75*
G02*
X17724800Y-11854700I-50000J0D01*
G01*
X17724800Y-11854700D02*
G75*
G02*
X17824800Y-11854700I50000J0D01*
G01*
X17724800Y-13254700D02*
X17824800Y-13354700D01*
X17824800Y-13254700D02*
X17724800Y-13354700D01*
X17824800Y-13304700D02*
G75*
G02*
X17724800Y-13304700I-50000J0D01*
G01*
X17724800Y-13304700D02*
G75*
G02*
X17824800Y-13304700I50000J0D01*
G01*
D13*
X9956600Y-6356500D02*
X10058600Y-6458500D01*
X10058600Y-6356500D02*
X9956600Y-6458500D01*
X10007600Y-6356500D02*
X10007600Y-6458500D01*
X9956600Y-6407500D02*
X10058600Y-6407500D01*
X9956600Y-8896500D02*
X10058600Y-8998500D01*
X10058600Y-8896500D02*
X9956600Y-8998500D01*
X10007600Y-8896500D02*
X10007600Y-8998500D01*
X9956600Y-8947500D02*
X10058600Y-8947500D01*
X10210600Y-6356500D02*
X10312600Y-6458500D01*
X10312600Y-6356500D02*
X10210600Y-6458500D01*
X10261600Y-6356500D02*
X10261600Y-6458500D01*
X10210600Y-6407500D02*
X10312600Y-6407500D01*
X10210600Y-8896500D02*
X10312600Y-8998500D01*
X10312600Y-8896500D02*
X10210600Y-8998500D01*
X10261600Y-8896500D02*
X10261600Y-8998500D01*
X10210600Y-8947500D02*
X10312600Y-8947500D01*
X10464600Y-6356500D02*
X10566600Y-6458500D01*
X10566600Y-6356500D02*
X10464600Y-6458500D01*
X10515600Y-6356500D02*
X10515600Y-6458500D01*
X10464600Y-6407500D02*
X10566600Y-6407500D01*
X10464600Y-8896500D02*
X10566600Y-8998500D01*
X10566600Y-8896500D02*
X10464600Y-8998500D01*
X10515600Y-8896500D02*
X10515600Y-8998500D01*
X10464600Y-8947500D02*
X10566600Y-8947500D01*
X10718600Y-6356500D02*
X10820600Y-6458500D01*
X10820600Y-6356500D02*
X10718600Y-6458500D01*
X10769600Y-6356500D02*
X10769600Y-6458500D01*
X10718600Y-6407500D02*
X10820600Y-6407500D01*
X10718600Y-8896500D02*
X10820600Y-8998500D01*
X10820600Y-8896500D02*
X10718600Y-8998500D01*
X10769600Y-8896500D02*
X10769600Y-8998500D01*
X10718600Y-8947500D02*
X10820600Y-8947500D01*
X10972600Y-6356500D02*
X11074600Y-6458500D01*
X11074600Y-6356500D02*
X10972600Y-6458500D01*
X11023600Y-6356500D02*
X11023600Y-6458500D01*
X10972600Y-6407500D02*
X11074600Y-6407500D01*
X10972600Y-8896500D02*
X11074600Y-8998500D01*
X11074600Y-8896500D02*
X10972600Y-8998500D01*
X11023600Y-8896500D02*
X11023600Y-8998500D01*
X10972600Y-8947500D02*
X11074600Y-8947500D01*
X11226600Y-6356500D02*
X11328600Y-6458500D01*
X11328600Y-6356500D02*
X11226600Y-6458500D01*
X11277600Y-6356500D02*
X11277600Y-6458500D01*
X11226600Y-6407500D02*
X11328600Y-6407500D01*
X11226600Y-8896500D02*
X11328600Y-8998500D01*
X11328600Y-8896500D02*
X11226600Y-8998500D01*
X11277600Y-8896500D02*
X11277600Y-8998500D01*
X11226600Y-8947500D02*
X11328600Y-8947500D01*
X11480600Y-6356500D02*
X11582600Y-6458500D01*
X11582600Y-6356500D02*
X11480600Y-6458500D01*
X11531600Y-6356500D02*
X11531600Y-6458500D01*
X11480600Y-6407500D02*
X11582600Y-6407500D01*
X11480600Y-8896500D02*
X11582600Y-8998500D01*
X11582600Y-8896500D02*
X11480600Y-8998500D01*
X11531600Y-8896500D02*
X11531600Y-8998500D01*
X11480600Y-8947500D02*
X11582600Y-8947500D01*
X11734600Y-6356500D02*
X11836600Y-6458500D01*
X11836600Y-6356500D02*
X11734600Y-6458500D01*
X11785600Y-6356500D02*
X11785600Y-6458500D01*
X11734600Y-6407500D02*
X11836600Y-6407500D01*
X11734600Y-8896500D02*
X11836600Y-8998500D01*
X11836600Y-8896500D02*
X11734600Y-8998500D01*
X11785600Y-8896500D02*
X11785600Y-8998500D01*
X11734600Y-8947500D02*
X11836600Y-8947500D01*
X11988600Y-6356500D02*
X12090600Y-6458500D01*
X12090600Y-6356500D02*
X11988600Y-6458500D01*
X12039600Y-6356500D02*
X12039600Y-6458500D01*
X11988600Y-6407500D02*
X12090600Y-6407500D01*
X11988600Y-8896500D02*
X12090600Y-8998500D01*
X12090600Y-8896500D02*
X11988600Y-8998500D01*
X12039600Y-8896500D02*
X12039600Y-8998500D01*
X11988600Y-8947500D02*
X12090600Y-8947500D01*
X12242600Y-6356500D02*
X12344600Y-6458500D01*
X12344600Y-6356500D02*
X12242600Y-6458500D01*
X12293600Y-6356500D02*
X12293600Y-6458500D01*
X12242600Y-6407500D02*
X12344600Y-6407500D01*
X12242600Y-8896500D02*
X12344600Y-8998500D01*
X12344600Y-8896500D02*
X12242600Y-8998500D01*
X12293600Y-8896500D02*
X12293600Y-8998500D01*
X12242600Y-8947500D02*
X12344600Y-8947500D01*
X12496600Y-6356500D02*
X12598600Y-6458500D01*
X12598600Y-6356500D02*
X12496600Y-6458500D01*
X12547600Y-6356500D02*
X12547600Y-6458500D01*
X12496600Y-6407500D02*
X12598600Y-6407500D01*
X12496600Y-8896500D02*
X12598600Y-8998500D01*
X12598600Y-8896500D02*
X12496600Y-8998500D01*
X12547600Y-8896500D02*
X12547600Y-8998500D01*
X12496600Y-8947500D02*
X12598600Y-8947500D01*
X12750600Y-6356500D02*
X12852600Y-6458500D01*
X12852600Y-6356500D02*
X12750600Y-6458500D01*
X12801600Y-6356500D02*
X12801600Y-6458500D01*
X12750600Y-6407500D02*
X12852600Y-6407500D01*
X12750600Y-8896500D02*
X12852600Y-8998500D01*
X12852600Y-8896500D02*
X12750600Y-8998500D01*
X12801600Y-8896500D02*
X12801600Y-8998500D01*
X12750600Y-8947500D02*
X12852600Y-8947500D01*
X13004600Y-6356500D02*
X13106600Y-6458500D01*
X13106600Y-6356500D02*
X13004600Y-6458500D01*
X13055600Y-6356500D02*
X13055600Y-6458500D01*
X13004600Y-6407500D02*
X13106600Y-6407500D01*
X13004600Y-8896500D02*
X13106600Y-8998500D01*
X13106600Y-8896500D02*
X13004600Y-8998500D01*
X13055600Y-8896500D02*
X13055600Y-8998500D01*
X13004600Y-8947500D02*
X13106600Y-8947500D01*
X13258600Y-6356500D02*
X13360600Y-6458500D01*
X13360600Y-6356500D02*
X13258600Y-6458500D01*
X13309600Y-6356500D02*
X13309600Y-6458500D01*
X13258600Y-6407500D02*
X13360600Y-6407500D01*
X13258600Y-8896500D02*
X13360600Y-8998500D01*
X13360600Y-8896500D02*
X13258600Y-8998500D01*
X13309600Y-8896500D02*
X13309600Y-8998500D01*
X13258600Y-8947500D02*
X13360600Y-8947500D01*
X13512600Y-6356500D02*
X13614600Y-6458500D01*
X13614600Y-6356500D02*
X13512600Y-6458500D01*
X13563600Y-6356500D02*
X13563600Y-6458500D01*
X13512600Y-6407500D02*
X13614600Y-6407500D01*
X13512600Y-8896500D02*
X13614600Y-8998500D01*
X13614600Y-8896500D02*
X13512600Y-8998500D01*
X13563600Y-8896500D02*
X13563600Y-8998500D01*
X13512600Y-8947500D02*
X13614600Y-8947500D01*
D14*
X12032450Y-11545700D02*
X12142450Y-11655700D01*
X12142450Y-11545700D02*
X12032450Y-11655700D01*
X12126341Y-11639591D02*
X12126341Y-11561809D01*
X12048559Y-11561809D01*
X12048559Y-11639591D01*
X12126341Y-11639591D01*
X12286450Y-11545700D02*
X12396450Y-11655700D01*
X12396450Y-11545700D02*
X12286450Y-11655700D01*
X12380341Y-11639591D02*
X12380341Y-11561809D01*
X12302559Y-11561809D01*
X12302559Y-11639591D01*
X12380341Y-11639591D01*
X12540450Y-11545700D02*
X12650450Y-11655700D01*
X12650450Y-11545700D02*
X12540450Y-11655700D01*
X12634341Y-11639591D02*
X12634341Y-11561809D01*
X12556559Y-11561809D01*
X12556559Y-11639591D01*
X12634341Y-11639591D01*
X13203800Y-11545700D02*
X13313800Y-11655700D01*
X13313800Y-11545700D02*
X13203800Y-11655700D01*
X13297691Y-11639591D02*
X13297691Y-11561809D01*
X13219909Y-11561809D01*
X13219909Y-11639591D01*
X13297691Y-11639591D01*
X13457800Y-11545700D02*
X13567800Y-11655700D01*
X13567800Y-11545700D02*
X13457800Y-11655700D01*
X13551691Y-11639591D02*
X13551691Y-11561809D01*
X13473909Y-11561809D01*
X13473909Y-11639591D01*
X13551691Y-11639591D01*
X13711800Y-11545700D02*
X13821800Y-11655700D01*
X13821800Y-11545700D02*
X13711800Y-11655700D01*
X13805691Y-11639591D02*
X13805691Y-11561809D01*
X13727909Y-11561809D01*
X13727909Y-11639591D01*
X13805691Y-11639591D01*
X14346800Y-11545700D02*
X14456800Y-11655700D01*
X14456800Y-11545700D02*
X14346800Y-11655700D01*
X14440691Y-11639591D02*
X14440691Y-11561809D01*
X14362909Y-11561809D01*
X14362909Y-11639591D01*
X14440691Y-11639591D01*
X14600800Y-11545700D02*
X14710800Y-11655700D01*
X14710800Y-11545700D02*
X14600800Y-11655700D01*
X14694691Y-11639591D02*
X14694691Y-11561809D01*
X14616909Y-11561809D01*
X14616909Y-11639591D01*
X14694691Y-11639591D01*
X14854800Y-11545700D02*
X14964800Y-11655700D01*
X14964800Y-11545700D02*
X14854800Y-11655700D01*
X14948691Y-11639591D02*
X14948691Y-11561809D01*
X14870909Y-11561809D01*
X14870909Y-11639591D01*
X14948691Y-11639591D01*
X15489800Y-11545700D02*
X15599800Y-11655700D01*
X15599800Y-11545700D02*
X15489800Y-11655700D01*
X15583691Y-11639591D02*
X15583691Y-11561809D01*
X15505909Y-11561809D01*
X15505909Y-11639591D01*
X15583691Y-11639591D01*
X15743800Y-11545700D02*
X15853800Y-11655700D01*
X15853800Y-11545700D02*
X15743800Y-11655700D01*
X15837691Y-11639591D02*
X15837691Y-11561809D01*
X15759909Y-11561809D01*
X15759909Y-11639591D01*
X15837691Y-11639591D01*
X15997800Y-11545700D02*
X16107800Y-11655700D01*
X16107800Y-11545700D02*
X15997800Y-11655700D01*
X16091691Y-11639591D02*
X16091691Y-11561809D01*
X16013909Y-11561809D01*
X16013909Y-11639591D01*
X16091691Y-11639591D01*
D10*
X16889800Y-12529700D02*
X17039800Y-12679700D01*
X17039800Y-12529700D02*
X16889800Y-12679700D01*
X16964800Y-12679700D02*
X17039800Y-12604700D01*
X16964800Y-12529700D01*
X16889800Y-12604700D01*
X16964800Y-12679700D01*
D12*
X16889800Y-12539700D02*
X16889800Y-12669700D01*
X17039800Y-12669700D02*
G75*
G02*
X16889800Y-12669700I-75000J0D01*
G01*
X17039800Y-12669700D02*
X17039800Y-12539700D01*
X17039800Y-12539700D02*
G75*
G03*
X16889800Y-12539700I-75000J0D01*
G01*
D10*
X18009800Y-12529700D02*
X18159800Y-12679700D01*
X18159800Y-12529700D02*
X18009800Y-12679700D01*
X18084800Y-12679700D02*
X18159800Y-12604700D01*
X18084800Y-12529700D01*
X18009800Y-12604700D01*
X18084800Y-12679700D01*
D12*
X18009800Y-12539700D02*
X18009800Y-12669700D01*
X18159800Y-12669700D02*
G75*
G02*
X18009800Y-12669700I-75000J0D01*
G01*
X18159800Y-12669700D02*
X18159800Y-12539700D01*
X18159800Y-12539700D02*
G75*
G03*
X18009800Y-12539700I-75000J0D01*
G01*
D15*
X9588500Y-12191100D02*
X9588500Y-12511100D01*
X9428500Y-12351100D02*
X9748500Y-12351100D01*
X9748500Y-12351100D02*
G75*
G02*
X9428500Y-12351100I-160000J0D01*
G01*
X9428500Y-12351100D02*
G75*
G02*
X9748500Y-12351100I160000J0D01*
G01*
X9753600Y-5555000D02*
X9753600Y-5875000D01*
X9593600Y-5715000D02*
X9913600Y-5715000D01*
X9913600Y-5715000D02*
G75*
G02*
X9593600Y-5715000I-160000J0D01*
G01*
X9593600Y-5715000D02*
G75*
G02*
X9913600Y-5715000I160000J0D01*
G01*
X17068800Y-5580400D02*
X17068800Y-5900400D01*
X16908800Y-5740400D02*
X17228800Y-5740400D01*
X17228800Y-5740400D02*
G75*
G02*
X16908800Y-5740400I-160000J0D01*
G01*
X16908800Y-5740400D02*
G75*
G02*
X17228800Y-5740400I160000J0D01*
G01*
X18059400Y-10819500D02*
X18059400Y-11139500D01*
X17899400Y-10979500D02*
X18219400Y-10979500D01*
X18219400Y-10979500D02*
G75*
G02*
X17899400Y-10979500I-160000J0D01*
G01*
X17899400Y-10979500D02*
G75*
G02*
X18219400Y-10979500I160000J0D01*
G01*
D11*
X9194077Y-14041684D02*
X9194077Y-13841684D01*
X9194077Y-13841684D02*
X9241696Y-13841684D01*
X9241696Y-13841684D02*
X9270267Y-13851208D01*
X9270267Y-13851208D02*
X9289315Y-13870255D01*
X9289315Y-13870255D02*
X9298839Y-13889303D01*
X9298839Y-13889303D02*
X9308363Y-13927398D01*
X9308363Y-13927398D02*
X9308363Y-13955969D01*
X9308363Y-13955969D02*
X9298839Y-13994065D01*
X9298839Y-13994065D02*
X9289315Y-14013112D01*
X9289315Y-14013112D02*
X9270267Y-14032160D01*
X9270267Y-14032160D02*
X9241696Y-14041684D01*
X9241696Y-14041684D02*
X9194077Y-14041684D01*
X9394077Y-14041684D02*
X9394077Y-13908350D01*
X9394077Y-13946446D02*
X9403601Y-13927398D01*
X9403601Y-13927398D02*
X9413124Y-13917874D01*
X9413124Y-13917874D02*
X9432172Y-13908350D01*
X9432172Y-13908350D02*
X9451220Y-13908350D01*
X9517886Y-14041684D02*
X9517886Y-13908350D01*
X9517886Y-13841684D02*
X9508363Y-13851208D01*
X9508363Y-13851208D02*
X9517886Y-13860731D01*
X9517886Y-13860731D02*
X9527410Y-13851208D01*
X9527410Y-13851208D02*
X9517886Y-13841684D01*
X9517886Y-13841684D02*
X9517886Y-13860731D01*
X9641696Y-14041684D02*
X9622648Y-14032160D01*
X9622648Y-14032160D02*
X9613124Y-14013112D01*
X9613124Y-14013112D02*
X9613124Y-13841684D01*
X9746458Y-14041684D02*
X9727410Y-14032160D01*
X9727410Y-14032160D02*
X9717886Y-14013112D01*
X9717886Y-14013112D02*
X9717886Y-13841684D01*
X9975029Y-14041684D02*
X9975029Y-13841684D01*
X9975029Y-13841684D02*
X10041696Y-13984541D01*
X10041696Y-13984541D02*
X10108363Y-13841684D01*
X10108363Y-13841684D02*
X10108363Y-14041684D01*
X10289315Y-14041684D02*
X10289315Y-13936922D01*
X10289315Y-13936922D02*
X10279791Y-13917874D01*
X10279791Y-13917874D02*
X10260744Y-13908350D01*
X10260744Y-13908350D02*
X10222648Y-13908350D01*
X10222648Y-13908350D02*
X10203601Y-13917874D01*
X10289315Y-14032160D02*
X10270267Y-14041684D01*
X10270267Y-14041684D02*
X10222648Y-14041684D01*
X10222648Y-14041684D02*
X10203601Y-14032160D01*
X10203601Y-14032160D02*
X10194077Y-14013112D01*
X10194077Y-14013112D02*
X10194077Y-13994065D01*
X10194077Y-13994065D02*
X10203601Y-13975017D01*
X10203601Y-13975017D02*
X10222648Y-13965493D01*
X10222648Y-13965493D02*
X10270267Y-13965493D01*
X10270267Y-13965493D02*
X10289315Y-13955969D01*
X10384553Y-13908350D02*
X10384553Y-14108350D01*
X10384553Y-13917874D02*
X10403601Y-13908350D01*
X10403601Y-13908350D02*
X10441696Y-13908350D01*
X10441696Y-13908350D02*
X10460744Y-13917874D01*
X10460744Y-13917874D02*
X10470267Y-13927398D01*
X10470267Y-13927398D02*
X10479791Y-13946446D01*
X10479791Y-13946446D02*
X10479791Y-14003588D01*
X10479791Y-14003588D02*
X10470267Y-14022636D01*
X10470267Y-14022636D02*
X10460744Y-14032160D01*
X10460744Y-14032160D02*
X10441696Y-14041684D01*
X10441696Y-14041684D02*
X10403601Y-14041684D01*
X10403601Y-14041684D02*
X10384553Y-14032160D01*
X10565505Y-14022636D02*
X10575029Y-14032160D01*
X10575029Y-14032160D02*
X10565505Y-14041684D01*
X10565505Y-14041684D02*
X10555982Y-14032160D01*
X10555982Y-14032160D02*
X10565505Y-14022636D01*
X10565505Y-14022636D02*
X10565505Y-14041684D01*
X10565505Y-13917874D02*
X10575029Y-13927398D01*
X10575029Y-13927398D02*
X10565505Y-13936922D01*
X10565505Y-13936922D02*
X10555982Y-13927398D01*
X10555982Y-13927398D02*
X10565505Y-13917874D01*
X10565505Y-13917874D02*
X10565505Y-13936922D01*
D12*
X8858300Y-14332700D02*
X8933300Y-14407700D01*
X8933300Y-14332700D02*
X8858300Y-14407700D01*
D11*
X9232172Y-14261684D02*
X9251220Y-14261684D01*
X9251220Y-14261684D02*
X9270267Y-14271208D01*
X9270267Y-14271208D02*
X9279791Y-14280731D01*
X9279791Y-14280731D02*
X9289315Y-14299779D01*
X9289315Y-14299779D02*
X9298839Y-14337874D01*
X9298839Y-14337874D02*
X9298839Y-14385493D01*
X9298839Y-14385493D02*
X9289315Y-14423588D01*
X9289315Y-14423588D02*
X9279791Y-14442636D01*
X9279791Y-14442636D02*
X9270267Y-14452160D01*
X9270267Y-14452160D02*
X9251220Y-14461684D01*
X9251220Y-14461684D02*
X9232172Y-14461684D01*
X9232172Y-14461684D02*
X9213124Y-14452160D01*
X9213124Y-14452160D02*
X9203601Y-14442636D01*
X9203601Y-14442636D02*
X9194077Y-14423588D01*
X9194077Y-14423588D02*
X9184553Y-14385493D01*
X9184553Y-14385493D02*
X9184553Y-14337874D01*
X9184553Y-14337874D02*
X9194077Y-14299779D01*
X9194077Y-14299779D02*
X9203601Y-14280731D01*
X9203601Y-14280731D02*
X9213124Y-14271208D01*
X9213124Y-14271208D02*
X9232172Y-14261684D01*
X9384553Y-14442636D02*
X9394077Y-14452160D01*
X9394077Y-14452160D02*
X9384553Y-14461684D01*
X9384553Y-14461684D02*
X9375029Y-14452160D01*
X9375029Y-14452160D02*
X9384553Y-14442636D01*
X9384553Y-14442636D02*
X9384553Y-14461684D01*
X9460744Y-14261684D02*
X9594077Y-14261684D01*
X9594077Y-14261684D02*
X9508363Y-14461684D01*
X9765505Y-14261684D02*
X9670267Y-14261684D01*
X9670267Y-14261684D02*
X9660744Y-14356922D01*
X9660744Y-14356922D02*
X9670267Y-14347398D01*
X9670267Y-14347398D02*
X9689315Y-14337874D01*
X9689315Y-14337874D02*
X9736934Y-14337874D01*
X9736934Y-14337874D02*
X9755982Y-14347398D01*
X9755982Y-14347398D02*
X9765505Y-14356922D01*
X9765505Y-14356922D02*
X9775029Y-14375969D01*
X9775029Y-14375969D02*
X9775029Y-14423588D01*
X9775029Y-14423588D02*
X9765505Y-14442636D01*
X9765505Y-14442636D02*
X9755982Y-14452160D01*
X9755982Y-14452160D02*
X9736934Y-14461684D01*
X9736934Y-14461684D02*
X9689315Y-14461684D01*
X9689315Y-14461684D02*
X9670267Y-14452160D01*
X9670267Y-14452160D02*
X9660744Y-14442636D01*
X9898839Y-14261684D02*
X9917886Y-14261684D01*
X9917886Y-14261684D02*
X9936934Y-14271208D01*
X9936934Y-14271208D02*
X9946458Y-14280731D01*
X9946458Y-14280731D02*
X9955982Y-14299779D01*
X9955982Y-14299779D02*
X9965505Y-14337874D01*
X9965505Y-14337874D02*
X9965505Y-14385493D01*
X9965505Y-14385493D02*
X9955982Y-14423588D01*
X9955982Y-14423588D02*
X9946458Y-14442636D01*
X9946458Y-14442636D02*
X9936934Y-14452160D01*
X9936934Y-14452160D02*
X9917886Y-14461684D01*
X9917886Y-14461684D02*
X9898839Y-14461684D01*
X9898839Y-14461684D02*
X9879791Y-14452160D01*
X9879791Y-14452160D02*
X9870267Y-14442636D01*
X9870267Y-14442636D02*
X9860744Y-14423588D01*
X9860744Y-14423588D02*
X9851220Y-14385493D01*
X9851220Y-14385493D02*
X9851220Y-14337874D01*
X9851220Y-14337874D02*
X9860744Y-14299779D01*
X9860744Y-14299779D02*
X9870267Y-14280731D01*
X9870267Y-14280731D02*
X9879791Y-14271208D01*
X9879791Y-14271208D02*
X9898839Y-14261684D01*
X10051220Y-14461684D02*
X10051220Y-14328350D01*
X10051220Y-14347398D02*
X10060744Y-14337874D01*
X10060744Y-14337874D02*
X10079791Y-14328350D01*
X10079791Y-14328350D02*
X10108363Y-14328350D01*
X10108363Y-14328350D02*
X10127410Y-14337874D01*
X10127410Y-14337874D02*
X10136934Y-14356922D01*
X10136934Y-14356922D02*
X10136934Y-14461684D01*
X10136934Y-14356922D02*
X10146458Y-14337874D01*
X10146458Y-14337874D02*
X10165505Y-14328350D01*
X10165505Y-14328350D02*
X10194077Y-14328350D01*
X10194077Y-14328350D02*
X10213125Y-14337874D01*
X10213125Y-14337874D02*
X10222648Y-14356922D01*
X10222648Y-14356922D02*
X10222648Y-14461684D01*
X10317886Y-14461684D02*
X10317886Y-14328350D01*
X10317886Y-14347398D02*
X10327410Y-14337874D01*
X10327410Y-14337874D02*
X10346458Y-14328350D01*
X10346458Y-14328350D02*
X10375029Y-14328350D01*
X10375029Y-14328350D02*
X10394077Y-14337874D01*
X10394077Y-14337874D02*
X10403601Y-14356922D01*
X10403601Y-14356922D02*
X10403601Y-14461684D01*
X10403601Y-14356922D02*
X10413125Y-14337874D01*
X10413125Y-14337874D02*
X10432172Y-14328350D01*
X10432172Y-14328350D02*
X10460744Y-14328350D01*
X10460744Y-14328350D02*
X10479791Y-14337874D01*
X10479791Y-14337874D02*
X10489315Y-14356922D01*
X10489315Y-14356922D02*
X10489315Y-14461684D01*
X10879791Y-14252160D02*
X10708363Y-14509303D01*
X11136934Y-14261684D02*
X11155982Y-14261684D01*
X11155982Y-14261684D02*
X11175029Y-14271208D01*
X11175029Y-14271208D02*
X11184553Y-14280731D01*
X11184553Y-14280731D02*
X11194077Y-14299779D01*
X11194077Y-14299779D02*
X11203601Y-14337874D01*
X11203601Y-14337874D02*
X11203601Y-14385493D01*
X11203601Y-14385493D02*
X11194077Y-14423588D01*
X11194077Y-14423588D02*
X11184553Y-14442636D01*
X11184553Y-14442636D02*
X11175029Y-14452160D01*
X11175029Y-14452160D02*
X11155982Y-14461684D01*
X11155982Y-14461684D02*
X11136934Y-14461684D01*
X11136934Y-14461684D02*
X11117887Y-14452160D01*
X11117887Y-14452160D02*
X11108363Y-14442636D01*
X11108363Y-14442636D02*
X11098839Y-14423588D01*
X11098839Y-14423588D02*
X11089315Y-14385493D01*
X11089315Y-14385493D02*
X11089315Y-14337874D01*
X11089315Y-14337874D02*
X11098839Y-14299779D01*
X11098839Y-14299779D02*
X11108363Y-14280731D01*
X11108363Y-14280731D02*
X11117887Y-14271208D01*
X11117887Y-14271208D02*
X11136934Y-14261684D01*
X11289315Y-14442636D02*
X11298839Y-14452160D01*
X11298839Y-14452160D02*
X11289315Y-14461684D01*
X11289315Y-14461684D02*
X11279791Y-14452160D01*
X11279791Y-14452160D02*
X11289315Y-14442636D01*
X11289315Y-14442636D02*
X11289315Y-14461684D01*
X11422648Y-14261684D02*
X11441696Y-14261684D01*
X11441696Y-14261684D02*
X11460744Y-14271208D01*
X11460744Y-14271208D02*
X11470267Y-14280731D01*
X11470267Y-14280731D02*
X11479791Y-14299779D01*
X11479791Y-14299779D02*
X11489315Y-14337874D01*
X11489315Y-14337874D02*
X11489315Y-14385493D01*
X11489315Y-14385493D02*
X11479791Y-14423588D01*
X11479791Y-14423588D02*
X11470267Y-14442636D01*
X11470267Y-14442636D02*
X11460744Y-14452160D01*
X11460744Y-14452160D02*
X11441696Y-14461684D01*
X11441696Y-14461684D02*
X11422648Y-14461684D01*
X11422648Y-14461684D02*
X11403601Y-14452160D01*
X11403601Y-14452160D02*
X11394077Y-14442636D01*
X11394077Y-14442636D02*
X11384553Y-14423588D01*
X11384553Y-14423588D02*
X11375029Y-14385493D01*
X11375029Y-14385493D02*
X11375029Y-14337874D01*
X11375029Y-14337874D02*
X11384553Y-14299779D01*
X11384553Y-14299779D02*
X11394077Y-14280731D01*
X11394077Y-14280731D02*
X11403601Y-14271208D01*
X11403601Y-14271208D02*
X11422648Y-14261684D01*
X11565506Y-14280731D02*
X11575029Y-14271208D01*
X11575029Y-14271208D02*
X11594077Y-14261684D01*
X11594077Y-14261684D02*
X11641696Y-14261684D01*
X11641696Y-14261684D02*
X11660744Y-14271208D01*
X11660744Y-14271208D02*
X11670267Y-14280731D01*
X11670267Y-14280731D02*
X11679791Y-14299779D01*
X11679791Y-14299779D02*
X11679791Y-14318827D01*
X11679791Y-14318827D02*
X11670267Y-14347398D01*
X11670267Y-14347398D02*
X11555982Y-14461684D01*
X11555982Y-14461684D02*
X11679791Y-14461684D01*
X11775029Y-14461684D02*
X11813125Y-14461684D01*
X11813125Y-14461684D02*
X11832172Y-14452160D01*
X11832172Y-14452160D02*
X11841696Y-14442636D01*
X11841696Y-14442636D02*
X11860744Y-14414065D01*
X11860744Y-14414065D02*
X11870267Y-14375969D01*
X11870267Y-14375969D02*
X11870267Y-14299779D01*
X11870267Y-14299779D02*
X11860744Y-14280731D01*
X11860744Y-14280731D02*
X11851220Y-14271208D01*
X11851220Y-14271208D02*
X11832172Y-14261684D01*
X11832172Y-14261684D02*
X11794077Y-14261684D01*
X11794077Y-14261684D02*
X11775029Y-14271208D01*
X11775029Y-14271208D02*
X11765506Y-14280731D01*
X11765506Y-14280731D02*
X11755982Y-14299779D01*
X11755982Y-14299779D02*
X11755982Y-14347398D01*
X11755982Y-14347398D02*
X11765506Y-14366446D01*
X11765506Y-14366446D02*
X11775029Y-14375969D01*
X11775029Y-14375969D02*
X11794077Y-14385493D01*
X11794077Y-14385493D02*
X11832172Y-14385493D01*
X11832172Y-14385493D02*
X11851220Y-14375969D01*
X11851220Y-14375969D02*
X11860744Y-14366446D01*
X11860744Y-14366446D02*
X11870267Y-14347398D01*
X12051220Y-14261684D02*
X11955982Y-14261684D01*
X11955982Y-14261684D02*
X11946458Y-14356922D01*
X11946458Y-14356922D02*
X11955982Y-14347398D01*
X11955982Y-14347398D02*
X11975029Y-14337874D01*
X11975029Y-14337874D02*
X12022648Y-14337874D01*
X12022648Y-14337874D02*
X12041696Y-14347398D01*
X12041696Y-14347398D02*
X12051220Y-14356922D01*
X12051220Y-14356922D02*
X12060744Y-14375969D01*
X12060744Y-14375969D02*
X12060744Y-14423588D01*
X12060744Y-14423588D02*
X12051220Y-14442636D01*
X12051220Y-14442636D02*
X12041696Y-14452160D01*
X12041696Y-14452160D02*
X12022648Y-14461684D01*
X12022648Y-14461684D02*
X11975029Y-14461684D01*
X11975029Y-14461684D02*
X11955982Y-14452160D01*
X11955982Y-14452160D02*
X11946458Y-14442636D01*
X12136934Y-14261684D02*
X12136934Y-14299779D01*
X12213125Y-14261684D02*
X12213125Y-14299779D01*
X12508363Y-14537874D02*
X12498839Y-14528350D01*
X12498839Y-14528350D02*
X12479791Y-14499779D01*
X12479791Y-14499779D02*
X12470268Y-14480731D01*
X12470268Y-14480731D02*
X12460744Y-14452160D01*
X12460744Y-14452160D02*
X12451220Y-14404541D01*
X12451220Y-14404541D02*
X12451220Y-14366446D01*
X12451220Y-14366446D02*
X12460744Y-14318827D01*
X12460744Y-14318827D02*
X12470268Y-14290255D01*
X12470268Y-14290255D02*
X12479791Y-14271208D01*
X12479791Y-14271208D02*
X12498839Y-14242636D01*
X12498839Y-14242636D02*
X12508363Y-14233112D01*
X12565506Y-14261684D02*
X12689315Y-14261684D01*
X12689315Y-14261684D02*
X12622648Y-14337874D01*
X12622648Y-14337874D02*
X12651220Y-14337874D01*
X12651220Y-14337874D02*
X12670268Y-14347398D01*
X12670268Y-14347398D02*
X12679791Y-14356922D01*
X12679791Y-14356922D02*
X12689315Y-14375969D01*
X12689315Y-14375969D02*
X12689315Y-14423588D01*
X12689315Y-14423588D02*
X12679791Y-14442636D01*
X12679791Y-14442636D02*
X12670268Y-14452160D01*
X12670268Y-14452160D02*
X12651220Y-14461684D01*
X12651220Y-14461684D02*
X12594077Y-14461684D01*
X12594077Y-14461684D02*
X12575029Y-14452160D01*
X12575029Y-14452160D02*
X12565506Y-14442636D01*
X12927410Y-14461684D02*
X12927410Y-14261684D01*
X13013125Y-14461684D02*
X13013125Y-14356922D01*
X13013125Y-14356922D02*
X13003601Y-14337874D01*
X13003601Y-14337874D02*
X12984553Y-14328350D01*
X12984553Y-14328350D02*
X12955982Y-14328350D01*
X12955982Y-14328350D02*
X12936934Y-14337874D01*
X12936934Y-14337874D02*
X12927410Y-14347398D01*
X13136934Y-14461684D02*
X13117887Y-14452160D01*
X13117887Y-14452160D02*
X13108363Y-14442636D01*
X13108363Y-14442636D02*
X13098839Y-14423588D01*
X13098839Y-14423588D02*
X13098839Y-14366446D01*
X13098839Y-14366446D02*
X13108363Y-14347398D01*
X13108363Y-14347398D02*
X13117887Y-14337874D01*
X13117887Y-14337874D02*
X13136934Y-14328350D01*
X13136934Y-14328350D02*
X13165506Y-14328350D01*
X13165506Y-14328350D02*
X13184553Y-14337874D01*
X13184553Y-14337874D02*
X13194077Y-14347398D01*
X13194077Y-14347398D02*
X13203601Y-14366446D01*
X13203601Y-14366446D02*
X13203601Y-14423588D01*
X13203601Y-14423588D02*
X13194077Y-14442636D01*
X13194077Y-14442636D02*
X13184553Y-14452160D01*
X13184553Y-14452160D02*
X13165506Y-14461684D01*
X13165506Y-14461684D02*
X13136934Y-14461684D01*
X13317887Y-14461684D02*
X13298839Y-14452160D01*
X13298839Y-14452160D02*
X13289315Y-14433112D01*
X13289315Y-14433112D02*
X13289315Y-14261684D01*
X13470268Y-14452160D02*
X13451220Y-14461684D01*
X13451220Y-14461684D02*
X13413125Y-14461684D01*
X13413125Y-14461684D02*
X13394077Y-14452160D01*
X13394077Y-14452160D02*
X13384553Y-14433112D01*
X13384553Y-14433112D02*
X13384553Y-14356922D01*
X13384553Y-14356922D02*
X13394077Y-14337874D01*
X13394077Y-14337874D02*
X13413125Y-14328350D01*
X13413125Y-14328350D02*
X13451220Y-14328350D01*
X13451220Y-14328350D02*
X13470268Y-14337874D01*
X13470268Y-14337874D02*
X13479791Y-14356922D01*
X13479791Y-14356922D02*
X13479791Y-14375969D01*
X13479791Y-14375969D02*
X13384553Y-14395017D01*
X13555982Y-14452160D02*
X13575030Y-14461684D01*
X13575030Y-14461684D02*
X13613125Y-14461684D01*
X13613125Y-14461684D02*
X13632172Y-14452160D01*
X13632172Y-14452160D02*
X13641696Y-14433112D01*
X13641696Y-14433112D02*
X13641696Y-14423588D01*
X13641696Y-14423588D02*
X13632172Y-14404541D01*
X13632172Y-14404541D02*
X13613125Y-14395017D01*
X13613125Y-14395017D02*
X13584553Y-14395017D01*
X13584553Y-14395017D02*
X13565506Y-14385493D01*
X13565506Y-14385493D02*
X13555982Y-14366446D01*
X13555982Y-14366446D02*
X13555982Y-14356922D01*
X13555982Y-14356922D02*
X13565506Y-14337874D01*
X13565506Y-14337874D02*
X13584553Y-14328350D01*
X13584553Y-14328350D02*
X13613125Y-14328350D01*
X13613125Y-14328350D02*
X13632172Y-14337874D01*
X13708363Y-14537874D02*
X13717887Y-14528350D01*
X13717887Y-14528350D02*
X13736934Y-14499779D01*
X13736934Y-14499779D02*
X13746458Y-14480731D01*
X13746458Y-14480731D02*
X13755982Y-14452160D01*
X13755982Y-14452160D02*
X13765506Y-14404541D01*
X13765506Y-14404541D02*
X13765506Y-14366446D01*
X13765506Y-14366446D02*
X13755982Y-14318827D01*
X13755982Y-14318827D02*
X13746458Y-14290255D01*
X13746458Y-14290255D02*
X13736934Y-14271208D01*
X13736934Y-14271208D02*
X13717887Y-14242636D01*
X13717887Y-14242636D02*
X13708363Y-14233112D01*
D12*
X8933300Y-14634200D02*
G75*
G02*
X8857100Y-14634200I-38100J0D01*
G01*
X8857100Y-14634200D02*
G75*
G02*
X8933300Y-14634200I38100J0D01*
G01*
D11*
X9232172Y-14525684D02*
X9251220Y-14525684D01*
X9251220Y-14525684D02*
X9270267Y-14535208D01*
X9270267Y-14535208D02*
X9279791Y-14544731D01*
X9279791Y-14544731D02*
X9289315Y-14563779D01*
X9289315Y-14563779D02*
X9298839Y-14601874D01*
X9298839Y-14601874D02*
X9298839Y-14649493D01*
X9298839Y-14649493D02*
X9289315Y-14687588D01*
X9289315Y-14687588D02*
X9279791Y-14706636D01*
X9279791Y-14706636D02*
X9270267Y-14716160D01*
X9270267Y-14716160D02*
X9251220Y-14725684D01*
X9251220Y-14725684D02*
X9232172Y-14725684D01*
X9232172Y-14725684D02*
X9213124Y-14716160D01*
X9213124Y-14716160D02*
X9203601Y-14706636D01*
X9203601Y-14706636D02*
X9194077Y-14687588D01*
X9194077Y-14687588D02*
X9184553Y-14649493D01*
X9184553Y-14649493D02*
X9184553Y-14601874D01*
X9184553Y-14601874D02*
X9194077Y-14563779D01*
X9194077Y-14563779D02*
X9203601Y-14544731D01*
X9203601Y-14544731D02*
X9213124Y-14535208D01*
X9213124Y-14535208D02*
X9232172Y-14525684D01*
X9384553Y-14706636D02*
X9394077Y-14716160D01*
X9394077Y-14716160D02*
X9384553Y-14725684D01*
X9384553Y-14725684D02*
X9375029Y-14716160D01*
X9375029Y-14716160D02*
X9384553Y-14706636D01*
X9384553Y-14706636D02*
X9384553Y-14725684D01*
X9460744Y-14525684D02*
X9594077Y-14525684D01*
X9594077Y-14525684D02*
X9508363Y-14725684D01*
X9755982Y-14525684D02*
X9717886Y-14525684D01*
X9717886Y-14525684D02*
X9698839Y-14535208D01*
X9698839Y-14535208D02*
X9689315Y-14544731D01*
X9689315Y-14544731D02*
X9670267Y-14573303D01*
X9670267Y-14573303D02*
X9660744Y-14611398D01*
X9660744Y-14611398D02*
X9660744Y-14687588D01*
X9660744Y-14687588D02*
X9670267Y-14706636D01*
X9670267Y-14706636D02*
X9679791Y-14716160D01*
X9679791Y-14716160D02*
X9698839Y-14725684D01*
X9698839Y-14725684D02*
X9736934Y-14725684D01*
X9736934Y-14725684D02*
X9755982Y-14716160D01*
X9755982Y-14716160D02*
X9765505Y-14706636D01*
X9765505Y-14706636D02*
X9775029Y-14687588D01*
X9775029Y-14687588D02*
X9775029Y-14639969D01*
X9775029Y-14639969D02*
X9765505Y-14620922D01*
X9765505Y-14620922D02*
X9755982Y-14611398D01*
X9755982Y-14611398D02*
X9736934Y-14601874D01*
X9736934Y-14601874D02*
X9698839Y-14601874D01*
X9698839Y-14601874D02*
X9679791Y-14611398D01*
X9679791Y-14611398D02*
X9670267Y-14620922D01*
X9670267Y-14620922D02*
X9660744Y-14639969D01*
X9851220Y-14544731D02*
X9860744Y-14535208D01*
X9860744Y-14535208D02*
X9879791Y-14525684D01*
X9879791Y-14525684D02*
X9927410Y-14525684D01*
X9927410Y-14525684D02*
X9946458Y-14535208D01*
X9946458Y-14535208D02*
X9955982Y-14544731D01*
X9955982Y-14544731D02*
X9965505Y-14563779D01*
X9965505Y-14563779D02*
X9965505Y-14582827D01*
X9965505Y-14582827D02*
X9955982Y-14611398D01*
X9955982Y-14611398D02*
X9841696Y-14725684D01*
X9841696Y-14725684D02*
X9965505Y-14725684D01*
X10051220Y-14725684D02*
X10051220Y-14592350D01*
X10051220Y-14611398D02*
X10060744Y-14601874D01*
X10060744Y-14601874D02*
X10079791Y-14592350D01*
X10079791Y-14592350D02*
X10108363Y-14592350D01*
X10108363Y-14592350D02*
X10127410Y-14601874D01*
X10127410Y-14601874D02*
X10136934Y-14620922D01*
X10136934Y-14620922D02*
X10136934Y-14725684D01*
X10136934Y-14620922D02*
X10146458Y-14601874D01*
X10146458Y-14601874D02*
X10165505Y-14592350D01*
X10165505Y-14592350D02*
X10194077Y-14592350D01*
X10194077Y-14592350D02*
X10213125Y-14601874D01*
X10213125Y-14601874D02*
X10222648Y-14620922D01*
X10222648Y-14620922D02*
X10222648Y-14725684D01*
X10317886Y-14725684D02*
X10317886Y-14592350D01*
X10317886Y-14611398D02*
X10327410Y-14601874D01*
X10327410Y-14601874D02*
X10346458Y-14592350D01*
X10346458Y-14592350D02*
X10375029Y-14592350D01*
X10375029Y-14592350D02*
X10394077Y-14601874D01*
X10394077Y-14601874D02*
X10403601Y-14620922D01*
X10403601Y-14620922D02*
X10403601Y-14725684D01*
X10403601Y-14620922D02*
X10413125Y-14601874D01*
X10413125Y-14601874D02*
X10432172Y-14592350D01*
X10432172Y-14592350D02*
X10460744Y-14592350D01*
X10460744Y-14592350D02*
X10479791Y-14601874D01*
X10479791Y-14601874D02*
X10489315Y-14620922D01*
X10489315Y-14620922D02*
X10489315Y-14725684D01*
X10879791Y-14516160D02*
X10708363Y-14773303D01*
X11136934Y-14525684D02*
X11155982Y-14525684D01*
X11155982Y-14525684D02*
X11175029Y-14535208D01*
X11175029Y-14535208D02*
X11184553Y-14544731D01*
X11184553Y-14544731D02*
X11194077Y-14563779D01*
X11194077Y-14563779D02*
X11203601Y-14601874D01*
X11203601Y-14601874D02*
X11203601Y-14649493D01*
X11203601Y-14649493D02*
X11194077Y-14687588D01*
X11194077Y-14687588D02*
X11184553Y-14706636D01*
X11184553Y-14706636D02*
X11175029Y-14716160D01*
X11175029Y-14716160D02*
X11155982Y-14725684D01*
X11155982Y-14725684D02*
X11136934Y-14725684D01*
X11136934Y-14725684D02*
X11117887Y-14716160D01*
X11117887Y-14716160D02*
X11108363Y-14706636D01*
X11108363Y-14706636D02*
X11098839Y-14687588D01*
X11098839Y-14687588D02*
X11089315Y-14649493D01*
X11089315Y-14649493D02*
X11089315Y-14601874D01*
X11089315Y-14601874D02*
X11098839Y-14563779D01*
X11098839Y-14563779D02*
X11108363Y-14544731D01*
X11108363Y-14544731D02*
X11117887Y-14535208D01*
X11117887Y-14535208D02*
X11136934Y-14525684D01*
X11289315Y-14706636D02*
X11298839Y-14716160D01*
X11298839Y-14716160D02*
X11289315Y-14725684D01*
X11289315Y-14725684D02*
X11279791Y-14716160D01*
X11279791Y-14716160D02*
X11289315Y-14706636D01*
X11289315Y-14706636D02*
X11289315Y-14725684D01*
X11422648Y-14525684D02*
X11441696Y-14525684D01*
X11441696Y-14525684D02*
X11460744Y-14535208D01*
X11460744Y-14535208D02*
X11470267Y-14544731D01*
X11470267Y-14544731D02*
X11479791Y-14563779D01*
X11479791Y-14563779D02*
X11489315Y-14601874D01*
X11489315Y-14601874D02*
X11489315Y-14649493D01*
X11489315Y-14649493D02*
X11479791Y-14687588D01*
X11479791Y-14687588D02*
X11470267Y-14706636D01*
X11470267Y-14706636D02*
X11460744Y-14716160D01*
X11460744Y-14716160D02*
X11441696Y-14725684D01*
X11441696Y-14725684D02*
X11422648Y-14725684D01*
X11422648Y-14725684D02*
X11403601Y-14716160D01*
X11403601Y-14716160D02*
X11394077Y-14706636D01*
X11394077Y-14706636D02*
X11384553Y-14687588D01*
X11384553Y-14687588D02*
X11375029Y-14649493D01*
X11375029Y-14649493D02*
X11375029Y-14601874D01*
X11375029Y-14601874D02*
X11384553Y-14563779D01*
X11384553Y-14563779D02*
X11394077Y-14544731D01*
X11394077Y-14544731D02*
X11403601Y-14535208D01*
X11403601Y-14535208D02*
X11422648Y-14525684D01*
X11555982Y-14525684D02*
X11679791Y-14525684D01*
X11679791Y-14525684D02*
X11613125Y-14601874D01*
X11613125Y-14601874D02*
X11641696Y-14601874D01*
X11641696Y-14601874D02*
X11660744Y-14611398D01*
X11660744Y-14611398D02*
X11670267Y-14620922D01*
X11670267Y-14620922D02*
X11679791Y-14639969D01*
X11679791Y-14639969D02*
X11679791Y-14687588D01*
X11679791Y-14687588D02*
X11670267Y-14706636D01*
X11670267Y-14706636D02*
X11660744Y-14716160D01*
X11660744Y-14716160D02*
X11641696Y-14725684D01*
X11641696Y-14725684D02*
X11584553Y-14725684D01*
X11584553Y-14725684D02*
X11565506Y-14716160D01*
X11565506Y-14716160D02*
X11555982Y-14706636D01*
X11803601Y-14525684D02*
X11822648Y-14525684D01*
X11822648Y-14525684D02*
X11841696Y-14535208D01*
X11841696Y-14535208D02*
X11851220Y-14544731D01*
X11851220Y-14544731D02*
X11860744Y-14563779D01*
X11860744Y-14563779D02*
X11870267Y-14601874D01*
X11870267Y-14601874D02*
X11870267Y-14649493D01*
X11870267Y-14649493D02*
X11860744Y-14687588D01*
X11860744Y-14687588D02*
X11851220Y-14706636D01*
X11851220Y-14706636D02*
X11841696Y-14716160D01*
X11841696Y-14716160D02*
X11822648Y-14725684D01*
X11822648Y-14725684D02*
X11803601Y-14725684D01*
X11803601Y-14725684D02*
X11784553Y-14716160D01*
X11784553Y-14716160D02*
X11775029Y-14706636D01*
X11775029Y-14706636D02*
X11765506Y-14687588D01*
X11765506Y-14687588D02*
X11755982Y-14649493D01*
X11755982Y-14649493D02*
X11755982Y-14601874D01*
X11755982Y-14601874D02*
X11765506Y-14563779D01*
X11765506Y-14563779D02*
X11775029Y-14544731D01*
X11775029Y-14544731D02*
X11784553Y-14535208D01*
X11784553Y-14535208D02*
X11803601Y-14525684D01*
X11994077Y-14525684D02*
X12013125Y-14525684D01*
X12013125Y-14525684D02*
X12032172Y-14535208D01*
X12032172Y-14535208D02*
X12041696Y-14544731D01*
X12041696Y-14544731D02*
X12051220Y-14563779D01*
X12051220Y-14563779D02*
X12060744Y-14601874D01*
X12060744Y-14601874D02*
X12060744Y-14649493D01*
X12060744Y-14649493D02*
X12051220Y-14687588D01*
X12051220Y-14687588D02*
X12041696Y-14706636D01*
X12041696Y-14706636D02*
X12032172Y-14716160D01*
X12032172Y-14716160D02*
X12013125Y-14725684D01*
X12013125Y-14725684D02*
X11994077Y-14725684D01*
X11994077Y-14725684D02*
X11975029Y-14716160D01*
X11975029Y-14716160D02*
X11965506Y-14706636D01*
X11965506Y-14706636D02*
X11955982Y-14687588D01*
X11955982Y-14687588D02*
X11946458Y-14649493D01*
X11946458Y-14649493D02*
X11946458Y-14601874D01*
X11946458Y-14601874D02*
X11955982Y-14563779D01*
X11955982Y-14563779D02*
X11965506Y-14544731D01*
X11965506Y-14544731D02*
X11975029Y-14535208D01*
X11975029Y-14535208D02*
X11994077Y-14525684D01*
X12136934Y-14525684D02*
X12136934Y-14563779D01*
X12213125Y-14525684D02*
X12213125Y-14563779D01*
X12508363Y-14801874D02*
X12498839Y-14792350D01*
X12498839Y-14792350D02*
X12479791Y-14763779D01*
X12479791Y-14763779D02*
X12470268Y-14744731D01*
X12470268Y-14744731D02*
X12460744Y-14716160D01*
X12460744Y-14716160D02*
X12451220Y-14668541D01*
X12451220Y-14668541D02*
X12451220Y-14630446D01*
X12451220Y-14630446D02*
X12460744Y-14582827D01*
X12460744Y-14582827D02*
X12470268Y-14554255D01*
X12470268Y-14554255D02*
X12479791Y-14535208D01*
X12479791Y-14535208D02*
X12498839Y-14506636D01*
X12498839Y-14506636D02*
X12508363Y-14497112D01*
X12613125Y-14611398D02*
X12594077Y-14601874D01*
X12594077Y-14601874D02*
X12584553Y-14592350D01*
X12584553Y-14592350D02*
X12575029Y-14573303D01*
X12575029Y-14573303D02*
X12575029Y-14563779D01*
X12575029Y-14563779D02*
X12584553Y-14544731D01*
X12584553Y-14544731D02*
X12594077Y-14535208D01*
X12594077Y-14535208D02*
X12613125Y-14525684D01*
X12613125Y-14525684D02*
X12651220Y-14525684D01*
X12651220Y-14525684D02*
X12670268Y-14535208D01*
X12670268Y-14535208D02*
X12679791Y-14544731D01*
X12679791Y-14544731D02*
X12689315Y-14563779D01*
X12689315Y-14563779D02*
X12689315Y-14573303D01*
X12689315Y-14573303D02*
X12679791Y-14592350D01*
X12679791Y-14592350D02*
X12670268Y-14601874D01*
X12670268Y-14601874D02*
X12651220Y-14611398D01*
X12651220Y-14611398D02*
X12613125Y-14611398D01*
X12613125Y-14611398D02*
X12594077Y-14620922D01*
X12594077Y-14620922D02*
X12584553Y-14630446D01*
X12584553Y-14630446D02*
X12575029Y-14649493D01*
X12575029Y-14649493D02*
X12575029Y-14687588D01*
X12575029Y-14687588D02*
X12584553Y-14706636D01*
X12584553Y-14706636D02*
X12594077Y-14716160D01*
X12594077Y-14716160D02*
X12613125Y-14725684D01*
X12613125Y-14725684D02*
X12651220Y-14725684D01*
X12651220Y-14725684D02*
X12670268Y-14716160D01*
X12670268Y-14716160D02*
X12679791Y-14706636D01*
X12679791Y-14706636D02*
X12689315Y-14687588D01*
X12689315Y-14687588D02*
X12689315Y-14649493D01*
X12689315Y-14649493D02*
X12679791Y-14630446D01*
X12679791Y-14630446D02*
X12670268Y-14620922D01*
X12670268Y-14620922D02*
X12651220Y-14611398D01*
X12927410Y-14725684D02*
X12927410Y-14525684D01*
X13013125Y-14725684D02*
X13013125Y-14620922D01*
X13013125Y-14620922D02*
X13003601Y-14601874D01*
X13003601Y-14601874D02*
X12984553Y-14592350D01*
X12984553Y-14592350D02*
X12955982Y-14592350D01*
X12955982Y-14592350D02*
X12936934Y-14601874D01*
X12936934Y-14601874D02*
X12927410Y-14611398D01*
X13136934Y-14725684D02*
X13117887Y-14716160D01*
X13117887Y-14716160D02*
X13108363Y-14706636D01*
X13108363Y-14706636D02*
X13098839Y-14687588D01*
X13098839Y-14687588D02*
X13098839Y-14630446D01*
X13098839Y-14630446D02*
X13108363Y-14611398D01*
X13108363Y-14611398D02*
X13117887Y-14601874D01*
X13117887Y-14601874D02*
X13136934Y-14592350D01*
X13136934Y-14592350D02*
X13165506Y-14592350D01*
X13165506Y-14592350D02*
X13184553Y-14601874D01*
X13184553Y-14601874D02*
X13194077Y-14611398D01*
X13194077Y-14611398D02*
X13203601Y-14630446D01*
X13203601Y-14630446D02*
X13203601Y-14687588D01*
X13203601Y-14687588D02*
X13194077Y-14706636D01*
X13194077Y-14706636D02*
X13184553Y-14716160D01*
X13184553Y-14716160D02*
X13165506Y-14725684D01*
X13165506Y-14725684D02*
X13136934Y-14725684D01*
X13317887Y-14725684D02*
X13298839Y-14716160D01*
X13298839Y-14716160D02*
X13289315Y-14697112D01*
X13289315Y-14697112D02*
X13289315Y-14525684D01*
X13470268Y-14716160D02*
X13451220Y-14725684D01*
X13451220Y-14725684D02*
X13413125Y-14725684D01*
X13413125Y-14725684D02*
X13394077Y-14716160D01*
X13394077Y-14716160D02*
X13384553Y-14697112D01*
X13384553Y-14697112D02*
X13384553Y-14620922D01*
X13384553Y-14620922D02*
X13394077Y-14601874D01*
X13394077Y-14601874D02*
X13413125Y-14592350D01*
X13413125Y-14592350D02*
X13451220Y-14592350D01*
X13451220Y-14592350D02*
X13470268Y-14601874D01*
X13470268Y-14601874D02*
X13479791Y-14620922D01*
X13479791Y-14620922D02*
X13479791Y-14639969D01*
X13479791Y-14639969D02*
X13384553Y-14659017D01*
X13555982Y-14716160D02*
X13575030Y-14725684D01*
X13575030Y-14725684D02*
X13613125Y-14725684D01*
X13613125Y-14725684D02*
X13632172Y-14716160D01*
X13632172Y-14716160D02*
X13641696Y-14697112D01*
X13641696Y-14697112D02*
X13641696Y-14687588D01*
X13641696Y-14687588D02*
X13632172Y-14668541D01*
X13632172Y-14668541D02*
X13613125Y-14659017D01*
X13613125Y-14659017D02*
X13584553Y-14659017D01*
X13584553Y-14659017D02*
X13565506Y-14649493D01*
X13565506Y-14649493D02*
X13555982Y-14630446D01*
X13555982Y-14630446D02*
X13555982Y-14620922D01*
X13555982Y-14620922D02*
X13565506Y-14601874D01*
X13565506Y-14601874D02*
X13584553Y-14592350D01*
X13584553Y-14592350D02*
X13613125Y-14592350D01*
X13613125Y-14592350D02*
X13632172Y-14601874D01*
X13708363Y-14801874D02*
X13717887Y-14792350D01*
X13717887Y-14792350D02*
X13736934Y-14763779D01*
X13736934Y-14763779D02*
X13746458Y-14744731D01*
X13746458Y-14744731D02*
X13755982Y-14716160D01*
X13755982Y-14716160D02*
X13765506Y-14668541D01*
X13765506Y-14668541D02*
X13765506Y-14630446D01*
X13765506Y-14630446D02*
X13755982Y-14582827D01*
X13755982Y-14582827D02*
X13746458Y-14554255D01*
X13746458Y-14554255D02*
X13736934Y-14535208D01*
X13736934Y-14535208D02*
X13717887Y-14506636D01*
X13717887Y-14506636D02*
X13708363Y-14497112D01*
D12*
X8893300Y-14858200D02*
X8893300Y-14938200D01*
X8853300Y-14898200D02*
X8933300Y-14898200D01*
D11*
X9232172Y-14789684D02*
X9251220Y-14789684D01*
X9251220Y-14789684D02*
X9270267Y-14799208D01*
X9270267Y-14799208D02*
X9279791Y-14808731D01*
X9279791Y-14808731D02*
X9289315Y-14827779D01*
X9289315Y-14827779D02*
X9298839Y-14865874D01*
X9298839Y-14865874D02*
X9298839Y-14913493D01*
X9298839Y-14913493D02*
X9289315Y-14951588D01*
X9289315Y-14951588D02*
X9279791Y-14970636D01*
X9279791Y-14970636D02*
X9270267Y-14980160D01*
X9270267Y-14980160D02*
X9251220Y-14989684D01*
X9251220Y-14989684D02*
X9232172Y-14989684D01*
X9232172Y-14989684D02*
X9213124Y-14980160D01*
X9213124Y-14980160D02*
X9203601Y-14970636D01*
X9203601Y-14970636D02*
X9194077Y-14951588D01*
X9194077Y-14951588D02*
X9184553Y-14913493D01*
X9184553Y-14913493D02*
X9184553Y-14865874D01*
X9184553Y-14865874D02*
X9194077Y-14827779D01*
X9194077Y-14827779D02*
X9203601Y-14808731D01*
X9203601Y-14808731D02*
X9213124Y-14799208D01*
X9213124Y-14799208D02*
X9232172Y-14789684D01*
X9384553Y-14970636D02*
X9394077Y-14980160D01*
X9394077Y-14980160D02*
X9384553Y-14989684D01*
X9384553Y-14989684D02*
X9375029Y-14980160D01*
X9375029Y-14980160D02*
X9384553Y-14970636D01*
X9384553Y-14970636D02*
X9384553Y-14989684D01*
X9508363Y-14875398D02*
X9489315Y-14865874D01*
X9489315Y-14865874D02*
X9479791Y-14856350D01*
X9479791Y-14856350D02*
X9470267Y-14837303D01*
X9470267Y-14837303D02*
X9470267Y-14827779D01*
X9470267Y-14827779D02*
X9479791Y-14808731D01*
X9479791Y-14808731D02*
X9489315Y-14799208D01*
X9489315Y-14799208D02*
X9508363Y-14789684D01*
X9508363Y-14789684D02*
X9546458Y-14789684D01*
X9546458Y-14789684D02*
X9565505Y-14799208D01*
X9565505Y-14799208D02*
X9575029Y-14808731D01*
X9575029Y-14808731D02*
X9584553Y-14827779D01*
X9584553Y-14827779D02*
X9584553Y-14837303D01*
X9584553Y-14837303D02*
X9575029Y-14856350D01*
X9575029Y-14856350D02*
X9565505Y-14865874D01*
X9565505Y-14865874D02*
X9546458Y-14875398D01*
X9546458Y-14875398D02*
X9508363Y-14875398D01*
X9508363Y-14875398D02*
X9489315Y-14884922D01*
X9489315Y-14884922D02*
X9479791Y-14894446D01*
X9479791Y-14894446D02*
X9470267Y-14913493D01*
X9470267Y-14913493D02*
X9470267Y-14951588D01*
X9470267Y-14951588D02*
X9479791Y-14970636D01*
X9479791Y-14970636D02*
X9489315Y-14980160D01*
X9489315Y-14980160D02*
X9508363Y-14989684D01*
X9508363Y-14989684D02*
X9546458Y-14989684D01*
X9546458Y-14989684D02*
X9565505Y-14980160D01*
X9565505Y-14980160D02*
X9575029Y-14970636D01*
X9575029Y-14970636D02*
X9584553Y-14951588D01*
X9584553Y-14951588D02*
X9584553Y-14913493D01*
X9584553Y-14913493D02*
X9575029Y-14894446D01*
X9575029Y-14894446D02*
X9565505Y-14884922D01*
X9565505Y-14884922D02*
X9546458Y-14875398D01*
X9708363Y-14789684D02*
X9727410Y-14789684D01*
X9727410Y-14789684D02*
X9746458Y-14799208D01*
X9746458Y-14799208D02*
X9755982Y-14808731D01*
X9755982Y-14808731D02*
X9765505Y-14827779D01*
X9765505Y-14827779D02*
X9775029Y-14865874D01*
X9775029Y-14865874D02*
X9775029Y-14913493D01*
X9775029Y-14913493D02*
X9765505Y-14951588D01*
X9765505Y-14951588D02*
X9755982Y-14970636D01*
X9755982Y-14970636D02*
X9746458Y-14980160D01*
X9746458Y-14980160D02*
X9727410Y-14989684D01*
X9727410Y-14989684D02*
X9708363Y-14989684D01*
X9708363Y-14989684D02*
X9689315Y-14980160D01*
X9689315Y-14980160D02*
X9679791Y-14970636D01*
X9679791Y-14970636D02*
X9670267Y-14951588D01*
X9670267Y-14951588D02*
X9660744Y-14913493D01*
X9660744Y-14913493D02*
X9660744Y-14865874D01*
X9660744Y-14865874D02*
X9670267Y-14827779D01*
X9670267Y-14827779D02*
X9679791Y-14808731D01*
X9679791Y-14808731D02*
X9689315Y-14799208D01*
X9689315Y-14799208D02*
X9708363Y-14789684D01*
X9898839Y-14789684D02*
X9917886Y-14789684D01*
X9917886Y-14789684D02*
X9936934Y-14799208D01*
X9936934Y-14799208D02*
X9946458Y-14808731D01*
X9946458Y-14808731D02*
X9955982Y-14827779D01*
X9955982Y-14827779D02*
X9965505Y-14865874D01*
X9965505Y-14865874D02*
X9965505Y-14913493D01*
X9965505Y-14913493D02*
X9955982Y-14951588D01*
X9955982Y-14951588D02*
X9946458Y-14970636D01*
X9946458Y-14970636D02*
X9936934Y-14980160D01*
X9936934Y-14980160D02*
X9917886Y-14989684D01*
X9917886Y-14989684D02*
X9898839Y-14989684D01*
X9898839Y-14989684D02*
X9879791Y-14980160D01*
X9879791Y-14980160D02*
X9870267Y-14970636D01*
X9870267Y-14970636D02*
X9860744Y-14951588D01*
X9860744Y-14951588D02*
X9851220Y-14913493D01*
X9851220Y-14913493D02*
X9851220Y-14865874D01*
X9851220Y-14865874D02*
X9860744Y-14827779D01*
X9860744Y-14827779D02*
X9870267Y-14808731D01*
X9870267Y-14808731D02*
X9879791Y-14799208D01*
X9879791Y-14799208D02*
X9898839Y-14789684D01*
X10051220Y-14989684D02*
X10051220Y-14856350D01*
X10051220Y-14875398D02*
X10060744Y-14865874D01*
X10060744Y-14865874D02*
X10079791Y-14856350D01*
X10079791Y-14856350D02*
X10108363Y-14856350D01*
X10108363Y-14856350D02*
X10127410Y-14865874D01*
X10127410Y-14865874D02*
X10136934Y-14884922D01*
X10136934Y-14884922D02*
X10136934Y-14989684D01*
X10136934Y-14884922D02*
X10146458Y-14865874D01*
X10146458Y-14865874D02*
X10165505Y-14856350D01*
X10165505Y-14856350D02*
X10194077Y-14856350D01*
X10194077Y-14856350D02*
X10213125Y-14865874D01*
X10213125Y-14865874D02*
X10222648Y-14884922D01*
X10222648Y-14884922D02*
X10222648Y-14989684D01*
X10317886Y-14989684D02*
X10317886Y-14856350D01*
X10317886Y-14875398D02*
X10327410Y-14865874D01*
X10327410Y-14865874D02*
X10346458Y-14856350D01*
X10346458Y-14856350D02*
X10375029Y-14856350D01*
X10375029Y-14856350D02*
X10394077Y-14865874D01*
X10394077Y-14865874D02*
X10403601Y-14884922D01*
X10403601Y-14884922D02*
X10403601Y-14989684D01*
X10403601Y-14884922D02*
X10413125Y-14865874D01*
X10413125Y-14865874D02*
X10432172Y-14856350D01*
X10432172Y-14856350D02*
X10460744Y-14856350D01*
X10460744Y-14856350D02*
X10479791Y-14865874D01*
X10479791Y-14865874D02*
X10489315Y-14884922D01*
X10489315Y-14884922D02*
X10489315Y-14989684D01*
X10879791Y-14780160D02*
X10708363Y-15037303D01*
X11136934Y-14789684D02*
X11155982Y-14789684D01*
X11155982Y-14789684D02*
X11175029Y-14799208D01*
X11175029Y-14799208D02*
X11184553Y-14808731D01*
X11184553Y-14808731D02*
X11194077Y-14827779D01*
X11194077Y-14827779D02*
X11203601Y-14865874D01*
X11203601Y-14865874D02*
X11203601Y-14913493D01*
X11203601Y-14913493D02*
X11194077Y-14951588D01*
X11194077Y-14951588D02*
X11184553Y-14970636D01*
X11184553Y-14970636D02*
X11175029Y-14980160D01*
X11175029Y-14980160D02*
X11155982Y-14989684D01*
X11155982Y-14989684D02*
X11136934Y-14989684D01*
X11136934Y-14989684D02*
X11117887Y-14980160D01*
X11117887Y-14980160D02*
X11108363Y-14970636D01*
X11108363Y-14970636D02*
X11098839Y-14951588D01*
X11098839Y-14951588D02*
X11089315Y-14913493D01*
X11089315Y-14913493D02*
X11089315Y-14865874D01*
X11089315Y-14865874D02*
X11098839Y-14827779D01*
X11098839Y-14827779D02*
X11108363Y-14808731D01*
X11108363Y-14808731D02*
X11117887Y-14799208D01*
X11117887Y-14799208D02*
X11136934Y-14789684D01*
X11289315Y-14970636D02*
X11298839Y-14980160D01*
X11298839Y-14980160D02*
X11289315Y-14989684D01*
X11289315Y-14989684D02*
X11279791Y-14980160D01*
X11279791Y-14980160D02*
X11289315Y-14970636D01*
X11289315Y-14970636D02*
X11289315Y-14989684D01*
X11422648Y-14789684D02*
X11441696Y-14789684D01*
X11441696Y-14789684D02*
X11460744Y-14799208D01*
X11460744Y-14799208D02*
X11470267Y-14808731D01*
X11470267Y-14808731D02*
X11479791Y-14827779D01*
X11479791Y-14827779D02*
X11489315Y-14865874D01*
X11489315Y-14865874D02*
X11489315Y-14913493D01*
X11489315Y-14913493D02*
X11479791Y-14951588D01*
X11479791Y-14951588D02*
X11470267Y-14970636D01*
X11470267Y-14970636D02*
X11460744Y-14980160D01*
X11460744Y-14980160D02*
X11441696Y-14989684D01*
X11441696Y-14989684D02*
X11422648Y-14989684D01*
X11422648Y-14989684D02*
X11403601Y-14980160D01*
X11403601Y-14980160D02*
X11394077Y-14970636D01*
X11394077Y-14970636D02*
X11384553Y-14951588D01*
X11384553Y-14951588D02*
X11375029Y-14913493D01*
X11375029Y-14913493D02*
X11375029Y-14865874D01*
X11375029Y-14865874D02*
X11384553Y-14827779D01*
X11384553Y-14827779D02*
X11394077Y-14808731D01*
X11394077Y-14808731D02*
X11403601Y-14799208D01*
X11403601Y-14799208D02*
X11422648Y-14789684D01*
X11555982Y-14789684D02*
X11679791Y-14789684D01*
X11679791Y-14789684D02*
X11613125Y-14865874D01*
X11613125Y-14865874D02*
X11641696Y-14865874D01*
X11641696Y-14865874D02*
X11660744Y-14875398D01*
X11660744Y-14875398D02*
X11670267Y-14884922D01*
X11670267Y-14884922D02*
X11679791Y-14903969D01*
X11679791Y-14903969D02*
X11679791Y-14951588D01*
X11679791Y-14951588D02*
X11670267Y-14970636D01*
X11670267Y-14970636D02*
X11660744Y-14980160D01*
X11660744Y-14980160D02*
X11641696Y-14989684D01*
X11641696Y-14989684D02*
X11584553Y-14989684D01*
X11584553Y-14989684D02*
X11565506Y-14980160D01*
X11565506Y-14980160D02*
X11555982Y-14970636D01*
X11870267Y-14989684D02*
X11755982Y-14989684D01*
X11813125Y-14989684D02*
X11813125Y-14789684D01*
X11813125Y-14789684D02*
X11794077Y-14818255D01*
X11794077Y-14818255D02*
X11775029Y-14837303D01*
X11775029Y-14837303D02*
X11755982Y-14846827D01*
X12051220Y-14789684D02*
X11955982Y-14789684D01*
X11955982Y-14789684D02*
X11946458Y-14884922D01*
X11946458Y-14884922D02*
X11955982Y-14875398D01*
X11955982Y-14875398D02*
X11975029Y-14865874D01*
X11975029Y-14865874D02*
X12022648Y-14865874D01*
X12022648Y-14865874D02*
X12041696Y-14875398D01*
X12041696Y-14875398D02*
X12051220Y-14884922D01*
X12051220Y-14884922D02*
X12060744Y-14903969D01*
X12060744Y-14903969D02*
X12060744Y-14951588D01*
X12060744Y-14951588D02*
X12051220Y-14970636D01*
X12051220Y-14970636D02*
X12041696Y-14980160D01*
X12041696Y-14980160D02*
X12022648Y-14989684D01*
X12022648Y-14989684D02*
X11975029Y-14989684D01*
X11975029Y-14989684D02*
X11955982Y-14980160D01*
X11955982Y-14980160D02*
X11946458Y-14970636D01*
X12136934Y-14789684D02*
X12136934Y-14827779D01*
X12213125Y-14789684D02*
X12213125Y-14827779D01*
X12508363Y-15065874D02*
X12498839Y-15056350D01*
X12498839Y-15056350D02*
X12479791Y-15027779D01*
X12479791Y-15027779D02*
X12470268Y-15008731D01*
X12470268Y-15008731D02*
X12460744Y-14980160D01*
X12460744Y-14980160D02*
X12451220Y-14932541D01*
X12451220Y-14932541D02*
X12451220Y-14894446D01*
X12451220Y-14894446D02*
X12460744Y-14846827D01*
X12460744Y-14846827D02*
X12470268Y-14818255D01*
X12470268Y-14818255D02*
X12479791Y-14799208D01*
X12479791Y-14799208D02*
X12498839Y-14770636D01*
X12498839Y-14770636D02*
X12508363Y-14761112D01*
X12689315Y-14989684D02*
X12575029Y-14989684D01*
X12632172Y-14989684D02*
X12632172Y-14789684D01*
X12632172Y-14789684D02*
X12613125Y-14818255D01*
X12613125Y-14818255D02*
X12594077Y-14837303D01*
X12594077Y-14837303D02*
X12575029Y-14846827D01*
X12765506Y-14808731D02*
X12775029Y-14799208D01*
X12775029Y-14799208D02*
X12794077Y-14789684D01*
X12794077Y-14789684D02*
X12841696Y-14789684D01*
X12841696Y-14789684D02*
X12860744Y-14799208D01*
X12860744Y-14799208D02*
X12870268Y-14808731D01*
X12870268Y-14808731D02*
X12879791Y-14827779D01*
X12879791Y-14827779D02*
X12879791Y-14846827D01*
X12879791Y-14846827D02*
X12870268Y-14875398D01*
X12870268Y-14875398D02*
X12755982Y-14989684D01*
X12755982Y-14989684D02*
X12879791Y-14989684D01*
X13117887Y-14989684D02*
X13117887Y-14789684D01*
X13203601Y-14989684D02*
X13203601Y-14884922D01*
X13203601Y-14884922D02*
X13194077Y-14865874D01*
X13194077Y-14865874D02*
X13175030Y-14856350D01*
X13175030Y-14856350D02*
X13146458Y-14856350D01*
X13146458Y-14856350D02*
X13127410Y-14865874D01*
X13127410Y-14865874D02*
X13117887Y-14875398D01*
X13327410Y-14989684D02*
X13308363Y-14980160D01*
X13308363Y-14980160D02*
X13298839Y-14970636D01*
X13298839Y-14970636D02*
X13289315Y-14951588D01*
X13289315Y-14951588D02*
X13289315Y-14894446D01*
X13289315Y-14894446D02*
X13298839Y-14875398D01*
X13298839Y-14875398D02*
X13308363Y-14865874D01*
X13308363Y-14865874D02*
X13327410Y-14856350D01*
X13327410Y-14856350D02*
X13355982Y-14856350D01*
X13355982Y-14856350D02*
X13375030Y-14865874D01*
X13375030Y-14865874D02*
X13384553Y-14875398D01*
X13384553Y-14875398D02*
X13394077Y-14894446D01*
X13394077Y-14894446D02*
X13394077Y-14951588D01*
X13394077Y-14951588D02*
X13384553Y-14970636D01*
X13384553Y-14970636D02*
X13375030Y-14980160D01*
X13375030Y-14980160D02*
X13355982Y-14989684D01*
X13355982Y-14989684D02*
X13327410Y-14989684D01*
X13508363Y-14989684D02*
X13489315Y-14980160D01*
X13489315Y-14980160D02*
X13479791Y-14961112D01*
X13479791Y-14961112D02*
X13479791Y-14789684D01*
X13660744Y-14980160D02*
X13641696Y-14989684D01*
X13641696Y-14989684D02*
X13603601Y-14989684D01*
X13603601Y-14989684D02*
X13584553Y-14980160D01*
X13584553Y-14980160D02*
X13575030Y-14961112D01*
X13575030Y-14961112D02*
X13575030Y-14884922D01*
X13575030Y-14884922D02*
X13584553Y-14865874D01*
X13584553Y-14865874D02*
X13603601Y-14856350D01*
X13603601Y-14856350D02*
X13641696Y-14856350D01*
X13641696Y-14856350D02*
X13660744Y-14865874D01*
X13660744Y-14865874D02*
X13670268Y-14884922D01*
X13670268Y-14884922D02*
X13670268Y-14903969D01*
X13670268Y-14903969D02*
X13575030Y-14923017D01*
X13746458Y-14980160D02*
X13765506Y-14989684D01*
X13765506Y-14989684D02*
X13803601Y-14989684D01*
X13803601Y-14989684D02*
X13822649Y-14980160D01*
X13822649Y-14980160D02*
X13832172Y-14961112D01*
X13832172Y-14961112D02*
X13832172Y-14951588D01*
X13832172Y-14951588D02*
X13822649Y-14932541D01*
X13822649Y-14932541D02*
X13803601Y-14923017D01*
X13803601Y-14923017D02*
X13775030Y-14923017D01*
X13775030Y-14923017D02*
X13755982Y-14913493D01*
X13755982Y-14913493D02*
X13746458Y-14894446D01*
X13746458Y-14894446D02*
X13746458Y-14884922D01*
X13746458Y-14884922D02*
X13755982Y-14865874D01*
X13755982Y-14865874D02*
X13775030Y-14856350D01*
X13775030Y-14856350D02*
X13803601Y-14856350D01*
X13803601Y-14856350D02*
X13822649Y-14865874D01*
X13898839Y-15065874D02*
X13908363Y-15056350D01*
X13908363Y-15056350D02*
X13927411Y-15027779D01*
X13927411Y-15027779D02*
X13936934Y-15008731D01*
X13936934Y-15008731D02*
X13946458Y-14980160D01*
X13946458Y-14980160D02*
X13955982Y-14932541D01*
X13955982Y-14932541D02*
X13955982Y-14894446D01*
X13955982Y-14894446D02*
X13946458Y-14846827D01*
X13946458Y-14846827D02*
X13936934Y-14818255D01*
X13936934Y-14818255D02*
X13927411Y-14799208D01*
X13927411Y-14799208D02*
X13908363Y-14770636D01*
X13908363Y-14770636D02*
X13898839Y-14761112D01*
D12*
X8920120Y-15194020D02*
X8920120Y-15130380D01*
X8856480Y-15130380D01*
X8856480Y-15194020D01*
X8920120Y-15194020D01*
D11*
X9232172Y-15053684D02*
X9251220Y-15053684D01*
X9251220Y-15053684D02*
X9270267Y-15063208D01*
X9270267Y-15063208D02*
X9279791Y-15072731D01*
X9279791Y-15072731D02*
X9289315Y-15091779D01*
X9289315Y-15091779D02*
X9298839Y-15129874D01*
X9298839Y-15129874D02*
X9298839Y-15177493D01*
X9298839Y-15177493D02*
X9289315Y-15215588D01*
X9289315Y-15215588D02*
X9279791Y-15234636D01*
X9279791Y-15234636D02*
X9270267Y-15244160D01*
X9270267Y-15244160D02*
X9251220Y-15253684D01*
X9251220Y-15253684D02*
X9232172Y-15253684D01*
X9232172Y-15253684D02*
X9213124Y-15244160D01*
X9213124Y-15244160D02*
X9203601Y-15234636D01*
X9203601Y-15234636D02*
X9194077Y-15215588D01*
X9194077Y-15215588D02*
X9184553Y-15177493D01*
X9184553Y-15177493D02*
X9184553Y-15129874D01*
X9184553Y-15129874D02*
X9194077Y-15091779D01*
X9194077Y-15091779D02*
X9203601Y-15072731D01*
X9203601Y-15072731D02*
X9213124Y-15063208D01*
X9213124Y-15063208D02*
X9232172Y-15053684D01*
X9384553Y-15234636D02*
X9394077Y-15244160D01*
X9394077Y-15244160D02*
X9384553Y-15253684D01*
X9384553Y-15253684D02*
X9375029Y-15244160D01*
X9375029Y-15244160D02*
X9384553Y-15234636D01*
X9384553Y-15234636D02*
X9384553Y-15253684D01*
X9489315Y-15253684D02*
X9527410Y-15253684D01*
X9527410Y-15253684D02*
X9546458Y-15244160D01*
X9546458Y-15244160D02*
X9555982Y-15234636D01*
X9555982Y-15234636D02*
X9575029Y-15206065D01*
X9575029Y-15206065D02*
X9584553Y-15167969D01*
X9584553Y-15167969D02*
X9584553Y-15091779D01*
X9584553Y-15091779D02*
X9575029Y-15072731D01*
X9575029Y-15072731D02*
X9565505Y-15063208D01*
X9565505Y-15063208D02*
X9546458Y-15053684D01*
X9546458Y-15053684D02*
X9508363Y-15053684D01*
X9508363Y-15053684D02*
X9489315Y-15063208D01*
X9489315Y-15063208D02*
X9479791Y-15072731D01*
X9479791Y-15072731D02*
X9470267Y-15091779D01*
X9470267Y-15091779D02*
X9470267Y-15139398D01*
X9470267Y-15139398D02*
X9479791Y-15158446D01*
X9479791Y-15158446D02*
X9489315Y-15167969D01*
X9489315Y-15167969D02*
X9508363Y-15177493D01*
X9508363Y-15177493D02*
X9546458Y-15177493D01*
X9546458Y-15177493D02*
X9565505Y-15167969D01*
X9565505Y-15167969D02*
X9575029Y-15158446D01*
X9575029Y-15158446D02*
X9584553Y-15139398D01*
X9708363Y-15053684D02*
X9727410Y-15053684D01*
X9727410Y-15053684D02*
X9746458Y-15063208D01*
X9746458Y-15063208D02*
X9755982Y-15072731D01*
X9755982Y-15072731D02*
X9765505Y-15091779D01*
X9765505Y-15091779D02*
X9775029Y-15129874D01*
X9775029Y-15129874D02*
X9775029Y-15177493D01*
X9775029Y-15177493D02*
X9765505Y-15215588D01*
X9765505Y-15215588D02*
X9755982Y-15234636D01*
X9755982Y-15234636D02*
X9746458Y-15244160D01*
X9746458Y-15244160D02*
X9727410Y-15253684D01*
X9727410Y-15253684D02*
X9708363Y-15253684D01*
X9708363Y-15253684D02*
X9689315Y-15244160D01*
X9689315Y-15244160D02*
X9679791Y-15234636D01*
X9679791Y-15234636D02*
X9670267Y-15215588D01*
X9670267Y-15215588D02*
X9660744Y-15177493D01*
X9660744Y-15177493D02*
X9660744Y-15129874D01*
X9660744Y-15129874D02*
X9670267Y-15091779D01*
X9670267Y-15091779D02*
X9679791Y-15072731D01*
X9679791Y-15072731D02*
X9689315Y-15063208D01*
X9689315Y-15063208D02*
X9708363Y-15053684D01*
X9898839Y-15053684D02*
X9917886Y-15053684D01*
X9917886Y-15053684D02*
X9936934Y-15063208D01*
X9936934Y-15063208D02*
X9946458Y-15072731D01*
X9946458Y-15072731D02*
X9955982Y-15091779D01*
X9955982Y-15091779D02*
X9965505Y-15129874D01*
X9965505Y-15129874D02*
X9965505Y-15177493D01*
X9965505Y-15177493D02*
X9955982Y-15215588D01*
X9955982Y-15215588D02*
X9946458Y-15234636D01*
X9946458Y-15234636D02*
X9936934Y-15244160D01*
X9936934Y-15244160D02*
X9917886Y-15253684D01*
X9917886Y-15253684D02*
X9898839Y-15253684D01*
X9898839Y-15253684D02*
X9879791Y-15244160D01*
X9879791Y-15244160D02*
X9870267Y-15234636D01*
X9870267Y-15234636D02*
X9860744Y-15215588D01*
X9860744Y-15215588D02*
X9851220Y-15177493D01*
X9851220Y-15177493D02*
X9851220Y-15129874D01*
X9851220Y-15129874D02*
X9860744Y-15091779D01*
X9860744Y-15091779D02*
X9870267Y-15072731D01*
X9870267Y-15072731D02*
X9879791Y-15063208D01*
X9879791Y-15063208D02*
X9898839Y-15053684D01*
X10051220Y-15253684D02*
X10051220Y-15120350D01*
X10051220Y-15139398D02*
X10060744Y-15129874D01*
X10060744Y-15129874D02*
X10079791Y-15120350D01*
X10079791Y-15120350D02*
X10108363Y-15120350D01*
X10108363Y-15120350D02*
X10127410Y-15129874D01*
X10127410Y-15129874D02*
X10136934Y-15148922D01*
X10136934Y-15148922D02*
X10136934Y-15253684D01*
X10136934Y-15148922D02*
X10146458Y-15129874D01*
X10146458Y-15129874D02*
X10165505Y-15120350D01*
X10165505Y-15120350D02*
X10194077Y-15120350D01*
X10194077Y-15120350D02*
X10213125Y-15129874D01*
X10213125Y-15129874D02*
X10222648Y-15148922D01*
X10222648Y-15148922D02*
X10222648Y-15253684D01*
X10317886Y-15253684D02*
X10317886Y-15120350D01*
X10317886Y-15139398D02*
X10327410Y-15129874D01*
X10327410Y-15129874D02*
X10346458Y-15120350D01*
X10346458Y-15120350D02*
X10375029Y-15120350D01*
X10375029Y-15120350D02*
X10394077Y-15129874D01*
X10394077Y-15129874D02*
X10403601Y-15148922D01*
X10403601Y-15148922D02*
X10403601Y-15253684D01*
X10403601Y-15148922D02*
X10413125Y-15129874D01*
X10413125Y-15129874D02*
X10432172Y-15120350D01*
X10432172Y-15120350D02*
X10460744Y-15120350D01*
X10460744Y-15120350D02*
X10479791Y-15129874D01*
X10479791Y-15129874D02*
X10489315Y-15148922D01*
X10489315Y-15148922D02*
X10489315Y-15253684D01*
X10879791Y-15044160D02*
X10708363Y-15301303D01*
X11136934Y-15053684D02*
X11155982Y-15053684D01*
X11155982Y-15053684D02*
X11175029Y-15063208D01*
X11175029Y-15063208D02*
X11184553Y-15072731D01*
X11184553Y-15072731D02*
X11194077Y-15091779D01*
X11194077Y-15091779D02*
X11203601Y-15129874D01*
X11203601Y-15129874D02*
X11203601Y-15177493D01*
X11203601Y-15177493D02*
X11194077Y-15215588D01*
X11194077Y-15215588D02*
X11184553Y-15234636D01*
X11184553Y-15234636D02*
X11175029Y-15244160D01*
X11175029Y-15244160D02*
X11155982Y-15253684D01*
X11155982Y-15253684D02*
X11136934Y-15253684D01*
X11136934Y-15253684D02*
X11117887Y-15244160D01*
X11117887Y-15244160D02*
X11108363Y-15234636D01*
X11108363Y-15234636D02*
X11098839Y-15215588D01*
X11098839Y-15215588D02*
X11089315Y-15177493D01*
X11089315Y-15177493D02*
X11089315Y-15129874D01*
X11089315Y-15129874D02*
X11098839Y-15091779D01*
X11098839Y-15091779D02*
X11108363Y-15072731D01*
X11108363Y-15072731D02*
X11117887Y-15063208D01*
X11117887Y-15063208D02*
X11136934Y-15053684D01*
X11289315Y-15234636D02*
X11298839Y-15244160D01*
X11298839Y-15244160D02*
X11289315Y-15253684D01*
X11289315Y-15253684D02*
X11279791Y-15244160D01*
X11279791Y-15244160D02*
X11289315Y-15234636D01*
X11289315Y-15234636D02*
X11289315Y-15253684D01*
X11422648Y-15053684D02*
X11441696Y-15053684D01*
X11441696Y-15053684D02*
X11460744Y-15063208D01*
X11460744Y-15063208D02*
X11470267Y-15072731D01*
X11470267Y-15072731D02*
X11479791Y-15091779D01*
X11479791Y-15091779D02*
X11489315Y-15129874D01*
X11489315Y-15129874D02*
X11489315Y-15177493D01*
X11489315Y-15177493D02*
X11479791Y-15215588D01*
X11479791Y-15215588D02*
X11470267Y-15234636D01*
X11470267Y-15234636D02*
X11460744Y-15244160D01*
X11460744Y-15244160D02*
X11441696Y-15253684D01*
X11441696Y-15253684D02*
X11422648Y-15253684D01*
X11422648Y-15253684D02*
X11403601Y-15244160D01*
X11403601Y-15244160D02*
X11394077Y-15234636D01*
X11394077Y-15234636D02*
X11384553Y-15215588D01*
X11384553Y-15215588D02*
X11375029Y-15177493D01*
X11375029Y-15177493D02*
X11375029Y-15129874D01*
X11375029Y-15129874D02*
X11384553Y-15091779D01*
X11384553Y-15091779D02*
X11394077Y-15072731D01*
X11394077Y-15072731D02*
X11403601Y-15063208D01*
X11403601Y-15063208D02*
X11422648Y-15053684D01*
X11555982Y-15053684D02*
X11679791Y-15053684D01*
X11679791Y-15053684D02*
X11613125Y-15129874D01*
X11613125Y-15129874D02*
X11641696Y-15129874D01*
X11641696Y-15129874D02*
X11660744Y-15139398D01*
X11660744Y-15139398D02*
X11670267Y-15148922D01*
X11670267Y-15148922D02*
X11679791Y-15167969D01*
X11679791Y-15167969D02*
X11679791Y-15215588D01*
X11679791Y-15215588D02*
X11670267Y-15234636D01*
X11670267Y-15234636D02*
X11660744Y-15244160D01*
X11660744Y-15244160D02*
X11641696Y-15253684D01*
X11641696Y-15253684D02*
X11584553Y-15253684D01*
X11584553Y-15253684D02*
X11565506Y-15244160D01*
X11565506Y-15244160D02*
X11555982Y-15234636D01*
X11860744Y-15053684D02*
X11765506Y-15053684D01*
X11765506Y-15053684D02*
X11755982Y-15148922D01*
X11755982Y-15148922D02*
X11765506Y-15139398D01*
X11765506Y-15139398D02*
X11784553Y-15129874D01*
X11784553Y-15129874D02*
X11832172Y-15129874D01*
X11832172Y-15129874D02*
X11851220Y-15139398D01*
X11851220Y-15139398D02*
X11860744Y-15148922D01*
X11860744Y-15148922D02*
X11870267Y-15167969D01*
X11870267Y-15167969D02*
X11870267Y-15215588D01*
X11870267Y-15215588D02*
X11860744Y-15234636D01*
X11860744Y-15234636D02*
X11851220Y-15244160D01*
X11851220Y-15244160D02*
X11832172Y-15253684D01*
X11832172Y-15253684D02*
X11784553Y-15253684D01*
X11784553Y-15253684D02*
X11765506Y-15244160D01*
X11765506Y-15244160D02*
X11755982Y-15234636D01*
X12041696Y-15120350D02*
X12041696Y-15253684D01*
X11994077Y-15044160D02*
X11946458Y-15187017D01*
X11946458Y-15187017D02*
X12070267Y-15187017D01*
X12136934Y-15053684D02*
X12136934Y-15091779D01*
X12213125Y-15053684D02*
X12213125Y-15091779D01*
X12508363Y-15329874D02*
X12498839Y-15320350D01*
X12498839Y-15320350D02*
X12479791Y-15291779D01*
X12479791Y-15291779D02*
X12470268Y-15272731D01*
X12470268Y-15272731D02*
X12460744Y-15244160D01*
X12460744Y-15244160D02*
X12451220Y-15196541D01*
X12451220Y-15196541D02*
X12451220Y-15158446D01*
X12451220Y-15158446D02*
X12460744Y-15110827D01*
X12460744Y-15110827D02*
X12470268Y-15082255D01*
X12470268Y-15082255D02*
X12479791Y-15063208D01*
X12479791Y-15063208D02*
X12498839Y-15034636D01*
X12498839Y-15034636D02*
X12508363Y-15025112D01*
X12689315Y-15253684D02*
X12575029Y-15253684D01*
X12632172Y-15253684D02*
X12632172Y-15053684D01*
X12632172Y-15053684D02*
X12613125Y-15082255D01*
X12613125Y-15082255D02*
X12594077Y-15101303D01*
X12594077Y-15101303D02*
X12575029Y-15110827D01*
X12813125Y-15053684D02*
X12832172Y-15053684D01*
X12832172Y-15053684D02*
X12851220Y-15063208D01*
X12851220Y-15063208D02*
X12860744Y-15072731D01*
X12860744Y-15072731D02*
X12870268Y-15091779D01*
X12870268Y-15091779D02*
X12879791Y-15129874D01*
X12879791Y-15129874D02*
X12879791Y-15177493D01*
X12879791Y-15177493D02*
X12870268Y-15215588D01*
X12870268Y-15215588D02*
X12860744Y-15234636D01*
X12860744Y-15234636D02*
X12851220Y-15244160D01*
X12851220Y-15244160D02*
X12832172Y-15253684D01*
X12832172Y-15253684D02*
X12813125Y-15253684D01*
X12813125Y-15253684D02*
X12794077Y-15244160D01*
X12794077Y-15244160D02*
X12784553Y-15234636D01*
X12784553Y-15234636D02*
X12775029Y-15215588D01*
X12775029Y-15215588D02*
X12765506Y-15177493D01*
X12765506Y-15177493D02*
X12765506Y-15129874D01*
X12765506Y-15129874D02*
X12775029Y-15091779D01*
X12775029Y-15091779D02*
X12784553Y-15072731D01*
X12784553Y-15072731D02*
X12794077Y-15063208D01*
X12794077Y-15063208D02*
X12813125Y-15053684D01*
X13117887Y-15253684D02*
X13117887Y-15053684D01*
X13203601Y-15253684D02*
X13203601Y-15148922D01*
X13203601Y-15148922D02*
X13194077Y-15129874D01*
X13194077Y-15129874D02*
X13175030Y-15120350D01*
X13175030Y-15120350D02*
X13146458Y-15120350D01*
X13146458Y-15120350D02*
X13127410Y-15129874D01*
X13127410Y-15129874D02*
X13117887Y-15139398D01*
X13327410Y-15253684D02*
X13308363Y-15244160D01*
X13308363Y-15244160D02*
X13298839Y-15234636D01*
X13298839Y-15234636D02*
X13289315Y-15215588D01*
X13289315Y-15215588D02*
X13289315Y-15158446D01*
X13289315Y-15158446D02*
X13298839Y-15139398D01*
X13298839Y-15139398D02*
X13308363Y-15129874D01*
X13308363Y-15129874D02*
X13327410Y-15120350D01*
X13327410Y-15120350D02*
X13355982Y-15120350D01*
X13355982Y-15120350D02*
X13375030Y-15129874D01*
X13375030Y-15129874D02*
X13384553Y-15139398D01*
X13384553Y-15139398D02*
X13394077Y-15158446D01*
X13394077Y-15158446D02*
X13394077Y-15215588D01*
X13394077Y-15215588D02*
X13384553Y-15234636D01*
X13384553Y-15234636D02*
X13375030Y-15244160D01*
X13375030Y-15244160D02*
X13355982Y-15253684D01*
X13355982Y-15253684D02*
X13327410Y-15253684D01*
X13508363Y-15253684D02*
X13489315Y-15244160D01*
X13489315Y-15244160D02*
X13479791Y-15225112D01*
X13479791Y-15225112D02*
X13479791Y-15053684D01*
X13660744Y-15244160D02*
X13641696Y-15253684D01*
X13641696Y-15253684D02*
X13603601Y-15253684D01*
X13603601Y-15253684D02*
X13584553Y-15244160D01*
X13584553Y-15244160D02*
X13575030Y-15225112D01*
X13575030Y-15225112D02*
X13575030Y-15148922D01*
X13575030Y-15148922D02*
X13584553Y-15129874D01*
X13584553Y-15129874D02*
X13603601Y-15120350D01*
X13603601Y-15120350D02*
X13641696Y-15120350D01*
X13641696Y-15120350D02*
X13660744Y-15129874D01*
X13660744Y-15129874D02*
X13670268Y-15148922D01*
X13670268Y-15148922D02*
X13670268Y-15167969D01*
X13670268Y-15167969D02*
X13575030Y-15187017D01*
X13746458Y-15244160D02*
X13765506Y-15253684D01*
X13765506Y-15253684D02*
X13803601Y-15253684D01*
X13803601Y-15253684D02*
X13822649Y-15244160D01*
X13822649Y-15244160D02*
X13832172Y-15225112D01*
X13832172Y-15225112D02*
X13832172Y-15215588D01*
X13832172Y-15215588D02*
X13822649Y-15196541D01*
X13822649Y-15196541D02*
X13803601Y-15187017D01*
X13803601Y-15187017D02*
X13775030Y-15187017D01*
X13775030Y-15187017D02*
X13755982Y-15177493D01*
X13755982Y-15177493D02*
X13746458Y-15158446D01*
X13746458Y-15158446D02*
X13746458Y-15148922D01*
X13746458Y-15148922D02*
X13755982Y-15129874D01*
X13755982Y-15129874D02*
X13775030Y-15120350D01*
X13775030Y-15120350D02*
X13803601Y-15120350D01*
X13803601Y-15120350D02*
X13822649Y-15129874D01*
X13898839Y-15329874D02*
X13908363Y-15320350D01*
X13908363Y-15320350D02*
X13927411Y-15291779D01*
X13927411Y-15291779D02*
X13936934Y-15272731D01*
X13936934Y-15272731D02*
X13946458Y-15244160D01*
X13946458Y-15244160D02*
X13955982Y-15196541D01*
X13955982Y-15196541D02*
X13955982Y-15158446D01*
X13955982Y-15158446D02*
X13946458Y-15110827D01*
X13946458Y-15110827D02*
X13936934Y-15082255D01*
X13936934Y-15082255D02*
X13927411Y-15063208D01*
X13927411Y-15063208D02*
X13908363Y-15034636D01*
X13908363Y-15034636D02*
X13898839Y-15025112D01*
D12*
X8885800Y-15473700D02*
X8933300Y-15426200D01*
X8885800Y-15378700D01*
X8838300Y-15426200D01*
X8885800Y-15473700D01*
D11*
X9232172Y-15317684D02*
X9251220Y-15317684D01*
X9251220Y-15317684D02*
X9270267Y-15327208D01*
X9270267Y-15327208D02*
X9279791Y-15336731D01*
X9279791Y-15336731D02*
X9289315Y-15355779D01*
X9289315Y-15355779D02*
X9298839Y-15393874D01*
X9298839Y-15393874D02*
X9298839Y-15441493D01*
X9298839Y-15441493D02*
X9289315Y-15479588D01*
X9289315Y-15479588D02*
X9279791Y-15498636D01*
X9279791Y-15498636D02*
X9270267Y-15508160D01*
X9270267Y-15508160D02*
X9251220Y-15517684D01*
X9251220Y-15517684D02*
X9232172Y-15517684D01*
X9232172Y-15517684D02*
X9213124Y-15508160D01*
X9213124Y-15508160D02*
X9203601Y-15498636D01*
X9203601Y-15498636D02*
X9194077Y-15479588D01*
X9194077Y-15479588D02*
X9184553Y-15441493D01*
X9184553Y-15441493D02*
X9184553Y-15393874D01*
X9184553Y-15393874D02*
X9194077Y-15355779D01*
X9194077Y-15355779D02*
X9203601Y-15336731D01*
X9203601Y-15336731D02*
X9213124Y-15327208D01*
X9213124Y-15327208D02*
X9232172Y-15317684D01*
X9384553Y-15498636D02*
X9394077Y-15508160D01*
X9394077Y-15508160D02*
X9384553Y-15517684D01*
X9384553Y-15517684D02*
X9375029Y-15508160D01*
X9375029Y-15508160D02*
X9384553Y-15498636D01*
X9384553Y-15498636D02*
X9384553Y-15517684D01*
X9489315Y-15517684D02*
X9527410Y-15517684D01*
X9527410Y-15517684D02*
X9546458Y-15508160D01*
X9546458Y-15508160D02*
X9555982Y-15498636D01*
X9555982Y-15498636D02*
X9575029Y-15470065D01*
X9575029Y-15470065D02*
X9584553Y-15431969D01*
X9584553Y-15431969D02*
X9584553Y-15355779D01*
X9584553Y-15355779D02*
X9575029Y-15336731D01*
X9575029Y-15336731D02*
X9565505Y-15327208D01*
X9565505Y-15327208D02*
X9546458Y-15317684D01*
X9546458Y-15317684D02*
X9508363Y-15317684D01*
X9508363Y-15317684D02*
X9489315Y-15327208D01*
X9489315Y-15327208D02*
X9479791Y-15336731D01*
X9479791Y-15336731D02*
X9470267Y-15355779D01*
X9470267Y-15355779D02*
X9470267Y-15403398D01*
X9470267Y-15403398D02*
X9479791Y-15422446D01*
X9479791Y-15422446D02*
X9489315Y-15431969D01*
X9489315Y-15431969D02*
X9508363Y-15441493D01*
X9508363Y-15441493D02*
X9546458Y-15441493D01*
X9546458Y-15441493D02*
X9565505Y-15431969D01*
X9565505Y-15431969D02*
X9575029Y-15422446D01*
X9575029Y-15422446D02*
X9584553Y-15403398D01*
X9765505Y-15317684D02*
X9670267Y-15317684D01*
X9670267Y-15317684D02*
X9660744Y-15412922D01*
X9660744Y-15412922D02*
X9670267Y-15403398D01*
X9670267Y-15403398D02*
X9689315Y-15393874D01*
X9689315Y-15393874D02*
X9736934Y-15393874D01*
X9736934Y-15393874D02*
X9755982Y-15403398D01*
X9755982Y-15403398D02*
X9765505Y-15412922D01*
X9765505Y-15412922D02*
X9775029Y-15431969D01*
X9775029Y-15431969D02*
X9775029Y-15479588D01*
X9775029Y-15479588D02*
X9765505Y-15498636D01*
X9765505Y-15498636D02*
X9755982Y-15508160D01*
X9755982Y-15508160D02*
X9736934Y-15517684D01*
X9736934Y-15517684D02*
X9689315Y-15517684D01*
X9689315Y-15517684D02*
X9670267Y-15508160D01*
X9670267Y-15508160D02*
X9660744Y-15498636D01*
X9898839Y-15317684D02*
X9917886Y-15317684D01*
X9917886Y-15317684D02*
X9936934Y-15327208D01*
X9936934Y-15327208D02*
X9946458Y-15336731D01*
X9946458Y-15336731D02*
X9955982Y-15355779D01*
X9955982Y-15355779D02*
X9965505Y-15393874D01*
X9965505Y-15393874D02*
X9965505Y-15441493D01*
X9965505Y-15441493D02*
X9955982Y-15479588D01*
X9955982Y-15479588D02*
X9946458Y-15498636D01*
X9946458Y-15498636D02*
X9936934Y-15508160D01*
X9936934Y-15508160D02*
X9917886Y-15517684D01*
X9917886Y-15517684D02*
X9898839Y-15517684D01*
X9898839Y-15517684D02*
X9879791Y-15508160D01*
X9879791Y-15508160D02*
X9870267Y-15498636D01*
X9870267Y-15498636D02*
X9860744Y-15479588D01*
X9860744Y-15479588D02*
X9851220Y-15441493D01*
X9851220Y-15441493D02*
X9851220Y-15393874D01*
X9851220Y-15393874D02*
X9860744Y-15355779D01*
X9860744Y-15355779D02*
X9870267Y-15336731D01*
X9870267Y-15336731D02*
X9879791Y-15327208D01*
X9879791Y-15327208D02*
X9898839Y-15317684D01*
X10051220Y-15517684D02*
X10051220Y-15384350D01*
X10051220Y-15403398D02*
X10060744Y-15393874D01*
X10060744Y-15393874D02*
X10079791Y-15384350D01*
X10079791Y-15384350D02*
X10108363Y-15384350D01*
X10108363Y-15384350D02*
X10127410Y-15393874D01*
X10127410Y-15393874D02*
X10136934Y-15412922D01*
X10136934Y-15412922D02*
X10136934Y-15517684D01*
X10136934Y-15412922D02*
X10146458Y-15393874D01*
X10146458Y-15393874D02*
X10165505Y-15384350D01*
X10165505Y-15384350D02*
X10194077Y-15384350D01*
X10194077Y-15384350D02*
X10213125Y-15393874D01*
X10213125Y-15393874D02*
X10222648Y-15412922D01*
X10222648Y-15412922D02*
X10222648Y-15517684D01*
X10317886Y-15517684D02*
X10317886Y-15384350D01*
X10317886Y-15403398D02*
X10327410Y-15393874D01*
X10327410Y-15393874D02*
X10346458Y-15384350D01*
X10346458Y-15384350D02*
X10375029Y-15384350D01*
X10375029Y-15384350D02*
X10394077Y-15393874D01*
X10394077Y-15393874D02*
X10403601Y-15412922D01*
X10403601Y-15412922D02*
X10403601Y-15517684D01*
X10403601Y-15412922D02*
X10413125Y-15393874D01*
X10413125Y-15393874D02*
X10432172Y-15384350D01*
X10432172Y-15384350D02*
X10460744Y-15384350D01*
X10460744Y-15384350D02*
X10479791Y-15393874D01*
X10479791Y-15393874D02*
X10489315Y-15412922D01*
X10489315Y-15412922D02*
X10489315Y-15517684D01*
X10879791Y-15308160D02*
X10708363Y-15565303D01*
X11136934Y-15317684D02*
X11155982Y-15317684D01*
X11155982Y-15317684D02*
X11175029Y-15327208D01*
X11175029Y-15327208D02*
X11184553Y-15336731D01*
X11184553Y-15336731D02*
X11194077Y-15355779D01*
X11194077Y-15355779D02*
X11203601Y-15393874D01*
X11203601Y-15393874D02*
X11203601Y-15441493D01*
X11203601Y-15441493D02*
X11194077Y-15479588D01*
X11194077Y-15479588D02*
X11184553Y-15498636D01*
X11184553Y-15498636D02*
X11175029Y-15508160D01*
X11175029Y-15508160D02*
X11155982Y-15517684D01*
X11155982Y-15517684D02*
X11136934Y-15517684D01*
X11136934Y-15517684D02*
X11117887Y-15508160D01*
X11117887Y-15508160D02*
X11108363Y-15498636D01*
X11108363Y-15498636D02*
X11098839Y-15479588D01*
X11098839Y-15479588D02*
X11089315Y-15441493D01*
X11089315Y-15441493D02*
X11089315Y-15393874D01*
X11089315Y-15393874D02*
X11098839Y-15355779D01*
X11098839Y-15355779D02*
X11108363Y-15336731D01*
X11108363Y-15336731D02*
X11117887Y-15327208D01*
X11117887Y-15327208D02*
X11136934Y-15317684D01*
X11289315Y-15498636D02*
X11298839Y-15508160D01*
X11298839Y-15508160D02*
X11289315Y-15517684D01*
X11289315Y-15517684D02*
X11279791Y-15508160D01*
X11279791Y-15508160D02*
X11289315Y-15498636D01*
X11289315Y-15498636D02*
X11289315Y-15517684D01*
X11422648Y-15317684D02*
X11441696Y-15317684D01*
X11441696Y-15317684D02*
X11460744Y-15327208D01*
X11460744Y-15327208D02*
X11470267Y-15336731D01*
X11470267Y-15336731D02*
X11479791Y-15355779D01*
X11479791Y-15355779D02*
X11489315Y-15393874D01*
X11489315Y-15393874D02*
X11489315Y-15441493D01*
X11489315Y-15441493D02*
X11479791Y-15479588D01*
X11479791Y-15479588D02*
X11470267Y-15498636D01*
X11470267Y-15498636D02*
X11460744Y-15508160D01*
X11460744Y-15508160D02*
X11441696Y-15517684D01*
X11441696Y-15517684D02*
X11422648Y-15517684D01*
X11422648Y-15517684D02*
X11403601Y-15508160D01*
X11403601Y-15508160D02*
X11394077Y-15498636D01*
X11394077Y-15498636D02*
X11384553Y-15479588D01*
X11384553Y-15479588D02*
X11375029Y-15441493D01*
X11375029Y-15441493D02*
X11375029Y-15393874D01*
X11375029Y-15393874D02*
X11384553Y-15355779D01*
X11384553Y-15355779D02*
X11394077Y-15336731D01*
X11394077Y-15336731D02*
X11403601Y-15327208D01*
X11403601Y-15327208D02*
X11422648Y-15317684D01*
X11555982Y-15317684D02*
X11679791Y-15317684D01*
X11679791Y-15317684D02*
X11613125Y-15393874D01*
X11613125Y-15393874D02*
X11641696Y-15393874D01*
X11641696Y-15393874D02*
X11660744Y-15403398D01*
X11660744Y-15403398D02*
X11670267Y-15412922D01*
X11670267Y-15412922D02*
X11679791Y-15431969D01*
X11679791Y-15431969D02*
X11679791Y-15479588D01*
X11679791Y-15479588D02*
X11670267Y-15498636D01*
X11670267Y-15498636D02*
X11660744Y-15508160D01*
X11660744Y-15508160D02*
X11641696Y-15517684D01*
X11641696Y-15517684D02*
X11584553Y-15517684D01*
X11584553Y-15517684D02*
X11565506Y-15508160D01*
X11565506Y-15508160D02*
X11555982Y-15498636D01*
X11746458Y-15317684D02*
X11879791Y-15317684D01*
X11879791Y-15317684D02*
X11794077Y-15517684D01*
X12041696Y-15384350D02*
X12041696Y-15517684D01*
X11994077Y-15308160D02*
X11946458Y-15451017D01*
X11946458Y-15451017D02*
X12070267Y-15451017D01*
X12136934Y-15317684D02*
X12136934Y-15355779D01*
X12213125Y-15317684D02*
X12213125Y-15355779D01*
X12508363Y-15593874D02*
X12498839Y-15584350D01*
X12498839Y-15584350D02*
X12479791Y-15555779D01*
X12479791Y-15555779D02*
X12470268Y-15536731D01*
X12470268Y-15536731D02*
X12460744Y-15508160D01*
X12460744Y-15508160D02*
X12451220Y-15460541D01*
X12451220Y-15460541D02*
X12451220Y-15422446D01*
X12451220Y-15422446D02*
X12460744Y-15374827D01*
X12460744Y-15374827D02*
X12470268Y-15346255D01*
X12470268Y-15346255D02*
X12479791Y-15327208D01*
X12479791Y-15327208D02*
X12498839Y-15298636D01*
X12498839Y-15298636D02*
X12508363Y-15289112D01*
X12689315Y-15517684D02*
X12575029Y-15517684D01*
X12632172Y-15517684D02*
X12632172Y-15317684D01*
X12632172Y-15317684D02*
X12613125Y-15346255D01*
X12613125Y-15346255D02*
X12594077Y-15365303D01*
X12594077Y-15365303D02*
X12575029Y-15374827D01*
X12765506Y-15336731D02*
X12775029Y-15327208D01*
X12775029Y-15327208D02*
X12794077Y-15317684D01*
X12794077Y-15317684D02*
X12841696Y-15317684D01*
X12841696Y-15317684D02*
X12860744Y-15327208D01*
X12860744Y-15327208D02*
X12870268Y-15336731D01*
X12870268Y-15336731D02*
X12879791Y-15355779D01*
X12879791Y-15355779D02*
X12879791Y-15374827D01*
X12879791Y-15374827D02*
X12870268Y-15403398D01*
X12870268Y-15403398D02*
X12755982Y-15517684D01*
X12755982Y-15517684D02*
X12879791Y-15517684D01*
X13117887Y-15517684D02*
X13117887Y-15317684D01*
X13203601Y-15517684D02*
X13203601Y-15412922D01*
X13203601Y-15412922D02*
X13194077Y-15393874D01*
X13194077Y-15393874D02*
X13175030Y-15384350D01*
X13175030Y-15384350D02*
X13146458Y-15384350D01*
X13146458Y-15384350D02*
X13127410Y-15393874D01*
X13127410Y-15393874D02*
X13117887Y-15403398D01*
X13327410Y-15517684D02*
X13308363Y-15508160D01*
X13308363Y-15508160D02*
X13298839Y-15498636D01*
X13298839Y-15498636D02*
X13289315Y-15479588D01*
X13289315Y-15479588D02*
X13289315Y-15422446D01*
X13289315Y-15422446D02*
X13298839Y-15403398D01*
X13298839Y-15403398D02*
X13308363Y-15393874D01*
X13308363Y-15393874D02*
X13327410Y-15384350D01*
X13327410Y-15384350D02*
X13355982Y-15384350D01*
X13355982Y-15384350D02*
X13375030Y-15393874D01*
X13375030Y-15393874D02*
X13384553Y-15403398D01*
X13384553Y-15403398D02*
X13394077Y-15422446D01*
X13394077Y-15422446D02*
X13394077Y-15479588D01*
X13394077Y-15479588D02*
X13384553Y-15498636D01*
X13384553Y-15498636D02*
X13375030Y-15508160D01*
X13375030Y-15508160D02*
X13355982Y-15517684D01*
X13355982Y-15517684D02*
X13327410Y-15517684D01*
X13508363Y-15517684D02*
X13489315Y-15508160D01*
X13489315Y-15508160D02*
X13479791Y-15489112D01*
X13479791Y-15489112D02*
X13479791Y-15317684D01*
X13660744Y-15508160D02*
X13641696Y-15517684D01*
X13641696Y-15517684D02*
X13603601Y-15517684D01*
X13603601Y-15517684D02*
X13584553Y-15508160D01*
X13584553Y-15508160D02*
X13575030Y-15489112D01*
X13575030Y-15489112D02*
X13575030Y-15412922D01*
X13575030Y-15412922D02*
X13584553Y-15393874D01*
X13584553Y-15393874D02*
X13603601Y-15384350D01*
X13603601Y-15384350D02*
X13641696Y-15384350D01*
X13641696Y-15384350D02*
X13660744Y-15393874D01*
X13660744Y-15393874D02*
X13670268Y-15412922D01*
X13670268Y-15412922D02*
X13670268Y-15431969D01*
X13670268Y-15431969D02*
X13575030Y-15451017D01*
X13746458Y-15508160D02*
X13765506Y-15517684D01*
X13765506Y-15517684D02*
X13803601Y-15517684D01*
X13803601Y-15517684D02*
X13822649Y-15508160D01*
X13822649Y-15508160D02*
X13832172Y-15489112D01*
X13832172Y-15489112D02*
X13832172Y-15479588D01*
X13832172Y-15479588D02*
X13822649Y-15460541D01*
X13822649Y-15460541D02*
X13803601Y-15451017D01*
X13803601Y-15451017D02*
X13775030Y-15451017D01*
X13775030Y-15451017D02*
X13755982Y-15441493D01*
X13755982Y-15441493D02*
X13746458Y-15422446D01*
X13746458Y-15422446D02*
X13746458Y-15412922D01*
X13746458Y-15412922D02*
X13755982Y-15393874D01*
X13755982Y-15393874D02*
X13775030Y-15384350D01*
X13775030Y-15384350D02*
X13803601Y-15384350D01*
X13803601Y-15384350D02*
X13822649Y-15393874D01*
X13898839Y-15593874D02*
X13908363Y-15584350D01*
X13908363Y-15584350D02*
X13927411Y-15555779D01*
X13927411Y-15555779D02*
X13936934Y-15536731D01*
X13936934Y-15536731D02*
X13946458Y-15508160D01*
X13946458Y-15508160D02*
X13955982Y-15460541D01*
X13955982Y-15460541D02*
X13955982Y-15422446D01*
X13955982Y-15422446D02*
X13946458Y-15374827D01*
X13946458Y-15374827D02*
X13936934Y-15346255D01*
X13936934Y-15346255D02*
X13927411Y-15327208D01*
X13927411Y-15327208D02*
X13908363Y-15298636D01*
X13908363Y-15298636D02*
X13898839Y-15289112D01*
D12*
X8833300Y-15640200D02*
X8933300Y-15740200D01*
X8933300Y-15640200D02*
X8833300Y-15740200D01*
X8933300Y-15690200D02*
G75*
G02*
X8833300Y-15690200I-50000J0D01*
G01*
X8833300Y-15690200D02*
G75*
G02*
X8933300Y-15690200I50000J0D01*
G01*
D11*
X9298839Y-15781684D02*
X9184553Y-15781684D01*
X9241696Y-15781684D02*
X9241696Y-15581684D01*
X9241696Y-15581684D02*
X9222648Y-15610255D01*
X9222648Y-15610255D02*
X9203601Y-15629303D01*
X9203601Y-15629303D02*
X9184553Y-15638827D01*
X9384553Y-15762636D02*
X9394077Y-15772160D01*
X9394077Y-15772160D02*
X9384553Y-15781684D01*
X9384553Y-15781684D02*
X9375029Y-15772160D01*
X9375029Y-15772160D02*
X9384553Y-15762636D01*
X9384553Y-15762636D02*
X9384553Y-15781684D01*
X9517886Y-15581684D02*
X9536934Y-15581684D01*
X9536934Y-15581684D02*
X9555982Y-15591208D01*
X9555982Y-15591208D02*
X9565505Y-15600731D01*
X9565505Y-15600731D02*
X9575029Y-15619779D01*
X9575029Y-15619779D02*
X9584553Y-15657874D01*
X9584553Y-15657874D02*
X9584553Y-15705493D01*
X9584553Y-15705493D02*
X9575029Y-15743588D01*
X9575029Y-15743588D02*
X9565505Y-15762636D01*
X9565505Y-15762636D02*
X9555982Y-15772160D01*
X9555982Y-15772160D02*
X9536934Y-15781684D01*
X9536934Y-15781684D02*
X9517886Y-15781684D01*
X9517886Y-15781684D02*
X9498839Y-15772160D01*
X9498839Y-15772160D02*
X9489315Y-15762636D01*
X9489315Y-15762636D02*
X9479791Y-15743588D01*
X9479791Y-15743588D02*
X9470267Y-15705493D01*
X9470267Y-15705493D02*
X9470267Y-15657874D01*
X9470267Y-15657874D02*
X9479791Y-15619779D01*
X9479791Y-15619779D02*
X9489315Y-15600731D01*
X9489315Y-15600731D02*
X9498839Y-15591208D01*
X9498839Y-15591208D02*
X9517886Y-15581684D01*
X9708363Y-15581684D02*
X9727410Y-15581684D01*
X9727410Y-15581684D02*
X9746458Y-15591208D01*
X9746458Y-15591208D02*
X9755982Y-15600731D01*
X9755982Y-15600731D02*
X9765505Y-15619779D01*
X9765505Y-15619779D02*
X9775029Y-15657874D01*
X9775029Y-15657874D02*
X9775029Y-15705493D01*
X9775029Y-15705493D02*
X9765505Y-15743588D01*
X9765505Y-15743588D02*
X9755982Y-15762636D01*
X9755982Y-15762636D02*
X9746458Y-15772160D01*
X9746458Y-15772160D02*
X9727410Y-15781684D01*
X9727410Y-15781684D02*
X9708363Y-15781684D01*
X9708363Y-15781684D02*
X9689315Y-15772160D01*
X9689315Y-15772160D02*
X9679791Y-15762636D01*
X9679791Y-15762636D02*
X9670267Y-15743588D01*
X9670267Y-15743588D02*
X9660744Y-15705493D01*
X9660744Y-15705493D02*
X9660744Y-15657874D01*
X9660744Y-15657874D02*
X9670267Y-15619779D01*
X9670267Y-15619779D02*
X9679791Y-15600731D01*
X9679791Y-15600731D02*
X9689315Y-15591208D01*
X9689315Y-15591208D02*
X9708363Y-15581684D01*
X9898839Y-15581684D02*
X9917886Y-15581684D01*
X9917886Y-15581684D02*
X9936934Y-15591208D01*
X9936934Y-15591208D02*
X9946458Y-15600731D01*
X9946458Y-15600731D02*
X9955982Y-15619779D01*
X9955982Y-15619779D02*
X9965505Y-15657874D01*
X9965505Y-15657874D02*
X9965505Y-15705493D01*
X9965505Y-15705493D02*
X9955982Y-15743588D01*
X9955982Y-15743588D02*
X9946458Y-15762636D01*
X9946458Y-15762636D02*
X9936934Y-15772160D01*
X9936934Y-15772160D02*
X9917886Y-15781684D01*
X9917886Y-15781684D02*
X9898839Y-15781684D01*
X9898839Y-15781684D02*
X9879791Y-15772160D01*
X9879791Y-15772160D02*
X9870267Y-15762636D01*
X9870267Y-15762636D02*
X9860744Y-15743588D01*
X9860744Y-15743588D02*
X9851220Y-15705493D01*
X9851220Y-15705493D02*
X9851220Y-15657874D01*
X9851220Y-15657874D02*
X9860744Y-15619779D01*
X9860744Y-15619779D02*
X9870267Y-15600731D01*
X9870267Y-15600731D02*
X9879791Y-15591208D01*
X9879791Y-15591208D02*
X9898839Y-15581684D01*
X10051220Y-15781684D02*
X10051220Y-15648350D01*
X10051220Y-15667398D02*
X10060744Y-15657874D01*
X10060744Y-15657874D02*
X10079791Y-15648350D01*
X10079791Y-15648350D02*
X10108363Y-15648350D01*
X10108363Y-15648350D02*
X10127410Y-15657874D01*
X10127410Y-15657874D02*
X10136934Y-15676922D01*
X10136934Y-15676922D02*
X10136934Y-15781684D01*
X10136934Y-15676922D02*
X10146458Y-15657874D01*
X10146458Y-15657874D02*
X10165505Y-15648350D01*
X10165505Y-15648350D02*
X10194077Y-15648350D01*
X10194077Y-15648350D02*
X10213125Y-15657874D01*
X10213125Y-15657874D02*
X10222648Y-15676922D01*
X10222648Y-15676922D02*
X10222648Y-15781684D01*
X10317886Y-15781684D02*
X10317886Y-15648350D01*
X10317886Y-15667398D02*
X10327410Y-15657874D01*
X10327410Y-15657874D02*
X10346458Y-15648350D01*
X10346458Y-15648350D02*
X10375029Y-15648350D01*
X10375029Y-15648350D02*
X10394077Y-15657874D01*
X10394077Y-15657874D02*
X10403601Y-15676922D01*
X10403601Y-15676922D02*
X10403601Y-15781684D01*
X10403601Y-15676922D02*
X10413125Y-15657874D01*
X10413125Y-15657874D02*
X10432172Y-15648350D01*
X10432172Y-15648350D02*
X10460744Y-15648350D01*
X10460744Y-15648350D02*
X10479791Y-15657874D01*
X10479791Y-15657874D02*
X10489315Y-15676922D01*
X10489315Y-15676922D02*
X10489315Y-15781684D01*
X10879791Y-15572160D02*
X10708363Y-15829303D01*
X11136934Y-15581684D02*
X11155982Y-15581684D01*
X11155982Y-15581684D02*
X11175029Y-15591208D01*
X11175029Y-15591208D02*
X11184553Y-15600731D01*
X11184553Y-15600731D02*
X11194077Y-15619779D01*
X11194077Y-15619779D02*
X11203601Y-15657874D01*
X11203601Y-15657874D02*
X11203601Y-15705493D01*
X11203601Y-15705493D02*
X11194077Y-15743588D01*
X11194077Y-15743588D02*
X11184553Y-15762636D01*
X11184553Y-15762636D02*
X11175029Y-15772160D01*
X11175029Y-15772160D02*
X11155982Y-15781684D01*
X11155982Y-15781684D02*
X11136934Y-15781684D01*
X11136934Y-15781684D02*
X11117887Y-15772160D01*
X11117887Y-15772160D02*
X11108363Y-15762636D01*
X11108363Y-15762636D02*
X11098839Y-15743588D01*
X11098839Y-15743588D02*
X11089315Y-15705493D01*
X11089315Y-15705493D02*
X11089315Y-15657874D01*
X11089315Y-15657874D02*
X11098839Y-15619779D01*
X11098839Y-15619779D02*
X11108363Y-15600731D01*
X11108363Y-15600731D02*
X11117887Y-15591208D01*
X11117887Y-15591208D02*
X11136934Y-15581684D01*
X11289315Y-15762636D02*
X11298839Y-15772160D01*
X11298839Y-15772160D02*
X11289315Y-15781684D01*
X11289315Y-15781684D02*
X11279791Y-15772160D01*
X11279791Y-15772160D02*
X11289315Y-15762636D01*
X11289315Y-15762636D02*
X11289315Y-15781684D01*
X11422648Y-15581684D02*
X11441696Y-15581684D01*
X11441696Y-15581684D02*
X11460744Y-15591208D01*
X11460744Y-15591208D02*
X11470267Y-15600731D01*
X11470267Y-15600731D02*
X11479791Y-15619779D01*
X11479791Y-15619779D02*
X11489315Y-15657874D01*
X11489315Y-15657874D02*
X11489315Y-15705493D01*
X11489315Y-15705493D02*
X11479791Y-15743588D01*
X11479791Y-15743588D02*
X11470267Y-15762636D01*
X11470267Y-15762636D02*
X11460744Y-15772160D01*
X11460744Y-15772160D02*
X11441696Y-15781684D01*
X11441696Y-15781684D02*
X11422648Y-15781684D01*
X11422648Y-15781684D02*
X11403601Y-15772160D01*
X11403601Y-15772160D02*
X11394077Y-15762636D01*
X11394077Y-15762636D02*
X11384553Y-15743588D01*
X11384553Y-15743588D02*
X11375029Y-15705493D01*
X11375029Y-15705493D02*
X11375029Y-15657874D01*
X11375029Y-15657874D02*
X11384553Y-15619779D01*
X11384553Y-15619779D02*
X11394077Y-15600731D01*
X11394077Y-15600731D02*
X11403601Y-15591208D01*
X11403601Y-15591208D02*
X11422648Y-15581684D01*
X11555982Y-15581684D02*
X11679791Y-15581684D01*
X11679791Y-15581684D02*
X11613125Y-15657874D01*
X11613125Y-15657874D02*
X11641696Y-15657874D01*
X11641696Y-15657874D02*
X11660744Y-15667398D01*
X11660744Y-15667398D02*
X11670267Y-15676922D01*
X11670267Y-15676922D02*
X11679791Y-15695969D01*
X11679791Y-15695969D02*
X11679791Y-15743588D01*
X11679791Y-15743588D02*
X11670267Y-15762636D01*
X11670267Y-15762636D02*
X11660744Y-15772160D01*
X11660744Y-15772160D02*
X11641696Y-15781684D01*
X11641696Y-15781684D02*
X11584553Y-15781684D01*
X11584553Y-15781684D02*
X11565506Y-15772160D01*
X11565506Y-15772160D02*
X11555982Y-15762636D01*
X11775029Y-15781684D02*
X11813125Y-15781684D01*
X11813125Y-15781684D02*
X11832172Y-15772160D01*
X11832172Y-15772160D02*
X11841696Y-15762636D01*
X11841696Y-15762636D02*
X11860744Y-15734065D01*
X11860744Y-15734065D02*
X11870267Y-15695969D01*
X11870267Y-15695969D02*
X11870267Y-15619779D01*
X11870267Y-15619779D02*
X11860744Y-15600731D01*
X11860744Y-15600731D02*
X11851220Y-15591208D01*
X11851220Y-15591208D02*
X11832172Y-15581684D01*
X11832172Y-15581684D02*
X11794077Y-15581684D01*
X11794077Y-15581684D02*
X11775029Y-15591208D01*
X11775029Y-15591208D02*
X11765506Y-15600731D01*
X11765506Y-15600731D02*
X11755982Y-15619779D01*
X11755982Y-15619779D02*
X11755982Y-15667398D01*
X11755982Y-15667398D02*
X11765506Y-15686446D01*
X11765506Y-15686446D02*
X11775029Y-15695969D01*
X11775029Y-15695969D02*
X11794077Y-15705493D01*
X11794077Y-15705493D02*
X11832172Y-15705493D01*
X11832172Y-15705493D02*
X11851220Y-15695969D01*
X11851220Y-15695969D02*
X11860744Y-15686446D01*
X11860744Y-15686446D02*
X11870267Y-15667398D01*
X12041696Y-15648350D02*
X12041696Y-15781684D01*
X11994077Y-15572160D02*
X11946458Y-15715017D01*
X11946458Y-15715017D02*
X12070267Y-15715017D01*
X12136934Y-15581684D02*
X12136934Y-15619779D01*
X12213125Y-15581684D02*
X12213125Y-15619779D01*
X12508363Y-15857874D02*
X12498839Y-15848350D01*
X12498839Y-15848350D02*
X12479791Y-15819779D01*
X12479791Y-15819779D02*
X12470268Y-15800731D01*
X12470268Y-15800731D02*
X12460744Y-15772160D01*
X12460744Y-15772160D02*
X12451220Y-15724541D01*
X12451220Y-15724541D02*
X12451220Y-15686446D01*
X12451220Y-15686446D02*
X12460744Y-15638827D01*
X12460744Y-15638827D02*
X12470268Y-15610255D01*
X12470268Y-15610255D02*
X12479791Y-15591208D01*
X12479791Y-15591208D02*
X12498839Y-15562636D01*
X12498839Y-15562636D02*
X12508363Y-15553112D01*
X12689315Y-15781684D02*
X12575029Y-15781684D01*
X12632172Y-15781684D02*
X12632172Y-15581684D01*
X12632172Y-15581684D02*
X12613125Y-15610255D01*
X12613125Y-15610255D02*
X12594077Y-15629303D01*
X12594077Y-15629303D02*
X12575029Y-15638827D01*
X12755982Y-15581684D02*
X12879791Y-15581684D01*
X12879791Y-15581684D02*
X12813125Y-15657874D01*
X12813125Y-15657874D02*
X12841696Y-15657874D01*
X12841696Y-15657874D02*
X12860744Y-15667398D01*
X12860744Y-15667398D02*
X12870268Y-15676922D01*
X12870268Y-15676922D02*
X12879791Y-15695969D01*
X12879791Y-15695969D02*
X12879791Y-15743588D01*
X12879791Y-15743588D02*
X12870268Y-15762636D01*
X12870268Y-15762636D02*
X12860744Y-15772160D01*
X12860744Y-15772160D02*
X12841696Y-15781684D01*
X12841696Y-15781684D02*
X12784553Y-15781684D01*
X12784553Y-15781684D02*
X12765506Y-15772160D01*
X12765506Y-15772160D02*
X12755982Y-15762636D01*
X13117887Y-15781684D02*
X13117887Y-15581684D01*
X13203601Y-15781684D02*
X13203601Y-15676922D01*
X13203601Y-15676922D02*
X13194077Y-15657874D01*
X13194077Y-15657874D02*
X13175030Y-15648350D01*
X13175030Y-15648350D02*
X13146458Y-15648350D01*
X13146458Y-15648350D02*
X13127410Y-15657874D01*
X13127410Y-15657874D02*
X13117887Y-15667398D01*
X13327410Y-15781684D02*
X13308363Y-15772160D01*
X13308363Y-15772160D02*
X13298839Y-15762636D01*
X13298839Y-15762636D02*
X13289315Y-15743588D01*
X13289315Y-15743588D02*
X13289315Y-15686446D01*
X13289315Y-15686446D02*
X13298839Y-15667398D01*
X13298839Y-15667398D02*
X13308363Y-15657874D01*
X13308363Y-15657874D02*
X13327410Y-15648350D01*
X13327410Y-15648350D02*
X13355982Y-15648350D01*
X13355982Y-15648350D02*
X13375030Y-15657874D01*
X13375030Y-15657874D02*
X13384553Y-15667398D01*
X13384553Y-15667398D02*
X13394077Y-15686446D01*
X13394077Y-15686446D02*
X13394077Y-15743588D01*
X13394077Y-15743588D02*
X13384553Y-15762636D01*
X13384553Y-15762636D02*
X13375030Y-15772160D01*
X13375030Y-15772160D02*
X13355982Y-15781684D01*
X13355982Y-15781684D02*
X13327410Y-15781684D01*
X13508363Y-15781684D02*
X13489315Y-15772160D01*
X13489315Y-15772160D02*
X13479791Y-15753112D01*
X13479791Y-15753112D02*
X13479791Y-15581684D01*
X13660744Y-15772160D02*
X13641696Y-15781684D01*
X13641696Y-15781684D02*
X13603601Y-15781684D01*
X13603601Y-15781684D02*
X13584553Y-15772160D01*
X13584553Y-15772160D02*
X13575030Y-15753112D01*
X13575030Y-15753112D02*
X13575030Y-15676922D01*
X13575030Y-15676922D02*
X13584553Y-15657874D01*
X13584553Y-15657874D02*
X13603601Y-15648350D01*
X13603601Y-15648350D02*
X13641696Y-15648350D01*
X13641696Y-15648350D02*
X13660744Y-15657874D01*
X13660744Y-15657874D02*
X13670268Y-15676922D01*
X13670268Y-15676922D02*
X13670268Y-15695969D01*
X13670268Y-15695969D02*
X13575030Y-15715017D01*
X13746458Y-15772160D02*
X13765506Y-15781684D01*
X13765506Y-15781684D02*
X13803601Y-15781684D01*
X13803601Y-15781684D02*
X13822649Y-15772160D01*
X13822649Y-15772160D02*
X13832172Y-15753112D01*
X13832172Y-15753112D02*
X13832172Y-15743588D01*
X13832172Y-15743588D02*
X13822649Y-15724541D01*
X13822649Y-15724541D02*
X13803601Y-15715017D01*
X13803601Y-15715017D02*
X13775030Y-15715017D01*
X13775030Y-15715017D02*
X13755982Y-15705493D01*
X13755982Y-15705493D02*
X13746458Y-15686446D01*
X13746458Y-15686446D02*
X13746458Y-15676922D01*
X13746458Y-15676922D02*
X13755982Y-15657874D01*
X13755982Y-15657874D02*
X13775030Y-15648350D01*
X13775030Y-15648350D02*
X13803601Y-15648350D01*
X13803601Y-15648350D02*
X13822649Y-15657874D01*
X13898839Y-15857874D02*
X13908363Y-15848350D01*
X13908363Y-15848350D02*
X13927411Y-15819779D01*
X13927411Y-15819779D02*
X13936934Y-15800731D01*
X13936934Y-15800731D02*
X13946458Y-15772160D01*
X13946458Y-15772160D02*
X13955982Y-15724541D01*
X13955982Y-15724541D02*
X13955982Y-15686446D01*
X13955982Y-15686446D02*
X13946458Y-15638827D01*
X13946458Y-15638827D02*
X13936934Y-15610255D01*
X13936934Y-15610255D02*
X13927411Y-15591208D01*
X13927411Y-15591208D02*
X13908363Y-15562636D01*
X13908363Y-15562636D02*
X13898839Y-15553112D01*
D13*
X8831300Y-15903200D02*
X8933300Y-16005200D01*
X8933300Y-15903200D02*
X8831300Y-16005200D01*
X8882300Y-15903200D02*
X8882300Y-16005200D01*
X8831300Y-15954200D02*
X8933300Y-15954200D01*
D11*
X9298839Y-16045684D02*
X9184553Y-16045684D01*
X9241696Y-16045684D02*
X9241696Y-15845684D01*
X9241696Y-15845684D02*
X9222648Y-15874255D01*
X9222648Y-15874255D02*
X9203601Y-15893303D01*
X9203601Y-15893303D02*
X9184553Y-15902827D01*
X9384553Y-16026636D02*
X9394077Y-16036160D01*
X9394077Y-16036160D02*
X9384553Y-16045684D01*
X9384553Y-16045684D02*
X9375029Y-16036160D01*
X9375029Y-16036160D02*
X9384553Y-16026636D01*
X9384553Y-16026636D02*
X9384553Y-16045684D01*
X9517886Y-15845684D02*
X9536934Y-15845684D01*
X9536934Y-15845684D02*
X9555982Y-15855208D01*
X9555982Y-15855208D02*
X9565505Y-15864731D01*
X9565505Y-15864731D02*
X9575029Y-15883779D01*
X9575029Y-15883779D02*
X9584553Y-15921874D01*
X9584553Y-15921874D02*
X9584553Y-15969493D01*
X9584553Y-15969493D02*
X9575029Y-16007588D01*
X9575029Y-16007588D02*
X9565505Y-16026636D01*
X9565505Y-16026636D02*
X9555982Y-16036160D01*
X9555982Y-16036160D02*
X9536934Y-16045684D01*
X9536934Y-16045684D02*
X9517886Y-16045684D01*
X9517886Y-16045684D02*
X9498839Y-16036160D01*
X9498839Y-16036160D02*
X9489315Y-16026636D01*
X9489315Y-16026636D02*
X9479791Y-16007588D01*
X9479791Y-16007588D02*
X9470267Y-15969493D01*
X9470267Y-15969493D02*
X9470267Y-15921874D01*
X9470267Y-15921874D02*
X9479791Y-15883779D01*
X9479791Y-15883779D02*
X9489315Y-15864731D01*
X9489315Y-15864731D02*
X9498839Y-15855208D01*
X9498839Y-15855208D02*
X9517886Y-15845684D01*
X9660744Y-15864731D02*
X9670267Y-15855208D01*
X9670267Y-15855208D02*
X9689315Y-15845684D01*
X9689315Y-15845684D02*
X9736934Y-15845684D01*
X9736934Y-15845684D02*
X9755982Y-15855208D01*
X9755982Y-15855208D02*
X9765505Y-15864731D01*
X9765505Y-15864731D02*
X9775029Y-15883779D01*
X9775029Y-15883779D02*
X9775029Y-15902827D01*
X9775029Y-15902827D02*
X9765505Y-15931398D01*
X9765505Y-15931398D02*
X9651220Y-16045684D01*
X9651220Y-16045684D02*
X9775029Y-16045684D01*
X9898839Y-15845684D02*
X9917886Y-15845684D01*
X9917886Y-15845684D02*
X9936934Y-15855208D01*
X9936934Y-15855208D02*
X9946458Y-15864731D01*
X9946458Y-15864731D02*
X9955982Y-15883779D01*
X9955982Y-15883779D02*
X9965505Y-15921874D01*
X9965505Y-15921874D02*
X9965505Y-15969493D01*
X9965505Y-15969493D02*
X9955982Y-16007588D01*
X9955982Y-16007588D02*
X9946458Y-16026636D01*
X9946458Y-16026636D02*
X9936934Y-16036160D01*
X9936934Y-16036160D02*
X9917886Y-16045684D01*
X9917886Y-16045684D02*
X9898839Y-16045684D01*
X9898839Y-16045684D02*
X9879791Y-16036160D01*
X9879791Y-16036160D02*
X9870267Y-16026636D01*
X9870267Y-16026636D02*
X9860744Y-16007588D01*
X9860744Y-16007588D02*
X9851220Y-15969493D01*
X9851220Y-15969493D02*
X9851220Y-15921874D01*
X9851220Y-15921874D02*
X9860744Y-15883779D01*
X9860744Y-15883779D02*
X9870267Y-15864731D01*
X9870267Y-15864731D02*
X9879791Y-15855208D01*
X9879791Y-15855208D02*
X9898839Y-15845684D01*
X10051220Y-16045684D02*
X10051220Y-15912350D01*
X10051220Y-15931398D02*
X10060744Y-15921874D01*
X10060744Y-15921874D02*
X10079791Y-15912350D01*
X10079791Y-15912350D02*
X10108363Y-15912350D01*
X10108363Y-15912350D02*
X10127410Y-15921874D01*
X10127410Y-15921874D02*
X10136934Y-15940922D01*
X10136934Y-15940922D02*
X10136934Y-16045684D01*
X10136934Y-15940922D02*
X10146458Y-15921874D01*
X10146458Y-15921874D02*
X10165505Y-15912350D01*
X10165505Y-15912350D02*
X10194077Y-15912350D01*
X10194077Y-15912350D02*
X10213125Y-15921874D01*
X10213125Y-15921874D02*
X10222648Y-15940922D01*
X10222648Y-15940922D02*
X10222648Y-16045684D01*
X10317886Y-16045684D02*
X10317886Y-15912350D01*
X10317886Y-15931398D02*
X10327410Y-15921874D01*
X10327410Y-15921874D02*
X10346458Y-15912350D01*
X10346458Y-15912350D02*
X10375029Y-15912350D01*
X10375029Y-15912350D02*
X10394077Y-15921874D01*
X10394077Y-15921874D02*
X10403601Y-15940922D01*
X10403601Y-15940922D02*
X10403601Y-16045684D01*
X10403601Y-15940922D02*
X10413125Y-15921874D01*
X10413125Y-15921874D02*
X10432172Y-15912350D01*
X10432172Y-15912350D02*
X10460744Y-15912350D01*
X10460744Y-15912350D02*
X10479791Y-15921874D01*
X10479791Y-15921874D02*
X10489315Y-15940922D01*
X10489315Y-15940922D02*
X10489315Y-16045684D01*
X10879791Y-15836160D02*
X10708363Y-16093303D01*
X11136934Y-15845684D02*
X11155982Y-15845684D01*
X11155982Y-15845684D02*
X11175029Y-15855208D01*
X11175029Y-15855208D02*
X11184553Y-15864731D01*
X11184553Y-15864731D02*
X11194077Y-15883779D01*
X11194077Y-15883779D02*
X11203601Y-15921874D01*
X11203601Y-15921874D02*
X11203601Y-15969493D01*
X11203601Y-15969493D02*
X11194077Y-16007588D01*
X11194077Y-16007588D02*
X11184553Y-16026636D01*
X11184553Y-16026636D02*
X11175029Y-16036160D01*
X11175029Y-16036160D02*
X11155982Y-16045684D01*
X11155982Y-16045684D02*
X11136934Y-16045684D01*
X11136934Y-16045684D02*
X11117887Y-16036160D01*
X11117887Y-16036160D02*
X11108363Y-16026636D01*
X11108363Y-16026636D02*
X11098839Y-16007588D01*
X11098839Y-16007588D02*
X11089315Y-15969493D01*
X11089315Y-15969493D02*
X11089315Y-15921874D01*
X11089315Y-15921874D02*
X11098839Y-15883779D01*
X11098839Y-15883779D02*
X11108363Y-15864731D01*
X11108363Y-15864731D02*
X11117887Y-15855208D01*
X11117887Y-15855208D02*
X11136934Y-15845684D01*
X11289315Y-16026636D02*
X11298839Y-16036160D01*
X11298839Y-16036160D02*
X11289315Y-16045684D01*
X11289315Y-16045684D02*
X11279791Y-16036160D01*
X11279791Y-16036160D02*
X11289315Y-16026636D01*
X11289315Y-16026636D02*
X11289315Y-16045684D01*
X11422648Y-15845684D02*
X11441696Y-15845684D01*
X11441696Y-15845684D02*
X11460744Y-15855208D01*
X11460744Y-15855208D02*
X11470267Y-15864731D01*
X11470267Y-15864731D02*
X11479791Y-15883779D01*
X11479791Y-15883779D02*
X11489315Y-15921874D01*
X11489315Y-15921874D02*
X11489315Y-15969493D01*
X11489315Y-15969493D02*
X11479791Y-16007588D01*
X11479791Y-16007588D02*
X11470267Y-16026636D01*
X11470267Y-16026636D02*
X11460744Y-16036160D01*
X11460744Y-16036160D02*
X11441696Y-16045684D01*
X11441696Y-16045684D02*
X11422648Y-16045684D01*
X11422648Y-16045684D02*
X11403601Y-16036160D01*
X11403601Y-16036160D02*
X11394077Y-16026636D01*
X11394077Y-16026636D02*
X11384553Y-16007588D01*
X11384553Y-16007588D02*
X11375029Y-15969493D01*
X11375029Y-15969493D02*
X11375029Y-15921874D01*
X11375029Y-15921874D02*
X11384553Y-15883779D01*
X11384553Y-15883779D02*
X11394077Y-15864731D01*
X11394077Y-15864731D02*
X11403601Y-15855208D01*
X11403601Y-15855208D02*
X11422648Y-15845684D01*
X11660744Y-15912350D02*
X11660744Y-16045684D01*
X11613125Y-15836160D02*
X11565506Y-15979017D01*
X11565506Y-15979017D02*
X11689315Y-15979017D01*
X11803601Y-15845684D02*
X11822648Y-15845684D01*
X11822648Y-15845684D02*
X11841696Y-15855208D01*
X11841696Y-15855208D02*
X11851220Y-15864731D01*
X11851220Y-15864731D02*
X11860744Y-15883779D01*
X11860744Y-15883779D02*
X11870267Y-15921874D01*
X11870267Y-15921874D02*
X11870267Y-15969493D01*
X11870267Y-15969493D02*
X11860744Y-16007588D01*
X11860744Y-16007588D02*
X11851220Y-16026636D01*
X11851220Y-16026636D02*
X11841696Y-16036160D01*
X11841696Y-16036160D02*
X11822648Y-16045684D01*
X11822648Y-16045684D02*
X11803601Y-16045684D01*
X11803601Y-16045684D02*
X11784553Y-16036160D01*
X11784553Y-16036160D02*
X11775029Y-16026636D01*
X11775029Y-16026636D02*
X11765506Y-16007588D01*
X11765506Y-16007588D02*
X11755982Y-15969493D01*
X11755982Y-15969493D02*
X11755982Y-15921874D01*
X11755982Y-15921874D02*
X11765506Y-15883779D01*
X11765506Y-15883779D02*
X11775029Y-15864731D01*
X11775029Y-15864731D02*
X11784553Y-15855208D01*
X11784553Y-15855208D02*
X11803601Y-15845684D01*
X11946458Y-15864731D02*
X11955982Y-15855208D01*
X11955982Y-15855208D02*
X11975029Y-15845684D01*
X11975029Y-15845684D02*
X12022648Y-15845684D01*
X12022648Y-15845684D02*
X12041696Y-15855208D01*
X12041696Y-15855208D02*
X12051220Y-15864731D01*
X12051220Y-15864731D02*
X12060744Y-15883779D01*
X12060744Y-15883779D02*
X12060744Y-15902827D01*
X12060744Y-15902827D02*
X12051220Y-15931398D01*
X12051220Y-15931398D02*
X11936934Y-16045684D01*
X11936934Y-16045684D02*
X12060744Y-16045684D01*
X12136934Y-15845684D02*
X12136934Y-15883779D01*
X12213125Y-15845684D02*
X12213125Y-15883779D01*
X12508363Y-16121874D02*
X12498839Y-16112350D01*
X12498839Y-16112350D02*
X12479791Y-16083779D01*
X12479791Y-16083779D02*
X12470268Y-16064731D01*
X12470268Y-16064731D02*
X12460744Y-16036160D01*
X12460744Y-16036160D02*
X12451220Y-15988541D01*
X12451220Y-15988541D02*
X12451220Y-15950446D01*
X12451220Y-15950446D02*
X12460744Y-15902827D01*
X12460744Y-15902827D02*
X12470268Y-15874255D01*
X12470268Y-15874255D02*
X12479791Y-15855208D01*
X12479791Y-15855208D02*
X12498839Y-15826636D01*
X12498839Y-15826636D02*
X12508363Y-15817112D01*
X12565506Y-15845684D02*
X12689315Y-15845684D01*
X12689315Y-15845684D02*
X12622648Y-15921874D01*
X12622648Y-15921874D02*
X12651220Y-15921874D01*
X12651220Y-15921874D02*
X12670268Y-15931398D01*
X12670268Y-15931398D02*
X12679791Y-15940922D01*
X12679791Y-15940922D02*
X12689315Y-15959969D01*
X12689315Y-15959969D02*
X12689315Y-16007588D01*
X12689315Y-16007588D02*
X12679791Y-16026636D01*
X12679791Y-16026636D02*
X12670268Y-16036160D01*
X12670268Y-16036160D02*
X12651220Y-16045684D01*
X12651220Y-16045684D02*
X12594077Y-16045684D01*
X12594077Y-16045684D02*
X12575029Y-16036160D01*
X12575029Y-16036160D02*
X12565506Y-16026636D01*
X12813125Y-15845684D02*
X12832172Y-15845684D01*
X12832172Y-15845684D02*
X12851220Y-15855208D01*
X12851220Y-15855208D02*
X12860744Y-15864731D01*
X12860744Y-15864731D02*
X12870268Y-15883779D01*
X12870268Y-15883779D02*
X12879791Y-15921874D01*
X12879791Y-15921874D02*
X12879791Y-15969493D01*
X12879791Y-15969493D02*
X12870268Y-16007588D01*
X12870268Y-16007588D02*
X12860744Y-16026636D01*
X12860744Y-16026636D02*
X12851220Y-16036160D01*
X12851220Y-16036160D02*
X12832172Y-16045684D01*
X12832172Y-16045684D02*
X12813125Y-16045684D01*
X12813125Y-16045684D02*
X12794077Y-16036160D01*
X12794077Y-16036160D02*
X12784553Y-16026636D01*
X12784553Y-16026636D02*
X12775029Y-16007588D01*
X12775029Y-16007588D02*
X12765506Y-15969493D01*
X12765506Y-15969493D02*
X12765506Y-15921874D01*
X12765506Y-15921874D02*
X12775029Y-15883779D01*
X12775029Y-15883779D02*
X12784553Y-15864731D01*
X12784553Y-15864731D02*
X12794077Y-15855208D01*
X12794077Y-15855208D02*
X12813125Y-15845684D01*
X13117887Y-16045684D02*
X13117887Y-15845684D01*
X13203601Y-16045684D02*
X13203601Y-15940922D01*
X13203601Y-15940922D02*
X13194077Y-15921874D01*
X13194077Y-15921874D02*
X13175030Y-15912350D01*
X13175030Y-15912350D02*
X13146458Y-15912350D01*
X13146458Y-15912350D02*
X13127410Y-15921874D01*
X13127410Y-15921874D02*
X13117887Y-15931398D01*
X13327410Y-16045684D02*
X13308363Y-16036160D01*
X13308363Y-16036160D02*
X13298839Y-16026636D01*
X13298839Y-16026636D02*
X13289315Y-16007588D01*
X13289315Y-16007588D02*
X13289315Y-15950446D01*
X13289315Y-15950446D02*
X13298839Y-15931398D01*
X13298839Y-15931398D02*
X13308363Y-15921874D01*
X13308363Y-15921874D02*
X13327410Y-15912350D01*
X13327410Y-15912350D02*
X13355982Y-15912350D01*
X13355982Y-15912350D02*
X13375030Y-15921874D01*
X13375030Y-15921874D02*
X13384553Y-15931398D01*
X13384553Y-15931398D02*
X13394077Y-15950446D01*
X13394077Y-15950446D02*
X13394077Y-16007588D01*
X13394077Y-16007588D02*
X13384553Y-16026636D01*
X13384553Y-16026636D02*
X13375030Y-16036160D01*
X13375030Y-16036160D02*
X13355982Y-16045684D01*
X13355982Y-16045684D02*
X13327410Y-16045684D01*
X13508363Y-16045684D02*
X13489315Y-16036160D01*
X13489315Y-16036160D02*
X13479791Y-16017112D01*
X13479791Y-16017112D02*
X13479791Y-15845684D01*
X13660744Y-16036160D02*
X13641696Y-16045684D01*
X13641696Y-16045684D02*
X13603601Y-16045684D01*
X13603601Y-16045684D02*
X13584553Y-16036160D01*
X13584553Y-16036160D02*
X13575030Y-16017112D01*
X13575030Y-16017112D02*
X13575030Y-15940922D01*
X13575030Y-15940922D02*
X13584553Y-15921874D01*
X13584553Y-15921874D02*
X13603601Y-15912350D01*
X13603601Y-15912350D02*
X13641696Y-15912350D01*
X13641696Y-15912350D02*
X13660744Y-15921874D01*
X13660744Y-15921874D02*
X13670268Y-15940922D01*
X13670268Y-15940922D02*
X13670268Y-15959969D01*
X13670268Y-15959969D02*
X13575030Y-15979017D01*
X13746458Y-16036160D02*
X13765506Y-16045684D01*
X13765506Y-16045684D02*
X13803601Y-16045684D01*
X13803601Y-16045684D02*
X13822649Y-16036160D01*
X13822649Y-16036160D02*
X13832172Y-16017112D01*
X13832172Y-16017112D02*
X13832172Y-16007588D01*
X13832172Y-16007588D02*
X13822649Y-15988541D01*
X13822649Y-15988541D02*
X13803601Y-15979017D01*
X13803601Y-15979017D02*
X13775030Y-15979017D01*
X13775030Y-15979017D02*
X13755982Y-15969493D01*
X13755982Y-15969493D02*
X13746458Y-15950446D01*
X13746458Y-15950446D02*
X13746458Y-15940922D01*
X13746458Y-15940922D02*
X13755982Y-15921874D01*
X13755982Y-15921874D02*
X13775030Y-15912350D01*
X13775030Y-15912350D02*
X13803601Y-15912350D01*
X13803601Y-15912350D02*
X13822649Y-15921874D01*
X13898839Y-16121874D02*
X13908363Y-16112350D01*
X13908363Y-16112350D02*
X13927411Y-16083779D01*
X13927411Y-16083779D02*
X13936934Y-16064731D01*
X13936934Y-16064731D02*
X13946458Y-16036160D01*
X13946458Y-16036160D02*
X13955982Y-15988541D01*
X13955982Y-15988541D02*
X13955982Y-15950446D01*
X13955982Y-15950446D02*
X13946458Y-15902827D01*
X13946458Y-15902827D02*
X13936934Y-15874255D01*
X13936934Y-15874255D02*
X13927411Y-15855208D01*
X13927411Y-15855208D02*
X13908363Y-15826636D01*
X13908363Y-15826636D02*
X13898839Y-15817112D01*
D14*
X8823300Y-16163200D02*
X8933300Y-16273200D01*
X8933300Y-16163200D02*
X8823300Y-16273200D01*
X8917191Y-16257091D02*
X8917191Y-16179309D01*
X8839409Y-16179309D01*
X8839409Y-16257091D01*
X8917191Y-16257091D01*
D11*
X9298839Y-16309684D02*
X9184553Y-16309684D01*
X9241696Y-16309684D02*
X9241696Y-16109684D01*
X9241696Y-16109684D02*
X9222648Y-16138255D01*
X9222648Y-16138255D02*
X9203601Y-16157303D01*
X9203601Y-16157303D02*
X9184553Y-16166827D01*
X9384553Y-16290636D02*
X9394077Y-16300160D01*
X9394077Y-16300160D02*
X9384553Y-16309684D01*
X9384553Y-16309684D02*
X9375029Y-16300160D01*
X9375029Y-16300160D02*
X9384553Y-16290636D01*
X9384553Y-16290636D02*
X9384553Y-16309684D01*
X9584553Y-16309684D02*
X9470267Y-16309684D01*
X9527410Y-16309684D02*
X9527410Y-16109684D01*
X9527410Y-16109684D02*
X9508363Y-16138255D01*
X9508363Y-16138255D02*
X9489315Y-16157303D01*
X9489315Y-16157303D02*
X9470267Y-16166827D01*
X9708363Y-16109684D02*
X9727410Y-16109684D01*
X9727410Y-16109684D02*
X9746458Y-16119208D01*
X9746458Y-16119208D02*
X9755982Y-16128731D01*
X9755982Y-16128731D02*
X9765505Y-16147779D01*
X9765505Y-16147779D02*
X9775029Y-16185874D01*
X9775029Y-16185874D02*
X9775029Y-16233493D01*
X9775029Y-16233493D02*
X9765505Y-16271588D01*
X9765505Y-16271588D02*
X9755982Y-16290636D01*
X9755982Y-16290636D02*
X9746458Y-16300160D01*
X9746458Y-16300160D02*
X9727410Y-16309684D01*
X9727410Y-16309684D02*
X9708363Y-16309684D01*
X9708363Y-16309684D02*
X9689315Y-16300160D01*
X9689315Y-16300160D02*
X9679791Y-16290636D01*
X9679791Y-16290636D02*
X9670267Y-16271588D01*
X9670267Y-16271588D02*
X9660744Y-16233493D01*
X9660744Y-16233493D02*
X9660744Y-16185874D01*
X9660744Y-16185874D02*
X9670267Y-16147779D01*
X9670267Y-16147779D02*
X9679791Y-16128731D01*
X9679791Y-16128731D02*
X9689315Y-16119208D01*
X9689315Y-16119208D02*
X9708363Y-16109684D01*
X9898839Y-16109684D02*
X9917886Y-16109684D01*
X9917886Y-16109684D02*
X9936934Y-16119208D01*
X9936934Y-16119208D02*
X9946458Y-16128731D01*
X9946458Y-16128731D02*
X9955982Y-16147779D01*
X9955982Y-16147779D02*
X9965505Y-16185874D01*
X9965505Y-16185874D02*
X9965505Y-16233493D01*
X9965505Y-16233493D02*
X9955982Y-16271588D01*
X9955982Y-16271588D02*
X9946458Y-16290636D01*
X9946458Y-16290636D02*
X9936934Y-16300160D01*
X9936934Y-16300160D02*
X9917886Y-16309684D01*
X9917886Y-16309684D02*
X9898839Y-16309684D01*
X9898839Y-16309684D02*
X9879791Y-16300160D01*
X9879791Y-16300160D02*
X9870267Y-16290636D01*
X9870267Y-16290636D02*
X9860744Y-16271588D01*
X9860744Y-16271588D02*
X9851220Y-16233493D01*
X9851220Y-16233493D02*
X9851220Y-16185874D01*
X9851220Y-16185874D02*
X9860744Y-16147779D01*
X9860744Y-16147779D02*
X9870267Y-16128731D01*
X9870267Y-16128731D02*
X9879791Y-16119208D01*
X9879791Y-16119208D02*
X9898839Y-16109684D01*
X10051220Y-16309684D02*
X10051220Y-16176350D01*
X10051220Y-16195398D02*
X10060744Y-16185874D01*
X10060744Y-16185874D02*
X10079791Y-16176350D01*
X10079791Y-16176350D02*
X10108363Y-16176350D01*
X10108363Y-16176350D02*
X10127410Y-16185874D01*
X10127410Y-16185874D02*
X10136934Y-16204922D01*
X10136934Y-16204922D02*
X10136934Y-16309684D01*
X10136934Y-16204922D02*
X10146458Y-16185874D01*
X10146458Y-16185874D02*
X10165505Y-16176350D01*
X10165505Y-16176350D02*
X10194077Y-16176350D01*
X10194077Y-16176350D02*
X10213125Y-16185874D01*
X10213125Y-16185874D02*
X10222648Y-16204922D01*
X10222648Y-16204922D02*
X10222648Y-16309684D01*
X10317886Y-16309684D02*
X10317886Y-16176350D01*
X10317886Y-16195398D02*
X10327410Y-16185874D01*
X10327410Y-16185874D02*
X10346458Y-16176350D01*
X10346458Y-16176350D02*
X10375029Y-16176350D01*
X10375029Y-16176350D02*
X10394077Y-16185874D01*
X10394077Y-16185874D02*
X10403601Y-16204922D01*
X10403601Y-16204922D02*
X10403601Y-16309684D01*
X10403601Y-16204922D02*
X10413125Y-16185874D01*
X10413125Y-16185874D02*
X10432172Y-16176350D01*
X10432172Y-16176350D02*
X10460744Y-16176350D01*
X10460744Y-16176350D02*
X10479791Y-16185874D01*
X10479791Y-16185874D02*
X10489315Y-16204922D01*
X10489315Y-16204922D02*
X10489315Y-16309684D01*
X10879791Y-16100160D02*
X10708363Y-16357303D01*
X11136934Y-16109684D02*
X11155982Y-16109684D01*
X11155982Y-16109684D02*
X11175029Y-16119208D01*
X11175029Y-16119208D02*
X11184553Y-16128731D01*
X11184553Y-16128731D02*
X11194077Y-16147779D01*
X11194077Y-16147779D02*
X11203601Y-16185874D01*
X11203601Y-16185874D02*
X11203601Y-16233493D01*
X11203601Y-16233493D02*
X11194077Y-16271588D01*
X11194077Y-16271588D02*
X11184553Y-16290636D01*
X11184553Y-16290636D02*
X11175029Y-16300160D01*
X11175029Y-16300160D02*
X11155982Y-16309684D01*
X11155982Y-16309684D02*
X11136934Y-16309684D01*
X11136934Y-16309684D02*
X11117887Y-16300160D01*
X11117887Y-16300160D02*
X11108363Y-16290636D01*
X11108363Y-16290636D02*
X11098839Y-16271588D01*
X11098839Y-16271588D02*
X11089315Y-16233493D01*
X11089315Y-16233493D02*
X11089315Y-16185874D01*
X11089315Y-16185874D02*
X11098839Y-16147779D01*
X11098839Y-16147779D02*
X11108363Y-16128731D01*
X11108363Y-16128731D02*
X11117887Y-16119208D01*
X11117887Y-16119208D02*
X11136934Y-16109684D01*
X11289315Y-16290636D02*
X11298839Y-16300160D01*
X11298839Y-16300160D02*
X11289315Y-16309684D01*
X11289315Y-16309684D02*
X11279791Y-16300160D01*
X11279791Y-16300160D02*
X11289315Y-16290636D01*
X11289315Y-16290636D02*
X11289315Y-16309684D01*
X11422648Y-16109684D02*
X11441696Y-16109684D01*
X11441696Y-16109684D02*
X11460744Y-16119208D01*
X11460744Y-16119208D02*
X11470267Y-16128731D01*
X11470267Y-16128731D02*
X11479791Y-16147779D01*
X11479791Y-16147779D02*
X11489315Y-16185874D01*
X11489315Y-16185874D02*
X11489315Y-16233493D01*
X11489315Y-16233493D02*
X11479791Y-16271588D01*
X11479791Y-16271588D02*
X11470267Y-16290636D01*
X11470267Y-16290636D02*
X11460744Y-16300160D01*
X11460744Y-16300160D02*
X11441696Y-16309684D01*
X11441696Y-16309684D02*
X11422648Y-16309684D01*
X11422648Y-16309684D02*
X11403601Y-16300160D01*
X11403601Y-16300160D02*
X11394077Y-16290636D01*
X11394077Y-16290636D02*
X11384553Y-16271588D01*
X11384553Y-16271588D02*
X11375029Y-16233493D01*
X11375029Y-16233493D02*
X11375029Y-16185874D01*
X11375029Y-16185874D02*
X11384553Y-16147779D01*
X11384553Y-16147779D02*
X11394077Y-16128731D01*
X11394077Y-16128731D02*
X11403601Y-16119208D01*
X11403601Y-16119208D02*
X11422648Y-16109684D01*
X11660744Y-16176350D02*
X11660744Y-16309684D01*
X11613125Y-16100160D02*
X11565506Y-16243017D01*
X11565506Y-16243017D02*
X11689315Y-16243017D01*
X11746458Y-16109684D02*
X11870267Y-16109684D01*
X11870267Y-16109684D02*
X11803601Y-16185874D01*
X11803601Y-16185874D02*
X11832172Y-16185874D01*
X11832172Y-16185874D02*
X11851220Y-16195398D01*
X11851220Y-16195398D02*
X11860744Y-16204922D01*
X11860744Y-16204922D02*
X11870267Y-16223969D01*
X11870267Y-16223969D02*
X11870267Y-16271588D01*
X11870267Y-16271588D02*
X11860744Y-16290636D01*
X11860744Y-16290636D02*
X11851220Y-16300160D01*
X11851220Y-16300160D02*
X11832172Y-16309684D01*
X11832172Y-16309684D02*
X11775029Y-16309684D01*
X11775029Y-16309684D02*
X11755982Y-16300160D01*
X11755982Y-16300160D02*
X11746458Y-16290636D01*
X11936934Y-16109684D02*
X12060744Y-16109684D01*
X12060744Y-16109684D02*
X11994077Y-16185874D01*
X11994077Y-16185874D02*
X12022648Y-16185874D01*
X12022648Y-16185874D02*
X12041696Y-16195398D01*
X12041696Y-16195398D02*
X12051220Y-16204922D01*
X12051220Y-16204922D02*
X12060744Y-16223969D01*
X12060744Y-16223969D02*
X12060744Y-16271588D01*
X12060744Y-16271588D02*
X12051220Y-16290636D01*
X12051220Y-16290636D02*
X12041696Y-16300160D01*
X12041696Y-16300160D02*
X12022648Y-16309684D01*
X12022648Y-16309684D02*
X11965506Y-16309684D01*
X11965506Y-16309684D02*
X11946458Y-16300160D01*
X11946458Y-16300160D02*
X11936934Y-16290636D01*
X12136934Y-16109684D02*
X12136934Y-16147779D01*
X12213125Y-16109684D02*
X12213125Y-16147779D01*
X12508363Y-16385874D02*
X12498839Y-16376350D01*
X12498839Y-16376350D02*
X12479791Y-16347779D01*
X12479791Y-16347779D02*
X12470268Y-16328731D01*
X12470268Y-16328731D02*
X12460744Y-16300160D01*
X12460744Y-16300160D02*
X12451220Y-16252541D01*
X12451220Y-16252541D02*
X12451220Y-16214446D01*
X12451220Y-16214446D02*
X12460744Y-16166827D01*
X12460744Y-16166827D02*
X12470268Y-16138255D01*
X12470268Y-16138255D02*
X12479791Y-16119208D01*
X12479791Y-16119208D02*
X12498839Y-16090636D01*
X12498839Y-16090636D02*
X12508363Y-16081112D01*
X12689315Y-16309684D02*
X12575029Y-16309684D01*
X12632172Y-16309684D02*
X12632172Y-16109684D01*
X12632172Y-16109684D02*
X12613125Y-16138255D01*
X12613125Y-16138255D02*
X12594077Y-16157303D01*
X12594077Y-16157303D02*
X12575029Y-16166827D01*
X12765506Y-16128731D02*
X12775029Y-16119208D01*
X12775029Y-16119208D02*
X12794077Y-16109684D01*
X12794077Y-16109684D02*
X12841696Y-16109684D01*
X12841696Y-16109684D02*
X12860744Y-16119208D01*
X12860744Y-16119208D02*
X12870268Y-16128731D01*
X12870268Y-16128731D02*
X12879791Y-16147779D01*
X12879791Y-16147779D02*
X12879791Y-16166827D01*
X12879791Y-16166827D02*
X12870268Y-16195398D01*
X12870268Y-16195398D02*
X12755982Y-16309684D01*
X12755982Y-16309684D02*
X12879791Y-16309684D01*
X13117887Y-16309684D02*
X13117887Y-16109684D01*
X13203601Y-16309684D02*
X13203601Y-16204922D01*
X13203601Y-16204922D02*
X13194077Y-16185874D01*
X13194077Y-16185874D02*
X13175030Y-16176350D01*
X13175030Y-16176350D02*
X13146458Y-16176350D01*
X13146458Y-16176350D02*
X13127410Y-16185874D01*
X13127410Y-16185874D02*
X13117887Y-16195398D01*
X13327410Y-16309684D02*
X13308363Y-16300160D01*
X13308363Y-16300160D02*
X13298839Y-16290636D01*
X13298839Y-16290636D02*
X13289315Y-16271588D01*
X13289315Y-16271588D02*
X13289315Y-16214446D01*
X13289315Y-16214446D02*
X13298839Y-16195398D01*
X13298839Y-16195398D02*
X13308363Y-16185874D01*
X13308363Y-16185874D02*
X13327410Y-16176350D01*
X13327410Y-16176350D02*
X13355982Y-16176350D01*
X13355982Y-16176350D02*
X13375030Y-16185874D01*
X13375030Y-16185874D02*
X13384553Y-16195398D01*
X13384553Y-16195398D02*
X13394077Y-16214446D01*
X13394077Y-16214446D02*
X13394077Y-16271588D01*
X13394077Y-16271588D02*
X13384553Y-16290636D01*
X13384553Y-16290636D02*
X13375030Y-16300160D01*
X13375030Y-16300160D02*
X13355982Y-16309684D01*
X13355982Y-16309684D02*
X13327410Y-16309684D01*
X13508363Y-16309684D02*
X13489315Y-16300160D01*
X13489315Y-16300160D02*
X13479791Y-16281112D01*
X13479791Y-16281112D02*
X13479791Y-16109684D01*
X13660744Y-16300160D02*
X13641696Y-16309684D01*
X13641696Y-16309684D02*
X13603601Y-16309684D01*
X13603601Y-16309684D02*
X13584553Y-16300160D01*
X13584553Y-16300160D02*
X13575030Y-16281112D01*
X13575030Y-16281112D02*
X13575030Y-16204922D01*
X13575030Y-16204922D02*
X13584553Y-16185874D01*
X13584553Y-16185874D02*
X13603601Y-16176350D01*
X13603601Y-16176350D02*
X13641696Y-16176350D01*
X13641696Y-16176350D02*
X13660744Y-16185874D01*
X13660744Y-16185874D02*
X13670268Y-16204922D01*
X13670268Y-16204922D02*
X13670268Y-16223969D01*
X13670268Y-16223969D02*
X13575030Y-16243017D01*
X13746458Y-16300160D02*
X13765506Y-16309684D01*
X13765506Y-16309684D02*
X13803601Y-16309684D01*
X13803601Y-16309684D02*
X13822649Y-16300160D01*
X13822649Y-16300160D02*
X13832172Y-16281112D01*
X13832172Y-16281112D02*
X13832172Y-16271588D01*
X13832172Y-16271588D02*
X13822649Y-16252541D01*
X13822649Y-16252541D02*
X13803601Y-16243017D01*
X13803601Y-16243017D02*
X13775030Y-16243017D01*
X13775030Y-16243017D02*
X13755982Y-16233493D01*
X13755982Y-16233493D02*
X13746458Y-16214446D01*
X13746458Y-16214446D02*
X13746458Y-16204922D01*
X13746458Y-16204922D02*
X13755982Y-16185874D01*
X13755982Y-16185874D02*
X13775030Y-16176350D01*
X13775030Y-16176350D02*
X13803601Y-16176350D01*
X13803601Y-16176350D02*
X13822649Y-16185874D01*
X13898839Y-16385874D02*
X13908363Y-16376350D01*
X13908363Y-16376350D02*
X13927411Y-16347779D01*
X13927411Y-16347779D02*
X13936934Y-16328731D01*
X13936934Y-16328731D02*
X13946458Y-16300160D01*
X13946458Y-16300160D02*
X13955982Y-16252541D01*
X13955982Y-16252541D02*
X13955982Y-16214446D01*
X13955982Y-16214446D02*
X13946458Y-16166827D01*
X13946458Y-16166827D02*
X13936934Y-16138255D01*
X13936934Y-16138255D02*
X13927411Y-16119208D01*
X13927411Y-16119208D02*
X13908363Y-16090636D01*
X13908363Y-16090636D02*
X13898839Y-16081112D01*
D10*
X8783300Y-16407200D02*
X8933300Y-16557200D01*
X8933300Y-16407200D02*
X8783300Y-16557200D01*
X8858300Y-16557200D02*
X8933300Y-16482200D01*
X8858300Y-16407200D01*
X8783300Y-16482200D01*
X8858300Y-16557200D01*
D11*
X9298839Y-16573684D02*
X9184553Y-16573684D01*
X9241696Y-16573684D02*
X9241696Y-16373684D01*
X9241696Y-16373684D02*
X9222648Y-16402255D01*
X9222648Y-16402255D02*
X9203601Y-16421303D01*
X9203601Y-16421303D02*
X9184553Y-16430827D01*
X9384553Y-16554636D02*
X9394077Y-16564160D01*
X9394077Y-16564160D02*
X9384553Y-16573684D01*
X9384553Y-16573684D02*
X9375029Y-16564160D01*
X9375029Y-16564160D02*
X9384553Y-16554636D01*
X9384553Y-16554636D02*
X9384553Y-16573684D01*
X9575029Y-16373684D02*
X9479791Y-16373684D01*
X9479791Y-16373684D02*
X9470267Y-16468922D01*
X9470267Y-16468922D02*
X9479791Y-16459398D01*
X9479791Y-16459398D02*
X9498839Y-16449874D01*
X9498839Y-16449874D02*
X9546458Y-16449874D01*
X9546458Y-16449874D02*
X9565505Y-16459398D01*
X9565505Y-16459398D02*
X9575029Y-16468922D01*
X9575029Y-16468922D02*
X9584553Y-16487969D01*
X9584553Y-16487969D02*
X9584553Y-16535588D01*
X9584553Y-16535588D02*
X9575029Y-16554636D01*
X9575029Y-16554636D02*
X9565505Y-16564160D01*
X9565505Y-16564160D02*
X9546458Y-16573684D01*
X9546458Y-16573684D02*
X9498839Y-16573684D01*
X9498839Y-16573684D02*
X9479791Y-16564160D01*
X9479791Y-16564160D02*
X9470267Y-16554636D01*
X9708363Y-16373684D02*
X9727410Y-16373684D01*
X9727410Y-16373684D02*
X9746458Y-16383208D01*
X9746458Y-16383208D02*
X9755982Y-16392731D01*
X9755982Y-16392731D02*
X9765505Y-16411779D01*
X9765505Y-16411779D02*
X9775029Y-16449874D01*
X9775029Y-16449874D02*
X9775029Y-16497493D01*
X9775029Y-16497493D02*
X9765505Y-16535588D01*
X9765505Y-16535588D02*
X9755982Y-16554636D01*
X9755982Y-16554636D02*
X9746458Y-16564160D01*
X9746458Y-16564160D02*
X9727410Y-16573684D01*
X9727410Y-16573684D02*
X9708363Y-16573684D01*
X9708363Y-16573684D02*
X9689315Y-16564160D01*
X9689315Y-16564160D02*
X9679791Y-16554636D01*
X9679791Y-16554636D02*
X9670267Y-16535588D01*
X9670267Y-16535588D02*
X9660744Y-16497493D01*
X9660744Y-16497493D02*
X9660744Y-16449874D01*
X9660744Y-16449874D02*
X9670267Y-16411779D01*
X9670267Y-16411779D02*
X9679791Y-16392731D01*
X9679791Y-16392731D02*
X9689315Y-16383208D01*
X9689315Y-16383208D02*
X9708363Y-16373684D01*
X9898839Y-16373684D02*
X9917886Y-16373684D01*
X9917886Y-16373684D02*
X9936934Y-16383208D01*
X9936934Y-16383208D02*
X9946458Y-16392731D01*
X9946458Y-16392731D02*
X9955982Y-16411779D01*
X9955982Y-16411779D02*
X9965505Y-16449874D01*
X9965505Y-16449874D02*
X9965505Y-16497493D01*
X9965505Y-16497493D02*
X9955982Y-16535588D01*
X9955982Y-16535588D02*
X9946458Y-16554636D01*
X9946458Y-16554636D02*
X9936934Y-16564160D01*
X9936934Y-16564160D02*
X9917886Y-16573684D01*
X9917886Y-16573684D02*
X9898839Y-16573684D01*
X9898839Y-16573684D02*
X9879791Y-16564160D01*
X9879791Y-16564160D02*
X9870267Y-16554636D01*
X9870267Y-16554636D02*
X9860744Y-16535588D01*
X9860744Y-16535588D02*
X9851220Y-16497493D01*
X9851220Y-16497493D02*
X9851220Y-16449874D01*
X9851220Y-16449874D02*
X9860744Y-16411779D01*
X9860744Y-16411779D02*
X9870267Y-16392731D01*
X9870267Y-16392731D02*
X9879791Y-16383208D01*
X9879791Y-16383208D02*
X9898839Y-16373684D01*
X10051220Y-16573684D02*
X10051220Y-16440350D01*
X10051220Y-16459398D02*
X10060744Y-16449874D01*
X10060744Y-16449874D02*
X10079791Y-16440350D01*
X10079791Y-16440350D02*
X10108363Y-16440350D01*
X10108363Y-16440350D02*
X10127410Y-16449874D01*
X10127410Y-16449874D02*
X10136934Y-16468922D01*
X10136934Y-16468922D02*
X10136934Y-16573684D01*
X10136934Y-16468922D02*
X10146458Y-16449874D01*
X10146458Y-16449874D02*
X10165505Y-16440350D01*
X10165505Y-16440350D02*
X10194077Y-16440350D01*
X10194077Y-16440350D02*
X10213125Y-16449874D01*
X10213125Y-16449874D02*
X10222648Y-16468922D01*
X10222648Y-16468922D02*
X10222648Y-16573684D01*
X10317886Y-16573684D02*
X10317886Y-16440350D01*
X10317886Y-16459398D02*
X10327410Y-16449874D01*
X10327410Y-16449874D02*
X10346458Y-16440350D01*
X10346458Y-16440350D02*
X10375029Y-16440350D01*
X10375029Y-16440350D02*
X10394077Y-16449874D01*
X10394077Y-16449874D02*
X10403601Y-16468922D01*
X10403601Y-16468922D02*
X10403601Y-16573684D01*
X10403601Y-16468922D02*
X10413125Y-16449874D01*
X10413125Y-16449874D02*
X10432172Y-16440350D01*
X10432172Y-16440350D02*
X10460744Y-16440350D01*
X10460744Y-16440350D02*
X10479791Y-16449874D01*
X10479791Y-16449874D02*
X10489315Y-16468922D01*
X10489315Y-16468922D02*
X10489315Y-16573684D01*
X10879791Y-16364160D02*
X10708363Y-16621303D01*
X11136934Y-16373684D02*
X11155982Y-16373684D01*
X11155982Y-16373684D02*
X11175029Y-16383208D01*
X11175029Y-16383208D02*
X11184553Y-16392731D01*
X11184553Y-16392731D02*
X11194077Y-16411779D01*
X11194077Y-16411779D02*
X11203601Y-16449874D01*
X11203601Y-16449874D02*
X11203601Y-16497493D01*
X11203601Y-16497493D02*
X11194077Y-16535588D01*
X11194077Y-16535588D02*
X11184553Y-16554636D01*
X11184553Y-16554636D02*
X11175029Y-16564160D01*
X11175029Y-16564160D02*
X11155982Y-16573684D01*
X11155982Y-16573684D02*
X11136934Y-16573684D01*
X11136934Y-16573684D02*
X11117887Y-16564160D01*
X11117887Y-16564160D02*
X11108363Y-16554636D01*
X11108363Y-16554636D02*
X11098839Y-16535588D01*
X11098839Y-16535588D02*
X11089315Y-16497493D01*
X11089315Y-16497493D02*
X11089315Y-16449874D01*
X11089315Y-16449874D02*
X11098839Y-16411779D01*
X11098839Y-16411779D02*
X11108363Y-16392731D01*
X11108363Y-16392731D02*
X11117887Y-16383208D01*
X11117887Y-16383208D02*
X11136934Y-16373684D01*
X11289315Y-16554636D02*
X11298839Y-16564160D01*
X11298839Y-16564160D02*
X11289315Y-16573684D01*
X11289315Y-16573684D02*
X11279791Y-16564160D01*
X11279791Y-16564160D02*
X11289315Y-16554636D01*
X11289315Y-16554636D02*
X11289315Y-16573684D01*
X11422648Y-16373684D02*
X11441696Y-16373684D01*
X11441696Y-16373684D02*
X11460744Y-16383208D01*
X11460744Y-16383208D02*
X11470267Y-16392731D01*
X11470267Y-16392731D02*
X11479791Y-16411779D01*
X11479791Y-16411779D02*
X11489315Y-16449874D01*
X11489315Y-16449874D02*
X11489315Y-16497493D01*
X11489315Y-16497493D02*
X11479791Y-16535588D01*
X11479791Y-16535588D02*
X11470267Y-16554636D01*
X11470267Y-16554636D02*
X11460744Y-16564160D01*
X11460744Y-16564160D02*
X11441696Y-16573684D01*
X11441696Y-16573684D02*
X11422648Y-16573684D01*
X11422648Y-16573684D02*
X11403601Y-16564160D01*
X11403601Y-16564160D02*
X11394077Y-16554636D01*
X11394077Y-16554636D02*
X11384553Y-16535588D01*
X11384553Y-16535588D02*
X11375029Y-16497493D01*
X11375029Y-16497493D02*
X11375029Y-16449874D01*
X11375029Y-16449874D02*
X11384553Y-16411779D01*
X11384553Y-16411779D02*
X11394077Y-16392731D01*
X11394077Y-16392731D02*
X11403601Y-16383208D01*
X11403601Y-16383208D02*
X11422648Y-16373684D01*
X11670267Y-16373684D02*
X11575029Y-16373684D01*
X11575029Y-16373684D02*
X11565506Y-16468922D01*
X11565506Y-16468922D02*
X11575029Y-16459398D01*
X11575029Y-16459398D02*
X11594077Y-16449874D01*
X11594077Y-16449874D02*
X11641696Y-16449874D01*
X11641696Y-16449874D02*
X11660744Y-16459398D01*
X11660744Y-16459398D02*
X11670267Y-16468922D01*
X11670267Y-16468922D02*
X11679791Y-16487969D01*
X11679791Y-16487969D02*
X11679791Y-16535588D01*
X11679791Y-16535588D02*
X11670267Y-16554636D01*
X11670267Y-16554636D02*
X11660744Y-16564160D01*
X11660744Y-16564160D02*
X11641696Y-16573684D01*
X11641696Y-16573684D02*
X11594077Y-16573684D01*
X11594077Y-16573684D02*
X11575029Y-16564160D01*
X11575029Y-16564160D02*
X11565506Y-16554636D01*
X11775029Y-16573684D02*
X11813125Y-16573684D01*
X11813125Y-16573684D02*
X11832172Y-16564160D01*
X11832172Y-16564160D02*
X11841696Y-16554636D01*
X11841696Y-16554636D02*
X11860744Y-16526065D01*
X11860744Y-16526065D02*
X11870267Y-16487969D01*
X11870267Y-16487969D02*
X11870267Y-16411779D01*
X11870267Y-16411779D02*
X11860744Y-16392731D01*
X11860744Y-16392731D02*
X11851220Y-16383208D01*
X11851220Y-16383208D02*
X11832172Y-16373684D01*
X11832172Y-16373684D02*
X11794077Y-16373684D01*
X11794077Y-16373684D02*
X11775029Y-16383208D01*
X11775029Y-16383208D02*
X11765506Y-16392731D01*
X11765506Y-16392731D02*
X11755982Y-16411779D01*
X11755982Y-16411779D02*
X11755982Y-16459398D01*
X11755982Y-16459398D02*
X11765506Y-16478446D01*
X11765506Y-16478446D02*
X11775029Y-16487969D01*
X11775029Y-16487969D02*
X11794077Y-16497493D01*
X11794077Y-16497493D02*
X11832172Y-16497493D01*
X11832172Y-16497493D02*
X11851220Y-16487969D01*
X11851220Y-16487969D02*
X11860744Y-16478446D01*
X11860744Y-16478446D02*
X11870267Y-16459398D01*
X12060744Y-16573684D02*
X11946458Y-16573684D01*
X12003601Y-16573684D02*
X12003601Y-16373684D01*
X12003601Y-16373684D02*
X11984553Y-16402255D01*
X11984553Y-16402255D02*
X11965506Y-16421303D01*
X11965506Y-16421303D02*
X11946458Y-16430827D01*
X12136934Y-16373684D02*
X12136934Y-16411779D01*
X12213125Y-16373684D02*
X12213125Y-16411779D01*
X12508363Y-16649874D02*
X12498839Y-16640350D01*
X12498839Y-16640350D02*
X12479791Y-16611779D01*
X12479791Y-16611779D02*
X12470268Y-16592731D01*
X12470268Y-16592731D02*
X12460744Y-16564160D01*
X12460744Y-16564160D02*
X12451220Y-16516541D01*
X12451220Y-16516541D02*
X12451220Y-16478446D01*
X12451220Y-16478446D02*
X12460744Y-16430827D01*
X12460744Y-16430827D02*
X12470268Y-16402255D01*
X12470268Y-16402255D02*
X12479791Y-16383208D01*
X12479791Y-16383208D02*
X12498839Y-16354636D01*
X12498839Y-16354636D02*
X12508363Y-16345112D01*
X12622648Y-16373684D02*
X12641696Y-16373684D01*
X12641696Y-16373684D02*
X12660744Y-16383208D01*
X12660744Y-16383208D02*
X12670268Y-16392731D01*
X12670268Y-16392731D02*
X12679791Y-16411779D01*
X12679791Y-16411779D02*
X12689315Y-16449874D01*
X12689315Y-16449874D02*
X12689315Y-16497493D01*
X12689315Y-16497493D02*
X12679791Y-16535588D01*
X12679791Y-16535588D02*
X12670268Y-16554636D01*
X12670268Y-16554636D02*
X12660744Y-16564160D01*
X12660744Y-16564160D02*
X12641696Y-16573684D01*
X12641696Y-16573684D02*
X12622648Y-16573684D01*
X12622648Y-16573684D02*
X12603601Y-16564160D01*
X12603601Y-16564160D02*
X12594077Y-16554636D01*
X12594077Y-16554636D02*
X12584553Y-16535588D01*
X12584553Y-16535588D02*
X12575029Y-16497493D01*
X12575029Y-16497493D02*
X12575029Y-16449874D01*
X12575029Y-16449874D02*
X12584553Y-16411779D01*
X12584553Y-16411779D02*
X12594077Y-16392731D01*
X12594077Y-16392731D02*
X12603601Y-16383208D01*
X12603601Y-16383208D02*
X12622648Y-16373684D01*
X12927410Y-16573684D02*
X12927410Y-16373684D01*
X13013125Y-16573684D02*
X13013125Y-16468922D01*
X13013125Y-16468922D02*
X13003601Y-16449874D01*
X13003601Y-16449874D02*
X12984553Y-16440350D01*
X12984553Y-16440350D02*
X12955982Y-16440350D01*
X12955982Y-16440350D02*
X12936934Y-16449874D01*
X12936934Y-16449874D02*
X12927410Y-16459398D01*
X13136934Y-16573684D02*
X13117887Y-16564160D01*
X13117887Y-16564160D02*
X13108363Y-16554636D01*
X13108363Y-16554636D02*
X13098839Y-16535588D01*
X13098839Y-16535588D02*
X13098839Y-16478446D01*
X13098839Y-16478446D02*
X13108363Y-16459398D01*
X13108363Y-16459398D02*
X13117887Y-16449874D01*
X13117887Y-16449874D02*
X13136934Y-16440350D01*
X13136934Y-16440350D02*
X13165506Y-16440350D01*
X13165506Y-16440350D02*
X13184553Y-16449874D01*
X13184553Y-16449874D02*
X13194077Y-16459398D01*
X13194077Y-16459398D02*
X13203601Y-16478446D01*
X13203601Y-16478446D02*
X13203601Y-16535588D01*
X13203601Y-16535588D02*
X13194077Y-16554636D01*
X13194077Y-16554636D02*
X13184553Y-16564160D01*
X13184553Y-16564160D02*
X13165506Y-16573684D01*
X13165506Y-16573684D02*
X13136934Y-16573684D01*
X13317887Y-16573684D02*
X13298839Y-16564160D01*
X13298839Y-16564160D02*
X13289315Y-16545112D01*
X13289315Y-16545112D02*
X13289315Y-16373684D01*
X13470268Y-16564160D02*
X13451220Y-16573684D01*
X13451220Y-16573684D02*
X13413125Y-16573684D01*
X13413125Y-16573684D02*
X13394077Y-16564160D01*
X13394077Y-16564160D02*
X13384553Y-16545112D01*
X13384553Y-16545112D02*
X13384553Y-16468922D01*
X13384553Y-16468922D02*
X13394077Y-16449874D01*
X13394077Y-16449874D02*
X13413125Y-16440350D01*
X13413125Y-16440350D02*
X13451220Y-16440350D01*
X13451220Y-16440350D02*
X13470268Y-16449874D01*
X13470268Y-16449874D02*
X13479791Y-16468922D01*
X13479791Y-16468922D02*
X13479791Y-16487969D01*
X13479791Y-16487969D02*
X13384553Y-16507017D01*
X13555982Y-16564160D02*
X13575030Y-16573684D01*
X13575030Y-16573684D02*
X13613125Y-16573684D01*
X13613125Y-16573684D02*
X13632172Y-16564160D01*
X13632172Y-16564160D02*
X13641696Y-16545112D01*
X13641696Y-16545112D02*
X13641696Y-16535588D01*
X13641696Y-16535588D02*
X13632172Y-16516541D01*
X13632172Y-16516541D02*
X13613125Y-16507017D01*
X13613125Y-16507017D02*
X13584553Y-16507017D01*
X13584553Y-16507017D02*
X13565506Y-16497493D01*
X13565506Y-16497493D02*
X13555982Y-16478446D01*
X13555982Y-16478446D02*
X13555982Y-16468922D01*
X13555982Y-16468922D02*
X13565506Y-16449874D01*
X13565506Y-16449874D02*
X13584553Y-16440350D01*
X13584553Y-16440350D02*
X13613125Y-16440350D01*
X13613125Y-16440350D02*
X13632172Y-16449874D01*
X13879792Y-16497493D02*
X14032173Y-16497493D01*
X13955982Y-16573684D02*
X13955982Y-16421303D01*
X14270268Y-16392731D02*
X14279792Y-16383208D01*
X14279792Y-16383208D02*
X14298839Y-16373684D01*
X14298839Y-16373684D02*
X14346458Y-16373684D01*
X14346458Y-16373684D02*
X14365506Y-16383208D01*
X14365506Y-16383208D02*
X14375030Y-16392731D01*
X14375030Y-16392731D02*
X14384553Y-16411779D01*
X14384553Y-16411779D02*
X14384553Y-16430827D01*
X14384553Y-16430827D02*
X14375030Y-16459398D01*
X14375030Y-16459398D02*
X14260744Y-16573684D01*
X14260744Y-16573684D02*
X14384553Y-16573684D01*
X14613125Y-16564160D02*
X14632173Y-16573684D01*
X14632173Y-16573684D02*
X14670268Y-16573684D01*
X14670268Y-16573684D02*
X14689315Y-16564160D01*
X14689315Y-16564160D02*
X14698839Y-16545112D01*
X14698839Y-16545112D02*
X14698839Y-16535588D01*
X14698839Y-16535588D02*
X14689315Y-16516541D01*
X14689315Y-16516541D02*
X14670268Y-16507017D01*
X14670268Y-16507017D02*
X14641696Y-16507017D01*
X14641696Y-16507017D02*
X14622649Y-16497493D01*
X14622649Y-16497493D02*
X14613125Y-16478446D01*
X14613125Y-16478446D02*
X14613125Y-16468922D01*
X14613125Y-16468922D02*
X14622649Y-16449874D01*
X14622649Y-16449874D02*
X14641696Y-16440350D01*
X14641696Y-16440350D02*
X14670268Y-16440350D01*
X14670268Y-16440350D02*
X14689315Y-16449874D01*
X14813125Y-16573684D02*
X14794077Y-16564160D01*
X14794077Y-16564160D02*
X14784554Y-16545112D01*
X14784554Y-16545112D02*
X14784554Y-16373684D01*
X14917887Y-16573684D02*
X14898839Y-16564160D01*
X14898839Y-16564160D02*
X14889315Y-16554636D01*
X14889315Y-16554636D02*
X14879792Y-16535588D01*
X14879792Y-16535588D02*
X14879792Y-16478446D01*
X14879792Y-16478446D02*
X14889315Y-16459398D01*
X14889315Y-16459398D02*
X14898839Y-16449874D01*
X14898839Y-16449874D02*
X14917887Y-16440350D01*
X14917887Y-16440350D02*
X14946458Y-16440350D01*
X14946458Y-16440350D02*
X14965506Y-16449874D01*
X14965506Y-16449874D02*
X14975030Y-16459398D01*
X14975030Y-16459398D02*
X14984554Y-16478446D01*
X14984554Y-16478446D02*
X14984554Y-16535588D01*
X14984554Y-16535588D02*
X14975030Y-16554636D01*
X14975030Y-16554636D02*
X14965506Y-16564160D01*
X14965506Y-16564160D02*
X14946458Y-16573684D01*
X14946458Y-16573684D02*
X14917887Y-16573684D01*
X15041696Y-16440350D02*
X15117887Y-16440350D01*
X15070268Y-16373684D02*
X15070268Y-16545112D01*
X15070268Y-16545112D02*
X15079792Y-16564160D01*
X15079792Y-16564160D02*
X15098839Y-16573684D01*
X15098839Y-16573684D02*
X15117887Y-16573684D01*
X15175030Y-16564160D02*
X15194077Y-16573684D01*
X15194077Y-16573684D02*
X15232173Y-16573684D01*
X15232173Y-16573684D02*
X15251220Y-16564160D01*
X15251220Y-16564160D02*
X15260744Y-16545112D01*
X15260744Y-16545112D02*
X15260744Y-16535588D01*
X15260744Y-16535588D02*
X15251220Y-16516541D01*
X15251220Y-16516541D02*
X15232173Y-16507017D01*
X15232173Y-16507017D02*
X15203601Y-16507017D01*
X15203601Y-16507017D02*
X15184554Y-16497493D01*
X15184554Y-16497493D02*
X15175030Y-16478446D01*
X15175030Y-16478446D02*
X15175030Y-16468922D01*
X15175030Y-16468922D02*
X15184554Y-16449874D01*
X15184554Y-16449874D02*
X15203601Y-16440350D01*
X15203601Y-16440350D02*
X15232173Y-16440350D01*
X15232173Y-16440350D02*
X15251220Y-16449874D01*
X15327411Y-16649874D02*
X15336935Y-16640350D01*
X15336935Y-16640350D02*
X15355982Y-16611779D01*
X15355982Y-16611779D02*
X15365506Y-16592731D01*
X15365506Y-16592731D02*
X15375030Y-16564160D01*
X15375030Y-16564160D02*
X15384554Y-16516541D01*
X15384554Y-16516541D02*
X15384554Y-16478446D01*
X15384554Y-16478446D02*
X15375030Y-16430827D01*
X15375030Y-16430827D02*
X15365506Y-16402255D01*
X15365506Y-16402255D02*
X15355982Y-16383208D01*
X15355982Y-16383208D02*
X15336935Y-16354636D01*
X15336935Y-16354636D02*
X15327411Y-16345112D01*
X8833300Y-16652200D02*
X8833300Y-16852200D01*
X8733300Y-16752200D02*
X8933300Y-16752200D01*
X8933300Y-16752200D02*
G75*
G02*
X8733300Y-16752200I-100000J0D01*
G01*
X8733300Y-16752200D02*
G75*
G02*
X8933300Y-16752200I100000J0D01*
G01*
X9175029Y-16643684D02*
X9298839Y-16643684D01*
X9298839Y-16643684D02*
X9232172Y-16719874D01*
X9232172Y-16719874D02*
X9260744Y-16719874D01*
X9260744Y-16719874D02*
X9279791Y-16729398D01*
X9279791Y-16729398D02*
X9289315Y-16738922D01*
X9289315Y-16738922D02*
X9298839Y-16757969D01*
X9298839Y-16757969D02*
X9298839Y-16805589D01*
X9298839Y-16805589D02*
X9289315Y-16824636D01*
X9289315Y-16824636D02*
X9279791Y-16834160D01*
X9279791Y-16834160D02*
X9260744Y-16843684D01*
X9260744Y-16843684D02*
X9203601Y-16843684D01*
X9203601Y-16843684D02*
X9184553Y-16834160D01*
X9184553Y-16834160D02*
X9175029Y-16824636D01*
X9384553Y-16824636D02*
X9394077Y-16834160D01*
X9394077Y-16834160D02*
X9384553Y-16843684D01*
X9384553Y-16843684D02*
X9375029Y-16834160D01*
X9375029Y-16834160D02*
X9384553Y-16824636D01*
X9384553Y-16824636D02*
X9384553Y-16843684D01*
X9470267Y-16662731D02*
X9479791Y-16653208D01*
X9479791Y-16653208D02*
X9498839Y-16643684D01*
X9498839Y-16643684D02*
X9546458Y-16643684D01*
X9546458Y-16643684D02*
X9565505Y-16653208D01*
X9565505Y-16653208D02*
X9575029Y-16662731D01*
X9575029Y-16662731D02*
X9584553Y-16681779D01*
X9584553Y-16681779D02*
X9584553Y-16700827D01*
X9584553Y-16700827D02*
X9575029Y-16729398D01*
X9575029Y-16729398D02*
X9460744Y-16843684D01*
X9460744Y-16843684D02*
X9584553Y-16843684D01*
X9708363Y-16643684D02*
X9727410Y-16643684D01*
X9727410Y-16643684D02*
X9746458Y-16653208D01*
X9746458Y-16653208D02*
X9755982Y-16662731D01*
X9755982Y-16662731D02*
X9765505Y-16681779D01*
X9765505Y-16681779D02*
X9775029Y-16719874D01*
X9775029Y-16719874D02*
X9775029Y-16767493D01*
X9775029Y-16767493D02*
X9765505Y-16805589D01*
X9765505Y-16805589D02*
X9755982Y-16824636D01*
X9755982Y-16824636D02*
X9746458Y-16834160D01*
X9746458Y-16834160D02*
X9727410Y-16843684D01*
X9727410Y-16843684D02*
X9708363Y-16843684D01*
X9708363Y-16843684D02*
X9689315Y-16834160D01*
X9689315Y-16834160D02*
X9679791Y-16824636D01*
X9679791Y-16824636D02*
X9670267Y-16805589D01*
X9670267Y-16805589D02*
X9660744Y-16767493D01*
X9660744Y-16767493D02*
X9660744Y-16719874D01*
X9660744Y-16719874D02*
X9670267Y-16681779D01*
X9670267Y-16681779D02*
X9679791Y-16662731D01*
X9679791Y-16662731D02*
X9689315Y-16653208D01*
X9689315Y-16653208D02*
X9708363Y-16643684D01*
X9898839Y-16643684D02*
X9917886Y-16643684D01*
X9917886Y-16643684D02*
X9936934Y-16653208D01*
X9936934Y-16653208D02*
X9946458Y-16662731D01*
X9946458Y-16662731D02*
X9955982Y-16681779D01*
X9955982Y-16681779D02*
X9965505Y-16719874D01*
X9965505Y-16719874D02*
X9965505Y-16767493D01*
X9965505Y-16767493D02*
X9955982Y-16805589D01*
X9955982Y-16805589D02*
X9946458Y-16824636D01*
X9946458Y-16824636D02*
X9936934Y-16834160D01*
X9936934Y-16834160D02*
X9917886Y-16843684D01*
X9917886Y-16843684D02*
X9898839Y-16843684D01*
X9898839Y-16843684D02*
X9879791Y-16834160D01*
X9879791Y-16834160D02*
X9870267Y-16824636D01*
X9870267Y-16824636D02*
X9860744Y-16805589D01*
X9860744Y-16805589D02*
X9851220Y-16767493D01*
X9851220Y-16767493D02*
X9851220Y-16719874D01*
X9851220Y-16719874D02*
X9860744Y-16681779D01*
X9860744Y-16681779D02*
X9870267Y-16662731D01*
X9870267Y-16662731D02*
X9879791Y-16653208D01*
X9879791Y-16653208D02*
X9898839Y-16643684D01*
X10051220Y-16843684D02*
X10051220Y-16710350D01*
X10051220Y-16729398D02*
X10060744Y-16719874D01*
X10060744Y-16719874D02*
X10079791Y-16710350D01*
X10079791Y-16710350D02*
X10108363Y-16710350D01*
X10108363Y-16710350D02*
X10127410Y-16719874D01*
X10127410Y-16719874D02*
X10136934Y-16738922D01*
X10136934Y-16738922D02*
X10136934Y-16843684D01*
X10136934Y-16738922D02*
X10146458Y-16719874D01*
X10146458Y-16719874D02*
X10165505Y-16710350D01*
X10165505Y-16710350D02*
X10194077Y-16710350D01*
X10194077Y-16710350D02*
X10213125Y-16719874D01*
X10213125Y-16719874D02*
X10222648Y-16738922D01*
X10222648Y-16738922D02*
X10222648Y-16843684D01*
X10317886Y-16843684D02*
X10317886Y-16710350D01*
X10317886Y-16729398D02*
X10327410Y-16719874D01*
X10327410Y-16719874D02*
X10346458Y-16710350D01*
X10346458Y-16710350D02*
X10375029Y-16710350D01*
X10375029Y-16710350D02*
X10394077Y-16719874D01*
X10394077Y-16719874D02*
X10403601Y-16738922D01*
X10403601Y-16738922D02*
X10403601Y-16843684D01*
X10403601Y-16738922D02*
X10413125Y-16719874D01*
X10413125Y-16719874D02*
X10432172Y-16710350D01*
X10432172Y-16710350D02*
X10460744Y-16710350D01*
X10460744Y-16710350D02*
X10479791Y-16719874D01*
X10479791Y-16719874D02*
X10489315Y-16738922D01*
X10489315Y-16738922D02*
X10489315Y-16843684D01*
X10879791Y-16634160D02*
X10708363Y-16891303D01*
X11136934Y-16643684D02*
X11155982Y-16643684D01*
X11155982Y-16643684D02*
X11175029Y-16653208D01*
X11175029Y-16653208D02*
X11184553Y-16662731D01*
X11184553Y-16662731D02*
X11194077Y-16681779D01*
X11194077Y-16681779D02*
X11203601Y-16719874D01*
X11203601Y-16719874D02*
X11203601Y-16767493D01*
X11203601Y-16767493D02*
X11194077Y-16805589D01*
X11194077Y-16805589D02*
X11184553Y-16824636D01*
X11184553Y-16824636D02*
X11175029Y-16834160D01*
X11175029Y-16834160D02*
X11155982Y-16843684D01*
X11155982Y-16843684D02*
X11136934Y-16843684D01*
X11136934Y-16843684D02*
X11117887Y-16834160D01*
X11117887Y-16834160D02*
X11108363Y-16824636D01*
X11108363Y-16824636D02*
X11098839Y-16805589D01*
X11098839Y-16805589D02*
X11089315Y-16767493D01*
X11089315Y-16767493D02*
X11089315Y-16719874D01*
X11089315Y-16719874D02*
X11098839Y-16681779D01*
X11098839Y-16681779D02*
X11108363Y-16662731D01*
X11108363Y-16662731D02*
X11117887Y-16653208D01*
X11117887Y-16653208D02*
X11136934Y-16643684D01*
X11289315Y-16824636D02*
X11298839Y-16834160D01*
X11298839Y-16834160D02*
X11289315Y-16843684D01*
X11289315Y-16843684D02*
X11279791Y-16834160D01*
X11279791Y-16834160D02*
X11289315Y-16824636D01*
X11289315Y-16824636D02*
X11289315Y-16843684D01*
X11489315Y-16843684D02*
X11375029Y-16843684D01*
X11432172Y-16843684D02*
X11432172Y-16643684D01*
X11432172Y-16643684D02*
X11413125Y-16672255D01*
X11413125Y-16672255D02*
X11394077Y-16691303D01*
X11394077Y-16691303D02*
X11375029Y-16700827D01*
X11565506Y-16662731D02*
X11575029Y-16653208D01*
X11575029Y-16653208D02*
X11594077Y-16643684D01*
X11594077Y-16643684D02*
X11641696Y-16643684D01*
X11641696Y-16643684D02*
X11660744Y-16653208D01*
X11660744Y-16653208D02*
X11670267Y-16662731D01*
X11670267Y-16662731D02*
X11679791Y-16681779D01*
X11679791Y-16681779D02*
X11679791Y-16700827D01*
X11679791Y-16700827D02*
X11670267Y-16729398D01*
X11670267Y-16729398D02*
X11555982Y-16843684D01*
X11555982Y-16843684D02*
X11679791Y-16843684D01*
X11851220Y-16643684D02*
X11813125Y-16643684D01*
X11813125Y-16643684D02*
X11794077Y-16653208D01*
X11794077Y-16653208D02*
X11784553Y-16662731D01*
X11784553Y-16662731D02*
X11765506Y-16691303D01*
X11765506Y-16691303D02*
X11755982Y-16729398D01*
X11755982Y-16729398D02*
X11755982Y-16805589D01*
X11755982Y-16805589D02*
X11765506Y-16824636D01*
X11765506Y-16824636D02*
X11775029Y-16834160D01*
X11775029Y-16834160D02*
X11794077Y-16843684D01*
X11794077Y-16843684D02*
X11832172Y-16843684D01*
X11832172Y-16843684D02*
X11851220Y-16834160D01*
X11851220Y-16834160D02*
X11860744Y-16824636D01*
X11860744Y-16824636D02*
X11870267Y-16805589D01*
X11870267Y-16805589D02*
X11870267Y-16757969D01*
X11870267Y-16757969D02*
X11860744Y-16738922D01*
X11860744Y-16738922D02*
X11851220Y-16729398D01*
X11851220Y-16729398D02*
X11832172Y-16719874D01*
X11832172Y-16719874D02*
X11794077Y-16719874D01*
X11794077Y-16719874D02*
X11775029Y-16729398D01*
X11775029Y-16729398D02*
X11765506Y-16738922D01*
X11765506Y-16738922D02*
X11755982Y-16757969D01*
X11994077Y-16643684D02*
X12013125Y-16643684D01*
X12013125Y-16643684D02*
X12032172Y-16653208D01*
X12032172Y-16653208D02*
X12041696Y-16662731D01*
X12041696Y-16662731D02*
X12051220Y-16681779D01*
X12051220Y-16681779D02*
X12060744Y-16719874D01*
X12060744Y-16719874D02*
X12060744Y-16767493D01*
X12060744Y-16767493D02*
X12051220Y-16805589D01*
X12051220Y-16805589D02*
X12041696Y-16824636D01*
X12041696Y-16824636D02*
X12032172Y-16834160D01*
X12032172Y-16834160D02*
X12013125Y-16843684D01*
X12013125Y-16843684D02*
X11994077Y-16843684D01*
X11994077Y-16843684D02*
X11975029Y-16834160D01*
X11975029Y-16834160D02*
X11965506Y-16824636D01*
X11965506Y-16824636D02*
X11955982Y-16805589D01*
X11955982Y-16805589D02*
X11946458Y-16767493D01*
X11946458Y-16767493D02*
X11946458Y-16719874D01*
X11946458Y-16719874D02*
X11955982Y-16681779D01*
X11955982Y-16681779D02*
X11965506Y-16662731D01*
X11965506Y-16662731D02*
X11975029Y-16653208D01*
X11975029Y-16653208D02*
X11994077Y-16643684D01*
X12136934Y-16643684D02*
X12136934Y-16681779D01*
X12213125Y-16643684D02*
X12213125Y-16681779D01*
X12508363Y-16919874D02*
X12498839Y-16910350D01*
X12498839Y-16910350D02*
X12479791Y-16881779D01*
X12479791Y-16881779D02*
X12470268Y-16862731D01*
X12470268Y-16862731D02*
X12460744Y-16834160D01*
X12460744Y-16834160D02*
X12451220Y-16786541D01*
X12451220Y-16786541D02*
X12451220Y-16748446D01*
X12451220Y-16748446D02*
X12460744Y-16700827D01*
X12460744Y-16700827D02*
X12470268Y-16672255D01*
X12470268Y-16672255D02*
X12479791Y-16653208D01*
X12479791Y-16653208D02*
X12498839Y-16624636D01*
X12498839Y-16624636D02*
X12508363Y-16615112D01*
X12670268Y-16710350D02*
X12670268Y-16843684D01*
X12622648Y-16634160D02*
X12575029Y-16777017D01*
X12575029Y-16777017D02*
X12698839Y-16777017D01*
X12927410Y-16843684D02*
X12927410Y-16643684D01*
X13013125Y-16843684D02*
X13013125Y-16738922D01*
X13013125Y-16738922D02*
X13003601Y-16719874D01*
X13003601Y-16719874D02*
X12984553Y-16710350D01*
X12984553Y-16710350D02*
X12955982Y-16710350D01*
X12955982Y-16710350D02*
X12936934Y-16719874D01*
X12936934Y-16719874D02*
X12927410Y-16729398D01*
X13136934Y-16843684D02*
X13117887Y-16834160D01*
X13117887Y-16834160D02*
X13108363Y-16824636D01*
X13108363Y-16824636D02*
X13098839Y-16805589D01*
X13098839Y-16805589D02*
X13098839Y-16748446D01*
X13098839Y-16748446D02*
X13108363Y-16729398D01*
X13108363Y-16729398D02*
X13117887Y-16719874D01*
X13117887Y-16719874D02*
X13136934Y-16710350D01*
X13136934Y-16710350D02*
X13165506Y-16710350D01*
X13165506Y-16710350D02*
X13184553Y-16719874D01*
X13184553Y-16719874D02*
X13194077Y-16729398D01*
X13194077Y-16729398D02*
X13203601Y-16748446D01*
X13203601Y-16748446D02*
X13203601Y-16805589D01*
X13203601Y-16805589D02*
X13194077Y-16824636D01*
X13194077Y-16824636D02*
X13184553Y-16834160D01*
X13184553Y-16834160D02*
X13165506Y-16843684D01*
X13165506Y-16843684D02*
X13136934Y-16843684D01*
X13317887Y-16843684D02*
X13298839Y-16834160D01*
X13298839Y-16834160D02*
X13289315Y-16815112D01*
X13289315Y-16815112D02*
X13289315Y-16643684D01*
X13470268Y-16834160D02*
X13451220Y-16843684D01*
X13451220Y-16843684D02*
X13413125Y-16843684D01*
X13413125Y-16843684D02*
X13394077Y-16834160D01*
X13394077Y-16834160D02*
X13384553Y-16815112D01*
X13384553Y-16815112D02*
X13384553Y-16738922D01*
X13384553Y-16738922D02*
X13394077Y-16719874D01*
X13394077Y-16719874D02*
X13413125Y-16710350D01*
X13413125Y-16710350D02*
X13451220Y-16710350D01*
X13451220Y-16710350D02*
X13470268Y-16719874D01*
X13470268Y-16719874D02*
X13479791Y-16738922D01*
X13479791Y-16738922D02*
X13479791Y-16757969D01*
X13479791Y-16757969D02*
X13384553Y-16777017D01*
X13555982Y-16834160D02*
X13575030Y-16843684D01*
X13575030Y-16843684D02*
X13613125Y-16843684D01*
X13613125Y-16843684D02*
X13632172Y-16834160D01*
X13632172Y-16834160D02*
X13641696Y-16815112D01*
X13641696Y-16815112D02*
X13641696Y-16805589D01*
X13641696Y-16805589D02*
X13632172Y-16786541D01*
X13632172Y-16786541D02*
X13613125Y-16777017D01*
X13613125Y-16777017D02*
X13584553Y-16777017D01*
X13584553Y-16777017D02*
X13565506Y-16767493D01*
X13565506Y-16767493D02*
X13555982Y-16748446D01*
X13555982Y-16748446D02*
X13555982Y-16738922D01*
X13555982Y-16738922D02*
X13565506Y-16719874D01*
X13565506Y-16719874D02*
X13584553Y-16710350D01*
X13584553Y-16710350D02*
X13613125Y-16710350D01*
X13613125Y-16710350D02*
X13632172Y-16719874D01*
X13708363Y-16919874D02*
X13717887Y-16910350D01*
X13717887Y-16910350D02*
X13736934Y-16881779D01*
X13736934Y-16881779D02*
X13746458Y-16862731D01*
X13746458Y-16862731D02*
X13755982Y-16834160D01*
X13755982Y-16834160D02*
X13765506Y-16786541D01*
X13765506Y-16786541D02*
X13765506Y-16748446D01*
X13765506Y-16748446D02*
X13755982Y-16700827D01*
X13755982Y-16700827D02*
X13746458Y-16672255D01*
X13746458Y-16672255D02*
X13736934Y-16653208D01*
X13736934Y-16653208D02*
X13717887Y-16624636D01*
X13717887Y-16624636D02*
X13708363Y-16615112D01*
M02*
