%TF.GenerationSoftware,KiCad,Pcbnew,9.0.0*%
%TF.CreationDate,2025-06-12T21:42:43+02:00*%
%TF.ProjectId,plant_watner_V3.0,706c616e-745f-4776-9174-6e65725f5633,rev?*%
%TF.SameCoordinates,Original*%
%TF.FileFunction,Legend,Top*%
%TF.FilePolarity,Positive*%
%FSLAX46Y46*%
G04 Gerber Fmt 4.6, Leading zero omitted, Abs format (unit mm)*
G04 Created by KiCad (PCBNEW 9.0.0) date 2025-06-12 21:42:43*
%MOMM*%
%LPD*%
G01*
G04 APERTURE LIST*
%ADD10C,0.400000*%
%ADD11C,0.150000*%
%ADD12C,0.120000*%
%ADD13C,0.350000*%
%ADD14O,1.500000X2.800000*%
G04 APERTURE END LIST*
D10*
X110455442Y-106481438D02*
X110705442Y-104481438D01*
X110705442Y-104481438D02*
X111467347Y-104481438D01*
X111467347Y-104481438D02*
X111645918Y-104576676D01*
X111645918Y-104576676D02*
X111729252Y-104671914D01*
X111729252Y-104671914D02*
X111800680Y-104862390D01*
X111800680Y-104862390D02*
X111764966Y-105148104D01*
X111764966Y-105148104D02*
X111645918Y-105338580D01*
X111645918Y-105338580D02*
X111538776Y-105433819D01*
X111538776Y-105433819D02*
X111336395Y-105529057D01*
X111336395Y-105529057D02*
X110574490Y-105529057D01*
X112741157Y-106481438D02*
X112562585Y-106386200D01*
X112562585Y-106386200D02*
X112491157Y-106195723D01*
X112491157Y-106195723D02*
X112705442Y-104481438D01*
X114360204Y-106481438D02*
X114491156Y-105433819D01*
X114491156Y-105433819D02*
X114419728Y-105243342D01*
X114419728Y-105243342D02*
X114241156Y-105148104D01*
X114241156Y-105148104D02*
X113860204Y-105148104D01*
X113860204Y-105148104D02*
X113657823Y-105243342D01*
X114372109Y-106386200D02*
X114169728Y-106481438D01*
X114169728Y-106481438D02*
X113693537Y-106481438D01*
X113693537Y-106481438D02*
X113514966Y-106386200D01*
X113514966Y-106386200D02*
X113443537Y-106195723D01*
X113443537Y-106195723D02*
X113467347Y-106005247D01*
X113467347Y-106005247D02*
X113586395Y-105814771D01*
X113586395Y-105814771D02*
X113788776Y-105719533D01*
X113788776Y-105719533D02*
X114264966Y-105719533D01*
X114264966Y-105719533D02*
X114467347Y-105624295D01*
X115479252Y-105148104D02*
X115312585Y-106481438D01*
X115455442Y-105338580D02*
X115562585Y-105243342D01*
X115562585Y-105243342D02*
X115764966Y-105148104D01*
X115764966Y-105148104D02*
X116050680Y-105148104D01*
X116050680Y-105148104D02*
X116229252Y-105243342D01*
X116229252Y-105243342D02*
X116300680Y-105433819D01*
X116300680Y-105433819D02*
X116169728Y-106481438D01*
X117003062Y-105148104D02*
X117764966Y-105148104D01*
X117372109Y-104481438D02*
X117157824Y-106195723D01*
X117157824Y-106195723D02*
X117229252Y-106386200D01*
X117229252Y-106386200D02*
X117407824Y-106481438D01*
X117407824Y-106481438D02*
X117598300Y-106481438D01*
X119764967Y-105148104D02*
X119979252Y-106481438D01*
X119979252Y-106481438D02*
X120479252Y-105529057D01*
X120479252Y-105529057D02*
X120741157Y-106481438D01*
X120741157Y-106481438D02*
X121288776Y-105148104D01*
X122741157Y-106481438D02*
X122872109Y-105433819D01*
X122872109Y-105433819D02*
X122800681Y-105243342D01*
X122800681Y-105243342D02*
X122622109Y-105148104D01*
X122622109Y-105148104D02*
X122241157Y-105148104D01*
X122241157Y-105148104D02*
X122038776Y-105243342D01*
X122753062Y-106386200D02*
X122550681Y-106481438D01*
X122550681Y-106481438D02*
X122074490Y-106481438D01*
X122074490Y-106481438D02*
X121895919Y-106386200D01*
X121895919Y-106386200D02*
X121824490Y-106195723D01*
X121824490Y-106195723D02*
X121848300Y-106005247D01*
X121848300Y-106005247D02*
X121967348Y-105814771D01*
X121967348Y-105814771D02*
X122169729Y-105719533D01*
X122169729Y-105719533D02*
X122645919Y-105719533D01*
X122645919Y-105719533D02*
X122848300Y-105624295D01*
X123574491Y-105148104D02*
X124336395Y-105148104D01*
X123943538Y-104481438D02*
X123729253Y-106195723D01*
X123729253Y-106195723D02*
X123800681Y-106386200D01*
X123800681Y-106386200D02*
X123979253Y-106481438D01*
X123979253Y-106481438D02*
X124169729Y-106481438D01*
X125610205Y-106386200D02*
X125407824Y-106481438D01*
X125407824Y-106481438D02*
X125026871Y-106481438D01*
X125026871Y-106481438D02*
X124848300Y-106386200D01*
X124848300Y-106386200D02*
X124776871Y-106195723D01*
X124776871Y-106195723D02*
X124872110Y-105433819D01*
X124872110Y-105433819D02*
X124991157Y-105243342D01*
X124991157Y-105243342D02*
X125193538Y-105148104D01*
X125193538Y-105148104D02*
X125574490Y-105148104D01*
X125574490Y-105148104D02*
X125753062Y-105243342D01*
X125753062Y-105243342D02*
X125824490Y-105433819D01*
X125824490Y-105433819D02*
X125800681Y-105624295D01*
X125800681Y-105624295D02*
X124824490Y-105814771D01*
X126550681Y-106481438D02*
X126717348Y-105148104D01*
X126669729Y-105529057D02*
X126788776Y-105338580D01*
X126788776Y-105338580D02*
X126895919Y-105243342D01*
X126895919Y-105243342D02*
X127098300Y-105148104D01*
X127098300Y-105148104D02*
X127288776Y-105148104D01*
X128562586Y-106386200D02*
X128360205Y-106481438D01*
X128360205Y-106481438D02*
X127979252Y-106481438D01*
X127979252Y-106481438D02*
X127800681Y-106386200D01*
X127800681Y-106386200D02*
X127729252Y-106195723D01*
X127729252Y-106195723D02*
X127824491Y-105433819D01*
X127824491Y-105433819D02*
X127943538Y-105243342D01*
X127943538Y-105243342D02*
X128145919Y-105148104D01*
X128145919Y-105148104D02*
X128526871Y-105148104D01*
X128526871Y-105148104D02*
X128705443Y-105243342D01*
X128705443Y-105243342D02*
X128776871Y-105433819D01*
X128776871Y-105433819D02*
X128753062Y-105624295D01*
X128753062Y-105624295D02*
X127776871Y-105814771D01*
X129503062Y-106481438D02*
X129669729Y-105148104D01*
X129622110Y-105529057D02*
X129741157Y-105338580D01*
X129741157Y-105338580D02*
X129848300Y-105243342D01*
X129848300Y-105243342D02*
X130050681Y-105148104D01*
X130050681Y-105148104D02*
X130241157Y-105148104D01*
X132229253Y-104481438D02*
X132645920Y-106481438D01*
X132645920Y-106481438D02*
X133562586Y-104481438D01*
X134038777Y-104481438D02*
X135276872Y-104481438D01*
X135276872Y-104481438D02*
X134514968Y-105243342D01*
X134514968Y-105243342D02*
X134800682Y-105243342D01*
X134800682Y-105243342D02*
X134979253Y-105338580D01*
X134979253Y-105338580D02*
X135062587Y-105433819D01*
X135062587Y-105433819D02*
X135134015Y-105624295D01*
X135134015Y-105624295D02*
X135074491Y-106100485D01*
X135074491Y-106100485D02*
X134955444Y-106290961D01*
X134955444Y-106290961D02*
X134848301Y-106386200D01*
X134848301Y-106386200D02*
X134645920Y-106481438D01*
X134645920Y-106481438D02*
X134074491Y-106481438D01*
X134074491Y-106481438D02*
X133895920Y-106386200D01*
X133895920Y-106386200D02*
X133812587Y-106290961D01*
X135907825Y-106290961D02*
X135991158Y-106386200D01*
X135991158Y-106386200D02*
X135884015Y-106481438D01*
X135884015Y-106481438D02*
X135800682Y-106386200D01*
X135800682Y-106386200D02*
X135907825Y-106290961D01*
X135907825Y-106290961D02*
X135884015Y-106481438D01*
X137467349Y-104481438D02*
X137657825Y-104481438D01*
X137657825Y-104481438D02*
X137836396Y-104576676D01*
X137836396Y-104576676D02*
X137919730Y-104671914D01*
X137919730Y-104671914D02*
X137991158Y-104862390D01*
X137991158Y-104862390D02*
X138038777Y-105243342D01*
X138038777Y-105243342D02*
X137979253Y-105719533D01*
X137979253Y-105719533D02*
X137836396Y-106100485D01*
X137836396Y-106100485D02*
X137717349Y-106290961D01*
X137717349Y-106290961D02*
X137610206Y-106386200D01*
X137610206Y-106386200D02*
X137407825Y-106481438D01*
X137407825Y-106481438D02*
X137217349Y-106481438D01*
X137217349Y-106481438D02*
X137038777Y-106386200D01*
X137038777Y-106386200D02*
X136955444Y-106290961D01*
X136955444Y-106290961D02*
X136884015Y-106100485D01*
X136884015Y-106100485D02*
X136836396Y-105719533D01*
X136836396Y-105719533D02*
X136895920Y-105243342D01*
X136895920Y-105243342D02*
X137038777Y-104862390D01*
X137038777Y-104862390D02*
X137157825Y-104671914D01*
X137157825Y-104671914D02*
X137264968Y-104576676D01*
X137264968Y-104576676D02*
X137467349Y-104481438D01*
X140360206Y-105719533D02*
X141884016Y-105719533D01*
X144395921Y-105433819D02*
X145062587Y-105433819D01*
X145217349Y-106481438D02*
X144264968Y-106481438D01*
X144264968Y-106481438D02*
X144514968Y-104481438D01*
X144514968Y-104481438D02*
X145467349Y-104481438D01*
X146074492Y-106481438D02*
X146241159Y-105148104D01*
X146217349Y-105338580D02*
X146324492Y-105243342D01*
X146324492Y-105243342D02*
X146526873Y-105148104D01*
X146526873Y-105148104D02*
X146812587Y-105148104D01*
X146812587Y-105148104D02*
X146991159Y-105243342D01*
X146991159Y-105243342D02*
X147062587Y-105433819D01*
X147062587Y-105433819D02*
X146931635Y-106481438D01*
X147062587Y-105433819D02*
X147181635Y-105243342D01*
X147181635Y-105243342D02*
X147384016Y-105148104D01*
X147384016Y-105148104D02*
X147669730Y-105148104D01*
X147669730Y-105148104D02*
X147848302Y-105243342D01*
X147848302Y-105243342D02*
X147919730Y-105433819D01*
X147919730Y-105433819D02*
X147788778Y-106481438D01*
X148741159Y-106481438D02*
X148907826Y-105148104D01*
X148991159Y-104481438D02*
X148884016Y-104576676D01*
X148884016Y-104576676D02*
X148967350Y-104671914D01*
X148967350Y-104671914D02*
X149074493Y-104576676D01*
X149074493Y-104576676D02*
X148991159Y-104481438D01*
X148991159Y-104481438D02*
X148967350Y-104671914D01*
X149979255Y-106481438D02*
X149800683Y-106386200D01*
X149800683Y-106386200D02*
X149729255Y-106195723D01*
X149729255Y-106195723D02*
X149943540Y-104481438D01*
X152241160Y-105910009D02*
X153193541Y-105910009D01*
X151979255Y-106481438D02*
X152895922Y-104481438D01*
X152895922Y-104481438D02*
X153312588Y-106481438D01*
X154145922Y-105148104D02*
X153979255Y-106481438D01*
X154122112Y-105338580D02*
X154229255Y-105243342D01*
X154229255Y-105243342D02*
X154431636Y-105148104D01*
X154431636Y-105148104D02*
X154717350Y-105148104D01*
X154717350Y-105148104D02*
X154895922Y-105243342D01*
X154895922Y-105243342D02*
X154967350Y-105433819D01*
X154967350Y-105433819D02*
X154836398Y-106481438D01*
X156645922Y-106481438D02*
X156895922Y-104481438D01*
X156657827Y-106386200D02*
X156455446Y-106481438D01*
X156455446Y-106481438D02*
X156074494Y-106481438D01*
X156074494Y-106481438D02*
X155895922Y-106386200D01*
X155895922Y-106386200D02*
X155812589Y-106290961D01*
X155812589Y-106290961D02*
X155741160Y-106100485D01*
X155741160Y-106100485D02*
X155812589Y-105529057D01*
X155812589Y-105529057D02*
X155931636Y-105338580D01*
X155931636Y-105338580D02*
X156038779Y-105243342D01*
X156038779Y-105243342D02*
X156241160Y-105148104D01*
X156241160Y-105148104D02*
X156622113Y-105148104D01*
X156622113Y-105148104D02*
X156800684Y-105243342D01*
X157598303Y-106481438D02*
X157764970Y-105148104D01*
X157717351Y-105529057D02*
X157836398Y-105338580D01*
X157836398Y-105338580D02*
X157943541Y-105243342D01*
X157943541Y-105243342D02*
X158145922Y-105148104D01*
X158145922Y-105148104D02*
X158336398Y-105148104D01*
X159610208Y-106386200D02*
X159407827Y-106481438D01*
X159407827Y-106481438D02*
X159026874Y-106481438D01*
X159026874Y-106481438D02*
X158848303Y-106386200D01*
X158848303Y-106386200D02*
X158776874Y-106195723D01*
X158776874Y-106195723D02*
X158872113Y-105433819D01*
X158872113Y-105433819D02*
X158991160Y-105243342D01*
X158991160Y-105243342D02*
X159193541Y-105148104D01*
X159193541Y-105148104D02*
X159574493Y-105148104D01*
X159574493Y-105148104D02*
X159753065Y-105243342D01*
X159753065Y-105243342D02*
X159824493Y-105433819D01*
X159824493Y-105433819D02*
X159800684Y-105624295D01*
X159800684Y-105624295D02*
X158824493Y-105814771D01*
X159669732Y-104386200D02*
X159348303Y-104671914D01*
X161407827Y-106481438D02*
X161538779Y-105433819D01*
X161538779Y-105433819D02*
X161467351Y-105243342D01*
X161467351Y-105243342D02*
X161288779Y-105148104D01*
X161288779Y-105148104D02*
X160907827Y-105148104D01*
X160907827Y-105148104D02*
X160705446Y-105243342D01*
X161419732Y-106386200D02*
X161217351Y-106481438D01*
X161217351Y-106481438D02*
X160741160Y-106481438D01*
X160741160Y-106481438D02*
X160562589Y-106386200D01*
X160562589Y-106386200D02*
X160491160Y-106195723D01*
X160491160Y-106195723D02*
X160514970Y-106005247D01*
X160514970Y-106005247D02*
X160634018Y-105814771D01*
X160634018Y-105814771D02*
X160836399Y-105719533D01*
X160836399Y-105719533D02*
X161312589Y-105719533D01*
X161312589Y-105719533D02*
X161514970Y-105624295D01*
X162276875Y-106386200D02*
X162455446Y-106481438D01*
X162455446Y-106481438D02*
X162836399Y-106481438D01*
X162836399Y-106481438D02*
X163038780Y-106386200D01*
X163038780Y-106386200D02*
X163157827Y-106195723D01*
X163157827Y-106195723D02*
X163169732Y-106100485D01*
X163169732Y-106100485D02*
X163098303Y-105910009D01*
X163098303Y-105910009D02*
X162919732Y-105814771D01*
X162919732Y-105814771D02*
X162634018Y-105814771D01*
X162634018Y-105814771D02*
X162455446Y-105719533D01*
X162455446Y-105719533D02*
X162384018Y-105529057D01*
X162384018Y-105529057D02*
X162395923Y-105433819D01*
X162395923Y-105433819D02*
X162514970Y-105243342D01*
X162514970Y-105243342D02*
X162717351Y-105148104D01*
X162717351Y-105148104D02*
X163003065Y-105148104D01*
X163003065Y-105148104D02*
X163181637Y-105243342D01*
X163895923Y-106386200D02*
X164074494Y-106481438D01*
X164074494Y-106481438D02*
X164455447Y-106481438D01*
X164455447Y-106481438D02*
X164657828Y-106386200D01*
X164657828Y-106386200D02*
X164776875Y-106195723D01*
X164776875Y-106195723D02*
X164788780Y-106100485D01*
X164788780Y-106100485D02*
X164717351Y-105910009D01*
X164717351Y-105910009D02*
X164538780Y-105814771D01*
X164538780Y-105814771D02*
X164253066Y-105814771D01*
X164253066Y-105814771D02*
X164074494Y-105719533D01*
X164074494Y-105719533D02*
X164003066Y-105529057D01*
X164003066Y-105529057D02*
X164014971Y-105433819D01*
X164014971Y-105433819D02*
X164134018Y-105243342D01*
X164134018Y-105243342D02*
X164336399Y-105148104D01*
X164336399Y-105148104D02*
X164622113Y-105148104D01*
X164622113Y-105148104D02*
X164800685Y-105243342D01*
X165884019Y-106481438D02*
X165705447Y-106386200D01*
X165705447Y-106386200D02*
X165622114Y-106290961D01*
X165622114Y-106290961D02*
X165550685Y-106100485D01*
X165550685Y-106100485D02*
X165622114Y-105529057D01*
X165622114Y-105529057D02*
X165741161Y-105338580D01*
X165741161Y-105338580D02*
X165848304Y-105243342D01*
X165848304Y-105243342D02*
X166050685Y-105148104D01*
X166050685Y-105148104D02*
X166336399Y-105148104D01*
X166336399Y-105148104D02*
X166514971Y-105243342D01*
X166514971Y-105243342D02*
X166598304Y-105338580D01*
X166598304Y-105338580D02*
X166669733Y-105529057D01*
X166669733Y-105529057D02*
X166598304Y-106100485D01*
X166598304Y-106100485D02*
X166479257Y-106290961D01*
X166479257Y-106290961D02*
X166372114Y-106386200D01*
X166372114Y-106386200D02*
X166169733Y-106481438D01*
X166169733Y-106481438D02*
X165884019Y-106481438D01*
X167574495Y-105148104D02*
X167407828Y-106481438D01*
X167550685Y-105338580D02*
X167657828Y-105243342D01*
X167657828Y-105243342D02*
X167860209Y-105148104D01*
X167860209Y-105148104D02*
X168145923Y-105148104D01*
X168145923Y-105148104D02*
X168324495Y-105243342D01*
X168324495Y-105243342D02*
X168395923Y-105433819D01*
X168395923Y-105433819D02*
X168264971Y-106481438D01*
D11*
X112317690Y-80297319D02*
X112508166Y-80297319D01*
X112508166Y-80297319D02*
X112603404Y-80344938D01*
X112603404Y-80344938D02*
X112698642Y-80440176D01*
X112698642Y-80440176D02*
X112746261Y-80630652D01*
X112746261Y-80630652D02*
X112746261Y-80963985D01*
X112746261Y-80963985D02*
X112698642Y-81154461D01*
X112698642Y-81154461D02*
X112603404Y-81249700D01*
X112603404Y-81249700D02*
X112508166Y-81297319D01*
X112508166Y-81297319D02*
X112317690Y-81297319D01*
X112317690Y-81297319D02*
X112222452Y-81249700D01*
X112222452Y-81249700D02*
X112127214Y-81154461D01*
X112127214Y-81154461D02*
X112079595Y-80963985D01*
X112079595Y-80963985D02*
X112079595Y-80630652D01*
X112079595Y-80630652D02*
X112127214Y-80440176D01*
X112127214Y-80440176D02*
X112222452Y-80344938D01*
X112222452Y-80344938D02*
X112317690Y-80297319D01*
X113651023Y-81297319D02*
X113174833Y-81297319D01*
X113174833Y-81297319D02*
X113174833Y-80297319D01*
X113984357Y-80773509D02*
X114317690Y-80773509D01*
X114460547Y-81297319D02*
X113984357Y-81297319D01*
X113984357Y-81297319D02*
X113984357Y-80297319D01*
X113984357Y-80297319D02*
X114460547Y-80297319D01*
X114889119Y-81297319D02*
X114889119Y-80297319D01*
X114889119Y-80297319D02*
X115127214Y-80297319D01*
X115127214Y-80297319D02*
X115270071Y-80344938D01*
X115270071Y-80344938D02*
X115365309Y-80440176D01*
X115365309Y-80440176D02*
X115412928Y-80535414D01*
X115412928Y-80535414D02*
X115460547Y-80725890D01*
X115460547Y-80725890D02*
X115460547Y-80868747D01*
X115460547Y-80868747D02*
X115412928Y-81059223D01*
X115412928Y-81059223D02*
X115365309Y-81154461D01*
X115365309Y-81154461D02*
X115270071Y-81249700D01*
X115270071Y-81249700D02*
X115127214Y-81297319D01*
X115127214Y-81297319D02*
X114889119Y-81297319D01*
X115651024Y-81392557D02*
X116412928Y-81392557D01*
X116651024Y-81297319D02*
X116651024Y-80297319D01*
X117079595Y-80392557D02*
X117127214Y-80344938D01*
X117127214Y-80344938D02*
X117222452Y-80297319D01*
X117222452Y-80297319D02*
X117460547Y-80297319D01*
X117460547Y-80297319D02*
X117555785Y-80344938D01*
X117555785Y-80344938D02*
X117603404Y-80392557D01*
X117603404Y-80392557D02*
X117651023Y-80487795D01*
X117651023Y-80487795D02*
X117651023Y-80583033D01*
X117651023Y-80583033D02*
X117603404Y-80725890D01*
X117603404Y-80725890D02*
X117031976Y-81297319D01*
X117031976Y-81297319D02*
X117651023Y-81297319D01*
X118651023Y-81202080D02*
X118603404Y-81249700D01*
X118603404Y-81249700D02*
X118460547Y-81297319D01*
X118460547Y-81297319D02*
X118365309Y-81297319D01*
X118365309Y-81297319D02*
X118222452Y-81249700D01*
X118222452Y-81249700D02*
X118127214Y-81154461D01*
X118127214Y-81154461D02*
X118079595Y-81059223D01*
X118079595Y-81059223D02*
X118031976Y-80868747D01*
X118031976Y-80868747D02*
X118031976Y-80725890D01*
X118031976Y-80725890D02*
X118079595Y-80535414D01*
X118079595Y-80535414D02*
X118127214Y-80440176D01*
X118127214Y-80440176D02*
X118222452Y-80344938D01*
X118222452Y-80344938D02*
X118365309Y-80297319D01*
X118365309Y-80297319D02*
X118460547Y-80297319D01*
X118460547Y-80297319D02*
X118603404Y-80344938D01*
X118603404Y-80344938D02*
X118651023Y-80392557D01*
X119603404Y-81297319D02*
X119031976Y-81297319D01*
X119317690Y-81297319D02*
X119317690Y-80297319D01*
X119317690Y-80297319D02*
X119222452Y-80440176D01*
X119222452Y-80440176D02*
X119127214Y-80535414D01*
X119127214Y-80535414D02*
X119031976Y-80583033D01*
X168084667Y-119219200D02*
X168227524Y-119266819D01*
X168227524Y-119266819D02*
X168465619Y-119266819D01*
X168465619Y-119266819D02*
X168560857Y-119219200D01*
X168560857Y-119219200D02*
X168608476Y-119171580D01*
X168608476Y-119171580D02*
X168656095Y-119076342D01*
X168656095Y-119076342D02*
X168656095Y-118981104D01*
X168656095Y-118981104D02*
X168608476Y-118885866D01*
X168608476Y-118885866D02*
X168560857Y-118838247D01*
X168560857Y-118838247D02*
X168465619Y-118790628D01*
X168465619Y-118790628D02*
X168275143Y-118743009D01*
X168275143Y-118743009D02*
X168179905Y-118695390D01*
X168179905Y-118695390D02*
X168132286Y-118647771D01*
X168132286Y-118647771D02*
X168084667Y-118552533D01*
X168084667Y-118552533D02*
X168084667Y-118457295D01*
X168084667Y-118457295D02*
X168132286Y-118362057D01*
X168132286Y-118362057D02*
X168179905Y-118314438D01*
X168179905Y-118314438D02*
X168275143Y-118266819D01*
X168275143Y-118266819D02*
X168513238Y-118266819D01*
X168513238Y-118266819D02*
X168656095Y-118314438D01*
X168989429Y-118266819D02*
X169227524Y-119266819D01*
X169227524Y-119266819D02*
X169418000Y-118552533D01*
X169418000Y-118552533D02*
X169608476Y-119266819D01*
X169608476Y-119266819D02*
X169846572Y-118266819D01*
X170751333Y-119266819D02*
X170179905Y-119266819D01*
X170465619Y-119266819D02*
X170465619Y-118266819D01*
X170465619Y-118266819D02*
X170370381Y-118409676D01*
X170370381Y-118409676D02*
X170275143Y-118504914D01*
X170275143Y-118504914D02*
X170179905Y-118552533D01*
X129076095Y-60279652D02*
X129076095Y-61279652D01*
X129076095Y-60327271D02*
X129171333Y-60279652D01*
X129171333Y-60279652D02*
X129361809Y-60279652D01*
X129361809Y-60279652D02*
X129457047Y-60327271D01*
X129457047Y-60327271D02*
X129504666Y-60374890D01*
X129504666Y-60374890D02*
X129552285Y-60470128D01*
X129552285Y-60470128D02*
X129552285Y-60755842D01*
X129552285Y-60755842D02*
X129504666Y-60851080D01*
X129504666Y-60851080D02*
X129457047Y-60898700D01*
X129457047Y-60898700D02*
X129361809Y-60946319D01*
X129361809Y-60946319D02*
X129171333Y-60946319D01*
X129171333Y-60946319D02*
X129076095Y-60898700D01*
X130409428Y-60279652D02*
X130409428Y-60946319D01*
X129980857Y-60279652D02*
X129980857Y-60803461D01*
X129980857Y-60803461D02*
X130028476Y-60898700D01*
X130028476Y-60898700D02*
X130123714Y-60946319D01*
X130123714Y-60946319D02*
X130266571Y-60946319D01*
X130266571Y-60946319D02*
X130361809Y-60898700D01*
X130361809Y-60898700D02*
X130409428Y-60851080D01*
X130885619Y-60946319D02*
X130885619Y-60279652D01*
X130885619Y-60374890D02*
X130933238Y-60327271D01*
X130933238Y-60327271D02*
X131028476Y-60279652D01*
X131028476Y-60279652D02*
X131171333Y-60279652D01*
X131171333Y-60279652D02*
X131266571Y-60327271D01*
X131266571Y-60327271D02*
X131314190Y-60422509D01*
X131314190Y-60422509D02*
X131314190Y-60946319D01*
X131314190Y-60422509D02*
X131361809Y-60327271D01*
X131361809Y-60327271D02*
X131457047Y-60279652D01*
X131457047Y-60279652D02*
X131599904Y-60279652D01*
X131599904Y-60279652D02*
X131695143Y-60327271D01*
X131695143Y-60327271D02*
X131742762Y-60422509D01*
X131742762Y-60422509D02*
X131742762Y-60946319D01*
X132218952Y-60279652D02*
X132218952Y-61279652D01*
X132218952Y-60327271D02*
X132314190Y-60279652D01*
X132314190Y-60279652D02*
X132504666Y-60279652D01*
X132504666Y-60279652D02*
X132599904Y-60327271D01*
X132599904Y-60327271D02*
X132647523Y-60374890D01*
X132647523Y-60374890D02*
X132695142Y-60470128D01*
X132695142Y-60470128D02*
X132695142Y-60755842D01*
X132695142Y-60755842D02*
X132647523Y-60851080D01*
X132647523Y-60851080D02*
X132599904Y-60898700D01*
X132599904Y-60898700D02*
X132504666Y-60946319D01*
X132504666Y-60946319D02*
X132314190Y-60946319D01*
X132314190Y-60946319D02*
X132218952Y-60898700D01*
X133647523Y-60946319D02*
X133076095Y-60946319D01*
X133361809Y-60946319D02*
X133361809Y-59946319D01*
X133361809Y-59946319D02*
X133266571Y-60089176D01*
X133266571Y-60089176D02*
X133171333Y-60184414D01*
X133171333Y-60184414D02*
X133076095Y-60232033D01*
X146856095Y-60335152D02*
X146856095Y-61335152D01*
X146856095Y-60382771D02*
X146951333Y-60335152D01*
X146951333Y-60335152D02*
X147141809Y-60335152D01*
X147141809Y-60335152D02*
X147237047Y-60382771D01*
X147237047Y-60382771D02*
X147284666Y-60430390D01*
X147284666Y-60430390D02*
X147332285Y-60525628D01*
X147332285Y-60525628D02*
X147332285Y-60811342D01*
X147332285Y-60811342D02*
X147284666Y-60906580D01*
X147284666Y-60906580D02*
X147237047Y-60954200D01*
X147237047Y-60954200D02*
X147141809Y-61001819D01*
X147141809Y-61001819D02*
X146951333Y-61001819D01*
X146951333Y-61001819D02*
X146856095Y-60954200D01*
X148189428Y-60335152D02*
X148189428Y-61001819D01*
X147760857Y-60335152D02*
X147760857Y-60858961D01*
X147760857Y-60858961D02*
X147808476Y-60954200D01*
X147808476Y-60954200D02*
X147903714Y-61001819D01*
X147903714Y-61001819D02*
X148046571Y-61001819D01*
X148046571Y-61001819D02*
X148141809Y-60954200D01*
X148141809Y-60954200D02*
X148189428Y-60906580D01*
X148665619Y-61001819D02*
X148665619Y-60335152D01*
X148665619Y-60430390D02*
X148713238Y-60382771D01*
X148713238Y-60382771D02*
X148808476Y-60335152D01*
X148808476Y-60335152D02*
X148951333Y-60335152D01*
X148951333Y-60335152D02*
X149046571Y-60382771D01*
X149046571Y-60382771D02*
X149094190Y-60478009D01*
X149094190Y-60478009D02*
X149094190Y-61001819D01*
X149094190Y-60478009D02*
X149141809Y-60382771D01*
X149141809Y-60382771D02*
X149237047Y-60335152D01*
X149237047Y-60335152D02*
X149379904Y-60335152D01*
X149379904Y-60335152D02*
X149475143Y-60382771D01*
X149475143Y-60382771D02*
X149522762Y-60478009D01*
X149522762Y-60478009D02*
X149522762Y-61001819D01*
X149998952Y-60335152D02*
X149998952Y-61335152D01*
X149998952Y-60382771D02*
X150094190Y-60335152D01*
X150094190Y-60335152D02*
X150284666Y-60335152D01*
X150284666Y-60335152D02*
X150379904Y-60382771D01*
X150379904Y-60382771D02*
X150427523Y-60430390D01*
X150427523Y-60430390D02*
X150475142Y-60525628D01*
X150475142Y-60525628D02*
X150475142Y-60811342D01*
X150475142Y-60811342D02*
X150427523Y-60906580D01*
X150427523Y-60906580D02*
X150379904Y-60954200D01*
X150379904Y-60954200D02*
X150284666Y-61001819D01*
X150284666Y-61001819D02*
X150094190Y-61001819D01*
X150094190Y-61001819D02*
X149998952Y-60954200D01*
X150808476Y-60001819D02*
X151427523Y-60001819D01*
X151427523Y-60001819D02*
X151094190Y-60382771D01*
X151094190Y-60382771D02*
X151237047Y-60382771D01*
X151237047Y-60382771D02*
X151332285Y-60430390D01*
X151332285Y-60430390D02*
X151379904Y-60478009D01*
X151379904Y-60478009D02*
X151427523Y-60573247D01*
X151427523Y-60573247D02*
X151427523Y-60811342D01*
X151427523Y-60811342D02*
X151379904Y-60906580D01*
X151379904Y-60906580D02*
X151332285Y-60954200D01*
X151332285Y-60954200D02*
X151237047Y-61001819D01*
X151237047Y-61001819D02*
X150951333Y-61001819D01*
X150951333Y-61001819D02*
X150856095Y-60954200D01*
X150856095Y-60954200D02*
X150808476Y-60906580D01*
X102409762Y-118520819D02*
X102600238Y-118520819D01*
X102600238Y-118520819D02*
X102695476Y-118568438D01*
X102695476Y-118568438D02*
X102790714Y-118663676D01*
X102790714Y-118663676D02*
X102838333Y-118854152D01*
X102838333Y-118854152D02*
X102838333Y-119187485D01*
X102838333Y-119187485D02*
X102790714Y-119377961D01*
X102790714Y-119377961D02*
X102695476Y-119473200D01*
X102695476Y-119473200D02*
X102600238Y-119520819D01*
X102600238Y-119520819D02*
X102409762Y-119520819D01*
X102409762Y-119520819D02*
X102314524Y-119473200D01*
X102314524Y-119473200D02*
X102219286Y-119377961D01*
X102219286Y-119377961D02*
X102171667Y-119187485D01*
X102171667Y-119187485D02*
X102171667Y-118854152D01*
X102171667Y-118854152D02*
X102219286Y-118663676D01*
X102219286Y-118663676D02*
X102314524Y-118568438D01*
X102314524Y-118568438D02*
X102409762Y-118520819D01*
X103266905Y-119520819D02*
X103266905Y-118520819D01*
X103266905Y-118520819D02*
X103838333Y-119520819D01*
X103838333Y-119520819D02*
X103838333Y-118520819D01*
X104838333Y-119520819D02*
X104266905Y-119520819D01*
X104552619Y-119520819D02*
X104552619Y-118520819D01*
X104552619Y-118520819D02*
X104457381Y-118663676D01*
X104457381Y-118663676D02*
X104362143Y-118758914D01*
X104362143Y-118758914D02*
X104266905Y-118806533D01*
X137966095Y-60335152D02*
X137966095Y-61335152D01*
X137966095Y-60382771D02*
X138061333Y-60335152D01*
X138061333Y-60335152D02*
X138251809Y-60335152D01*
X138251809Y-60335152D02*
X138347047Y-60382771D01*
X138347047Y-60382771D02*
X138394666Y-60430390D01*
X138394666Y-60430390D02*
X138442285Y-60525628D01*
X138442285Y-60525628D02*
X138442285Y-60811342D01*
X138442285Y-60811342D02*
X138394666Y-60906580D01*
X138394666Y-60906580D02*
X138347047Y-60954200D01*
X138347047Y-60954200D02*
X138251809Y-61001819D01*
X138251809Y-61001819D02*
X138061333Y-61001819D01*
X138061333Y-61001819D02*
X137966095Y-60954200D01*
X139299428Y-60335152D02*
X139299428Y-61001819D01*
X138870857Y-60335152D02*
X138870857Y-60858961D01*
X138870857Y-60858961D02*
X138918476Y-60954200D01*
X138918476Y-60954200D02*
X139013714Y-61001819D01*
X139013714Y-61001819D02*
X139156571Y-61001819D01*
X139156571Y-61001819D02*
X139251809Y-60954200D01*
X139251809Y-60954200D02*
X139299428Y-60906580D01*
X139775619Y-61001819D02*
X139775619Y-60335152D01*
X139775619Y-60430390D02*
X139823238Y-60382771D01*
X139823238Y-60382771D02*
X139918476Y-60335152D01*
X139918476Y-60335152D02*
X140061333Y-60335152D01*
X140061333Y-60335152D02*
X140156571Y-60382771D01*
X140156571Y-60382771D02*
X140204190Y-60478009D01*
X140204190Y-60478009D02*
X140204190Y-61001819D01*
X140204190Y-60478009D02*
X140251809Y-60382771D01*
X140251809Y-60382771D02*
X140347047Y-60335152D01*
X140347047Y-60335152D02*
X140489904Y-60335152D01*
X140489904Y-60335152D02*
X140585143Y-60382771D01*
X140585143Y-60382771D02*
X140632762Y-60478009D01*
X140632762Y-60478009D02*
X140632762Y-61001819D01*
X141108952Y-60335152D02*
X141108952Y-61335152D01*
X141108952Y-60382771D02*
X141204190Y-60335152D01*
X141204190Y-60335152D02*
X141394666Y-60335152D01*
X141394666Y-60335152D02*
X141489904Y-60382771D01*
X141489904Y-60382771D02*
X141537523Y-60430390D01*
X141537523Y-60430390D02*
X141585142Y-60525628D01*
X141585142Y-60525628D02*
X141585142Y-60811342D01*
X141585142Y-60811342D02*
X141537523Y-60906580D01*
X141537523Y-60906580D02*
X141489904Y-60954200D01*
X141489904Y-60954200D02*
X141394666Y-61001819D01*
X141394666Y-61001819D02*
X141204190Y-61001819D01*
X141204190Y-61001819D02*
X141108952Y-60954200D01*
X141966095Y-60097057D02*
X142013714Y-60049438D01*
X142013714Y-60049438D02*
X142108952Y-60001819D01*
X142108952Y-60001819D02*
X142347047Y-60001819D01*
X142347047Y-60001819D02*
X142442285Y-60049438D01*
X142442285Y-60049438D02*
X142489904Y-60097057D01*
X142489904Y-60097057D02*
X142537523Y-60192295D01*
X142537523Y-60192295D02*
X142537523Y-60287533D01*
X142537523Y-60287533D02*
X142489904Y-60430390D01*
X142489904Y-60430390D02*
X141918476Y-61001819D01*
X141918476Y-61001819D02*
X142537523Y-61001819D01*
X128773957Y-130429218D02*
X128273957Y-129563192D01*
X128273957Y-129563192D02*
X128603871Y-129372716D01*
X128603871Y-129372716D02*
X128710160Y-129366336D01*
X128710160Y-129366336D02*
X128775208Y-129383766D01*
X128775208Y-129383766D02*
X128864067Y-129442435D01*
X128864067Y-129442435D02*
X128935495Y-129566153D01*
X128935495Y-129566153D02*
X128941875Y-129672441D01*
X128941875Y-129672441D02*
X128924445Y-129737490D01*
X128924445Y-129737490D02*
X128865776Y-129826348D01*
X128865776Y-129826348D02*
X128535862Y-130016825D01*
X129677803Y-129137582D02*
X130011136Y-129714932D01*
X129306649Y-129351867D02*
X129568554Y-129805500D01*
X129568554Y-129805500D02*
X129657412Y-129864169D01*
X129657412Y-129864169D02*
X129763700Y-129857789D01*
X129763700Y-129857789D02*
X129887418Y-129786361D01*
X129887418Y-129786361D02*
X129946087Y-129697502D01*
X129946087Y-129697502D02*
X129963517Y-129632453D01*
X130423529Y-129476837D02*
X130090196Y-128899486D01*
X130137815Y-128981965D02*
X130155245Y-128916916D01*
X130155245Y-128916916D02*
X130213914Y-128828058D01*
X130213914Y-128828058D02*
X130337632Y-128756629D01*
X130337632Y-128756629D02*
X130443920Y-128750250D01*
X130443920Y-128750250D02*
X130532778Y-128808919D01*
X130532778Y-128808919D02*
X130794683Y-129262551D01*
X130532778Y-128808919D02*
X130526399Y-128702631D01*
X130526399Y-128702631D02*
X130585068Y-128613772D01*
X130585068Y-128613772D02*
X130708786Y-128542344D01*
X130708786Y-128542344D02*
X130815074Y-128535964D01*
X130815074Y-128535964D02*
X130903932Y-128594633D01*
X130903932Y-128594633D02*
X131165837Y-129048265D01*
X131244896Y-128232820D02*
X131744896Y-129098845D01*
X131268706Y-128274059D02*
X131327375Y-128185201D01*
X131327375Y-128185201D02*
X131492332Y-128089963D01*
X131492332Y-128089963D02*
X131598620Y-128083583D01*
X131598620Y-128083583D02*
X131663669Y-128101013D01*
X131663669Y-128101013D02*
X131752527Y-128159682D01*
X131752527Y-128159682D02*
X131895385Y-128407118D01*
X131895385Y-128407118D02*
X131901764Y-128513406D01*
X131901764Y-128513406D02*
X131884335Y-128578455D01*
X131884335Y-128578455D02*
X131825665Y-128667313D01*
X131825665Y-128667313D02*
X131660708Y-128762551D01*
X131660708Y-128762551D02*
X131554420Y-128768931D01*
X132296728Y-128340359D02*
X132444255Y-128310170D01*
X132444255Y-128310170D02*
X132650452Y-128191123D01*
X132650452Y-128191123D02*
X132709121Y-128102264D01*
X132709121Y-128102264D02*
X132726550Y-128037215D01*
X132726550Y-128037215D02*
X132720171Y-127930927D01*
X132720171Y-127930927D02*
X132672552Y-127848449D01*
X132672552Y-127848449D02*
X132583693Y-127789780D01*
X132583693Y-127789780D02*
X132518644Y-127772350D01*
X132518644Y-127772350D02*
X132412356Y-127778730D01*
X132412356Y-127778730D02*
X132223590Y-127832728D01*
X132223590Y-127832728D02*
X132117301Y-127839108D01*
X132117301Y-127839108D02*
X132052253Y-127821678D01*
X132052253Y-127821678D02*
X131963394Y-127763009D01*
X131963394Y-127763009D02*
X131915775Y-127680531D01*
X131915775Y-127680531D02*
X131909396Y-127574242D01*
X131909396Y-127574242D02*
X131926825Y-127509194D01*
X131926825Y-127509194D02*
X131985494Y-127420335D01*
X131985494Y-127420335D02*
X132191691Y-127301288D01*
X132191691Y-127301288D02*
X132339218Y-127271098D01*
X132729511Y-127375677D02*
X133059426Y-127185201D01*
X132686563Y-127015573D02*
X133115134Y-127757881D01*
X133115134Y-127757881D02*
X133203992Y-127816550D01*
X133203992Y-127816550D02*
X133310281Y-127810170D01*
X133310281Y-127810170D02*
X133392759Y-127762551D01*
X134052588Y-127381599D02*
X133790684Y-126927966D01*
X133790684Y-126927966D02*
X133701825Y-126869297D01*
X133701825Y-126869297D02*
X133595537Y-126875677D01*
X133595537Y-126875677D02*
X133430580Y-126970915D01*
X133430580Y-126970915D02*
X133371911Y-127059773D01*
X134028779Y-127340359D02*
X133970110Y-127429218D01*
X133970110Y-127429218D02*
X133763913Y-127548265D01*
X133763913Y-127548265D02*
X133657625Y-127554645D01*
X133657625Y-127554645D02*
X133568767Y-127495976D01*
X133568767Y-127495976D02*
X133521148Y-127413497D01*
X133521148Y-127413497D02*
X133514768Y-127307209D01*
X133514768Y-127307209D02*
X133573437Y-127218351D01*
X133573437Y-127218351D02*
X133779634Y-127099303D01*
X133779634Y-127099303D02*
X133838303Y-127010445D01*
X134007930Y-126637582D02*
X134337845Y-126447105D01*
X133964982Y-126277478D02*
X134393553Y-127019785D01*
X134393553Y-127019785D02*
X134482411Y-127078454D01*
X134482411Y-127078454D02*
X134588699Y-127072075D01*
X134588699Y-127072075D02*
X134671178Y-127024456D01*
X134997674Y-126066153D02*
X135331007Y-126643503D01*
X134626520Y-126280438D02*
X134888425Y-126734071D01*
X134888425Y-126734071D02*
X134977283Y-126792740D01*
X134977283Y-126792740D02*
X135083571Y-126786360D01*
X135083571Y-126786360D02*
X135207289Y-126714932D01*
X135207289Y-126714932D02*
X135265958Y-126626073D01*
X135265958Y-126626073D02*
X135283388Y-126561024D01*
X135678352Y-126387978D02*
X135784640Y-126381598D01*
X135784640Y-126381598D02*
X135949597Y-126286360D01*
X135949597Y-126286360D02*
X136008266Y-126197502D01*
X136008266Y-126197502D02*
X136001886Y-126091214D01*
X136001886Y-126091214D02*
X135978077Y-126049974D01*
X135978077Y-126049974D02*
X135889218Y-125991305D01*
X135889218Y-125991305D02*
X135782930Y-125997685D01*
X135782930Y-125997685D02*
X135659212Y-126069114D01*
X135659212Y-126069114D02*
X135552924Y-126075493D01*
X135552924Y-126075493D02*
X135464066Y-126016824D01*
X135464066Y-126016824D02*
X135440256Y-125975585D01*
X135440256Y-125975585D02*
X135433877Y-125869297D01*
X135433877Y-125869297D02*
X135492546Y-125780438D01*
X135492546Y-125780438D02*
X135616264Y-125709010D01*
X135616264Y-125709010D02*
X135722552Y-125702630D01*
X135950849Y-125240908D02*
X135968278Y-125175860D01*
X135968278Y-125175860D02*
X136026947Y-125087001D01*
X136026947Y-125087001D02*
X136233144Y-124967954D01*
X136233144Y-124967954D02*
X136339432Y-124961574D01*
X136339432Y-124961574D02*
X136404481Y-124979004D01*
X136404481Y-124979004D02*
X136493339Y-125037673D01*
X136493339Y-125037673D02*
X136540958Y-125120151D01*
X136540958Y-125120151D02*
X136571148Y-125267679D01*
X136571148Y-125267679D02*
X136361990Y-126048265D01*
X136361990Y-126048265D02*
X136898101Y-125738741D01*
X140203957Y-130429218D02*
X139703957Y-129563192D01*
X139703957Y-129563192D02*
X140033871Y-129372716D01*
X140033871Y-129372716D02*
X140140160Y-129366336D01*
X140140160Y-129366336D02*
X140205208Y-129383766D01*
X140205208Y-129383766D02*
X140294067Y-129442435D01*
X140294067Y-129442435D02*
X140365495Y-129566153D01*
X140365495Y-129566153D02*
X140371875Y-129672441D01*
X140371875Y-129672441D02*
X140354445Y-129737490D01*
X140354445Y-129737490D02*
X140295776Y-129826348D01*
X140295776Y-129826348D02*
X139965862Y-130016825D01*
X141107803Y-129137582D02*
X141441136Y-129714932D01*
X140736649Y-129351867D02*
X140998554Y-129805500D01*
X140998554Y-129805500D02*
X141087412Y-129864169D01*
X141087412Y-129864169D02*
X141193700Y-129857789D01*
X141193700Y-129857789D02*
X141317418Y-129786361D01*
X141317418Y-129786361D02*
X141376087Y-129697502D01*
X141376087Y-129697502D02*
X141393517Y-129632453D01*
X141853529Y-129476837D02*
X141520196Y-128899486D01*
X141567815Y-128981965D02*
X141585245Y-128916916D01*
X141585245Y-128916916D02*
X141643914Y-128828058D01*
X141643914Y-128828058D02*
X141767632Y-128756629D01*
X141767632Y-128756629D02*
X141873920Y-128750250D01*
X141873920Y-128750250D02*
X141962778Y-128808919D01*
X141962778Y-128808919D02*
X142224683Y-129262551D01*
X141962778Y-128808919D02*
X141956399Y-128702631D01*
X141956399Y-128702631D02*
X142015068Y-128613772D01*
X142015068Y-128613772D02*
X142138786Y-128542344D01*
X142138786Y-128542344D02*
X142245074Y-128535964D01*
X142245074Y-128535964D02*
X142333932Y-128594633D01*
X142333932Y-128594633D02*
X142595837Y-129048265D01*
X142674896Y-128232820D02*
X143174896Y-129098845D01*
X142698706Y-128274059D02*
X142757375Y-128185201D01*
X142757375Y-128185201D02*
X142922332Y-128089963D01*
X142922332Y-128089963D02*
X143028620Y-128083583D01*
X143028620Y-128083583D02*
X143093669Y-128101013D01*
X143093669Y-128101013D02*
X143182527Y-128159682D01*
X143182527Y-128159682D02*
X143325385Y-128407118D01*
X143325385Y-128407118D02*
X143331764Y-128513406D01*
X143331764Y-128513406D02*
X143314335Y-128578455D01*
X143314335Y-128578455D02*
X143255665Y-128667313D01*
X143255665Y-128667313D02*
X143090708Y-128762551D01*
X143090708Y-128762551D02*
X142984420Y-128768931D01*
X143726728Y-128340359D02*
X143874255Y-128310170D01*
X143874255Y-128310170D02*
X144080452Y-128191123D01*
X144080452Y-128191123D02*
X144139121Y-128102264D01*
X144139121Y-128102264D02*
X144156550Y-128037215D01*
X144156550Y-128037215D02*
X144150171Y-127930927D01*
X144150171Y-127930927D02*
X144102552Y-127848449D01*
X144102552Y-127848449D02*
X144013693Y-127789780D01*
X144013693Y-127789780D02*
X143948644Y-127772350D01*
X143948644Y-127772350D02*
X143842356Y-127778730D01*
X143842356Y-127778730D02*
X143653590Y-127832728D01*
X143653590Y-127832728D02*
X143547301Y-127839108D01*
X143547301Y-127839108D02*
X143482253Y-127821678D01*
X143482253Y-127821678D02*
X143393394Y-127763009D01*
X143393394Y-127763009D02*
X143345775Y-127680531D01*
X143345775Y-127680531D02*
X143339396Y-127574242D01*
X143339396Y-127574242D02*
X143356825Y-127509194D01*
X143356825Y-127509194D02*
X143415494Y-127420335D01*
X143415494Y-127420335D02*
X143621691Y-127301288D01*
X143621691Y-127301288D02*
X143769218Y-127271098D01*
X144159511Y-127375677D02*
X144489426Y-127185201D01*
X144116563Y-127015573D02*
X144545134Y-127757881D01*
X144545134Y-127757881D02*
X144633992Y-127816550D01*
X144633992Y-127816550D02*
X144740281Y-127810170D01*
X144740281Y-127810170D02*
X144822759Y-127762551D01*
X145482588Y-127381599D02*
X145220684Y-126927966D01*
X145220684Y-126927966D02*
X145131825Y-126869297D01*
X145131825Y-126869297D02*
X145025537Y-126875677D01*
X145025537Y-126875677D02*
X144860580Y-126970915D01*
X144860580Y-126970915D02*
X144801911Y-127059773D01*
X145458779Y-127340359D02*
X145400110Y-127429218D01*
X145400110Y-127429218D02*
X145193913Y-127548265D01*
X145193913Y-127548265D02*
X145087625Y-127554645D01*
X145087625Y-127554645D02*
X144998767Y-127495976D01*
X144998767Y-127495976D02*
X144951148Y-127413497D01*
X144951148Y-127413497D02*
X144944768Y-127307209D01*
X144944768Y-127307209D02*
X145003437Y-127218351D01*
X145003437Y-127218351D02*
X145209634Y-127099303D01*
X145209634Y-127099303D02*
X145268303Y-127010445D01*
X145437930Y-126637582D02*
X145767845Y-126447105D01*
X145394982Y-126277478D02*
X145823553Y-127019785D01*
X145823553Y-127019785D02*
X145912411Y-127078454D01*
X145912411Y-127078454D02*
X146018699Y-127072075D01*
X146018699Y-127072075D02*
X146101178Y-127024456D01*
X146427674Y-126066153D02*
X146761007Y-126643503D01*
X146056520Y-126280438D02*
X146318425Y-126734071D01*
X146318425Y-126734071D02*
X146407283Y-126792740D01*
X146407283Y-126792740D02*
X146513571Y-126786360D01*
X146513571Y-126786360D02*
X146637289Y-126714932D01*
X146637289Y-126714932D02*
X146695958Y-126626073D01*
X146695958Y-126626073D02*
X146713388Y-126561024D01*
X147108352Y-126387978D02*
X147214640Y-126381598D01*
X147214640Y-126381598D02*
X147379597Y-126286360D01*
X147379597Y-126286360D02*
X147438266Y-126197502D01*
X147438266Y-126197502D02*
X147431886Y-126091214D01*
X147431886Y-126091214D02*
X147408077Y-126049974D01*
X147408077Y-126049974D02*
X147319218Y-125991305D01*
X147319218Y-125991305D02*
X147212930Y-125997685D01*
X147212930Y-125997685D02*
X147089212Y-126069114D01*
X147089212Y-126069114D02*
X146982924Y-126075493D01*
X146982924Y-126075493D02*
X146894066Y-126016824D01*
X146894066Y-126016824D02*
X146870256Y-125975585D01*
X146870256Y-125975585D02*
X146863877Y-125869297D01*
X146863877Y-125869297D02*
X146922546Y-125780438D01*
X146922546Y-125780438D02*
X147046264Y-125709010D01*
X147046264Y-125709010D02*
X147152552Y-125702630D01*
X147291990Y-125182239D02*
X147828101Y-124872716D01*
X147828101Y-124872716D02*
X147729902Y-125369297D01*
X147729902Y-125369297D02*
X147853620Y-125297868D01*
X147853620Y-125297868D02*
X147959908Y-125291488D01*
X147959908Y-125291488D02*
X148024957Y-125308918D01*
X148024957Y-125308918D02*
X148113815Y-125367587D01*
X148113815Y-125367587D02*
X148232863Y-125573784D01*
X148232863Y-125573784D02*
X148239243Y-125680072D01*
X148239243Y-125680072D02*
X148221813Y-125745121D01*
X148221813Y-125745121D02*
X148163144Y-125833979D01*
X148163144Y-125833979D02*
X147915708Y-125976836D01*
X147915708Y-125976836D02*
X147809420Y-125983216D01*
X147809420Y-125983216D02*
X147744371Y-125965786D01*
X117089959Y-130429218D02*
X116589959Y-129563192D01*
X116589959Y-129563192D02*
X116919873Y-129372716D01*
X116919873Y-129372716D02*
X117026162Y-129366336D01*
X117026162Y-129366336D02*
X117091210Y-129383766D01*
X117091210Y-129383766D02*
X117180069Y-129442435D01*
X117180069Y-129442435D02*
X117251497Y-129566153D01*
X117251497Y-129566153D02*
X117257877Y-129672441D01*
X117257877Y-129672441D02*
X117240447Y-129737490D01*
X117240447Y-129737490D02*
X117181778Y-129826348D01*
X117181778Y-129826348D02*
X116851864Y-130016825D01*
X117993805Y-129137582D02*
X118327138Y-129714932D01*
X117622651Y-129351867D02*
X117884556Y-129805500D01*
X117884556Y-129805500D02*
X117973414Y-129864169D01*
X117973414Y-129864169D02*
X118079702Y-129857789D01*
X118079702Y-129857789D02*
X118203420Y-129786361D01*
X118203420Y-129786361D02*
X118262089Y-129697502D01*
X118262089Y-129697502D02*
X118279519Y-129632453D01*
X118739531Y-129476837D02*
X118406198Y-128899486D01*
X118453817Y-128981965D02*
X118471247Y-128916916D01*
X118471247Y-128916916D02*
X118529916Y-128828058D01*
X118529916Y-128828058D02*
X118653634Y-128756629D01*
X118653634Y-128756629D02*
X118759922Y-128750250D01*
X118759922Y-128750250D02*
X118848780Y-128808919D01*
X118848780Y-128808919D02*
X119110685Y-129262551D01*
X118848780Y-128808919D02*
X118842401Y-128702631D01*
X118842401Y-128702631D02*
X118901070Y-128613772D01*
X118901070Y-128613772D02*
X119024788Y-128542344D01*
X119024788Y-128542344D02*
X119131076Y-128535964D01*
X119131076Y-128535964D02*
X119219934Y-128594633D01*
X119219934Y-128594633D02*
X119481839Y-129048265D01*
X119560898Y-128232820D02*
X120060898Y-129098845D01*
X119584708Y-128274059D02*
X119643377Y-128185201D01*
X119643377Y-128185201D02*
X119808334Y-128089963D01*
X119808334Y-128089963D02*
X119914622Y-128083583D01*
X119914622Y-128083583D02*
X119979671Y-128101013D01*
X119979671Y-128101013D02*
X120068529Y-128159682D01*
X120068529Y-128159682D02*
X120211387Y-128407118D01*
X120211387Y-128407118D02*
X120217766Y-128513406D01*
X120217766Y-128513406D02*
X120200337Y-128578455D01*
X120200337Y-128578455D02*
X120141667Y-128667313D01*
X120141667Y-128667313D02*
X119976710Y-128762551D01*
X119976710Y-128762551D02*
X119870422Y-128768931D01*
X120612730Y-128340359D02*
X120760257Y-128310170D01*
X120760257Y-128310170D02*
X120966454Y-128191123D01*
X120966454Y-128191123D02*
X121025123Y-128102264D01*
X121025123Y-128102264D02*
X121042552Y-128037215D01*
X121042552Y-128037215D02*
X121036173Y-127930927D01*
X121036173Y-127930927D02*
X120988554Y-127848449D01*
X120988554Y-127848449D02*
X120899695Y-127789780D01*
X120899695Y-127789780D02*
X120834646Y-127772350D01*
X120834646Y-127772350D02*
X120728358Y-127778730D01*
X120728358Y-127778730D02*
X120539592Y-127832728D01*
X120539592Y-127832728D02*
X120433303Y-127839108D01*
X120433303Y-127839108D02*
X120368255Y-127821678D01*
X120368255Y-127821678D02*
X120279396Y-127763009D01*
X120279396Y-127763009D02*
X120231777Y-127680531D01*
X120231777Y-127680531D02*
X120225398Y-127574242D01*
X120225398Y-127574242D02*
X120242827Y-127509194D01*
X120242827Y-127509194D02*
X120301496Y-127420335D01*
X120301496Y-127420335D02*
X120507693Y-127301288D01*
X120507693Y-127301288D02*
X120655220Y-127271098D01*
X121045513Y-127375677D02*
X121375428Y-127185201D01*
X121002565Y-127015573D02*
X121431136Y-127757881D01*
X121431136Y-127757881D02*
X121519994Y-127816550D01*
X121519994Y-127816550D02*
X121626283Y-127810170D01*
X121626283Y-127810170D02*
X121708761Y-127762551D01*
X122368590Y-127381599D02*
X122106686Y-126927966D01*
X122106686Y-126927966D02*
X122017827Y-126869297D01*
X122017827Y-126869297D02*
X121911539Y-126875677D01*
X121911539Y-126875677D02*
X121746582Y-126970915D01*
X121746582Y-126970915D02*
X121687913Y-127059773D01*
X122344781Y-127340359D02*
X122286112Y-127429218D01*
X122286112Y-127429218D02*
X122079915Y-127548265D01*
X122079915Y-127548265D02*
X121973627Y-127554645D01*
X121973627Y-127554645D02*
X121884769Y-127495976D01*
X121884769Y-127495976D02*
X121837150Y-127413497D01*
X121837150Y-127413497D02*
X121830770Y-127307209D01*
X121830770Y-127307209D02*
X121889439Y-127218351D01*
X121889439Y-127218351D02*
X122095636Y-127099303D01*
X122095636Y-127099303D02*
X122154305Y-127010445D01*
X122323932Y-126637582D02*
X122653847Y-126447105D01*
X122280984Y-126277478D02*
X122709555Y-127019785D01*
X122709555Y-127019785D02*
X122798413Y-127078454D01*
X122798413Y-127078454D02*
X122904701Y-127072075D01*
X122904701Y-127072075D02*
X122987180Y-127024456D01*
X123313676Y-126066153D02*
X123647009Y-126643503D01*
X122942522Y-126280438D02*
X123204427Y-126734071D01*
X123204427Y-126734071D02*
X123293285Y-126792740D01*
X123293285Y-126792740D02*
X123399573Y-126786360D01*
X123399573Y-126786360D02*
X123523291Y-126714932D01*
X123523291Y-126714932D02*
X123581960Y-126626073D01*
X123581960Y-126626073D02*
X123599390Y-126561024D01*
X123994354Y-126387978D02*
X124100642Y-126381598D01*
X124100642Y-126381598D02*
X124265599Y-126286360D01*
X124265599Y-126286360D02*
X124324268Y-126197502D01*
X124324268Y-126197502D02*
X124317888Y-126091214D01*
X124317888Y-126091214D02*
X124294079Y-126049974D01*
X124294079Y-126049974D02*
X124205220Y-125991305D01*
X124205220Y-125991305D02*
X124098932Y-125997685D01*
X124098932Y-125997685D02*
X123975214Y-126069114D01*
X123975214Y-126069114D02*
X123868926Y-126075493D01*
X123868926Y-126075493D02*
X123780068Y-126016824D01*
X123780068Y-126016824D02*
X123756258Y-125975585D01*
X123756258Y-125975585D02*
X123749879Y-125869297D01*
X123749879Y-125869297D02*
X123808548Y-125780438D01*
X123808548Y-125780438D02*
X123932266Y-125709010D01*
X123932266Y-125709010D02*
X124038554Y-125702630D01*
X125214103Y-125738741D02*
X124719231Y-126024455D01*
X124966667Y-125881598D02*
X124466667Y-125015573D01*
X124466667Y-125015573D02*
X124455617Y-125186910D01*
X124455617Y-125186910D02*
X124420758Y-125317007D01*
X124420758Y-125317007D02*
X124362089Y-125405866D01*
X175385200Y-84196523D02*
X175432819Y-84053666D01*
X175432819Y-84053666D02*
X175432819Y-83815571D01*
X175432819Y-83815571D02*
X175385200Y-83720333D01*
X175385200Y-83720333D02*
X175337580Y-83672714D01*
X175337580Y-83672714D02*
X175242342Y-83625095D01*
X175242342Y-83625095D02*
X175147104Y-83625095D01*
X175147104Y-83625095D02*
X175051866Y-83672714D01*
X175051866Y-83672714D02*
X175004247Y-83720333D01*
X175004247Y-83720333D02*
X174956628Y-83815571D01*
X174956628Y-83815571D02*
X174909009Y-84006047D01*
X174909009Y-84006047D02*
X174861390Y-84101285D01*
X174861390Y-84101285D02*
X174813771Y-84148904D01*
X174813771Y-84148904D02*
X174718533Y-84196523D01*
X174718533Y-84196523D02*
X174623295Y-84196523D01*
X174623295Y-84196523D02*
X174528057Y-84148904D01*
X174528057Y-84148904D02*
X174480438Y-84101285D01*
X174480438Y-84101285D02*
X174432819Y-84006047D01*
X174432819Y-84006047D02*
X174432819Y-83767952D01*
X174432819Y-83767952D02*
X174480438Y-83625095D01*
X175385200Y-82815571D02*
X175432819Y-82910809D01*
X175432819Y-82910809D02*
X175432819Y-83101285D01*
X175432819Y-83101285D02*
X175385200Y-83196523D01*
X175385200Y-83196523D02*
X175289961Y-83244142D01*
X175289961Y-83244142D02*
X174909009Y-83244142D01*
X174909009Y-83244142D02*
X174813771Y-83196523D01*
X174813771Y-83196523D02*
X174766152Y-83101285D01*
X174766152Y-83101285D02*
X174766152Y-82910809D01*
X174766152Y-82910809D02*
X174813771Y-82815571D01*
X174813771Y-82815571D02*
X174909009Y-82767952D01*
X174909009Y-82767952D02*
X175004247Y-82767952D01*
X175004247Y-82767952D02*
X175099485Y-83244142D01*
X174766152Y-82339380D02*
X175432819Y-82339380D01*
X174861390Y-82339380D02*
X174813771Y-82291761D01*
X174813771Y-82291761D02*
X174766152Y-82196523D01*
X174766152Y-82196523D02*
X174766152Y-82053666D01*
X174766152Y-82053666D02*
X174813771Y-81958428D01*
X174813771Y-81958428D02*
X174909009Y-81910809D01*
X174909009Y-81910809D02*
X175432819Y-81910809D01*
X175385200Y-81482237D02*
X175432819Y-81386999D01*
X175432819Y-81386999D02*
X175432819Y-81196523D01*
X175432819Y-81196523D02*
X175385200Y-81101285D01*
X175385200Y-81101285D02*
X175289961Y-81053666D01*
X175289961Y-81053666D02*
X175242342Y-81053666D01*
X175242342Y-81053666D02*
X175147104Y-81101285D01*
X175147104Y-81101285D02*
X175099485Y-81196523D01*
X175099485Y-81196523D02*
X175099485Y-81339380D01*
X175099485Y-81339380D02*
X175051866Y-81434618D01*
X175051866Y-81434618D02*
X174956628Y-81482237D01*
X174956628Y-81482237D02*
X174909009Y-81482237D01*
X174909009Y-81482237D02*
X174813771Y-81434618D01*
X174813771Y-81434618D02*
X174766152Y-81339380D01*
X174766152Y-81339380D02*
X174766152Y-81196523D01*
X174766152Y-81196523D02*
X174813771Y-81101285D01*
X175432819Y-80482237D02*
X175385200Y-80577475D01*
X175385200Y-80577475D02*
X175337580Y-80625094D01*
X175337580Y-80625094D02*
X175242342Y-80672713D01*
X175242342Y-80672713D02*
X174956628Y-80672713D01*
X174956628Y-80672713D02*
X174861390Y-80625094D01*
X174861390Y-80625094D02*
X174813771Y-80577475D01*
X174813771Y-80577475D02*
X174766152Y-80482237D01*
X174766152Y-80482237D02*
X174766152Y-80339380D01*
X174766152Y-80339380D02*
X174813771Y-80244142D01*
X174813771Y-80244142D02*
X174861390Y-80196523D01*
X174861390Y-80196523D02*
X174956628Y-80148904D01*
X174956628Y-80148904D02*
X175242342Y-80148904D01*
X175242342Y-80148904D02*
X175337580Y-80196523D01*
X175337580Y-80196523D02*
X175385200Y-80244142D01*
X175385200Y-80244142D02*
X175432819Y-80339380D01*
X175432819Y-80339380D02*
X175432819Y-80482237D01*
X175432819Y-79720332D02*
X174766152Y-79720332D01*
X174956628Y-79720332D02*
X174861390Y-79672713D01*
X174861390Y-79672713D02*
X174813771Y-79625094D01*
X174813771Y-79625094D02*
X174766152Y-79529856D01*
X174766152Y-79529856D02*
X174766152Y-79434618D01*
X174528057Y-79148903D02*
X174480438Y-79101284D01*
X174480438Y-79101284D02*
X174432819Y-79006046D01*
X174432819Y-79006046D02*
X174432819Y-78767951D01*
X174432819Y-78767951D02*
X174480438Y-78672713D01*
X174480438Y-78672713D02*
X174528057Y-78625094D01*
X174528057Y-78625094D02*
X174623295Y-78577475D01*
X174623295Y-78577475D02*
X174718533Y-78577475D01*
X174718533Y-78577475D02*
X174861390Y-78625094D01*
X174861390Y-78625094D02*
X175432819Y-79196522D01*
X175432819Y-79196522D02*
X175432819Y-78577475D01*
X175413200Y-61249522D02*
X175460819Y-61106665D01*
X175460819Y-61106665D02*
X175460819Y-60868570D01*
X175460819Y-60868570D02*
X175413200Y-60773332D01*
X175413200Y-60773332D02*
X175365580Y-60725713D01*
X175365580Y-60725713D02*
X175270342Y-60678094D01*
X175270342Y-60678094D02*
X175175104Y-60678094D01*
X175175104Y-60678094D02*
X175079866Y-60725713D01*
X175079866Y-60725713D02*
X175032247Y-60773332D01*
X175032247Y-60773332D02*
X174984628Y-60868570D01*
X174984628Y-60868570D02*
X174937009Y-61059046D01*
X174937009Y-61059046D02*
X174889390Y-61154284D01*
X174889390Y-61154284D02*
X174841771Y-61201903D01*
X174841771Y-61201903D02*
X174746533Y-61249522D01*
X174746533Y-61249522D02*
X174651295Y-61249522D01*
X174651295Y-61249522D02*
X174556057Y-61201903D01*
X174556057Y-61201903D02*
X174508438Y-61154284D01*
X174508438Y-61154284D02*
X174460819Y-61059046D01*
X174460819Y-61059046D02*
X174460819Y-60820951D01*
X174460819Y-60820951D02*
X174508438Y-60678094D01*
X175413200Y-59868570D02*
X175460819Y-59963808D01*
X175460819Y-59963808D02*
X175460819Y-60154284D01*
X175460819Y-60154284D02*
X175413200Y-60249522D01*
X175413200Y-60249522D02*
X175317961Y-60297141D01*
X175317961Y-60297141D02*
X174937009Y-60297141D01*
X174937009Y-60297141D02*
X174841771Y-60249522D01*
X174841771Y-60249522D02*
X174794152Y-60154284D01*
X174794152Y-60154284D02*
X174794152Y-59963808D01*
X174794152Y-59963808D02*
X174841771Y-59868570D01*
X174841771Y-59868570D02*
X174937009Y-59820951D01*
X174937009Y-59820951D02*
X175032247Y-59820951D01*
X175032247Y-59820951D02*
X175127485Y-60297141D01*
X174794152Y-59392379D02*
X175460819Y-59392379D01*
X174889390Y-59392379D02*
X174841771Y-59344760D01*
X174841771Y-59344760D02*
X174794152Y-59249522D01*
X174794152Y-59249522D02*
X174794152Y-59106665D01*
X174794152Y-59106665D02*
X174841771Y-59011427D01*
X174841771Y-59011427D02*
X174937009Y-58963808D01*
X174937009Y-58963808D02*
X175460819Y-58963808D01*
X175413200Y-58535236D02*
X175460819Y-58439998D01*
X175460819Y-58439998D02*
X175460819Y-58249522D01*
X175460819Y-58249522D02*
X175413200Y-58154284D01*
X175413200Y-58154284D02*
X175317961Y-58106665D01*
X175317961Y-58106665D02*
X175270342Y-58106665D01*
X175270342Y-58106665D02*
X175175104Y-58154284D01*
X175175104Y-58154284D02*
X175127485Y-58249522D01*
X175127485Y-58249522D02*
X175127485Y-58392379D01*
X175127485Y-58392379D02*
X175079866Y-58487617D01*
X175079866Y-58487617D02*
X174984628Y-58535236D01*
X174984628Y-58535236D02*
X174937009Y-58535236D01*
X174937009Y-58535236D02*
X174841771Y-58487617D01*
X174841771Y-58487617D02*
X174794152Y-58392379D01*
X174794152Y-58392379D02*
X174794152Y-58249522D01*
X174794152Y-58249522D02*
X174841771Y-58154284D01*
X175460819Y-57535236D02*
X175413200Y-57630474D01*
X175413200Y-57630474D02*
X175365580Y-57678093D01*
X175365580Y-57678093D02*
X175270342Y-57725712D01*
X175270342Y-57725712D02*
X174984628Y-57725712D01*
X174984628Y-57725712D02*
X174889390Y-57678093D01*
X174889390Y-57678093D02*
X174841771Y-57630474D01*
X174841771Y-57630474D02*
X174794152Y-57535236D01*
X174794152Y-57535236D02*
X174794152Y-57392379D01*
X174794152Y-57392379D02*
X174841771Y-57297141D01*
X174841771Y-57297141D02*
X174889390Y-57249522D01*
X174889390Y-57249522D02*
X174984628Y-57201903D01*
X174984628Y-57201903D02*
X175270342Y-57201903D01*
X175270342Y-57201903D02*
X175365580Y-57249522D01*
X175365580Y-57249522D02*
X175413200Y-57297141D01*
X175413200Y-57297141D02*
X175460819Y-57392379D01*
X175460819Y-57392379D02*
X175460819Y-57535236D01*
X175460819Y-56773331D02*
X174794152Y-56773331D01*
X174984628Y-56773331D02*
X174889390Y-56725712D01*
X174889390Y-56725712D02*
X174841771Y-56678093D01*
X174841771Y-56678093D02*
X174794152Y-56582855D01*
X174794152Y-56582855D02*
X174794152Y-56487617D01*
X174794152Y-55725712D02*
X175460819Y-55725712D01*
X174413200Y-55963807D02*
X175127485Y-56201902D01*
X175127485Y-56201902D02*
X175127485Y-55582855D01*
X151633957Y-130556218D02*
X151133957Y-129690192D01*
X151133957Y-129690192D02*
X151463871Y-129499716D01*
X151463871Y-129499716D02*
X151570160Y-129493336D01*
X151570160Y-129493336D02*
X151635208Y-129510766D01*
X151635208Y-129510766D02*
X151724067Y-129569435D01*
X151724067Y-129569435D02*
X151795495Y-129693153D01*
X151795495Y-129693153D02*
X151801875Y-129799441D01*
X151801875Y-129799441D02*
X151784445Y-129864490D01*
X151784445Y-129864490D02*
X151725776Y-129953348D01*
X151725776Y-129953348D02*
X151395862Y-130143825D01*
X152537803Y-129264582D02*
X152871136Y-129841932D01*
X152166649Y-129478867D02*
X152428554Y-129932500D01*
X152428554Y-129932500D02*
X152517412Y-129991169D01*
X152517412Y-129991169D02*
X152623700Y-129984789D01*
X152623700Y-129984789D02*
X152747418Y-129913361D01*
X152747418Y-129913361D02*
X152806087Y-129824502D01*
X152806087Y-129824502D02*
X152823517Y-129759453D01*
X153283529Y-129603837D02*
X152950196Y-129026486D01*
X152997815Y-129108965D02*
X153015245Y-129043916D01*
X153015245Y-129043916D02*
X153073914Y-128955058D01*
X153073914Y-128955058D02*
X153197632Y-128883629D01*
X153197632Y-128883629D02*
X153303920Y-128877250D01*
X153303920Y-128877250D02*
X153392778Y-128935919D01*
X153392778Y-128935919D02*
X153654683Y-129389551D01*
X153392778Y-128935919D02*
X153386399Y-128829631D01*
X153386399Y-128829631D02*
X153445068Y-128740772D01*
X153445068Y-128740772D02*
X153568786Y-128669344D01*
X153568786Y-128669344D02*
X153675074Y-128662964D01*
X153675074Y-128662964D02*
X153763932Y-128721633D01*
X153763932Y-128721633D02*
X154025837Y-129175265D01*
X154104896Y-128359820D02*
X154604896Y-129225845D01*
X154128706Y-128401059D02*
X154187375Y-128312201D01*
X154187375Y-128312201D02*
X154352332Y-128216963D01*
X154352332Y-128216963D02*
X154458620Y-128210583D01*
X154458620Y-128210583D02*
X154523669Y-128228013D01*
X154523669Y-128228013D02*
X154612527Y-128286682D01*
X154612527Y-128286682D02*
X154755385Y-128534118D01*
X154755385Y-128534118D02*
X154761764Y-128640406D01*
X154761764Y-128640406D02*
X154744335Y-128705455D01*
X154744335Y-128705455D02*
X154685665Y-128794313D01*
X154685665Y-128794313D02*
X154520708Y-128889551D01*
X154520708Y-128889551D02*
X154414420Y-128895931D01*
X155156728Y-128467359D02*
X155304255Y-128437170D01*
X155304255Y-128437170D02*
X155510452Y-128318123D01*
X155510452Y-128318123D02*
X155569121Y-128229264D01*
X155569121Y-128229264D02*
X155586550Y-128164215D01*
X155586550Y-128164215D02*
X155580171Y-128057927D01*
X155580171Y-128057927D02*
X155532552Y-127975449D01*
X155532552Y-127975449D02*
X155443693Y-127916780D01*
X155443693Y-127916780D02*
X155378644Y-127899350D01*
X155378644Y-127899350D02*
X155272356Y-127905730D01*
X155272356Y-127905730D02*
X155083590Y-127959728D01*
X155083590Y-127959728D02*
X154977301Y-127966108D01*
X154977301Y-127966108D02*
X154912253Y-127948678D01*
X154912253Y-127948678D02*
X154823394Y-127890009D01*
X154823394Y-127890009D02*
X154775775Y-127807531D01*
X154775775Y-127807531D02*
X154769396Y-127701242D01*
X154769396Y-127701242D02*
X154786825Y-127636194D01*
X154786825Y-127636194D02*
X154845494Y-127547335D01*
X154845494Y-127547335D02*
X155051691Y-127428288D01*
X155051691Y-127428288D02*
X155199218Y-127398098D01*
X155589511Y-127502677D02*
X155919426Y-127312201D01*
X155546563Y-127142573D02*
X155975134Y-127884881D01*
X155975134Y-127884881D02*
X156063992Y-127943550D01*
X156063992Y-127943550D02*
X156170281Y-127937170D01*
X156170281Y-127937170D02*
X156252759Y-127889551D01*
X156912588Y-127508599D02*
X156650684Y-127054966D01*
X156650684Y-127054966D02*
X156561825Y-126996297D01*
X156561825Y-126996297D02*
X156455537Y-127002677D01*
X156455537Y-127002677D02*
X156290580Y-127097915D01*
X156290580Y-127097915D02*
X156231911Y-127186773D01*
X156888779Y-127467359D02*
X156830110Y-127556218D01*
X156830110Y-127556218D02*
X156623913Y-127675265D01*
X156623913Y-127675265D02*
X156517625Y-127681645D01*
X156517625Y-127681645D02*
X156428767Y-127622976D01*
X156428767Y-127622976D02*
X156381148Y-127540497D01*
X156381148Y-127540497D02*
X156374768Y-127434209D01*
X156374768Y-127434209D02*
X156433437Y-127345351D01*
X156433437Y-127345351D02*
X156639634Y-127226303D01*
X156639634Y-127226303D02*
X156698303Y-127137445D01*
X156867930Y-126764582D02*
X157197845Y-126574105D01*
X156824982Y-126404478D02*
X157253553Y-127146785D01*
X157253553Y-127146785D02*
X157342411Y-127205454D01*
X157342411Y-127205454D02*
X157448699Y-127199075D01*
X157448699Y-127199075D02*
X157531178Y-127151456D01*
X157857674Y-126193153D02*
X158191007Y-126770503D01*
X157486520Y-126407438D02*
X157748425Y-126861071D01*
X157748425Y-126861071D02*
X157837283Y-126919740D01*
X157837283Y-126919740D02*
X157943571Y-126913360D01*
X157943571Y-126913360D02*
X158067289Y-126841932D01*
X158067289Y-126841932D02*
X158125958Y-126753073D01*
X158125958Y-126753073D02*
X158143388Y-126688024D01*
X158538352Y-126514978D02*
X158644640Y-126508598D01*
X158644640Y-126508598D02*
X158809597Y-126413360D01*
X158809597Y-126413360D02*
X158868266Y-126324502D01*
X158868266Y-126324502D02*
X158861886Y-126218214D01*
X158861886Y-126218214D02*
X158838077Y-126176974D01*
X158838077Y-126176974D02*
X158749218Y-126118305D01*
X158749218Y-126118305D02*
X158642930Y-126124685D01*
X158642930Y-126124685D02*
X158519212Y-126196114D01*
X158519212Y-126196114D02*
X158412924Y-126202493D01*
X158412924Y-126202493D02*
X158324066Y-126143824D01*
X158324066Y-126143824D02*
X158300256Y-126102585D01*
X158300256Y-126102585D02*
X158293877Y-125996297D01*
X158293877Y-125996297D02*
X158352546Y-125907438D01*
X158352546Y-125907438D02*
X158476264Y-125836010D01*
X158476264Y-125836010D02*
X158582552Y-125829630D01*
X159342289Y-125336010D02*
X159675623Y-125913360D01*
X158945616Y-125125143D02*
X159096563Y-125862780D01*
X159096563Y-125862780D02*
X159632674Y-125553256D01*
X148685690Y-80297319D02*
X148876166Y-80297319D01*
X148876166Y-80297319D02*
X148971404Y-80344938D01*
X148971404Y-80344938D02*
X149066642Y-80440176D01*
X149066642Y-80440176D02*
X149114261Y-80630652D01*
X149114261Y-80630652D02*
X149114261Y-80963985D01*
X149114261Y-80963985D02*
X149066642Y-81154461D01*
X149066642Y-81154461D02*
X148971404Y-81249700D01*
X148971404Y-81249700D02*
X148876166Y-81297319D01*
X148876166Y-81297319D02*
X148685690Y-81297319D01*
X148685690Y-81297319D02*
X148590452Y-81249700D01*
X148590452Y-81249700D02*
X148495214Y-81154461D01*
X148495214Y-81154461D02*
X148447595Y-80963985D01*
X148447595Y-80963985D02*
X148447595Y-80630652D01*
X148447595Y-80630652D02*
X148495214Y-80440176D01*
X148495214Y-80440176D02*
X148590452Y-80344938D01*
X148590452Y-80344938D02*
X148685690Y-80297319D01*
X150019023Y-81297319D02*
X149542833Y-81297319D01*
X149542833Y-81297319D02*
X149542833Y-80297319D01*
X150352357Y-80773509D02*
X150685690Y-80773509D01*
X150828547Y-81297319D02*
X150352357Y-81297319D01*
X150352357Y-81297319D02*
X150352357Y-80297319D01*
X150352357Y-80297319D02*
X150828547Y-80297319D01*
X151257119Y-81297319D02*
X151257119Y-80297319D01*
X151257119Y-80297319D02*
X151495214Y-80297319D01*
X151495214Y-80297319D02*
X151638071Y-80344938D01*
X151638071Y-80344938D02*
X151733309Y-80440176D01*
X151733309Y-80440176D02*
X151780928Y-80535414D01*
X151780928Y-80535414D02*
X151828547Y-80725890D01*
X151828547Y-80725890D02*
X151828547Y-80868747D01*
X151828547Y-80868747D02*
X151780928Y-81059223D01*
X151780928Y-81059223D02*
X151733309Y-81154461D01*
X151733309Y-81154461D02*
X151638071Y-81249700D01*
X151638071Y-81249700D02*
X151495214Y-81297319D01*
X151495214Y-81297319D02*
X151257119Y-81297319D01*
X152019024Y-81392557D02*
X152780928Y-81392557D01*
X153019024Y-81297319D02*
X153019024Y-80297319D01*
X153447595Y-80392557D02*
X153495214Y-80344938D01*
X153495214Y-80344938D02*
X153590452Y-80297319D01*
X153590452Y-80297319D02*
X153828547Y-80297319D01*
X153828547Y-80297319D02*
X153923785Y-80344938D01*
X153923785Y-80344938D02*
X153971404Y-80392557D01*
X153971404Y-80392557D02*
X154019023Y-80487795D01*
X154019023Y-80487795D02*
X154019023Y-80583033D01*
X154019023Y-80583033D02*
X153971404Y-80725890D01*
X153971404Y-80725890D02*
X153399976Y-81297319D01*
X153399976Y-81297319D02*
X154019023Y-81297319D01*
X155019023Y-81202080D02*
X154971404Y-81249700D01*
X154971404Y-81249700D02*
X154828547Y-81297319D01*
X154828547Y-81297319D02*
X154733309Y-81297319D01*
X154733309Y-81297319D02*
X154590452Y-81249700D01*
X154590452Y-81249700D02*
X154495214Y-81154461D01*
X154495214Y-81154461D02*
X154447595Y-81059223D01*
X154447595Y-81059223D02*
X154399976Y-80868747D01*
X154399976Y-80868747D02*
X154399976Y-80725890D01*
X154399976Y-80725890D02*
X154447595Y-80535414D01*
X154447595Y-80535414D02*
X154495214Y-80440176D01*
X154495214Y-80440176D02*
X154590452Y-80344938D01*
X154590452Y-80344938D02*
X154733309Y-80297319D01*
X154733309Y-80297319D02*
X154828547Y-80297319D01*
X154828547Y-80297319D02*
X154971404Y-80344938D01*
X154971404Y-80344938D02*
X155019023Y-80392557D01*
X155399976Y-80392557D02*
X155447595Y-80344938D01*
X155447595Y-80344938D02*
X155542833Y-80297319D01*
X155542833Y-80297319D02*
X155780928Y-80297319D01*
X155780928Y-80297319D02*
X155876166Y-80344938D01*
X155876166Y-80344938D02*
X155923785Y-80392557D01*
X155923785Y-80392557D02*
X155971404Y-80487795D01*
X155971404Y-80487795D02*
X155971404Y-80583033D01*
X155971404Y-80583033D02*
X155923785Y-80725890D01*
X155923785Y-80725890D02*
X155352357Y-81297319D01*
X155352357Y-81297319D02*
X155971404Y-81297319D01*
X175385200Y-72766523D02*
X175432819Y-72623666D01*
X175432819Y-72623666D02*
X175432819Y-72385571D01*
X175432819Y-72385571D02*
X175385200Y-72290333D01*
X175385200Y-72290333D02*
X175337580Y-72242714D01*
X175337580Y-72242714D02*
X175242342Y-72195095D01*
X175242342Y-72195095D02*
X175147104Y-72195095D01*
X175147104Y-72195095D02*
X175051866Y-72242714D01*
X175051866Y-72242714D02*
X175004247Y-72290333D01*
X175004247Y-72290333D02*
X174956628Y-72385571D01*
X174956628Y-72385571D02*
X174909009Y-72576047D01*
X174909009Y-72576047D02*
X174861390Y-72671285D01*
X174861390Y-72671285D02*
X174813771Y-72718904D01*
X174813771Y-72718904D02*
X174718533Y-72766523D01*
X174718533Y-72766523D02*
X174623295Y-72766523D01*
X174623295Y-72766523D02*
X174528057Y-72718904D01*
X174528057Y-72718904D02*
X174480438Y-72671285D01*
X174480438Y-72671285D02*
X174432819Y-72576047D01*
X174432819Y-72576047D02*
X174432819Y-72337952D01*
X174432819Y-72337952D02*
X174480438Y-72195095D01*
X175385200Y-71385571D02*
X175432819Y-71480809D01*
X175432819Y-71480809D02*
X175432819Y-71671285D01*
X175432819Y-71671285D02*
X175385200Y-71766523D01*
X175385200Y-71766523D02*
X175289961Y-71814142D01*
X175289961Y-71814142D02*
X174909009Y-71814142D01*
X174909009Y-71814142D02*
X174813771Y-71766523D01*
X174813771Y-71766523D02*
X174766152Y-71671285D01*
X174766152Y-71671285D02*
X174766152Y-71480809D01*
X174766152Y-71480809D02*
X174813771Y-71385571D01*
X174813771Y-71385571D02*
X174909009Y-71337952D01*
X174909009Y-71337952D02*
X175004247Y-71337952D01*
X175004247Y-71337952D02*
X175099485Y-71814142D01*
X174766152Y-70909380D02*
X175432819Y-70909380D01*
X174861390Y-70909380D02*
X174813771Y-70861761D01*
X174813771Y-70861761D02*
X174766152Y-70766523D01*
X174766152Y-70766523D02*
X174766152Y-70623666D01*
X174766152Y-70623666D02*
X174813771Y-70528428D01*
X174813771Y-70528428D02*
X174909009Y-70480809D01*
X174909009Y-70480809D02*
X175432819Y-70480809D01*
X175385200Y-70052237D02*
X175432819Y-69956999D01*
X175432819Y-69956999D02*
X175432819Y-69766523D01*
X175432819Y-69766523D02*
X175385200Y-69671285D01*
X175385200Y-69671285D02*
X175289961Y-69623666D01*
X175289961Y-69623666D02*
X175242342Y-69623666D01*
X175242342Y-69623666D02*
X175147104Y-69671285D01*
X175147104Y-69671285D02*
X175099485Y-69766523D01*
X175099485Y-69766523D02*
X175099485Y-69909380D01*
X175099485Y-69909380D02*
X175051866Y-70004618D01*
X175051866Y-70004618D02*
X174956628Y-70052237D01*
X174956628Y-70052237D02*
X174909009Y-70052237D01*
X174909009Y-70052237D02*
X174813771Y-70004618D01*
X174813771Y-70004618D02*
X174766152Y-69909380D01*
X174766152Y-69909380D02*
X174766152Y-69766523D01*
X174766152Y-69766523D02*
X174813771Y-69671285D01*
X175432819Y-69052237D02*
X175385200Y-69147475D01*
X175385200Y-69147475D02*
X175337580Y-69195094D01*
X175337580Y-69195094D02*
X175242342Y-69242713D01*
X175242342Y-69242713D02*
X174956628Y-69242713D01*
X174956628Y-69242713D02*
X174861390Y-69195094D01*
X174861390Y-69195094D02*
X174813771Y-69147475D01*
X174813771Y-69147475D02*
X174766152Y-69052237D01*
X174766152Y-69052237D02*
X174766152Y-68909380D01*
X174766152Y-68909380D02*
X174813771Y-68814142D01*
X174813771Y-68814142D02*
X174861390Y-68766523D01*
X174861390Y-68766523D02*
X174956628Y-68718904D01*
X174956628Y-68718904D02*
X175242342Y-68718904D01*
X175242342Y-68718904D02*
X175337580Y-68766523D01*
X175337580Y-68766523D02*
X175385200Y-68814142D01*
X175385200Y-68814142D02*
X175432819Y-68909380D01*
X175432819Y-68909380D02*
X175432819Y-69052237D01*
X175432819Y-68290332D02*
X174766152Y-68290332D01*
X174956628Y-68290332D02*
X174861390Y-68242713D01*
X174861390Y-68242713D02*
X174813771Y-68195094D01*
X174813771Y-68195094D02*
X174766152Y-68099856D01*
X174766152Y-68099856D02*
X174766152Y-68004618D01*
X174432819Y-67766522D02*
X174432819Y-67147475D01*
X174432819Y-67147475D02*
X174813771Y-67480808D01*
X174813771Y-67480808D02*
X174813771Y-67337951D01*
X174813771Y-67337951D02*
X174861390Y-67242713D01*
X174861390Y-67242713D02*
X174909009Y-67195094D01*
X174909009Y-67195094D02*
X175004247Y-67147475D01*
X175004247Y-67147475D02*
X175242342Y-67147475D01*
X175242342Y-67147475D02*
X175337580Y-67195094D01*
X175337580Y-67195094D02*
X175385200Y-67242713D01*
X175385200Y-67242713D02*
X175432819Y-67337951D01*
X175432819Y-67337951D02*
X175432819Y-67623665D01*
X175432819Y-67623665D02*
X175385200Y-67718903D01*
X175385200Y-67718903D02*
X175337580Y-67766522D01*
X155746095Y-60335152D02*
X155746095Y-61335152D01*
X155746095Y-60382771D02*
X155841333Y-60335152D01*
X155841333Y-60335152D02*
X156031809Y-60335152D01*
X156031809Y-60335152D02*
X156127047Y-60382771D01*
X156127047Y-60382771D02*
X156174666Y-60430390D01*
X156174666Y-60430390D02*
X156222285Y-60525628D01*
X156222285Y-60525628D02*
X156222285Y-60811342D01*
X156222285Y-60811342D02*
X156174666Y-60906580D01*
X156174666Y-60906580D02*
X156127047Y-60954200D01*
X156127047Y-60954200D02*
X156031809Y-61001819D01*
X156031809Y-61001819D02*
X155841333Y-61001819D01*
X155841333Y-61001819D02*
X155746095Y-60954200D01*
X157079428Y-60335152D02*
X157079428Y-61001819D01*
X156650857Y-60335152D02*
X156650857Y-60858961D01*
X156650857Y-60858961D02*
X156698476Y-60954200D01*
X156698476Y-60954200D02*
X156793714Y-61001819D01*
X156793714Y-61001819D02*
X156936571Y-61001819D01*
X156936571Y-61001819D02*
X157031809Y-60954200D01*
X157031809Y-60954200D02*
X157079428Y-60906580D01*
X157555619Y-61001819D02*
X157555619Y-60335152D01*
X157555619Y-60430390D02*
X157603238Y-60382771D01*
X157603238Y-60382771D02*
X157698476Y-60335152D01*
X157698476Y-60335152D02*
X157841333Y-60335152D01*
X157841333Y-60335152D02*
X157936571Y-60382771D01*
X157936571Y-60382771D02*
X157984190Y-60478009D01*
X157984190Y-60478009D02*
X157984190Y-61001819D01*
X157984190Y-60478009D02*
X158031809Y-60382771D01*
X158031809Y-60382771D02*
X158127047Y-60335152D01*
X158127047Y-60335152D02*
X158269904Y-60335152D01*
X158269904Y-60335152D02*
X158365143Y-60382771D01*
X158365143Y-60382771D02*
X158412762Y-60478009D01*
X158412762Y-60478009D02*
X158412762Y-61001819D01*
X158888952Y-60335152D02*
X158888952Y-61335152D01*
X158888952Y-60382771D02*
X158984190Y-60335152D01*
X158984190Y-60335152D02*
X159174666Y-60335152D01*
X159174666Y-60335152D02*
X159269904Y-60382771D01*
X159269904Y-60382771D02*
X159317523Y-60430390D01*
X159317523Y-60430390D02*
X159365142Y-60525628D01*
X159365142Y-60525628D02*
X159365142Y-60811342D01*
X159365142Y-60811342D02*
X159317523Y-60906580D01*
X159317523Y-60906580D02*
X159269904Y-60954200D01*
X159269904Y-60954200D02*
X159174666Y-61001819D01*
X159174666Y-61001819D02*
X158984190Y-61001819D01*
X158984190Y-61001819D02*
X158888952Y-60954200D01*
X160222285Y-60335152D02*
X160222285Y-61001819D01*
X159984190Y-59954200D02*
X159746095Y-60668485D01*
X159746095Y-60668485D02*
X160365142Y-60668485D01*
X175385200Y-95626523D02*
X175432819Y-95483666D01*
X175432819Y-95483666D02*
X175432819Y-95245571D01*
X175432819Y-95245571D02*
X175385200Y-95150333D01*
X175385200Y-95150333D02*
X175337580Y-95102714D01*
X175337580Y-95102714D02*
X175242342Y-95055095D01*
X175242342Y-95055095D02*
X175147104Y-95055095D01*
X175147104Y-95055095D02*
X175051866Y-95102714D01*
X175051866Y-95102714D02*
X175004247Y-95150333D01*
X175004247Y-95150333D02*
X174956628Y-95245571D01*
X174956628Y-95245571D02*
X174909009Y-95436047D01*
X174909009Y-95436047D02*
X174861390Y-95531285D01*
X174861390Y-95531285D02*
X174813771Y-95578904D01*
X174813771Y-95578904D02*
X174718533Y-95626523D01*
X174718533Y-95626523D02*
X174623295Y-95626523D01*
X174623295Y-95626523D02*
X174528057Y-95578904D01*
X174528057Y-95578904D02*
X174480438Y-95531285D01*
X174480438Y-95531285D02*
X174432819Y-95436047D01*
X174432819Y-95436047D02*
X174432819Y-95197952D01*
X174432819Y-95197952D02*
X174480438Y-95055095D01*
X175385200Y-94245571D02*
X175432819Y-94340809D01*
X175432819Y-94340809D02*
X175432819Y-94531285D01*
X175432819Y-94531285D02*
X175385200Y-94626523D01*
X175385200Y-94626523D02*
X175289961Y-94674142D01*
X175289961Y-94674142D02*
X174909009Y-94674142D01*
X174909009Y-94674142D02*
X174813771Y-94626523D01*
X174813771Y-94626523D02*
X174766152Y-94531285D01*
X174766152Y-94531285D02*
X174766152Y-94340809D01*
X174766152Y-94340809D02*
X174813771Y-94245571D01*
X174813771Y-94245571D02*
X174909009Y-94197952D01*
X174909009Y-94197952D02*
X175004247Y-94197952D01*
X175004247Y-94197952D02*
X175099485Y-94674142D01*
X174766152Y-93769380D02*
X175432819Y-93769380D01*
X174861390Y-93769380D02*
X174813771Y-93721761D01*
X174813771Y-93721761D02*
X174766152Y-93626523D01*
X174766152Y-93626523D02*
X174766152Y-93483666D01*
X174766152Y-93483666D02*
X174813771Y-93388428D01*
X174813771Y-93388428D02*
X174909009Y-93340809D01*
X174909009Y-93340809D02*
X175432819Y-93340809D01*
X175385200Y-92912237D02*
X175432819Y-92816999D01*
X175432819Y-92816999D02*
X175432819Y-92626523D01*
X175432819Y-92626523D02*
X175385200Y-92531285D01*
X175385200Y-92531285D02*
X175289961Y-92483666D01*
X175289961Y-92483666D02*
X175242342Y-92483666D01*
X175242342Y-92483666D02*
X175147104Y-92531285D01*
X175147104Y-92531285D02*
X175099485Y-92626523D01*
X175099485Y-92626523D02*
X175099485Y-92769380D01*
X175099485Y-92769380D02*
X175051866Y-92864618D01*
X175051866Y-92864618D02*
X174956628Y-92912237D01*
X174956628Y-92912237D02*
X174909009Y-92912237D01*
X174909009Y-92912237D02*
X174813771Y-92864618D01*
X174813771Y-92864618D02*
X174766152Y-92769380D01*
X174766152Y-92769380D02*
X174766152Y-92626523D01*
X174766152Y-92626523D02*
X174813771Y-92531285D01*
X175432819Y-91912237D02*
X175385200Y-92007475D01*
X175385200Y-92007475D02*
X175337580Y-92055094D01*
X175337580Y-92055094D02*
X175242342Y-92102713D01*
X175242342Y-92102713D02*
X174956628Y-92102713D01*
X174956628Y-92102713D02*
X174861390Y-92055094D01*
X174861390Y-92055094D02*
X174813771Y-92007475D01*
X174813771Y-92007475D02*
X174766152Y-91912237D01*
X174766152Y-91912237D02*
X174766152Y-91769380D01*
X174766152Y-91769380D02*
X174813771Y-91674142D01*
X174813771Y-91674142D02*
X174861390Y-91626523D01*
X174861390Y-91626523D02*
X174956628Y-91578904D01*
X174956628Y-91578904D02*
X175242342Y-91578904D01*
X175242342Y-91578904D02*
X175337580Y-91626523D01*
X175337580Y-91626523D02*
X175385200Y-91674142D01*
X175385200Y-91674142D02*
X175432819Y-91769380D01*
X175432819Y-91769380D02*
X175432819Y-91912237D01*
X175432819Y-91150332D02*
X174766152Y-91150332D01*
X174956628Y-91150332D02*
X174861390Y-91102713D01*
X174861390Y-91102713D02*
X174813771Y-91055094D01*
X174813771Y-91055094D02*
X174766152Y-90959856D01*
X174766152Y-90959856D02*
X174766152Y-90864618D01*
X175432819Y-90007475D02*
X175432819Y-90578903D01*
X175432819Y-90293189D02*
X174432819Y-90293189D01*
X174432819Y-90293189D02*
X174575676Y-90388427D01*
X174575676Y-90388427D02*
X174670914Y-90483665D01*
X174670914Y-90483665D02*
X174718533Y-90578903D01*
%TO.C,OLED_I2C1*%
X99204500Y-65991500D02*
X99204500Y-100662500D01*
X99204500Y-65991500D02*
X99776000Y-65991500D01*
X99204500Y-100662500D02*
X134891500Y-100662500D01*
X99776000Y-65991500D02*
X134891500Y-65991500D01*
X101109500Y-70182500D02*
X133113500Y-70182500D01*
X101109500Y-88978500D02*
X101109500Y-70182500D01*
X101109500Y-88978500D02*
X101109500Y-91582000D01*
X111777500Y-66626500D02*
X111777500Y-67134500D01*
X111777500Y-67134500D02*
X111777500Y-69674500D01*
X111777500Y-69674500D02*
X122445500Y-69674500D01*
X122445500Y-66626500D02*
X111777500Y-66626500D01*
X122445500Y-69674500D02*
X122445500Y-66626500D01*
X133113500Y-70182500D02*
X133113500Y-88978500D01*
X133113500Y-88978500D02*
X133113500Y-91582000D01*
X133113500Y-91582000D02*
X101109500Y-91582000D01*
X134891500Y-65991500D02*
X134891500Y-100662500D01*
D12*
%TO.C,SW1*%
X169348000Y-124047000D02*
X169348000Y-119947001D01*
X169348001Y-132147000D02*
X169348001Y-128047000D01*
X171748001Y-132147000D02*
X169348001Y-132147000D01*
X175247999Y-125547000D02*
X175247999Y-126547000D01*
X175748000Y-126047001D02*
X174748000Y-126047001D01*
X176548001Y-132147000D02*
X173948000Y-132146999D01*
X179048000Y-118547000D02*
X179348000Y-118246999D01*
X179348000Y-118246999D02*
X179348000Y-118847001D01*
X179348000Y-118847001D02*
X179048000Y-118547000D01*
X181147999Y-119947000D02*
X169348000Y-119947001D01*
X181148000Y-124047000D02*
X181147999Y-119947000D01*
X181148000Y-128047000D02*
X181148000Y-132146999D01*
X181148000Y-132146999D02*
X178748000Y-132146999D01*
X178247999Y-126047000D02*
G75*
G02*
X172247999Y-126047000I-3000000J0D01*
G01*
X172247999Y-126047000D02*
G75*
G02*
X178247999Y-126047000I3000000J0D01*
G01*
%TO.C,J5*%
X127238000Y-53141500D02*
X127238000Y-54391500D01*
X127528000Y-53431500D02*
X127528000Y-59401500D01*
X127528000Y-59401500D02*
X135148000Y-59401500D01*
X127538000Y-53441500D02*
X127538000Y-54191500D01*
X127538000Y-54191500D02*
X129338000Y-54191500D01*
X127538000Y-55691500D02*
X128288000Y-55691500D01*
X128288000Y-55691500D02*
X128288000Y-58641500D01*
X128288000Y-58641500D02*
X131338000Y-58641500D01*
X128488000Y-53141500D02*
X127238000Y-53141500D01*
X129338000Y-53441500D02*
X127538000Y-53441500D01*
X129338000Y-54191500D02*
X129338000Y-53441500D01*
X130838000Y-53441500D02*
X130838000Y-54191500D01*
X130838000Y-54191500D02*
X131838000Y-54191500D01*
X131838000Y-53441500D02*
X130838000Y-53441500D01*
X131838000Y-54191500D02*
X131838000Y-53441500D01*
X133338000Y-53441500D02*
X133338000Y-54191500D01*
X133338000Y-54191500D02*
X135138000Y-54191500D01*
X134388000Y-55691500D02*
X134388000Y-58641500D01*
X134388000Y-58641500D02*
X131338000Y-58641500D01*
X135138000Y-53441500D02*
X133338000Y-53441500D01*
X135138000Y-54191500D02*
X135138000Y-53441500D01*
X135138000Y-55691500D02*
X134388000Y-55691500D01*
X135148000Y-53431500D02*
X127528000Y-53431500D01*
X135148000Y-59401500D02*
X135148000Y-53431500D01*
%TO.C,J7*%
X145018000Y-53197000D02*
X145018000Y-54447000D01*
X145308000Y-53487000D02*
X145308000Y-59457000D01*
X145308000Y-59457000D02*
X152928000Y-59457000D01*
X145318000Y-53497000D02*
X145318000Y-54247000D01*
X145318000Y-54247000D02*
X147118000Y-54247000D01*
X145318000Y-55747000D02*
X146068000Y-55747000D01*
X146068000Y-55747000D02*
X146068000Y-58697000D01*
X146068000Y-58697000D02*
X149118000Y-58697000D01*
X146268000Y-53197000D02*
X145018000Y-53197000D01*
X147118000Y-53497000D02*
X145318000Y-53497000D01*
X147118000Y-54247000D02*
X147118000Y-53497000D01*
X148618000Y-53497000D02*
X148618000Y-54247000D01*
X148618000Y-54247000D02*
X149618000Y-54247000D01*
X149618000Y-53497000D02*
X148618000Y-53497000D01*
X149618000Y-54247000D02*
X149618000Y-53497000D01*
X151118000Y-53497000D02*
X151118000Y-54247000D01*
X151118000Y-54247000D02*
X152918000Y-54247000D01*
X152168000Y-55747000D02*
X152168000Y-58697000D01*
X152168000Y-58697000D02*
X149118000Y-58697000D01*
X152918000Y-53497000D02*
X151118000Y-53497000D01*
X152918000Y-54247000D02*
X152918000Y-53497000D01*
X152918000Y-55747000D02*
X152168000Y-55747000D01*
X152928000Y-53487000D02*
X145308000Y-53487000D01*
X152928000Y-59457000D02*
X152928000Y-53487000D01*
%TO.C,ON1*%
X102141999Y-123917001D02*
X102297999Y-123917001D01*
X104457998Y-123917000D02*
X104613998Y-123917000D01*
X102142482Y-123917001D02*
G75*
G02*
X102297937Y-120685604I1235516J1560000D01*
G01*
X102297998Y-123397962D02*
G75*
G02*
X102297949Y-121316091I1080000J1040961D01*
G01*
X104458047Y-121316091D02*
G75*
G02*
X104457998Y-123397962I-1080049J-1040910D01*
G01*
X104458059Y-120685604D02*
G75*
G02*
X104613514Y-123917001I-1080061J-1671397D01*
G01*
%TO.C,J6*%
X136128000Y-53197000D02*
X136128000Y-54447000D01*
X136418000Y-53487000D02*
X136418000Y-59457000D01*
X136418000Y-59457000D02*
X144038000Y-59457000D01*
X136428000Y-53497000D02*
X136428000Y-54247000D01*
X136428000Y-54247000D02*
X138228000Y-54247000D01*
X136428000Y-55747000D02*
X137178000Y-55747000D01*
X137178000Y-55747000D02*
X137178000Y-58697000D01*
X137178000Y-58697000D02*
X140228000Y-58697000D01*
X137378000Y-53197000D02*
X136128000Y-53197000D01*
X138228000Y-53497000D02*
X136428000Y-53497000D01*
X138228000Y-54247000D02*
X138228000Y-53497000D01*
X139728000Y-53497000D02*
X139728000Y-54247000D01*
X139728000Y-54247000D02*
X140728000Y-54247000D01*
X140728000Y-53497000D02*
X139728000Y-53497000D01*
X140728000Y-54247000D02*
X140728000Y-53497000D01*
X142228000Y-53497000D02*
X142228000Y-54247000D01*
X142228000Y-54247000D02*
X144028000Y-54247000D01*
X143278000Y-55747000D02*
X143278000Y-58697000D01*
X143278000Y-58697000D02*
X140228000Y-58697000D01*
X144028000Y-53497000D02*
X142228000Y-53497000D01*
X144028000Y-54247000D02*
X144028000Y-53497000D01*
X144028000Y-55747000D02*
X143278000Y-55747000D01*
X144038000Y-53487000D02*
X136418000Y-53487000D01*
X144038000Y-59457000D02*
X144038000Y-53487000D01*
%TO.C,PumpStatus2*%
X136432002Y-123916998D02*
X136588002Y-123916998D01*
X138748001Y-123916997D02*
X138904001Y-123916997D01*
X136432485Y-123916998D02*
G75*
G02*
X136587940Y-120685601I1235516J1560000D01*
G01*
X136588001Y-123397959D02*
G75*
G02*
X136587952Y-121316088I1080000J1040961D01*
G01*
X138748050Y-121316088D02*
G75*
G02*
X138748001Y-123397959I-1080049J-1040910D01*
G01*
X138748062Y-120685601D02*
G75*
G02*
X138903517Y-123916998I-1080061J-1671397D01*
G01*
%TO.C,PumpStatus3*%
X147862002Y-123916999D02*
X148018002Y-123916999D01*
X150178001Y-123916998D02*
X150334001Y-123916998D01*
X147862485Y-123916999D02*
G75*
G02*
X148017940Y-120685602I1235516J1560000D01*
G01*
X148018001Y-123397960D02*
G75*
G02*
X148017952Y-121316089I1080000J1040961D01*
G01*
X150178050Y-121316089D02*
G75*
G02*
X150178001Y-123397960I-1080049J-1040910D01*
G01*
X150178062Y-120685602D02*
G75*
G02*
X150333517Y-123916999I-1080061J-1671397D01*
G01*
%TO.C,PumpStatus1*%
X124748001Y-123917001D02*
X124904001Y-123917001D01*
X127064000Y-123917000D02*
X127220000Y-123917000D01*
X124748484Y-123917001D02*
G75*
G02*
X124903939Y-120685604I1235516J1560000D01*
G01*
X124904000Y-123397962D02*
G75*
G02*
X124903951Y-121316091I1080000J1040961D01*
G01*
X127064049Y-121316091D02*
G75*
G02*
X127064000Y-123397962I-1080049J-1040910D01*
G01*
X127064061Y-120685604D02*
G75*
G02*
X127219516Y-123917001I-1080061J-1671397D01*
G01*
%TO.C,J2*%
X176068000Y-76327000D02*
X176068000Y-86447000D01*
X176068000Y-86447000D02*
X182038000Y-86447000D01*
X176828000Y-77087000D02*
X176828000Y-81387000D01*
X176828000Y-85687000D02*
X176828000Y-81387000D01*
X179778000Y-76337000D02*
X179778000Y-77087000D01*
X179778000Y-77087000D02*
X176828000Y-77087000D01*
X179778000Y-85687000D02*
X176828000Y-85687000D01*
X179778000Y-86437000D02*
X179778000Y-85687000D01*
X181278000Y-76337000D02*
X181278000Y-78137000D01*
X181278000Y-78137000D02*
X182028000Y-78137000D01*
X181278000Y-79637000D02*
X181278000Y-83137000D01*
X181278000Y-83137000D02*
X182028000Y-83137000D01*
X181278000Y-84637000D02*
X181278000Y-86437000D01*
X181278000Y-86437000D02*
X182028000Y-86437000D01*
X182028000Y-76337000D02*
X181278000Y-76337000D01*
X182028000Y-78137000D02*
X182028000Y-76337000D01*
X182028000Y-79637000D02*
X181278000Y-79637000D01*
X182028000Y-83137000D02*
X182028000Y-79637000D01*
X182028000Y-84637000D02*
X181278000Y-84637000D01*
X182028000Y-86437000D02*
X182028000Y-84637000D01*
X182038000Y-76327000D02*
X176068000Y-76327000D01*
X182038000Y-86447000D02*
X182038000Y-76327000D01*
X182328000Y-76037000D02*
X181078000Y-76037000D01*
X182328000Y-77287000D02*
X182328000Y-76037000D01*
%TO.C,J4*%
X176068000Y-53467000D02*
X176068000Y-63587000D01*
X176068000Y-63587000D02*
X182038000Y-63587000D01*
X176828000Y-54227000D02*
X176828000Y-58527000D01*
X176828000Y-62827000D02*
X176828000Y-58527000D01*
X179778000Y-53477000D02*
X179778000Y-54227000D01*
X179778000Y-54227000D02*
X176828000Y-54227000D01*
X179778000Y-62827000D02*
X176828000Y-62827000D01*
X179778000Y-63577000D02*
X179778000Y-62827000D01*
X181278000Y-53477000D02*
X181278000Y-55277000D01*
X181278000Y-55277000D02*
X182028000Y-55277000D01*
X181278000Y-56777000D02*
X181278000Y-60277000D01*
X181278000Y-60277000D02*
X182028000Y-60277000D01*
X181278000Y-61777000D02*
X181278000Y-63577000D01*
X181278000Y-63577000D02*
X182028000Y-63577000D01*
X182028000Y-53477000D02*
X181278000Y-53477000D01*
X182028000Y-55277000D02*
X182028000Y-53477000D01*
X182028000Y-56777000D02*
X181278000Y-56777000D01*
X182028000Y-60277000D02*
X182028000Y-56777000D01*
X182028000Y-61777000D02*
X181278000Y-61777000D01*
X182028000Y-63577000D02*
X182028000Y-61777000D01*
X182038000Y-53467000D02*
X176068000Y-53467000D01*
X182038000Y-63587000D02*
X182038000Y-53467000D01*
X182328000Y-53177000D02*
X181078000Y-53177000D01*
X182328000Y-54427000D02*
X182328000Y-53177000D01*
%TO.C,PumpStatus4*%
X159292002Y-123916999D02*
X159448002Y-123916999D01*
X161608001Y-123916998D02*
X161764001Y-123916998D01*
X159292485Y-123916999D02*
G75*
G02*
X159447940Y-120685602I1235516J1560000D01*
G01*
X159448001Y-123397960D02*
G75*
G02*
X159447952Y-121316089I1080000J1040961D01*
G01*
X161608050Y-121316089D02*
G75*
G02*
X161608001Y-123397960I-1080049J-1040910D01*
G01*
X161608062Y-120685602D02*
G75*
G02*
X161763517Y-123916999I-1080061J-1671397D01*
G01*
D11*
%TO.C,OLED_I2C2*%
X135572500Y-65991500D02*
X135572500Y-100662500D01*
X135572500Y-65991500D02*
X136144000Y-65991500D01*
X135572500Y-100662500D02*
X171259500Y-100662500D01*
X136144000Y-65991500D02*
X171259500Y-65991500D01*
X137477500Y-70182500D02*
X169481500Y-70182500D01*
X137477500Y-88978500D02*
X137477500Y-70182500D01*
X137477500Y-88978500D02*
X137477500Y-91582000D01*
X148145500Y-66626500D02*
X148145500Y-67134500D01*
X148145500Y-67134500D02*
X148145500Y-69674500D01*
X148145500Y-69674500D02*
X158813500Y-69674500D01*
X158813500Y-66626500D02*
X148145500Y-66626500D01*
X158813500Y-69674500D02*
X158813500Y-66626500D01*
X169481500Y-70182500D02*
X169481500Y-88978500D01*
X169481500Y-88978500D02*
X169481500Y-91582000D01*
X169481500Y-91582000D02*
X137477500Y-91582000D01*
X171259500Y-65991500D02*
X171259500Y-100662500D01*
D12*
%TO.C,J3*%
X176068000Y-64897000D02*
X176068000Y-75017000D01*
X176068000Y-75017000D02*
X182038000Y-75017000D01*
X176828000Y-65657000D02*
X176828000Y-69957000D01*
X176828000Y-74257000D02*
X176828000Y-69957000D01*
X179778000Y-64907000D02*
X179778000Y-65657000D01*
X179778000Y-65657000D02*
X176828000Y-65657000D01*
X179778000Y-74257000D02*
X176828000Y-74257000D01*
X179778000Y-75007000D02*
X179778000Y-74257000D01*
X181278000Y-64907000D02*
X181278000Y-66707000D01*
X181278000Y-66707000D02*
X182028000Y-66707000D01*
X181278000Y-68207000D02*
X181278000Y-71707000D01*
X181278000Y-71707000D02*
X182028000Y-71707000D01*
X181278000Y-73207000D02*
X181278000Y-75007000D01*
X181278000Y-75007000D02*
X182028000Y-75007000D01*
X182028000Y-64907000D02*
X181278000Y-64907000D01*
X182028000Y-66707000D02*
X182028000Y-64907000D01*
X182028000Y-68207000D02*
X181278000Y-68207000D01*
X182028000Y-71707000D02*
X182028000Y-68207000D01*
X182028000Y-73207000D02*
X181278000Y-73207000D01*
X182028000Y-75007000D02*
X182028000Y-73207000D01*
X182038000Y-64897000D02*
X176068000Y-64897000D01*
X182038000Y-75017000D02*
X182038000Y-64897000D01*
X182328000Y-64607000D02*
X181078000Y-64607000D01*
X182328000Y-65857000D02*
X182328000Y-64607000D01*
%TO.C,J8*%
X153908000Y-53197000D02*
X153908000Y-54447000D01*
X154198000Y-53487000D02*
X154198000Y-59457000D01*
X154198000Y-59457000D02*
X161818000Y-59457000D01*
X154208000Y-53497000D02*
X154208000Y-54247000D01*
X154208000Y-54247000D02*
X156008000Y-54247000D01*
X154208000Y-55747000D02*
X154958000Y-55747000D01*
X154958000Y-55747000D02*
X154958000Y-58697000D01*
X154958000Y-58697000D02*
X158008000Y-58697000D01*
X155158000Y-53197000D02*
X153908000Y-53197000D01*
X156008000Y-53497000D02*
X154208000Y-53497000D01*
X156008000Y-54247000D02*
X156008000Y-53497000D01*
X157508000Y-53497000D02*
X157508000Y-54247000D01*
X157508000Y-54247000D02*
X158508000Y-54247000D01*
X158508000Y-53497000D02*
X157508000Y-53497000D01*
X158508000Y-54247000D02*
X158508000Y-53497000D01*
X160008000Y-53497000D02*
X160008000Y-54247000D01*
X160008000Y-54247000D02*
X161808000Y-54247000D01*
X161058000Y-55747000D02*
X161058000Y-58697000D01*
X161058000Y-58697000D02*
X158008000Y-58697000D01*
X161808000Y-53497000D02*
X160008000Y-53497000D01*
X161808000Y-54247000D02*
X161808000Y-53497000D01*
X161808000Y-55747000D02*
X161058000Y-55747000D01*
X161818000Y-53487000D02*
X154198000Y-53487000D01*
X161818000Y-59457000D02*
X161818000Y-53487000D01*
%TO.C,J1*%
X176068000Y-87757000D02*
X176068000Y-97877000D01*
X176068000Y-97877000D02*
X182038000Y-97877000D01*
X176828000Y-88517000D02*
X176828000Y-92817000D01*
X176828000Y-97117000D02*
X176828000Y-92817000D01*
X179778000Y-87767000D02*
X179778000Y-88517000D01*
X179778000Y-88517000D02*
X176828000Y-88517000D01*
X179778000Y-97117000D02*
X176828000Y-97117000D01*
X179778000Y-97867000D02*
X179778000Y-97117000D01*
X181278000Y-87767000D02*
X181278000Y-89567000D01*
X181278000Y-89567000D02*
X182028000Y-89567000D01*
X181278000Y-91067000D02*
X181278000Y-94567000D01*
X181278000Y-94567000D02*
X182028000Y-94567000D01*
X181278000Y-96067000D02*
X181278000Y-97867000D01*
X181278000Y-97867000D02*
X182028000Y-97867000D01*
X182028000Y-87767000D02*
X181278000Y-87767000D01*
X182028000Y-89567000D02*
X182028000Y-87767000D01*
X182028000Y-91067000D02*
X181278000Y-91067000D01*
X182028000Y-94567000D02*
X182028000Y-91067000D01*
X182028000Y-96067000D02*
X181278000Y-96067000D01*
X182028000Y-97867000D02*
X182028000Y-96067000D01*
X182038000Y-87757000D02*
X176068000Y-87757000D01*
X182038000Y-97877000D02*
X182038000Y-87757000D01*
X182328000Y-87467000D02*
X181078000Y-87467000D01*
X182328000Y-88717000D02*
X182328000Y-87467000D01*
%TD*%
D13*
X113301500Y-68150500D03*
X115841500Y-68150500D03*
X118381500Y-68150500D03*
X120921500Y-68150500D03*
X177748000Y-118547000D03*
X172748000Y-118547000D03*
X175248000Y-118547000D03*
D14*
X180848000Y-126047001D03*
X169648000Y-126047001D03*
D13*
X172748000Y-133047000D03*
X177748000Y-133047000D03*
X170688000Y-57404000D03*
X130088000Y-55891500D03*
X132588000Y-55891500D03*
X147868000Y-55947000D03*
X150368000Y-55947000D03*
X95885000Y-123511000D03*
X103377998Y-123627001D03*
X103377998Y-121087001D03*
X138978000Y-55947000D03*
X141478000Y-55947000D03*
X137668001Y-123626998D03*
X137668001Y-121086998D03*
X149098001Y-123626999D03*
X149098001Y-121086999D03*
X125984000Y-123627001D03*
X125984000Y-121087001D03*
X179578000Y-78887000D03*
X179578000Y-81387000D03*
X179578000Y-83887000D03*
X180594000Y-109795000D03*
X179578000Y-56027000D03*
X179578000Y-58527000D03*
X179578000Y-61027000D03*
X160528001Y-123626999D03*
X160528001Y-121086999D03*
X149669500Y-68150500D03*
X152209500Y-68150500D03*
X154749500Y-68150500D03*
X157289500Y-68150500D03*
X179578000Y-67457000D03*
X179578000Y-69957000D03*
X179578000Y-72457000D03*
X156758000Y-55947000D03*
X159258000Y-55947000D03*
X97536000Y-57150000D03*
X179578000Y-90317000D03*
X179578000Y-92817000D03*
X179578000Y-95317000D03*
X160528000Y-127437000D03*
X151729182Y-132517000D03*
X113849000Y-120719000D03*
X112579000Y-120719000D03*
X111309000Y-120719000D03*
X125984000Y-127437000D03*
X117185182Y-132517000D03*
X103378000Y-127437000D03*
X94579182Y-132517000D03*
X149098000Y-127437000D03*
X140299182Y-132517000D03*
X160528000Y-116007000D03*
X157988000Y-116007000D03*
X155448000Y-116007000D03*
X125954500Y-116007000D03*
X123414500Y-116007000D03*
X120874500Y-116007000D03*
X113538000Y-127437000D03*
X104739182Y-132517000D03*
X137668000Y-127437000D03*
X128869182Y-132517000D03*
X100076000Y-64075000D03*
X102615999Y-64075000D03*
X105156000Y-64075000D03*
X107695999Y-64075000D03*
X110236000Y-64075000D03*
X112775999Y-64075000D03*
X115316000Y-64075000D03*
X117856000Y-64074999D03*
X120396000Y-64075000D03*
X122936000Y-64074999D03*
X125476000Y-64075000D03*
X128016000Y-64074999D03*
X130556000Y-64075000D03*
X133096000Y-64075000D03*
X135636000Y-64075000D03*
X135636000Y-89475000D03*
X133096000Y-89475000D03*
X130556000Y-89475000D03*
X128016000Y-89475001D03*
X125476000Y-89475000D03*
X122936001Y-89475000D03*
X120396000Y-89475000D03*
X117856001Y-89475000D03*
X115316000Y-89475000D03*
X112776000Y-89475001D03*
X110236000Y-89475000D03*
X107696000Y-89475001D03*
X105156000Y-89475000D03*
X102616000Y-89475001D03*
X100076000Y-89475000D03*
X137668000Y-116007000D03*
X135128000Y-116007000D03*
X132588000Y-116007000D03*
X149098000Y-116007000D03*
X146558000Y-116007000D03*
X144018000Y-116007000D03*
M02*
