%TF.GenerationSoftware,KiCad,Pcbnew,9.0.0*%
%TF.CreationDate,2025-06-12T21:42:43+02:00*%
%TF.ProjectId,plant_watner_V3.0,706c616e-745f-4776-9174-6e65725f5633,rev?*%
%TF.SameCoordinates,Original*%
%TF.FileFunction,Copper,L2,Bot*%
%TF.FilePolarity,Positive*%
%FSLAX46Y46*%
G04 Gerber Fmt 4.6, Leading zero omitted, Abs format (unit mm)*
G04 Created by KiCad (PCBNEW 9.0.0) date 2025-06-12 21:42:43*
%MOMM*%
%LPD*%
G01*
G04 APERTURE LIST*
G04 Aperture macros list*
%AMRoundRect*
0 Rectangle with rounded corners*
0 $1 Rounding radius*
0 $2 $3 $4 $5 $6 $7 $8 $9 X,Y pos of 4 corners*
0 Add a 4 corners polygon primitive as box body*
4,1,4,$2,$3,$4,$5,$6,$7,$8,$9,$2,$3,0*
0 Add four circle primitives for the rounded corners*
1,1,$1+$1,$2,$3*
1,1,$1+$1,$4,$5*
1,1,$1+$1,$6,$7*
1,1,$1+$1,$8,$9*
0 Add four rect primitives between the rounded corners*
20,1,$1+$1,$2,$3,$4,$5,0*
20,1,$1+$1,$4,$5,$6,$7,0*
20,1,$1+$1,$6,$7,$8,$9,0*
20,1,$1+$1,$8,$9,$2,$3,0*%
%AMHorizOval*
0 Thick line with rounded ends*
0 $1 width*
0 $2 $3 position (X,Y) of the first rounded end (center of the circle)*
0 $4 $5 position (X,Y) of the second rounded end (center of the circle)*
0 Add line between two ends*
20,1,$1,$2,$3,$4,$5,0*
0 Add two circle primitives to create the rounded ends*
1,1,$1,$2,$3*
1,1,$1,$4,$5*%
G04 Aperture macros list end*
%TA.AperFunction,ComponentPad*%
%ADD10R,1.524000X1.524000*%
%TD*%
%TA.AperFunction,ComponentPad*%
%ADD11C,1.524000*%
%TD*%
%TA.AperFunction,ComponentPad*%
%ADD12R,2.000000X2.000000*%
%TD*%
%TA.AperFunction,ComponentPad*%
%ADD13C,2.000000*%
%TD*%
%TA.AperFunction,ComponentPad*%
%ADD14R,2.000000X3.200000*%
%TD*%
%TA.AperFunction,ComponentPad*%
%ADD15C,6.400000*%
%TD*%
%TA.AperFunction,ComponentPad*%
%ADD16RoundRect,0.250000X-0.600000X-0.750000X0.600000X-0.750000X0.600000X0.750000X-0.600000X0.750000X0*%
%TD*%
%TA.AperFunction,ComponentPad*%
%ADD17O,1.700000X2.000000*%
%TD*%
%TA.AperFunction,ComponentPad*%
%ADD18R,1.800000X1.800000*%
%TD*%
%TA.AperFunction,ComponentPad*%
%ADD19C,1.800000*%
%TD*%
%TA.AperFunction,ComponentPad*%
%ADD20RoundRect,0.250000X-0.725000X0.600000X-0.725000X-0.600000X0.725000X-0.600000X0.725000X0.600000X0*%
%TD*%
%TA.AperFunction,ComponentPad*%
%ADD21O,1.950000X1.700000*%
%TD*%
%TA.AperFunction,ComponentPad*%
%ADD22C,1.600000*%
%TD*%
%TA.AperFunction,ComponentPad*%
%ADD23HorizOval,1.600000X0.000000X0.000000X0.000000X0.000000X0*%
%TD*%
%TA.AperFunction,ComponentPad*%
%ADD24R,1.050000X1.500000*%
%TD*%
%TA.AperFunction,ComponentPad*%
%ADD25O,1.050000X1.500000*%
%TD*%
%TA.AperFunction,ComponentPad*%
%ADD26R,1.905000X2.000000*%
%TD*%
%TA.AperFunction,ComponentPad*%
%ADD27O,1.905000X2.000000*%
%TD*%
%TA.AperFunction,Conductor*%
%ADD28C,0.400000*%
%TD*%
%ADD29C,0.350000*%
%ADD30O,1.500000X2.800000*%
G04 APERTURE END LIST*
D10*
%TO.P,OLED_I2C1,1,GND*%
%TO.N,Net-(J1-Pin_1)*%
X113301500Y-68150500D03*
D11*
%TO.P,OLED_I2C1,2,VCC*%
%TO.N,Net-(ESP1-VIN)*%
X115841500Y-68150500D03*
%TO.P,OLED_I2C1,3,SCL*%
%TO.N,Net-(ESP1-D22)*%
X118381500Y-68150500D03*
%TO.P,OLED_I2C1,4,SDA*%
%TO.N,Net-(ESP1-D21)*%
X120921500Y-68150500D03*
%TD*%
D12*
%TO.P,SW1,A,A*%
%TO.N,Net-(ESP1-D13)*%
X177748000Y-118547000D03*
D13*
%TO.P,SW1,B,B*%
%TO.N,Net-(ESP1-RX2)*%
X172748000Y-118547000D03*
%TO.P,SW1,C,C*%
%TO.N,Net-(J1-Pin_1)*%
X175248000Y-118547000D03*
D14*
%TO.P,SW1,MP*%
%TO.N,N/C*%
X180848000Y-126047001D03*
X169648000Y-126047001D03*
D13*
%TO.P,SW1,S1,S1*%
%TO.N,Net-(ESP1-VIN)*%
X172748000Y-133047000D03*
%TO.P,SW1,S2,S2*%
%TO.N,Net-(ESP1-D32)*%
X177748000Y-133047000D03*
%TD*%
D15*
%TO.P,H2,1*%
%TO.N,N/C*%
X170688000Y-57404000D03*
%TD*%
D16*
%TO.P,J5,1,Pin_1*%
%TO.N,Net-(J5-Pin_1)*%
X130088000Y-55891500D03*
D17*
%TO.P,J5,2,Pin_2*%
%TO.N,Net-(J1-Pin_1)*%
X132588000Y-55891500D03*
%TD*%
D16*
%TO.P,J7,1,Pin_1*%
%TO.N,Net-(J7-Pin_1)*%
X147868000Y-55947000D03*
D17*
%TO.P,J7,2,Pin_2*%
%TO.N,Net-(J1-Pin_1)*%
X150368000Y-55947000D03*
%TD*%
D15*
%TO.P,H3,1*%
%TO.N,N/C*%
X95885000Y-123511000D03*
%TD*%
D18*
%TO.P,ON1,1,K*%
%TO.N,Net-(ON1-K)*%
X103377998Y-123627001D03*
D19*
%TO.P,ON1,2,A*%
%TO.N,Net-(ESP1-D33)*%
X103377998Y-121087001D03*
%TD*%
D16*
%TO.P,J6,1,Pin_1*%
%TO.N,Net-(J6-Pin_1)*%
X138978000Y-55947000D03*
D17*
%TO.P,J6,2,Pin_2*%
%TO.N,Net-(J1-Pin_1)*%
X141478000Y-55947000D03*
%TD*%
D18*
%TO.P,PumpStatus2,1,K*%
%TO.N,Net-(PumpStatus2-K)*%
X137668001Y-123626998D03*
D19*
%TO.P,PumpStatus2,2,A*%
%TO.N,Net-(ESP1-D14)*%
X137668001Y-121086998D03*
%TD*%
D18*
%TO.P,PumpStatus3,1,K*%
%TO.N,Net-(PumpStatus3-K)*%
X149098001Y-123626999D03*
D19*
%TO.P,PumpStatus3,2,A*%
%TO.N,Net-(ESP1-D18)*%
X149098001Y-121086999D03*
%TD*%
D18*
%TO.P,PumpStatus1,1,K*%
%TO.N,Net-(PumpStatus1-K)*%
X125984000Y-123627001D03*
D19*
%TO.P,PumpStatus1,2,A*%
%TO.N,Net-(ESP1-D4)*%
X125984000Y-121087001D03*
%TD*%
D20*
%TO.P,J2,1,Pin_1*%
%TO.N,Net-(J1-Pin_1)*%
X179578000Y-78887000D03*
D21*
%TO.P,J2,2,Pin_2*%
%TO.N,Net-(ESP1-3V3)*%
X179578000Y-81387000D03*
%TO.P,J2,3,Pin_3*%
%TO.N,Net-(ESP1-D25)*%
X179578000Y-83887000D03*
%TD*%
D15*
%TO.P,H4,1*%
%TO.N,N/C*%
X180594000Y-109795000D03*
%TD*%
D20*
%TO.P,J4,1,Pin_1*%
%TO.N,Net-(J1-Pin_1)*%
X179578000Y-56027000D03*
D21*
%TO.P,J4,2,Pin_2*%
%TO.N,Net-(ESP1-3V3)*%
X179578000Y-58527000D03*
%TO.P,J4,3,Pin_3*%
%TO.N,Net-(ESP1-D27)*%
X179578000Y-61027000D03*
%TD*%
D18*
%TO.P,PumpStatus4,1,K*%
%TO.N,Net-(PumpStatus4-K)*%
X160528001Y-123626999D03*
D19*
%TO.P,PumpStatus4,2,A*%
%TO.N,Net-(ESP1-D19)*%
X160528001Y-121086999D03*
%TD*%
D10*
%TO.P,OLED_I2C2,1,GND*%
%TO.N,Net-(J1-Pin_1)*%
X149669500Y-68150500D03*
D11*
%TO.P,OLED_I2C2,2,VCC*%
%TO.N,Net-(ESP1-VIN)*%
X152209500Y-68150500D03*
%TO.P,OLED_I2C2,3,SCL*%
%TO.N,Net-(ESP1-D22)*%
X154749500Y-68150500D03*
%TO.P,OLED_I2C2,4,SDA*%
%TO.N,Net-(ESP1-D21)*%
X157289500Y-68150500D03*
%TD*%
D20*
%TO.P,J3,1,Pin_1*%
%TO.N,Net-(J1-Pin_1)*%
X179578000Y-67457000D03*
D21*
%TO.P,J3,2,Pin_2*%
%TO.N,Net-(ESP1-3V3)*%
X179578000Y-69957000D03*
%TO.P,J3,3,Pin_3*%
%TO.N,Net-(ESP1-D26)*%
X179578000Y-72457000D03*
%TD*%
D16*
%TO.P,J8,1,Pin_1*%
%TO.N,Net-(J8-Pin_1)*%
X156758000Y-55947000D03*
D17*
%TO.P,J8,2,Pin_2*%
%TO.N,Net-(J1-Pin_1)*%
X159258000Y-55947000D03*
%TD*%
D15*
%TO.P,H1,1*%
%TO.N,N/C*%
X97536000Y-57150000D03*
%TD*%
D20*
%TO.P,J1,1,Pin_1*%
%TO.N,Net-(J1-Pin_1)*%
X179578000Y-90317000D03*
D21*
%TO.P,J1,2,Pin_2*%
%TO.N,Net-(ESP1-3V3)*%
X179578000Y-92817000D03*
%TO.P,J1,3,Pin_3*%
%TO.N,Net-(ESP1-D23)*%
X179578000Y-95317000D03*
%TD*%
D22*
%TO.P,R6,1*%
%TO.N,Net-(PumpStatus4-K)*%
X160528000Y-127437000D03*
D23*
%TO.P,R6,2*%
%TO.N,Net-(J1-Pin_1)*%
X151729182Y-132517000D03*
%TD*%
D24*
%TO.P,Temp_sensor1,1,GND*%
%TO.N,Net-(J1-Pin_1)*%
X113849000Y-120719000D03*
D25*
%TO.P,Temp_sensor1,2,DQ*%
%TO.N,Net-(ESP1-TX2)*%
X112579000Y-120719000D03*
%TO.P,Temp_sensor1,3,VDD*%
%TO.N,Net-(ESP1-VIN)*%
X111309000Y-120719000D03*
%TD*%
D22*
%TO.P,R3,1*%
%TO.N,Net-(PumpStatus1-K)*%
X125984000Y-127437000D03*
D23*
%TO.P,R3,2*%
%TO.N,Net-(J1-Pin_1)*%
X117185182Y-132517000D03*
%TD*%
D22*
%TO.P,R2,1*%
%TO.N,Net-(ON1-K)*%
X103378000Y-127437000D03*
D23*
%TO.P,R2,2*%
%TO.N,Net-(J1-Pin_1)*%
X94579182Y-132517000D03*
%TD*%
D22*
%TO.P,R5,1*%
%TO.N,Net-(PumpStatus3-K)*%
X149098000Y-127437000D03*
D23*
%TO.P,R5,2*%
%TO.N,Net-(J1-Pin_1)*%
X140299182Y-132517000D03*
%TD*%
D26*
%TO.P,MOSFET4,1,G*%
%TO.N,Net-(ESP1-D19)*%
X160528000Y-116007000D03*
D27*
%TO.P,MOSFET4,2,D*%
%TO.N,Net-(ESP1-VIN)*%
X157988000Y-116007000D03*
%TO.P,MOSFET4,3,S*%
%TO.N,Net-(J8-Pin_1)*%
X155448000Y-116007000D03*
%TD*%
D26*
%TO.P,MOSFET1,1,G*%
%TO.N,Net-(ESP1-D4)*%
X125954500Y-116007000D03*
D27*
%TO.P,MOSFET1,2,D*%
%TO.N,Net-(ESP1-VIN)*%
X123414500Y-116007000D03*
%TO.P,MOSFET1,3,S*%
%TO.N,Net-(J5-Pin_1)*%
X120874500Y-116007000D03*
%TD*%
D22*
%TO.P,R1,1*%
%TO.N,Net-(ESP1-TX2)*%
X113538000Y-127437000D03*
D23*
%TO.P,R1,2*%
%TO.N,Net-(ESP1-VIN)*%
X104739182Y-132517000D03*
%TD*%
D22*
%TO.P,R4,1*%
%TO.N,Net-(PumpStatus2-K)*%
X137668000Y-127437000D03*
D23*
%TO.P,R4,2*%
%TO.N,Net-(J1-Pin_1)*%
X128869182Y-132517000D03*
%TD*%
D12*
%TO.P,ESP32-DevKit 30 pin,1,3V3*%
%TO.N,Net-(ESP1-3V3)*%
X100076000Y-64075000D03*
D13*
%TO.P,ESP32-DevKit 30 pin,2,GND*%
%TO.N,unconnected-(ESP1-GND-Pad2)*%
X102615999Y-64075000D03*
%TO.P,ESP32-DevKit 30 pin,3,D15*%
%TO.N,unconnected-(ESP1-D15-Pad3)*%
X105156000Y-64075000D03*
%TO.P,ESP32-DevKit 30 pin,4,D2*%
%TO.N,unconnected-(ESP1-D2-Pad4)*%
X107695999Y-64075000D03*
%TO.P,ESP32-DevKit 30 pin,5,D4*%
%TO.N,Net-(ESP1-D4)*%
X110236000Y-64075000D03*
%TO.P,ESP32-DevKit 30 pin,6,RX2*%
%TO.N,Net-(ESP1-RX2)*%
X112775999Y-64075000D03*
%TO.P,ESP32-DevKit 30 pin,7,TX2*%
%TO.N,Net-(ESP1-TX2)*%
X115316000Y-64075000D03*
%TO.P,ESP32-DevKit 30 pin,8,D5*%
%TO.N,unconnected-(ESP1-D5-Pad8)*%
X117856000Y-64074999D03*
%TO.P,ESP32-DevKit 30 pin,9,D18*%
%TO.N,Net-(ESP1-D18)*%
X120396000Y-64075000D03*
%TO.P,ESP32-DevKit 30 pin,10,D19*%
%TO.N,Net-(ESP1-D19)*%
X122936000Y-64074999D03*
%TO.P,ESP32-DevKit 30 pin,11,D21*%
%TO.N,Net-(ESP1-D21)*%
X125476000Y-64075000D03*
%TO.P,ESP32-DevKit 30 pin,12,RX0*%
%TO.N,unconnected-(ESP1-RX0-Pad12)*%
X128016000Y-64074999D03*
%TO.P,ESP32-DevKit 30 pin,13,TX0*%
%TO.N,unconnected-(ESP1-TX0-Pad13)*%
X130556000Y-64075000D03*
%TO.P,ESP32-DevKit 30 pin,14,D22*%
%TO.N,Net-(ESP1-D22)*%
X133096000Y-64075000D03*
%TO.P,ESP32-DevKit 30 pin,15,D23*%
%TO.N,Net-(ESP1-D23)*%
X135636000Y-64075000D03*
%TO.P,ESP32-DevKit 30 pin,16,EN*%
%TO.N,unconnected-(ESP1-EN-Pad16)*%
X135636000Y-89475000D03*
%TO.P,ESP32-DevKit 30 pin,17,VP*%
%TO.N,unconnected-(ESP1-VP-Pad17)*%
X133096000Y-89475000D03*
%TO.P,ESP32-DevKit 30 pin,18,VN*%
%TO.N,unconnected-(ESP1-VN-Pad18)*%
X130556000Y-89475000D03*
%TO.P,ESP32-DevKit 30 pin,19,D34*%
%TO.N,unconnected-(ESP1-D34-Pad19)*%
X128016000Y-89475001D03*
%TO.P,ESP32-DevKit 30 pin,20,D35*%
%TO.N,unconnected-(ESP1-D35-Pad20)*%
X125476000Y-89475000D03*
%TO.P,ESP32-DevKit 30 pin,21,D32*%
%TO.N,Net-(ESP1-D32)*%
X122936001Y-89475000D03*
%TO.P,ESP32-DevKit 30 pin,22,D33*%
%TO.N,Net-(ESP1-D33)*%
X120396000Y-89475000D03*
%TO.P,ESP32-DevKit 30 pin,23,D25*%
%TO.N,Net-(ESP1-D25)*%
X117856001Y-89475000D03*
%TO.P,ESP32-DevKit 30 pin,24,D26*%
%TO.N,Net-(ESP1-D26)*%
X115316000Y-89475000D03*
%TO.P,ESP32-DevKit 30 pin,25,D27*%
%TO.N,Net-(ESP1-D27)*%
X112776000Y-89475001D03*
%TO.P,ESP32-DevKit 30 pin,26,D14*%
%TO.N,Net-(ESP1-D14)*%
X110236000Y-89475000D03*
%TO.P,ESP32-DevKit 30 pin,27,D12*%
%TO.N,unconnected-(ESP1-D12-Pad27)*%
X107696000Y-89475001D03*
%TO.P,ESP32-DevKit 30 pin,28,D13*%
%TO.N,Net-(ESP1-D13)*%
X105156000Y-89475000D03*
%TO.P,ESP32-DevKit 30 pin,29,GND*%
%TO.N,Net-(J1-Pin_1)*%
X102616000Y-89475001D03*
%TO.P,ESP32-DevKit 30 pin,30,VIN*%
%TO.N,Net-(ESP1-VIN)*%
X100076000Y-89475000D03*
%TD*%
D26*
%TO.P,MOSFET2,1,G*%
%TO.N,Net-(ESP1-D14)*%
X137668000Y-116007000D03*
D27*
%TO.P,MOSFET2,2,D*%
%TO.N,Net-(ESP1-VIN)*%
X135128000Y-116007000D03*
%TO.P,MOSFET2,3,S*%
%TO.N,Net-(J6-Pin_1)*%
X132588000Y-116007000D03*
%TD*%
D26*
%TO.P,MOSFET3,1,G*%
%TO.N,Net-(ESP1-D18)*%
X149098000Y-116007000D03*
D27*
%TO.P,MOSFET3,2,D*%
%TO.N,Net-(ESP1-VIN)*%
X146558000Y-116007000D03*
%TO.P,MOSFET3,3,S*%
%TO.N,Net-(J7-Pin_1)*%
X144018000Y-116007000D03*
%TD*%
D28*
%TO.N,Net-(ESP1-D22)*%
X119544500Y-69313500D02*
X127857500Y-69313500D01*
X127857500Y-69313500D02*
X133096000Y-64075000D01*
X118381500Y-68150500D02*
X119544500Y-69313500D01*
%TO.N,Net-(ESP1-D14)*%
X135792003Y-119211000D02*
X119201174Y-119211000D01*
X119201174Y-119211000D02*
X115223000Y-115232826D01*
X137668001Y-121086998D02*
X135792003Y-119211000D01*
X115223000Y-94462000D02*
X110236000Y-89475000D01*
X115223000Y-115232826D02*
X115223000Y-94462000D01*
%TO.N,Net-(ESP1-D25)*%
X117856001Y-115316001D02*
X117856001Y-89475000D01*
X119948000Y-117408000D02*
X117856001Y-115316001D01*
X161881500Y-101583500D02*
X161881500Y-117408000D01*
X179578000Y-83887000D02*
X161881500Y-101583500D01*
X161881500Y-117408000D02*
X119948000Y-117408000D01*
%TO.N,Net-(ESP1-D27)*%
X119450116Y-118610000D02*
X115824000Y-114983884D01*
X182156000Y-98833384D02*
X162379384Y-118610000D01*
X179578000Y-61027000D02*
X182156000Y-63605000D01*
X162379384Y-118610000D02*
X119450116Y-118610000D01*
X115824000Y-92523001D02*
X112776000Y-89475001D01*
X182156000Y-63605000D02*
X182156000Y-98833384D01*
X115824000Y-114983884D02*
X115824000Y-92523001D01*
%TO.N,Net-(ESP1-RX2)*%
X112454497Y-124928001D02*
X108619000Y-121092504D01*
X91762000Y-69587000D02*
X98675000Y-62674000D01*
X108619000Y-121092504D02*
X108619000Y-110318884D01*
X98675000Y-62674000D02*
X111374999Y-62674000D01*
X108619000Y-110318884D02*
X91762000Y-93461884D01*
X172748000Y-118547000D02*
X171915000Y-119380000D01*
X138968998Y-124928001D02*
X112454497Y-124928001D01*
X144272000Y-119380000D02*
X144272000Y-119624999D01*
X144272000Y-119624999D02*
X138968998Y-124928001D01*
X91762000Y-91948000D02*
X91762000Y-69587000D01*
X91762000Y-93461884D02*
X91762000Y-91948000D01*
X111374999Y-62674000D02*
X112775999Y-64075000D01*
X171915000Y-119380000D02*
X144272000Y-119380000D01*
%TO.N,Net-(ESP1-D23)*%
X178202000Y-72975181D02*
X178202000Y-72538000D01*
X180954000Y-75727181D02*
X178202000Y-72975181D01*
X128837000Y-57276000D02*
X135636000Y-64075000D01*
X179578000Y-95317000D02*
X180954000Y-93941000D01*
X178202000Y-72538000D02*
X160154500Y-54490500D01*
X128837000Y-54864920D02*
X128837000Y-57276000D01*
X129211420Y-54490500D02*
X128837000Y-54864920D01*
X180954000Y-93941000D02*
X180954000Y-75727181D01*
X160154500Y-54490500D02*
X129211420Y-54490500D01*
%TO.N,Net-(ESP1-D19)*%
X90560000Y-93959768D02*
X90560000Y-69089116D01*
X155484999Y-126130001D02*
X111956613Y-126130001D01*
X111956613Y-126130001D02*
X107188000Y-121361388D01*
X120236001Y-61375000D02*
X122936000Y-64074999D01*
X107188000Y-110587768D02*
X90560000Y-93959768D01*
X90560000Y-69089116D02*
X98274116Y-61375000D01*
X160528001Y-121086999D02*
X155484999Y-126130001D01*
X107188000Y-121361388D02*
X107188000Y-110587768D01*
X98274116Y-61375000D02*
X120236001Y-61375000D01*
%TO.N,Net-(ESP1-D26)*%
X162130442Y-118009000D02*
X119699058Y-118009000D01*
X181555000Y-98584442D02*
X162130442Y-118009000D01*
X181555000Y-74434000D02*
X181555000Y-98584442D01*
X116840000Y-90999000D02*
X115316000Y-89475000D01*
X179578000Y-72457000D02*
X181555000Y-74434000D01*
X116840000Y-115149942D02*
X116840000Y-90999000D01*
X119699058Y-118009000D02*
X116840000Y-115149942D01*
%TO.N,Net-(ESP1-D18)*%
X108018000Y-121341446D02*
X108018000Y-110567826D01*
X91161000Y-93710826D02*
X91161000Y-69338058D01*
X112205555Y-125529001D02*
X108018000Y-121341446D01*
X144655999Y-125529001D02*
X112205555Y-125529001D01*
X108018000Y-110567826D02*
X91161000Y-93710826D01*
X149098001Y-121086999D02*
X144655999Y-125529001D01*
X118297000Y-61976000D02*
X120396000Y-64075000D01*
X98523058Y-61976000D02*
X118297000Y-61976000D01*
X91161000Y-69338058D02*
X98523058Y-61976000D01*
%TO.N,Net-(ESP1-VIN)*%
X115841500Y-73709500D02*
X115841500Y-68150500D01*
X100076000Y-89475000D02*
X115841500Y-73709500D01*
%TO.N,Net-(ESP1-TX2)*%
X92964000Y-83820000D02*
X111308000Y-65476000D01*
X111308000Y-65476000D02*
X113915000Y-65476000D01*
X112268000Y-112268000D02*
X92964000Y-92964000D01*
X92964000Y-92964000D02*
X92964000Y-83820000D01*
X112268000Y-121087000D02*
X112268000Y-112268000D01*
X113915000Y-65476000D02*
X115316000Y-64075000D01*
%TO.N,Net-(ESP1-D4)*%
X92363000Y-83571058D02*
X109728000Y-66206058D01*
X110236000Y-65532000D02*
X110236000Y-64075000D01*
X110614438Y-122238000D02*
X109220000Y-120843562D01*
X109220000Y-110069942D02*
X92363000Y-93212942D01*
X109728000Y-66040000D02*
X110236000Y-65532000D01*
X125984000Y-121087001D02*
X124833001Y-122238000D01*
X92363000Y-93212942D02*
X92363000Y-83571058D01*
X109728000Y-66206058D02*
X109728000Y-66040000D01*
X124833001Y-122238000D02*
X110614438Y-122238000D01*
X109220000Y-120843562D02*
X109220000Y-110069942D01*
%TO.N,Net-(J5-Pin_1)*%
X142240000Y-94641500D02*
X142240000Y-68072000D01*
X120874500Y-116007000D02*
X142240000Y-94641500D01*
X130088000Y-55920000D02*
X130088000Y-55891500D01*
X142240000Y-68072000D02*
X130088000Y-55920000D01*
%TO.N,Net-(J6-Pin_1)*%
X132588000Y-116007000D02*
X132588000Y-105156000D01*
X142841000Y-94903000D02*
X142841000Y-59810000D01*
X132588000Y-105156000D02*
X142841000Y-94903000D01*
X142841000Y-59810000D02*
X138978000Y-55947000D01*
%TO.N,Net-(J7-Pin_1)*%
X144018000Y-59797000D02*
X147868000Y-55947000D01*
X144018000Y-116007000D02*
X144018000Y-59797000D01*
%TO.N,Net-(J8-Pin_1)*%
X144619000Y-68086000D02*
X156758000Y-55947000D01*
X155448000Y-105825000D02*
X144619000Y-94996000D01*
X144619000Y-94996000D02*
X144619000Y-68086000D01*
X155448000Y-116007000D02*
X155448000Y-105825000D01*
%TD*%
%TA.AperFunction,NonConductor*%
G36*
X182102404Y-49692185D02*
G01*
X182123046Y-49708819D01*
X187086181Y-54671954D01*
X187119666Y-54733277D01*
X187122500Y-54759635D01*
X187122500Y-132064365D01*
X187102815Y-132131404D01*
X187086181Y-132152046D01*
X182123046Y-137115181D01*
X182061723Y-137148666D01*
X182035365Y-137151500D01*
X94570635Y-137151500D01*
X94503596Y-137131815D01*
X94482954Y-137115181D01*
X89781792Y-132414019D01*
X93270682Y-132414019D01*
X93270682Y-132619980D01*
X93302901Y-132823408D01*
X93366549Y-133019294D01*
X93460055Y-133202806D01*
X93581108Y-133369423D01*
X93581112Y-133369428D01*
X93726753Y-133515069D01*
X93726758Y-133515073D01*
X93872090Y-133620661D01*
X93893379Y-133636129D01*
X94010310Y-133695709D01*
X94076887Y-133729632D01*
X94076889Y-133729632D01*
X94076892Y-133729634D01*
X94181889Y-133763749D01*
X94272773Y-133793280D01*
X94374487Y-133809390D01*
X94476201Y-133825500D01*
X94476202Y-133825500D01*
X94682162Y-133825500D01*
X94682163Y-133825500D01*
X94885590Y-133793280D01*
X95081472Y-133729634D01*
X95264985Y-133636129D01*
X95431612Y-133515068D01*
X95577250Y-133369430D01*
X95698311Y-133202803D01*
X95791816Y-133019290D01*
X95855462Y-132823408D01*
X95887682Y-132619981D01*
X95887682Y-132414019D01*
X103430682Y-132414019D01*
X103430682Y-132619980D01*
X103462901Y-132823408D01*
X103526549Y-133019294D01*
X103620055Y-133202806D01*
X103741108Y-133369423D01*
X103741112Y-133369428D01*
X103886753Y-133515069D01*
X103886758Y-133515073D01*
X104032090Y-133620661D01*
X104053379Y-133636129D01*
X104170310Y-133695709D01*
X104236887Y-133729632D01*
X104236889Y-133729632D01*
X104236892Y-133729634D01*
X104341889Y-133763749D01*
X104432773Y-133793280D01*
X104534487Y-133809390D01*
X104636201Y-133825500D01*
X104636202Y-133825500D01*
X104842162Y-133825500D01*
X104842163Y-133825500D01*
X105045590Y-133793280D01*
X105241472Y-133729634D01*
X105424985Y-133636129D01*
X105591612Y-133515068D01*
X105737250Y-133369430D01*
X105858311Y-133202803D01*
X105951816Y-133019290D01*
X106015462Y-132823408D01*
X106047682Y-132619981D01*
X106047682Y-132414019D01*
X115876682Y-132414019D01*
X115876682Y-132619980D01*
X115908901Y-132823408D01*
X115972549Y-133019294D01*
X116066055Y-133202806D01*
X116187108Y-133369423D01*
X116187112Y-133369428D01*
X116332753Y-133515069D01*
X116332758Y-133515073D01*
X116478090Y-133620661D01*
X116499379Y-133636129D01*
X116616310Y-133695709D01*
X116682887Y-133729632D01*
X116682889Y-133729632D01*
X116682892Y-133729634D01*
X116787889Y-133763749D01*
X116878773Y-133793280D01*
X116980487Y-133809390D01*
X117082201Y-133825500D01*
X117082202Y-133825500D01*
X117288162Y-133825500D01*
X117288163Y-133825500D01*
X117491590Y-133793280D01*
X117687472Y-133729634D01*
X117870985Y-133636129D01*
X118037612Y-133515068D01*
X118183250Y-133369430D01*
X118304311Y-133202803D01*
X118397816Y-133019290D01*
X118461462Y-132823408D01*
X118493682Y-132619981D01*
X118493682Y-132414019D01*
X127560682Y-132414019D01*
X127560682Y-132619980D01*
X127592901Y-132823408D01*
X127656549Y-133019294D01*
X127750055Y-133202806D01*
X127871108Y-133369423D01*
X127871112Y-133369428D01*
X128016753Y-133515069D01*
X128016758Y-133515073D01*
X128162090Y-133620661D01*
X128183379Y-133636129D01*
X128300310Y-133695709D01*
X128366887Y-133729632D01*
X128366889Y-133729632D01*
X128366892Y-133729634D01*
X128471889Y-133763749D01*
X128562773Y-133793280D01*
X128664487Y-133809390D01*
X128766201Y-133825500D01*
X128766202Y-133825500D01*
X128972162Y-133825500D01*
X128972163Y-133825500D01*
X129175590Y-133793280D01*
X129371472Y-133729634D01*
X129554985Y-133636129D01*
X129721612Y-133515068D01*
X129867250Y-133369430D01*
X129988311Y-133202803D01*
X130081816Y-133019290D01*
X130145462Y-132823408D01*
X130177682Y-132619981D01*
X130177682Y-132414019D01*
X138990682Y-132414019D01*
X138990682Y-132619980D01*
X139022901Y-132823408D01*
X139086549Y-133019294D01*
X139180055Y-133202806D01*
X139301108Y-133369423D01*
X139301112Y-133369428D01*
X139446753Y-133515069D01*
X139446758Y-133515073D01*
X139592090Y-133620661D01*
X139613379Y-133636129D01*
X139730310Y-133695709D01*
X139796887Y-133729632D01*
X139796889Y-133729632D01*
X139796892Y-133729634D01*
X139901889Y-133763749D01*
X139992773Y-133793280D01*
X140094487Y-133809390D01*
X140196201Y-133825500D01*
X140196202Y-133825500D01*
X140402162Y-133825500D01*
X140402163Y-133825500D01*
X140605590Y-133793280D01*
X140801472Y-133729634D01*
X140984985Y-133636129D01*
X141151612Y-133515068D01*
X141297250Y-133369430D01*
X141418311Y-133202803D01*
X141511816Y-133019290D01*
X141575462Y-132823408D01*
X141607682Y-132619981D01*
X141607682Y-132414019D01*
X150420682Y-132414019D01*
X150420682Y-132619980D01*
X150452901Y-132823408D01*
X150516549Y-133019294D01*
X150610055Y-133202806D01*
X150731108Y-133369423D01*
X150731112Y-133369428D01*
X150876753Y-133515069D01*
X150876758Y-133515073D01*
X151022090Y-133620661D01*
X151043379Y-133636129D01*
X151160310Y-133695709D01*
X151226887Y-133729632D01*
X151226889Y-133729632D01*
X151226892Y-133729634D01*
X151331889Y-133763749D01*
X151422773Y-133793280D01*
X151524487Y-133809390D01*
X151626201Y-133825500D01*
X151626202Y-133825500D01*
X151832162Y-133825500D01*
X151832163Y-133825500D01*
X152035590Y-133793280D01*
X152231472Y-133729634D01*
X152414985Y-133636129D01*
X152581612Y-133515068D01*
X152727250Y-133369430D01*
X152848311Y-133202803D01*
X152941816Y-133019290D01*
X152971390Y-132928272D01*
X171239500Y-132928272D01*
X171239500Y-133165727D01*
X171276643Y-133400241D01*
X171350019Y-133626067D01*
X171435219Y-133793280D01*
X171457815Y-133837627D01*
X171597380Y-134029722D01*
X171765278Y-134197620D01*
X171957373Y-134337185D01*
X172057328Y-134388114D01*
X172168932Y-134444980D01*
X172168934Y-134444980D01*
X172168937Y-134444982D01*
X172289984Y-134484312D01*
X172394758Y-134518356D01*
X172629273Y-134555500D01*
X172629278Y-134555500D01*
X172866727Y-134555500D01*
X173101241Y-134518356D01*
X173327063Y-134444982D01*
X173538627Y-134337185D01*
X173730722Y-134197620D01*
X173898620Y-134029722D01*
X174038185Y-133837627D01*
X174145982Y-133626063D01*
X174219356Y-133400241D01*
X174224237Y-133369423D01*
X174256500Y-133165727D01*
X174256500Y-132928272D01*
X176239500Y-132928272D01*
X176239500Y-133165727D01*
X176276643Y-133400241D01*
X176350019Y-133626067D01*
X176435219Y-133793280D01*
X176457815Y-133837627D01*
X176597380Y-134029722D01*
X176765278Y-134197620D01*
X176957373Y-134337185D01*
X177057328Y-134388114D01*
X177168932Y-134444980D01*
X177168934Y-134444980D01*
X177168937Y-134444982D01*
X177289984Y-134484312D01*
X177394758Y-134518356D01*
X177629273Y-134555500D01*
X177629278Y-134555500D01*
X177866727Y-134555500D01*
X178101241Y-134518356D01*
X178327063Y-134444982D01*
X178538627Y-134337185D01*
X178730722Y-134197620D01*
X178898620Y-134029722D01*
X179038185Y-133837627D01*
X179145982Y-133626063D01*
X179219356Y-133400241D01*
X179224237Y-133369423D01*
X179256500Y-133165727D01*
X179256500Y-132928272D01*
X179219356Y-132693758D01*
X179145980Y-132467932D01*
X179038184Y-132256372D01*
X178962387Y-132152046D01*
X178898620Y-132064278D01*
X178730722Y-131896380D01*
X178538627Y-131756815D01*
X178327067Y-131649019D01*
X178101241Y-131575643D01*
X177866727Y-131538500D01*
X177866722Y-131538500D01*
X177629278Y-131538500D01*
X177629273Y-131538500D01*
X177394758Y-131575643D01*
X177168932Y-131649019D01*
X176957372Y-131756815D01*
X176765275Y-131896382D01*
X176597382Y-132064275D01*
X176457815Y-132256372D01*
X176350019Y-132467932D01*
X176276643Y-132693758D01*
X176239500Y-132928272D01*
X174256500Y-132928272D01*
X174219356Y-132693758D01*
X174145980Y-132467932D01*
X174038184Y-132256372D01*
X173962387Y-132152046D01*
X173898620Y-132064278D01*
X173730722Y-131896380D01*
X173538627Y-131756815D01*
X173327067Y-131649019D01*
X173101241Y-131575643D01*
X172866727Y-131538500D01*
X172866722Y-131538500D01*
X172629278Y-131538500D01*
X172629273Y-131538500D01*
X172394758Y-131575643D01*
X172168932Y-131649019D01*
X171957372Y-131756815D01*
X171765275Y-131896382D01*
X171597382Y-132064275D01*
X171457815Y-132256372D01*
X171350019Y-132467932D01*
X171276643Y-132693758D01*
X171239500Y-132928272D01*
X152971390Y-132928272D01*
X153005462Y-132823408D01*
X153037682Y-132619981D01*
X153037682Y-132414019D01*
X153005462Y-132210592D01*
X152941816Y-132014710D01*
X152941814Y-132014707D01*
X152941814Y-132014705D01*
X152907891Y-131948128D01*
X152848311Y-131831197D01*
X152794270Y-131756815D01*
X152727255Y-131664576D01*
X152727251Y-131664571D01*
X152581610Y-131518930D01*
X152581605Y-131518926D01*
X152414988Y-131397873D01*
X152414987Y-131397872D01*
X152414985Y-131397871D01*
X152357678Y-131368671D01*
X152231476Y-131304367D01*
X152035590Y-131240719D01*
X151859976Y-131212905D01*
X151832163Y-131208500D01*
X151626201Y-131208500D01*
X151601732Y-131212375D01*
X151422773Y-131240719D01*
X151226887Y-131304367D01*
X151043375Y-131397873D01*
X150876758Y-131518926D01*
X150876753Y-131518930D01*
X150731112Y-131664571D01*
X150731108Y-131664576D01*
X150610055Y-131831193D01*
X150516549Y-132014705D01*
X150452901Y-132210591D01*
X150420682Y-132414019D01*
X141607682Y-132414019D01*
X141575462Y-132210592D01*
X141511816Y-132014710D01*
X141511814Y-132014707D01*
X141511814Y-132014705D01*
X141477891Y-131948128D01*
X141418311Y-131831197D01*
X141364270Y-131756815D01*
X141297255Y-131664576D01*
X141297251Y-131664571D01*
X141151610Y-131518930D01*
X141151605Y-131518926D01*
X140984988Y-131397873D01*
X140984987Y-131397872D01*
X140984985Y-131397871D01*
X140927678Y-131368671D01*
X140801476Y-131304367D01*
X140605590Y-131240719D01*
X140429976Y-131212905D01*
X140402163Y-131208500D01*
X140196201Y-131208500D01*
X140171732Y-131212375D01*
X139992773Y-131240719D01*
X139796887Y-131304367D01*
X139613375Y-131397873D01*
X139446758Y-131518926D01*
X139446753Y-131518930D01*
X139301112Y-131664571D01*
X139301108Y-131664576D01*
X139180055Y-131831193D01*
X139086549Y-132014705D01*
X139022901Y-132210591D01*
X138990682Y-132414019D01*
X130177682Y-132414019D01*
X130145462Y-132210592D01*
X130081816Y-132014710D01*
X130081814Y-132014707D01*
X130081814Y-132014705D01*
X130047891Y-131948128D01*
X129988311Y-131831197D01*
X129934270Y-131756815D01*
X129867255Y-131664576D01*
X129867251Y-131664571D01*
X129721610Y-131518930D01*
X129721605Y-131518926D01*
X129554988Y-131397873D01*
X129554987Y-131397872D01*
X129554985Y-131397871D01*
X129497678Y-131368671D01*
X129371476Y-131304367D01*
X129175590Y-131240719D01*
X128999976Y-131212905D01*
X128972163Y-131208500D01*
X128766201Y-131208500D01*
X128741732Y-131212375D01*
X128562773Y-131240719D01*
X128366887Y-131304367D01*
X128183375Y-131397873D01*
X128016758Y-131518926D01*
X128016753Y-131518930D01*
X127871112Y-131664571D01*
X127871108Y-131664576D01*
X127750055Y-131831193D01*
X127656549Y-132014705D01*
X127592901Y-132210591D01*
X127560682Y-132414019D01*
X118493682Y-132414019D01*
X118461462Y-132210592D01*
X118397816Y-132014710D01*
X118397814Y-132014707D01*
X118397814Y-132014705D01*
X118363891Y-131948128D01*
X118304311Y-131831197D01*
X118250270Y-131756815D01*
X118183255Y-131664576D01*
X118183251Y-131664571D01*
X118037610Y-131518930D01*
X118037605Y-131518926D01*
X117870988Y-131397873D01*
X117870987Y-131397872D01*
X117870985Y-131397871D01*
X117813678Y-131368671D01*
X117687476Y-131304367D01*
X117491590Y-131240719D01*
X117315976Y-131212905D01*
X117288163Y-131208500D01*
X117082201Y-131208500D01*
X117057732Y-131212375D01*
X116878773Y-131240719D01*
X116682887Y-131304367D01*
X116499375Y-131397873D01*
X116332758Y-131518926D01*
X116332753Y-131518930D01*
X116187112Y-131664571D01*
X116187108Y-131664576D01*
X116066055Y-131831193D01*
X115972549Y-132014705D01*
X115908901Y-132210591D01*
X115876682Y-132414019D01*
X106047682Y-132414019D01*
X106015462Y-132210592D01*
X105951816Y-132014710D01*
X105951814Y-132014707D01*
X105951814Y-132014705D01*
X105917891Y-131948128D01*
X105858311Y-131831197D01*
X105804270Y-131756815D01*
X105737255Y-131664576D01*
X105737251Y-131664571D01*
X105591610Y-131518930D01*
X105591605Y-131518926D01*
X105424988Y-131397873D01*
X105424987Y-131397872D01*
X105424985Y-131397871D01*
X105367678Y-131368671D01*
X105241476Y-131304367D01*
X105045590Y-131240719D01*
X104869976Y-131212905D01*
X104842163Y-131208500D01*
X104636201Y-131208500D01*
X104611732Y-131212375D01*
X104432773Y-131240719D01*
X104236887Y-131304367D01*
X104053375Y-131397873D01*
X103886758Y-131518926D01*
X103886753Y-131518930D01*
X103741112Y-131664571D01*
X103741108Y-131664576D01*
X103620055Y-131831193D01*
X103526549Y-132014705D01*
X103462901Y-132210591D01*
X103430682Y-132414019D01*
X95887682Y-132414019D01*
X95855462Y-132210592D01*
X95791816Y-132014710D01*
X95791814Y-132014707D01*
X95791814Y-132014705D01*
X95757891Y-131948128D01*
X95698311Y-131831197D01*
X95644270Y-131756815D01*
X95577255Y-131664576D01*
X95577251Y-131664571D01*
X95431610Y-131518930D01*
X95431605Y-131518926D01*
X95264988Y-131397873D01*
X95264987Y-131397872D01*
X95264985Y-131397871D01*
X95207678Y-131368671D01*
X95081476Y-131304367D01*
X94885590Y-131240719D01*
X94709976Y-131212905D01*
X94682163Y-131208500D01*
X94476201Y-131208500D01*
X94451732Y-131212375D01*
X94272773Y-131240719D01*
X94076887Y-131304367D01*
X93893375Y-131397873D01*
X93726758Y-131518926D01*
X93726753Y-131518930D01*
X93581112Y-131664571D01*
X93581108Y-131664576D01*
X93460055Y-131831193D01*
X93366549Y-132014705D01*
X93302901Y-132210591D01*
X93270682Y-132414019D01*
X89781792Y-132414019D01*
X89519819Y-132152046D01*
X89486334Y-132090723D01*
X89483500Y-132064365D01*
X89483500Y-127334019D01*
X102069500Y-127334019D01*
X102069500Y-127539980D01*
X102101719Y-127743408D01*
X102165367Y-127939294D01*
X102258873Y-128122806D01*
X102379926Y-128289423D01*
X102379930Y-128289428D01*
X102525571Y-128435069D01*
X102525576Y-128435073D01*
X102670908Y-128540661D01*
X102692197Y-128556129D01*
X102809128Y-128615709D01*
X102875705Y-128649632D01*
X102875707Y-128649632D01*
X102875710Y-128649634D01*
X102980707Y-128683749D01*
X103071591Y-128713280D01*
X103173305Y-128729390D01*
X103275019Y-128745500D01*
X103275020Y-128745500D01*
X103480980Y-128745500D01*
X103480981Y-128745500D01*
X103684408Y-128713280D01*
X103880290Y-128649634D01*
X104063803Y-128556129D01*
X104230430Y-128435068D01*
X104376068Y-128289430D01*
X104497129Y-128122803D01*
X104590634Y-127939290D01*
X104654280Y-127743408D01*
X104686500Y-127539981D01*
X104686500Y-127334019D01*
X104654280Y-127130592D01*
X104590634Y-126934710D01*
X104590632Y-126934707D01*
X104590632Y-126934705D01*
X104541613Y-126838501D01*
X104497129Y-126751197D01*
X104445641Y-126680329D01*
X104376073Y-126584576D01*
X104376069Y-126584571D01*
X104230428Y-126438930D01*
X104230423Y-126438926D01*
X104063806Y-126317873D01*
X104063805Y-126317872D01*
X104063803Y-126317871D01*
X103954408Y-126262131D01*
X103880294Y-126224367D01*
X103684408Y-126160719D01*
X103508794Y-126132905D01*
X103480981Y-126128500D01*
X103275019Y-126128500D01*
X103250550Y-126132375D01*
X103071591Y-126160719D01*
X102875705Y-126224367D01*
X102692193Y-126317873D01*
X102525576Y-126438926D01*
X102525571Y-126438930D01*
X102379930Y-126584571D01*
X102379926Y-126584576D01*
X102258873Y-126751193D01*
X102165367Y-126934705D01*
X102101719Y-127130591D01*
X102069500Y-127334019D01*
X89483500Y-127334019D01*
X89483500Y-123328813D01*
X92176500Y-123328813D01*
X92176500Y-123693187D01*
X92179389Y-123722521D01*
X92212213Y-124055795D01*
X92212216Y-124055812D01*
X92283295Y-124413158D01*
X92283298Y-124413169D01*
X92389074Y-124761868D01*
X92528514Y-125098502D01*
X92528516Y-125098507D01*
X92700271Y-125419837D01*
X92700282Y-125419855D01*
X92902707Y-125722806D01*
X92902717Y-125722820D01*
X93133873Y-126004485D01*
X93391514Y-126262126D01*
X93391519Y-126262130D01*
X93391520Y-126262131D01*
X93673185Y-126493287D01*
X93976151Y-126695722D01*
X93976160Y-126695727D01*
X93976162Y-126695728D01*
X94297492Y-126867483D01*
X94297494Y-126867483D01*
X94297500Y-126867487D01*
X94502665Y-126952469D01*
X94634131Y-127006925D01*
X94634135Y-127006926D01*
X94634137Y-127006927D01*
X94982821Y-127112699D01*
X94982827Y-127112700D01*
X94982830Y-127112701D01*
X94982841Y-127112704D01*
X95206927Y-127157276D01*
X95340194Y-127183785D01*
X95702813Y-127219500D01*
X95702816Y-127219500D01*
X96067184Y-127219500D01*
X96067187Y-127219500D01*
X96429806Y-127183785D01*
X96606696Y-127148599D01*
X96787158Y-127112704D01*
X96787169Y-127112701D01*
X96787169Y-127112700D01*
X96787179Y-127112699D01*
X97135863Y-127006927D01*
X97472500Y-126867487D01*
X97793849Y-126695722D01*
X98096815Y-126493287D01*
X98378480Y-126262131D01*
X98636131Y-126004480D01*
X98867287Y-125722815D01*
X99069722Y-125419849D01*
X99241487Y-125098500D01*
X99380927Y-124761863D01*
X99486699Y-124413179D01*
X99486701Y-124413169D01*
X99486704Y-124413158D01*
X99528945Y-124200796D01*
X99557785Y-124055806D01*
X99593500Y-123693187D01*
X99593500Y-123328813D01*
X99557785Y-122966194D01*
X99500532Y-122678363D01*
X99486704Y-122608841D01*
X99486701Y-122608830D01*
X99486700Y-122608827D01*
X99486699Y-122608821D01*
X99380927Y-122260137D01*
X99376833Y-122250254D01*
X99292389Y-122046388D01*
X99241487Y-121923500D01*
X99188951Y-121825213D01*
X99069728Y-121602162D01*
X99069727Y-121602160D01*
X99069722Y-121602151D01*
X98867287Y-121299185D01*
X98636131Y-121017520D01*
X98636130Y-121017519D01*
X98636126Y-121017514D01*
X98594762Y-120976150D01*
X101969498Y-120976150D01*
X101969498Y-121197851D01*
X102004180Y-121416825D01*
X102072691Y-121627681D01*
X102167132Y-121813030D01*
X102173341Y-121825216D01*
X102303655Y-122004577D01*
X102303657Y-122004579D01*
X102345469Y-122046391D01*
X102378954Y-122107714D01*
X102373970Y-122177406D01*
X102332098Y-122233339D01*
X102301123Y-122250253D01*
X102231793Y-122276112D01*
X102114737Y-122363740D01*
X102027109Y-122480796D01*
X101976009Y-122617796D01*
X101976009Y-122617798D01*
X101969498Y-122678346D01*
X101969498Y-124575655D01*
X101976009Y-124636203D01*
X101976009Y-124636205D01*
X102017712Y-124748012D01*
X102027109Y-124773205D01*
X102114737Y-124890262D01*
X102231794Y-124977890D01*
X102346947Y-125020840D01*
X102368791Y-125028988D01*
X102368797Y-125028990D01*
X102396048Y-125031919D01*
X102429343Y-125035500D01*
X102429360Y-125035501D01*
X104326636Y-125035501D01*
X104326652Y-125035500D01*
X104353690Y-125032592D01*
X104387199Y-125028990D01*
X104387205Y-125028988D01*
X104401766Y-125023556D01*
X104524202Y-124977890D01*
X104641259Y-124890262D01*
X104728887Y-124773205D01*
X104779987Y-124636202D01*
X104783589Y-124602693D01*
X104786497Y-124575655D01*
X104786498Y-124575638D01*
X104786498Y-122678363D01*
X104786497Y-122678346D01*
X104783155Y-122647271D01*
X104779987Y-122617800D01*
X104779985Y-122617795D01*
X104757520Y-122557565D01*
X104728887Y-122480797D01*
X104641259Y-122363740D01*
X104570919Y-122311084D01*
X104524204Y-122276113D01*
X104524202Y-122276112D01*
X104454871Y-122250252D01*
X104398939Y-122208382D01*
X104374523Y-122142917D01*
X104389375Y-122074644D01*
X104410524Y-122046393D01*
X104452341Y-122004577D01*
X104582655Y-121825216D01*
X104683306Y-121627677D01*
X104751816Y-121416825D01*
X104786498Y-121197852D01*
X104786498Y-120976150D01*
X104751816Y-120757177D01*
X104683306Y-120546325D01*
X104683304Y-120546322D01*
X104683304Y-120546320D01*
X104604780Y-120392209D01*
X104582655Y-120348786D01*
X104452341Y-120169425D01*
X104295574Y-120012658D01*
X104116213Y-119882344D01*
X104030881Y-119838865D01*
X103918678Y-119781694D01*
X103707822Y-119713183D01*
X103609542Y-119697617D01*
X103488849Y-119678501D01*
X103267147Y-119678501D01*
X103157660Y-119695842D01*
X103048173Y-119713183D01*
X102837317Y-119781694D01*
X102639782Y-119882344D01*
X102538654Y-119955819D01*
X102460422Y-120012658D01*
X102460420Y-120012660D01*
X102460419Y-120012660D01*
X102303657Y-120169422D01*
X102303657Y-120169423D01*
X102303655Y-120169425D01*
X102286862Y-120192539D01*
X102173341Y-120348785D01*
X102072691Y-120546320D01*
X102004180Y-120757176D01*
X101969498Y-120976150D01*
X98594762Y-120976150D01*
X98378485Y-120759873D01*
X98096820Y-120528717D01*
X98096819Y-120528716D01*
X98096815Y-120528713D01*
X97793849Y-120326278D01*
X97793844Y-120326275D01*
X97793837Y-120326271D01*
X97472507Y-120154516D01*
X97472502Y-120154514D01*
X97465288Y-120151526D01*
X97400813Y-120124819D01*
X97135868Y-120015074D01*
X96787169Y-119909298D01*
X96787158Y-119909295D01*
X96429812Y-119838216D01*
X96429795Y-119838213D01*
X96155580Y-119811206D01*
X96067187Y-119802500D01*
X95702813Y-119802500D01*
X95621062Y-119810551D01*
X95340204Y-119838213D01*
X95340187Y-119838216D01*
X94982841Y-119909295D01*
X94982830Y-119909298D01*
X94634131Y-120015074D01*
X94297497Y-120154514D01*
X94297492Y-120154516D01*
X93976162Y-120326271D01*
X93976144Y-120326282D01*
X93673193Y-120528707D01*
X93673179Y-120528717D01*
X93391514Y-120759873D01*
X93133873Y-121017514D01*
X92902717Y-121299179D01*
X92902707Y-121299193D01*
X92700282Y-121602144D01*
X92700271Y-121602162D01*
X92528516Y-121923492D01*
X92528514Y-121923497D01*
X92389074Y-122260131D01*
X92283298Y-122608830D01*
X92283295Y-122608841D01*
X92212216Y-122966187D01*
X92212213Y-122966204D01*
X92193306Y-123158181D01*
X92176500Y-123328813D01*
X89483500Y-123328813D01*
X89483500Y-69019330D01*
X89851500Y-69019330D01*
X89851500Y-94029553D01*
X89873876Y-94142047D01*
X89873877Y-94142047D01*
X89873877Y-94142049D01*
X89878727Y-94166429D01*
X89878728Y-94166431D01*
X89878728Y-94166433D01*
X89932135Y-94295369D01*
X89932136Y-94295372D01*
X90009671Y-94411410D01*
X90009674Y-94411414D01*
X106443181Y-110844920D01*
X106476666Y-110906243D01*
X106479500Y-110932601D01*
X106479500Y-121431173D01*
X106490563Y-121486789D01*
X106493113Y-121499609D01*
X106506727Y-121568050D01*
X106510932Y-121578201D01*
X106514573Y-121586993D01*
X106514575Y-121586998D01*
X106560135Y-121696989D01*
X106560136Y-121696992D01*
X106637671Y-121813030D01*
X106637674Y-121813034D01*
X111504966Y-126680326D01*
X111504970Y-126680329D01*
X111621005Y-126757862D01*
X111621018Y-126757869D01*
X111705341Y-126792796D01*
X111712185Y-126795631D01*
X111749951Y-126811274D01*
X111785467Y-126818338D01*
X111818343Y-126824878D01*
X111818367Y-126824882D01*
X111818391Y-126824887D01*
X111869721Y-126835097D01*
X111886830Y-126838501D01*
X111886831Y-126838501D01*
X111886832Y-126838501D01*
X112185955Y-126838501D01*
X112252994Y-126858186D01*
X112298749Y-126910990D01*
X112308693Y-126980148D01*
X112303887Y-127000814D01*
X112292876Y-127034701D01*
X112261719Y-127130591D01*
X112229500Y-127334019D01*
X112229500Y-127539980D01*
X112261719Y-127743408D01*
X112325367Y-127939294D01*
X112418873Y-128122806D01*
X112539926Y-128289423D01*
X112539930Y-128289428D01*
X112685571Y-128435069D01*
X112685576Y-128435073D01*
X112830908Y-128540661D01*
X112852197Y-128556129D01*
X112969128Y-128615709D01*
X113035705Y-128649632D01*
X113035707Y-128649632D01*
X113035710Y-128649634D01*
X113140707Y-128683749D01*
X113231591Y-128713280D01*
X113333305Y-128729390D01*
X113435019Y-128745500D01*
X113435020Y-128745500D01*
X113640980Y-128745500D01*
X113640981Y-128745500D01*
X113844408Y-128713280D01*
X114040290Y-128649634D01*
X114223803Y-128556129D01*
X114390430Y-128435068D01*
X114536068Y-128289430D01*
X114657129Y-128122803D01*
X114750634Y-127939290D01*
X114814280Y-127743408D01*
X114846500Y-127539981D01*
X114846500Y-127334019D01*
X114814280Y-127130592D01*
X114772113Y-127000818D01*
X114770119Y-126930979D01*
X114806199Y-126871146D01*
X114868900Y-126840317D01*
X114890045Y-126838501D01*
X124631955Y-126838501D01*
X124698994Y-126858186D01*
X124744749Y-126910990D01*
X124754693Y-126980148D01*
X124749887Y-127000814D01*
X124738876Y-127034701D01*
X124707719Y-127130591D01*
X124675500Y-127334019D01*
X124675500Y-127539980D01*
X124707719Y-127743408D01*
X124771367Y-127939294D01*
X124864873Y-128122806D01*
X124985926Y-128289423D01*
X124985930Y-128289428D01*
X125131571Y-128435069D01*
X125131576Y-128435073D01*
X125276908Y-128540661D01*
X125298197Y-128556129D01*
X125415128Y-128615709D01*
X125481705Y-128649632D01*
X125481707Y-128649632D01*
X125481710Y-128649634D01*
X125586707Y-128683749D01*
X125677591Y-128713280D01*
X125779305Y-128729390D01*
X125881019Y-128745500D01*
X125881020Y-128745500D01*
X126086980Y-128745500D01*
X126086981Y-128745500D01*
X126290408Y-128713280D01*
X126486290Y-128649634D01*
X126669803Y-128556129D01*
X126836430Y-128435068D01*
X126982068Y-128289430D01*
X127103129Y-128122803D01*
X127196634Y-127939290D01*
X127260280Y-127743408D01*
X127292500Y-127539981D01*
X127292500Y-127334019D01*
X127260280Y-127130592D01*
X127218113Y-127000818D01*
X127216119Y-126930979D01*
X127252199Y-126871146D01*
X127314900Y-126840317D01*
X127336045Y-126838501D01*
X136315955Y-126838501D01*
X136382994Y-126858186D01*
X136428749Y-126910990D01*
X136438693Y-126980148D01*
X136433887Y-127000814D01*
X136422876Y-127034701D01*
X136391719Y-127130591D01*
X136359500Y-127334019D01*
X136359500Y-127539980D01*
X136391719Y-127743408D01*
X136455367Y-127939294D01*
X136548873Y-128122806D01*
X136669926Y-128289423D01*
X136669930Y-128289428D01*
X136815571Y-128435069D01*
X136815576Y-128435073D01*
X136960908Y-128540661D01*
X136982197Y-128556129D01*
X137099128Y-128615709D01*
X137165705Y-128649632D01*
X137165707Y-128649632D01*
X137165710Y-128649634D01*
X137270707Y-128683749D01*
X137361591Y-128713280D01*
X137463305Y-128729390D01*
X137565019Y-128745500D01*
X137565020Y-128745500D01*
X137770980Y-128745500D01*
X137770981Y-128745500D01*
X137974408Y-128713280D01*
X138170290Y-128649634D01*
X138353803Y-128556129D01*
X138520430Y-128435068D01*
X138666068Y-128289430D01*
X138787129Y-128122803D01*
X138880634Y-127939290D01*
X138944280Y-127743408D01*
X138976500Y-127539981D01*
X138976500Y-127334019D01*
X138944280Y-127130592D01*
X138902113Y-127000818D01*
X138900119Y-126930979D01*
X138936199Y-126871146D01*
X138998900Y-126840317D01*
X139020045Y-126838501D01*
X147745955Y-126838501D01*
X147812994Y-126858186D01*
X147858749Y-126910990D01*
X147868693Y-126980148D01*
X147863887Y-127000814D01*
X147852876Y-127034701D01*
X147821719Y-127130591D01*
X147789500Y-127334019D01*
X147789500Y-127539980D01*
X147821719Y-127743408D01*
X147885367Y-127939294D01*
X147978873Y-128122806D01*
X148099926Y-128289423D01*
X148099930Y-128289428D01*
X148245571Y-128435069D01*
X148245576Y-128435073D01*
X148390908Y-128540661D01*
X148412197Y-128556129D01*
X148529128Y-128615709D01*
X148595705Y-128649632D01*
X148595707Y-128649632D01*
X148595710Y-128649634D01*
X148700707Y-128683749D01*
X148791591Y-128713280D01*
X148893305Y-128729390D01*
X148995019Y-128745500D01*
X148995020Y-128745500D01*
X149200980Y-128745500D01*
X149200981Y-128745500D01*
X149404408Y-128713280D01*
X149600290Y-128649634D01*
X149783803Y-128556129D01*
X149950430Y-128435068D01*
X150096068Y-128289430D01*
X150217129Y-128122803D01*
X150310634Y-127939290D01*
X150374280Y-127743408D01*
X150406500Y-127539981D01*
X150406500Y-127334019D01*
X159219500Y-127334019D01*
X159219500Y-127539980D01*
X159251719Y-127743408D01*
X159315367Y-127939294D01*
X159408873Y-128122806D01*
X159529926Y-128289423D01*
X159529930Y-128289428D01*
X159675571Y-128435069D01*
X159675576Y-128435073D01*
X159820908Y-128540661D01*
X159842197Y-128556129D01*
X159959128Y-128615709D01*
X160025705Y-128649632D01*
X160025707Y-128649632D01*
X160025710Y-128649634D01*
X160130707Y-128683749D01*
X160221591Y-128713280D01*
X160323305Y-128729390D01*
X160425019Y-128745500D01*
X160425020Y-128745500D01*
X160630980Y-128745500D01*
X160630981Y-128745500D01*
X160834408Y-128713280D01*
X161030290Y-128649634D01*
X161213803Y-128556129D01*
X161380430Y-128435068D01*
X161526068Y-128289430D01*
X161647129Y-128122803D01*
X161740634Y-127939290D01*
X161804280Y-127743408D01*
X161836500Y-127539981D01*
X161836500Y-127334019D01*
X161804280Y-127130592D01*
X161740634Y-126934710D01*
X161740632Y-126934707D01*
X161740632Y-126934705D01*
X161691613Y-126838501D01*
X161647129Y-126751197D01*
X161595641Y-126680329D01*
X161526073Y-126584576D01*
X161526069Y-126584571D01*
X161380428Y-126438930D01*
X161380423Y-126438926D01*
X161213806Y-126317873D01*
X161213805Y-126317872D01*
X161213803Y-126317871D01*
X161104408Y-126262131D01*
X161030294Y-126224367D01*
X160834408Y-126160719D01*
X160658794Y-126132905D01*
X160630981Y-126128500D01*
X160425019Y-126128500D01*
X160400550Y-126132375D01*
X160221591Y-126160719D01*
X160025705Y-126224367D01*
X159842193Y-126317873D01*
X159675576Y-126438926D01*
X159675571Y-126438930D01*
X159529930Y-126584571D01*
X159529926Y-126584576D01*
X159408873Y-126751193D01*
X159315367Y-126934705D01*
X159251719Y-127130591D01*
X159219500Y-127334019D01*
X150406500Y-127334019D01*
X150374280Y-127130592D01*
X150332113Y-127000818D01*
X150330119Y-126930979D01*
X150366199Y-126871146D01*
X150428900Y-126840317D01*
X150450045Y-126838501D01*
X155554781Y-126838501D01*
X155623220Y-126824887D01*
X155691661Y-126811274D01*
X155729426Y-126795631D01*
X155820600Y-126757866D01*
X155936642Y-126680329D01*
X158907820Y-123709149D01*
X158969143Y-123675665D01*
X159038835Y-123680649D01*
X159094768Y-123722521D01*
X159119185Y-123787985D01*
X159119501Y-123796831D01*
X159119501Y-124575653D01*
X159126012Y-124636201D01*
X159126012Y-124636203D01*
X159141921Y-124678854D01*
X159177112Y-124773203D01*
X159264740Y-124890260D01*
X159381797Y-124977888D01*
X159518800Y-125028988D01*
X159546051Y-125031917D01*
X159579346Y-125035498D01*
X159579363Y-125035499D01*
X161476639Y-125035499D01*
X161476655Y-125035498D01*
X161503693Y-125032590D01*
X161537202Y-125028988D01*
X161674205Y-124977888D01*
X161791262Y-124890260D01*
X161878890Y-124773203D01*
X161929990Y-124636200D01*
X161933592Y-124602691D01*
X161936500Y-124575653D01*
X161936501Y-124575636D01*
X161936501Y-124398346D01*
X168139500Y-124398346D01*
X168139500Y-127695655D01*
X168146011Y-127756203D01*
X168146011Y-127756205D01*
X168197111Y-127893205D01*
X168284739Y-128010262D01*
X168401796Y-128097890D01*
X168538799Y-128148990D01*
X168566050Y-128151919D01*
X168599345Y-128155500D01*
X168599362Y-128155501D01*
X170696638Y-128155501D01*
X170696654Y-128155500D01*
X170723692Y-128152592D01*
X170757201Y-128148990D01*
X170894204Y-128097890D01*
X171011261Y-128010262D01*
X171098889Y-127893205D01*
X171149989Y-127756202D01*
X171153591Y-127722693D01*
X171156499Y-127695655D01*
X171156500Y-127695638D01*
X171156500Y-124398363D01*
X171156499Y-124398346D01*
X179339500Y-124398346D01*
X179339500Y-127695655D01*
X179346011Y-127756203D01*
X179346011Y-127756205D01*
X179397111Y-127893205D01*
X179484739Y-128010262D01*
X179601796Y-128097890D01*
X179738799Y-128148990D01*
X179766050Y-128151919D01*
X179799345Y-128155500D01*
X179799362Y-128155501D01*
X181896638Y-128155501D01*
X181896654Y-128155500D01*
X181923692Y-128152592D01*
X181957201Y-128148990D01*
X182094204Y-128097890D01*
X182211261Y-128010262D01*
X182298889Y-127893205D01*
X182349989Y-127756202D01*
X182353591Y-127722693D01*
X182356499Y-127695655D01*
X182356500Y-127695638D01*
X182356500Y-124398363D01*
X182356499Y-124398346D01*
X182353157Y-124367271D01*
X182349989Y-124337800D01*
X182298889Y-124200797D01*
X182211261Y-124083740D01*
X182094204Y-123996112D01*
X181957203Y-123945012D01*
X181896654Y-123938501D01*
X181896638Y-123938501D01*
X179799362Y-123938501D01*
X179799345Y-123938501D01*
X179738797Y-123945012D01*
X179738795Y-123945012D01*
X179601795Y-123996112D01*
X179484739Y-124083740D01*
X179397111Y-124200796D01*
X179346011Y-124337796D01*
X179346011Y-124337798D01*
X179339500Y-124398346D01*
X171156499Y-124398346D01*
X171153157Y-124367271D01*
X171149989Y-124337800D01*
X171098889Y-124200797D01*
X171011261Y-124083740D01*
X170894204Y-123996112D01*
X170757203Y-123945012D01*
X170696654Y-123938501D01*
X170696638Y-123938501D01*
X168599362Y-123938501D01*
X168599345Y-123938501D01*
X168538797Y-123945012D01*
X168538795Y-123945012D01*
X168401795Y-123996112D01*
X168284739Y-124083740D01*
X168197111Y-124200796D01*
X168146011Y-124337796D01*
X168146011Y-124337798D01*
X168139500Y-124398346D01*
X161936501Y-124398346D01*
X161936501Y-122678361D01*
X161936500Y-122678344D01*
X161933158Y-122647269D01*
X161929990Y-122617798D01*
X161929988Y-122617793D01*
X161907523Y-122557563D01*
X161878890Y-122480795D01*
X161791262Y-122363738D01*
X161720922Y-122311082D01*
X161674207Y-122276111D01*
X161674205Y-122276110D01*
X161604874Y-122250250D01*
X161548942Y-122208380D01*
X161524526Y-122142915D01*
X161539378Y-122074642D01*
X161560529Y-122046390D01*
X161602344Y-122004575D01*
X161732658Y-121825214D01*
X161833309Y-121627675D01*
X161901819Y-121416823D01*
X161936501Y-121197850D01*
X161936501Y-120976148D01*
X161901819Y-120757175D01*
X161833309Y-120546323D01*
X161833307Y-120546320D01*
X161833307Y-120546318D01*
X161754784Y-120392209D01*
X161732658Y-120348784D01*
X161686595Y-120285384D01*
X161663116Y-120219580D01*
X161678941Y-120151526D01*
X161729047Y-120102831D01*
X161786914Y-120088500D01*
X171984782Y-120088500D01*
X172053221Y-120074886D01*
X172121662Y-120061273D01*
X172159427Y-120045630D01*
X172250601Y-120007865D01*
X172250601Y-120007864D01*
X172256231Y-120005533D01*
X172257209Y-120007894D01*
X172314665Y-119995897D01*
X172343099Y-120001570D01*
X172394759Y-120018356D01*
X172512018Y-120036928D01*
X172629273Y-120055500D01*
X172629278Y-120055500D01*
X172866727Y-120055500D01*
X173101241Y-120018356D01*
X173118771Y-120012660D01*
X173327063Y-119944982D01*
X173538627Y-119837185D01*
X173730722Y-119697620D01*
X173898620Y-119529722D01*
X173898624Y-119529716D01*
X173901792Y-119526009D01*
X173902923Y-119526975D01*
X173953002Y-119488352D01*
X174022615Y-119482367D01*
X174084413Y-119514967D01*
X174094077Y-119526120D01*
X174094208Y-119526009D01*
X174097378Y-119529720D01*
X174097380Y-119529722D01*
X174265278Y-119697620D01*
X174457373Y-119837185D01*
X174501748Y-119859795D01*
X174668932Y-119944980D01*
X174668934Y-119944980D01*
X174668937Y-119944982D01*
X174787200Y-119983408D01*
X174894758Y-120018356D01*
X175129273Y-120055500D01*
X175129278Y-120055500D01*
X175366727Y-120055500D01*
X175601241Y-120018356D01*
X175618771Y-120012660D01*
X175827063Y-119944982D01*
X176038627Y-119837185D01*
X176128482Y-119771900D01*
X176194286Y-119748422D01*
X176262340Y-119764247D01*
X176300633Y-119797909D01*
X176384739Y-119910261D01*
X176501796Y-119997889D01*
X176638799Y-120048989D01*
X176666050Y-120051918D01*
X176699345Y-120055499D01*
X176699362Y-120055500D01*
X178796638Y-120055500D01*
X178796654Y-120055499D01*
X178823692Y-120052591D01*
X178857201Y-120048989D01*
X178994204Y-119997889D01*
X179111261Y-119910261D01*
X179198889Y-119793204D01*
X179249989Y-119656201D01*
X179253591Y-119622692D01*
X179256499Y-119595654D01*
X179256500Y-119595637D01*
X179256500Y-117498362D01*
X179256499Y-117498345D01*
X179253157Y-117467270D01*
X179249989Y-117437799D01*
X179242890Y-117418767D01*
X179212751Y-117337961D01*
X179198889Y-117300796D01*
X179111261Y-117183739D01*
X178994204Y-117096111D01*
X178857203Y-117045011D01*
X178796654Y-117038500D01*
X178796638Y-117038500D01*
X176699362Y-117038500D01*
X176699345Y-117038500D01*
X176638797Y-117045011D01*
X176638795Y-117045011D01*
X176501795Y-117096111D01*
X176384736Y-117183741D01*
X176300632Y-117296090D01*
X176244698Y-117337961D01*
X176175007Y-117342945D01*
X176128481Y-117322097D01*
X176038630Y-117256817D01*
X176038629Y-117256816D01*
X176038627Y-117256815D01*
X175972558Y-117223151D01*
X175827067Y-117149019D01*
X175601241Y-117075643D01*
X175366727Y-117038500D01*
X175366722Y-117038500D01*
X175129278Y-117038500D01*
X175129273Y-117038500D01*
X174894758Y-117075643D01*
X174668932Y-117149019D01*
X174457372Y-117256815D01*
X174265275Y-117396382D01*
X174097382Y-117564275D01*
X174094216Y-117567983D01*
X174093091Y-117567022D01*
X174042969Y-117605659D01*
X173973355Y-117611627D01*
X173911565Y-117579011D01*
X173901913Y-117567872D01*
X173901784Y-117567983D01*
X173898617Y-117564275D01*
X173730724Y-117396382D01*
X173730722Y-117396380D01*
X173538627Y-117256815D01*
X173327067Y-117149019D01*
X173101241Y-117075643D01*
X172866727Y-117038500D01*
X172866722Y-117038500D01*
X172629278Y-117038500D01*
X172629273Y-117038500D01*
X172394758Y-117075643D01*
X172168932Y-117149019D01*
X171957372Y-117256815D01*
X171765275Y-117396382D01*
X171597382Y-117564275D01*
X171457815Y-117756372D01*
X171350019Y-117967932D01*
X171276643Y-118193758D01*
X171239500Y-118428272D01*
X171239500Y-118547500D01*
X171219815Y-118614539D01*
X171167011Y-118660294D01*
X171115500Y-118671500D01*
X163619217Y-118671500D01*
X163552178Y-118651815D01*
X163506423Y-118599011D01*
X163496479Y-118529853D01*
X163525504Y-118466297D01*
X163531536Y-118459819D01*
X172378539Y-109612816D01*
X176885500Y-109612816D01*
X176885500Y-109977183D01*
X176921213Y-110339795D01*
X176921216Y-110339812D01*
X176992295Y-110697158D01*
X176992298Y-110697169D01*
X177098074Y-111045868D01*
X177237514Y-111382502D01*
X177237516Y-111382507D01*
X177409271Y-111703837D01*
X177409282Y-111703855D01*
X177611707Y-112006806D01*
X177611713Y-112006815D01*
X177842873Y-112288485D01*
X178100514Y-112546126D01*
X178100519Y-112546130D01*
X178100520Y-112546131D01*
X178382185Y-112777287D01*
X178685151Y-112979722D01*
X178685160Y-112979727D01*
X178685162Y-112979728D01*
X179006492Y-113151483D01*
X179006494Y-113151483D01*
X179006500Y-113151487D01*
X179211665Y-113236469D01*
X179343131Y-113290925D01*
X179343135Y-113290926D01*
X179343137Y-113290927D01*
X179691821Y-113396699D01*
X179691827Y-113396700D01*
X179691830Y-113396701D01*
X179691841Y-113396704D01*
X179915927Y-113441276D01*
X180049194Y-113467785D01*
X180411813Y-113503500D01*
X180411816Y-113503500D01*
X180776184Y-113503500D01*
X180776187Y-113503500D01*
X181138806Y-113467785D01*
X181315696Y-113432599D01*
X181496158Y-113396704D01*
X181496169Y-113396701D01*
X181496169Y-113396700D01*
X181496179Y-113396699D01*
X181844863Y-113290927D01*
X182181500Y-113151487D01*
X182502849Y-112979722D01*
X182805815Y-112777287D01*
X183087480Y-112546131D01*
X183345131Y-112288480D01*
X183576287Y-112006815D01*
X183778722Y-111703849D01*
X183950487Y-111382500D01*
X184089927Y-111045863D01*
X184195699Y-110697179D01*
X184195701Y-110697169D01*
X184195704Y-110697158D01*
X184231599Y-110516696D01*
X184266785Y-110339806D01*
X184302500Y-109977187D01*
X184302500Y-109612813D01*
X184266785Y-109250194D01*
X184240276Y-109116927D01*
X184195704Y-108892841D01*
X184195701Y-108892830D01*
X184195700Y-108892827D01*
X184195699Y-108892821D01*
X184089927Y-108544137D01*
X183950487Y-108207500D01*
X183778722Y-107886151D01*
X183576287Y-107583185D01*
X183345131Y-107301520D01*
X183345130Y-107301519D01*
X183345126Y-107301514D01*
X183087485Y-107043873D01*
X182805820Y-106812717D01*
X182805819Y-106812716D01*
X182805815Y-106812713D01*
X182502849Y-106610278D01*
X182502844Y-106610275D01*
X182502837Y-106610271D01*
X182181507Y-106438516D01*
X182181502Y-106438514D01*
X181844868Y-106299074D01*
X181496169Y-106193298D01*
X181496158Y-106193295D01*
X181138812Y-106122216D01*
X181138795Y-106122213D01*
X180864580Y-106095206D01*
X180776187Y-106086500D01*
X180411813Y-106086500D01*
X180330062Y-106094551D01*
X180049204Y-106122213D01*
X180049187Y-106122216D01*
X179691841Y-106193295D01*
X179691830Y-106193298D01*
X179343131Y-106299074D01*
X179006497Y-106438514D01*
X179006492Y-106438516D01*
X178685162Y-106610271D01*
X178685144Y-106610282D01*
X178382193Y-106812707D01*
X178382179Y-106812717D01*
X178100514Y-107043873D01*
X177842873Y-107301514D01*
X177611717Y-107583179D01*
X177611707Y-107583193D01*
X177409282Y-107886144D01*
X177409271Y-107886162D01*
X177237516Y-108207492D01*
X177237514Y-108207497D01*
X177098074Y-108544131D01*
X176992298Y-108892830D01*
X176992295Y-108892841D01*
X176921216Y-109250187D01*
X176921213Y-109250204D01*
X176885500Y-109612816D01*
X172378539Y-109612816D01*
X172469267Y-109522088D01*
X182706325Y-99285029D01*
X182706324Y-99285029D01*
X182706328Y-99285026D01*
X182783865Y-99168984D01*
X182837273Y-99040045D01*
X182864500Y-98903165D01*
X182864500Y-98763602D01*
X182864500Y-63535219D01*
X182837273Y-63398338D01*
X182790067Y-63284373D01*
X182790067Y-63284372D01*
X182783868Y-63269405D01*
X182783861Y-63269393D01*
X182706328Y-63153358D01*
X182706325Y-63153354D01*
X181049908Y-61496938D01*
X181016423Y-61435615D01*
X181019657Y-61370941D01*
X181028049Y-61345116D01*
X181061500Y-61133916D01*
X181061500Y-60920084D01*
X181028049Y-60708884D01*
X180968255Y-60524853D01*
X180961973Y-60505519D01*
X180961972Y-60505516D01*
X180901219Y-60386282D01*
X180864894Y-60314991D01*
X180739206Y-60141996D01*
X180588004Y-59990794D01*
X180588000Y-59990791D01*
X180431818Y-59877318D01*
X180389152Y-59821988D01*
X180383173Y-59752375D01*
X180415779Y-59690580D01*
X180431818Y-59676682D01*
X180515587Y-59615820D01*
X180588004Y-59563206D01*
X180739206Y-59412004D01*
X180864894Y-59239009D01*
X180961972Y-59048483D01*
X181028049Y-58845116D01*
X181061500Y-58633916D01*
X181061500Y-58420084D01*
X181028049Y-58208884D01*
X180977130Y-58052169D01*
X180961973Y-58005519D01*
X180961972Y-58005516D01*
X180864893Y-57814990D01*
X180801428Y-57727638D01*
X180739206Y-57641996D01*
X180607106Y-57509896D01*
X180573621Y-57448573D01*
X180578605Y-57378881D01*
X180620477Y-57322948D01*
X180629668Y-57316690D01*
X180776652Y-57226030D01*
X180902030Y-57100652D01*
X180995115Y-56949738D01*
X181050887Y-56781426D01*
X181061500Y-56677545D01*
X181061499Y-55376456D01*
X181050887Y-55272574D01*
X180995115Y-55104262D01*
X180902030Y-54953348D01*
X180776652Y-54827970D01*
X180625738Y-54734885D01*
X180545427Y-54708273D01*
X180457427Y-54679113D01*
X180353545Y-54668500D01*
X178802462Y-54668500D01*
X178802446Y-54668501D01*
X178698572Y-54679113D01*
X178530264Y-54734884D01*
X178530259Y-54734886D01*
X178379346Y-54827971D01*
X178253971Y-54953346D01*
X178160886Y-55104259D01*
X178160884Y-55104264D01*
X178105113Y-55272572D01*
X178094500Y-55376447D01*
X178094500Y-56677537D01*
X178094501Y-56677553D01*
X178105113Y-56781427D01*
X178160884Y-56949735D01*
X178160886Y-56949740D01*
X178177679Y-56976966D01*
X178253970Y-57100652D01*
X178379348Y-57226030D01*
X178526310Y-57316677D01*
X178573033Y-57368624D01*
X178584256Y-57437587D01*
X178556412Y-57501669D01*
X178548894Y-57509896D01*
X178416793Y-57641997D01*
X178291106Y-57814990D01*
X178194027Y-58005516D01*
X178194026Y-58005519D01*
X178127951Y-58208882D01*
X178127951Y-58208884D01*
X178094500Y-58420084D01*
X178094500Y-58633916D01*
X178110906Y-58737500D01*
X178127951Y-58845117D01*
X178194026Y-59048480D01*
X178194027Y-59048483D01*
X178291106Y-59239009D01*
X178416794Y-59412004D01*
X178567996Y-59563206D01*
X178640413Y-59615820D01*
X178724182Y-59676682D01*
X178766847Y-59732012D01*
X178772826Y-59801626D01*
X178740220Y-59863421D01*
X178724182Y-59877318D01*
X178655297Y-59927365D01*
X178567996Y-59990794D01*
X178567994Y-59990796D01*
X178567993Y-59990796D01*
X178416796Y-60141993D01*
X178291106Y-60314990D01*
X178194027Y-60505516D01*
X178194026Y-60505519D01*
X178127951Y-60708882D01*
X178094500Y-60920084D01*
X178094500Y-61133915D01*
X178127951Y-61345117D01*
X178194026Y-61548480D01*
X178194027Y-61548483D01*
X178291106Y-61739009D01*
X178416794Y-61912004D01*
X178567996Y-62063206D01*
X178740991Y-62188894D01*
X178829238Y-62233858D01*
X178931516Y-62285972D01*
X178931519Y-62285973D01*
X179033200Y-62319010D01*
X179134884Y-62352049D01*
X179346084Y-62385500D01*
X179346085Y-62385500D01*
X179809915Y-62385500D01*
X179809916Y-62385500D01*
X179855087Y-62378345D01*
X179924381Y-62387299D01*
X179962167Y-62413137D01*
X181411181Y-63862151D01*
X181444666Y-63923474D01*
X181447500Y-63949832D01*
X181447500Y-73025167D01*
X181427815Y-73092206D01*
X181375011Y-73137961D01*
X181305853Y-73147905D01*
X181242297Y-73118880D01*
X181235819Y-73112848D01*
X181049908Y-72926937D01*
X181016423Y-72865614D01*
X181019659Y-72800936D01*
X181028049Y-72775116D01*
X181061500Y-72563916D01*
X181061500Y-72350084D01*
X181028049Y-72138884D01*
X180961972Y-71935517D01*
X180961972Y-71935516D01*
X180864893Y-71744990D01*
X180739206Y-71571996D01*
X180588004Y-71420794D01*
X180588000Y-71420791D01*
X180431818Y-71307318D01*
X180389152Y-71251988D01*
X180383173Y-71182375D01*
X180415779Y-71120580D01*
X180431818Y-71106682D01*
X180482200Y-71070076D01*
X180588004Y-70993206D01*
X180739206Y-70842004D01*
X180864894Y-70669009D01*
X180961972Y-70478483D01*
X181028049Y-70275116D01*
X181061500Y-70063916D01*
X181061500Y-69850084D01*
X181028049Y-69638884D01*
X180995010Y-69537200D01*
X180961973Y-69435519D01*
X180961972Y-69435516D01*
X180912507Y-69338438D01*
X180864894Y-69244991D01*
X180739206Y-69071996D01*
X180607106Y-68939896D01*
X180573621Y-68878573D01*
X180578605Y-68808881D01*
X180620477Y-68752948D01*
X180629668Y-68746690D01*
X180776652Y-68656030D01*
X180902030Y-68530652D01*
X180995115Y-68379738D01*
X181050887Y-68211426D01*
X181061500Y-68107545D01*
X181061499Y-66806456D01*
X181050887Y-66702574D01*
X180995115Y-66534262D01*
X180902030Y-66383348D01*
X180776652Y-66257970D01*
X180682898Y-66200142D01*
X180625740Y-66164886D01*
X180625735Y-66164884D01*
X180457427Y-66109113D01*
X180353545Y-66098500D01*
X178802462Y-66098500D01*
X178802446Y-66098501D01*
X178698572Y-66109113D01*
X178530264Y-66164884D01*
X178530259Y-66164886D01*
X178379346Y-66257971D01*
X178253971Y-66383346D01*
X178160886Y-66534259D01*
X178160884Y-66534264D01*
X178105113Y-66702572D01*
X178094500Y-66806447D01*
X178094500Y-68107537D01*
X178094501Y-68107553D01*
X178105113Y-68211427D01*
X178160884Y-68379735D01*
X178160886Y-68379740D01*
X178192400Y-68430831D01*
X178253970Y-68530652D01*
X178379348Y-68656030D01*
X178526310Y-68746677D01*
X178573033Y-68798624D01*
X178584256Y-68867587D01*
X178556412Y-68931669D01*
X178548894Y-68939896D01*
X178416793Y-69071997D01*
X178291106Y-69244990D01*
X178194027Y-69435516D01*
X178194026Y-69435519D01*
X178127951Y-69638882D01*
X178094500Y-69850084D01*
X178094500Y-70063915D01*
X178127951Y-70275117D01*
X178194026Y-70478480D01*
X178194027Y-70478483D01*
X178291106Y-70669009D01*
X178416794Y-70842004D01*
X178567996Y-70993206D01*
X178670344Y-71067566D01*
X178724182Y-71106682D01*
X178766847Y-71162012D01*
X178772826Y-71231626D01*
X178740220Y-71293421D01*
X178724182Y-71307318D01*
X178567997Y-71420793D01*
X178415061Y-71573729D01*
X178353738Y-71607213D01*
X178284046Y-71602229D01*
X178239699Y-71573728D01*
X163972422Y-57306450D01*
X163887785Y-57221813D01*
X166979500Y-57221813D01*
X166979500Y-57586187D01*
X166984997Y-57641996D01*
X167015213Y-57948795D01*
X167015216Y-57948812D01*
X167086295Y-58306158D01*
X167086298Y-58306169D01*
X167192074Y-58654868D01*
X167331514Y-58991502D01*
X167331516Y-58991507D01*
X167503271Y-59312837D01*
X167503282Y-59312855D01*
X167705707Y-59615806D01*
X167705717Y-59615820D01*
X167936873Y-59897485D01*
X168194514Y-60155126D01*
X168194519Y-60155130D01*
X168194520Y-60155131D01*
X168476185Y-60386287D01*
X168779151Y-60588722D01*
X168779160Y-60588727D01*
X168779162Y-60588728D01*
X169100492Y-60760483D01*
X169100494Y-60760483D01*
X169100500Y-60760487D01*
X169255456Y-60824672D01*
X169437131Y-60899925D01*
X169437135Y-60899926D01*
X169437137Y-60899927D01*
X169785821Y-61005699D01*
X169785827Y-61005700D01*
X169785830Y-61005701D01*
X169785841Y-61005704D01*
X170009927Y-61050276D01*
X170143194Y-61076785D01*
X170505813Y-61112500D01*
X170505816Y-61112500D01*
X170870184Y-61112500D01*
X170870187Y-61112500D01*
X171232806Y-61076785D01*
X171409696Y-61041599D01*
X171590158Y-61005704D01*
X171590169Y-61005701D01*
X171590169Y-61005700D01*
X171590179Y-61005699D01*
X171938863Y-60899927D01*
X172275500Y-60760487D01*
X172596849Y-60588722D01*
X172899815Y-60386287D01*
X173181480Y-60155131D01*
X173439131Y-59897480D01*
X173670287Y-59615815D01*
X173872722Y-59312849D01*
X174044487Y-58991500D01*
X174183927Y-58654863D01*
X174289699Y-58306179D01*
X174289701Y-58306169D01*
X174289704Y-58306158D01*
X174325599Y-58125696D01*
X174360785Y-57948806D01*
X174396500Y-57586187D01*
X174396500Y-57221813D01*
X174360785Y-56859194D01*
X174334276Y-56725927D01*
X174289704Y-56501841D01*
X174289701Y-56501830D01*
X174289700Y-56501827D01*
X174289699Y-56501821D01*
X174183927Y-56153137D01*
X174181971Y-56148416D01*
X174105002Y-55962596D01*
X174044487Y-55816500D01*
X173872722Y-55495151D01*
X173670287Y-55192185D01*
X173439131Y-54910520D01*
X173439130Y-54910519D01*
X173439126Y-54910514D01*
X173181485Y-54652873D01*
X172899820Y-54421717D01*
X172899819Y-54421716D01*
X172899815Y-54421713D01*
X172596849Y-54219278D01*
X172596844Y-54219275D01*
X172596837Y-54219271D01*
X172275507Y-54047516D01*
X172275502Y-54047514D01*
X171938868Y-53908074D01*
X171590169Y-53802298D01*
X171590158Y-53802295D01*
X171232812Y-53731216D01*
X171232795Y-53731213D01*
X170958580Y-53704206D01*
X170870187Y-53695500D01*
X170505813Y-53695500D01*
X170424062Y-53703551D01*
X170143204Y-53731213D01*
X170143187Y-53731216D01*
X169785841Y-53802295D01*
X169785830Y-53802298D01*
X169437131Y-53908074D01*
X169100497Y-54047514D01*
X169100492Y-54047516D01*
X168779162Y-54219271D01*
X168779144Y-54219282D01*
X168476193Y-54421707D01*
X168476179Y-54421717D01*
X168194514Y-54652873D01*
X167936873Y-54910514D01*
X167705717Y-55192179D01*
X167705707Y-55192193D01*
X167503282Y-55495144D01*
X167503271Y-55495162D01*
X167331516Y-55816492D01*
X167331514Y-55816497D01*
X167192074Y-56153131D01*
X167086298Y-56501830D01*
X167086295Y-56501841D01*
X167015216Y-56859187D01*
X167015213Y-56859204D01*
X166993693Y-57077706D01*
X166979500Y-57221813D01*
X163887785Y-57221813D01*
X160606146Y-53940174D01*
X160606138Y-53940168D01*
X160490103Y-53862636D01*
X160490099Y-53862634D01*
X160463396Y-53851573D01*
X160398927Y-53824869D01*
X160398926Y-53824868D01*
X160361164Y-53809227D01*
X160361158Y-53809225D01*
X160292721Y-53795613D01*
X160224285Y-53782000D01*
X160224282Y-53782000D01*
X160224281Y-53782000D01*
X129141639Y-53782000D01*
X129141634Y-53782000D01*
X129004762Y-53809225D01*
X129004756Y-53809227D01*
X128966993Y-53824868D01*
X128966992Y-53824869D01*
X128875819Y-53862635D01*
X128875817Y-53862636D01*
X128759778Y-53940171D01*
X128759774Y-53940174D01*
X128286674Y-54413273D01*
X128286671Y-54413276D01*
X128209138Y-54529313D01*
X128209133Y-54529323D01*
X128188305Y-54579605D01*
X128188306Y-54579606D01*
X128155724Y-54658265D01*
X128153692Y-54668490D01*
X128153690Y-54668500D01*
X128135563Y-54759635D01*
X128135332Y-54760794D01*
X128128500Y-54795139D01*
X128128500Y-57206218D01*
X128128500Y-57345782D01*
X128128500Y-57345784D01*
X128128499Y-57345784D01*
X128139284Y-57399998D01*
X128139284Y-57400000D01*
X128155725Y-57482658D01*
X128155728Y-57482666D01*
X128165319Y-57505822D01*
X128171369Y-57520427D01*
X128183767Y-57550357D01*
X128209134Y-57611599D01*
X128209136Y-57611603D01*
X128286668Y-57727638D01*
X128286674Y-57727646D01*
X132933174Y-62374145D01*
X132966659Y-62435468D01*
X132961675Y-62505160D01*
X132919803Y-62561093D01*
X132864892Y-62584299D01*
X132742757Y-62603644D01*
X132516932Y-62677019D01*
X132305372Y-62784815D01*
X132113275Y-62924382D01*
X131945382Y-63092275D01*
X131945375Y-63092284D01*
X131926317Y-63118515D01*
X131870987Y-63161181D01*
X131801374Y-63167159D01*
X131739579Y-63134553D01*
X131725683Y-63118515D01*
X131713416Y-63101633D01*
X131706620Y-63092278D01*
X131538722Y-62924380D01*
X131346627Y-62784815D01*
X131344780Y-62783874D01*
X131135067Y-62677019D01*
X130909241Y-62603643D01*
X130674727Y-62566500D01*
X130674722Y-62566500D01*
X130437278Y-62566500D01*
X130437273Y-62566500D01*
X130202758Y-62603643D01*
X129976932Y-62677019D01*
X129765372Y-62784815D01*
X129573275Y-62924382D01*
X129405382Y-63092275D01*
X129405377Y-63092281D01*
X129386316Y-63118516D01*
X129330985Y-63161180D01*
X129261372Y-63167158D01*
X129199578Y-63134550D01*
X129185681Y-63118512D01*
X129166623Y-63092280D01*
X128998724Y-62924381D01*
X128998723Y-62924380D01*
X128998722Y-62924379D01*
X128806627Y-62784814D01*
X128804782Y-62783874D01*
X128595067Y-62677018D01*
X128369241Y-62603642D01*
X128134727Y-62566499D01*
X128134722Y-62566499D01*
X127897278Y-62566499D01*
X127897273Y-62566499D01*
X127662758Y-62603642D01*
X127436932Y-62677018D01*
X127225372Y-62784814D01*
X127033275Y-62924381D01*
X126865382Y-63092274D01*
X126865377Y-63092280D01*
X126846315Y-63118516D01*
X126790984Y-63161181D01*
X126721370Y-63167157D01*
X126659576Y-63134550D01*
X126645680Y-63118511D01*
X126626627Y-63092286D01*
X126626621Y-63092279D01*
X126458724Y-62924382D01*
X126458723Y-62924381D01*
X126458722Y-62924380D01*
X126266627Y-62784815D01*
X126264780Y-62783874D01*
X126055067Y-62677019D01*
X125829241Y-62603643D01*
X125594727Y-62566500D01*
X125594722Y-62566500D01*
X125357278Y-62566500D01*
X125357273Y-62566500D01*
X125122758Y-62603643D01*
X124896932Y-62677019D01*
X124685372Y-62784815D01*
X124493275Y-62924382D01*
X124325382Y-63092275D01*
X124325377Y-63092281D01*
X124306316Y-63118516D01*
X124250985Y-63161180D01*
X124181372Y-63167158D01*
X124119578Y-63134550D01*
X124105681Y-63118512D01*
X124086623Y-63092280D01*
X123918724Y-62924381D01*
X123918723Y-62924380D01*
X123918722Y-62924379D01*
X123726627Y-62784814D01*
X123724782Y-62783874D01*
X123515067Y-62677018D01*
X123289241Y-62603642D01*
X123054727Y-62566499D01*
X123054722Y-62566499D01*
X122817278Y-62566499D01*
X122817273Y-62566499D01*
X122582758Y-62603643D01*
X122582754Y-62603644D01*
X122567362Y-62608645D01*
X122497521Y-62610639D01*
X122441366Y-62578394D01*
X120687647Y-60824674D01*
X120687643Y-60824671D01*
X120571608Y-60747138D01*
X120571596Y-60747131D01*
X120497294Y-60716356D01*
X120479255Y-60708884D01*
X120442663Y-60693727D01*
X120374222Y-60680113D01*
X120369591Y-60679191D01*
X120369588Y-60679191D01*
X120305786Y-60666500D01*
X120305783Y-60666500D01*
X120305782Y-60666500D01*
X99319172Y-60666500D01*
X99252133Y-60646815D01*
X99206378Y-60594011D01*
X99196434Y-60524853D01*
X99225459Y-60461297D01*
X99260719Y-60433142D01*
X99329371Y-60396445D01*
X99444849Y-60334722D01*
X99747815Y-60132287D01*
X100029480Y-59901131D01*
X100287131Y-59643480D01*
X100518287Y-59361815D01*
X100720722Y-59058849D01*
X100892487Y-58737500D01*
X101031927Y-58400863D01*
X101137699Y-58052179D01*
X101137701Y-58052169D01*
X101137704Y-58052158D01*
X101173599Y-57871696D01*
X101208785Y-57694806D01*
X101244500Y-57332187D01*
X101244500Y-56967813D01*
X101208785Y-56605194D01*
X101182276Y-56471927D01*
X101137704Y-56247841D01*
X101137701Y-56247830D01*
X101137700Y-56247827D01*
X101137699Y-56247821D01*
X101031927Y-55899137D01*
X101025240Y-55882994D01*
X100922345Y-55634584D01*
X100892487Y-55562500D01*
X100856484Y-55495144D01*
X100720728Y-55241162D01*
X100720727Y-55241160D01*
X100720722Y-55241151D01*
X100518287Y-54938185D01*
X100287131Y-54656520D01*
X100287130Y-54656519D01*
X100287126Y-54656514D01*
X100029485Y-54398873D01*
X99747820Y-54167717D01*
X99747819Y-54167716D01*
X99747815Y-54167713D01*
X99444849Y-53965278D01*
X99444844Y-53965275D01*
X99444837Y-53965271D01*
X99123507Y-53793516D01*
X99123502Y-53793514D01*
X98786868Y-53654074D01*
X98438169Y-53548298D01*
X98438158Y-53548295D01*
X98080812Y-53477216D01*
X98080795Y-53477213D01*
X97806580Y-53450206D01*
X97718187Y-53441500D01*
X97353813Y-53441500D01*
X97272062Y-53449551D01*
X96991204Y-53477213D01*
X96991187Y-53477216D01*
X96633841Y-53548295D01*
X96633830Y-53548298D01*
X96285131Y-53654074D01*
X95948497Y-53793514D01*
X95948492Y-53793516D01*
X95627162Y-53965271D01*
X95627144Y-53965282D01*
X95324193Y-54167707D01*
X95324179Y-54167717D01*
X95042514Y-54398873D01*
X94784873Y-54656514D01*
X94553717Y-54938179D01*
X94553707Y-54938193D01*
X94351282Y-55241144D01*
X94351271Y-55241162D01*
X94179516Y-55562492D01*
X94179514Y-55562497D01*
X94040074Y-55899131D01*
X93934298Y-56247830D01*
X93934295Y-56247841D01*
X93863216Y-56605187D01*
X93863213Y-56605204D01*
X93845857Y-56781427D01*
X93827500Y-56967813D01*
X93827500Y-57332187D01*
X93836351Y-57422048D01*
X93863213Y-57694795D01*
X93863216Y-57694812D01*
X93934295Y-58052158D01*
X93934298Y-58052169D01*
X94040074Y-58400868D01*
X94179514Y-58737502D01*
X94179516Y-58737507D01*
X94351271Y-59058837D01*
X94351282Y-59058855D01*
X94553707Y-59361806D01*
X94553717Y-59361820D01*
X94784873Y-59643485D01*
X95042514Y-59901126D01*
X95042519Y-59901130D01*
X95042520Y-59901131D01*
X95324185Y-60132287D01*
X95627151Y-60334722D01*
X95627160Y-60334727D01*
X95627162Y-60334728D01*
X95948492Y-60506483D01*
X95948494Y-60506483D01*
X95948500Y-60506487D01*
X96147020Y-60588717D01*
X96285131Y-60645925D01*
X96285135Y-60645926D01*
X96285137Y-60645927D01*
X96633821Y-60751699D01*
X96633827Y-60751700D01*
X96633830Y-60751701D01*
X96633841Y-60751704D01*
X96857927Y-60796276D01*
X96991194Y-60822785D01*
X97353813Y-60858500D01*
X97353816Y-60858500D01*
X97489283Y-60858500D01*
X97556322Y-60878185D01*
X97602077Y-60930989D01*
X97612021Y-61000147D01*
X97582996Y-61063703D01*
X97576964Y-61070181D01*
X90009674Y-68637469D01*
X90009671Y-68637473D01*
X89932136Y-68753511D01*
X89932135Y-68753514D01*
X89906093Y-68816386D01*
X89906093Y-68816387D01*
X89878727Y-68882453D01*
X89878725Y-68882461D01*
X89851500Y-69019330D01*
X89483500Y-69019330D01*
X89483500Y-56029635D01*
X89503185Y-55962596D01*
X89519819Y-55941954D01*
X95752954Y-49708819D01*
X95814277Y-49675334D01*
X95840635Y-49672500D01*
X182035365Y-49672500D01*
X182102404Y-49692185D01*
G37*
%TD.AperFunction*%
%TA.AperFunction,NonConductor*%
G36*
X146452539Y-55218685D02*
G01*
X146498294Y-55271489D01*
X146509500Y-55323000D01*
X146509500Y-56252166D01*
X146489815Y-56319205D01*
X146473181Y-56339847D01*
X143510681Y-59302347D01*
X143449358Y-59335832D01*
X143379666Y-59330848D01*
X143335319Y-59302347D01*
X141673741Y-57640770D01*
X141640256Y-57579447D01*
X141645240Y-57509755D01*
X141687112Y-57453822D01*
X141742020Y-57430616D01*
X141796116Y-57422049D01*
X141999483Y-57355972D01*
X142190009Y-57258894D01*
X142363004Y-57133206D01*
X142514206Y-56982004D01*
X142639894Y-56809009D01*
X142736972Y-56618483D01*
X142803049Y-56415116D01*
X142836500Y-56203916D01*
X142836500Y-55690084D01*
X142803049Y-55478884D01*
X142764849Y-55361317D01*
X142762855Y-55291477D01*
X142798935Y-55231644D01*
X142861636Y-55200816D01*
X142882781Y-55199000D01*
X146385500Y-55199000D01*
X146452539Y-55218685D01*
G37*
%TD.AperFunction*%
%TA.AperFunction,NonConductor*%
G36*
X119958207Y-62103185D02*
G01*
X119978849Y-62119819D01*
X120233175Y-62374145D01*
X120238454Y-62383812D01*
X120247060Y-62390690D01*
X120254903Y-62413937D01*
X120266660Y-62435468D01*
X120265874Y-62446454D01*
X120269396Y-62456893D01*
X120263426Y-62480688D01*
X120261676Y-62505160D01*
X120255074Y-62513978D01*
X120252394Y-62524662D01*
X120234506Y-62541453D01*
X120219804Y-62561093D01*
X120208150Y-62566194D01*
X120201452Y-62572482D01*
X120172145Y-62581954D01*
X120168010Y-62583765D01*
X120166438Y-62584055D01*
X120042759Y-62603644D01*
X120019596Y-62611169D01*
X120011563Y-62612653D01*
X119984610Y-62609866D01*
X119957521Y-62610640D01*
X119949930Y-62606281D01*
X119942064Y-62605468D01*
X119925596Y-62592308D01*
X119901366Y-62578395D01*
X119618152Y-62295181D01*
X119584667Y-62233858D01*
X119589651Y-62164166D01*
X119631523Y-62108233D01*
X119696987Y-62083816D01*
X119705833Y-62083500D01*
X119891168Y-62083500D01*
X119958207Y-62103185D01*
G37*
%TD.AperFunction*%
%TA.AperFunction,NonConductor*%
G36*
X130581705Y-57419684D02*
G01*
X130602347Y-57436318D01*
X135531013Y-62364984D01*
X135536494Y-62375022D01*
X135545384Y-62382227D01*
X135552939Y-62405139D01*
X135564498Y-62426307D01*
X135563682Y-62437716D01*
X135567265Y-62448582D01*
X135561234Y-62471937D01*
X135559514Y-62495999D01*
X135552657Y-62505157D01*
X135549798Y-62516233D01*
X135532099Y-62532620D01*
X135517642Y-62551932D01*
X135505602Y-62557152D01*
X135498529Y-62563702D01*
X135468035Y-62573443D01*
X135465011Y-62574755D01*
X135463799Y-62574970D01*
X135282759Y-62603644D01*
X135259194Y-62611300D01*
X135250726Y-62612804D01*
X135224202Y-62609878D01*
X135197521Y-62610640D01*
X135189534Y-62606053D01*
X135181277Y-62605143D01*
X135165059Y-62592000D01*
X135141366Y-62578395D01*
X130174651Y-57611680D01*
X130141166Y-57550357D01*
X130146150Y-57480665D01*
X130188022Y-57424732D01*
X130253486Y-57400315D01*
X130262332Y-57399999D01*
X130514666Y-57399999D01*
X130581705Y-57419684D01*
G37*
%TD.AperFunction*%
%TA.AperFunction,NonConductor*%
G36*
X116888850Y-62704185D02*
G01*
X116934605Y-62756989D01*
X116944549Y-62826147D01*
X116915524Y-62889703D01*
X116894696Y-62908818D01*
X116873281Y-62924376D01*
X116873275Y-62924381D01*
X116705382Y-63092274D01*
X116705377Y-63092280D01*
X116686315Y-63118516D01*
X116630984Y-63161181D01*
X116561370Y-63167157D01*
X116499576Y-63134550D01*
X116485680Y-63118511D01*
X116466627Y-63092286D01*
X116466621Y-63092279D01*
X116298724Y-62924382D01*
X116298723Y-62924381D01*
X116298722Y-62924380D01*
X116277301Y-62908816D01*
X116234637Y-62853488D01*
X116228658Y-62783874D01*
X116261264Y-62722079D01*
X116322103Y-62687722D01*
X116350188Y-62684500D01*
X116821811Y-62684500D01*
X116888850Y-62704185D01*
G37*
%TD.AperFunction*%
%TA.AperFunction,NonConductor*%
G36*
X114348851Y-62704185D02*
G01*
X114394606Y-62756989D01*
X114404550Y-62826147D01*
X114375525Y-62889703D01*
X114354700Y-62908815D01*
X114333278Y-62924380D01*
X114333276Y-62924382D01*
X114333275Y-62924382D01*
X114165382Y-63092275D01*
X114165377Y-63092281D01*
X114146315Y-63118517D01*
X114090984Y-63161182D01*
X114021370Y-63167158D01*
X113959576Y-63134551D01*
X113945680Y-63118513D01*
X113926622Y-63092281D01*
X113758723Y-62924382D01*
X113758722Y-62924381D01*
X113758721Y-62924380D01*
X113737300Y-62908816D01*
X113694636Y-62853488D01*
X113688657Y-62783874D01*
X113721263Y-62722079D01*
X113782102Y-62687722D01*
X113810187Y-62684500D01*
X114281812Y-62684500D01*
X114348851Y-62704185D01*
G37*
%TD.AperFunction*%
%TA.AperFunction,NonConductor*%
G36*
X137562539Y-55218685D02*
G01*
X137608294Y-55271489D01*
X137619500Y-55323000D01*
X137619500Y-56747537D01*
X137619501Y-56747553D01*
X137630113Y-56851427D01*
X137685884Y-57019735D01*
X137685886Y-57019740D01*
X137721142Y-57076898D01*
X137778970Y-57170652D01*
X137904348Y-57296030D01*
X138055262Y-57389115D01*
X138223574Y-57444887D01*
X138327455Y-57455500D01*
X139433166Y-57455499D01*
X139500205Y-57475184D01*
X139520847Y-57491818D01*
X142096181Y-60067152D01*
X142129666Y-60128475D01*
X142132500Y-60154833D01*
X142132500Y-66663167D01*
X142112815Y-66730206D01*
X142060011Y-66775961D01*
X141990853Y-66785905D01*
X141927297Y-66756880D01*
X141920819Y-66750848D01*
X132759138Y-57589167D01*
X132725653Y-57527844D01*
X132730637Y-57458152D01*
X132772509Y-57402219D01*
X132827420Y-57379013D01*
X132906116Y-57366549D01*
X133109483Y-57300472D01*
X133300009Y-57203394D01*
X133473004Y-57077706D01*
X133624206Y-56926504D01*
X133749894Y-56753509D01*
X133846972Y-56562983D01*
X133913049Y-56359616D01*
X133946500Y-56148416D01*
X133946500Y-55634584D01*
X133913049Y-55423384D01*
X133897801Y-55376455D01*
X133892883Y-55361318D01*
X133890888Y-55291477D01*
X133926968Y-55231644D01*
X133989669Y-55200816D01*
X134010814Y-55199000D01*
X137495500Y-55199000D01*
X137562539Y-55218685D01*
G37*
%TD.AperFunction*%
%TA.AperFunction,NonConductor*%
G36*
X155342539Y-55218685D02*
G01*
X155388294Y-55271489D01*
X155399500Y-55323000D01*
X155399500Y-56252167D01*
X155379815Y-56319206D01*
X155363181Y-56339848D01*
X144938181Y-66764848D01*
X144876858Y-66798333D01*
X144807166Y-66793349D01*
X144751233Y-66751477D01*
X144726816Y-66686013D01*
X144726500Y-66677167D01*
X144726500Y-60141832D01*
X144746185Y-60074793D01*
X144762814Y-60054156D01*
X147325152Y-57491817D01*
X147386475Y-57458333D01*
X147412833Y-57455499D01*
X148518537Y-57455499D01*
X148518544Y-57455499D01*
X148622426Y-57444887D01*
X148790738Y-57389115D01*
X148941652Y-57296030D01*
X149067030Y-57170652D01*
X149157679Y-57023687D01*
X149209624Y-56976966D01*
X149278587Y-56965743D01*
X149342669Y-56993587D01*
X149350896Y-57001106D01*
X149482996Y-57133206D01*
X149655991Y-57258894D01*
X149737592Y-57300472D01*
X149846516Y-57355972D01*
X149846519Y-57355973D01*
X149917431Y-57379013D01*
X150049884Y-57422049D01*
X150261084Y-57455500D01*
X150261085Y-57455500D01*
X150474915Y-57455500D01*
X150474916Y-57455500D01*
X150686116Y-57422049D01*
X150889483Y-57355972D01*
X151080009Y-57258894D01*
X151253004Y-57133206D01*
X151404206Y-56982004D01*
X151529894Y-56809009D01*
X151626972Y-56618483D01*
X151693049Y-56415116D01*
X151726500Y-56203916D01*
X151726500Y-55690084D01*
X151693049Y-55478884D01*
X151654849Y-55361317D01*
X151652855Y-55291477D01*
X151688935Y-55231644D01*
X151751636Y-55200816D01*
X151772781Y-55199000D01*
X155275500Y-55199000D01*
X155342539Y-55218685D01*
G37*
%TD.AperFunction*%
%TA.AperFunction,NonConductor*%
G36*
X98486834Y-63966651D02*
G01*
X98542767Y-64008523D01*
X98567184Y-64073987D01*
X98567500Y-64082833D01*
X98567500Y-65123654D01*
X98574011Y-65184202D01*
X98574011Y-65184204D01*
X98601153Y-65256972D01*
X98625111Y-65321204D01*
X98712739Y-65438261D01*
X98829796Y-65525889D01*
X98966799Y-65576989D01*
X98994050Y-65579918D01*
X99027345Y-65583499D01*
X99027362Y-65583500D01*
X101124638Y-65583500D01*
X101124654Y-65583499D01*
X101151692Y-65580591D01*
X101185201Y-65576989D01*
X101322204Y-65525889D01*
X101439261Y-65438261D01*
X101526889Y-65321204D01*
X101526889Y-65321203D01*
X101532204Y-65314104D01*
X101533233Y-65314874D01*
X101576266Y-65271832D01*
X101644537Y-65256972D01*
X101708590Y-65280338D01*
X101825372Y-65365185D01*
X101866328Y-65386053D01*
X102036931Y-65472980D01*
X102036933Y-65472980D01*
X102036936Y-65472982D01*
X102157983Y-65512312D01*
X102262757Y-65546356D01*
X102497272Y-65583500D01*
X102497277Y-65583500D01*
X102734726Y-65583500D01*
X102969240Y-65546356D01*
X102969243Y-65546355D01*
X103195062Y-65472982D01*
X103406626Y-65365185D01*
X103598721Y-65225620D01*
X103766619Y-65057722D01*
X103785680Y-65031487D01*
X103841008Y-64988820D01*
X103910621Y-64982839D01*
X103972417Y-65015443D01*
X103986316Y-65031483D01*
X104005378Y-65057720D01*
X104005380Y-65057722D01*
X104173278Y-65225620D01*
X104365373Y-65365185D01*
X104406329Y-65386053D01*
X104576932Y-65472980D01*
X104576934Y-65472980D01*
X104576937Y-65472982D01*
X104697984Y-65512312D01*
X104802758Y-65546356D01*
X105037273Y-65583500D01*
X105037278Y-65583500D01*
X105274727Y-65583500D01*
X105509241Y-65546356D01*
X105509244Y-65546355D01*
X105735063Y-65472982D01*
X105946627Y-65365185D01*
X106138722Y-65225620D01*
X106306620Y-65057722D01*
X106325681Y-65031487D01*
X106381009Y-64988821D01*
X106450622Y-64982840D01*
X106512418Y-65015445D01*
X106526318Y-65031487D01*
X106545375Y-65057718D01*
X106545378Y-65057721D01*
X106545379Y-65057722D01*
X106713277Y-65225620D01*
X106905372Y-65365185D01*
X106946328Y-65386053D01*
X107116931Y-65472980D01*
X107116933Y-65472980D01*
X107116936Y-65472982D01*
X107237983Y-65512312D01*
X107342757Y-65546356D01*
X107577272Y-65583500D01*
X107577277Y-65583500D01*
X107814726Y-65583500D01*
X108049240Y-65546356D01*
X108049243Y-65546355D01*
X108275062Y-65472982D01*
X108486626Y-65365185D01*
X108678721Y-65225620D01*
X108846619Y-65057722D01*
X108865680Y-65031487D01*
X108921008Y-64988820D01*
X108990621Y-64982839D01*
X109052417Y-65015443D01*
X109066316Y-65031483D01*
X109085378Y-65057720D01*
X109085380Y-65057722D01*
X109253278Y-65225620D01*
X109302125Y-65261110D01*
X109344790Y-65316439D01*
X109350769Y-65386053D01*
X109318163Y-65447848D01*
X109316920Y-65449108D01*
X109177674Y-65588353D01*
X109177671Y-65588357D01*
X109100136Y-65704395D01*
X109079418Y-65754415D01*
X109046726Y-65833339D01*
X109046725Y-65833341D01*
X109041147Y-65861387D01*
X109008761Y-65923297D01*
X109007211Y-65924875D01*
X92682181Y-82249906D01*
X92620858Y-82283391D01*
X92551166Y-82278407D01*
X92495233Y-82236535D01*
X92470816Y-82171071D01*
X92470500Y-82162225D01*
X92470500Y-69931833D01*
X92490185Y-69864794D01*
X92506819Y-69844152D01*
X98355819Y-63995152D01*
X98417142Y-63961667D01*
X98486834Y-63966651D01*
G37*
%TD.AperFunction*%
%TA.AperFunction,NonConductor*%
G36*
X115810633Y-90971604D02*
G01*
X116095181Y-91256151D01*
X116109884Y-91283078D01*
X116126477Y-91308897D01*
X116127368Y-91315097D01*
X116128666Y-91317474D01*
X116131500Y-91343832D01*
X116131500Y-91529168D01*
X116111815Y-91596207D01*
X116059011Y-91641962D01*
X115989853Y-91651906D01*
X115926297Y-91622881D01*
X115919819Y-91616849D01*
X115478823Y-91175854D01*
X115445338Y-91114531D01*
X115450322Y-91044840D01*
X115492193Y-90988906D01*
X115547107Y-90965700D01*
X115669241Y-90946356D01*
X115684635Y-90941353D01*
X115754474Y-90939359D01*
X115810633Y-90971604D01*
G37*
%TD.AperFunction*%
%TA.AperFunction,NonConductor*%
G36*
X113270633Y-90971605D02*
G01*
X115079181Y-92780152D01*
X115093884Y-92807079D01*
X115110477Y-92832898D01*
X115111368Y-92839098D01*
X115112666Y-92841475D01*
X115115500Y-92867833D01*
X115115500Y-93053167D01*
X115095815Y-93120206D01*
X115043011Y-93165961D01*
X114973853Y-93175905D01*
X114910297Y-93146880D01*
X114903819Y-93140848D01*
X112938826Y-91175855D01*
X112905341Y-91114532D01*
X112910325Y-91044840D01*
X112952197Y-90988907D01*
X113007109Y-90965701D01*
X113034529Y-90961357D01*
X113129241Y-90946357D01*
X113144635Y-90941354D01*
X113214474Y-90939360D01*
X113270633Y-90971605D01*
G37*
%TD.AperFunction*%
%TA.AperFunction,NonConductor*%
G36*
X160771638Y-56129875D02*
G01*
X160822689Y-56160660D01*
X177457181Y-72795152D01*
X177490666Y-72856475D01*
X177493500Y-72882833D01*
X177493500Y-73044967D01*
X177520724Y-73181834D01*
X177520727Y-73181843D01*
X177574135Y-73310782D01*
X177574136Y-73310785D01*
X177651671Y-73426823D01*
X177651674Y-73426827D01*
X180209181Y-75984332D01*
X180242666Y-76045655D01*
X180245500Y-76072013D01*
X180245500Y-77404500D01*
X180225815Y-77471539D01*
X180173011Y-77517294D01*
X180121500Y-77528500D01*
X178802462Y-77528500D01*
X178802446Y-77528501D01*
X178698572Y-77539113D01*
X178530264Y-77594884D01*
X178530259Y-77594886D01*
X178379346Y-77687971D01*
X178253971Y-77813346D01*
X178160886Y-77964259D01*
X178160884Y-77964264D01*
X178105113Y-78132572D01*
X178094500Y-78236447D01*
X178094500Y-79537537D01*
X178094501Y-79537553D01*
X178105113Y-79641426D01*
X178160885Y-79809738D01*
X178253970Y-79960652D01*
X178379348Y-80086030D01*
X178526310Y-80176677D01*
X178573033Y-80228624D01*
X178584256Y-80297587D01*
X178556412Y-80361669D01*
X178548894Y-80369896D01*
X178416793Y-80501997D01*
X178291106Y-80674990D01*
X178194027Y-80865516D01*
X178194026Y-80865519D01*
X178127951Y-81068882D01*
X178094500Y-81280084D01*
X178094500Y-81493915D01*
X178127951Y-81705117D01*
X178194026Y-81908480D01*
X178194027Y-81908483D01*
X178291106Y-82099009D01*
X178416794Y-82272004D01*
X178567996Y-82423206D01*
X178670344Y-82497566D01*
X178724182Y-82536682D01*
X178766847Y-82592012D01*
X178772826Y-82661626D01*
X178740220Y-82723421D01*
X178724182Y-82737318D01*
X178655297Y-82787365D01*
X178567996Y-82850794D01*
X178567994Y-82850796D01*
X178567993Y-82850796D01*
X178416796Y-83001993D01*
X178291106Y-83174990D01*
X178194027Y-83365516D01*
X178194026Y-83365519D01*
X178127951Y-83568882D01*
X178094500Y-83780084D01*
X178094500Y-83993915D01*
X178127951Y-84205117D01*
X178136341Y-84230941D01*
X178138335Y-84300782D01*
X178106090Y-84356937D01*
X161331174Y-101131853D01*
X161331168Y-101131861D01*
X161253637Y-101247894D01*
X161253635Y-101247899D01*
X161215869Y-101339072D01*
X161215868Y-101339073D01*
X161200227Y-101376836D01*
X161200225Y-101376842D01*
X161173000Y-101513714D01*
X161173000Y-114374500D01*
X161153315Y-114441539D01*
X161100511Y-114487294D01*
X161049000Y-114498500D01*
X159526845Y-114498500D01*
X159466297Y-114505011D01*
X159466295Y-114505011D01*
X159329295Y-114556111D01*
X159212239Y-114643739D01*
X159124610Y-114760796D01*
X159117491Y-114779883D01*
X159075617Y-114835815D01*
X159010152Y-114860229D01*
X158941880Y-114845375D01*
X158928426Y-114836863D01*
X158753734Y-114709942D01*
X158753733Y-114709941D01*
X158753731Y-114709940D01*
X158680180Y-114672464D01*
X158548833Y-114605539D01*
X158330118Y-114534473D01*
X158102988Y-114498500D01*
X158102983Y-114498500D01*
X157873017Y-114498500D01*
X157873012Y-114498500D01*
X157645881Y-114534473D01*
X157427166Y-114605539D01*
X157222268Y-114709940D01*
X157036219Y-114845113D01*
X156873612Y-115007720D01*
X156818318Y-115083826D01*
X156762987Y-115126491D01*
X156693374Y-115132470D01*
X156631579Y-115099864D01*
X156617682Y-115083826D01*
X156599535Y-115058849D01*
X156562389Y-115007722D01*
X156399778Y-114845111D01*
X156213731Y-114709940D01*
X156213730Y-114709939D01*
X156209789Y-114707076D01*
X156210782Y-114705708D01*
X156168832Y-114659335D01*
X156156500Y-114605425D01*
X156156500Y-105755218D01*
X156156499Y-105755214D01*
X156129274Y-105618344D01*
X156129273Y-105618338D01*
X156107150Y-105564930D01*
X156075865Y-105489400D01*
X155998328Y-105373358D01*
X155998325Y-105373354D01*
X145363819Y-94738848D01*
X145330334Y-94677525D01*
X145327500Y-94651167D01*
X145327500Y-68430831D01*
X145347185Y-68363792D01*
X145363814Y-68343155D01*
X146367124Y-67339845D01*
X148399000Y-67339845D01*
X148399000Y-68961154D01*
X148405511Y-69021702D01*
X148405511Y-69021704D01*
X148456611Y-69158704D01*
X148544239Y-69275761D01*
X148661296Y-69363389D01*
X148798299Y-69414489D01*
X148825550Y-69417418D01*
X148858845Y-69420999D01*
X148858862Y-69421000D01*
X150480138Y-69421000D01*
X150480154Y-69420999D01*
X150507192Y-69418091D01*
X150540701Y-69414489D01*
X150677704Y-69363389D01*
X150794761Y-69275761D01*
X150882389Y-69158704D01*
X150933489Y-69021701D01*
X150938168Y-68978177D01*
X150939999Y-68961154D01*
X150940000Y-68961137D01*
X150940000Y-68946319D01*
X150959685Y-68879280D01*
X151012489Y-68833525D01*
X151081647Y-68823581D01*
X151145203Y-68852606D01*
X151164318Y-68873434D01*
X151240414Y-68978171D01*
X151240417Y-68978175D01*
X151381825Y-69119583D01*
X151543613Y-69237129D01*
X151721797Y-69327919D01*
X151721799Y-69327920D01*
X151816893Y-69358817D01*
X151911990Y-69389716D01*
X152109509Y-69421000D01*
X152109510Y-69421000D01*
X152309490Y-69421000D01*
X152309491Y-69421000D01*
X152507010Y-69389716D01*
X152697203Y-69327919D01*
X152875387Y-69237129D01*
X153037175Y-69119583D01*
X153178583Y-68978175D01*
X153296129Y-68816387D01*
X153369015Y-68673340D01*
X153416990Y-68622545D01*
X153484811Y-68605750D01*
X153550946Y-68628288D01*
X153589984Y-68673340D01*
X153662871Y-68816387D01*
X153780417Y-68978175D01*
X153921825Y-69119583D01*
X154083613Y-69237129D01*
X154261797Y-69327919D01*
X154261799Y-69327920D01*
X154356893Y-69358817D01*
X154451990Y-69389716D01*
X154649509Y-69421000D01*
X154649510Y-69421000D01*
X154849490Y-69421000D01*
X154849491Y-69421000D01*
X155047010Y-69389716D01*
X155237203Y-69327919D01*
X155415387Y-69237129D01*
X155577175Y-69119583D01*
X155718583Y-68978175D01*
X155836129Y-68816387D01*
X155909015Y-68673340D01*
X155956990Y-68622545D01*
X156024811Y-68605750D01*
X156090946Y-68628288D01*
X156129984Y-68673340D01*
X156202871Y-68816387D01*
X156320417Y-68978175D01*
X156461825Y-69119583D01*
X156623613Y-69237129D01*
X156801797Y-69327919D01*
X156801799Y-69327920D01*
X156896893Y-69358817D01*
X156991990Y-69389716D01*
X157189509Y-69421000D01*
X157189510Y-69421000D01*
X157389490Y-69421000D01*
X157389491Y-69421000D01*
X157587010Y-69389716D01*
X157777203Y-69327919D01*
X157955387Y-69237129D01*
X158117175Y-69119583D01*
X158258583Y-68978175D01*
X158376129Y-68816387D01*
X158466919Y-68638203D01*
X158467158Y-68637469D01*
X158472007Y-68622545D01*
X158528716Y-68448010D01*
X158560000Y-68250491D01*
X158560000Y-68050509D01*
X158528716Y-67852990D01*
X158477463Y-67695249D01*
X158466920Y-67662799D01*
X158376128Y-67484612D01*
X158370024Y-67476210D01*
X158258583Y-67322825D01*
X158117175Y-67181417D01*
X157955387Y-67063871D01*
X157879568Y-67025239D01*
X157777200Y-66973079D01*
X157587011Y-66911284D01*
X157488250Y-66895642D01*
X157389491Y-66880000D01*
X157189509Y-66880000D01*
X157123669Y-66890428D01*
X156991988Y-66911284D01*
X156801799Y-66973079D01*
X156623612Y-67063871D01*
X156531306Y-67130935D01*
X156461825Y-67181417D01*
X156461823Y-67181419D01*
X156461822Y-67181419D01*
X156320419Y-67322822D01*
X156320419Y-67322823D01*
X156320417Y-67322825D01*
X156308039Y-67339862D01*
X156202867Y-67484617D01*
X156129984Y-67627658D01*
X156082010Y-67678454D01*
X156014189Y-67695249D01*
X155948054Y-67672711D01*
X155909016Y-67627658D01*
X155836132Y-67484617D01*
X155806334Y-67443604D01*
X155718583Y-67322825D01*
X155577175Y-67181417D01*
X155415387Y-67063871D01*
X155339568Y-67025239D01*
X155237200Y-66973079D01*
X155047011Y-66911284D01*
X154948250Y-66895642D01*
X154849491Y-66880000D01*
X154649509Y-66880000D01*
X154583669Y-66890428D01*
X154451988Y-66911284D01*
X154261799Y-66973079D01*
X154083612Y-67063871D01*
X153991306Y-67130935D01*
X153921825Y-67181417D01*
X153921823Y-67181419D01*
X153921822Y-67181419D01*
X153780419Y-67322822D01*
X153780419Y-67322823D01*
X153780417Y-67322825D01*
X153768039Y-67339862D01*
X153662867Y-67484617D01*
X153589984Y-67627658D01*
X153542010Y-67678454D01*
X153474189Y-67695249D01*
X153408054Y-67672711D01*
X153369016Y-67627658D01*
X153296132Y-67484617D01*
X153266334Y-67443604D01*
X153178583Y-67322825D01*
X153037175Y-67181417D01*
X152875387Y-67063871D01*
X152799568Y-67025239D01*
X152697200Y-66973079D01*
X152507011Y-66911284D01*
X152408250Y-66895642D01*
X152309491Y-66880000D01*
X152109509Y-66880000D01*
X152043669Y-66890428D01*
X151911988Y-66911284D01*
X151721799Y-66973079D01*
X151543612Y-67063871D01*
X151451306Y-67130935D01*
X151381825Y-67181417D01*
X151381823Y-67181419D01*
X151381822Y-67181419D01*
X151240419Y-67322822D01*
X151240419Y-67322823D01*
X151240417Y-67322825D01*
X151228039Y-67339862D01*
X151164318Y-67427566D01*
X151108988Y-67470231D01*
X151039374Y-67476210D01*
X150977579Y-67443604D01*
X150943222Y-67382765D01*
X150940000Y-67354680D01*
X150940000Y-67339862D01*
X150939999Y-67339845D01*
X150936657Y-67308770D01*
X150933489Y-67279299D01*
X150882389Y-67142296D01*
X150794761Y-67025239D01*
X150677704Y-66937611D01*
X150540703Y-66886511D01*
X150480154Y-66880000D01*
X150480138Y-66880000D01*
X148858862Y-66880000D01*
X148858845Y-66880000D01*
X148798297Y-66886511D01*
X148798295Y-66886511D01*
X148661295Y-66937611D01*
X148544239Y-67025239D01*
X148456611Y-67142295D01*
X148405511Y-67279295D01*
X148405511Y-67279297D01*
X148399000Y-67339845D01*
X146367124Y-67339845D01*
X156215151Y-57491817D01*
X156276474Y-57458333D01*
X156302832Y-57455499D01*
X157408537Y-57455499D01*
X157408544Y-57455499D01*
X157512426Y-57444887D01*
X157680738Y-57389115D01*
X157831652Y-57296030D01*
X157957030Y-57170652D01*
X158047679Y-57023687D01*
X158099624Y-56976966D01*
X158168587Y-56965743D01*
X158232669Y-56993587D01*
X158240896Y-57001106D01*
X158372996Y-57133206D01*
X158545991Y-57258894D01*
X158627592Y-57300472D01*
X158736516Y-57355972D01*
X158736519Y-57355973D01*
X158807431Y-57379013D01*
X158939884Y-57422049D01*
X159151084Y-57455500D01*
X159151085Y-57455500D01*
X159364915Y-57455500D01*
X159364916Y-57455500D01*
X159576116Y-57422049D01*
X159779483Y-57355972D01*
X159970009Y-57258894D01*
X160143004Y-57133206D01*
X160294206Y-56982004D01*
X160419894Y-56809009D01*
X160516972Y-56618483D01*
X160583049Y-56415116D01*
X160612536Y-56228941D01*
X160642464Y-56165809D01*
X160701775Y-56128877D01*
X160771638Y-56129875D01*
G37*
%TD.AperFunction*%
%TA.AperFunction,NonConductor*%
G36*
X137294964Y-64149201D02*
G01*
X137346015Y-64179986D01*
X141495181Y-68329152D01*
X141528666Y-68390475D01*
X141531500Y-68416833D01*
X141531500Y-94296666D01*
X141511815Y-94363705D01*
X141495181Y-94384347D01*
X121367288Y-114512239D01*
X121305965Y-114545724D01*
X121241292Y-114542490D01*
X121216622Y-114534475D01*
X121216618Y-114534474D01*
X120989488Y-114498500D01*
X120989483Y-114498500D01*
X120759517Y-114498500D01*
X120759512Y-114498500D01*
X120532381Y-114534473D01*
X120313666Y-114605539D01*
X120108768Y-114709940D01*
X119922719Y-114845113D01*
X119760113Y-115007719D01*
X119624940Y-115193768D01*
X119520539Y-115398666D01*
X119449474Y-115617379D01*
X119447876Y-115627471D01*
X119417945Y-115690605D01*
X119358632Y-115727535D01*
X119288770Y-115726535D01*
X119237722Y-115695751D01*
X118600820Y-115058849D01*
X118567335Y-114997526D01*
X118564501Y-114971168D01*
X118564501Y-90883017D01*
X118584186Y-90815978D01*
X118632206Y-90772532D01*
X118646628Y-90765185D01*
X118838723Y-90625620D01*
X119006621Y-90457722D01*
X119025682Y-90431487D01*
X119081010Y-90388821D01*
X119150623Y-90382840D01*
X119212419Y-90415445D01*
X119226319Y-90431487D01*
X119245376Y-90457718D01*
X119245379Y-90457721D01*
X119245380Y-90457722D01*
X119413278Y-90625620D01*
X119605373Y-90765185D01*
X119687499Y-90807030D01*
X119816932Y-90872980D01*
X119816934Y-90872980D01*
X119816937Y-90872982D01*
X119847822Y-90883017D01*
X120042758Y-90946356D01*
X120277273Y-90983500D01*
X120277278Y-90983500D01*
X120514727Y-90983500D01*
X120749241Y-90946356D01*
X120764632Y-90941355D01*
X120975063Y-90872982D01*
X121186627Y-90765185D01*
X121378722Y-90625620D01*
X121546620Y-90457722D01*
X121565681Y-90431487D01*
X121621009Y-90388820D01*
X121690622Y-90382839D01*
X121752418Y-90415443D01*
X121766317Y-90431483D01*
X121785379Y-90457720D01*
X121785381Y-90457722D01*
X121953279Y-90625620D01*
X122145374Y-90765185D01*
X122227500Y-90807030D01*
X122356933Y-90872980D01*
X122356935Y-90872980D01*
X122356938Y-90872982D01*
X122387823Y-90883017D01*
X122582759Y-90946356D01*
X122817274Y-90983500D01*
X122817279Y-90983500D01*
X123054728Y-90983500D01*
X123289242Y-90946356D01*
X123304633Y-90941355D01*
X123515064Y-90872982D01*
X123726628Y-90765185D01*
X123918723Y-90625620D01*
X124086621Y-90457722D01*
X124105682Y-90431487D01*
X124161010Y-90388821D01*
X124230623Y-90382840D01*
X124292419Y-90415445D01*
X124306319Y-90431487D01*
X124325376Y-90457718D01*
X124325379Y-90457721D01*
X124325380Y-90457722D01*
X124493278Y-90625620D01*
X124685373Y-90765185D01*
X124767499Y-90807030D01*
X124896932Y-90872980D01*
X124896934Y-90872980D01*
X124896937Y-90872982D01*
X124927822Y-90883017D01*
X125122758Y-90946356D01*
X125357273Y-90983500D01*
X125357278Y-90983500D01*
X125594727Y-90983500D01*
X125829241Y-90946356D01*
X125844632Y-90941355D01*
X126055063Y-90872982D01*
X126266627Y-90765185D01*
X126458722Y-90625620D01*
X126626620Y-90457722D01*
X126645681Y-90431487D01*
X126701009Y-90388821D01*
X126770622Y-90382840D01*
X126832418Y-90415445D01*
X126846316Y-90431484D01*
X126865378Y-90457721D01*
X126865380Y-90457723D01*
X127033278Y-90625621D01*
X127225373Y-90765186D01*
X127307497Y-90807030D01*
X127436932Y-90872981D01*
X127436934Y-90872981D01*
X127436937Y-90872983D01*
X127557984Y-90912313D01*
X127662758Y-90946357D01*
X127897273Y-90983501D01*
X127897278Y-90983501D01*
X128134727Y-90983501D01*
X128369241Y-90946357D01*
X128369244Y-90946356D01*
X128595063Y-90872983D01*
X128806627Y-90765186D01*
X128998722Y-90625621D01*
X129166620Y-90457723D01*
X129185681Y-90431488D01*
X129241009Y-90388821D01*
X129310622Y-90382840D01*
X129372418Y-90415444D01*
X129386319Y-90431487D01*
X129405376Y-90457718D01*
X129405379Y-90457721D01*
X129405380Y-90457722D01*
X129573278Y-90625620D01*
X129765373Y-90765185D01*
X129847499Y-90807030D01*
X129976932Y-90872980D01*
X129976934Y-90872980D01*
X129976937Y-90872982D01*
X130007822Y-90883017D01*
X130202758Y-90946356D01*
X130437273Y-90983500D01*
X130437278Y-90983500D01*
X130674727Y-90983500D01*
X130909241Y-90946356D01*
X130924632Y-90941355D01*
X131135063Y-90872982D01*
X131346627Y-90765185D01*
X131538722Y-90625620D01*
X131706620Y-90457722D01*
X131706625Y-90457715D01*
X131725681Y-90431487D01*
X131781010Y-90388820D01*
X131850624Y-90382840D01*
X131912419Y-90415446D01*
X131926319Y-90431487D01*
X131945376Y-90457718D01*
X131945379Y-90457721D01*
X131945380Y-90457722D01*
X132113278Y-90625620D01*
X132305373Y-90765185D01*
X132387499Y-90807030D01*
X132516932Y-90872980D01*
X132516934Y-90872980D01*
X132516937Y-90872982D01*
X132547822Y-90883017D01*
X132742758Y-90946356D01*
X132977273Y-90983500D01*
X132977278Y-90983500D01*
X133214727Y-90983500D01*
X133449241Y-90946356D01*
X133464632Y-90941355D01*
X133675063Y-90872982D01*
X133886627Y-90765185D01*
X134078722Y-90625620D01*
X134246620Y-90457722D01*
X134246625Y-90457715D01*
X134265681Y-90431487D01*
X134321010Y-90388820D01*
X134390624Y-90382840D01*
X134452419Y-90415446D01*
X134466319Y-90431487D01*
X134485376Y-90457718D01*
X134485379Y-90457721D01*
X134485380Y-90457722D01*
X134653278Y-90625620D01*
X134845373Y-90765185D01*
X134927499Y-90807030D01*
X135056932Y-90872980D01*
X135056934Y-90872980D01*
X135056937Y-90872982D01*
X135087822Y-90883017D01*
X135282758Y-90946356D01*
X135517273Y-90983500D01*
X135517278Y-90983500D01*
X135754727Y-90983500D01*
X135989241Y-90946356D01*
X136004632Y-90941355D01*
X136215063Y-90872982D01*
X136426627Y-90765185D01*
X136618722Y-90625620D01*
X136786620Y-90457722D01*
X136926185Y-90265627D01*
X137033982Y-90054063D01*
X137107356Y-89828241D01*
X137144500Y-89593727D01*
X137144500Y-89356272D01*
X137107356Y-89121758D01*
X137033980Y-88895932D01*
X136926184Y-88684372D01*
X136841023Y-88567158D01*
X136786620Y-88492278D01*
X136618722Y-88324380D01*
X136426627Y-88184815D01*
X136215067Y-88077019D01*
X135989241Y-88003643D01*
X135754727Y-87966500D01*
X135754722Y-87966500D01*
X135517278Y-87966500D01*
X135517273Y-87966500D01*
X135282758Y-88003643D01*
X135056932Y-88077019D01*
X134845372Y-88184815D01*
X134653275Y-88324382D01*
X134485382Y-88492275D01*
X134485375Y-88492284D01*
X134466317Y-88518515D01*
X134410987Y-88561181D01*
X134341374Y-88567159D01*
X134279579Y-88534553D01*
X134265683Y-88518515D01*
X134253416Y-88501633D01*
X134246620Y-88492278D01*
X134078722Y-88324380D01*
X133886627Y-88184815D01*
X133675067Y-88077019D01*
X133449241Y-88003643D01*
X133214727Y-87966500D01*
X133214722Y-87966500D01*
X132977278Y-87966500D01*
X132977273Y-87966500D01*
X132742758Y-88003643D01*
X132516932Y-88077019D01*
X132305372Y-88184815D01*
X132113275Y-88324382D01*
X131945382Y-88492275D01*
X131945375Y-88492284D01*
X131926317Y-88518515D01*
X131870987Y-88561181D01*
X131801374Y-88567159D01*
X131739579Y-88534553D01*
X131725683Y-88518515D01*
X131713416Y-88501633D01*
X131706620Y-88492278D01*
X131538722Y-88324380D01*
X131346627Y-88184815D01*
X131135067Y-88077019D01*
X130909241Y-88003643D01*
X130674727Y-87966500D01*
X130674722Y-87966500D01*
X130437278Y-87966500D01*
X130437273Y-87966500D01*
X130202758Y-88003643D01*
X129976932Y-88077019D01*
X129765372Y-88184815D01*
X129573275Y-88324382D01*
X129405382Y-88492275D01*
X129405377Y-88492281D01*
X129386315Y-88518517D01*
X129330984Y-88561182D01*
X129261370Y-88567158D01*
X129199576Y-88534551D01*
X129185680Y-88518512D01*
X129166627Y-88492287D01*
X129166621Y-88492280D01*
X128998724Y-88324383D01*
X128998723Y-88324382D01*
X128998722Y-88324381D01*
X128806627Y-88184816D01*
X128806625Y-88184815D01*
X128595067Y-88077020D01*
X128369241Y-88003644D01*
X128134727Y-87966501D01*
X128134722Y-87966501D01*
X127897278Y-87966501D01*
X127897273Y-87966501D01*
X127662758Y-88003644D01*
X127436932Y-88077020D01*
X127225372Y-88184816D01*
X127033275Y-88324383D01*
X126865382Y-88492276D01*
X126865377Y-88492282D01*
X126846316Y-88518517D01*
X126790985Y-88561181D01*
X126721372Y-88567159D01*
X126659578Y-88534551D01*
X126645681Y-88518513D01*
X126626623Y-88492281D01*
X126458724Y-88324382D01*
X126458723Y-88324381D01*
X126458722Y-88324380D01*
X126266627Y-88184815D01*
X126055067Y-88077019D01*
X125829241Y-88003643D01*
X125594727Y-87966500D01*
X125594722Y-87966500D01*
X125357278Y-87966500D01*
X125357273Y-87966500D01*
X125122758Y-88003643D01*
X124896932Y-88077019D01*
X124685372Y-88184815D01*
X124493275Y-88324382D01*
X124325382Y-88492275D01*
X124325377Y-88492281D01*
X124306316Y-88518516D01*
X124250985Y-88561180D01*
X124181372Y-88567158D01*
X124119578Y-88534550D01*
X124105681Y-88518511D01*
X124086628Y-88492286D01*
X124086622Y-88492279D01*
X123918725Y-88324382D01*
X123918724Y-88324381D01*
X123918723Y-88324380D01*
X123726628Y-88184815D01*
X123515068Y-88077019D01*
X123289242Y-88003643D01*
X123054728Y-87966500D01*
X123054723Y-87966500D01*
X122817279Y-87966500D01*
X122817274Y-87966500D01*
X122582759Y-88003643D01*
X122356933Y-88077019D01*
X122145373Y-88184815D01*
X121953276Y-88324382D01*
X121785383Y-88492275D01*
X121785378Y-88492281D01*
X121766316Y-88518517D01*
X121710985Y-88561182D01*
X121641371Y-88567158D01*
X121579577Y-88534551D01*
X121565681Y-88518513D01*
X121546623Y-88492281D01*
X121378724Y-88324382D01*
X121378723Y-88324381D01*
X121378722Y-88324380D01*
X121186627Y-88184815D01*
X120975067Y-88077019D01*
X120749241Y-88003643D01*
X120514727Y-87966500D01*
X120514722Y-87966500D01*
X120277278Y-87966500D01*
X120277273Y-87966500D01*
X120042758Y-88003643D01*
X119816932Y-88077019D01*
X119605372Y-88184815D01*
X119413275Y-88324382D01*
X119245382Y-88492275D01*
X119245377Y-88492281D01*
X119226316Y-88518516D01*
X119170985Y-88561180D01*
X119101372Y-88567158D01*
X119039578Y-88534550D01*
X119025681Y-88518511D01*
X119006628Y-88492286D01*
X119006622Y-88492279D01*
X118838725Y-88324382D01*
X118838724Y-88324381D01*
X118838723Y-88324380D01*
X118646628Y-88184815D01*
X118435068Y-88077019D01*
X118209242Y-88003643D01*
X117974728Y-87966500D01*
X117974723Y-87966500D01*
X117737279Y-87966500D01*
X117737274Y-87966500D01*
X117502759Y-88003643D01*
X117276933Y-88077019D01*
X117065373Y-88184815D01*
X116873276Y-88324382D01*
X116705383Y-88492275D01*
X116705378Y-88492281D01*
X116686316Y-88518517D01*
X116630985Y-88561182D01*
X116561371Y-88567158D01*
X116499577Y-88534551D01*
X116485681Y-88518513D01*
X116466623Y-88492281D01*
X116298724Y-88324382D01*
X116298723Y-88324381D01*
X116298722Y-88324380D01*
X116106627Y-88184815D01*
X115895067Y-88077019D01*
X115669241Y-88003643D01*
X115434727Y-87966500D01*
X115434722Y-87966500D01*
X115197278Y-87966500D01*
X115197273Y-87966500D01*
X114962758Y-88003643D01*
X114736932Y-88077019D01*
X114525372Y-88184815D01*
X114333275Y-88324382D01*
X114165382Y-88492275D01*
X114165377Y-88492281D01*
X114146315Y-88518517D01*
X114090984Y-88561182D01*
X114021370Y-88567158D01*
X113959576Y-88534551D01*
X113945680Y-88518512D01*
X113926627Y-88492287D01*
X113926621Y-88492280D01*
X113758724Y-88324383D01*
X113758723Y-88324382D01*
X113758722Y-88324381D01*
X113566627Y-88184816D01*
X113566625Y-88184815D01*
X113355067Y-88077020D01*
X113129241Y-88003644D01*
X112894727Y-87966501D01*
X112894722Y-87966501D01*
X112657278Y-87966501D01*
X112657273Y-87966501D01*
X112422758Y-88003644D01*
X112196932Y-88077020D01*
X111985372Y-88184816D01*
X111793275Y-88324383D01*
X111625382Y-88492276D01*
X111625377Y-88492282D01*
X111606316Y-88518517D01*
X111550985Y-88561181D01*
X111481372Y-88567159D01*
X111419578Y-88534551D01*
X111405681Y-88518513D01*
X111386623Y-88492281D01*
X111218724Y-88324382D01*
X111218723Y-88324381D01*
X111218722Y-88324380D01*
X111026627Y-88184815D01*
X110815067Y-88077019D01*
X110589241Y-88003643D01*
X110354727Y-87966500D01*
X110354722Y-87966500D01*
X110117278Y-87966500D01*
X110117273Y-87966500D01*
X109882758Y-88003643D01*
X109656932Y-88077019D01*
X109445372Y-88184815D01*
X109253275Y-88324382D01*
X109085382Y-88492275D01*
X109085377Y-88492281D01*
X109066315Y-88518517D01*
X109010984Y-88561182D01*
X108941370Y-88567158D01*
X108879576Y-88534551D01*
X108865680Y-88518512D01*
X108846627Y-88492287D01*
X108846621Y-88492280D01*
X108678724Y-88324383D01*
X108678723Y-88324382D01*
X108678722Y-88324381D01*
X108486627Y-88184816D01*
X108486625Y-88184815D01*
X108275067Y-88077020D01*
X108049241Y-88003644D01*
X107814727Y-87966501D01*
X107814722Y-87966501D01*
X107577278Y-87966501D01*
X107577273Y-87966501D01*
X107342758Y-88003644D01*
X107116932Y-88077020D01*
X106905372Y-88184816D01*
X106713275Y-88324383D01*
X106545382Y-88492276D01*
X106545377Y-88492282D01*
X106526316Y-88518517D01*
X106470985Y-88561181D01*
X106401372Y-88567159D01*
X106339578Y-88534551D01*
X106325681Y-88518513D01*
X106306623Y-88492281D01*
X106138724Y-88324382D01*
X106138723Y-88324381D01*
X106138722Y-88324380D01*
X105946627Y-88184815D01*
X105735067Y-88077019D01*
X105509241Y-88003643D01*
X105274727Y-87966500D01*
X105274722Y-87966500D01*
X105037278Y-87966500D01*
X105037273Y-87966500D01*
X104802758Y-88003643D01*
X104576932Y-88077019D01*
X104365372Y-88184815D01*
X104173275Y-88324382D01*
X104005382Y-88492275D01*
X104005377Y-88492281D01*
X103986315Y-88518517D01*
X103930984Y-88561182D01*
X103861370Y-88567158D01*
X103799576Y-88534551D01*
X103785680Y-88518512D01*
X103766627Y-88492287D01*
X103766621Y-88492280D01*
X103598724Y-88324383D01*
X103598723Y-88324382D01*
X103598722Y-88324381D01*
X103406627Y-88184816D01*
X103406625Y-88184815D01*
X103195067Y-88077020D01*
X102969242Y-88003645D01*
X102847106Y-87984300D01*
X102783972Y-87954370D01*
X102747041Y-87895059D01*
X102748039Y-87825196D01*
X102778822Y-87774148D01*
X116391828Y-74161142D01*
X116469365Y-74045101D01*
X116522773Y-73916161D01*
X116522773Y-73916158D01*
X116522775Y-73916154D01*
X116529236Y-73883673D01*
X116549999Y-73779285D01*
X116550000Y-73779282D01*
X116550000Y-69269349D01*
X116569685Y-69202310D01*
X116601116Y-69169030D01*
X116669171Y-69119586D01*
X116669171Y-69119585D01*
X116669175Y-69119583D01*
X116810583Y-68978175D01*
X116928129Y-68816387D01*
X117001015Y-68673340D01*
X117048990Y-68622545D01*
X117116811Y-68605750D01*
X117182946Y-68628288D01*
X117221984Y-68673340D01*
X117294871Y-68816387D01*
X117412417Y-68978175D01*
X117553825Y-69119583D01*
X117715613Y-69237129D01*
X117893797Y-69327919D01*
X117893799Y-69327920D01*
X117988893Y-69358817D01*
X118083990Y-69389716D01*
X118281509Y-69421000D01*
X118281510Y-69421000D01*
X118481490Y-69421000D01*
X118481491Y-69421000D01*
X118564581Y-69407839D01*
X118633873Y-69416793D01*
X118671660Y-69442631D01*
X119092853Y-69863825D01*
X119092856Y-69863828D01*
X119170393Y-69915636D01*
X119194633Y-69931833D01*
X119208898Y-69941364D01*
X119208899Y-69941365D01*
X119262304Y-69963485D01*
X119262306Y-69963486D01*
X119262307Y-69963486D01*
X119337838Y-69994773D01*
X119360677Y-69999316D01*
X119455241Y-70018126D01*
X119466359Y-70020337D01*
X119474718Y-70022000D01*
X127927282Y-70022000D01*
X127995721Y-70008386D01*
X128064162Y-69994773D01*
X128101927Y-69979130D01*
X128193101Y-69941365D01*
X128309143Y-69863828D01*
X132601367Y-65571601D01*
X132662688Y-65538118D01*
X132727364Y-65541353D01*
X132742759Y-65546356D01*
X132830703Y-65560285D01*
X132977273Y-65583500D01*
X132977278Y-65583500D01*
X133214727Y-65583500D01*
X133449241Y-65546356D01*
X133449244Y-65546355D01*
X133675063Y-65472982D01*
X133886627Y-65365185D01*
X134078722Y-65225620D01*
X134246620Y-65057722D01*
X134265682Y-65031486D01*
X134321010Y-64988820D01*
X134390624Y-64982840D01*
X134452419Y-65015446D01*
X134466319Y-65031487D01*
X134485376Y-65057718D01*
X134485379Y-65057721D01*
X134485380Y-65057722D01*
X134653278Y-65225620D01*
X134845373Y-65365185D01*
X134886329Y-65386053D01*
X135056932Y-65472980D01*
X135056934Y-65472980D01*
X135056937Y-65472982D01*
X135177984Y-65512312D01*
X135282758Y-65546356D01*
X135517273Y-65583500D01*
X135517278Y-65583500D01*
X135754727Y-65583500D01*
X135989241Y-65546356D01*
X135989244Y-65546355D01*
X136215063Y-65472982D01*
X136426627Y-65365185D01*
X136618722Y-65225620D01*
X136786620Y-65057722D01*
X136926185Y-64865627D01*
X137033982Y-64654063D01*
X137107356Y-64428241D01*
X137135861Y-64248269D01*
X137165790Y-64185134D01*
X137225102Y-64148203D01*
X137294964Y-64149201D01*
G37*
%TD.AperFunction*%
%TA.AperFunction,NonConductor*%
G36*
X180212856Y-85225968D02*
G01*
X180243684Y-85288669D01*
X180245500Y-85309814D01*
X180245500Y-88834500D01*
X180225815Y-88901539D01*
X180173011Y-88947294D01*
X180121500Y-88958500D01*
X178802462Y-88958500D01*
X178802446Y-88958501D01*
X178698572Y-88969113D01*
X178530264Y-89024884D01*
X178530259Y-89024886D01*
X178379346Y-89117971D01*
X178253971Y-89243346D01*
X178160886Y-89394259D01*
X178160884Y-89394264D01*
X178105113Y-89562572D01*
X178094500Y-89666447D01*
X178094500Y-90967537D01*
X178094501Y-90967553D01*
X178105113Y-91071427D01*
X178139716Y-91175854D01*
X178160885Y-91239738D01*
X178253970Y-91390652D01*
X178379348Y-91516030D01*
X178526310Y-91606677D01*
X178573033Y-91658624D01*
X178584256Y-91727587D01*
X178556412Y-91791669D01*
X178548894Y-91799896D01*
X178416793Y-91931997D01*
X178291106Y-92104990D01*
X178194027Y-92295516D01*
X178194026Y-92295519D01*
X178127951Y-92498882D01*
X178094500Y-92710084D01*
X178094500Y-92923915D01*
X178127951Y-93135117D01*
X178194026Y-93338480D01*
X178194027Y-93338483D01*
X178291106Y-93529009D01*
X178416794Y-93702004D01*
X178567996Y-93853206D01*
X178670344Y-93927566D01*
X178724182Y-93966682D01*
X178766847Y-94022012D01*
X178772826Y-94091626D01*
X178740220Y-94153421D01*
X178724182Y-94167318D01*
X178655297Y-94217365D01*
X178567996Y-94280794D01*
X178567994Y-94280796D01*
X178567993Y-94280796D01*
X178416796Y-94431993D01*
X178291106Y-94604990D01*
X178194027Y-94795516D01*
X178194026Y-94795519D01*
X178127951Y-94998882D01*
X178127951Y-94998884D01*
X178094500Y-95210084D01*
X178094500Y-95423916D01*
X178111225Y-95529516D01*
X178127951Y-95635117D01*
X178194026Y-95838480D01*
X178194027Y-95838483D01*
X178291106Y-96029009D01*
X178416794Y-96202004D01*
X178567996Y-96353206D01*
X178740991Y-96478894D01*
X178834438Y-96526507D01*
X178931516Y-96575972D01*
X178931519Y-96575973D01*
X179033200Y-96609010D01*
X179134884Y-96642049D01*
X179346084Y-96675500D01*
X179346085Y-96675500D01*
X179809915Y-96675500D01*
X179809916Y-96675500D01*
X180021116Y-96642049D01*
X180224483Y-96575972D01*
X180415009Y-96478894D01*
X180588004Y-96353206D01*
X180634819Y-96306391D01*
X180696142Y-96272906D01*
X180765834Y-96277890D01*
X180821767Y-96319762D01*
X180846184Y-96385226D01*
X180846500Y-96394072D01*
X180846500Y-98239609D01*
X180826815Y-98306648D01*
X180810181Y-98327290D01*
X162801681Y-116335790D01*
X162740358Y-116369275D01*
X162670666Y-116364291D01*
X162614733Y-116322419D01*
X162590316Y-116256955D01*
X162590000Y-116248109D01*
X162590000Y-101928332D01*
X162609685Y-101861293D01*
X162626314Y-101840656D01*
X179193834Y-85273135D01*
X179255155Y-85239652D01*
X179300911Y-85238345D01*
X179346084Y-85245500D01*
X179346085Y-85245500D01*
X179809915Y-85245500D01*
X179809916Y-85245500D01*
X180021116Y-85212049D01*
X180070242Y-85196086D01*
X180083182Y-85191883D01*
X180153023Y-85189888D01*
X180212856Y-85225968D01*
G37*
%TD.AperFunction*%
%TA.AperFunction,NonConductor*%
G36*
X144931703Y-96311119D02*
G01*
X144938181Y-96317151D01*
X154703181Y-106082151D01*
X154736666Y-106143474D01*
X154739500Y-106169832D01*
X154739500Y-114605425D01*
X154719815Y-114672464D01*
X154685481Y-114706072D01*
X154686211Y-114707076D01*
X154496219Y-114845113D01*
X154333613Y-115007719D01*
X154198440Y-115193768D01*
X154094039Y-115398666D01*
X154022973Y-115617381D01*
X153987000Y-115844511D01*
X153987000Y-116169488D01*
X154022974Y-116396618D01*
X154068646Y-116537181D01*
X154070641Y-116607023D01*
X154034561Y-116666856D01*
X153971860Y-116697684D01*
X153950715Y-116699500D01*
X150683000Y-116699500D01*
X150615961Y-116679815D01*
X150570206Y-116627011D01*
X150559000Y-116575500D01*
X150559000Y-114958362D01*
X150558999Y-114958345D01*
X150555657Y-114927270D01*
X150552489Y-114897799D01*
X150501389Y-114760796D01*
X150413761Y-114643739D01*
X150296704Y-114556111D01*
X150268856Y-114545724D01*
X150159703Y-114505011D01*
X150099154Y-114498500D01*
X150099138Y-114498500D01*
X148096862Y-114498500D01*
X148096845Y-114498500D01*
X148036297Y-114505011D01*
X148036295Y-114505011D01*
X147899295Y-114556111D01*
X147782239Y-114643739D01*
X147694610Y-114760796D01*
X147687491Y-114779883D01*
X147645617Y-114835815D01*
X147580152Y-114860229D01*
X147511880Y-114845375D01*
X147498426Y-114836863D01*
X147323734Y-114709942D01*
X147323733Y-114709941D01*
X147323731Y-114709940D01*
X147250180Y-114672464D01*
X147118833Y-114605539D01*
X146900118Y-114534473D01*
X146672988Y-114498500D01*
X146672983Y-114498500D01*
X146443017Y-114498500D01*
X146443012Y-114498500D01*
X146215881Y-114534473D01*
X145997166Y-114605539D01*
X145792268Y-114709940D01*
X145606219Y-114845113D01*
X145443612Y-115007720D01*
X145388318Y-115083826D01*
X145332987Y-115126491D01*
X145263374Y-115132470D01*
X145201579Y-115099864D01*
X145187682Y-115083826D01*
X145169535Y-115058849D01*
X145132389Y-115007722D01*
X144969778Y-114845111D01*
X144783731Y-114709940D01*
X144783730Y-114709939D01*
X144779789Y-114707076D01*
X144780782Y-114705708D01*
X144738832Y-114659335D01*
X144726500Y-114605425D01*
X144726500Y-96404832D01*
X144746185Y-96337793D01*
X144798989Y-96292038D01*
X144868147Y-96282094D01*
X144931703Y-96311119D01*
G37*
%TD.AperFunction*%
%TA.AperFunction,NonConductor*%
G36*
X143228834Y-95619650D02*
G01*
X143284767Y-95661522D01*
X143309184Y-95726986D01*
X143309500Y-95735832D01*
X143309500Y-114605425D01*
X143289815Y-114672464D01*
X143255481Y-114706072D01*
X143256211Y-114707076D01*
X143066219Y-114845113D01*
X142903613Y-115007719D01*
X142768440Y-115193768D01*
X142664039Y-115398666D01*
X142592973Y-115617381D01*
X142557000Y-115844511D01*
X142557000Y-116169488D01*
X142592974Y-116396618D01*
X142638646Y-116537181D01*
X142640641Y-116607023D01*
X142604561Y-116666856D01*
X142541860Y-116697684D01*
X142520715Y-116699500D01*
X139253000Y-116699500D01*
X139185961Y-116679815D01*
X139140206Y-116627011D01*
X139129000Y-116575500D01*
X139129000Y-114958362D01*
X139128999Y-114958345D01*
X139125657Y-114927270D01*
X139122489Y-114897799D01*
X139071389Y-114760796D01*
X138983761Y-114643739D01*
X138866704Y-114556111D01*
X138838856Y-114545724D01*
X138729703Y-114505011D01*
X138669154Y-114498500D01*
X138669138Y-114498500D01*
X136666862Y-114498500D01*
X136666845Y-114498500D01*
X136606297Y-114505011D01*
X136606295Y-114505011D01*
X136469295Y-114556111D01*
X136352239Y-114643739D01*
X136264610Y-114760796D01*
X136257491Y-114779883D01*
X136215617Y-114835815D01*
X136150152Y-114860229D01*
X136081880Y-114845375D01*
X136068426Y-114836863D01*
X135893734Y-114709942D01*
X135893733Y-114709941D01*
X135893731Y-114709940D01*
X135820180Y-114672464D01*
X135688833Y-114605539D01*
X135470118Y-114534473D01*
X135242988Y-114498500D01*
X135242983Y-114498500D01*
X135013017Y-114498500D01*
X135013012Y-114498500D01*
X134785881Y-114534473D01*
X134567166Y-114605539D01*
X134362268Y-114709940D01*
X134176219Y-114845113D01*
X134013612Y-115007720D01*
X133958318Y-115083826D01*
X133902987Y-115126491D01*
X133833374Y-115132470D01*
X133771579Y-115099864D01*
X133757682Y-115083826D01*
X133739535Y-115058849D01*
X133702389Y-115007722D01*
X133539778Y-114845111D01*
X133353731Y-114709940D01*
X133353730Y-114709939D01*
X133349789Y-114707076D01*
X133350782Y-114705708D01*
X133308832Y-114659335D01*
X133296500Y-114605425D01*
X133296500Y-105500832D01*
X133316185Y-105433793D01*
X133332819Y-105413151D01*
X143097819Y-95648151D01*
X143159142Y-95614666D01*
X143228834Y-95619650D01*
G37*
%TD.AperFunction*%
%TA.AperFunction,NonConductor*%
G36*
X131798834Y-106187150D02*
G01*
X131854767Y-106229022D01*
X131879184Y-106294486D01*
X131879500Y-106303332D01*
X131879500Y-114605425D01*
X131859815Y-114672464D01*
X131825481Y-114706072D01*
X131826211Y-114707076D01*
X131636219Y-114845113D01*
X131473613Y-115007719D01*
X131338440Y-115193768D01*
X131234039Y-115398666D01*
X131162973Y-115617381D01*
X131127000Y-115844511D01*
X131127000Y-116169488D01*
X131162974Y-116396618D01*
X131208646Y-116537181D01*
X131210641Y-116607023D01*
X131174561Y-116666856D01*
X131111860Y-116697684D01*
X131090715Y-116699500D01*
X127539500Y-116699500D01*
X127472461Y-116679815D01*
X127426706Y-116627011D01*
X127415500Y-116575500D01*
X127415500Y-114958362D01*
X127415499Y-114958345D01*
X127412157Y-114927270D01*
X127408989Y-114897799D01*
X127357889Y-114760796D01*
X127270261Y-114643739D01*
X127153204Y-114556111D01*
X127125356Y-114545724D01*
X127016203Y-114505011D01*
X126955654Y-114498500D01*
X126955638Y-114498500D01*
X124953362Y-114498500D01*
X124953345Y-114498500D01*
X124892797Y-114505011D01*
X124892795Y-114505011D01*
X124755795Y-114556111D01*
X124638739Y-114643739D01*
X124551110Y-114760796D01*
X124543991Y-114779883D01*
X124502117Y-114835815D01*
X124436652Y-114860229D01*
X124368380Y-114845375D01*
X124354926Y-114836863D01*
X124180234Y-114709942D01*
X124180233Y-114709941D01*
X124180231Y-114709940D01*
X124106680Y-114672464D01*
X123975333Y-114605539D01*
X123756619Y-114534474D01*
X123645096Y-114516810D01*
X123581962Y-114486880D01*
X123545031Y-114427569D01*
X123546029Y-114357706D01*
X123576812Y-114306658D01*
X131667819Y-106215650D01*
X131729142Y-106182166D01*
X131798834Y-106187150D01*
G37*
%TD.AperFunction*%
%TA.AperFunction,NonConductor*%
G36*
X110133703Y-111136119D02*
G01*
X110140181Y-111142151D01*
X111523181Y-112525151D01*
X111556666Y-112586474D01*
X111559500Y-112612832D01*
X111559500Y-119338985D01*
X111539815Y-119406024D01*
X111487011Y-119451779D01*
X111417853Y-119461723D01*
X111411318Y-119460604D01*
X111410797Y-119460500D01*
X111410791Y-119460500D01*
X111207209Y-119460500D01*
X111207206Y-119460500D01*
X111007546Y-119500215D01*
X111007534Y-119500218D01*
X110819460Y-119578120D01*
X110819447Y-119578127D01*
X110650182Y-119691227D01*
X110650178Y-119691230D01*
X110506230Y-119835178D01*
X110506227Y-119835182D01*
X110393127Y-120004447D01*
X110393120Y-120004460D01*
X110315218Y-120192534D01*
X110315215Y-120192546D01*
X110275500Y-120392204D01*
X110275500Y-120597729D01*
X110269261Y-120618974D01*
X110267682Y-120641063D01*
X110259609Y-120651846D01*
X110255815Y-120664768D01*
X110239081Y-120679267D01*
X110225810Y-120696996D01*
X110213189Y-120701703D01*
X110203011Y-120710523D01*
X110181093Y-120713674D01*
X110160346Y-120721413D01*
X110147185Y-120718550D01*
X110133853Y-120720467D01*
X110113709Y-120711267D01*
X110092073Y-120706561D01*
X110074347Y-120693292D01*
X110070297Y-120691442D01*
X110063819Y-120685410D01*
X109964819Y-120586410D01*
X109931334Y-120525087D01*
X109928500Y-120498729D01*
X109928500Y-111229832D01*
X109948185Y-111162793D01*
X110000989Y-111117038D01*
X110070147Y-111107094D01*
X110133703Y-111136119D01*
G37*
%TD.AperFunction*%
%TA.AperFunction,NonConductor*%
G36*
X129303379Y-64983461D02*
G01*
X129310622Y-64982839D01*
X129335506Y-64995968D01*
X129361718Y-65006173D01*
X129368949Y-65013614D01*
X129372418Y-65015444D01*
X129386316Y-65031483D01*
X129405378Y-65057720D01*
X129405380Y-65057722D01*
X129573278Y-65225620D01*
X129765373Y-65365185D01*
X129806329Y-65386053D01*
X129976932Y-65472980D01*
X129976934Y-65472980D01*
X129976937Y-65472982D01*
X130202759Y-65546356D01*
X130310011Y-65563343D01*
X130324892Y-65565700D01*
X130388027Y-65595629D01*
X130424958Y-65654941D01*
X130423960Y-65724803D01*
X130393175Y-65775854D01*
X127600348Y-68568681D01*
X127539025Y-68602166D01*
X127512667Y-68605000D01*
X122280320Y-68605000D01*
X122213281Y-68585315D01*
X122167526Y-68532511D01*
X122157582Y-68463353D01*
X122159743Y-68452064D01*
X122160712Y-68448021D01*
X122160716Y-68448010D01*
X122192000Y-68250491D01*
X122192000Y-68050509D01*
X122160716Y-67852990D01*
X122109463Y-67695249D01*
X122098920Y-67662799D01*
X122008128Y-67484612D01*
X122002024Y-67476210D01*
X121890583Y-67322825D01*
X121749175Y-67181417D01*
X121587387Y-67063871D01*
X121511568Y-67025239D01*
X121409200Y-66973079D01*
X121219011Y-66911284D01*
X121120250Y-66895642D01*
X121021491Y-66880000D01*
X120821509Y-66880000D01*
X120755669Y-66890428D01*
X120623988Y-66911284D01*
X120433799Y-66973079D01*
X120255612Y-67063871D01*
X120163306Y-67130935D01*
X120093825Y-67181417D01*
X120093823Y-67181419D01*
X120093822Y-67181419D01*
X119952419Y-67322822D01*
X119952419Y-67322823D01*
X119952417Y-67322825D01*
X119940039Y-67339862D01*
X119834867Y-67484617D01*
X119761984Y-67627658D01*
X119714010Y-67678454D01*
X119646189Y-67695249D01*
X119580054Y-67672711D01*
X119541016Y-67627658D01*
X119468132Y-67484617D01*
X119438334Y-67443604D01*
X119350583Y-67322825D01*
X119209175Y-67181417D01*
X119047387Y-67063871D01*
X118971568Y-67025239D01*
X118869200Y-66973079D01*
X118679011Y-66911284D01*
X118580250Y-66895642D01*
X118481491Y-66880000D01*
X118281509Y-66880000D01*
X118215669Y-66890428D01*
X118083988Y-66911284D01*
X117893799Y-66973079D01*
X117715612Y-67063871D01*
X117623306Y-67130935D01*
X117553825Y-67181417D01*
X117553823Y-67181419D01*
X117553822Y-67181419D01*
X117412419Y-67322822D01*
X117412419Y-67322823D01*
X117412417Y-67322825D01*
X117400039Y-67339862D01*
X117294867Y-67484617D01*
X117221984Y-67627658D01*
X117174010Y-67678454D01*
X117106189Y-67695249D01*
X117040054Y-67672711D01*
X117001016Y-67627658D01*
X116928132Y-67484617D01*
X116898334Y-67443604D01*
X116810583Y-67322825D01*
X116669175Y-67181417D01*
X116507387Y-67063871D01*
X116431568Y-67025239D01*
X116329200Y-66973079D01*
X116139011Y-66911284D01*
X116040250Y-66895642D01*
X115941491Y-66880000D01*
X115741509Y-66880000D01*
X115675669Y-66890428D01*
X115543988Y-66911284D01*
X115353799Y-66973079D01*
X115175612Y-67063871D01*
X115083306Y-67130935D01*
X115013825Y-67181417D01*
X115013823Y-67181419D01*
X115013822Y-67181419D01*
X114872419Y-67322822D01*
X114872419Y-67322823D01*
X114872417Y-67322825D01*
X114860039Y-67339862D01*
X114796318Y-67427566D01*
X114740988Y-67470231D01*
X114671374Y-67476210D01*
X114609579Y-67443604D01*
X114575222Y-67382765D01*
X114572000Y-67354680D01*
X114572000Y-67339862D01*
X114571999Y-67339845D01*
X114568657Y-67308770D01*
X114565489Y-67279299D01*
X114514389Y-67142296D01*
X114426761Y-67025239D01*
X114309704Y-66937611D01*
X114172703Y-66886511D01*
X114112154Y-66880000D01*
X114112138Y-66880000D01*
X112490862Y-66880000D01*
X112490845Y-66880000D01*
X112430297Y-66886511D01*
X112430295Y-66886511D01*
X112293295Y-66937611D01*
X112176239Y-67025239D01*
X112088611Y-67142295D01*
X112037511Y-67279295D01*
X112037511Y-67279297D01*
X112031000Y-67339845D01*
X112031000Y-68961154D01*
X112037511Y-69021702D01*
X112037511Y-69021704D01*
X112088611Y-69158704D01*
X112176239Y-69275761D01*
X112293296Y-69363389D01*
X112430299Y-69414489D01*
X112457550Y-69417418D01*
X112490845Y-69420999D01*
X112490862Y-69421000D01*
X114112138Y-69421000D01*
X114112154Y-69420999D01*
X114139192Y-69418091D01*
X114172701Y-69414489D01*
X114309704Y-69363389D01*
X114426761Y-69275761D01*
X114514389Y-69158704D01*
X114565489Y-69021701D01*
X114570168Y-68978177D01*
X114571999Y-68961154D01*
X114572000Y-68961137D01*
X114572000Y-68946319D01*
X114591685Y-68879280D01*
X114644489Y-68833525D01*
X114713647Y-68823581D01*
X114777203Y-68852606D01*
X114796318Y-68873434D01*
X114872414Y-68978171D01*
X114872419Y-68978177D01*
X115013828Y-69119586D01*
X115081884Y-69169030D01*
X115124551Y-69224359D01*
X115133000Y-69269349D01*
X115133000Y-73364666D01*
X115113315Y-73431705D01*
X115096681Y-73452347D01*
X100570632Y-87978395D01*
X100509309Y-88011880D01*
X100444633Y-88008645D01*
X100437543Y-88006341D01*
X100429239Y-88003643D01*
X100194727Y-87966500D01*
X100194722Y-87966500D01*
X99957278Y-87966500D01*
X99957273Y-87966500D01*
X99722758Y-88003643D01*
X99496932Y-88077019D01*
X99285372Y-88184815D01*
X99093275Y-88324382D01*
X98925382Y-88492275D01*
X98785815Y-88684372D01*
X98678019Y-88895932D01*
X98604643Y-89121758D01*
X98567500Y-89356272D01*
X98567500Y-89593727D01*
X98604643Y-89828241D01*
X98678019Y-90054067D01*
X98785815Y-90265627D01*
X98925380Y-90457722D01*
X99093278Y-90625620D01*
X99285373Y-90765185D01*
X99367499Y-90807030D01*
X99496932Y-90872980D01*
X99496934Y-90872980D01*
X99496937Y-90872982D01*
X99527822Y-90883017D01*
X99722758Y-90946356D01*
X99957273Y-90983500D01*
X99957278Y-90983500D01*
X100194727Y-90983500D01*
X100429241Y-90946356D01*
X100444632Y-90941355D01*
X100655063Y-90872982D01*
X100866627Y-90765185D01*
X101058722Y-90625620D01*
X101226620Y-90457722D01*
X101245681Y-90431487D01*
X101301009Y-90388821D01*
X101370622Y-90382840D01*
X101432418Y-90415445D01*
X101446316Y-90431484D01*
X101465378Y-90457721D01*
X101465380Y-90457723D01*
X101633278Y-90625621D01*
X101825373Y-90765186D01*
X101907497Y-90807030D01*
X102036932Y-90872981D01*
X102036934Y-90872981D01*
X102036937Y-90872983D01*
X102157984Y-90912313D01*
X102262758Y-90946357D01*
X102497273Y-90983501D01*
X102497278Y-90983501D01*
X102734727Y-90983501D01*
X102969241Y-90946357D01*
X102969244Y-90946356D01*
X103195063Y-90872983D01*
X103406627Y-90765186D01*
X103598722Y-90625621D01*
X103766620Y-90457723D01*
X103785681Y-90431488D01*
X103841009Y-90388821D01*
X103910622Y-90382840D01*
X103972418Y-90415444D01*
X103986319Y-90431487D01*
X104005376Y-90457718D01*
X104005379Y-90457721D01*
X104005380Y-90457722D01*
X104173278Y-90625620D01*
X104365373Y-90765185D01*
X104447499Y-90807030D01*
X104576932Y-90872980D01*
X104576934Y-90872980D01*
X104576937Y-90872982D01*
X104607822Y-90883017D01*
X104802758Y-90946356D01*
X105037273Y-90983500D01*
X105037278Y-90983500D01*
X105274727Y-90983500D01*
X105509241Y-90946356D01*
X105524632Y-90941355D01*
X105735063Y-90872982D01*
X105946627Y-90765185D01*
X106138722Y-90625620D01*
X106306620Y-90457722D01*
X106325681Y-90431487D01*
X106381009Y-90388821D01*
X106450622Y-90382840D01*
X106512418Y-90415445D01*
X106526316Y-90431484D01*
X106545378Y-90457721D01*
X106545380Y-90457723D01*
X106713278Y-90625621D01*
X106905373Y-90765186D01*
X106987497Y-90807030D01*
X107116932Y-90872981D01*
X107116934Y-90872981D01*
X107116937Y-90872983D01*
X107237984Y-90912313D01*
X107342758Y-90946357D01*
X107577273Y-90983501D01*
X107577278Y-90983501D01*
X107814727Y-90983501D01*
X108049241Y-90946357D01*
X108049244Y-90946356D01*
X108275063Y-90872983D01*
X108486627Y-90765186D01*
X108678722Y-90625621D01*
X108846620Y-90457723D01*
X108865681Y-90431488D01*
X108921009Y-90388821D01*
X108990622Y-90382840D01*
X109052418Y-90415444D01*
X109066319Y-90431487D01*
X109085376Y-90457718D01*
X109085379Y-90457721D01*
X109085380Y-90457722D01*
X109253278Y-90625620D01*
X109445373Y-90765185D01*
X109527499Y-90807030D01*
X109656932Y-90872980D01*
X109656934Y-90872980D01*
X109656937Y-90872982D01*
X109687822Y-90883017D01*
X109882758Y-90946356D01*
X110117273Y-90983500D01*
X110117278Y-90983500D01*
X110354727Y-90983500D01*
X110467107Y-90965700D01*
X110589241Y-90946356D01*
X110604635Y-90941353D01*
X110674474Y-90939359D01*
X110730633Y-90971604D01*
X114478181Y-94719152D01*
X114511666Y-94780475D01*
X114514500Y-94806833D01*
X114514500Y-115302612D01*
X114541724Y-115439479D01*
X114541727Y-115439488D01*
X114595135Y-115568427D01*
X114595136Y-115568430D01*
X114672671Y-115684468D01*
X114672674Y-115684472D01*
X118749528Y-119761325D01*
X118749532Y-119761328D01*
X118865567Y-119838861D01*
X118865574Y-119838865D01*
X118939418Y-119869452D01*
X118994512Y-119892273D01*
X119131388Y-119919499D01*
X119131392Y-119919500D01*
X119131393Y-119919500D01*
X119270956Y-119919500D01*
X124860220Y-119919500D01*
X124927259Y-119939185D01*
X124973014Y-119991989D01*
X124982958Y-120061147D01*
X124953933Y-120124703D01*
X124947901Y-120131181D01*
X124909659Y-120169422D01*
X124909659Y-120169423D01*
X124909657Y-120169425D01*
X124892864Y-120192539D01*
X124779343Y-120348785D01*
X124678693Y-120546320D01*
X124610182Y-120757176D01*
X124575500Y-120976150D01*
X124575500Y-121197851D01*
X124605316Y-121386102D01*
X124596361Y-121455396D01*
X124551365Y-121508848D01*
X124484614Y-121529487D01*
X124482843Y-121529500D01*
X115006500Y-121529500D01*
X114939461Y-121509815D01*
X114893706Y-121457011D01*
X114882500Y-121405500D01*
X114882500Y-119920362D01*
X114882499Y-119920345D01*
X114878412Y-119882341D01*
X114875989Y-119859799D01*
X114868179Y-119838861D01*
X114846856Y-119781691D01*
X114824889Y-119722796D01*
X114737261Y-119605739D01*
X114620204Y-119518111D01*
X114572232Y-119500218D01*
X114483203Y-119467011D01*
X114422654Y-119460500D01*
X114422638Y-119460500D01*
X113275362Y-119460500D01*
X113275345Y-119460500D01*
X113214797Y-119467011D01*
X113214792Y-119467012D01*
X113143834Y-119493479D01*
X113074143Y-119498464D01*
X113012819Y-119464980D01*
X112979334Y-119403657D01*
X112976500Y-119377298D01*
X112976500Y-112198218D01*
X112976499Y-112198214D01*
X112949275Y-112061345D01*
X112949273Y-112061342D01*
X112949273Y-112061338D01*
X112926689Y-112006815D01*
X112926685Y-112006806D01*
X112895865Y-111932401D01*
X112895863Y-111932397D01*
X112818331Y-111816362D01*
X112818325Y-111816354D01*
X93708819Y-92706848D01*
X93675334Y-92645525D01*
X93672500Y-92619167D01*
X93672500Y-84164832D01*
X93692185Y-84097793D01*
X93708819Y-84077151D01*
X111565151Y-66220819D01*
X111626474Y-66187334D01*
X111652832Y-66184500D01*
X113984784Y-66184500D01*
X114020345Y-66177425D01*
X114083393Y-66164885D01*
X114121662Y-66157273D01*
X114172353Y-66136276D01*
X114250601Y-66103865D01*
X114366643Y-66026328D01*
X114821368Y-65571601D01*
X114882688Y-65538119D01*
X114947364Y-65541353D01*
X114962759Y-65546356D01*
X115001845Y-65552546D01*
X115197273Y-65583500D01*
X115197278Y-65583500D01*
X115434727Y-65583500D01*
X115669241Y-65546356D01*
X115669244Y-65546355D01*
X115895063Y-65472982D01*
X116106627Y-65365185D01*
X116298722Y-65225620D01*
X116466620Y-65057722D01*
X116485681Y-65031487D01*
X116541009Y-64988820D01*
X116610622Y-64982839D01*
X116672418Y-65015443D01*
X116686319Y-65031486D01*
X116705376Y-65057717D01*
X116705379Y-65057720D01*
X116705380Y-65057721D01*
X116873278Y-65225619D01*
X117065373Y-65365184D01*
X117106331Y-65386053D01*
X117276932Y-65472979D01*
X117276934Y-65472979D01*
X117276937Y-65472981D01*
X117397984Y-65512311D01*
X117502758Y-65546355D01*
X117737273Y-65583499D01*
X117737278Y-65583499D01*
X117974727Y-65583499D01*
X118209241Y-65546355D01*
X118234592Y-65538118D01*
X118435063Y-65472981D01*
X118646627Y-65365184D01*
X118838722Y-65225619D01*
X119006620Y-65057721D01*
X119025681Y-65031486D01*
X119081009Y-64988820D01*
X119150622Y-64982839D01*
X119212418Y-65015444D01*
X119226316Y-65031483D01*
X119245378Y-65057720D01*
X119245380Y-65057722D01*
X119413278Y-65225620D01*
X119605373Y-65365185D01*
X119646329Y-65386053D01*
X119816932Y-65472980D01*
X119816934Y-65472980D01*
X119816937Y-65472982D01*
X119937984Y-65512312D01*
X120042758Y-65546356D01*
X120277273Y-65583500D01*
X120277278Y-65583500D01*
X120514727Y-65583500D01*
X120749241Y-65546356D01*
X120749244Y-65546355D01*
X120975063Y-65472982D01*
X121186627Y-65365185D01*
X121378722Y-65225620D01*
X121546620Y-65057722D01*
X121565681Y-65031487D01*
X121621009Y-64988820D01*
X121690622Y-64982839D01*
X121752418Y-65015443D01*
X121766319Y-65031486D01*
X121785376Y-65057717D01*
X121785379Y-65057720D01*
X121785380Y-65057721D01*
X121953278Y-65225619D01*
X122145373Y-65365184D01*
X122186331Y-65386053D01*
X122356932Y-65472979D01*
X122356934Y-65472979D01*
X122356937Y-65472981D01*
X122477984Y-65512311D01*
X122582758Y-65546355D01*
X122817273Y-65583499D01*
X122817278Y-65583499D01*
X123054727Y-65583499D01*
X123289241Y-65546355D01*
X123314592Y-65538118D01*
X123515063Y-65472981D01*
X123726627Y-65365184D01*
X123918722Y-65225619D01*
X124086620Y-65057721D01*
X124105681Y-65031486D01*
X124161009Y-64988820D01*
X124230622Y-64982839D01*
X124292418Y-65015444D01*
X124306316Y-65031483D01*
X124325378Y-65057720D01*
X124325380Y-65057722D01*
X124493278Y-65225620D01*
X124685373Y-65365185D01*
X124726329Y-65386053D01*
X124896932Y-65472980D01*
X124896934Y-65472980D01*
X124896937Y-65472982D01*
X125017984Y-65512312D01*
X125122758Y-65546356D01*
X125357273Y-65583500D01*
X125357278Y-65583500D01*
X125594727Y-65583500D01*
X125829241Y-65546356D01*
X125829244Y-65546355D01*
X126055063Y-65472982D01*
X126266627Y-65365185D01*
X126458722Y-65225620D01*
X126626620Y-65057722D01*
X126645681Y-65031487D01*
X126701009Y-64988820D01*
X126770622Y-64982839D01*
X126832418Y-65015443D01*
X126846319Y-65031486D01*
X126865376Y-65057717D01*
X126865379Y-65057720D01*
X126865380Y-65057721D01*
X127033278Y-65225619D01*
X127225373Y-65365184D01*
X127266331Y-65386053D01*
X127436932Y-65472979D01*
X127436934Y-65472979D01*
X127436937Y-65472981D01*
X127557984Y-65512311D01*
X127662758Y-65546355D01*
X127897273Y-65583499D01*
X127897278Y-65583499D01*
X128134727Y-65583499D01*
X128369241Y-65546355D01*
X128394592Y-65538118D01*
X128595063Y-65472981D01*
X128806627Y-65365184D01*
X128998722Y-65225619D01*
X129166620Y-65057721D01*
X129185681Y-65031486D01*
X129207955Y-65014309D01*
X129228131Y-64994701D01*
X129235254Y-64993257D01*
X129241009Y-64988820D01*
X129269037Y-64986411D01*
X129296608Y-64980825D01*
X129303379Y-64983461D01*
G37*
%TD.AperFunction*%
%TA.AperFunction,NonConductor*%
G36*
X143344205Y-119338185D02*
G01*
X143389960Y-119390989D01*
X143399904Y-119460147D01*
X143370879Y-119523703D01*
X143364847Y-119530181D01*
X139288182Y-123606846D01*
X139226859Y-123640331D01*
X139157167Y-123635347D01*
X139101234Y-123593475D01*
X139076817Y-123528011D01*
X139076501Y-123519165D01*
X139076501Y-122678360D01*
X139076500Y-122678343D01*
X139069990Y-122617800D01*
X139069990Y-122617797D01*
X139066645Y-122608830D01*
X139047523Y-122557562D01*
X139018890Y-122480794D01*
X138931262Y-122363737D01*
X138860922Y-122311081D01*
X138814207Y-122276110D01*
X138814205Y-122276109D01*
X138744874Y-122250249D01*
X138688942Y-122208379D01*
X138664526Y-122142914D01*
X138679378Y-122074641D01*
X138700527Y-122046390D01*
X138742344Y-122004574D01*
X138872658Y-121825213D01*
X138973309Y-121627674D01*
X139041819Y-121416822D01*
X139076501Y-121197849D01*
X139076501Y-120976147D01*
X139041819Y-120757174D01*
X138973309Y-120546322D01*
X138973307Y-120546318D01*
X138973307Y-120546317D01*
X138920211Y-120442112D01*
X138872658Y-120348783D01*
X138742344Y-120169422D01*
X138585577Y-120012655D01*
X138406216Y-119882341D01*
X138361967Y-119859795D01*
X138208681Y-119781691D01*
X137997825Y-119713180D01*
X137859238Y-119691230D01*
X137778852Y-119678498D01*
X137557150Y-119678498D01*
X137364303Y-119709042D01*
X137295009Y-119700087D01*
X137257224Y-119674250D01*
X137113155Y-119530181D01*
X137079670Y-119468858D01*
X137084654Y-119399166D01*
X137126526Y-119343233D01*
X137191990Y-119318816D01*
X137200836Y-119318500D01*
X143277166Y-119318500D01*
X143344205Y-119338185D01*
G37*
%TD.AperFunction*%
%TA.AperFunction,NonConductor*%
G36*
X135514209Y-119939185D02*
G01*
X135534851Y-119955819D01*
X136255253Y-120676221D01*
X136288738Y-120737544D01*
X136290045Y-120783300D01*
X136259501Y-120976147D01*
X136259501Y-121197849D01*
X136274351Y-121291606D01*
X136294183Y-121416822D01*
X136362694Y-121627678D01*
X136398012Y-121696992D01*
X136463344Y-121825213D01*
X136593658Y-122004574D01*
X136593660Y-122004576D01*
X136635472Y-122046388D01*
X136668957Y-122107711D01*
X136663973Y-122177403D01*
X136622101Y-122233336D01*
X136591126Y-122250250D01*
X136521796Y-122276109D01*
X136404740Y-122363737D01*
X136317112Y-122480793D01*
X136266012Y-122617793D01*
X136266012Y-122617795D01*
X136259501Y-122678343D01*
X136259501Y-124095501D01*
X136239816Y-124162540D01*
X136187012Y-124208295D01*
X136135501Y-124219501D01*
X127516500Y-124219501D01*
X127449461Y-124199816D01*
X127403706Y-124147012D01*
X127392500Y-124095501D01*
X127392500Y-122678363D01*
X127392499Y-122678346D01*
X127389157Y-122647271D01*
X127385989Y-122617800D01*
X127385987Y-122617795D01*
X127363522Y-122557565D01*
X127334889Y-122480797D01*
X127247261Y-122363740D01*
X127176921Y-122311084D01*
X127130206Y-122276113D01*
X127130204Y-122276112D01*
X127060873Y-122250252D01*
X127004941Y-122208382D01*
X126980525Y-122142917D01*
X126995377Y-122074644D01*
X127016526Y-122046393D01*
X127058343Y-122004577D01*
X127188657Y-121825216D01*
X127289308Y-121627677D01*
X127357818Y-121416825D01*
X127392500Y-121197852D01*
X127392500Y-120976150D01*
X127357818Y-120757177D01*
X127289308Y-120546325D01*
X127289306Y-120546322D01*
X127289306Y-120546320D01*
X127210782Y-120392209D01*
X127188657Y-120348786D01*
X127058343Y-120169425D01*
X127020099Y-120131181D01*
X126986614Y-120069858D01*
X126991598Y-120000166D01*
X127033470Y-119944233D01*
X127098934Y-119919816D01*
X127107780Y-119919500D01*
X135447170Y-119919500D01*
X135514209Y-119939185D01*
G37*
%TD.AperFunction*%
%TA.AperFunction,NonConductor*%
G36*
X124518539Y-122966185D02*
G01*
X124564294Y-123018989D01*
X124575500Y-123070500D01*
X124575500Y-124095501D01*
X124555815Y-124162540D01*
X124503011Y-124208295D01*
X124451500Y-124219501D01*
X112799329Y-124219501D01*
X112732290Y-124199816D01*
X112711648Y-124183182D01*
X111686647Y-123158181D01*
X111653162Y-123096858D01*
X111658146Y-123027166D01*
X111700018Y-122971233D01*
X111765482Y-122946816D01*
X111774328Y-122946500D01*
X124451500Y-122946500D01*
X124518539Y-122966185D01*
G37*
%TD.AperFunction*%
%TA.AperFunction,NonConductor*%
G36*
X147906127Y-120108185D02*
G01*
X147951882Y-120160989D01*
X147961826Y-120230147D01*
X147939406Y-120285386D01*
X147893344Y-120348783D01*
X147792694Y-120546318D01*
X147724183Y-120757174D01*
X147689501Y-120976148D01*
X147689501Y-121197850D01*
X147689500Y-121197850D01*
X147720044Y-121390697D01*
X147711089Y-121459990D01*
X147685252Y-121497775D01*
X144398847Y-124784182D01*
X144337524Y-124817667D01*
X144311166Y-124820501D01*
X140377831Y-124820501D01*
X140310792Y-124800816D01*
X140265037Y-124748012D01*
X140255093Y-124678854D01*
X140284118Y-124615298D01*
X140290150Y-124608820D01*
X144774151Y-120124819D01*
X144835474Y-120091334D01*
X144861832Y-120088500D01*
X147839088Y-120088500D01*
X147906127Y-120108185D01*
G37*
%TD.AperFunction*%
%TA.AperFunction,NonConductor*%
G36*
X159336127Y-120108185D02*
G01*
X159381882Y-120160989D01*
X159391826Y-120230147D01*
X159369406Y-120285386D01*
X159323344Y-120348783D01*
X159222694Y-120546318D01*
X159154183Y-120757174D01*
X159119501Y-120976148D01*
X159119501Y-121197849D01*
X159150045Y-121390696D01*
X159141090Y-121459990D01*
X159115253Y-121497775D01*
X155227847Y-125385182D01*
X155166524Y-125418667D01*
X155140166Y-125421501D01*
X146064832Y-125421501D01*
X145997793Y-125401816D01*
X145952038Y-125349012D01*
X145942094Y-125279854D01*
X145971119Y-125216298D01*
X145977151Y-125209820D01*
X147477820Y-123709150D01*
X147539143Y-123675665D01*
X147608835Y-123680649D01*
X147664768Y-123722521D01*
X147689185Y-123787985D01*
X147689501Y-123796831D01*
X147689501Y-124575653D01*
X147696012Y-124636201D01*
X147696012Y-124636203D01*
X147711921Y-124678854D01*
X147747112Y-124773203D01*
X147834740Y-124890260D01*
X147951797Y-124977888D01*
X148088800Y-125028988D01*
X148116051Y-125031917D01*
X148149346Y-125035498D01*
X148149363Y-125035499D01*
X150046639Y-125035499D01*
X150046655Y-125035498D01*
X150073693Y-125032590D01*
X150107202Y-125028988D01*
X150244205Y-124977888D01*
X150361262Y-124890260D01*
X150448890Y-124773203D01*
X150499990Y-124636200D01*
X150503592Y-124602691D01*
X150506500Y-124575653D01*
X150506501Y-124575636D01*
X150506501Y-122678361D01*
X150506500Y-122678344D01*
X150503158Y-122647269D01*
X150499990Y-122617798D01*
X150499988Y-122617793D01*
X150477523Y-122557563D01*
X150448890Y-122480795D01*
X150361262Y-122363738D01*
X150290922Y-122311082D01*
X150244207Y-122276111D01*
X150244205Y-122276110D01*
X150174874Y-122250250D01*
X150118942Y-122208380D01*
X150094526Y-122142915D01*
X150109378Y-122074642D01*
X150130529Y-122046390D01*
X150172344Y-122004575D01*
X150302658Y-121825214D01*
X150403309Y-121627675D01*
X150471819Y-121416823D01*
X150506501Y-121197850D01*
X150506501Y-120976148D01*
X150471819Y-120757175D01*
X150403309Y-120546323D01*
X150403307Y-120546320D01*
X150403307Y-120546318D01*
X150324784Y-120392209D01*
X150302658Y-120348784D01*
X150256595Y-120285384D01*
X150233116Y-120219580D01*
X150248941Y-120151526D01*
X150299047Y-120102831D01*
X150356914Y-120088500D01*
X159269088Y-120088500D01*
X159336127Y-120108185D01*
G37*
%TD.AperFunction*%
D29*
X113301500Y-68150500D03*
X115841500Y-68150500D03*
X118381500Y-68150500D03*
X120921500Y-68150500D03*
X177748000Y-118547000D03*
X172748000Y-118547000D03*
X175248000Y-118547000D03*
D30*
X180848000Y-126047001D03*
X169648000Y-126047001D03*
D29*
X172748000Y-133047000D03*
X177748000Y-133047000D03*
X170688000Y-57404000D03*
X130088000Y-55891500D03*
X132588000Y-55891500D03*
X147868000Y-55947000D03*
X150368000Y-55947000D03*
X95885000Y-123511000D03*
X103377998Y-123627001D03*
X103377998Y-121087001D03*
X138978000Y-55947000D03*
X141478000Y-55947000D03*
X137668001Y-123626998D03*
X137668001Y-121086998D03*
X149098001Y-123626999D03*
X149098001Y-121086999D03*
X125984000Y-123627001D03*
X125984000Y-121087001D03*
X179578000Y-78887000D03*
X179578000Y-81387000D03*
X179578000Y-83887000D03*
X180594000Y-109795000D03*
X179578000Y-56027000D03*
X179578000Y-58527000D03*
X179578000Y-61027000D03*
X160528001Y-123626999D03*
X160528001Y-121086999D03*
X149669500Y-68150500D03*
X152209500Y-68150500D03*
X154749500Y-68150500D03*
X157289500Y-68150500D03*
X179578000Y-67457000D03*
X179578000Y-69957000D03*
X179578000Y-72457000D03*
X156758000Y-55947000D03*
X159258000Y-55947000D03*
X97536000Y-57150000D03*
X179578000Y-90317000D03*
X179578000Y-92817000D03*
X179578000Y-95317000D03*
X160528000Y-127437000D03*
X151729182Y-132517000D03*
X113849000Y-120719000D03*
X112579000Y-120719000D03*
X111309000Y-120719000D03*
X125984000Y-127437000D03*
X117185182Y-132517000D03*
X103378000Y-127437000D03*
X94579182Y-132517000D03*
X149098000Y-127437000D03*
X140299182Y-132517000D03*
X160528000Y-116007000D03*
X157988000Y-116007000D03*
X155448000Y-116007000D03*
X125954500Y-116007000D03*
X123414500Y-116007000D03*
X120874500Y-116007000D03*
X113538000Y-127437000D03*
X104739182Y-132517000D03*
X137668000Y-127437000D03*
X128869182Y-132517000D03*
X100076000Y-64075000D03*
X102615999Y-64075000D03*
X105156000Y-64075000D03*
X107695999Y-64075000D03*
X110236000Y-64075000D03*
X112775999Y-64075000D03*
X115316000Y-64075000D03*
X117856000Y-64074999D03*
X120396000Y-64075000D03*
X122936000Y-64074999D03*
X125476000Y-64075000D03*
X128016000Y-64074999D03*
X130556000Y-64075000D03*
X133096000Y-64075000D03*
X135636000Y-64075000D03*
X135636000Y-89475000D03*
X133096000Y-89475000D03*
X130556000Y-89475000D03*
X128016000Y-89475001D03*
X125476000Y-89475000D03*
X122936001Y-89475000D03*
X120396000Y-89475000D03*
X117856001Y-89475000D03*
X115316000Y-89475000D03*
X112776000Y-89475001D03*
X110236000Y-89475000D03*
X107696000Y-89475001D03*
X105156000Y-89475000D03*
X102616000Y-89475001D03*
X100076000Y-89475000D03*
X137668000Y-116007000D03*
X135128000Y-116007000D03*
X132588000Y-116007000D03*
X149098000Y-116007000D03*
X146558000Y-116007000D03*
X144018000Y-116007000D03*
M02*
